ISO-10303-21;
HEADER;
FILE_DESCRIPTION(('Open CASCADE Model'),'2;1');
FILE_NAME('Open CASCADE Shape Model','2014-08-11T15:18:01',('Author'),(
    'Open CASCADE'),'Open CASCADE STEP processor 6.2','Open CASCADE 6.2'
  ,'Unknown');
FILE_SCHEMA(('AUTOMOTIVE_DESIGN { 1 0 10303 214 1 1 1 1 }'));
ENDSEC;
DATA;
#1 = APPLICATION_PROTOCOL_DEFINITION('international standard',
  'automotive_design',2000,#2);
#2 = APPLICATION_CONTEXT(
  'core data for automotive mechanical design processes');
#3 = SHAPE_DEFINITION_REPRESENTATION(#4,#10);
#4 = PRODUCT_DEFINITION_SHAPE('','',#5);
#5 = PRODUCT_DEFINITION('design','',#6,#9);
#6 = PRODUCT_DEFINITION_FORMATION('','',#7);
#7 = PRODUCT('PCB','PCB','',(#8));
#8 = PRODUCT_CONTEXT('',#2,'mechanical');
#9 = PRODUCT_DEFINITION_CONTEXT('part definition',#2,'design');
#10 = SHAPE_REPRESENTATION('',(#11,#15,#19),#23);
#11 = AXIS2_PLACEMENT_3D('',#12,#13,#14);
#12 = CARTESIAN_POINT('',(0.E+000,0.E+000,0.E+000));
#13 = DIRECTION('',(0.E+000,0.E+000,1.));
#14 = DIRECTION('',(1.,0.E+000,0.E+000));
#15 = AXIS2_PLACEMENT_3D('',#16,#17,#18);
#16 = CARTESIAN_POINT('',(0.E+000,0.E+000,-0.39116));
#17 = DIRECTION('',(0.E+000,0.E+000,1.));
#18 = DIRECTION('',(1.,0.E+000,0.E+000));
#19 = AXIS2_PLACEMENT_3D('',#20,#21,#22);
#20 = CARTESIAN_POINT('',(0.E+000,0.E+000,0.E+000));
#21 = DIRECTION('',(0.E+000,0.E+000,1.));
#22 = DIRECTION('',(1.,0.E+000,0.E+000));
#23 = ( GEOMETRIC_REPRESENTATION_CONTEXT(3) 
GLOBAL_UNCERTAINTY_ASSIGNED_CONTEXT((#27)) GLOBAL_UNIT_ASSIGNED_CONTEXT(
(#24,#25,#26)) REPRESENTATION_CONTEXT('Context #1',
  '3D Context with UNIT and UNCERTAINTY') );
#24 = ( LENGTH_UNIT() NAMED_UNIT(*) SI_UNIT(.MILLI.,.METRE.) );
#25 = ( NAMED_UNIT(*) PLANE_ANGLE_UNIT() SI_UNIT($,.RADIAN.) );
#26 = ( NAMED_UNIT(*) SI_UNIT($,.STERADIAN.) SOLID_ANGLE_UNIT() );
#27 = UNCERTAINTY_MEASURE_WITH_UNIT(LENGTH_MEASURE(1.E-007),#24,
  'distance_accuracy_value','confusion accuracy');
#28 = PRODUCT_RELATED_PRODUCT_CATEGORY('part',$,(#7));
#29 = ADVANCED_BREP_SHAPE_REPRESENTATION('',(#11,#30),#594);
#30 = MANIFOLD_SOLID_BREP('',#31);
#31 = CLOSED_SHELL('',(#32,#152,#228,#304,#380,#456,#527,#574,#584));
#32 = ADVANCED_FACE('',(#33),#47,.F.);
#33 = FACE_BOUND('',#34,.F.);
#34 = EDGE_LOOP('',(#35,#70,#98,#126));
#35 = ORIENTED_EDGE('',*,*,#36,.T.);
#36 = EDGE_CURVE('',#37,#39,#41,.T.);
#37 = VERTEX_POINT('',#38);
#38 = CARTESIAN_POINT('',(3.6275264,7.239508,0.E+000));
#39 = VERTEX_POINT('',#40);
#40 = CARTESIAN_POINT('',(3.6275264,7.239508,0.39116));
#41 = SURFACE_CURVE('',#42,(#46,#58),.PCURVE_S1.);
#42 = LINE('',#43,#44);
#43 = CARTESIAN_POINT('',(3.6275264,7.239508,0.E+000));
#44 = VECTOR('',#45,1.);
#45 = DIRECTION('',(0.E+000,0.E+000,1.));
#46 = PCURVE('',#47,#52);
#47 = PLANE('',#48);
#48 = AXIS2_PLACEMENT_3D('',#49,#50,#51);
#49 = CARTESIAN_POINT('',(3.6275264,7.239508,0.E+000));
#50 = DIRECTION('',(0.707106781187,-0.707106781187,0.E+000));
#51 = DIRECTION('',(-0.707106781187,-0.707106781187,0.E+000));
#52 = DEFINITIONAL_REPRESENTATION('',(#53),#57);
#53 = LINE('',#54,#55);
#54 = CARTESIAN_POINT('',(0.E+000,0.E+000));
#55 = VECTOR('',#56,1.);
#56 = DIRECTION('',(0.E+000,-1.));
#57 = ( GEOMETRIC_REPRESENTATION_CONTEXT(2) 
PARAMETRIC_REPRESENTATION_CONTEXT() REPRESENTATION_CONTEXT('2D SPACE',''
  ) );
#58 = PCURVE('',#59,#64);
#59 = PLANE('',#60);
#60 = AXIS2_PLACEMENT_3D('',#61,#62,#63);
#61 = CARTESIAN_POINT('',(3.1195264,6.985508,0.E+000));
#62 = DIRECTION('',(-0.4472135955,0.894427191,0.E+000));
#63 = DIRECTION('',(0.894427191,0.4472135955,0.E+000));
#64 = DEFINITIONAL_REPRESENTATION('',(#65),#69);
#65 = LINE('',#66,#67);
#66 = CARTESIAN_POINT('',(0.567961266285,0.E+000));
#67 = VECTOR('',#68,1.);
#68 = DIRECTION('',(0.E+000,-1.));
#69 = ( GEOMETRIC_REPRESENTATION_CONTEXT(2) 
PARAMETRIC_REPRESENTATION_CONTEXT() REPRESENTATION_CONTEXT('2D SPACE',''
  ) );
#70 = ORIENTED_EDGE('',*,*,#71,.T.);
#71 = EDGE_CURVE('',#39,#72,#74,.T.);
#72 = VERTEX_POINT('',#73);
#73 = CARTESIAN_POINT('',(3.3735264,6.985508,0.39116));
#74 = SURFACE_CURVE('',#75,(#79,#86),.PCURVE_S1.);
#75 = LINE('',#76,#77);
#76 = CARTESIAN_POINT('',(3.6275264,7.239508,0.39116));
#77 = VECTOR('',#78,1.);
#78 = DIRECTION('',(-0.707106781187,-0.707106781187,0.E+000));
#79 = PCURVE('',#47,#80);
#80 = DEFINITIONAL_REPRESENTATION('',(#81),#85);
#81 = LINE('',#82,#83);
#82 = CARTESIAN_POINT('',(0.E+000,-0.39116));
#83 = VECTOR('',#84,1.);
#84 = DIRECTION('',(1.,0.E+000));
#85 = ( GEOMETRIC_REPRESENTATION_CONTEXT(2) 
PARAMETRIC_REPRESENTATION_CONTEXT() REPRESENTATION_CONTEXT('2D SPACE',''
  ) );
#86 = PCURVE('',#87,#92);
#87 = PLANE('',#88);
#88 = AXIS2_PLACEMENT_3D('',#89,#90,#91);
#89 = CARTESIAN_POINT('',(3.6275264,7.239508,0.39116));
#90 = DIRECTION('',(0.E+000,0.E+000,-1.));
#91 = DIRECTION('',(-1.,0.E+000,0.E+000));
#92 = DEFINITIONAL_REPRESENTATION('',(#93),#97);
#93 = LINE('',#94,#95);
#94 = CARTESIAN_POINT('',(0.E+000,0.E+000));
#95 = VECTOR('',#96,1.);
#96 = DIRECTION('',(0.707106781187,-0.707106781187));
#97 = ( GEOMETRIC_REPRESENTATION_CONTEXT(2) 
PARAMETRIC_REPRESENTATION_CONTEXT() REPRESENTATION_CONTEXT('2D SPACE',''
  ) );
#98 = ORIENTED_EDGE('',*,*,#99,.F.);
#99 = EDGE_CURVE('',#100,#72,#102,.T.);
#100 = VERTEX_POINT('',#101);
#101 = CARTESIAN_POINT('',(3.3735264,6.985508,0.E+000));
#102 = SURFACE_CURVE('',#103,(#107,#114),.PCURVE_S1.);
#103 = LINE('',#104,#105);
#104 = CARTESIAN_POINT('',(3.3735264,6.985508,0.E+000));
#105 = VECTOR('',#106,1.);
#106 = DIRECTION('',(0.E+000,0.E+000,1.));
#107 = PCURVE('',#47,#108);
#108 = DEFINITIONAL_REPRESENTATION('',(#109),#113);
#109 = LINE('',#110,#111);
#110 = CARTESIAN_POINT('',(0.359210244843,0.E+000));
#111 = VECTOR('',#112,1.);
#112 = DIRECTION('',(0.E+000,-1.));
#113 = ( GEOMETRIC_REPRESENTATION_CONTEXT(2) 
PARAMETRIC_REPRESENTATION_CONTEXT() REPRESENTATION_CONTEXT('2D SPACE',''
  ) );
#114 = PCURVE('',#115,#120);
#115 = PLANE('',#116);
#116 = AXIS2_PLACEMENT_3D('',#117,#118,#119);
#117 = CARTESIAN_POINT('',(3.3735264,6.985508,0.E+000));
#118 = DIRECTION('',(1.,0.E+000,0.E+000));
#119 = DIRECTION('',(0.E+000,-1.,0.E+000));
#120 = DEFINITIONAL_REPRESENTATION('',(#121),#125);
#121 = LINE('',#122,#123);
#122 = CARTESIAN_POINT('',(0.E+000,0.E+000));
#123 = VECTOR('',#124,1.);
#124 = DIRECTION('',(0.E+000,-1.));
#125 = ( GEOMETRIC_REPRESENTATION_CONTEXT(2) 
PARAMETRIC_REPRESENTATION_CONTEXT() REPRESENTATION_CONTEXT('2D SPACE',''
  ) );
#126 = ORIENTED_EDGE('',*,*,#127,.F.);
#127 = EDGE_CURVE('',#37,#100,#128,.T.);
#128 = SURFACE_CURVE('',#129,(#133,#140),.PCURVE_S1.);
#129 = LINE('',#130,#131);
#130 = CARTESIAN_POINT('',(3.6275264,7.239508,0.E+000));
#131 = VECTOR('',#132,1.);
#132 = DIRECTION('',(-0.707106781187,-0.707106781187,0.E+000));
#133 = PCURVE('',#47,#134);
#134 = DEFINITIONAL_REPRESENTATION('',(#135),#139);
#135 = LINE('',#136,#137);
#136 = CARTESIAN_POINT('',(0.E+000,0.E+000));
#137 = VECTOR('',#138,1.);
#138 = DIRECTION('',(1.,0.E+000));
#139 = ( GEOMETRIC_REPRESENTATION_CONTEXT(2) 
PARAMETRIC_REPRESENTATION_CONTEXT() REPRESENTATION_CONTEXT('2D SPACE',''
  ) );
#140 = PCURVE('',#141,#146);
#141 = PLANE('',#142);
#142 = AXIS2_PLACEMENT_3D('',#143,#144,#145);
#143 = CARTESIAN_POINT('',(3.6275264,7.239508,0.E+000));
#144 = DIRECTION('',(0.E+000,0.E+000,-1.));
#145 = DIRECTION('',(-1.,0.E+000,0.E+000));
#146 = DEFINITIONAL_REPRESENTATION('',(#147),#151);
#147 = LINE('',#148,#149);
#148 = CARTESIAN_POINT('',(0.E+000,0.E+000));
#149 = VECTOR('',#150,1.);
#150 = DIRECTION('',(0.707106781187,-0.707106781187));
#151 = ( GEOMETRIC_REPRESENTATION_CONTEXT(2) 
PARAMETRIC_REPRESENTATION_CONTEXT() REPRESENTATION_CONTEXT('2D SPACE',''
  ) );
#152 = ADVANCED_FACE('',(#153),#115,.F.);
#153 = FACE_BOUND('',#154,.F.);
#154 = EDGE_LOOP('',(#155,#156,#179,#207));
#155 = ORIENTED_EDGE('',*,*,#99,.T.);
#156 = ORIENTED_EDGE('',*,*,#157,.T.);
#157 = EDGE_CURVE('',#72,#158,#160,.T.);
#158 = VERTEX_POINT('',#159);
#159 = CARTESIAN_POINT('',(3.3735264,5.588508,0.39116));
#160 = SURFACE_CURVE('',#161,(#165,#172),.PCURVE_S1.);
#161 = LINE('',#162,#163);
#162 = CARTESIAN_POINT('',(3.3735264,6.985508,0.39116));
#163 = VECTOR('',#164,1.);
#164 = DIRECTION('',(0.E+000,-1.,0.E+000));
#165 = PCURVE('',#115,#166);
#166 = DEFINITIONAL_REPRESENTATION('',(#167),#171);
#167 = LINE('',#168,#169);
#168 = CARTESIAN_POINT('',(0.E+000,-0.39116));
#169 = VECTOR('',#170,1.);
#170 = DIRECTION('',(1.,0.E+000));
#171 = ( GEOMETRIC_REPRESENTATION_CONTEXT(2) 
PARAMETRIC_REPRESENTATION_CONTEXT() REPRESENTATION_CONTEXT('2D SPACE',''
  ) );
#172 = PCURVE('',#87,#173);
#173 = DEFINITIONAL_REPRESENTATION('',(#174),#178);
#174 = LINE('',#175,#176);
#175 = CARTESIAN_POINT('',(0.254,-0.254));
#176 = VECTOR('',#177,1.);
#177 = DIRECTION('',(0.E+000,-1.));
#178 = ( GEOMETRIC_REPRESENTATION_CONTEXT(2) 
PARAMETRIC_REPRESENTATION_CONTEXT() REPRESENTATION_CONTEXT('2D SPACE',''
  ) );
#179 = ORIENTED_EDGE('',*,*,#180,.F.);
#180 = EDGE_CURVE('',#181,#158,#183,.T.);
#181 = VERTEX_POINT('',#182);
#182 = CARTESIAN_POINT('',(3.3735264,5.588508,0.E+000));
#183 = SURFACE_CURVE('',#184,(#188,#195),.PCURVE_S1.);
#184 = LINE('',#185,#186);
#185 = CARTESIAN_POINT('',(3.3735264,5.588508,0.E+000));
#186 = VECTOR('',#187,1.);
#187 = DIRECTION('',(0.E+000,0.E+000,1.));
#188 = PCURVE('',#115,#189);
#189 = DEFINITIONAL_REPRESENTATION('',(#190),#194);
#190 = LINE('',#191,#192);
#191 = CARTESIAN_POINT('',(1.397,0.E+000));
#192 = VECTOR('',#193,1.);
#193 = DIRECTION('',(0.E+000,-1.));
#194 = ( GEOMETRIC_REPRESENTATION_CONTEXT(2) 
PARAMETRIC_REPRESENTATION_CONTEXT() REPRESENTATION_CONTEXT('2D SPACE',''
  ) );
#195 = PCURVE('',#196,#201);
#196 = PLANE('',#197);
#197 = AXIS2_PLACEMENT_3D('',#198,#199,#200);
#198 = CARTESIAN_POINT('',(3.3735264,5.588508,0.E+000));
#199 = DIRECTION('',(-1.,0.E+000,0.E+000));
#200 = DIRECTION('',(0.E+000,1.,0.E+000));
#201 = DEFINITIONAL_REPRESENTATION('',(#202),#206);
#202 = LINE('',#203,#204);
#203 = CARTESIAN_POINT('',(0.E+000,0.E+000));
#204 = VECTOR('',#205,1.);
#205 = DIRECTION('',(0.E+000,-1.));
#206 = ( GEOMETRIC_REPRESENTATION_CONTEXT(2) 
PARAMETRIC_REPRESENTATION_CONTEXT() REPRESENTATION_CONTEXT('2D SPACE',''
  ) );
#207 = ORIENTED_EDGE('',*,*,#208,.F.);
#208 = EDGE_CURVE('',#100,#181,#209,.T.);
#209 = SURFACE_CURVE('',#210,(#214,#221),.PCURVE_S1.);
#210 = LINE('',#211,#212);
#211 = CARTESIAN_POINT('',(3.3735264,6.985508,0.E+000));
#212 = VECTOR('',#213,1.);
#213 = DIRECTION('',(0.E+000,-1.,0.E+000));
#214 = PCURVE('',#115,#215);
#215 = DEFINITIONAL_REPRESENTATION('',(#216),#220);
#216 = LINE('',#217,#218);
#217 = CARTESIAN_POINT('',(0.E+000,0.E+000));
#218 = VECTOR('',#219,1.);
#219 = DIRECTION('',(1.,0.E+000));
#220 = ( GEOMETRIC_REPRESENTATION_CONTEXT(2) 
PARAMETRIC_REPRESENTATION_CONTEXT() REPRESENTATION_CONTEXT('2D SPACE',''
  ) );
#221 = PCURVE('',#141,#222);
#222 = DEFINITIONAL_REPRESENTATION('',(#223),#227);
#223 = LINE('',#224,#225);
#224 = CARTESIAN_POINT('',(0.254,-0.254));
#225 = VECTOR('',#226,1.);
#226 = DIRECTION('',(0.E+000,-1.));
#227 = ( GEOMETRIC_REPRESENTATION_CONTEXT(2) 
PARAMETRIC_REPRESENTATION_CONTEXT() REPRESENTATION_CONTEXT('2D SPACE',''
  ) );
#228 = ADVANCED_FACE('',(#229),#196,.F.);
#229 = FACE_BOUND('',#230,.F.);
#230 = EDGE_LOOP('',(#231,#232,#255,#283));
#231 = ORIENTED_EDGE('',*,*,#180,.T.);
#232 = ORIENTED_EDGE('',*,*,#233,.T.);
#233 = EDGE_CURVE('',#158,#234,#236,.T.);
#234 = VERTEX_POINT('',#235);
#235 = CARTESIAN_POINT('',(3.3735264,6.477508,0.39116));
#236 = SURFACE_CURVE('',#237,(#241,#248),.PCURVE_S1.);
#237 = LINE('',#238,#239);
#238 = CARTESIAN_POINT('',(3.3735264,5.588508,0.39116));
#239 = VECTOR('',#240,1.);
#240 = DIRECTION('',(0.E+000,1.,0.E+000));
#241 = PCURVE('',#196,#242);
#242 = DEFINITIONAL_REPRESENTATION('',(#243),#247);
#243 = LINE('',#244,#245);
#244 = CARTESIAN_POINT('',(0.E+000,-0.39116));
#245 = VECTOR('',#246,1.);
#246 = DIRECTION('',(1.,0.E+000));
#247 = ( GEOMETRIC_REPRESENTATION_CONTEXT(2) 
PARAMETRIC_REPRESENTATION_CONTEXT() REPRESENTATION_CONTEXT('2D SPACE',''
  ) );
#248 = PCURVE('',#87,#249);
#249 = DEFINITIONAL_REPRESENTATION('',(#250),#254);
#250 = LINE('',#251,#252);
#251 = CARTESIAN_POINT('',(0.254,-1.651));
#252 = VECTOR('',#253,1.);
#253 = DIRECTION('',(0.E+000,1.));
#254 = ( GEOMETRIC_REPRESENTATION_CONTEXT(2) 
PARAMETRIC_REPRESENTATION_CONTEXT() REPRESENTATION_CONTEXT('2D SPACE',''
  ) );
#255 = ORIENTED_EDGE('',*,*,#256,.F.);
#256 = EDGE_CURVE('',#257,#234,#259,.T.);
#257 = VERTEX_POINT('',#258);
#258 = CARTESIAN_POINT('',(3.3735264,6.477508,0.E+000));
#259 = SURFACE_CURVE('',#260,(#264,#271),.PCURVE_S1.);
#260 = LINE('',#261,#262);
#261 = CARTESIAN_POINT('',(3.3735264,6.477508,0.E+000));
#262 = VECTOR('',#263,1.);
#263 = DIRECTION('',(0.E+000,0.E+000,1.));
#264 = PCURVE('',#196,#265);
#265 = DEFINITIONAL_REPRESENTATION('',(#266),#270);
#266 = LINE('',#267,#268);
#267 = CARTESIAN_POINT('',(0.889,0.E+000));
#268 = VECTOR('',#269,1.);
#269 = DIRECTION('',(0.E+000,-1.));
#270 = ( GEOMETRIC_REPRESENTATION_CONTEXT(2) 
PARAMETRIC_REPRESENTATION_CONTEXT() REPRESENTATION_CONTEXT('2D SPACE',''
  ) );
#271 = PCURVE('',#272,#277);
#272 = PLANE('',#273);
#273 = AXIS2_PLACEMENT_3D('',#274,#275,#276);
#274 = CARTESIAN_POINT('',(3.3735264,6.477508,0.E+000));
#275 = DIRECTION('',(-0.707106781187,0.707106781187,0.E+000));
#276 = DIRECTION('',(0.707106781187,0.707106781187,0.E+000));
#277 = DEFINITIONAL_REPRESENTATION('',(#278),#282);
#278 = LINE('',#279,#280);
#279 = CARTESIAN_POINT('',(0.E+000,0.E+000));
#280 = VECTOR('',#281,1.);
#281 = DIRECTION('',(0.E+000,-1.));
#282 = ( GEOMETRIC_REPRESENTATION_CONTEXT(2) 
PARAMETRIC_REPRESENTATION_CONTEXT() REPRESENTATION_CONTEXT('2D SPACE',''
  ) );
#283 = ORIENTED_EDGE('',*,*,#284,.F.);
#284 = EDGE_CURVE('',#181,#257,#285,.T.);
#285 = SURFACE_CURVE('',#286,(#290,#297),.PCURVE_S1.);
#286 = LINE('',#287,#288);
#287 = CARTESIAN_POINT('',(3.3735264,5.588508,0.E+000));
#288 = VECTOR('',#289,1.);
#289 = DIRECTION('',(0.E+000,1.,0.E+000));
#290 = PCURVE('',#196,#291);
#291 = DEFINITIONAL_REPRESENTATION('',(#292),#296);
#292 = LINE('',#293,#294);
#293 = CARTESIAN_POINT('',(0.E+000,0.E+000));
#294 = VECTOR('',#295,1.);
#295 = DIRECTION('',(1.,0.E+000));
#296 = ( GEOMETRIC_REPRESENTATION_CONTEXT(2) 
PARAMETRIC_REPRESENTATION_CONTEXT() REPRESENTATION_CONTEXT('2D SPACE',''
  ) );
#297 = PCURVE('',#141,#298);
#298 = DEFINITIONAL_REPRESENTATION('',(#299),#303);
#299 = LINE('',#300,#301);
#300 = CARTESIAN_POINT('',(0.254,-1.651));
#301 = VECTOR('',#302,1.);
#302 = DIRECTION('',(0.E+000,1.));
#303 = ( GEOMETRIC_REPRESENTATION_CONTEXT(2) 
PARAMETRIC_REPRESENTATION_CONTEXT() REPRESENTATION_CONTEXT('2D SPACE',''
  ) );
#304 = ADVANCED_FACE('',(#305),#272,.F.);
#305 = FACE_BOUND('',#306,.F.);
#306 = EDGE_LOOP('',(#307,#308,#331,#359));
#307 = ORIENTED_EDGE('',*,*,#256,.T.);
#308 = ORIENTED_EDGE('',*,*,#309,.T.);
#309 = EDGE_CURVE('',#234,#310,#312,.T.);
#310 = VERTEX_POINT('',#311);
#311 = CARTESIAN_POINT('',(4.0085264,7.112508,0.39116));
#312 = SURFACE_CURVE('',#313,(#317,#324),.PCURVE_S1.);
#313 = LINE('',#314,#315);
#314 = CARTESIAN_POINT('',(3.3735264,6.477508,0.39116));
#315 = VECTOR('',#316,1.);
#316 = DIRECTION('',(0.707106781187,0.707106781187,0.E+000));
#317 = PCURVE('',#272,#318);
#318 = DEFINITIONAL_REPRESENTATION('',(#319),#323);
#319 = LINE('',#320,#321);
#320 = CARTESIAN_POINT('',(0.E+000,-0.39116));
#321 = VECTOR('',#322,1.);
#322 = DIRECTION('',(1.,0.E+000));
#323 = ( GEOMETRIC_REPRESENTATION_CONTEXT(2) 
PARAMETRIC_REPRESENTATION_CONTEXT() REPRESENTATION_CONTEXT('2D SPACE',''
  ) );
#324 = PCURVE('',#87,#325);
#325 = DEFINITIONAL_REPRESENTATION('',(#326),#330);
#326 = LINE('',#327,#328);
#327 = CARTESIAN_POINT('',(0.254,-0.762));
#328 = VECTOR('',#329,1.);
#329 = DIRECTION('',(-0.707106781187,0.707106781187));
#330 = ( GEOMETRIC_REPRESENTATION_CONTEXT(2) 
PARAMETRIC_REPRESENTATION_CONTEXT() REPRESENTATION_CONTEXT('2D SPACE',''
  ) );
#331 = ORIENTED_EDGE('',*,*,#332,.F.);
#332 = EDGE_CURVE('',#333,#310,#335,.T.);
#333 = VERTEX_POINT('',#334);
#334 = CARTESIAN_POINT('',(4.0085264,7.112508,0.E+000));
#335 = SURFACE_CURVE('',#336,(#340,#347),.PCURVE_S1.);
#336 = LINE('',#337,#338);
#337 = CARTESIAN_POINT('',(4.0085264,7.112508,0.E+000));
#338 = VECTOR('',#339,1.);
#339 = DIRECTION('',(0.E+000,0.E+000,1.));
#340 = PCURVE('',#272,#341);
#341 = DEFINITIONAL_REPRESENTATION('',(#342),#346);
#342 = LINE('',#343,#344);
#343 = CARTESIAN_POINT('',(0.898025612107,0.E+000));
#344 = VECTOR('',#345,1.);
#345 = DIRECTION('',(0.E+000,-1.));
#346 = ( GEOMETRIC_REPRESENTATION_CONTEXT(2) 
PARAMETRIC_REPRESENTATION_CONTEXT() REPRESENTATION_CONTEXT('2D SPACE',''
  ) );
#347 = PCURVE('',#348,#353);
#348 = PLANE('',#349);
#349 = AXIS2_PLACEMENT_3D('',#350,#351,#352);
#350 = CARTESIAN_POINT('',(4.0085264,7.112508,0.E+000));
#351 = DIRECTION('',(0.707106781187,-0.707106781187,0.E+000));
#352 = DIRECTION('',(-0.707106781187,-0.707106781187,0.E+000));
#353 = DEFINITIONAL_REPRESENTATION('',(#354),#358);
#354 = LINE('',#355,#356);
#355 = CARTESIAN_POINT('',(0.E+000,0.E+000));
#356 = VECTOR('',#357,1.);
#357 = DIRECTION('',(0.E+000,-1.));
#358 = ( GEOMETRIC_REPRESENTATION_CONTEXT(2) 
PARAMETRIC_REPRESENTATION_CONTEXT() REPRESENTATION_CONTEXT('2D SPACE',''
  ) );
#359 = ORIENTED_EDGE('',*,*,#360,.F.);
#360 = EDGE_CURVE('',#257,#333,#361,.T.);
#361 = SURFACE_CURVE('',#362,(#366,#373),.PCURVE_S1.);
#362 = LINE('',#363,#364);
#363 = CARTESIAN_POINT('',(3.3735264,6.477508,0.E+000));
#364 = VECTOR('',#365,1.);
#365 = DIRECTION('',(0.707106781187,0.707106781187,0.E+000));
#366 = PCURVE('',#272,#367);
#367 = DEFINITIONAL_REPRESENTATION('',(#368),#372);
#368 = LINE('',#369,#370);
#369 = CARTESIAN_POINT('',(0.E+000,0.E+000));
#370 = VECTOR('',#371,1.);
#371 = DIRECTION('',(1.,0.E+000));
#372 = ( GEOMETRIC_REPRESENTATION_CONTEXT(2) 
PARAMETRIC_REPRESENTATION_CONTEXT() REPRESENTATION_CONTEXT('2D SPACE',''
  ) );
#373 = PCURVE('',#141,#374);
#374 = DEFINITIONAL_REPRESENTATION('',(#375),#379);
#375 = LINE('',#376,#377);
#376 = CARTESIAN_POINT('',(0.254,-0.762));
#377 = VECTOR('',#378,1.);
#378 = DIRECTION('',(-0.707106781187,0.707106781187));
#379 = ( GEOMETRIC_REPRESENTATION_CONTEXT(2) 
PARAMETRIC_REPRESENTATION_CONTEXT() REPRESENTATION_CONTEXT('2D SPACE',''
  ) );
#380 = ADVANCED_FACE('',(#381),#348,.F.);
#381 = FACE_BOUND('',#382,.F.);
#382 = EDGE_LOOP('',(#383,#384,#407,#435));
#383 = ORIENTED_EDGE('',*,*,#332,.T.);
#384 = ORIENTED_EDGE('',*,*,#385,.T.);
#385 = EDGE_CURVE('',#310,#386,#388,.T.);
#386 = VERTEX_POINT('',#387);
#387 = CARTESIAN_POINT('',(3.8815264,6.985508,0.39116));
#388 = SURFACE_CURVE('',#389,(#393,#400),.PCURVE_S1.);
#389 = LINE('',#390,#391);
#390 = CARTESIAN_POINT('',(4.0085264,7.112508,0.39116));
#391 = VECTOR('',#392,1.);
#392 = DIRECTION('',(-0.707106781187,-0.707106781187,0.E+000));
#393 = PCURVE('',#348,#394);
#394 = DEFINITIONAL_REPRESENTATION('',(#395),#399);
#395 = LINE('',#396,#397);
#396 = CARTESIAN_POINT('',(0.E+000,-0.39116));
#397 = VECTOR('',#398,1.);
#398 = DIRECTION('',(1.,0.E+000));
#399 = ( GEOMETRIC_REPRESENTATION_CONTEXT(2) 
PARAMETRIC_REPRESENTATION_CONTEXT() REPRESENTATION_CONTEXT('2D SPACE',''
  ) );
#400 = PCURVE('',#87,#401);
#401 = DEFINITIONAL_REPRESENTATION('',(#402),#406);
#402 = LINE('',#403,#404);
#403 = CARTESIAN_POINT('',(-0.381,-0.127));
#404 = VECTOR('',#405,1.);
#405 = DIRECTION('',(0.707106781187,-0.707106781187));
#406 = ( GEOMETRIC_REPRESENTATION_CONTEXT(2) 
PARAMETRIC_REPRESENTATION_CONTEXT() REPRESENTATION_CONTEXT('2D SPACE',''
  ) );
#407 = ORIENTED_EDGE('',*,*,#408,.F.);
#408 = EDGE_CURVE('',#409,#386,#411,.T.);
#409 = VERTEX_POINT('',#410);
#410 = CARTESIAN_POINT('',(3.8815264,6.985508,0.E+000));
#411 = SURFACE_CURVE('',#412,(#416,#423),.PCURVE_S1.);
#412 = LINE('',#413,#414);
#413 = CARTESIAN_POINT('',(3.8815264,6.985508,0.E+000));
#414 = VECTOR('',#415,1.);
#415 = DIRECTION('',(0.E+000,0.E+000,1.));
#416 = PCURVE('',#348,#417);
#417 = DEFINITIONAL_REPRESENTATION('',(#418),#422);
#418 = LINE('',#419,#420);
#419 = CARTESIAN_POINT('',(0.179605122421,0.E+000));
#420 = VECTOR('',#421,1.);
#421 = DIRECTION('',(0.E+000,-1.));
#422 = ( GEOMETRIC_REPRESENTATION_CONTEXT(2) 
PARAMETRIC_REPRESENTATION_CONTEXT() REPRESENTATION_CONTEXT('2D SPACE',''
  ) );
#423 = PCURVE('',#424,#429);
#424 = PLANE('',#425);
#425 = AXIS2_PLACEMENT_3D('',#426,#427,#428);
#426 = CARTESIAN_POINT('',(3.8815264,6.985508,0.E+000));
#427 = DIRECTION('',(0.E+000,-1.,0.E+000));
#428 = DIRECTION('',(-1.,0.E+000,0.E+000));
#429 = DEFINITIONAL_REPRESENTATION('',(#430),#434);
#430 = LINE('',#431,#432);
#431 = CARTESIAN_POINT('',(0.E+000,0.E+000));
#432 = VECTOR('',#433,1.);
#433 = DIRECTION('',(0.E+000,-1.));
#434 = ( GEOMETRIC_REPRESENTATION_CONTEXT(2) 
PARAMETRIC_REPRESENTATION_CONTEXT() REPRESENTATION_CONTEXT('2D SPACE',''
  ) );
#435 = ORIENTED_EDGE('',*,*,#436,.F.);
#436 = EDGE_CURVE('',#333,#409,#437,.T.);
#437 = SURFACE_CURVE('',#438,(#442,#449),.PCURVE_S1.);
#438 = LINE('',#439,#440);
#439 = CARTESIAN_POINT('',(4.0085264,7.112508,0.E+000));
#440 = VECTOR('',#441,1.);
#441 = DIRECTION('',(-0.707106781187,-0.707106781187,0.E+000));
#442 = PCURVE('',#348,#443);
#443 = DEFINITIONAL_REPRESENTATION('',(#444),#448);
#444 = LINE('',#445,#446);
#445 = CARTESIAN_POINT('',(0.E+000,0.E+000));
#446 = VECTOR('',#447,1.);
#447 = DIRECTION('',(1.,0.E+000));
#448 = ( GEOMETRIC_REPRESENTATION_CONTEXT(2) 
PARAMETRIC_REPRESENTATION_CONTEXT() REPRESENTATION_CONTEXT('2D SPACE',''
  ) );
#449 = PCURVE('',#141,#450);
#450 = DEFINITIONAL_REPRESENTATION('',(#451),#455);
#451 = LINE('',#452,#453);
#452 = CARTESIAN_POINT('',(-0.381,-0.127));
#453 = VECTOR('',#454,1.);
#454 = DIRECTION('',(0.707106781187,-0.707106781187));
#455 = ( GEOMETRIC_REPRESENTATION_CONTEXT(2) 
PARAMETRIC_REPRESENTATION_CONTEXT() REPRESENTATION_CONTEXT('2D SPACE',''
  ) );
#456 = ADVANCED_FACE('',(#457),#424,.F.);
#457 = FACE_BOUND('',#458,.F.);
#458 = EDGE_LOOP('',(#459,#460,#483,#506));
#459 = ORIENTED_EDGE('',*,*,#408,.T.);
#460 = ORIENTED_EDGE('',*,*,#461,.T.);
#461 = EDGE_CURVE('',#386,#462,#464,.T.);
#462 = VERTEX_POINT('',#463);
#463 = CARTESIAN_POINT('',(3.1195264,6.985508,0.39116));
#464 = SURFACE_CURVE('',#465,(#469,#476),.PCURVE_S1.);
#465 = LINE('',#466,#467);
#466 = CARTESIAN_POINT('',(3.8815264,6.985508,0.39116));
#467 = VECTOR('',#468,1.);
#468 = DIRECTION('',(-1.,0.E+000,0.E+000));
#469 = PCURVE('',#424,#470);
#470 = DEFINITIONAL_REPRESENTATION('',(#471),#475);
#471 = LINE('',#472,#473);
#472 = CARTESIAN_POINT('',(0.E+000,-0.39116));
#473 = VECTOR('',#474,1.);
#474 = DIRECTION('',(1.,0.E+000));
#475 = ( GEOMETRIC_REPRESENTATION_CONTEXT(2) 
PARAMETRIC_REPRESENTATION_CONTEXT() REPRESENTATION_CONTEXT('2D SPACE',''
  ) );
#476 = PCURVE('',#87,#477);
#477 = DEFINITIONAL_REPRESENTATION('',(#478),#482);
#478 = LINE('',#479,#480);
#479 = CARTESIAN_POINT('',(-0.254,-0.254));
#480 = VECTOR('',#481,1.);
#481 = DIRECTION('',(1.,0.E+000));
#482 = ( GEOMETRIC_REPRESENTATION_CONTEXT(2) 
PARAMETRIC_REPRESENTATION_CONTEXT() REPRESENTATION_CONTEXT('2D SPACE',''
  ) );
#483 = ORIENTED_EDGE('',*,*,#484,.F.);
#484 = EDGE_CURVE('',#485,#462,#487,.T.);
#485 = VERTEX_POINT('',#486);
#486 = CARTESIAN_POINT('',(3.1195264,6.985508,0.E+000));
#487 = SURFACE_CURVE('',#488,(#492,#499),.PCURVE_S1.);
#488 = LINE('',#489,#490);
#489 = CARTESIAN_POINT('',(3.1195264,6.985508,0.E+000));
#490 = VECTOR('',#491,1.);
#491 = DIRECTION('',(0.E+000,0.E+000,1.));
#492 = PCURVE('',#424,#493);
#493 = DEFINITIONAL_REPRESENTATION('',(#494),#498);
#494 = LINE('',#495,#496);
#495 = CARTESIAN_POINT('',(0.762,0.E+000));
#496 = VECTOR('',#497,1.);
#497 = DIRECTION('',(0.E+000,-1.));
#498 = ( GEOMETRIC_REPRESENTATION_CONTEXT(2) 
PARAMETRIC_REPRESENTATION_CONTEXT() REPRESENTATION_CONTEXT('2D SPACE',''
  ) );
#499 = PCURVE('',#59,#500);
#500 = DEFINITIONAL_REPRESENTATION('',(#501),#505);
#501 = LINE('',#502,#503);
#502 = CARTESIAN_POINT('',(0.E+000,0.E+000));
#503 = VECTOR('',#504,1.);
#504 = DIRECTION('',(0.E+000,-1.));
#505 = ( GEOMETRIC_REPRESENTATION_CONTEXT(2) 
PARAMETRIC_REPRESENTATION_CONTEXT() REPRESENTATION_CONTEXT('2D SPACE',''
  ) );
#506 = ORIENTED_EDGE('',*,*,#507,.F.);
#507 = EDGE_CURVE('',#409,#485,#508,.T.);
#508 = SURFACE_CURVE('',#509,(#513,#520),.PCURVE_S1.);
#509 = LINE('',#510,#511);
#510 = CARTESIAN_POINT('',(3.8815264,6.985508,0.E+000));
#511 = VECTOR('',#512,1.);
#512 = DIRECTION('',(-1.,0.E+000,0.E+000));
#513 = PCURVE('',#424,#514);
#514 = DEFINITIONAL_REPRESENTATION('',(#515),#519);
#515 = LINE('',#516,#517);
#516 = CARTESIAN_POINT('',(0.E+000,0.E+000));
#517 = VECTOR('',#518,1.);
#518 = DIRECTION('',(1.,0.E+000));
#519 = ( GEOMETRIC_REPRESENTATION_CONTEXT(2) 
PARAMETRIC_REPRESENTATION_CONTEXT() REPRESENTATION_CONTEXT('2D SPACE',''
  ) );
#520 = PCURVE('',#141,#521);
#521 = DEFINITIONAL_REPRESENTATION('',(#522),#526);
#522 = LINE('',#523,#524);
#523 = CARTESIAN_POINT('',(-0.254,-0.254));
#524 = VECTOR('',#525,1.);
#525 = DIRECTION('',(1.,0.E+000));
#526 = ( GEOMETRIC_REPRESENTATION_CONTEXT(2) 
PARAMETRIC_REPRESENTATION_CONTEXT() REPRESENTATION_CONTEXT('2D SPACE',''
  ) );
#527 = ADVANCED_FACE('',(#528),#59,.F.);
#528 = FACE_BOUND('',#529,.F.);
#529 = EDGE_LOOP('',(#530,#531,#552,#553));
#530 = ORIENTED_EDGE('',*,*,#484,.T.);
#531 = ORIENTED_EDGE('',*,*,#532,.T.);
#532 = EDGE_CURVE('',#462,#39,#533,.T.);
#533 = SURFACE_CURVE('',#534,(#538,#545),.PCURVE_S1.);
#534 = LINE('',#535,#536);
#535 = CARTESIAN_POINT('',(3.1195264,6.985508,0.39116));
#536 = VECTOR('',#537,1.);
#537 = DIRECTION('',(0.894427191,0.4472135955,0.E+000));
#538 = PCURVE('',#59,#539);
#539 = DEFINITIONAL_REPRESENTATION('',(#540),#544);
#540 = LINE('',#541,#542);
#541 = CARTESIAN_POINT('',(0.E+000,-0.39116));
#542 = VECTOR('',#543,1.);
#543 = DIRECTION('',(1.,0.E+000));
#544 = ( GEOMETRIC_REPRESENTATION_CONTEXT(2) 
PARAMETRIC_REPRESENTATION_CONTEXT() REPRESENTATION_CONTEXT('2D SPACE',''
  ) );
#545 = PCURVE('',#87,#546);
#546 = DEFINITIONAL_REPRESENTATION('',(#547),#551);
#547 = LINE('',#548,#549);
#548 = CARTESIAN_POINT('',(0.508,-0.254));
#549 = VECTOR('',#550,1.);
#550 = DIRECTION('',(-0.894427191,0.4472135955));
#551 = ( GEOMETRIC_REPRESENTATION_CONTEXT(2) 
PARAMETRIC_REPRESENTATION_CONTEXT() REPRESENTATION_CONTEXT('2D SPACE',''
  ) );
#552 = ORIENTED_EDGE('',*,*,#36,.F.);
#553 = ORIENTED_EDGE('',*,*,#554,.F.);
#554 = EDGE_CURVE('',#485,#37,#555,.T.);
#555 = SURFACE_CURVE('',#556,(#560,#567),.PCURVE_S1.);
#556 = LINE('',#557,#558);
#557 = CARTESIAN_POINT('',(3.1195264,6.985508,0.E+000));
#558 = VECTOR('',#559,1.);
#559 = DIRECTION('',(0.894427191,0.4472135955,0.E+000));
#560 = PCURVE('',#59,#561);
#561 = DEFINITIONAL_REPRESENTATION('',(#562),#566);
#562 = LINE('',#563,#564);
#563 = CARTESIAN_POINT('',(0.E+000,0.E+000));
#564 = VECTOR('',#565,1.);
#565 = DIRECTION('',(1.,0.E+000));
#566 = ( GEOMETRIC_REPRESENTATION_CONTEXT(2) 
PARAMETRIC_REPRESENTATION_CONTEXT() REPRESENTATION_CONTEXT('2D SPACE',''
  ) );
#567 = PCURVE('',#141,#568);
#568 = DEFINITIONAL_REPRESENTATION('',(#569),#573);
#569 = LINE('',#570,#571);
#570 = CARTESIAN_POINT('',(0.508,-0.254));
#571 = VECTOR('',#572,1.);
#572 = DIRECTION('',(-0.894427191,0.4472135955));
#573 = ( GEOMETRIC_REPRESENTATION_CONTEXT(2) 
PARAMETRIC_REPRESENTATION_CONTEXT() REPRESENTATION_CONTEXT('2D SPACE',''
  ) );
#574 = ADVANCED_FACE('',(#575),#141,.T.);
#575 = FACE_BOUND('',#576,.F.);
#576 = EDGE_LOOP('',(#577,#578,#579,#580,#581,#582,#583));
#577 = ORIENTED_EDGE('',*,*,#127,.T.);
#578 = ORIENTED_EDGE('',*,*,#208,.T.);
#579 = ORIENTED_EDGE('',*,*,#284,.T.);
#580 = ORIENTED_EDGE('',*,*,#360,.T.);
#581 = ORIENTED_EDGE('',*,*,#436,.T.);
#582 = ORIENTED_EDGE('',*,*,#507,.T.);
#583 = ORIENTED_EDGE('',*,*,#554,.T.);
#584 = ADVANCED_FACE('',(#585),#87,.F.);
#585 = FACE_BOUND('',#586,.T.);
#586 = EDGE_LOOP('',(#587,#588,#589,#590,#591,#592,#593));
#587 = ORIENTED_EDGE('',*,*,#71,.T.);
#588 = ORIENTED_EDGE('',*,*,#157,.T.);
#589 = ORIENTED_EDGE('',*,*,#233,.T.);
#590 = ORIENTED_EDGE('',*,*,#309,.T.);
#591 = ORIENTED_EDGE('',*,*,#385,.T.);
#592 = ORIENTED_EDGE('',*,*,#461,.T.);
#593 = ORIENTED_EDGE('',*,*,#532,.T.);
#594 = ( GEOMETRIC_REPRESENTATION_CONTEXT(3) 
GLOBAL_UNCERTAINTY_ASSIGNED_CONTEXT((#598)) GLOBAL_UNIT_ASSIGNED_CONTEXT
((#595,#596,#597)) REPRESENTATION_CONTEXT('Context #1',
  '3D Context with UNIT and UNCERTAINTY') );
#595 = ( LENGTH_UNIT() NAMED_UNIT(*) SI_UNIT(.MILLI.,.METRE.) );
#596 = ( NAMED_UNIT(*) PLANE_ANGLE_UNIT() SI_UNIT($,.RADIAN.) );
#597 = ( NAMED_UNIT(*) SI_UNIT($,.STERADIAN.) SOLID_ANGLE_UNIT() );
#598 = UNCERTAINTY_MEASURE_WITH_UNIT(LENGTH_MEASURE(1.E-007),#595,
  'distance_accuracy_value','confusion accuracy');
#599 = SHAPE_DEFINITION_REPRESENTATION(#600,#29);
#600 = PRODUCT_DEFINITION_SHAPE('','',#601);
#601 = PRODUCT_DEFINITION('design','',#602,#605);
#602 = PRODUCT_DEFINITION_FORMATION('','',#603);
#603 = PRODUCT('Board','Board','',(#604));
#604 = PRODUCT_CONTEXT('',#2,'mechanical');
#605 = PRODUCT_DEFINITION_CONTEXT('part definition',#2,'design');
#606 = CONTEXT_DEPENDENT_SHAPE_REPRESENTATION(#607,#609);
#607 = ( REPRESENTATION_RELATIONSHIP('','',#29,#10) 
REPRESENTATION_RELATIONSHIP_WITH_TRANSFORMATION(#608) 
SHAPE_REPRESENTATION_RELATIONSHIP() );
#608 = ITEM_DEFINED_TRANSFORMATION('','',#11,#15);
#609 = PRODUCT_DEFINITION_SHAPE('Placement','Placement of an item',#610
  );
#610 = NEXT_ASSEMBLY_USAGE_OCCURRENCE('5','=>[0:1:1:2]','',#5,#601,$);
#611 = PRODUCT_RELATED_PRODUCT_CATEGORY('part',$,(#603));
#612 = SHAPE_DEFINITION_REPRESENTATION(#613,#619);
#613 = PRODUCT_DEFINITION_SHAPE('','',#614);
#614 = PRODUCT_DEFINITION('design','',#615,#618);
#615 = PRODUCT_DEFINITION_FORMATION('','',#616);
#616 = PRODUCT('Free-Models','Free-Models','',(#617));
#617 = PRODUCT_CONTEXT('',#2,'mechanical');
#618 = PRODUCT_DEFINITION_CONTEXT('part definition',#2,'design');
#619 = SHAPE_REPRESENTATION('',(#11,#620),#624);
#620 = AXIS2_PLACEMENT_3D('',#621,#622,#623);
#621 = CARTESIAN_POINT('',(3.50044512,6.50052802,-5.00000016));
#622 = DIRECTION('',(0.E+000,0.E+000,1.));
#623 = DIRECTION('',(1.,0.E+000,0.E+000));
#624 = ( GEOMETRIC_REPRESENTATION_CONTEXT(3) 
GLOBAL_UNCERTAINTY_ASSIGNED_CONTEXT((#628)) GLOBAL_UNIT_ASSIGNED_CONTEXT
((#625,#626,#627)) REPRESENTATION_CONTEXT('Context #1',
  '3D Context with UNIT and UNCERTAINTY') );
#625 = ( LENGTH_UNIT() NAMED_UNIT(*) SI_UNIT(.MILLI.,.METRE.) );
#626 = ( NAMED_UNIT(*) PLANE_ANGLE_UNIT() SI_UNIT($,.RADIAN.) );
#627 = ( NAMED_UNIT(*) SI_UNIT($,.STERADIAN.) SOLID_ANGLE_UNIT() );
#628 = UNCERTAINTY_MEASURE_WITH_UNIT(LENGTH_MEASURE(1.E-007),#625,
  'distance_accuracy_value','confusion accuracy');
#629 = SHAPE_DEFINITION_REPRESENTATION(#630,#636);
#630 = PRODUCT_DEFINITION_SHAPE('','',#631);
#631 = PRODUCT_DEFINITION('design','',#632,#635);
#632 = PRODUCT_DEFINITION_FORMATION('','',#633);
#633 = PRODUCT('550113312','550113312','',(#634));
#634 = PRODUCT_CONTEXT('',#2,'mechanical');
#635 = PRODUCT_DEFINITION_CONTEXT('part definition',#2,'design');
#636 = SHAPE_REPRESENTATION('',(#11,#637),#641);
#637 = AXIS2_PLACEMENT_3D('',#638,#639,#640);
#638 = CARTESIAN_POINT('',(0.E+000,0.E+000,0.E+000));
#639 = DIRECTION('',(0.E+000,0.E+000,1.));
#640 = DIRECTION('',(1.,0.E+000,0.E+000));
#641 = ( GEOMETRIC_REPRESENTATION_CONTEXT(3) 
GLOBAL_UNCERTAINTY_ASSIGNED_CONTEXT((#645)) GLOBAL_UNIT_ASSIGNED_CONTEXT
((#642,#643,#644)) REPRESENTATION_CONTEXT('Context #1',
  '3D Context with UNIT and UNCERTAINTY') );
#642 = ( LENGTH_UNIT() NAMED_UNIT(*) SI_UNIT(.MILLI.,.METRE.) );
#643 = ( NAMED_UNIT(*) PLANE_ANGLE_UNIT() SI_UNIT($,.RADIAN.) );
#644 = ( NAMED_UNIT(*) SI_UNIT($,.STERADIAN.) SOLID_ANGLE_UNIT() );
#645 = UNCERTAINTY_MEASURE_WITH_UNIT(LENGTH_MEASURE(1.E-007),#642,
  'distance_accuracy_value','confusion accuracy');
#646 = ADVANCED_BREP_SHAPE_REPRESENTATION('',(#11,#647),#1901);
#647 = MANIFOLD_SOLID_BREP('',#648);
#648 = CLOSED_SHELL('',(#649,#769,#845,#921,#1053,#1129,#1205,#1281,
    #1352,#1409,#1446,#1615,#1691,#1738,#1814,#1861,#1868,#1875,#1887,
    #1894));
#649 = ADVANCED_FACE('',(#650),#664,.T.);
#650 = FACE_BOUND('',#651,.T.);
#651 = EDGE_LOOP('',(#652,#687,#715,#743));
#652 = ORIENTED_EDGE('',*,*,#653,.T.);
#653 = EDGE_CURVE('',#654,#656,#658,.T.);
#654 = VERTEX_POINT('',#655);
#655 = CARTESIAN_POINT('',(-3.50042734,-6.50052802,0.E+000));
#656 = VERTEX_POINT('',#657);
#657 = CARTESIAN_POINT('',(-3.50042734,-6.50052802,10.00000032));
#658 = SURFACE_CURVE('',#659,(#663,#675),.PCURVE_S1.);
#659 = LINE('',#660,#661);
#660 = CARTESIAN_POINT('',(-3.50042734,-6.50052802,0.E+000));
#661 = VECTOR('',#662,1.);
#662 = DIRECTION('',(0.E+000,0.E+000,1.));
#663 = PCURVE('',#664,#669);
#664 = PLANE('',#665);
#665 = AXIS2_PLACEMENT_3D('',#666,#667,#668);
#666 = CARTESIAN_POINT('',(-3.50042734,-6.50052802,0.E+000));
#667 = DIRECTION('',(-1.,0.E+000,0.E+000));
#668 = DIRECTION('',(0.E+000,1.,0.E+000));
#669 = DEFINITIONAL_REPRESENTATION('',(#670),#674);
#670 = LINE('',#671,#672);
#671 = CARTESIAN_POINT('',(0.E+000,0.E+000));
#672 = VECTOR('',#673,1.);
#673 = DIRECTION('',(0.E+000,-1.));
#674 = ( GEOMETRIC_REPRESENTATION_CONTEXT(2) 
PARAMETRIC_REPRESENTATION_CONTEXT() REPRESENTATION_CONTEXT('2D SPACE',''
  ) );
#675 = PCURVE('',#676,#681);
#676 = PLANE('',#677);
#677 = AXIS2_PLACEMENT_3D('',#678,#679,#680);
#678 = CARTESIAN_POINT('',(4.50059044,-6.50052802,0.E+000));
#679 = DIRECTION('',(0.E+000,-1.,0.E+000));
#680 = DIRECTION('',(-1.,0.E+000,0.E+000));
#681 = DEFINITIONAL_REPRESENTATION('',(#682),#686);
#682 = LINE('',#683,#684);
#683 = CARTESIAN_POINT('',(8.00101778,0.E+000));
#684 = VECTOR('',#685,1.);
#685 = DIRECTION('',(0.E+000,-1.));
#686 = ( GEOMETRIC_REPRESENTATION_CONTEXT(2) 
PARAMETRIC_REPRESENTATION_CONTEXT() REPRESENTATION_CONTEXT('2D SPACE',''
  ) );
#687 = ORIENTED_EDGE('',*,*,#688,.T.);
#688 = EDGE_CURVE('',#656,#689,#691,.T.);
#689 = VERTEX_POINT('',#690);
#690 = CARTESIAN_POINT('',(-3.50042734,1.49947122,10.00000032));
#691 = SURFACE_CURVE('',#692,(#696,#703),.PCURVE_S1.);
#692 = LINE('',#693,#694);
#693 = CARTESIAN_POINT('',(-3.50042734,-6.50052802,10.00000032));
#694 = VECTOR('',#695,1.);
#695 = DIRECTION('',(0.E+000,1.,0.E+000));
#696 = PCURVE('',#664,#697);
#697 = DEFINITIONAL_REPRESENTATION('',(#698),#702);
#698 = LINE('',#699,#700);
#699 = CARTESIAN_POINT('',(0.E+000,-10.00000032));
#700 = VECTOR('',#701,1.);
#701 = DIRECTION('',(1.,0.E+000));
#702 = ( GEOMETRIC_REPRESENTATION_CONTEXT(2) 
PARAMETRIC_REPRESENTATION_CONTEXT() REPRESENTATION_CONTEXT('2D SPACE',''
  ) );
#703 = PCURVE('',#704,#709);
#704 = PLANE('',#705);
#705 = AXIS2_PLACEMENT_3D('',#706,#707,#708);
#706 = CARTESIAN_POINT('',(-3.50042734,-6.50052802,10.00000032));
#707 = DIRECTION('',(0.E+000,0.E+000,-1.));
#708 = DIRECTION('',(-1.,0.E+000,0.E+000));
#709 = DEFINITIONAL_REPRESENTATION('',(#710),#714);
#710 = LINE('',#711,#712);
#711 = CARTESIAN_POINT('',(0.E+000,0.E+000));
#712 = VECTOR('',#713,1.);
#713 = DIRECTION('',(0.E+000,1.));
#714 = ( GEOMETRIC_REPRESENTATION_CONTEXT(2) 
PARAMETRIC_REPRESENTATION_CONTEXT() REPRESENTATION_CONTEXT('2D SPACE',''
  ) );
#715 = ORIENTED_EDGE('',*,*,#716,.F.);
#716 = EDGE_CURVE('',#717,#689,#719,.T.);
#717 = VERTEX_POINT('',#718);
#718 = CARTESIAN_POINT('',(-3.50042734,1.49947122,0.E+000));
#719 = SURFACE_CURVE('',#720,(#724,#731),.PCURVE_S1.);
#720 = LINE('',#721,#722);
#721 = CARTESIAN_POINT('',(-3.50042734,1.49947122,0.E+000));
#722 = VECTOR('',#723,1.);
#723 = DIRECTION('',(0.E+000,0.E+000,1.));
#724 = PCURVE('',#664,#725);
#725 = DEFINITIONAL_REPRESENTATION('',(#726),#730);
#726 = LINE('',#727,#728);
#727 = CARTESIAN_POINT('',(7.99999924,0.E+000));
#728 = VECTOR('',#729,1.);
#729 = DIRECTION('',(0.E+000,-1.));
#730 = ( GEOMETRIC_REPRESENTATION_CONTEXT(2) 
PARAMETRIC_REPRESENTATION_CONTEXT() REPRESENTATION_CONTEXT('2D SPACE',''
  ) );
#731 = PCURVE('',#732,#737);
#732 = PLANE('',#733);
#733 = AXIS2_PLACEMENT_3D('',#734,#735,#736);
#734 = CARTESIAN_POINT('',(-3.50042734,1.49947122,0.E+000));
#735 = DIRECTION('',(0.E+000,-1.,0.E+000));
#736 = DIRECTION('',(-1.,0.E+000,0.E+000));
#737 = DEFINITIONAL_REPRESENTATION('',(#738),#742);
#738 = LINE('',#739,#740);
#739 = CARTESIAN_POINT('',(0.E+000,0.E+000));
#740 = VECTOR('',#741,1.);
#741 = DIRECTION('',(0.E+000,-1.));
#742 = ( GEOMETRIC_REPRESENTATION_CONTEXT(2) 
PARAMETRIC_REPRESENTATION_CONTEXT() REPRESENTATION_CONTEXT('2D SPACE',''
  ) );
#743 = ORIENTED_EDGE('',*,*,#744,.F.);
#744 = EDGE_CURVE('',#654,#717,#745,.T.);
#745 = SURFACE_CURVE('',#746,(#750,#757),.PCURVE_S1.);
#746 = LINE('',#747,#748);
#747 = CARTESIAN_POINT('',(-3.50042734,-6.50052802,0.E+000));
#748 = VECTOR('',#749,1.);
#749 = DIRECTION('',(0.E+000,1.,0.E+000));
#750 = PCURVE('',#664,#751);
#751 = DEFINITIONAL_REPRESENTATION('',(#752),#756);
#752 = LINE('',#753,#754);
#753 = CARTESIAN_POINT('',(0.E+000,0.E+000));
#754 = VECTOR('',#755,1.);
#755 = DIRECTION('',(1.,0.E+000));
#756 = ( GEOMETRIC_REPRESENTATION_CONTEXT(2) 
PARAMETRIC_REPRESENTATION_CONTEXT() REPRESENTATION_CONTEXT('2D SPACE',''
  ) );
#757 = PCURVE('',#758,#763);
#758 = PLANE('',#759);
#759 = AXIS2_PLACEMENT_3D('',#760,#761,#762);
#760 = CARTESIAN_POINT('',(-3.50042734,-6.50052802,0.E+000));
#761 = DIRECTION('',(0.E+000,0.E+000,-1.));
#762 = DIRECTION('',(-1.,0.E+000,0.E+000));
#763 = DEFINITIONAL_REPRESENTATION('',(#764),#768);
#764 = LINE('',#765,#766);
#765 = CARTESIAN_POINT('',(0.E+000,0.E+000));
#766 = VECTOR('',#767,1.);
#767 = DIRECTION('',(0.E+000,1.));
#768 = ( GEOMETRIC_REPRESENTATION_CONTEXT(2) 
PARAMETRIC_REPRESENTATION_CONTEXT() REPRESENTATION_CONTEXT('2D SPACE',''
  ) );
#769 = ADVANCED_FACE('',(#770),#732,.T.);
#770 = FACE_BOUND('',#771,.T.);
#771 = EDGE_LOOP('',(#772,#773,#796,#824));
#772 = ORIENTED_EDGE('',*,*,#716,.T.);
#773 = ORIENTED_EDGE('',*,*,#774,.T.);
#774 = EDGE_CURVE('',#689,#775,#777,.T.);
#775 = VERTEX_POINT('',#776);
#776 = CARTESIAN_POINT('',(-4.50059044,1.49947122,10.00000032));
#777 = SURFACE_CURVE('',#778,(#782,#789),.PCURVE_S1.);
#778 = LINE('',#779,#780);
#779 = CARTESIAN_POINT('',(-3.50042734,1.49947122,10.00000032));
#780 = VECTOR('',#781,1.);
#781 = DIRECTION('',(-1.,0.E+000,0.E+000));
#782 = PCURVE('',#732,#783);
#783 = DEFINITIONAL_REPRESENTATION('',(#784),#788);
#784 = LINE('',#785,#786);
#785 = CARTESIAN_POINT('',(0.E+000,-10.00000032));
#786 = VECTOR('',#787,1.);
#787 = DIRECTION('',(1.,0.E+000));
#788 = ( GEOMETRIC_REPRESENTATION_CONTEXT(2) 
PARAMETRIC_REPRESENTATION_CONTEXT() REPRESENTATION_CONTEXT('2D SPACE',''
  ) );
#789 = PCURVE('',#704,#790);
#790 = DEFINITIONAL_REPRESENTATION('',(#791),#795);
#791 = LINE('',#792,#793);
#792 = CARTESIAN_POINT('',(0.E+000,7.99999924));
#793 = VECTOR('',#794,1.);
#794 = DIRECTION('',(1.,0.E+000));
#795 = ( GEOMETRIC_REPRESENTATION_CONTEXT(2) 
PARAMETRIC_REPRESENTATION_CONTEXT() REPRESENTATION_CONTEXT('2D SPACE',''
  ) );
#796 = ORIENTED_EDGE('',*,*,#797,.F.);
#797 = EDGE_CURVE('',#798,#775,#800,.T.);
#798 = VERTEX_POINT('',#799);
#799 = CARTESIAN_POINT('',(-4.50059044,1.49947122,0.E+000));
#800 = SURFACE_CURVE('',#801,(#805,#812),.PCURVE_S1.);
#801 = LINE('',#802,#803);
#802 = CARTESIAN_POINT('',(-4.50059044,1.49947122,0.E+000));
#803 = VECTOR('',#804,1.);
#804 = DIRECTION('',(0.E+000,0.E+000,1.));
#805 = PCURVE('',#732,#806);
#806 = DEFINITIONAL_REPRESENTATION('',(#807),#811);
#807 = LINE('',#808,#809);
#808 = CARTESIAN_POINT('',(1.0001631,0.E+000));
#809 = VECTOR('',#810,1.);
#810 = DIRECTION('',(0.E+000,-1.));
#811 = ( GEOMETRIC_REPRESENTATION_CONTEXT(2) 
PARAMETRIC_REPRESENTATION_CONTEXT() REPRESENTATION_CONTEXT('2D SPACE',''
  ) );
#812 = PCURVE('',#813,#818);
#813 = PLANE('',#814);
#814 = AXIS2_PLACEMENT_3D('',#815,#816,#817);
#815 = CARTESIAN_POINT('',(-4.50059044,1.49947122,0.E+000));
#816 = DIRECTION('',(-0.963464104803,0.267837485718,0.E+000));
#817 = DIRECTION('',(0.267837485718,0.963464104803,0.E+000));
#818 = DEFINITIONAL_REPRESENTATION('',(#819),#823);
#819 = LINE('',#820,#821);
#820 = CARTESIAN_POINT('',(0.E+000,0.E+000));
#821 = VECTOR('',#822,1.);
#822 = DIRECTION('',(0.E+000,-1.));
#823 = ( GEOMETRIC_REPRESENTATION_CONTEXT(2) 
PARAMETRIC_REPRESENTATION_CONTEXT() REPRESENTATION_CONTEXT('2D SPACE',''
  ) );
#824 = ORIENTED_EDGE('',*,*,#825,.F.);
#825 = EDGE_CURVE('',#717,#798,#826,.T.);
#826 = SURFACE_CURVE('',#827,(#831,#838),.PCURVE_S1.);
#827 = LINE('',#828,#829);
#828 = CARTESIAN_POINT('',(-3.50042734,1.49947122,0.E+000));
#829 = VECTOR('',#830,1.);
#830 = DIRECTION('',(-1.,0.E+000,0.E+000));
#831 = PCURVE('',#732,#832);
#832 = DEFINITIONAL_REPRESENTATION('',(#833),#837);
#833 = LINE('',#834,#835);
#834 = CARTESIAN_POINT('',(0.E+000,0.E+000));
#835 = VECTOR('',#836,1.);
#836 = DIRECTION('',(1.,0.E+000));
#837 = ( GEOMETRIC_REPRESENTATION_CONTEXT(2) 
PARAMETRIC_REPRESENTATION_CONTEXT() REPRESENTATION_CONTEXT('2D SPACE',''
  ) );
#838 = PCURVE('',#758,#839);
#839 = DEFINITIONAL_REPRESENTATION('',(#840),#844);
#840 = LINE('',#841,#842);
#841 = CARTESIAN_POINT('',(0.E+000,7.99999924));
#842 = VECTOR('',#843,1.);
#843 = DIRECTION('',(1.,0.E+000));
#844 = ( GEOMETRIC_REPRESENTATION_CONTEXT(2) 
PARAMETRIC_REPRESENTATION_CONTEXT() REPRESENTATION_CONTEXT('2D SPACE',''
  ) );
#845 = ADVANCED_FACE('',(#846),#813,.T.);
#846 = FACE_BOUND('',#847,.T.);
#847 = EDGE_LOOP('',(#848,#849,#872,#900));
#848 = ORIENTED_EDGE('',*,*,#797,.T.);
#849 = ORIENTED_EDGE('',*,*,#850,.T.);
#850 = EDGE_CURVE('',#775,#851,#853,.T.);
#851 = VERTEX_POINT('',#852);
#852 = CARTESIAN_POINT('',(-3.11033668,6.50048738,10.00000032));
#853 = SURFACE_CURVE('',#854,(#858,#865),.PCURVE_S1.);
#854 = LINE('',#855,#856);
#855 = CARTESIAN_POINT('',(-4.50059044,1.49947122,10.00000032));
#856 = VECTOR('',#857,1.);
#857 = DIRECTION('',(0.267837485718,0.963464104803,0.E+000));
#858 = PCURVE('',#813,#859);
#859 = DEFINITIONAL_REPRESENTATION('',(#860),#864);
#860 = LINE('',#861,#862);
#861 = CARTESIAN_POINT('',(0.E+000,-10.00000032));
#862 = VECTOR('',#863,1.);
#863 = DIRECTION('',(1.,0.E+000));
#864 = ( GEOMETRIC_REPRESENTATION_CONTEXT(2) 
PARAMETRIC_REPRESENTATION_CONTEXT() REPRESENTATION_CONTEXT('2D SPACE',''
  ) );
#865 = PCURVE('',#704,#866);
#866 = DEFINITIONAL_REPRESENTATION('',(#867),#871);
#867 = LINE('',#868,#869);
#868 = CARTESIAN_POINT('',(1.0001631,7.99999924));
#869 = VECTOR('',#870,1.);
#870 = DIRECTION('',(-0.267837485718,0.963464104803));
#871 = ( GEOMETRIC_REPRESENTATION_CONTEXT(2) 
PARAMETRIC_REPRESENTATION_CONTEXT() REPRESENTATION_CONTEXT('2D SPACE',''
  ) );
#872 = ORIENTED_EDGE('',*,*,#873,.F.);
#873 = EDGE_CURVE('',#874,#851,#876,.T.);
#874 = VERTEX_POINT('',#875);
#875 = CARTESIAN_POINT('',(-3.11033668,6.50048738,0.E+000));
#876 = SURFACE_CURVE('',#877,(#881,#888),.PCURVE_S1.);
#877 = LINE('',#878,#879);
#878 = CARTESIAN_POINT('',(-3.11033668,6.50048738,0.E+000));
#879 = VECTOR('',#880,1.);
#880 = DIRECTION('',(0.E+000,0.E+000,1.));
#881 = PCURVE('',#813,#882);
#882 = DEFINITIONAL_REPRESENTATION('',(#883),#887);
#883 = LINE('',#884,#885);
#884 = CARTESIAN_POINT('',(5.190661629289,0.E+000));
#885 = VECTOR('',#886,1.);
#886 = DIRECTION('',(0.E+000,-1.));
#887 = ( GEOMETRIC_REPRESENTATION_CONTEXT(2) 
PARAMETRIC_REPRESENTATION_CONTEXT() REPRESENTATION_CONTEXT('2D SPACE',''
  ) );
#888 = PCURVE('',#889,#894);
#889 = PLANE('',#890);
#890 = AXIS2_PLACEMENT_3D('',#891,#892,#893);
#891 = CARTESIAN_POINT('',(-3.11033668,6.50048738,0.E+000));
#892 = DIRECTION('',(7.706315380889E-005,0.999999997031,0.E+000));
#893 = DIRECTION('',(0.999999997031,-7.706315380889E-005,0.E+000));
#894 = DEFINITIONAL_REPRESENTATION('',(#895),#899);
#895 = LINE('',#896,#897);
#896 = CARTESIAN_POINT('',(0.E+000,0.E+000));
#897 = VECTOR('',#898,1.);
#898 = DIRECTION('',(0.E+000,-1.));
#899 = ( GEOMETRIC_REPRESENTATION_CONTEXT(2) 
PARAMETRIC_REPRESENTATION_CONTEXT() REPRESENTATION_CONTEXT('2D SPACE',''
  ) );
#900 = ORIENTED_EDGE('',*,*,#901,.F.);
#901 = EDGE_CURVE('',#798,#874,#902,.T.);
#902 = SURFACE_CURVE('',#903,(#907,#914),.PCURVE_S1.);
#903 = LINE('',#904,#905);
#904 = CARTESIAN_POINT('',(-4.50059044,1.49947122,0.E+000));
#905 = VECTOR('',#906,1.);
#906 = DIRECTION('',(0.267837485718,0.963464104803,0.E+000));
#907 = PCURVE('',#813,#908);
#908 = DEFINITIONAL_REPRESENTATION('',(#909),#913);
#909 = LINE('',#910,#911);
#910 = CARTESIAN_POINT('',(0.E+000,0.E+000));
#911 = VECTOR('',#912,1.);
#912 = DIRECTION('',(1.,0.E+000));
#913 = ( GEOMETRIC_REPRESENTATION_CONTEXT(2) 
PARAMETRIC_REPRESENTATION_CONTEXT() REPRESENTATION_CONTEXT('2D SPACE',''
  ) );
#914 = PCURVE('',#758,#915);
#915 = DEFINITIONAL_REPRESENTATION('',(#916),#920);
#916 = LINE('',#917,#918);
#917 = CARTESIAN_POINT('',(1.0001631,7.99999924));
#918 = VECTOR('',#919,1.);
#919 = DIRECTION('',(-0.267837485718,0.963464104803));
#920 = ( GEOMETRIC_REPRESENTATION_CONTEXT(2) 
PARAMETRIC_REPRESENTATION_CONTEXT() REPRESENTATION_CONTEXT('2D SPACE',''
  ) );
#921 = ADVANCED_FACE('',(#922),#889,.T.);
#922 = FACE_BOUND('',#923,.T.);
#923 = EDGE_LOOP('',(#924,#925,#948,#976,#1004,#1032));
#924 = ORIENTED_EDGE('',*,*,#873,.T.);
#925 = ORIENTED_EDGE('',*,*,#926,.T.);
#926 = EDGE_CURVE('',#851,#927,#929,.T.);
#927 = VERTEX_POINT('',#928);
#928 = CARTESIAN_POINT('',(3.48111064,6.49997942228,10.00000032));
#929 = SURFACE_CURVE('',#930,(#934,#941),.PCURVE_S1.);
#930 = LINE('',#931,#932);
#931 = CARTESIAN_POINT('',(-3.11033668,6.50048738,10.00000032));
#932 = VECTOR('',#933,1.);
#933 = DIRECTION('',(0.999999997031,-7.706315380889E-005,0.E+000));
#934 = PCURVE('',#889,#935);
#935 = DEFINITIONAL_REPRESENTATION('',(#936),#940);
#936 = LINE('',#937,#938);
#937 = CARTESIAN_POINT('',(0.E+000,-10.00000032));
#938 = VECTOR('',#939,1.);
#939 = DIRECTION('',(1.,0.E+000));
#940 = ( GEOMETRIC_REPRESENTATION_CONTEXT(2) 
PARAMETRIC_REPRESENTATION_CONTEXT() REPRESENTATION_CONTEXT('2D SPACE',''
  ) );
#941 = PCURVE('',#704,#942);
#942 = DEFINITIONAL_REPRESENTATION('',(#943),#947);
#943 = LINE('',#944,#945);
#944 = CARTESIAN_POINT('',(-0.39009066,13.0010154));
#945 = VECTOR('',#946,1.);
#946 = DIRECTION('',(-0.999999997031,-7.706315380889E-005));
#947 = ( GEOMETRIC_REPRESENTATION_CONTEXT(2) 
PARAMETRIC_REPRESENTATION_CONTEXT() REPRESENTATION_CONTEXT('2D SPACE',''
  ) );
#948 = ORIENTED_EDGE('',*,*,#949,.T.);
#949 = EDGE_CURVE('',#927,#950,#952,.T.);
#950 = VERTEX_POINT('',#951);
#951 = CARTESIAN_POINT('',(3.48165928,6.49997938,10.00000032));
#952 = SURFACE_CURVE('',#953,(#957,#964),.PCURVE_S1.);
#953 = LINE('',#954,#955);
#954 = CARTESIAN_POINT('',(-3.11033668,6.50048738,10.00000032));
#955 = VECTOR('',#956,1.);
#956 = DIRECTION('',(0.999999997031,-7.706315380889E-005,0.E+000));
#957 = PCURVE('',#889,#958);
#958 = DEFINITIONAL_REPRESENTATION('',(#959),#963);
#959 = LINE('',#960,#961);
#960 = CARTESIAN_POINT('',(0.E+000,-10.00000032));
#961 = VECTOR('',#962,1.);
#962 = DIRECTION('',(1.,0.E+000));
#963 = ( GEOMETRIC_REPRESENTATION_CONTEXT(2) 
PARAMETRIC_REPRESENTATION_CONTEXT() REPRESENTATION_CONTEXT('2D SPACE',''
  ) );
#964 = PCURVE('',#965,#970);
#965 = PLANE('',#966);
#966 = AXIS2_PLACEMENT_3D('',#967,#968,#969);
#967 = CARTESIAN_POINT('',(-3.50042734,-6.50052802,10.00000032));
#968 = DIRECTION('',(0.E+000,0.E+000,-1.));
#969 = DIRECTION('',(-1.,0.E+000,0.E+000));
#970 = DEFINITIONAL_REPRESENTATION('',(#971),#975);
#971 = LINE('',#972,#973);
#972 = CARTESIAN_POINT('',(-0.39009066,13.0010154));
#973 = VECTOR('',#974,1.);
#974 = DIRECTION('',(-0.999999997031,-7.706315380889E-005));
#975 = ( GEOMETRIC_REPRESENTATION_CONTEXT(2) 
PARAMETRIC_REPRESENTATION_CONTEXT() REPRESENTATION_CONTEXT('2D SPACE',''
  ) );
#976 = ORIENTED_EDGE('',*,*,#977,.F.);
#977 = EDGE_CURVE('',#978,#950,#980,.T.);
#978 = VERTEX_POINT('',#979);
#979 = CARTESIAN_POINT('',(3.48165928,6.49997938,0.E+000));
#980 = SURFACE_CURVE('',#981,(#985,#992),.PCURVE_S1.);
#981 = LINE('',#982,#983);
#982 = CARTESIAN_POINT('',(3.48165928,6.49997938,0.E+000));
#983 = VECTOR('',#984,1.);
#984 = DIRECTION('',(0.E+000,0.E+000,1.));
#985 = PCURVE('',#889,#986);
#986 = DEFINITIONAL_REPRESENTATION('',(#987),#991);
#987 = LINE('',#988,#989);
#988 = CARTESIAN_POINT('',(6.591995979574,0.E+000));
#989 = VECTOR('',#990,1.);
#990 = DIRECTION('',(0.E+000,-1.));
#991 = ( GEOMETRIC_REPRESENTATION_CONTEXT(2) 
PARAMETRIC_REPRESENTATION_CONTEXT() REPRESENTATION_CONTEXT('2D SPACE',''
  ) );
#992 = PCURVE('',#993,#998);
#993 = PLANE('',#994);
#994 = AXIS2_PLACEMENT_3D('',#995,#996,#997);
#995 = CARTESIAN_POINT('',(3.48165928,6.49997938,0.E+000));
#996 = DIRECTION('',(0.679408031686,-0.733760673844,0.E+000));
#997 = DIRECTION('',(-0.733760673844,-0.679408031686,0.E+000));
#998 = DEFINITIONAL_REPRESENTATION('',(#999),#1003);
#999 = LINE('',#1000,#1001);
#1000 = CARTESIAN_POINT('',(0.E+000,0.E+000));
#1001 = VECTOR('',#1002,1.);
#1002 = DIRECTION('',(0.E+000,-1.));
#1003 = ( GEOMETRIC_REPRESENTATION_CONTEXT(2) 
PARAMETRIC_REPRESENTATION_CONTEXT() REPRESENTATION_CONTEXT('2D SPACE',''
  ) );
#1004 = ORIENTED_EDGE('',*,*,#1005,.F.);
#1005 = EDGE_CURVE('',#1006,#978,#1008,.T.);
#1006 = VERTEX_POINT('',#1007);
#1007 = CARTESIAN_POINT('',(3.48111064,6.49997942228,0.E+000));
#1008 = SURFACE_CURVE('',#1009,(#1013,#1020),.PCURVE_S1.);
#1009 = LINE('',#1010,#1011);
#1010 = CARTESIAN_POINT('',(-3.11033668,6.50048738,0.E+000));
#1011 = VECTOR('',#1012,1.);
#1012 = DIRECTION('',(0.999999997031,-7.706315380889E-005,0.E+000));
#1013 = PCURVE('',#889,#1014);
#1014 = DEFINITIONAL_REPRESENTATION('',(#1015),#1019);
#1015 = LINE('',#1016,#1017);
#1016 = CARTESIAN_POINT('',(0.E+000,0.E+000));
#1017 = VECTOR('',#1018,1.);
#1018 = DIRECTION('',(1.,0.E+000));
#1019 = ( GEOMETRIC_REPRESENTATION_CONTEXT(2) 
PARAMETRIC_REPRESENTATION_CONTEXT() REPRESENTATION_CONTEXT('2D SPACE',''
  ) );
#1020 = PCURVE('',#1021,#1026);
#1021 = PLANE('',#1022);
#1022 = AXIS2_PLACEMENT_3D('',#1023,#1024,#1025);
#1023 = CARTESIAN_POINT('',(-3.50042734,-6.50052802,0.E+000));
#1024 = DIRECTION('',(0.E+000,0.E+000,-1.));
#1025 = DIRECTION('',(-1.,0.E+000,0.E+000));
#1026 = DEFINITIONAL_REPRESENTATION('',(#1027),#1031);
#1027 = LINE('',#1028,#1029);
#1028 = CARTESIAN_POINT('',(-0.39009066,13.0010154));
#1029 = VECTOR('',#1030,1.);
#1030 = DIRECTION('',(-0.999999997031,-7.706315380889E-005));
#1031 = ( GEOMETRIC_REPRESENTATION_CONTEXT(2) 
PARAMETRIC_REPRESENTATION_CONTEXT() REPRESENTATION_CONTEXT('2D SPACE',''
  ) );
#1032 = ORIENTED_EDGE('',*,*,#1033,.F.);
#1033 = EDGE_CURVE('',#874,#1006,#1034,.T.);
#1034 = SURFACE_CURVE('',#1035,(#1039,#1046),.PCURVE_S1.);
#1035 = LINE('',#1036,#1037);
#1036 = CARTESIAN_POINT('',(-3.11033668,6.50048738,0.E+000));
#1037 = VECTOR('',#1038,1.);
#1038 = DIRECTION('',(0.999999997031,-7.706315380889E-005,0.E+000));
#1039 = PCURVE('',#889,#1040);
#1040 = DEFINITIONAL_REPRESENTATION('',(#1041),#1045);
#1041 = LINE('',#1042,#1043);
#1042 = CARTESIAN_POINT('',(0.E+000,0.E+000));
#1043 = VECTOR('',#1044,1.);
#1044 = DIRECTION('',(1.,0.E+000));
#1045 = ( GEOMETRIC_REPRESENTATION_CONTEXT(2) 
PARAMETRIC_REPRESENTATION_CONTEXT() REPRESENTATION_CONTEXT('2D SPACE',''
  ) );
#1046 = PCURVE('',#758,#1047);
#1047 = DEFINITIONAL_REPRESENTATION('',(#1048),#1052);
#1048 = LINE('',#1049,#1050);
#1049 = CARTESIAN_POINT('',(-0.39009066,13.0010154));
#1050 = VECTOR('',#1051,1.);
#1051 = DIRECTION('',(-0.999999997031,-7.706315380889E-005));
#1052 = ( GEOMETRIC_REPRESENTATION_CONTEXT(2) 
PARAMETRIC_REPRESENTATION_CONTEXT() REPRESENTATION_CONTEXT('2D SPACE',''
  ) );
#1053 = ADVANCED_FACE('',(#1054),#676,.T.);
#1054 = FACE_BOUND('',#1055,.T.);
#1055 = EDGE_LOOP('',(#1056,#1086,#1107,#1108));
#1056 = ORIENTED_EDGE('',*,*,#1057,.T.);
#1057 = EDGE_CURVE('',#1058,#1060,#1062,.T.);
#1058 = VERTEX_POINT('',#1059);
#1059 = CARTESIAN_POINT('',(4.50059044,-6.50052802,0.E+000));
#1060 = VERTEX_POINT('',#1061);
#1061 = CARTESIAN_POINT('',(4.50059044,-6.50052802,10.00000032));
#1062 = SURFACE_CURVE('',#1063,(#1067,#1074),.PCURVE_S1.);
#1063 = LINE('',#1064,#1065);
#1064 = CARTESIAN_POINT('',(4.50059044,-6.50052802,0.E+000));
#1065 = VECTOR('',#1066,1.);
#1066 = DIRECTION('',(0.E+000,0.E+000,1.));
#1067 = PCURVE('',#676,#1068);
#1068 = DEFINITIONAL_REPRESENTATION('',(#1069),#1073);
#1069 = LINE('',#1070,#1071);
#1070 = CARTESIAN_POINT('',(0.E+000,0.E+000));
#1071 = VECTOR('',#1072,1.);
#1072 = DIRECTION('',(0.E+000,-1.));
#1073 = ( GEOMETRIC_REPRESENTATION_CONTEXT(2) 
PARAMETRIC_REPRESENTATION_CONTEXT() REPRESENTATION_CONTEXT('2D SPACE',''
  ) );
#1074 = PCURVE('',#1075,#1080);
#1075 = PLANE('',#1076);
#1076 = AXIS2_PLACEMENT_3D('',#1077,#1078,#1079);
#1077 = CARTESIAN_POINT('',(4.50059044,-0.49997868,0.E+000));
#1078 = DIRECTION('',(1.,0.E+000,0.E+000));
#1079 = DIRECTION('',(0.E+000,-1.,0.E+000));
#1080 = DEFINITIONAL_REPRESENTATION('',(#1081),#1085);
#1081 = LINE('',#1082,#1083);
#1082 = CARTESIAN_POINT('',(6.00054934,0.E+000));
#1083 = VECTOR('',#1084,1.);
#1084 = DIRECTION('',(0.E+000,-1.));
#1085 = ( GEOMETRIC_REPRESENTATION_CONTEXT(2) 
PARAMETRIC_REPRESENTATION_CONTEXT() REPRESENTATION_CONTEXT('2D SPACE',''
  ) );
#1086 = ORIENTED_EDGE('',*,*,#1087,.T.);
#1087 = EDGE_CURVE('',#1060,#656,#1088,.T.);
#1088 = SURFACE_CURVE('',#1089,(#1093,#1100),.PCURVE_S1.);
#1089 = LINE('',#1090,#1091);
#1090 = CARTESIAN_POINT('',(4.50059044,-6.50052802,10.00000032));
#1091 = VECTOR('',#1092,1.);
#1092 = DIRECTION('',(-1.,0.E+000,0.E+000));
#1093 = PCURVE('',#676,#1094);
#1094 = DEFINITIONAL_REPRESENTATION('',(#1095),#1099);
#1095 = LINE('',#1096,#1097);
#1096 = CARTESIAN_POINT('',(0.E+000,-10.00000032));
#1097 = VECTOR('',#1098,1.);
#1098 = DIRECTION('',(1.,0.E+000));
#1099 = ( GEOMETRIC_REPRESENTATION_CONTEXT(2) 
PARAMETRIC_REPRESENTATION_CONTEXT() REPRESENTATION_CONTEXT('2D SPACE',''
  ) );
#1100 = PCURVE('',#704,#1101);
#1101 = DEFINITIONAL_REPRESENTATION('',(#1102),#1106);
#1102 = LINE('',#1103,#1104);
#1103 = CARTESIAN_POINT('',(-8.00101778,0.E+000));
#1104 = VECTOR('',#1105,1.);
#1105 = DIRECTION('',(1.,0.E+000));
#1106 = ( GEOMETRIC_REPRESENTATION_CONTEXT(2) 
PARAMETRIC_REPRESENTATION_CONTEXT() REPRESENTATION_CONTEXT('2D SPACE',''
  ) );
#1107 = ORIENTED_EDGE('',*,*,#653,.F.);
#1108 = ORIENTED_EDGE('',*,*,#1109,.F.);
#1109 = EDGE_CURVE('',#1058,#654,#1110,.T.);
#1110 = SURFACE_CURVE('',#1111,(#1115,#1122),.PCURVE_S1.);
#1111 = LINE('',#1112,#1113);
#1112 = CARTESIAN_POINT('',(4.50059044,-6.50052802,0.E+000));
#1113 = VECTOR('',#1114,1.);
#1114 = DIRECTION('',(-1.,0.E+000,0.E+000));
#1115 = PCURVE('',#676,#1116);
#1116 = DEFINITIONAL_REPRESENTATION('',(#1117),#1121);
#1117 = LINE('',#1118,#1119);
#1118 = CARTESIAN_POINT('',(0.E+000,0.E+000));
#1119 = VECTOR('',#1120,1.);
#1120 = DIRECTION('',(1.,0.E+000));
#1121 = ( GEOMETRIC_REPRESENTATION_CONTEXT(2) 
PARAMETRIC_REPRESENTATION_CONTEXT() REPRESENTATION_CONTEXT('2D SPACE',''
  ) );
#1122 = PCURVE('',#758,#1123);
#1123 = DEFINITIONAL_REPRESENTATION('',(#1124),#1128);
#1124 = LINE('',#1125,#1126);
#1125 = CARTESIAN_POINT('',(-8.00101778,0.E+000));
#1126 = VECTOR('',#1127,1.);
#1127 = DIRECTION('',(1.,0.E+000));
#1128 = ( GEOMETRIC_REPRESENTATION_CONTEXT(2) 
PARAMETRIC_REPRESENTATION_CONTEXT() REPRESENTATION_CONTEXT('2D SPACE',''
  ) );
#1129 = ADVANCED_FACE('',(#1130),#1075,.T.);
#1130 = FACE_BOUND('',#1131,.T.);
#1131 = EDGE_LOOP('',(#1132,#1162,#1183,#1184));
#1132 = ORIENTED_EDGE('',*,*,#1133,.T.);
#1133 = EDGE_CURVE('',#1134,#1136,#1138,.T.);
#1134 = VERTEX_POINT('',#1135);
#1135 = CARTESIAN_POINT('',(4.50059044,-0.49997868,0.E+000));
#1136 = VERTEX_POINT('',#1137);
#1137 = CARTESIAN_POINT('',(4.50059044,-0.49997868,10.00000032));
#1138 = SURFACE_CURVE('',#1139,(#1143,#1150),.PCURVE_S1.);
#1139 = LINE('',#1140,#1141);
#1140 = CARTESIAN_POINT('',(4.50059044,-0.49997868,0.E+000));
#1141 = VECTOR('',#1142,1.);
#1142 = DIRECTION('',(0.E+000,0.E+000,1.));
#1143 = PCURVE('',#1075,#1144);
#1144 = DEFINITIONAL_REPRESENTATION('',(#1145),#1149);
#1145 = LINE('',#1146,#1147);
#1146 = CARTESIAN_POINT('',(0.E+000,0.E+000));
#1147 = VECTOR('',#1148,1.);
#1148 = DIRECTION('',(0.E+000,-1.));
#1149 = ( GEOMETRIC_REPRESENTATION_CONTEXT(2) 
PARAMETRIC_REPRESENTATION_CONTEXT() REPRESENTATION_CONTEXT('2D SPACE',''
  ) );
#1150 = PCURVE('',#1151,#1156);
#1151 = PLANE('',#1152);
#1152 = AXIS2_PLACEMENT_3D('',#1153,#1154,#1155);
#1153 = CARTESIAN_POINT('',(3.45819476,6.49947138,0.E+000));
#1154 = DIRECTION('',(0.989091734502,0.147300851114,0.E+000));
#1155 = DIRECTION('',(0.147300851114,-0.989091734502,0.E+000));
#1156 = DEFINITIONAL_REPRESENTATION('',(#1157),#1161);
#1157 = LINE('',#1158,#1159);
#1158 = CARTESIAN_POINT('',(7.07664397127,0.E+000));
#1159 = VECTOR('',#1160,1.);
#1160 = DIRECTION('',(0.E+000,-1.));
#1161 = ( GEOMETRIC_REPRESENTATION_CONTEXT(2) 
PARAMETRIC_REPRESENTATION_CONTEXT() REPRESENTATION_CONTEXT('2D SPACE',''
  ) );
#1162 = ORIENTED_EDGE('',*,*,#1163,.T.);
#1163 = EDGE_CURVE('',#1136,#1060,#1164,.T.);
#1164 = SURFACE_CURVE('',#1165,(#1169,#1176),.PCURVE_S1.);
#1165 = LINE('',#1166,#1167);
#1166 = CARTESIAN_POINT('',(4.50059044,-0.49997868,10.00000032));
#1167 = VECTOR('',#1168,1.);
#1168 = DIRECTION('',(0.E+000,-1.,0.E+000));
#1169 = PCURVE('',#1075,#1170);
#1170 = DEFINITIONAL_REPRESENTATION('',(#1171),#1175);
#1171 = LINE('',#1172,#1173);
#1172 = CARTESIAN_POINT('',(0.E+000,-10.00000032));
#1173 = VECTOR('',#1174,1.);
#1174 = DIRECTION('',(1.,0.E+000));
#1175 = ( GEOMETRIC_REPRESENTATION_CONTEXT(2) 
PARAMETRIC_REPRESENTATION_CONTEXT() REPRESENTATION_CONTEXT('2D SPACE',''
  ) );
#1176 = PCURVE('',#704,#1177);
#1177 = DEFINITIONAL_REPRESENTATION('',(#1178),#1182);
#1178 = LINE('',#1179,#1180);
#1179 = CARTESIAN_POINT('',(-8.00101778,6.00054934));
#1180 = VECTOR('',#1181,1.);
#1181 = DIRECTION('',(0.E+000,-1.));
#1182 = ( GEOMETRIC_REPRESENTATION_CONTEXT(2) 
PARAMETRIC_REPRESENTATION_CONTEXT() REPRESENTATION_CONTEXT('2D SPACE',''
  ) );
#1183 = ORIENTED_EDGE('',*,*,#1057,.F.);
#1184 = ORIENTED_EDGE('',*,*,#1185,.F.);
#1185 = EDGE_CURVE('',#1134,#1058,#1186,.T.);
#1186 = SURFACE_CURVE('',#1187,(#1191,#1198),.PCURVE_S1.);
#1187 = LINE('',#1188,#1189);
#1188 = CARTESIAN_POINT('',(4.50059044,-0.49997868,0.E+000));
#1189 = VECTOR('',#1190,1.);
#1190 = DIRECTION('',(0.E+000,-1.,0.E+000));
#1191 = PCURVE('',#1075,#1192);
#1192 = DEFINITIONAL_REPRESENTATION('',(#1193),#1197);
#1193 = LINE('',#1194,#1195);
#1194 = CARTESIAN_POINT('',(0.E+000,0.E+000));
#1195 = VECTOR('',#1196,1.);
#1196 = DIRECTION('',(1.,0.E+000));
#1197 = ( GEOMETRIC_REPRESENTATION_CONTEXT(2) 
PARAMETRIC_REPRESENTATION_CONTEXT() REPRESENTATION_CONTEXT('2D SPACE',''
  ) );
#1198 = PCURVE('',#758,#1199);
#1199 = DEFINITIONAL_REPRESENTATION('',(#1200),#1204);
#1200 = LINE('',#1201,#1202);
#1201 = CARTESIAN_POINT('',(-8.00101778,6.00054934));
#1202 = VECTOR('',#1203,1.);
#1203 = DIRECTION('',(0.E+000,-1.));
#1204 = ( GEOMETRIC_REPRESENTATION_CONTEXT(2) 
PARAMETRIC_REPRESENTATION_CONTEXT() REPRESENTATION_CONTEXT('2D SPACE',''
  ) );
#1205 = ADVANCED_FACE('',(#1206),#1151,.T.);
#1206 = FACE_BOUND('',#1207,.T.);
#1207 = EDGE_LOOP('',(#1208,#1238,#1259,#1260));
#1208 = ORIENTED_EDGE('',*,*,#1209,.T.);
#1209 = EDGE_CURVE('',#1210,#1212,#1214,.T.);
#1210 = VERTEX_POINT('',#1211);
#1211 = CARTESIAN_POINT('',(3.45819476,6.49947138,0.E+000));
#1212 = VERTEX_POINT('',#1213);
#1213 = CARTESIAN_POINT('',(3.45819476,6.49947138,10.00000032));
#1214 = SURFACE_CURVE('',#1215,(#1219,#1226),.PCURVE_S1.);
#1215 = LINE('',#1216,#1217);
#1216 = CARTESIAN_POINT('',(3.45819476,6.49947138,0.E+000));
#1217 = VECTOR('',#1218,1.);
#1218 = DIRECTION('',(0.E+000,0.E+000,1.));
#1219 = PCURVE('',#1151,#1220);
#1220 = DEFINITIONAL_REPRESENTATION('',(#1221),#1225);
#1221 = LINE('',#1222,#1223);
#1222 = CARTESIAN_POINT('',(0.E+000,0.E+000));
#1223 = VECTOR('',#1224,1.);
#1224 = DIRECTION('',(0.E+000,-1.));
#1225 = ( GEOMETRIC_REPRESENTATION_CONTEXT(2) 
PARAMETRIC_REPRESENTATION_CONTEXT() REPRESENTATION_CONTEXT('2D SPACE',''
  ) );
#1226 = PCURVE('',#1227,#1232);
#1227 = PLANE('',#1228);
#1228 = AXIS2_PLACEMENT_3D('',#1229,#1230,#1231);
#1229 = CARTESIAN_POINT('',(3.48111064,6.49947138,0.E+000));
#1230 = DIRECTION('',(0.E+000,-1.,0.E+000));
#1231 = DIRECTION('',(-1.,0.E+000,0.E+000));
#1232 = DEFINITIONAL_REPRESENTATION('',(#1233),#1237);
#1233 = LINE('',#1234,#1235);
#1234 = CARTESIAN_POINT('',(2.291588E-002,0.E+000));
#1235 = VECTOR('',#1236,1.);
#1236 = DIRECTION('',(0.E+000,-1.));
#1237 = ( GEOMETRIC_REPRESENTATION_CONTEXT(2) 
PARAMETRIC_REPRESENTATION_CONTEXT() REPRESENTATION_CONTEXT('2D SPACE',''
  ) );
#1238 = ORIENTED_EDGE('',*,*,#1239,.T.);
#1239 = EDGE_CURVE('',#1212,#1136,#1240,.T.);
#1240 = SURFACE_CURVE('',#1241,(#1245,#1252),.PCURVE_S1.);
#1241 = LINE('',#1242,#1243);
#1242 = CARTESIAN_POINT('',(3.45819476,6.49947138,10.00000032));
#1243 = VECTOR('',#1244,1.);
#1244 = DIRECTION('',(0.147300851114,-0.989091734502,0.E+000));
#1245 = PCURVE('',#1151,#1246);
#1246 = DEFINITIONAL_REPRESENTATION('',(#1247),#1251);
#1247 = LINE('',#1248,#1249);
#1248 = CARTESIAN_POINT('',(0.E+000,-10.00000032));
#1249 = VECTOR('',#1250,1.);
#1250 = DIRECTION('',(1.,0.E+000));
#1251 = ( GEOMETRIC_REPRESENTATION_CONTEXT(2) 
PARAMETRIC_REPRESENTATION_CONTEXT() REPRESENTATION_CONTEXT('2D SPACE',''
  ) );
#1252 = PCURVE('',#704,#1253);
#1253 = DEFINITIONAL_REPRESENTATION('',(#1254),#1258);
#1254 = LINE('',#1255,#1256);
#1255 = CARTESIAN_POINT('',(-6.9586221,12.9999994));
#1256 = VECTOR('',#1257,1.);
#1257 = DIRECTION('',(-0.147300851114,-0.989091734502));
#1258 = ( GEOMETRIC_REPRESENTATION_CONTEXT(2) 
PARAMETRIC_REPRESENTATION_CONTEXT() REPRESENTATION_CONTEXT('2D SPACE',''
  ) );
#1259 = ORIENTED_EDGE('',*,*,#1133,.F.);
#1260 = ORIENTED_EDGE('',*,*,#1261,.F.);
#1261 = EDGE_CURVE('',#1210,#1134,#1262,.T.);
#1262 = SURFACE_CURVE('',#1263,(#1267,#1274),.PCURVE_S1.);
#1263 = LINE('',#1264,#1265);
#1264 = CARTESIAN_POINT('',(3.45819476,6.49947138,0.E+000));
#1265 = VECTOR('',#1266,1.);
#1266 = DIRECTION('',(0.147300851114,-0.989091734502,0.E+000));
#1267 = PCURVE('',#1151,#1268);
#1268 = DEFINITIONAL_REPRESENTATION('',(#1269),#1273);
#1269 = LINE('',#1270,#1271);
#1270 = CARTESIAN_POINT('',(0.E+000,0.E+000));
#1271 = VECTOR('',#1272,1.);
#1272 = DIRECTION('',(1.,0.E+000));
#1273 = ( GEOMETRIC_REPRESENTATION_CONTEXT(2) 
PARAMETRIC_REPRESENTATION_CONTEXT() REPRESENTATION_CONTEXT('2D SPACE',''
  ) );
#1274 = PCURVE('',#758,#1275);
#1275 = DEFINITIONAL_REPRESENTATION('',(#1276),#1280);
#1276 = LINE('',#1277,#1278);
#1277 = CARTESIAN_POINT('',(-6.9586221,12.9999994));
#1278 = VECTOR('',#1279,1.);
#1279 = DIRECTION('',(-0.147300851114,-0.989091734502));
#1280 = ( GEOMETRIC_REPRESENTATION_CONTEXT(2) 
PARAMETRIC_REPRESENTATION_CONTEXT() REPRESENTATION_CONTEXT('2D SPACE',''
  ) );
#1281 = ADVANCED_FACE('',(#1282),#1227,.T.);
#1282 = FACE_BOUND('',#1283,.T.);
#1283 = EDGE_LOOP('',(#1284,#1309,#1330,#1331));
#1284 = ORIENTED_EDGE('',*,*,#1285,.T.);
#1285 = EDGE_CURVE('',#1286,#1288,#1290,.T.);
#1286 = VERTEX_POINT('',#1287);
#1287 = CARTESIAN_POINT('',(3.48111064,6.49947138,0.E+000));
#1288 = VERTEX_POINT('',#1289);
#1289 = CARTESIAN_POINT('',(3.48111064,6.49947138,10.00000032));
#1290 = SURFACE_CURVE('',#1291,(#1295,#1302),.PCURVE_S1.);
#1291 = LINE('',#1292,#1293);
#1292 = CARTESIAN_POINT('',(3.48111064,6.49947138,0.E+000));
#1293 = VECTOR('',#1294,1.);
#1294 = DIRECTION('',(0.E+000,0.E+000,1.));
#1295 = PCURVE('',#1227,#1296);
#1296 = DEFINITIONAL_REPRESENTATION('',(#1297),#1301);
#1297 = LINE('',#1298,#1299);
#1298 = CARTESIAN_POINT('',(0.E+000,0.E+000));
#1299 = VECTOR('',#1300,1.);
#1300 = DIRECTION('',(0.E+000,-1.));
#1301 = ( GEOMETRIC_REPRESENTATION_CONTEXT(2) 
PARAMETRIC_REPRESENTATION_CONTEXT() REPRESENTATION_CONTEXT('2D SPACE',''
  ) );
#1302 = PCURVE('',#993,#1303);
#1303 = DEFINITIONAL_REPRESENTATION('',(#1304),#1308);
#1304 = LINE('',#1305,#1306);
#1305 = CARTESIAN_POINT('',(7.477097361945E-004,0.E+000));
#1306 = VECTOR('',#1307,1.);
#1307 = DIRECTION('',(0.E+000,-1.));
#1308 = ( GEOMETRIC_REPRESENTATION_CONTEXT(2) 
PARAMETRIC_REPRESENTATION_CONTEXT() REPRESENTATION_CONTEXT('2D SPACE',''
  ) );
#1309 = ORIENTED_EDGE('',*,*,#1310,.T.);
#1310 = EDGE_CURVE('',#1288,#1212,#1311,.T.);
#1311 = SURFACE_CURVE('',#1312,(#1316,#1323),.PCURVE_S1.);
#1312 = LINE('',#1313,#1314);
#1313 = CARTESIAN_POINT('',(3.48111064,6.49947138,10.00000032));
#1314 = VECTOR('',#1315,1.);
#1315 = DIRECTION('',(-1.,0.E+000,0.E+000));
#1316 = PCURVE('',#1227,#1317);
#1317 = DEFINITIONAL_REPRESENTATION('',(#1318),#1322);
#1318 = LINE('',#1319,#1320);
#1319 = CARTESIAN_POINT('',(0.E+000,-10.00000032));
#1320 = VECTOR('',#1321,1.);
#1321 = DIRECTION('',(1.,0.E+000));
#1322 = ( GEOMETRIC_REPRESENTATION_CONTEXT(2) 
PARAMETRIC_REPRESENTATION_CONTEXT() REPRESENTATION_CONTEXT('2D SPACE',''
  ) );
#1323 = PCURVE('',#704,#1324);
#1324 = DEFINITIONAL_REPRESENTATION('',(#1325),#1329);
#1325 = LINE('',#1326,#1327);
#1326 = CARTESIAN_POINT('',(-6.98153798,12.9999994));
#1327 = VECTOR('',#1328,1.);
#1328 = DIRECTION('',(1.,0.E+000));
#1329 = ( GEOMETRIC_REPRESENTATION_CONTEXT(2) 
PARAMETRIC_REPRESENTATION_CONTEXT() REPRESENTATION_CONTEXT('2D SPACE',''
  ) );
#1330 = ORIENTED_EDGE('',*,*,#1209,.F.);
#1331 = ORIENTED_EDGE('',*,*,#1332,.F.);
#1332 = EDGE_CURVE('',#1286,#1210,#1333,.T.);
#1333 = SURFACE_CURVE('',#1334,(#1338,#1345),.PCURVE_S1.);
#1334 = LINE('',#1335,#1336);
#1335 = CARTESIAN_POINT('',(3.48111064,6.49947138,0.E+000));
#1336 = VECTOR('',#1337,1.);
#1337 = DIRECTION('',(-1.,0.E+000,0.E+000));
#1338 = PCURVE('',#1227,#1339);
#1339 = DEFINITIONAL_REPRESENTATION('',(#1340),#1344);
#1340 = LINE('',#1341,#1342);
#1341 = CARTESIAN_POINT('',(0.E+000,0.E+000));
#1342 = VECTOR('',#1343,1.);
#1343 = DIRECTION('',(1.,0.E+000));
#1344 = ( GEOMETRIC_REPRESENTATION_CONTEXT(2) 
PARAMETRIC_REPRESENTATION_CONTEXT() REPRESENTATION_CONTEXT('2D SPACE',''
  ) );
#1345 = PCURVE('',#758,#1346);
#1346 = DEFINITIONAL_REPRESENTATION('',(#1347),#1351);
#1347 = LINE('',#1348,#1349);
#1348 = CARTESIAN_POINT('',(-6.98153798,12.9999994));
#1349 = VECTOR('',#1350,1.);
#1350 = DIRECTION('',(1.,0.E+000));
#1351 = ( GEOMETRIC_REPRESENTATION_CONTEXT(2) 
PARAMETRIC_REPRESENTATION_CONTEXT() REPRESENTATION_CONTEXT('2D SPACE',''
  ) );
#1352 = ADVANCED_FACE('',(#1353),#993,.T.);
#1353 = FACE_BOUND('',#1354,.T.);
#1354 = EDGE_LOOP('',(#1355,#1356,#1382,#1383));
#1355 = ORIENTED_EDGE('',*,*,#977,.T.);
#1356 = ORIENTED_EDGE('',*,*,#1357,.T.);
#1357 = EDGE_CURVE('',#950,#1288,#1358,.T.);
#1358 = SURFACE_CURVE('',#1359,(#1363,#1370),.PCURVE_S1.);
#1359 = LINE('',#1360,#1361);
#1360 = CARTESIAN_POINT('',(3.48165928,6.49997938,10.00000032));
#1361 = VECTOR('',#1362,1.);
#1362 = DIRECTION('',(-0.733760673844,-0.679408031686,0.E+000));
#1363 = PCURVE('',#993,#1364);
#1364 = DEFINITIONAL_REPRESENTATION('',(#1365),#1369);
#1365 = LINE('',#1366,#1367);
#1366 = CARTESIAN_POINT('',(0.E+000,-10.00000032));
#1367 = VECTOR('',#1368,1.);
#1368 = DIRECTION('',(1.,0.E+000));
#1369 = ( GEOMETRIC_REPRESENTATION_CONTEXT(2) 
PARAMETRIC_REPRESENTATION_CONTEXT() REPRESENTATION_CONTEXT('2D SPACE',''
  ) );
#1370 = PCURVE('',#1371,#1376);
#1371 = PLANE('',#1372);
#1372 = AXIS2_PLACEMENT_3D('',#1373,#1374,#1375);
#1373 = CARTESIAN_POINT('',(-3.50042734,-6.50052802,10.00000032));
#1374 = DIRECTION('',(0.E+000,0.E+000,-1.));
#1375 = DIRECTION('',(-1.,0.E+000,0.E+000));
#1376 = DEFINITIONAL_REPRESENTATION('',(#1377),#1381);
#1377 = LINE('',#1378,#1379);
#1378 = CARTESIAN_POINT('',(-6.98208662,13.0005074));
#1379 = VECTOR('',#1380,1.);
#1380 = DIRECTION('',(0.733760673844,-0.679408031686));
#1381 = ( GEOMETRIC_REPRESENTATION_CONTEXT(2) 
PARAMETRIC_REPRESENTATION_CONTEXT() REPRESENTATION_CONTEXT('2D SPACE',''
  ) );
#1382 = ORIENTED_EDGE('',*,*,#1285,.F.);
#1383 = ORIENTED_EDGE('',*,*,#1384,.F.);
#1384 = EDGE_CURVE('',#978,#1286,#1385,.T.);
#1385 = SURFACE_CURVE('',#1386,(#1390,#1397),.PCURVE_S1.);
#1386 = LINE('',#1387,#1388);
#1387 = CARTESIAN_POINT('',(3.48165928,6.49997938,0.E+000));
#1388 = VECTOR('',#1389,1.);
#1389 = DIRECTION('',(-0.733760673844,-0.679408031686,0.E+000));
#1390 = PCURVE('',#993,#1391);
#1391 = DEFINITIONAL_REPRESENTATION('',(#1392),#1396);
#1392 = LINE('',#1393,#1394);
#1393 = CARTESIAN_POINT('',(0.E+000,0.E+000));
#1394 = VECTOR('',#1395,1.);
#1395 = DIRECTION('',(1.,0.E+000));
#1396 = ( GEOMETRIC_REPRESENTATION_CONTEXT(2) 
PARAMETRIC_REPRESENTATION_CONTEXT() REPRESENTATION_CONTEXT('2D SPACE',''
  ) );
#1397 = PCURVE('',#1398,#1403);
#1398 = PLANE('',#1399);
#1399 = AXIS2_PLACEMENT_3D('',#1400,#1401,#1402);
#1400 = CARTESIAN_POINT('',(-3.50042734,-6.50052802,0.E+000));
#1401 = DIRECTION('',(0.E+000,0.E+000,-1.));
#1402 = DIRECTION('',(-1.,0.E+000,0.E+000));
#1403 = DEFINITIONAL_REPRESENTATION('',(#1404),#1408);
#1404 = LINE('',#1405,#1406);
#1405 = CARTESIAN_POINT('',(-6.98208662,13.0005074));
#1406 = VECTOR('',#1407,1.);
#1407 = DIRECTION('',(0.733760673844,-0.679408031686));
#1408 = ( GEOMETRIC_REPRESENTATION_CONTEXT(2) 
PARAMETRIC_REPRESENTATION_CONTEXT() REPRESENTATION_CONTEXT('2D SPACE',''
  ) );
#1409 = ADVANCED_FACE('',(#1410),#758,.T.);
#1410 = FACE_BOUND('',#1411,.T.);
#1411 = EDGE_LOOP('',(#1412,#1413,#1439,#1440,#1441,#1442,#1443,#1444,
    #1445));
#1412 = ORIENTED_EDGE('',*,*,#1033,.T.);
#1413 = ORIENTED_EDGE('',*,*,#1414,.T.);
#1414 = EDGE_CURVE('',#1006,#1286,#1415,.T.);
#1415 = SURFACE_CURVE('',#1416,(#1420,#1427),.PCURVE_S1.);
#1416 = LINE('',#1417,#1418);
#1417 = CARTESIAN_POINT('',(3.48111064,6.50052802,0.E+000));
#1418 = VECTOR('',#1419,1.);
#1419 = DIRECTION('',(0.E+000,-1.,0.E+000));
#1420 = PCURVE('',#758,#1421);
#1421 = DEFINITIONAL_REPRESENTATION('',(#1422),#1426);
#1422 = LINE('',#1423,#1424);
#1423 = CARTESIAN_POINT('',(-6.98153798,13.00105604));
#1424 = VECTOR('',#1425,1.);
#1425 = DIRECTION('',(0.E+000,-1.));
#1426 = ( GEOMETRIC_REPRESENTATION_CONTEXT(2) 
PARAMETRIC_REPRESENTATION_CONTEXT() REPRESENTATION_CONTEXT('2D SPACE',''
  ) );
#1427 = PCURVE('',#1428,#1433);
#1428 = PLANE('',#1429);
#1429 = AXIS2_PLACEMENT_3D('',#1430,#1431,#1432);
#1430 = CARTESIAN_POINT('',(3.48111064,6.50052802,0.E+000));
#1431 = DIRECTION('',(1.,0.E+000,0.E+000));
#1432 = DIRECTION('',(0.E+000,-1.,0.E+000));
#1433 = DEFINITIONAL_REPRESENTATION('',(#1434),#1438);
#1434 = LINE('',#1435,#1436);
#1435 = CARTESIAN_POINT('',(0.E+000,0.E+000));
#1436 = VECTOR('',#1437,1.);
#1437 = DIRECTION('',(1.,0.E+000));
#1438 = ( GEOMETRIC_REPRESENTATION_CONTEXT(2) 
PARAMETRIC_REPRESENTATION_CONTEXT() REPRESENTATION_CONTEXT('2D SPACE',''
  ) );
#1439 = ORIENTED_EDGE('',*,*,#1332,.T.);
#1440 = ORIENTED_EDGE('',*,*,#1261,.T.);
#1441 = ORIENTED_EDGE('',*,*,#1185,.T.);
#1442 = ORIENTED_EDGE('',*,*,#1109,.T.);
#1443 = ORIENTED_EDGE('',*,*,#744,.T.);
#1444 = ORIENTED_EDGE('',*,*,#825,.T.);
#1445 = ORIENTED_EDGE('',*,*,#901,.T.);
#1446 = ADVANCED_FACE('',(#1447),#1428,.T.);
#1447 = FACE_BOUND('',#1448,.T.);
#1448 = EDGE_LOOP('',(#1449,#1479,#1500,#1521,#1544,#1572,#1593,#1594));
#1449 = ORIENTED_EDGE('',*,*,#1450,.T.);
#1450 = EDGE_CURVE('',#1451,#1453,#1455,.T.);
#1451 = VERTEX_POINT('',#1452);
#1452 = CARTESIAN_POINT('',(3.48111064,6.50052802,0.E+000));
#1453 = VERTEX_POINT('',#1454);
#1454 = CARTESIAN_POINT('',(3.48111064,6.50052802,10.00000032));
#1455 = SURFACE_CURVE('',#1456,(#1460,#1467),.PCURVE_S1.);
#1456 = LINE('',#1457,#1458);
#1457 = CARTESIAN_POINT('',(3.48111064,6.50052802,0.E+000));
#1458 = VECTOR('',#1459,1.);
#1459 = DIRECTION('',(0.E+000,0.E+000,1.));
#1460 = PCURVE('',#1428,#1461);
#1461 = DEFINITIONAL_REPRESENTATION('',(#1462),#1466);
#1462 = LINE('',#1463,#1464);
#1463 = CARTESIAN_POINT('',(0.E+000,0.E+000));
#1464 = VECTOR('',#1465,1.);
#1465 = DIRECTION('',(0.E+000,-1.));
#1466 = ( GEOMETRIC_REPRESENTATION_CONTEXT(2) 
PARAMETRIC_REPRESENTATION_CONTEXT() REPRESENTATION_CONTEXT('2D SPACE',''
  ) );
#1467 = PCURVE('',#1468,#1473);
#1468 = PLANE('',#1469);
#1469 = AXIS2_PLACEMENT_3D('',#1470,#1471,#1472);
#1470 = CARTESIAN_POINT('',(3.48149926,6.500368,0.E+000));
#1471 = DIRECTION('',(-0.380749805418,-0.924678098407,0.E+000));
#1472 = DIRECTION('',(-0.924678098407,0.380749805418,0.E+000));
#1473 = DEFINITIONAL_REPRESENTATION('',(#1474),#1478);
#1474 = LINE('',#1475,#1476);
#1475 = CARTESIAN_POINT('',(4.202759864664E-004,0.E+000));
#1476 = VECTOR('',#1477,1.);
#1477 = DIRECTION('',(0.E+000,-1.));
#1478 = ( GEOMETRIC_REPRESENTATION_CONTEXT(2) 
PARAMETRIC_REPRESENTATION_CONTEXT() REPRESENTATION_CONTEXT('2D SPACE',''
  ) );
#1479 = ORIENTED_EDGE('',*,*,#1480,.T.);
#1480 = EDGE_CURVE('',#1453,#927,#1481,.T.);
#1481 = SURFACE_CURVE('',#1482,(#1486,#1493),.PCURVE_S1.);
#1482 = LINE('',#1483,#1484);
#1483 = CARTESIAN_POINT('',(3.48111064,6.50052802,10.00000032));
#1484 = VECTOR('',#1485,1.);
#1485 = DIRECTION('',(0.E+000,-1.,0.E+000));
#1486 = PCURVE('',#1428,#1487);
#1487 = DEFINITIONAL_REPRESENTATION('',(#1488),#1492);
#1488 = LINE('',#1489,#1490);
#1489 = CARTESIAN_POINT('',(0.E+000,-10.00000032));
#1490 = VECTOR('',#1491,1.);
#1491 = DIRECTION('',(1.,0.E+000));
#1492 = ( GEOMETRIC_REPRESENTATION_CONTEXT(2) 
PARAMETRIC_REPRESENTATION_CONTEXT() REPRESENTATION_CONTEXT('2D SPACE',''
  ) );
#1493 = PCURVE('',#965,#1494);
#1494 = DEFINITIONAL_REPRESENTATION('',(#1495),#1499);
#1495 = LINE('',#1496,#1497);
#1496 = CARTESIAN_POINT('',(-6.98153798,13.00105604));
#1497 = VECTOR('',#1498,1.);
#1498 = DIRECTION('',(0.E+000,-1.));
#1499 = ( GEOMETRIC_REPRESENTATION_CONTEXT(2) 
PARAMETRIC_REPRESENTATION_CONTEXT() REPRESENTATION_CONTEXT('2D SPACE',''
  ) );
#1500 = ORIENTED_EDGE('',*,*,#1501,.T.);
#1501 = EDGE_CURVE('',#927,#1288,#1502,.T.);
#1502 = SURFACE_CURVE('',#1503,(#1507,#1514),.PCURVE_S1.);
#1503 = LINE('',#1504,#1505);
#1504 = CARTESIAN_POINT('',(3.48111064,6.50052802,10.00000032));
#1505 = VECTOR('',#1506,1.);
#1506 = DIRECTION('',(0.E+000,-1.,0.E+000));
#1507 = PCURVE('',#1428,#1508);
#1508 = DEFINITIONAL_REPRESENTATION('',(#1509),#1513);
#1509 = LINE('',#1510,#1511);
#1510 = CARTESIAN_POINT('',(0.E+000,-10.00000032));
#1511 = VECTOR('',#1512,1.);
#1512 = DIRECTION('',(1.,0.E+000));
#1513 = ( GEOMETRIC_REPRESENTATION_CONTEXT(2) 
PARAMETRIC_REPRESENTATION_CONTEXT() REPRESENTATION_CONTEXT('2D SPACE',''
  ) );
#1514 = PCURVE('',#704,#1515);
#1515 = DEFINITIONAL_REPRESENTATION('',(#1516),#1520);
#1516 = LINE('',#1517,#1518);
#1517 = CARTESIAN_POINT('',(-6.98153798,13.00105604));
#1518 = VECTOR('',#1519,1.);
#1519 = DIRECTION('',(0.E+000,-1.));
#1520 = ( GEOMETRIC_REPRESENTATION_CONTEXT(2) 
PARAMETRIC_REPRESENTATION_CONTEXT() REPRESENTATION_CONTEXT('2D SPACE',''
  ) );
#1521 = ORIENTED_EDGE('',*,*,#1522,.T.);
#1522 = EDGE_CURVE('',#1288,#1523,#1525,.T.);
#1523 = VERTEX_POINT('',#1524);
#1524 = CARTESIAN_POINT('',(3.48111064,6.49943074,10.00000032));
#1525 = SURFACE_CURVE('',#1526,(#1530,#1537),.PCURVE_S1.);
#1526 = LINE('',#1527,#1528);
#1527 = CARTESIAN_POINT('',(3.48111064,6.50052802,10.00000032));
#1528 = VECTOR('',#1529,1.);
#1529 = DIRECTION('',(0.E+000,-1.,0.E+000));
#1530 = PCURVE('',#1428,#1531);
#1531 = DEFINITIONAL_REPRESENTATION('',(#1532),#1536);
#1532 = LINE('',#1533,#1534);
#1533 = CARTESIAN_POINT('',(0.E+000,-10.00000032));
#1534 = VECTOR('',#1535,1.);
#1535 = DIRECTION('',(1.,0.E+000));
#1536 = ( GEOMETRIC_REPRESENTATION_CONTEXT(2) 
PARAMETRIC_REPRESENTATION_CONTEXT() REPRESENTATION_CONTEXT('2D SPACE',''
  ) );
#1537 = PCURVE('',#1371,#1538);
#1538 = DEFINITIONAL_REPRESENTATION('',(#1539),#1543);
#1539 = LINE('',#1540,#1541);
#1540 = CARTESIAN_POINT('',(-6.98153798,13.00105604));
#1541 = VECTOR('',#1542,1.);
#1542 = DIRECTION('',(0.E+000,-1.));
#1543 = ( GEOMETRIC_REPRESENTATION_CONTEXT(2) 
PARAMETRIC_REPRESENTATION_CONTEXT() REPRESENTATION_CONTEXT('2D SPACE',''
  ) );
#1544 = ORIENTED_EDGE('',*,*,#1545,.F.);
#1545 = EDGE_CURVE('',#1546,#1523,#1548,.T.);
#1546 = VERTEX_POINT('',#1547);
#1547 = CARTESIAN_POINT('',(3.48111064,6.49943074,0.E+000));
#1548 = SURFACE_CURVE('',#1549,(#1553,#1560),.PCURVE_S1.);
#1549 = LINE('',#1550,#1551);
#1550 = CARTESIAN_POINT('',(3.48111064,6.49943074,0.E+000));
#1551 = VECTOR('',#1552,1.);
#1552 = DIRECTION('',(0.E+000,0.E+000,1.));
#1553 = PCURVE('',#1428,#1554);
#1554 = DEFINITIONAL_REPRESENTATION('',(#1555),#1559);
#1555 = LINE('',#1556,#1557);
#1556 = CARTESIAN_POINT('',(1.09728E-003,0.E+000));
#1557 = VECTOR('',#1558,1.);
#1558 = DIRECTION('',(0.E+000,-1.));
#1559 = ( GEOMETRIC_REPRESENTATION_CONTEXT(2) 
PARAMETRIC_REPRESENTATION_CONTEXT() REPRESENTATION_CONTEXT('2D SPACE',''
  ) );
#1560 = PCURVE('',#1561,#1566);
#1561 = PLANE('',#1562);
#1562 = AXIS2_PLACEMENT_3D('',#1563,#1564,#1565);
#1563 = CARTESIAN_POINT('',(3.48111064,6.49943074,0.E+000));
#1564 = DIRECTION('',(-0.380749805418,0.924678098407,0.E+000));
#1565 = DIRECTION('',(0.924678098407,0.380749805418,0.E+000));
#1566 = DEFINITIONAL_REPRESENTATION('',(#1567),#1571);
#1567 = LINE('',#1568,#1569);
#1568 = CARTESIAN_POINT('',(0.E+000,0.E+000));
#1569 = VECTOR('',#1570,1.);
#1570 = DIRECTION('',(0.E+000,-1.));
#1571 = ( GEOMETRIC_REPRESENTATION_CONTEXT(2) 
PARAMETRIC_REPRESENTATION_CONTEXT() REPRESENTATION_CONTEXT('2D SPACE',''
  ) );
#1572 = ORIENTED_EDGE('',*,*,#1573,.F.);
#1573 = EDGE_CURVE('',#1286,#1546,#1574,.T.);
#1574 = SURFACE_CURVE('',#1575,(#1579,#1586),.PCURVE_S1.);
#1575 = LINE('',#1576,#1577);
#1576 = CARTESIAN_POINT('',(3.48111064,6.50052802,0.E+000));
#1577 = VECTOR('',#1578,1.);
#1578 = DIRECTION('',(0.E+000,-1.,0.E+000));
#1579 = PCURVE('',#1428,#1580);
#1580 = DEFINITIONAL_REPRESENTATION('',(#1581),#1585);
#1581 = LINE('',#1582,#1583);
#1582 = CARTESIAN_POINT('',(0.E+000,0.E+000));
#1583 = VECTOR('',#1584,1.);
#1584 = DIRECTION('',(1.,0.E+000));
#1585 = ( GEOMETRIC_REPRESENTATION_CONTEXT(2) 
PARAMETRIC_REPRESENTATION_CONTEXT() REPRESENTATION_CONTEXT('2D SPACE',''
  ) );
#1586 = PCURVE('',#1398,#1587);
#1587 = DEFINITIONAL_REPRESENTATION('',(#1588),#1592);
#1588 = LINE('',#1589,#1590);
#1589 = CARTESIAN_POINT('',(-6.98153798,13.00105604));
#1590 = VECTOR('',#1591,1.);
#1591 = DIRECTION('',(0.E+000,-1.));
#1592 = ( GEOMETRIC_REPRESENTATION_CONTEXT(2) 
PARAMETRIC_REPRESENTATION_CONTEXT() REPRESENTATION_CONTEXT('2D SPACE',''
  ) );
#1593 = ORIENTED_EDGE('',*,*,#1414,.F.);
#1594 = ORIENTED_EDGE('',*,*,#1595,.F.);
#1595 = EDGE_CURVE('',#1451,#1006,#1596,.T.);
#1596 = SURFACE_CURVE('',#1597,(#1601,#1608),.PCURVE_S1.);
#1597 = LINE('',#1598,#1599);
#1598 = CARTESIAN_POINT('',(3.48111064,6.50052802,0.E+000));
#1599 = VECTOR('',#1600,1.);
#1600 = DIRECTION('',(0.E+000,-1.,0.E+000));
#1601 = PCURVE('',#1428,#1602);
#1602 = DEFINITIONAL_REPRESENTATION('',(#1603),#1607);
#1603 = LINE('',#1604,#1605);
#1604 = CARTESIAN_POINT('',(0.E+000,0.E+000));
#1605 = VECTOR('',#1606,1.);
#1606 = DIRECTION('',(1.,0.E+000));
#1607 = ( GEOMETRIC_REPRESENTATION_CONTEXT(2) 
PARAMETRIC_REPRESENTATION_CONTEXT() REPRESENTATION_CONTEXT('2D SPACE',''
  ) );
#1608 = PCURVE('',#1021,#1609);
#1609 = DEFINITIONAL_REPRESENTATION('',(#1610),#1614);
#1610 = LINE('',#1611,#1612);
#1611 = CARTESIAN_POINT('',(-6.98153798,13.00105604));
#1612 = VECTOR('',#1613,1.);
#1613 = DIRECTION('',(0.E+000,-1.));
#1614 = ( GEOMETRIC_REPRESENTATION_CONTEXT(2) 
PARAMETRIC_REPRESENTATION_CONTEXT() REPRESENTATION_CONTEXT('2D SPACE',''
  ) );
#1615 = ADVANCED_FACE('',(#1616),#1468,.T.);
#1616 = FACE_BOUND('',#1617,.T.);
#1617 = EDGE_LOOP('',(#1618,#1648,#1669,#1670));
#1618 = ORIENTED_EDGE('',*,*,#1619,.T.);
#1619 = EDGE_CURVE('',#1620,#1622,#1624,.T.);
#1620 = VERTEX_POINT('',#1621);
#1621 = CARTESIAN_POINT('',(3.48149926,6.500368,0.E+000));
#1622 = VERTEX_POINT('',#1623);
#1623 = CARTESIAN_POINT('',(3.48149926,6.500368,10.00000032));
#1624 = SURFACE_CURVE('',#1625,(#1629,#1636),.PCURVE_S1.);
#1625 = LINE('',#1626,#1627);
#1626 = CARTESIAN_POINT('',(3.48149926,6.500368,0.E+000));
#1627 = VECTOR('',#1628,1.);
#1628 = DIRECTION('',(0.E+000,0.E+000,1.));
#1629 = PCURVE('',#1468,#1630);
#1630 = DEFINITIONAL_REPRESENTATION('',(#1631),#1635);
#1631 = LINE('',#1632,#1633);
#1632 = CARTESIAN_POINT('',(0.E+000,0.E+000));
#1633 = VECTOR('',#1634,1.);
#1634 = DIRECTION('',(0.E+000,-1.));
#1635 = ( GEOMETRIC_REPRESENTATION_CONTEXT(2) 
PARAMETRIC_REPRESENTATION_CONTEXT() REPRESENTATION_CONTEXT('2D SPACE',''
  ) );
#1636 = PCURVE('',#1637,#1642);
#1637 = PLANE('',#1638);
#1638 = AXIS2_PLACEMENT_3D('',#1639,#1640,#1641);
#1639 = CARTESIAN_POINT('',(3.48165928,6.49997938,0.E+000));
#1640 = DIRECTION('',(-0.924678098598,-0.380749804955,0.E+000));
#1641 = DIRECTION('',(-0.380749804955,0.924678098598,0.E+000));
#1642 = DEFINITIONAL_REPRESENTATION('',(#1643),#1647);
#1643 = LINE('',#1644,#1645);
#1644 = CARTESIAN_POINT('',(4.202759864657E-004,0.E+000));
#1645 = VECTOR('',#1646,1.);
#1646 = DIRECTION('',(0.E+000,-1.));
#1647 = ( GEOMETRIC_REPRESENTATION_CONTEXT(2) 
PARAMETRIC_REPRESENTATION_CONTEXT() REPRESENTATION_CONTEXT('2D SPACE',''
  ) );
#1648 = ORIENTED_EDGE('',*,*,#1649,.T.);
#1649 = EDGE_CURVE('',#1622,#1453,#1650,.T.);
#1650 = SURFACE_CURVE('',#1651,(#1655,#1662),.PCURVE_S1.);
#1651 = LINE('',#1652,#1653);
#1652 = CARTESIAN_POINT('',(3.48149926,6.500368,10.00000032));
#1653 = VECTOR('',#1654,1.);
#1654 = DIRECTION('',(-0.924678098407,0.380749805418,0.E+000));
#1655 = PCURVE('',#1468,#1656);
#1656 = DEFINITIONAL_REPRESENTATION('',(#1657),#1661);
#1657 = LINE('',#1658,#1659);
#1658 = CARTESIAN_POINT('',(0.E+000,-10.00000032));
#1659 = VECTOR('',#1660,1.);
#1660 = DIRECTION('',(1.,0.E+000));
#1661 = ( GEOMETRIC_REPRESENTATION_CONTEXT(2) 
PARAMETRIC_REPRESENTATION_CONTEXT() REPRESENTATION_CONTEXT('2D SPACE',''
  ) );
#1662 = PCURVE('',#965,#1663);
#1663 = DEFINITIONAL_REPRESENTATION('',(#1664),#1668);
#1664 = LINE('',#1665,#1666);
#1665 = CARTESIAN_POINT('',(-6.9819266,13.00089602));
#1666 = VECTOR('',#1667,1.);
#1667 = DIRECTION('',(0.924678098407,0.380749805418));
#1668 = ( GEOMETRIC_REPRESENTATION_CONTEXT(2) 
PARAMETRIC_REPRESENTATION_CONTEXT() REPRESENTATION_CONTEXT('2D SPACE',''
  ) );
#1669 = ORIENTED_EDGE('',*,*,#1450,.F.);
#1670 = ORIENTED_EDGE('',*,*,#1671,.F.);
#1671 = EDGE_CURVE('',#1620,#1451,#1672,.T.);
#1672 = SURFACE_CURVE('',#1673,(#1677,#1684),.PCURVE_S1.);
#1673 = LINE('',#1674,#1675);
#1674 = CARTESIAN_POINT('',(3.48149926,6.500368,0.E+000));
#1675 = VECTOR('',#1676,1.);
#1676 = DIRECTION('',(-0.924678098407,0.380749805418,0.E+000));
#1677 = PCURVE('',#1468,#1678);
#1678 = DEFINITIONAL_REPRESENTATION('',(#1679),#1683);
#1679 = LINE('',#1680,#1681);
#1680 = CARTESIAN_POINT('',(0.E+000,0.E+000));
#1681 = VECTOR('',#1682,1.);
#1682 = DIRECTION('',(1.,0.E+000));
#1683 = ( GEOMETRIC_REPRESENTATION_CONTEXT(2) 
PARAMETRIC_REPRESENTATION_CONTEXT() REPRESENTATION_CONTEXT('2D SPACE',''
  ) );
#1684 = PCURVE('',#1021,#1685);
#1685 = DEFINITIONAL_REPRESENTATION('',(#1686),#1690);
#1686 = LINE('',#1687,#1688);
#1687 = CARTESIAN_POINT('',(-6.9819266,13.00089602));
#1688 = VECTOR('',#1689,1.);
#1689 = DIRECTION('',(0.924678098407,0.380749805418));
#1690 = ( GEOMETRIC_REPRESENTATION_CONTEXT(2) 
PARAMETRIC_REPRESENTATION_CONTEXT() REPRESENTATION_CONTEXT('2D SPACE',''
  ) );
#1691 = ADVANCED_FACE('',(#1692),#1637,.T.);
#1692 = FACE_BOUND('',#1693,.T.);
#1693 = EDGE_LOOP('',(#1694,#1695,#1716,#1717));
#1694 = ORIENTED_EDGE('',*,*,#977,.T.);
#1695 = ORIENTED_EDGE('',*,*,#1696,.T.);
#1696 = EDGE_CURVE('',#950,#1622,#1697,.T.);
#1697 = SURFACE_CURVE('',#1698,(#1702,#1709),.PCURVE_S1.);
#1698 = LINE('',#1699,#1700);
#1699 = CARTESIAN_POINT('',(3.48165928,6.49997938,10.00000032));
#1700 = VECTOR('',#1701,1.);
#1701 = DIRECTION('',(-0.380749804955,0.924678098598,0.E+000));
#1702 = PCURVE('',#1637,#1703);
#1703 = DEFINITIONAL_REPRESENTATION('',(#1704),#1708);
#1704 = LINE('',#1705,#1706);
#1705 = CARTESIAN_POINT('',(0.E+000,-10.00000032));
#1706 = VECTOR('',#1707,1.);
#1707 = DIRECTION('',(1.,0.E+000));
#1708 = ( GEOMETRIC_REPRESENTATION_CONTEXT(2) 
PARAMETRIC_REPRESENTATION_CONTEXT() REPRESENTATION_CONTEXT('2D SPACE',''
  ) );
#1709 = PCURVE('',#965,#1710);
#1710 = DEFINITIONAL_REPRESENTATION('',(#1711),#1715);
#1711 = LINE('',#1712,#1713);
#1712 = CARTESIAN_POINT('',(-6.98208662,13.0005074));
#1713 = VECTOR('',#1714,1.);
#1714 = DIRECTION('',(0.380749804955,0.924678098598));
#1715 = ( GEOMETRIC_REPRESENTATION_CONTEXT(2) 
PARAMETRIC_REPRESENTATION_CONTEXT() REPRESENTATION_CONTEXT('2D SPACE',''
  ) );
#1716 = ORIENTED_EDGE('',*,*,#1619,.F.);
#1717 = ORIENTED_EDGE('',*,*,#1718,.F.);
#1718 = EDGE_CURVE('',#978,#1620,#1719,.T.);
#1719 = SURFACE_CURVE('',#1720,(#1724,#1731),.PCURVE_S1.);
#1720 = LINE('',#1721,#1722);
#1721 = CARTESIAN_POINT('',(3.48165928,6.49997938,0.E+000));
#1722 = VECTOR('',#1723,1.);
#1723 = DIRECTION('',(-0.380749804955,0.924678098598,0.E+000));
#1724 = PCURVE('',#1637,#1725);
#1725 = DEFINITIONAL_REPRESENTATION('',(#1726),#1730);
#1726 = LINE('',#1727,#1728);
#1727 = CARTESIAN_POINT('',(0.E+000,0.E+000));
#1728 = VECTOR('',#1729,1.);
#1729 = DIRECTION('',(1.,0.E+000));
#1730 = ( GEOMETRIC_REPRESENTATION_CONTEXT(2) 
PARAMETRIC_REPRESENTATION_CONTEXT() REPRESENTATION_CONTEXT('2D SPACE',''
  ) );
#1731 = PCURVE('',#1021,#1732);
#1732 = DEFINITIONAL_REPRESENTATION('',(#1733),#1737);
#1733 = LINE('',#1734,#1735);
#1734 = CARTESIAN_POINT('',(-6.98208662,13.0005074));
#1735 = VECTOR('',#1736,1.);
#1736 = DIRECTION('',(0.380749804955,0.924678098598));
#1737 = ( GEOMETRIC_REPRESENTATION_CONTEXT(2) 
PARAMETRIC_REPRESENTATION_CONTEXT() REPRESENTATION_CONTEXT('2D SPACE',''
  ) );
#1738 = ADVANCED_FACE('',(#1739),#1561,.T.);
#1739 = FACE_BOUND('',#1740,.T.);
#1740 = EDGE_LOOP('',(#1741,#1742,#1765,#1793));
#1741 = ORIENTED_EDGE('',*,*,#1545,.T.);
#1742 = ORIENTED_EDGE('',*,*,#1743,.T.);
#1743 = EDGE_CURVE('',#1523,#1744,#1746,.T.);
#1744 = VERTEX_POINT('',#1745);
#1745 = CARTESIAN_POINT('',(3.48149926,6.49959076,10.00000032));
#1746 = SURFACE_CURVE('',#1747,(#1751,#1758),.PCURVE_S1.);
#1747 = LINE('',#1748,#1749);
#1748 = CARTESIAN_POINT('',(3.48111064,6.49943074,10.00000032));
#1749 = VECTOR('',#1750,1.);
#1750 = DIRECTION('',(0.924678098407,0.380749805418,0.E+000));
#1751 = PCURVE('',#1561,#1752);
#1752 = DEFINITIONAL_REPRESENTATION('',(#1753),#1757);
#1753 = LINE('',#1754,#1755);
#1754 = CARTESIAN_POINT('',(0.E+000,-10.00000032));
#1755 = VECTOR('',#1756,1.);
#1756 = DIRECTION('',(1.,0.E+000));
#1757 = ( GEOMETRIC_REPRESENTATION_CONTEXT(2) 
PARAMETRIC_REPRESENTATION_CONTEXT() REPRESENTATION_CONTEXT('2D SPACE',''
  ) );
#1758 = PCURVE('',#1371,#1759);
#1759 = DEFINITIONAL_REPRESENTATION('',(#1760),#1764);
#1760 = LINE('',#1761,#1762);
#1761 = CARTESIAN_POINT('',(-6.98153798,12.99995876));
#1762 = VECTOR('',#1763,1.);
#1763 = DIRECTION('',(-0.924678098407,0.380749805418));
#1764 = ( GEOMETRIC_REPRESENTATION_CONTEXT(2) 
PARAMETRIC_REPRESENTATION_CONTEXT() REPRESENTATION_CONTEXT('2D SPACE',''
  ) );
#1765 = ORIENTED_EDGE('',*,*,#1766,.F.);
#1766 = EDGE_CURVE('',#1767,#1744,#1769,.T.);
#1767 = VERTEX_POINT('',#1768);
#1768 = CARTESIAN_POINT('',(3.48149926,6.49959076,0.E+000));
#1769 = SURFACE_CURVE('',#1770,(#1774,#1781),.PCURVE_S1.);
#1770 = LINE('',#1771,#1772);
#1771 = CARTESIAN_POINT('',(3.48149926,6.49959076,0.E+000));
#1772 = VECTOR('',#1773,1.);
#1773 = DIRECTION('',(0.E+000,0.E+000,1.));
#1774 = PCURVE('',#1561,#1775);
#1775 = DEFINITIONAL_REPRESENTATION('',(#1776),#1780);
#1776 = LINE('',#1777,#1778);
#1777 = CARTESIAN_POINT('',(4.202759864664E-004,0.E+000));
#1778 = VECTOR('',#1779,1.);
#1779 = DIRECTION('',(0.E+000,-1.));
#1780 = ( GEOMETRIC_REPRESENTATION_CONTEXT(2) 
PARAMETRIC_REPRESENTATION_CONTEXT() REPRESENTATION_CONTEXT('2D SPACE',''
  ) );
#1781 = PCURVE('',#1782,#1787);
#1782 = PLANE('',#1783);
#1783 = AXIS2_PLACEMENT_3D('',#1784,#1785,#1786);
#1784 = CARTESIAN_POINT('',(3.48149926,6.49959076,0.E+000));
#1785 = DIRECTION('',(-0.924678098598,0.380749804955,0.E+000));
#1786 = DIRECTION('',(0.380749804955,0.924678098598,0.E+000));
#1787 = DEFINITIONAL_REPRESENTATION('',(#1788),#1792);
#1788 = LINE('',#1789,#1790);
#1789 = CARTESIAN_POINT('',(0.E+000,0.E+000));
#1790 = VECTOR('',#1791,1.);
#1791 = DIRECTION('',(0.E+000,-1.));
#1792 = ( GEOMETRIC_REPRESENTATION_CONTEXT(2) 
PARAMETRIC_REPRESENTATION_CONTEXT() REPRESENTATION_CONTEXT('2D SPACE',''
  ) );
#1793 = ORIENTED_EDGE('',*,*,#1794,.F.);
#1794 = EDGE_CURVE('',#1546,#1767,#1795,.T.);
#1795 = SURFACE_CURVE('',#1796,(#1800,#1807),.PCURVE_S1.);
#1796 = LINE('',#1797,#1798);
#1797 = CARTESIAN_POINT('',(3.48111064,6.49943074,0.E+000));
#1798 = VECTOR('',#1799,1.);
#1799 = DIRECTION('',(0.924678098407,0.380749805418,0.E+000));
#1800 = PCURVE('',#1561,#1801);
#1801 = DEFINITIONAL_REPRESENTATION('',(#1802),#1806);
#1802 = LINE('',#1803,#1804);
#1803 = CARTESIAN_POINT('',(0.E+000,0.E+000));
#1804 = VECTOR('',#1805,1.);
#1805 = DIRECTION('',(1.,0.E+000));
#1806 = ( GEOMETRIC_REPRESENTATION_CONTEXT(2) 
PARAMETRIC_REPRESENTATION_CONTEXT() REPRESENTATION_CONTEXT('2D SPACE',''
  ) );
#1807 = PCURVE('',#1398,#1808);
#1808 = DEFINITIONAL_REPRESENTATION('',(#1809),#1813);
#1809 = LINE('',#1810,#1811);
#1810 = CARTESIAN_POINT('',(-6.98153798,12.99995876));
#1811 = VECTOR('',#1812,1.);
#1812 = DIRECTION('',(-0.924678098407,0.380749805418));
#1813 = ( GEOMETRIC_REPRESENTATION_CONTEXT(2) 
PARAMETRIC_REPRESENTATION_CONTEXT() REPRESENTATION_CONTEXT('2D SPACE',''
  ) );
#1814 = ADVANCED_FACE('',(#1815),#1782,.T.);
#1815 = FACE_BOUND('',#1816,.T.);
#1816 = EDGE_LOOP('',(#1817,#1818,#1839,#1840));
#1817 = ORIENTED_EDGE('',*,*,#1766,.T.);
#1818 = ORIENTED_EDGE('',*,*,#1819,.T.);
#1819 = EDGE_CURVE('',#1744,#950,#1820,.T.);
#1820 = SURFACE_CURVE('',#1821,(#1825,#1832),.PCURVE_S1.);
#1821 = LINE('',#1822,#1823);
#1822 = CARTESIAN_POINT('',(3.48149926,6.49959076,10.00000032));
#1823 = VECTOR('',#1824,1.);
#1824 = DIRECTION('',(0.380749804955,0.924678098598,0.E+000));
#1825 = PCURVE('',#1782,#1826);
#1826 = DEFINITIONAL_REPRESENTATION('',(#1827),#1831);
#1827 = LINE('',#1828,#1829);
#1828 = CARTESIAN_POINT('',(0.E+000,-10.00000032));
#1829 = VECTOR('',#1830,1.);
#1830 = DIRECTION('',(1.,0.E+000));
#1831 = ( GEOMETRIC_REPRESENTATION_CONTEXT(2) 
PARAMETRIC_REPRESENTATION_CONTEXT() REPRESENTATION_CONTEXT('2D SPACE',''
  ) );
#1832 = PCURVE('',#1371,#1833);
#1833 = DEFINITIONAL_REPRESENTATION('',(#1834),#1838);
#1834 = LINE('',#1835,#1836);
#1835 = CARTESIAN_POINT('',(-6.9819266,13.00011878));
#1836 = VECTOR('',#1837,1.);
#1837 = DIRECTION('',(-0.380749804955,0.924678098598));
#1838 = ( GEOMETRIC_REPRESENTATION_CONTEXT(2) 
PARAMETRIC_REPRESENTATION_CONTEXT() REPRESENTATION_CONTEXT('2D SPACE',''
  ) );
#1839 = ORIENTED_EDGE('',*,*,#977,.F.);
#1840 = ORIENTED_EDGE('',*,*,#1841,.F.);
#1841 = EDGE_CURVE('',#1767,#978,#1842,.T.);
#1842 = SURFACE_CURVE('',#1843,(#1847,#1854),.PCURVE_S1.);
#1843 = LINE('',#1844,#1845);
#1844 = CARTESIAN_POINT('',(3.48149926,6.49959076,0.E+000));
#1845 = VECTOR('',#1846,1.);
#1846 = DIRECTION('',(0.380749804955,0.924678098598,0.E+000));
#1847 = PCURVE('',#1782,#1848);
#1848 = DEFINITIONAL_REPRESENTATION('',(#1849),#1853);
#1849 = LINE('',#1850,#1851);
#1850 = CARTESIAN_POINT('',(0.E+000,0.E+000));
#1851 = VECTOR('',#1852,1.);
#1852 = DIRECTION('',(1.,0.E+000));
#1853 = ( GEOMETRIC_REPRESENTATION_CONTEXT(2) 
PARAMETRIC_REPRESENTATION_CONTEXT() REPRESENTATION_CONTEXT('2D SPACE',''
  ) );
#1854 = PCURVE('',#1398,#1855);
#1855 = DEFINITIONAL_REPRESENTATION('',(#1856),#1860);
#1856 = LINE('',#1857,#1858);
#1857 = CARTESIAN_POINT('',(-6.9819266,13.00011878));
#1858 = VECTOR('',#1859,1.);
#1859 = DIRECTION('',(-0.380749804955,0.924678098598));
#1860 = ( GEOMETRIC_REPRESENTATION_CONTEXT(2) 
PARAMETRIC_REPRESENTATION_CONTEXT() REPRESENTATION_CONTEXT('2D SPACE',''
  ) );
#1861 = ADVANCED_FACE('',(#1862),#1021,.F.);
#1862 = FACE_BOUND('',#1863,.F.);
#1863 = EDGE_LOOP('',(#1864,#1865,#1866,#1867));
#1864 = ORIENTED_EDGE('',*,*,#1595,.F.);
#1865 = ORIENTED_EDGE('',*,*,#1671,.F.);
#1866 = ORIENTED_EDGE('',*,*,#1718,.F.);
#1867 = ORIENTED_EDGE('',*,*,#1005,.F.);
#1868 = ADVANCED_FACE('',(#1869),#1398,.F.);
#1869 = FACE_BOUND('',#1870,.F.);
#1870 = EDGE_LOOP('',(#1871,#1872,#1873,#1874));
#1871 = ORIENTED_EDGE('',*,*,#1794,.F.);
#1872 = ORIENTED_EDGE('',*,*,#1573,.F.);
#1873 = ORIENTED_EDGE('',*,*,#1384,.F.);
#1874 = ORIENTED_EDGE('',*,*,#1841,.F.);
#1875 = ADVANCED_FACE('',(#1876),#704,.F.);
#1876 = FACE_BOUND('',#1877,.F.);
#1877 = EDGE_LOOP('',(#1878,#1879,#1880,#1881,#1882,#1883,#1884,#1885,
    #1886));
#1878 = ORIENTED_EDGE('',*,*,#926,.T.);
#1879 = ORIENTED_EDGE('',*,*,#1501,.T.);
#1880 = ORIENTED_EDGE('',*,*,#1310,.T.);
#1881 = ORIENTED_EDGE('',*,*,#1239,.T.);
#1882 = ORIENTED_EDGE('',*,*,#1163,.T.);
#1883 = ORIENTED_EDGE('',*,*,#1087,.T.);
#1884 = ORIENTED_EDGE('',*,*,#688,.T.);
#1885 = ORIENTED_EDGE('',*,*,#774,.T.);
#1886 = ORIENTED_EDGE('',*,*,#850,.T.);
#1887 = ADVANCED_FACE('',(#1888),#965,.T.);
#1888 = FACE_BOUND('',#1889,.T.);
#1889 = EDGE_LOOP('',(#1890,#1891,#1892,#1893));
#1890 = ORIENTED_EDGE('',*,*,#1480,.F.);
#1891 = ORIENTED_EDGE('',*,*,#1649,.F.);
#1892 = ORIENTED_EDGE('',*,*,#1696,.F.);
#1893 = ORIENTED_EDGE('',*,*,#949,.F.);
#1894 = ADVANCED_FACE('',(#1895),#1371,.T.);
#1895 = FACE_BOUND('',#1896,.T.);
#1896 = EDGE_LOOP('',(#1897,#1898,#1899,#1900));
#1897 = ORIENTED_EDGE('',*,*,#1743,.F.);
#1898 = ORIENTED_EDGE('',*,*,#1522,.F.);
#1899 = ORIENTED_EDGE('',*,*,#1357,.F.);
#1900 = ORIENTED_EDGE('',*,*,#1819,.F.);
#1901 = ( GEOMETRIC_REPRESENTATION_CONTEXT(3) 
GLOBAL_UNCERTAINTY_ASSIGNED_CONTEXT((#1905)) 
GLOBAL_UNIT_ASSIGNED_CONTEXT((#1902,#1903,#1904)) REPRESENTATION_CONTEXT
('Context #1','3D Context with UNIT and UNCERTAINTY') );
#1902 = ( LENGTH_UNIT() NAMED_UNIT(*) SI_UNIT(.MILLI.,.METRE.) );
#1903 = ( NAMED_UNIT(*) PLANE_ANGLE_UNIT() SI_UNIT($,.RADIAN.) );
#1904 = ( NAMED_UNIT(*) SI_UNIT($,.STERADIAN.) SOLID_ANGLE_UNIT() );
#1905 = UNCERTAINTY_MEASURE_WITH_UNIT(LENGTH_MEASURE(1.E-007),#1902,
  'distance_accuracy_value','confusion accuracy');
#1906 = SHAPE_DEFINITION_REPRESENTATION(#1907,#646);
#1907 = PRODUCT_DEFINITION_SHAPE('','',#1908);
#1908 = PRODUCT_DEFINITION('design','',#1909,#1912);
#1909 = PRODUCT_DEFINITION_FORMATION('','',#1910);
#1910 = PRODUCT('Extruded','Extruded','',(#1911));
#1911 = PRODUCT_CONTEXT('',#2,'mechanical');
#1912 = PRODUCT_DEFINITION_CONTEXT('part definition',#2,'design');
#1913 = CONTEXT_DEPENDENT_SHAPE_REPRESENTATION(#1914,#1916);
#1914 = ( REPRESENTATION_RELATIONSHIP('','',#646,#636) 
REPRESENTATION_RELATIONSHIP_WITH_TRANSFORMATION(#1915) 
SHAPE_REPRESENTATION_RELATIONSHIP() );
#1915 = ITEM_DEFINED_TRANSFORMATION('','',#11,#637);
#1916 = PRODUCT_DEFINITION_SHAPE('Placement','Placement of an item',
  #1917);
#1917 = NEXT_ASSEMBLY_USAGE_OCCURRENCE('6','=>[0:1:1:2]','',#631,#1908,$
  );
#1918 = PRODUCT_RELATED_PRODUCT_CATEGORY('part',$,(#1910));
#1919 = CONTEXT_DEPENDENT_SHAPE_REPRESENTATION(#1920,#1922);
#1920 = ( REPRESENTATION_RELATIONSHIP('','',#636,#619) 
REPRESENTATION_RELATIONSHIP_WITH_TRANSFORMATION(#1921) 
SHAPE_REPRESENTATION_RELATIONSHIP() );
#1921 = ITEM_DEFINED_TRANSFORMATION('','',#11,#620);
#1922 = PRODUCT_DEFINITION_SHAPE('Placement','Placement of an item',
  #1923);
#1923 = NEXT_ASSEMBLY_USAGE_OCCURRENCE('7','=>[0:1:1:4]','',#614,#631,$
  );
#1924 = PRODUCT_RELATED_PRODUCT_CATEGORY('part',$,(#633));
#1925 = CONTEXT_DEPENDENT_SHAPE_REPRESENTATION(#1926,#1928);
#1926 = ( REPRESENTATION_RELATIONSHIP('','',#619,#10) 
REPRESENTATION_RELATIONSHIP_WITH_TRANSFORMATION(#1927) 
SHAPE_REPRESENTATION_RELATIONSHIP() );
#1927 = ITEM_DEFINED_TRANSFORMATION('','',#11,#19);
#1928 = PRODUCT_DEFINITION_SHAPE('Placement','Placement of an item',
  #1929);
#1929 = NEXT_ASSEMBLY_USAGE_OCCURRENCE('8','=>[0:1:1:3]','',#5,#614,$);
#1930 = PRODUCT_RELATED_PRODUCT_CATEGORY('part',$,(#616));
#1931 = MECHANICAL_DESIGN_GEOMETRIC_PRESENTATION_REPRESENTATION('',(
    #1932),#594);
#1932 = STYLED_ITEM('color',(#1933),#30);
#1933 = PRESENTATION_STYLE_ASSIGNMENT((#1934,#1940));
#1934 = SURFACE_STYLE_USAGE(.BOTH.,#1935);
#1935 = SURFACE_SIDE_STYLE('',(#1936));
#1936 = SURFACE_STYLE_FILL_AREA(#1937);
#1937 = FILL_AREA_STYLE('',(#1938));
#1938 = FILL_AREA_STYLE_COLOUR('',#1939);
#1939 = COLOUR_RGB('',0.E+000,0.501960813999,0.E+000);
#1940 = CURVE_STYLE('',#1941,POSITIVE_LENGTH_MEASURE(0.1),#1939);
#1941 = DRAUGHTING_PRE_DEFINED_CURVE_FONT('continuous');
#1942 = MECHANICAL_DESIGN_GEOMETRIC_PRESENTATION_REPRESENTATION('',(
    #1943),#1901);
#1943 = STYLED_ITEM('color',(#1944),#647);
#1944 = PRESENTATION_STYLE_ASSIGNMENT((#1945,#1950));
#1945 = SURFACE_STYLE_USAGE(.BOTH.,#1946);
#1946 = SURFACE_SIDE_STYLE('',(#1947));
#1947 = SURFACE_STYLE_FILL_AREA(#1948);
#1948 = FILL_AREA_STYLE('',(#1949));
#1949 = FILL_AREA_STYLE_COLOUR('',#1939);
#1950 = CURVE_STYLE('',#1951,POSITIVE_LENGTH_MEASURE(0.1),#1939);
#1951 = DRAUGHTING_PRE_DEFINED_CURVE_FONT('continuous');
ENDSEC;
END-ISO-10303-21;
