ISO-10303-21;
HEADER;
/* Generated by software containing ST-Developer
 * from STEP Tools, Inc. (www.steptools.com) 
 */

FILE_DESCRIPTION(
/* description */ ('Alibre Inc.'),
/* implementation_level */ '2;1');

FILE_NAME(
/* name */ 'export0',
/* time_stamp */ '2012-08-13T11:49:27-07:00',
/* author */ (''),
/* organization */ (''),
/* preprocessor_version */ 'ST-DEVELOPER v14',
/* originating_system */ 'Alibre',
/* authorisation */ '');

FILE_SCHEMA (('AUTOMOTIVE_DESIGN'));
ENDSEC;

DATA;
#10=CONTEXT_DEPENDENT_SHAPE_REPRESENTATION(#22,#94);
#11=CONTEXT_DEPENDENT_SHAPE_REPRESENTATION(#23,#95);
#12=CONTEXT_DEPENDENT_SHAPE_REPRESENTATION(#24,#96);
#13=CONTEXT_DEPENDENT_SHAPE_REPRESENTATION(#25,#97);
#14=NEXT_ASSEMBLY_USAGE_OCCURRENCE('NAUO_ID9','NAUO_NAME9',$,#100,#98,$);
#15=NEXT_ASSEMBLY_USAGE_OCCURRENCE('NAUO_ID19','NAUO_NAME19',$,#100,#98,
$);
#16=NEXT_ASSEMBLY_USAGE_OCCURRENCE('NAUO_ID29','NAUO_NAME29',$,#100,#99,
$);
#17=NEXT_ASSEMBLY_USAGE_OCCURRENCE('NAUO_ID39','NAUO_NAME39',$,#100,#98,
$);
#18=ITEM_DEFINED_TRANSFORMATION('ITD_NAME0',$,#612,#611);
#19=ITEM_DEFINED_TRANSFORMATION('ITD_NAME10',$,#614,#613);
#20=ITEM_DEFINED_TRANSFORMATION('ITD_NAME20',$,#616,#615);
#21=ITEM_DEFINED_TRANSFORMATION('ITD_NAME30',$,#618,#617);
#22=(
REPRESENTATION_RELATIONSHIP('User Library-SC-70_pin_TSSOP_tssop6_1',$,#115,
#117)
REPRESENTATION_RELATIONSHIP_WITH_TRANSFORMATION(#18)
SHAPE_REPRESENTATION_RELATIONSHIP()
);
#23=(
REPRESENTATION_RELATIONSHIP('User Library-SC-70_pin_TSSOP_tssop6_1',$,#115,
#117)
REPRESENTATION_RELATIONSHIP_WITH_TRANSFORMATION(#19)
SHAPE_REPRESENTATION_RELATIONSHIP()
);
#24=(
REPRESENTATION_RELATIONSHIP('User Library-SC-70_body_TSSOP-6_SC70_1',$,#116,
#117)
REPRESENTATION_RELATIONSHIP_WITH_TRANSFORMATION(#20)
SHAPE_REPRESENTATION_RELATIONSHIP()
);
#25=(
REPRESENTATION_RELATIONSHIP('User Library-SC-70_pin_TSSOP_tssop6_1',$,#115,
#117)
REPRESENTATION_RELATIONSHIP_WITH_TRANSFORMATION(#21)
SHAPE_REPRESENTATION_RELATIONSHIP()
);
#26=STYLED_ITEM('NAME_0',(#81),#905);
#27=STYLED_ITEM('NAME_0',(#82),#547);
#28=STYLED_ITEM('NAME_0',(#82),#548);
#29=STYLED_ITEM('NAME_0',(#82),#549);
#30=STYLED_ITEM('NAME_0',(#82),#550);
#31=STYLED_ITEM('NAME_0',(#82),#551);
#32=STYLED_ITEM('NAME_0',(#82),#552);
#33=STYLED_ITEM('NAME_0',(#82),#553);
#34=STYLED_ITEM('NAME_0',(#82),#554);
#35=STYLED_ITEM('NAME_0',(#82),#555);
#36=STYLED_ITEM('NAME_0',(#82),#556);
#37=STYLED_ITEM('NAME_0',(#82),#557);
#38=STYLED_ITEM('NAME_0',(#82),#558);
#39=STYLED_ITEM('NAME_0',(#82),#559);
#40=STYLED_ITEM('NAME_0',(#82),#560);
#41=STYLED_ITEM('NAME_0',(#83),#906);
#42=STYLED_ITEM('NAME_0',(#84),#561);
#43=STYLED_ITEM('NAME_0',(#84),#562);
#44=STYLED_ITEM('NAME_0',(#84),#563);
#45=STYLED_ITEM('NAME_0',(#84),#564);
#46=STYLED_ITEM('NAME_0',(#84),#565);
#47=STYLED_ITEM('NAME_0',(#84),#566);
#48=STYLED_ITEM('NAME_0',(#84),#567);
#49=STYLED_ITEM('NAME_0',(#84),#568);
#50=STYLED_ITEM('NAME_0',(#84),#569);
#51=STYLED_ITEM('NAME_0',(#84),#570);
#52=STYLED_ITEM('NAME_0',(#84),#571);
#53=STYLED_ITEM('NAME_0',(#84),#572);
#54=STYLED_ITEM('NAME_0',(#84),#573);
#55=STYLED_ITEM('NAME_0',(#84),#574);
#56=MECHANICAL_DESIGN_GEOMETRIC_PRESENTATION_REPRESENTATION('NAME_0',(#26,
#27,#28,#29,#30,#31,#32,#33,#34,#35,#36,#37,#38,#39,#40,#41,#42,#43,#44,
#45,#46,#47,#48,#49,#50,#51,#52,#53,#54,#55),#132);
#57=COLOUR_RGB('',0.,0.,0.);
#58=COLOUR_RGB('',0.764705882352941,0.764705882352941,0.764705882352941);
#59=COLOUR_RGB('',0.,0.,0.);
#60=COLOUR_RGB('',0.,0.,0.);
#61=FILL_AREA_STYLE_COLOUR('NAME_0',#57);
#62=FILL_AREA_STYLE_COLOUR('NAME_0',#58);
#63=FILL_AREA_STYLE_COLOUR('NAME_0',#59);
#64=FILL_AREA_STYLE_COLOUR('NAME_0',#60);
#65=FILL_AREA_STYLE('NAME_0',(#61));
#66=FILL_AREA_STYLE('NAME_0',(#62));
#67=FILL_AREA_STYLE('NAME_0',(#63));
#68=FILL_AREA_STYLE('NAME_0',(#64));
#69=SURFACE_STYLE_FILL_AREA(#65);
#70=SURFACE_STYLE_FILL_AREA(#66);
#71=SURFACE_STYLE_FILL_AREA(#67);
#72=SURFACE_STYLE_FILL_AREA(#68);
#73=SURFACE_SIDE_STYLE('NAME_0',(#69));
#74=SURFACE_SIDE_STYLE('NAME_0',(#70));
#75=SURFACE_SIDE_STYLE('NAME_0',(#71));
#76=SURFACE_SIDE_STYLE('NAME_0',(#72));
#77=SURFACE_STYLE_USAGE(.POSITIVE.,#73);
#78=SURFACE_STYLE_USAGE(.POSITIVE.,#74);
#79=SURFACE_STYLE_USAGE(.POSITIVE.,#75);
#80=SURFACE_STYLE_USAGE(.POSITIVE.,#76);
#81=PRESENTATION_STYLE_ASSIGNMENT((#77));
#82=PRESENTATION_STYLE_ASSIGNMENT((#78));
#83=PRESENTATION_STYLE_ASSIGNMENT((#79));
#84=PRESENTATION_STYLE_ASSIGNMENT((#80));
#85=PRODUCT_DEFINITION_CONTEXT('part definition',#108,'design');
#86=PRODUCT_DEFINITION_CONTEXT('part definition',#108,'design');
#87=PRODUCT_DEFINITION_CONTEXT('part definition',#108,'design');
#88=SHAPE_DEFINITION_REPRESENTATION(#91,#115);
#89=SHAPE_DEFINITION_REPRESENTATION(#92,#116);
#90=SHAPE_DEFINITION_REPRESENTATION(#93,#117);
#91=PRODUCT_DEFINITION_SHAPE('PRODUCT_VERSION_ID',
'PRODUCT_VERSION_DESCR',#98);
#92=PRODUCT_DEFINITION_SHAPE('PRODUCT_VERSION_ID',
'PRODUCT_VERSION_DESCR',#99);
#93=PRODUCT_DEFINITION_SHAPE('PRODUCT_VERSION_ID',
'PRODUCT_VERSION_DESCR',#100);
#94=PRODUCT_DEFINITION_SHAPE('NAME_10',$,#14);
#95=PRODUCT_DEFINITION_SHAPE('NAME_20',$,#15);
#96=PRODUCT_DEFINITION_SHAPE('NAME_30',$,#16);
#97=PRODUCT_DEFINITION_SHAPE('NAME_40',$,#17);
#98=PRODUCT_DEFINITION('User Library-SC-70_pin_TSSOP_tssop6_1',
'PRODUCT_VERSION_DESCR',#101,#85);
#99=PRODUCT_DEFINITION('User Library-SC-70_body_TSSOP-6_SC70_1',
'PRODUCT_VERSION_DESCR',#102,#86);
#100=PRODUCT_DEFINITION('PRODUCT_VERSION_ID','PRODUCT_VERSION_DESCR',#103,
#87);
#101=PRODUCT_DEFINITION_FORMATION_WITH_SPECIFIED_SOURCE(
'PRODUCT_VERSION_ID','PRODUCT_VERSION_DESCR',#112,.MADE.);
#102=PRODUCT_DEFINITION_FORMATION_WITH_SPECIFIED_SOURCE(
'PRODUCT_VERSION_ID','PRODUCT_VERSION_DESCR',#113,.MADE.);
#103=PRODUCT_DEFINITION_FORMATION_WITH_SPECIFIED_SOURCE(
'PRODUCT_VERSION_ID','PRODUCT_VERSION_DESCR',#114,.MADE.);
#104=PRODUCT_RELATED_PRODUCT_CATEGORY('part','part',(#112));
#105=PRODUCT_RELATED_PRODUCT_CATEGORY('part','part',(#113));
#106=PRODUCT_RELATED_PRODUCT_CATEGORY('part','part',(#114));
#107=APPLICATION_PROTOCOL_DEFINITION('Draft International Standard',
'automotive_design',1994,#108);
#108=APPLICATION_CONTEXT('automotive_Design');
#109=PRODUCT_CONTEXT('3D Mechanical Parts',#108,'mechanical');
#110=PRODUCT_CONTEXT('3D Mechanical Parts',#108,'mechanical');
#111=PRODUCT_CONTEXT('3D Mechanical Parts',#108,'mechanical');
#112=PRODUCT('','User Library-SC-70_pin_TSSOP_tssop6_1','',(#109));
#113=PRODUCT('','User Library-SC-70_body_TSSOP-6_SC70_1','',(#110));
#114=PRODUCT('','SC-70','',(#111));
#115=SHAPE_REPRESENTATION('User Library-SC-70_pin_TSSOP_tssop6_1',(#612,
#614,#618),#132);
#116=SHAPE_REPRESENTATION('User Library-SC-70_body_TSSOP-6_SC70_1',(#616),
#133);
#117=SHAPE_REPRESENTATION('NAME_0',(#611,#613,#615,#617),#134);
#118=SHAPE_REPRESENTATION_RELATIONSHIP('NAME_0',$,#115,#907);
#119=SHAPE_REPRESENTATION_RELATIONSHIP('NAME_0',$,#116,#908);
#120=(
LENGTH_UNIT()
NAMED_UNIT(*)
SI_UNIT(.MILLI.,.METRE.)
);
#121=(
LENGTH_UNIT()
NAMED_UNIT(*)
SI_UNIT(.MILLI.,.METRE.)
);
#122=(
LENGTH_UNIT()
NAMED_UNIT(*)
SI_UNIT(.MILLI.,.METRE.)
);
#123=(
NAMED_UNIT(*)
PLANE_ANGLE_UNIT()
SI_UNIT($,.RADIAN.)
);
#124=(
NAMED_UNIT(*)
PLANE_ANGLE_UNIT()
SI_UNIT($,.RADIAN.)
);
#125=(
NAMED_UNIT(*)
PLANE_ANGLE_UNIT()
SI_UNIT($,.RADIAN.)
);
#126=(
NAMED_UNIT(*)
SI_UNIT($,.STERADIAN.)
SOLID_ANGLE_UNIT()
);
#127=(
NAMED_UNIT(*)
SI_UNIT($,.STERADIAN.)
SOLID_ANGLE_UNIT()
);
#128=(
NAMED_UNIT(*)
SI_UNIT($,.STERADIAN.)
SOLID_ANGLE_UNIT()
);
#129=UNCERTAINTY_MEASURE_WITH_UNIT(LENGTH_MEASURE(1.E-006),#120,
'DISTANCE_ACCURACY_VALUE',
'Maximum model space distance between geometric entities at asserted co
nnectivities');
#130=UNCERTAINTY_MEASURE_WITH_UNIT(LENGTH_MEASURE(1.E-006),#121,
'DISTANCE_ACCURACY_VALUE',
'Maximum model space distance between geometric entities at asserted co
nnectivities');
#131=UNCERTAINTY_MEASURE_WITH_UNIT(LENGTH_MEASURE(1.E-006),#122,
'DISTANCE_ACCURACY_VALUE',
'Maximum model space distance between geometric entities at asserted co
nnectivities');
#132=(
GEOMETRIC_REPRESENTATION_CONTEXT(3)
GLOBAL_UNCERTAINTY_ASSIGNED_CONTEXT((#129))
GLOBAL_UNIT_ASSIGNED_CONTEXT((#126,#123,#120))
REPRESENTATION_CONTEXT('ID1','3D')
);
#133=(
GEOMETRIC_REPRESENTATION_CONTEXT(3)
GLOBAL_UNCERTAINTY_ASSIGNED_CONTEXT((#130))
GLOBAL_UNIT_ASSIGNED_CONTEXT((#127,#124,#121))
REPRESENTATION_CONTEXT('ID1','3D')
);
#134=(
GEOMETRIC_REPRESENTATION_CONTEXT(3)
GLOBAL_UNCERTAINTY_ASSIGNED_CONTEXT((#131))
GLOBAL_UNIT_ASSIGNED_CONTEXT((#128,#125,#122))
REPRESENTATION_CONTEXT('ID1','3D')
);
#135=CYLINDRICAL_SURFACE('',#581,0.16);
#136=CYLINDRICAL_SURFACE('',#587,0.04);
#137=CYLINDRICAL_SURFACE('',#592,0.04);
#138=CYLINDRICAL_SURFACE('',#594,0.16);
#139=CIRCLE('',#577,0.04);
#140=CIRCLE('',#578,0.16);
#141=CIRCLE('',#579,0.04);
#142=CIRCLE('',#580,0.16);
#143=CIRCLE('',#582,0.16);
#144=CIRCLE('',#584,0.04);
#145=CIRCLE('',#585,0.16);
#146=CIRCLE('',#586,0.04);
#147=VERTEX_POINT('',#741);
#148=VERTEX_POINT('',#742);
#149=VERTEX_POINT('',#744);
#150=VERTEX_POINT('',#746);
#151=VERTEX_POINT('',#750);
#152=VERTEX_POINT('',#752);
#153=VERTEX_POINT('',#754);
#154=VERTEX_POINT('',#756);
#155=VERTEX_POINT('',#758);
#156=VERTEX_POINT('',#760);
#157=VERTEX_POINT('',#762);
#158=VERTEX_POINT('',#764);
#159=VERTEX_POINT('',#766);
#160=VERTEX_POINT('',#768);
#161=VERTEX_POINT('',#772);
#162=VERTEX_POINT('',#776);
#163=VERTEX_POINT('',#778);
#164=VERTEX_POINT('',#780);
#165=VERTEX_POINT('',#782);
#166=VERTEX_POINT('',#784);
#167=VERTEX_POINT('',#786);
#168=VERTEX_POINT('',#788);
#169=VERTEX_POINT('',#790);
#170=VERTEX_POINT('',#792);
#171=VERTEX_POINT('',#815);
#172=VERTEX_POINT('',#816);
#173=VERTEX_POINT('',#818);
#174=VERTEX_POINT('',#820);
#175=VERTEX_POINT('',#824);
#176=VERTEX_POINT('',#825);
#177=VERTEX_POINT('',#830);
#178=VERTEX_POINT('',#834);
#179=VERTEX_POINT('',#840);
#180=VERTEX_POINT('',#842);
#181=VERTEX_POINT('',#846);
#182=VERTEX_POINT('',#850);
#183=VERTEX_POINT('',#856);
#184=VERTEX_POINT('',#858);
#185=VERTEX_POINT('',#862);
#186=VERTEX_POINT('',#866);
#187=VECTOR('',#620,1.);
#188=VECTOR('',#621,1.);
#189=VECTOR('',#622,1.);
#190=VECTOR('',#623,1.);
#191=VECTOR('',#629,1.);
#192=VECTOR('',#630,1.);
#193=VECTOR('',#631,1.);
#194=VECTOR('',#634,1.);
#195=VECTOR('',#637,1.);
#196=VECTOR('',#638,1.);
#197=VECTOR('',#639,1.);
#198=VECTOR('',#642,1.);
#199=VECTOR('',#648,1.);
#200=VECTOR('',#649,1.);
#201=VECTOR('',#650,1.);
#202=VECTOR('',#653,1.);
#203=VECTOR('',#656,1.);
#204=VECTOR('',#657,1.);
#205=VECTOR('',#658,1.);
#206=VECTOR('',#661,1.);
#207=VECTOR('',#663,1.);
#208=VECTOR('',#665,1.);
#209=VECTOR('',#667,1.);
#210=VECTOR('',#669,1.);
#211=VECTOR('',#672,1.);
#212=VECTOR('',#674,1.);
#213=VECTOR('',#677,1.);
#214=VECTOR('',#679,1.);
#215=VECTOR('',#682,1.);
#216=VECTOR('',#683,1.);
#217=VECTOR('',#684,1.);
#218=VECTOR('',#685,1.);
#219=VECTOR('',#687,1.);
#220=VECTOR('',#688,1.);
#221=VECTOR('',#689,1.);
#222=VECTOR('',#691,1.);
#223=VECTOR('',#692,1.);
#224=VECTOR('',#694,1.);
#225=VECTOR('',#695,1.);
#226=VECTOR('',#697,1.);
#227=VECTOR('',#699,1.);
#228=VECTOR('',#700,1.);
#229=VECTOR('',#701,1.);
#230=VECTOR('',#703,1.);
#231=VECTOR('',#704,1.);
#232=VECTOR('',#706,1.);
#233=VECTOR('',#707,1.);
#234=VECTOR('',#709,1.);
#235=VECTOR('',#711,1.);
#236=VECTOR('',#712,1.);
#237=VECTOR('',#713,1.);
#238=VECTOR('',#715,1.);
#239=VECTOR('',#716,1.);
#240=VECTOR('',#718,1.);
#241=VECTOR('',#719,1.);
#242=VECTOR('',#721,1.);
#243=LINE('',#740,#187);
#244=LINE('',#743,#188);
#245=LINE('',#745,#189);
#246=LINE('',#747,#190);
#247=LINE('',#753,#191);
#248=LINE('',#755,#192);
#249=LINE('',#757,#193);
#250=LINE('',#761,#194);
#251=LINE('',#765,#195);
#252=LINE('',#767,#196);
#253=LINE('',#769,#197);
#254=LINE('',#771,#198);
#255=LINE('',#777,#199);
#256=LINE('',#779,#200);
#257=LINE('',#781,#201);
#258=LINE('',#785,#202);
#259=LINE('',#789,#203);
#260=LINE('',#791,#204);
#261=LINE('',#793,#205);
#262=LINE('',#795,#206);
#263=LINE('',#797,#207);
#264=LINE('',#799,#208);
#265=LINE('',#801,#209);
#266=LINE('',#803,#210);
#267=LINE('',#805,#211);
#268=LINE('',#807,#212);
#269=LINE('',#809,#213);
#270=LINE('',#811,#214);
#271=LINE('',#814,#215);
#272=LINE('',#817,#216);
#273=LINE('',#819,#217);
#274=LINE('',#821,#218);
#275=LINE('',#823,#219);
#276=LINE('',#826,#220);
#277=LINE('',#827,#221);
#278=LINE('',#829,#222);
#279=LINE('',#831,#223);
#280=LINE('',#833,#224);
#281=LINE('',#835,#225);
#282=LINE('',#837,#226);
#283=LINE('',#839,#227);
#284=LINE('',#841,#228);
#285=LINE('',#843,#229);
#286=LINE('',#845,#230);
#287=LINE('',#847,#231);
#288=LINE('',#849,#232);
#289=LINE('',#851,#233);
#290=LINE('',#853,#234);
#291=LINE('',#855,#235);
#292=LINE('',#857,#236);
#293=LINE('',#859,#237);
#294=LINE('',#861,#238);
#295=LINE('',#863,#239);
#296=LINE('',#865,#240);
#297=LINE('',#867,#241);
#298=LINE('',#869,#242);
#299=EDGE_CURVE('',#147,#148,#243,.T.);
#300=EDGE_CURVE('',#148,#149,#244,.T.);
#301=EDGE_CURVE('',#149,#150,#245,.T.);
#302=EDGE_CURVE('',#150,#147,#246,.T.);
#303=EDGE_CURVE('',#149,#151,#139,.T.);
#304=EDGE_CURVE('',#152,#148,#140,.T.);
#305=EDGE_CURVE('',#153,#152,#247,.T.);
#306=EDGE_CURVE('',#154,#153,#248,.T.);
#307=EDGE_CURVE('',#155,#154,#249,.T.);
#308=EDGE_CURVE('',#156,#155,#141,.T.);
#309=EDGE_CURVE('',#157,#156,#250,.T.);
#310=EDGE_CURVE('',#158,#157,#142,.T.);
#311=EDGE_CURVE('',#159,#158,#251,.T.);
#312=EDGE_CURVE('',#160,#159,#252,.T.);
#313=EDGE_CURVE('',#151,#160,#253,.T.);
#314=EDGE_CURVE('',#161,#152,#254,.T.);
#315=EDGE_CURVE('',#147,#161,#143,.T.);
#316=EDGE_CURVE('',#150,#162,#144,.T.);
#317=EDGE_CURVE('',#162,#163,#255,.T.);
#318=EDGE_CURVE('',#163,#164,#256,.T.);
#319=EDGE_CURVE('',#164,#165,#257,.T.);
#320=EDGE_CURVE('',#165,#166,#145,.T.);
#321=EDGE_CURVE('',#166,#167,#258,.T.);
#322=EDGE_CURVE('',#167,#168,#146,.T.);
#323=EDGE_CURVE('',#168,#169,#259,.T.);
#324=EDGE_CURVE('',#169,#170,#260,.T.);
#325=EDGE_CURVE('',#170,#161,#261,.T.);
#326=EDGE_CURVE('',#162,#151,#262,.T.);
#327=EDGE_CURVE('',#160,#163,#263,.T.);
#328=EDGE_CURVE('',#170,#153,#264,.T.);
#329=EDGE_CURVE('',#154,#169,#265,.T.);
#330=EDGE_CURVE('',#155,#168,#266,.T.);
#331=EDGE_CURVE('',#156,#167,#267,.T.);
#332=EDGE_CURVE('',#157,#166,#268,.T.);
#333=EDGE_CURVE('',#165,#158,#269,.T.);
#334=EDGE_CURVE('',#159,#164,#270,.T.);
#335=EDGE_CURVE('',#171,#172,#271,.T.);
#336=EDGE_CURVE('',#172,#173,#272,.T.);
#337=EDGE_CURVE('',#173,#174,#273,.T.);
#338=EDGE_CURVE('',#174,#171,#274,.T.);
#339=EDGE_CURVE('',#175,#176,#275,.T.);
#340=EDGE_CURVE('',#173,#175,#276,.T.);
#341=EDGE_CURVE('',#176,#172,#277,.T.);
#342=EDGE_CURVE('',#177,#171,#278,.T.);
#343=EDGE_CURVE('',#176,#177,#279,.T.);
#344=EDGE_CURVE('',#177,#178,#280,.T.);
#345=EDGE_CURVE('',#178,#174,#281,.T.);
#346=EDGE_CURVE('',#178,#175,#282,.T.);
#347=EDGE_CURVE('',#179,#175,#283,.T.);
#348=EDGE_CURVE('',#176,#180,#284,.T.);
#349=EDGE_CURVE('',#180,#179,#285,.T.);
#350=EDGE_CURVE('',#177,#181,#286,.T.);
#351=EDGE_CURVE('',#181,#180,#287,.T.);
#352=EDGE_CURVE('',#178,#182,#288,.T.);
#353=EDGE_CURVE('',#182,#181,#289,.T.);
#354=EDGE_CURVE('',#179,#182,#290,.T.);
#355=EDGE_CURVE('',#183,#179,#291,.T.);
#356=EDGE_CURVE('',#180,#184,#292,.T.);
#357=EDGE_CURVE('',#184,#183,#293,.T.);
#358=EDGE_CURVE('',#181,#185,#294,.T.);
#359=EDGE_CURVE('',#185,#184,#295,.T.);
#360=EDGE_CURVE('',#182,#186,#296,.T.);
#361=EDGE_CURVE('',#186,#185,#297,.T.);
#362=EDGE_CURVE('',#183,#186,#298,.T.);
#363=ORIENTED_EDGE('',*,*,#299,.T.);
#364=ORIENTED_EDGE('',*,*,#300,.T.);
#365=ORIENTED_EDGE('',*,*,#301,.T.);
#366=ORIENTED_EDGE('',*,*,#302,.T.);
#367=ORIENTED_EDGE('',*,*,#303,.F.);
#368=ORIENTED_EDGE('',*,*,#300,.F.);
#369=ORIENTED_EDGE('',*,*,#304,.F.);
#370=ORIENTED_EDGE('',*,*,#305,.F.);
#371=ORIENTED_EDGE('',*,*,#306,.F.);
#372=ORIENTED_EDGE('',*,*,#307,.F.);
#373=ORIENTED_EDGE('',*,*,#308,.F.);
#374=ORIENTED_EDGE('',*,*,#309,.F.);
#375=ORIENTED_EDGE('',*,*,#310,.F.);
#376=ORIENTED_EDGE('',*,*,#311,.F.);
#377=ORIENTED_EDGE('',*,*,#312,.F.);
#378=ORIENTED_EDGE('',*,*,#313,.F.);
#379=ORIENTED_EDGE('',*,*,#314,.T.);
#380=ORIENTED_EDGE('',*,*,#304,.T.);
#381=ORIENTED_EDGE('',*,*,#299,.F.);
#382=ORIENTED_EDGE('',*,*,#315,.T.);
#383=ORIENTED_EDGE('',*,*,#302,.F.);
#384=ORIENTED_EDGE('',*,*,#316,.T.);
#385=ORIENTED_EDGE('',*,*,#317,.T.);
#386=ORIENTED_EDGE('',*,*,#318,.T.);
#387=ORIENTED_EDGE('',*,*,#319,.T.);
#388=ORIENTED_EDGE('',*,*,#320,.T.);
#389=ORIENTED_EDGE('',*,*,#321,.T.);
#390=ORIENTED_EDGE('',*,*,#322,.T.);
#391=ORIENTED_EDGE('',*,*,#323,.T.);
#392=ORIENTED_EDGE('',*,*,#324,.T.);
#393=ORIENTED_EDGE('',*,*,#325,.T.);
#394=ORIENTED_EDGE('',*,*,#315,.F.);
#395=ORIENTED_EDGE('',*,*,#316,.F.);
#396=ORIENTED_EDGE('',*,*,#301,.F.);
#397=ORIENTED_EDGE('',*,*,#303,.T.);
#398=ORIENTED_EDGE('',*,*,#326,.F.);
#399=ORIENTED_EDGE('',*,*,#326,.T.);
#400=ORIENTED_EDGE('',*,*,#313,.T.);
#401=ORIENTED_EDGE('',*,*,#327,.T.);
#402=ORIENTED_EDGE('',*,*,#317,.F.);
#403=ORIENTED_EDGE('',*,*,#328,.T.);
#404=ORIENTED_EDGE('',*,*,#305,.T.);
#405=ORIENTED_EDGE('',*,*,#314,.F.);
#406=ORIENTED_EDGE('',*,*,#325,.F.);
#407=ORIENTED_EDGE('',*,*,#324,.F.);
#408=ORIENTED_EDGE('',*,*,#329,.F.);
#409=ORIENTED_EDGE('',*,*,#306,.T.);
#410=ORIENTED_EDGE('',*,*,#328,.F.);
#411=ORIENTED_EDGE('',*,*,#323,.F.);
#412=ORIENTED_EDGE('',*,*,#330,.F.);
#413=ORIENTED_EDGE('',*,*,#307,.T.);
#414=ORIENTED_EDGE('',*,*,#329,.T.);
#415=ORIENTED_EDGE('',*,*,#322,.F.);
#416=ORIENTED_EDGE('',*,*,#331,.F.);
#417=ORIENTED_EDGE('',*,*,#308,.T.);
#418=ORIENTED_EDGE('',*,*,#330,.T.);
#419=ORIENTED_EDGE('',*,*,#321,.F.);
#420=ORIENTED_EDGE('',*,*,#332,.F.);
#421=ORIENTED_EDGE('',*,*,#309,.T.);
#422=ORIENTED_EDGE('',*,*,#331,.T.);
#423=ORIENTED_EDGE('',*,*,#333,.T.);
#424=ORIENTED_EDGE('',*,*,#310,.T.);
#425=ORIENTED_EDGE('',*,*,#332,.T.);
#426=ORIENTED_EDGE('',*,*,#320,.F.);
#427=ORIENTED_EDGE('',*,*,#319,.F.);
#428=ORIENTED_EDGE('',*,*,#334,.F.);
#429=ORIENTED_EDGE('',*,*,#311,.T.);
#430=ORIENTED_EDGE('',*,*,#333,.F.);
#431=ORIENTED_EDGE('',*,*,#318,.F.);
#432=ORIENTED_EDGE('',*,*,#327,.F.);
#433=ORIENTED_EDGE('',*,*,#312,.T.);
#434=ORIENTED_EDGE('',*,*,#334,.T.);
#435=ORIENTED_EDGE('',*,*,#335,.T.);
#436=ORIENTED_EDGE('',*,*,#336,.T.);
#437=ORIENTED_EDGE('',*,*,#337,.T.);
#438=ORIENTED_EDGE('',*,*,#338,.T.);
#439=ORIENTED_EDGE('',*,*,#339,.F.);
#440=ORIENTED_EDGE('',*,*,#340,.F.);
#441=ORIENTED_EDGE('',*,*,#336,.F.);
#442=ORIENTED_EDGE('',*,*,#341,.F.);
#443=ORIENTED_EDGE('',*,*,#335,.F.);
#444=ORIENTED_EDGE('',*,*,#342,.F.);
#445=ORIENTED_EDGE('',*,*,#343,.F.);
#446=ORIENTED_EDGE('',*,*,#341,.T.);
#447=ORIENTED_EDGE('',*,*,#344,.F.);
#448=ORIENTED_EDGE('',*,*,#342,.T.);
#449=ORIENTED_EDGE('',*,*,#338,.F.);
#450=ORIENTED_EDGE('',*,*,#345,.F.);
#451=ORIENTED_EDGE('',*,*,#346,.F.);
#452=ORIENTED_EDGE('',*,*,#345,.T.);
#453=ORIENTED_EDGE('',*,*,#337,.F.);
#454=ORIENTED_EDGE('',*,*,#340,.T.);
#455=ORIENTED_EDGE('',*,*,#347,.T.);
#456=ORIENTED_EDGE('',*,*,#339,.T.);
#457=ORIENTED_EDGE('',*,*,#348,.T.);
#458=ORIENTED_EDGE('',*,*,#349,.T.);
#459=ORIENTED_EDGE('',*,*,#348,.F.);
#460=ORIENTED_EDGE('',*,*,#343,.T.);
#461=ORIENTED_EDGE('',*,*,#350,.T.);
#462=ORIENTED_EDGE('',*,*,#351,.T.);
#463=ORIENTED_EDGE('',*,*,#350,.F.);
#464=ORIENTED_EDGE('',*,*,#344,.T.);
#465=ORIENTED_EDGE('',*,*,#352,.T.);
#466=ORIENTED_EDGE('',*,*,#353,.T.);
#467=ORIENTED_EDGE('',*,*,#352,.F.);
#468=ORIENTED_EDGE('',*,*,#346,.T.);
#469=ORIENTED_EDGE('',*,*,#347,.F.);
#470=ORIENTED_EDGE('',*,*,#354,.T.);
#471=ORIENTED_EDGE('',*,*,#355,.T.);
#472=ORIENTED_EDGE('',*,*,#349,.F.);
#473=ORIENTED_EDGE('',*,*,#356,.T.);
#474=ORIENTED_EDGE('',*,*,#357,.T.);
#475=ORIENTED_EDGE('',*,*,#358,.T.);
#476=ORIENTED_EDGE('',*,*,#359,.T.);
#477=ORIENTED_EDGE('',*,*,#356,.F.);
#478=ORIENTED_EDGE('',*,*,#351,.F.);
#479=ORIENTED_EDGE('',*,*,#358,.F.);
#480=ORIENTED_EDGE('',*,*,#353,.F.);
#481=ORIENTED_EDGE('',*,*,#360,.T.);
#482=ORIENTED_EDGE('',*,*,#361,.T.);
#483=ORIENTED_EDGE('',*,*,#360,.F.);
#484=ORIENTED_EDGE('',*,*,#354,.F.);
#485=ORIENTED_EDGE('',*,*,#355,.F.);
#486=ORIENTED_EDGE('',*,*,#362,.T.);
#487=ORIENTED_EDGE('',*,*,#361,.F.);
#488=ORIENTED_EDGE('',*,*,#362,.F.);
#489=ORIENTED_EDGE('',*,*,#357,.F.);
#490=ORIENTED_EDGE('',*,*,#359,.F.);
#491=EDGE_LOOP('',(#363,#364,#365,#366));
#492=EDGE_LOOP('',(#367,#368,#369,#370,#371,#372,#373,#374,#375,#376,#377,
#378));
#493=EDGE_LOOP('',(#379,#380,#381,#382));
#494=EDGE_LOOP('',(#383,#384,#385,#386,#387,#388,#389,#390,#391,#392,#393,
#394));
#495=EDGE_LOOP('',(#395,#396,#397,#398));
#496=EDGE_LOOP('',(#399,#400,#401,#402));
#497=EDGE_LOOP('',(#403,#404,#405,#406));
#498=EDGE_LOOP('',(#407,#408,#409,#410));
#499=EDGE_LOOP('',(#411,#412,#413,#414));
#500=EDGE_LOOP('',(#415,#416,#417,#418));
#501=EDGE_LOOP('',(#419,#420,#421,#422));
#502=EDGE_LOOP('',(#423,#424,#425,#426));
#503=EDGE_LOOP('',(#427,#428,#429,#430));
#504=EDGE_LOOP('',(#431,#432,#433,#434));
#505=EDGE_LOOP('',(#435,#436,#437,#438));
#506=EDGE_LOOP('',(#439,#440,#441,#442));
#507=EDGE_LOOP('',(#443,#444,#445,#446));
#508=EDGE_LOOP('',(#447,#448,#449,#450));
#509=EDGE_LOOP('',(#451,#452,#453,#454));
#510=EDGE_LOOP('',(#455,#456,#457,#458));
#511=EDGE_LOOP('',(#459,#460,#461,#462));
#512=EDGE_LOOP('',(#463,#464,#465,#466));
#513=EDGE_LOOP('',(#467,#468,#469,#470));
#514=EDGE_LOOP('',(#471,#472,#473,#474));
#515=EDGE_LOOP('',(#475,#476,#477,#478));
#516=EDGE_LOOP('',(#479,#480,#481,#482));
#517=EDGE_LOOP('',(#483,#484,#485,#486));
#518=EDGE_LOOP('',(#487,#488,#489,#490));
#519=FACE_BOUND('',#491,.T.);
#520=FACE_BOUND('',#492,.T.);
#521=FACE_BOUND('',#493,.T.);
#522=FACE_BOUND('',#494,.T.);
#523=FACE_BOUND('',#495,.T.);
#524=FACE_BOUND('',#496,.T.);
#525=FACE_BOUND('',#497,.T.);
#526=FACE_BOUND('',#498,.T.);
#527=FACE_BOUND('',#499,.T.);
#528=FACE_BOUND('',#500,.T.);
#529=FACE_BOUND('',#501,.T.);
#530=FACE_BOUND('',#502,.T.);
#531=FACE_BOUND('',#503,.T.);
#532=FACE_BOUND('',#504,.T.);
#533=FACE_BOUND('',#505,.T.);
#534=FACE_BOUND('',#506,.T.);
#535=FACE_BOUND('',#507,.T.);
#536=FACE_BOUND('',#508,.T.);
#537=FACE_BOUND('',#509,.T.);
#538=FACE_BOUND('',#510,.T.);
#539=FACE_BOUND('',#511,.T.);
#540=FACE_BOUND('',#512,.T.);
#541=FACE_BOUND('',#513,.T.);
#542=FACE_BOUND('',#514,.T.);
#543=FACE_BOUND('',#515,.T.);
#544=FACE_BOUND('',#516,.T.);
#545=FACE_BOUND('',#517,.T.);
#546=FACE_BOUND('',#518,.T.);
#547=ADVANCED_FACE('',(#519),#879,.T.);
#548=ADVANCED_FACE('',(#520),#880,.F.);
#549=ADVANCED_FACE('',(#521),#135,.T.);
#550=ADVANCED_FACE('',(#522),#881,.T.);
#551=ADVANCED_FACE('',(#523),#136,.F.);
#552=ADVANCED_FACE('',(#524),#882,.T.);
#553=ADVANCED_FACE('',(#525),#883,.T.);
#554=ADVANCED_FACE('',(#526),#884,.F.);
#555=ADVANCED_FACE('',(#527),#885,.F.);
#556=ADVANCED_FACE('',(#528),#137,.F.);
#557=ADVANCED_FACE('',(#529),#886,.F.);
#558=ADVANCED_FACE('',(#530),#138,.T.);
#559=ADVANCED_FACE('',(#531),#887,.F.);
#560=ADVANCED_FACE('',(#532),#888,.F.);
#561=ADVANCED_FACE('',(#533),#889,.T.);
#562=ADVANCED_FACE('',(#534),#890,.F.);
#563=ADVANCED_FACE('',(#535),#891,.F.);
#564=ADVANCED_FACE('',(#536),#892,.F.);
#565=ADVANCED_FACE('',(#537),#893,.F.);
#566=ADVANCED_FACE('',(#538),#894,.T.);
#567=ADVANCED_FACE('',(#539),#895,.T.);
#568=ADVANCED_FACE('',(#540),#896,.T.);
#569=ADVANCED_FACE('',(#541),#897,.T.);
#570=ADVANCED_FACE('',(#542),#898,.T.);
#571=ADVANCED_FACE('',(#543),#899,.T.);
#572=ADVANCED_FACE('',(#544),#900,.T.);
#573=ADVANCED_FACE('',(#545),#901,.T.);
#574=ADVANCED_FACE('',(#546),#902,.F.);
#575=AXIS2_PLACEMENT_3D('',#739,#619,$);
#576=AXIS2_PLACEMENT_3D('',#748,#624,$);
#577=AXIS2_PLACEMENT_3D('',#749,#625,#626);
#578=AXIS2_PLACEMENT_3D('',#751,#627,#628);
#579=AXIS2_PLACEMENT_3D('',#759,#632,#633);
#580=AXIS2_PLACEMENT_3D('',#763,#635,#636);
#581=AXIS2_PLACEMENT_3D('',#770,#640,#641);
#582=AXIS2_PLACEMENT_3D('',#773,#643,#644);
#583=AXIS2_PLACEMENT_3D('',#774,#645,$);
#584=AXIS2_PLACEMENT_3D('',#775,#646,#647);
#585=AXIS2_PLACEMENT_3D('',#783,#651,#652);
#586=AXIS2_PLACEMENT_3D('',#787,#654,#655);
#587=AXIS2_PLACEMENT_3D('',#794,#659,#660);
#588=AXIS2_PLACEMENT_3D('',#796,#662,$);
#589=AXIS2_PLACEMENT_3D('',#798,#664,$);
#590=AXIS2_PLACEMENT_3D('',#800,#666,$);
#591=AXIS2_PLACEMENT_3D('',#802,#668,$);
#592=AXIS2_PLACEMENT_3D('',#804,#670,#671);
#593=AXIS2_PLACEMENT_3D('',#806,#673,$);
#594=AXIS2_PLACEMENT_3D('',#808,#675,#676);
#595=AXIS2_PLACEMENT_3D('',#810,#678,$);
#596=AXIS2_PLACEMENT_3D('',#812,#680,$);
#597=AXIS2_PLACEMENT_3D('',#813,#681,$);
#598=AXIS2_PLACEMENT_3D('',#822,#686,$);
#599=AXIS2_PLACEMENT_3D('',#828,#690,$);
#600=AXIS2_PLACEMENT_3D('',#832,#693,$);
#601=AXIS2_PLACEMENT_3D('',#836,#696,$);
#602=AXIS2_PLACEMENT_3D('',#838,#698,$);
#603=AXIS2_PLACEMENT_3D('',#844,#702,$);
#604=AXIS2_PLACEMENT_3D('',#848,#705,$);
#605=AXIS2_PLACEMENT_3D('',#852,#708,$);
#606=AXIS2_PLACEMENT_3D('',#854,#710,$);
#607=AXIS2_PLACEMENT_3D('',#860,#714,$);
#608=AXIS2_PLACEMENT_3D('',#864,#717,$);
#609=AXIS2_PLACEMENT_3D('',#868,#720,$);
#610=AXIS2_PLACEMENT_3D('',#870,#722,$);
#611=AXIS2_PLACEMENT_3D('AXIS_PLACEMENT_1',#871,#723,#724);
#612=AXIS2_PLACEMENT_3D('AXIS_PLACEMENT_5',#872,#725,#726);
#613=AXIS2_PLACEMENT_3D('AXIS_PLACEMENT_11',#873,#727,#728);
#614=AXIS2_PLACEMENT_3D('AXIS_PLACEMENT_15',#874,#729,#730);
#615=AXIS2_PLACEMENT_3D('AXIS_PLACEMENT_21',#875,#731,#732);
#616=AXIS2_PLACEMENT_3D('AXIS_PLACEMENT_25',#876,#733,#734);
#617=AXIS2_PLACEMENT_3D('AXIS_PLACEMENT_31',#877,#735,#736);
#618=AXIS2_PLACEMENT_3D('AXIS_PLACEMENT_35',#878,#737,#738);
#619=DIRECTION('',(0.,-0.0976122603564219,-0.995224520712844));
#620=DIRECTION('',(-1.,0.,0.));
#621=DIRECTION('',(0.,0.995224520712844,-0.0976122603564219));
#622=DIRECTION('',(1.,0.,0.));
#623=DIRECTION('',(0.,-0.995224520712844,0.0976122603564219));
#624=DIRECTION('',(1.,0.,0.));
#625=DIRECTION('',(-1.,0.,0.));
#626=DIRECTION('',(0.,0.,-0.04));
#627=DIRECTION('',(1.,0.,0.));
#628=DIRECTION('',(0.,0.,-0.16));
#629=DIRECTION('',(0.,0.,-1.));
#630=DIRECTION('',(0.,-1.,0.));
#631=DIRECTION('',(0.,0.,1.));
#632=DIRECTION('',(-1.,0.,0.));
#633=DIRECTION('',(0.,0.,-0.04));
#634=DIRECTION('',(0.,-0.995224520712844,0.0976122603564219));
#635=DIRECTION('',(1.,0.,0.));
#636=DIRECTION('',(0.,0.,-0.16));
#637=DIRECTION('',(0.,0.,1.));
#638=DIRECTION('',(0.,1.,0.));
#639=DIRECTION('',(0.,0.,-1.));
#640=DIRECTION('',(1.,0.,0.));
#641=DIRECTION('',(0.,0.,-0.16));
#642=DIRECTION('',(-1.,0.,0.));
#643=DIRECTION('',(-1.,0.,0.));
#644=DIRECTION('',(0.,0.,-0.16));
#645=DIRECTION('',(1.,0.,0.));
#646=DIRECTION('',(-1.,0.,0.));
#647=DIRECTION('',(0.,0.,-0.04));
#648=DIRECTION('',(0.,0.,-1.));
#649=DIRECTION('',(0.,1.,0.));
#650=DIRECTION('',(0.,0.,1.));
#651=DIRECTION('',(1.,0.,0.));
#652=DIRECTION('',(0.,0.,-0.16));
#653=DIRECTION('',(0.,-0.995224520712844,0.0976122603564219));
#654=DIRECTION('',(-1.,0.,0.));
#655=DIRECTION('',(0.,0.,-0.04));
#656=DIRECTION('',(0.,0.,1.));
#657=DIRECTION('',(0.,-1.,0.));
#658=DIRECTION('',(0.,0.,-1.));
#659=DIRECTION('',(1.,0.,0.));
#660=DIRECTION('',(0.,0.,-0.04));
#661=DIRECTION('',(-1.,0.,0.));
#662=DIRECTION('',(0.,-1.,0.));
#663=DIRECTION('',(1.,0.,0.));
#664=DIRECTION('',(0.,-1.,0.));
#665=DIRECTION('',(-1.,0.,0.));
#666=DIRECTION('',(0.,0.,-1.));
#667=DIRECTION('',(1.,0.,0.));
#668=DIRECTION('',(0.,-1.,0.));
#669=DIRECTION('',(1.,0.,0.));
#670=DIRECTION('',(1.,0.,0.));
#671=DIRECTION('',(0.,0.,-0.04));
#672=DIRECTION('',(1.,0.,0.));
#673=DIRECTION('',(0.,-0.0976122603564219,-0.995224520712844));
#674=DIRECTION('',(1.,0.,0.));
#675=DIRECTION('',(1.,0.,0.));
#676=DIRECTION('',(0.,0.,-0.16));
#677=DIRECTION('',(-1.,0.,0.));
#678=DIRECTION('',(0.,-1.,0.));
#679=DIRECTION('',(1.,0.,0.));
#680=DIRECTION('',(0.,0.,1.));
#681=DIRECTION('',(0.,0.,1.));
#682=DIRECTION('',(-1.,0.,0.));
#683=DIRECTION('',(0.,-1.,0.));
#684=DIRECTION('',(1.,0.,0.));
#685=DIRECTION('',(0.,1.,0.));
#686=DIRECTION('',(0.984807753012209,0.,-0.173648177666927));
#687=DIRECTION('',(0.,1.,0.));
#688=DIRECTION('',(-0.171087869746032,-0.171087869746032,-0.970287525247815));
#689=DIRECTION('',(0.171087869746032,-0.171087869746032,0.970287525247815));
#690=DIRECTION('',(0.,-0.984807753012209,-0.173648177666927));
#691=DIRECTION('',(-0.171087869746032,-0.171087869746032,0.970287525247815));
#692=DIRECTION('',(1.,0.,0.));
#693=DIRECTION('',(-0.984807753012209,0.,-0.173648177666927));
#694=DIRECTION('',(0.,-1.,0.));
#695=DIRECTION('',(-0.171087869746032,0.171087869746032,0.970287525247815));
#696=DIRECTION('',(0.,0.984807753012209,-0.173648177666927));
#697=DIRECTION('',(-1.,0.,0.));
#698=DIRECTION('',(-1.,0.,0.));
#699=DIRECTION('',(0.,0.,1.));
#700=DIRECTION('',(0.,0.,-1.));
#701=DIRECTION('',(0.,-1.,0.));
#702=DIRECTION('',(0.,1.,0.));
#703=DIRECTION('',(0.,0.,-1.));
#704=DIRECTION('',(-1.,0.,0.));
#705=DIRECTION('',(1.,0.,0.));
#706=DIRECTION('',(0.,0.,-1.));
#707=DIRECTION('',(0.,1.,0.));
#708=DIRECTION('',(0.,-1.,0.));
#709=DIRECTION('',(1.,0.,0.));
#710=DIRECTION('',(-0.994521895368274,0.,-0.10452846326765));
#711=DIRECTION('',(-0.103962051184495,-0.103962051184495,0.989132844377855));
#712=DIRECTION('',(0.103962051184495,-0.103962051184495,-0.989132844377855));
#713=DIRECTION('',(0.,-1.,0.));
#714=DIRECTION('',(0.,0.994521895368274,-0.10452846326765));
#715=DIRECTION('',(-0.103962051184495,-0.103962051184495,-0.989132844377855));
#716=DIRECTION('',(-1.,0.,0.));
#717=DIRECTION('',(0.994521895368274,0.,-0.10452846326765));
#718=DIRECTION('',(-0.103962051184495,0.103962051184495,-0.989132844377855));
#719=DIRECTION('',(0.,1.,0.));
#720=DIRECTION('',(0.,-0.994521895368274,-0.10452846326765));
#721=DIRECTION('',(1.,0.,0.));
#722=DIRECTION('',(0.,0.,1.));
#723=DIRECTION('DIRECTION2',(5.78719328973256E-016,-1.,3.32377142689425E-018));
#724=DIRECTION('DIRECTION3',(1.,5.78719328973256E-016,-3.12250225675825E-017));
#725=DIRECTION('DIRECTION6',(0.,0.,1.));
#726=DIRECTION('DIRECTION7',(1.,0.,0.));
#727=DIRECTION('DIRECTION12',(-5.78241158658936E-016,-1.,-2.28704180895984E-033));
#728=DIRECTION('DIRECTION13',(1.,-5.78241158658936E-016,3.12250225675825E-017));
#729=DIRECTION('DIRECTION16',(0.,0.,1.));
#730=DIRECTION('DIRECTION17',(1.,0.,0.));
#731=DIRECTION('DIRECTION22',(0.,0.,1.));
#732=DIRECTION('DIRECTION23',(1.,0.,0.));
#733=DIRECTION('DIRECTION26',(0.,0.,1.));
#734=DIRECTION('DIRECTION27',(1.,0.,0.));
#735=DIRECTION('DIRECTION32',(-5.50485583043307E-016,1.,-2.77555756156289E-017));
#736=DIRECTION('DIRECTION33',(-1.,-5.50485583043307E-016,-5.55111512312578E-017));
#737=DIRECTION('DIRECTION36',(0.,0.,1.));
#738=DIRECTION('DIRECTION37',(1.,0.,0.));
#739=CARTESIAN_POINT('',(-0.15,-0.0960955095857431,0.0898089808285138));
#740=CARTESIAN_POINT('',(-0.15,-0.615617961657028,0.140764076685945));
#741=CARTESIAN_POINT('',(0.15,-0.615617961657028,0.140764076685945));
#742=CARTESIAN_POINT('',(-0.15,-0.615617961657028,0.140764076685945));
#743=CARTESIAN_POINT('',(-0.15,-0.0960955095857431,0.0898089808285138));
#744=CARTESIAN_POINT('',(-0.15,-0.0960955095857431,0.0898089808285138));
#745=CARTESIAN_POINT('',(-0.15,-0.0960955095857431,0.0898089808285138));
#746=CARTESIAN_POINT('',(0.15,-0.0960955095857431,0.0898089808285138));
#747=CARTESIAN_POINT('',(0.15,-0.0960955095857431,0.0898089808285138));
#748=CARTESIAN_POINT('',(-0.15,-0.1,0.05));
#749=CARTESIAN_POINT('',(-0.15,-0.1,0.05));
#750=CARTESIAN_POINT('',(-0.15,-0.06,0.05));
#751=CARTESIAN_POINT('',(-0.15,-0.6,0.3));
#752=CARTESIAN_POINT('',(-0.15,-0.76,0.3));
#753=CARTESIAN_POINT('',(-0.15,-0.76,0.05));
#754=CARTESIAN_POINT('',(-0.15,-0.76,0.45));
#755=CARTESIAN_POINT('',(-0.15,-0.1,0.45));
#756=CARTESIAN_POINT('',(-0.15,-0.64,0.45));
#757=CARTESIAN_POINT('',(-0.15,-0.64,0.05));
#758=CARTESIAN_POINT('',(-0.15,-0.64,0.3));
#759=CARTESIAN_POINT('',(-0.15,-0.6,0.3));
#760=CARTESIAN_POINT('',(-0.15,-0.603904490414257,0.260191019171486));
#761=CARTESIAN_POINT('',(-0.15,-0.0843820383429725,0.209235923314055));
#762=CARTESIAN_POINT('',(-0.15,-0.0843820383429725,0.209235923314055));
#763=CARTESIAN_POINT('',(-0.15,-0.1,0.05));
#764=CARTESIAN_POINT('',(-0.15,0.06,0.05));
#765=CARTESIAN_POINT('',(-0.15,0.06,0.05));
#766=CARTESIAN_POINT('',(-0.15,0.06,0.));
#767=CARTESIAN_POINT('',(-0.15,-0.1,0.));
#768=CARTESIAN_POINT('',(-0.15,-0.06,0.));
#769=CARTESIAN_POINT('',(-0.15,-0.06,0.05));
#770=CARTESIAN_POINT('',(-0.15,-0.6,0.3));
#771=CARTESIAN_POINT('',(-0.15,-0.76,0.3));
#772=CARTESIAN_POINT('',(0.15,-0.76,0.3));
#773=CARTESIAN_POINT('',(0.15,-0.6,0.3));
#774=CARTESIAN_POINT('',(0.15,-0.1,0.05));
#775=CARTESIAN_POINT('',(0.15,-0.1,0.05));
#776=CARTESIAN_POINT('',(0.15,-0.06,0.05));
#777=CARTESIAN_POINT('',(0.15,-0.06,0.05));
#778=CARTESIAN_POINT('',(0.15,-0.06,0.));
#779=CARTESIAN_POINT('',(0.15,-0.1,0.));
#780=CARTESIAN_POINT('',(0.15,0.06,0.));
#781=CARTESIAN_POINT('',(0.15,0.06,0.05));
#782=CARTESIAN_POINT('',(0.15,0.06,0.05));
#783=CARTESIAN_POINT('',(0.15,-0.1,0.05));
#784=CARTESIAN_POINT('',(0.15,-0.0843820383429725,0.209235923314055));
#785=CARTESIAN_POINT('',(0.15,-0.0843820383429725,0.209235923314055));
#786=CARTESIAN_POINT('',(0.15,-0.603904490414257,0.260191019171486));
#787=CARTESIAN_POINT('',(0.15,-0.6,0.3));
#788=CARTESIAN_POINT('',(0.15,-0.64,0.3));
#789=CARTESIAN_POINT('',(0.15,-0.64,0.05));
#790=CARTESIAN_POINT('',(0.15,-0.64,0.45));
#791=CARTESIAN_POINT('',(0.15,-0.1,0.45));
#792=CARTESIAN_POINT('',(0.15,-0.76,0.45));
#793=CARTESIAN_POINT('',(0.15,-0.76,0.05));
#794=CARTESIAN_POINT('',(-0.15,-0.1,0.05));
#795=CARTESIAN_POINT('',(-0.15,-0.06,0.05));
#796=CARTESIAN_POINT('',(-0.15,-0.06,0.05));
#797=CARTESIAN_POINT('',(-0.15,-0.06,0.));
#798=CARTESIAN_POINT('',(-0.15,-0.76,0.45));
#799=CARTESIAN_POINT('',(-0.15,-0.76,0.45));
#800=CARTESIAN_POINT('',(-0.15,-0.76,0.45));
#801=CARTESIAN_POINT('',(-0.15,-0.64,0.45));
#802=CARTESIAN_POINT('',(-0.15,-0.64,0.45));
#803=CARTESIAN_POINT('',(-0.15,-0.64,0.3));
#804=CARTESIAN_POINT('',(-0.15,-0.6,0.3));
#805=CARTESIAN_POINT('',(-0.15,-0.603904490414257,0.260191019171486));
#806=CARTESIAN_POINT('',(-0.15,-0.0843820383429725,0.209235923314055));
#807=CARTESIAN_POINT('',(-0.15,-0.0843820383429725,0.209235923314055));
#808=CARTESIAN_POINT('',(-0.15,-0.1,0.05));
#809=CARTESIAN_POINT('',(-0.15,0.06,0.05));
#810=CARTESIAN_POINT('',(-0.15,0.06,0.05));
#811=CARTESIAN_POINT('',(-0.15,0.06,0.));
#812=CARTESIAN_POINT('',(-0.15,0.06,0.));
#813=CARTESIAN_POINT('',(-1.125,-0.675,0.35));
#814=CARTESIAN_POINT('',(-1.125,0.623865175594545,0.35));
#815=CARTESIAN_POINT('',(1.07386517559455,0.623865175594545,0.35));
#816=CARTESIAN_POINT('',(-1.07386517559455,0.623865175594545,0.35));
#817=CARTESIAN_POINT('',(-1.07386517559455,-0.675,0.35));
#818=CARTESIAN_POINT('',(-1.07386517559455,-0.623865175594545,0.35));
#819=CARTESIAN_POINT('',(-1.125,-0.623865175594545,0.35));
#820=CARTESIAN_POINT('',(1.07386517559455,-0.623865175594545,0.35));
#821=CARTESIAN_POINT('',(1.07386517559455,-0.675,0.35));
#822=CARTESIAN_POINT('',(-1.07386517559455,-0.675,0.35));
#823=CARTESIAN_POINT('',(-1.125,-0.675,0.059999999999994));
#824=CARTESIAN_POINT('',(-1.125,-0.675,0.0599999999999941));
#825=CARTESIAN_POINT('',(-1.125,0.675,0.0599999999999941));
#826=CARTESIAN_POINT('',(-1.07386517559455,-0.623865175594545,0.35));
#827=CARTESIAN_POINT('',(-1.125,0.675,0.059999999999994));
#828=CARTESIAN_POINT('',(-1.125,0.623865175594545,0.35));
#829=CARTESIAN_POINT('',(1.125,0.675,0.059999999999994));
#830=CARTESIAN_POINT('',(1.125,0.675,0.0599999999999941));
#831=CARTESIAN_POINT('',(-1.125,0.675,0.059999999999994));
#832=CARTESIAN_POINT('',(1.07386517559455,-0.675,0.35));
#833=CARTESIAN_POINT('',(1.125,-0.675,0.059999999999994));
#834=CARTESIAN_POINT('',(1.125,-0.675,0.0599999999999941));
#835=CARTESIAN_POINT('',(1.125,-0.675,0.059999999999994));
#836=CARTESIAN_POINT('',(-1.125,-0.623865175594545,0.35));
#837=CARTESIAN_POINT('',(-1.125,-0.675,0.059999999999994));
#838=CARTESIAN_POINT('',(-1.125,0.675,-0.65));
#839=CARTESIAN_POINT('',(-1.125,-0.675,-0.65));
#840=CARTESIAN_POINT('',(-1.125,-0.675,-0.0599999999999811));
#841=CARTESIAN_POINT('',(-1.125,0.675,-0.65));
#842=CARTESIAN_POINT('',(-1.125,0.675,-0.0599999999999811));
#843=CARTESIAN_POINT('',(-1.125,0.675,-0.0599999999999811));
#844=CARTESIAN_POINT('',(-1.125,0.675,-0.65));
#845=CARTESIAN_POINT('',(1.125,0.675,-0.65));
#846=CARTESIAN_POINT('',(1.125,0.675,-0.0599999999999811));
#847=CARTESIAN_POINT('',(-1.125,0.675,-0.0599999999999811));
#848=CARTESIAN_POINT('',(1.125,0.675,-0.65));
#849=CARTESIAN_POINT('',(1.125,-0.675,-0.65));
#850=CARTESIAN_POINT('',(1.125,-0.675,-0.0599999999999811));
#851=CARTESIAN_POINT('',(1.125,0.675,-0.0599999999999811));
#852=CARTESIAN_POINT('',(-1.125,-0.675,-0.65));
#853=CARTESIAN_POINT('',(-1.125,-0.675,-0.0599999999999811));
#854=CARTESIAN_POINT('',(-1.125,0.675,-0.0599999999999811));
#855=CARTESIAN_POINT('',(-1.06298850119325,-0.612988501193251,-0.65));
#856=CARTESIAN_POINT('',(-1.06298850119325,-0.612988501193251,-0.65));
#857=CARTESIAN_POINT('',(-1.125,0.675,-0.0599999999999811));
#858=CARTESIAN_POINT('',(-1.06298850119325,0.612988501193251,-0.65));
#859=CARTESIAN_POINT('',(-1.06298850119325,-0.675,-0.65));
#860=CARTESIAN_POINT('',(-1.125,0.675,-0.0599999999999811));
#861=CARTESIAN_POINT('',(1.125,0.675,-0.0599999999999811));
#862=CARTESIAN_POINT('',(1.06298850119325,0.612988501193251,-0.65));
#863=CARTESIAN_POINT('',(-1.125,0.612988501193251,-0.65));
#864=CARTESIAN_POINT('',(1.125,0.675,-0.0599999999999811));
#865=CARTESIAN_POINT('',(1.125,-0.675,-0.0599999999999811));
#866=CARTESIAN_POINT('',(1.06298850119325,-0.612988501193251,-0.65));
#867=CARTESIAN_POINT('',(1.06298850119325,0.675,-0.65));
#868=CARTESIAN_POINT('',(-1.125,-0.675,-0.0599999999999811));
#869=CARTESIAN_POINT('',(-1.125,-0.612988501193251,-0.65));
#870=CARTESIAN_POINT('',(-1.125,-0.675,-0.65));
#871=CARTESIAN_POINT('CARTESIAN_POINT4',(-0.65,-0.675,-1.01595510222797E-018));
#872=CARTESIAN_POINT('CARTESIAN_POINT8',(0.,0.,0.));
#873=CARTESIAN_POINT('CARTESIAN_POINT14',(0.65,-0.675,0.));
#874=CARTESIAN_POINT('CARTESIAN_POINT18',(0.,0.,0.));
#875=CARTESIAN_POINT('CARTESIAN_POINT24',(0.,0.,0.));
#876=CARTESIAN_POINT('CARTESIAN_POINT28',(0.,0.,0.));
#877=CARTESIAN_POINT('CARTESIAN_POINT34',(2.71050543121376E-017,0.675,1.01643953670516E-017));
#878=CARTESIAN_POINT('CARTESIAN_POINT38',(0.,0.,0.));
#879=PLANE('',#575);
#880=PLANE('',#576);
#881=PLANE('',#583);
#882=PLANE('',#588);
#883=PLANE('',#589);
#884=PLANE('',#590);
#885=PLANE('',#591);
#886=PLANE('',#593);
#887=PLANE('',#595);
#888=PLANE('',#596);
#889=PLANE('',#597);
#890=PLANE('',#598);
#891=PLANE('',#599);
#892=PLANE('',#600);
#893=PLANE('',#601);
#894=PLANE('',#602);
#895=PLANE('',#603);
#896=PLANE('',#604);
#897=PLANE('',#605);
#898=PLANE('',#606);
#899=PLANE('',#607);
#900=PLANE('',#608);
#901=PLANE('',#609);
#902=PLANE('',#610);
#903=CLOSED_SHELL('',(#547,#548,#549,#550,#551,#552,#553,#554,#555,#556,
#557,#558,#559,#560));
#904=CLOSED_SHELL('',(#561,#562,#563,#564,#565,#566,#567,#568,#569,#570,
#571,#572,#573,#574));
#905=MANIFOLD_SOLID_BREP('',#903);
#906=MANIFOLD_SOLID_BREP('',#904);
#907=ADVANCED_BREP_SHAPE_REPRESENTATION(
'User Library-SC-70_pin_TSSOP_tssop6_1',(#905),#132);
#908=ADVANCED_BREP_SHAPE_REPRESENTATION(
'User Library-SC-70_body_TSSOP-6_SC70_1',(#906),#133);
ENDSEC;
END-ISO-10303-21;
