ISO-10303-21;
HEADER;
/* Generated by software containing ST-Developer
 * from STEP Tools, Inc. (www.steptools.com) 
 */

FILE_DESCRIPTION(
/* description */ ('Alibre Inc.'),
/* implementation_level */ '2;1');

FILE_NAME(
/* name */ 'export0',
/* time_stamp */ '2017-10-13T11:21:40+08:00',
/* author */ (''),
/* organization */ (''),
/* preprocessor_version */ 'ST-DEVELOPER v14',
/* originating_system */ 'Alibre',
/* authorisation */ '');

FILE_SCHEMA (('AUTOMOTIVE_DESIGN'));
ENDSEC;

DATA;
#10=STYLED_ITEM('NAME_0',(#48),#516);
#11=STYLED_ITEM('NAME_0',(#49),#481);
#12=STYLED_ITEM('NAME_0',(#49),#482);
#13=STYLED_ITEM('NAME_0',(#49),#483);
#14=STYLED_ITEM('NAME_0',(#49),#484);
#15=STYLED_ITEM('NAME_0',(#49),#485);
#16=STYLED_ITEM('NAME_0',(#49),#486);
#17=STYLED_ITEM('NAME_0',(#49),#487);
#18=STYLED_ITEM('NAME_0',(#49),#488);
#19=STYLED_ITEM('NAME_0',(#49),#489);
#20=STYLED_ITEM('NAME_0',(#49),#490);
#21=STYLED_ITEM('NAME_0',(#49),#491);
#22=STYLED_ITEM('NAME_0',(#49),#492);
#23=STYLED_ITEM('NAME_0',(#49),#493);
#24=STYLED_ITEM('NAME_0',(#49),#494);
#25=STYLED_ITEM('NAME_0',(#49),#495);
#26=STYLED_ITEM('NAME_0',(#49),#496);
#27=STYLED_ITEM('NAME_0',(#49),#497);
#28=STYLED_ITEM('NAME_0',(#49),#498);
#29=STYLED_ITEM('NAME_0',(#49),#499);
#30=STYLED_ITEM('NAME_0',(#49),#500);
#31=STYLED_ITEM('NAME_0',(#49),#501);
#32=STYLED_ITEM('NAME_0',(#49),#502);
#33=STYLED_ITEM('NAME_0',(#49),#503);
#34=STYLED_ITEM('NAME_0',(#49),#504);
#35=MECHANICAL_DESIGN_GEOMETRIC_PRESENTATION_REPRESENTATION('NAME_0',(#10,
#11,#12,#13,#14,#15,#16,#17,#18,#19,#20,#21,#22,#23,#24,#25,#26,#27,#28,
#29,#30,#31,#32,#33,#34),#64);
#36=COLOUR_RGB('',0.764705882352941,0.764705882352941,0.764705882352941);
#37=COLOUR_RGB('',1.,1.,0.549019607843137);
#38=FILL_AREA_STYLE_COLOUR('NAME_0',#36);
#39=FILL_AREA_STYLE_COLOUR('NAME_0',#37);
#40=FILL_AREA_STYLE('NAME_0',(#38));
#41=FILL_AREA_STYLE('NAME_0',(#39));
#42=SURFACE_STYLE_FILL_AREA(#40);
#43=SURFACE_STYLE_FILL_AREA(#41);
#44=SURFACE_SIDE_STYLE('NAME_0',(#42));
#45=SURFACE_SIDE_STYLE('NAME_0',(#43));
#46=SURFACE_STYLE_USAGE(.POSITIVE.,#44);
#47=SURFACE_STYLE_USAGE(.POSITIVE.,#45);
#48=PRESENTATION_STYLE_ASSIGNMENT((#46));
#49=PRESENTATION_STYLE_ASSIGNMENT((#47));
#50=PRODUCT_DEFINITION_CONTEXT('part definition',#57,'design');
#51=SHAPE_DEFINITION_REPRESENTATION(#52,#819);
#52=PRODUCT_DEFINITION_SHAPE('PRODUCT_VERSION_ID',
'PRODUCT_VERSION_DESCR',#53);
#53=PRODUCT_DEFINITION('PRODUCT_VERSION_ID','PRODUCT_VERSION_DESCR',#54,
#50);
#54=PRODUCT_DEFINITION_FORMATION_WITH_SPECIFIED_SOURCE(
'PRODUCT_VERSION_ID','PRODUCT_VERSION_DESCR',#59,.MADE.);
#55=PRODUCT_RELATED_PRODUCT_CATEGORY('part','part',(#59));
#56=APPLICATION_PROTOCOL_DEFINITION('Draft International Standard',
'automotive_design',1994,#57);
#57=APPLICATION_CONTEXT('automotive_Design');
#58=PRODUCT_CONTEXT('3D Mechanical Parts',#57,'mechanical');
#59=PRODUCT('','5017','',(#58));
#60=(
LENGTH_UNIT()
NAMED_UNIT(*)
SI_UNIT(.MILLI.,.METRE.)
);
#61=(
NAMED_UNIT(*)
PLANE_ANGLE_UNIT()
SI_UNIT($,.RADIAN.)
);
#62=(
NAMED_UNIT(*)
SI_UNIT($,.STERADIAN.)
SOLID_ANGLE_UNIT()
);
#63=UNCERTAINTY_MEASURE_WITH_UNIT(LENGTH_MEASURE(1.E-006),#60,
'DISTANCE_ACCURACY_VALUE',
'Maximum model space distance between geometric entities at asserted co
nnectivities');
#64=(
GEOMETRIC_REPRESENTATION_CONTEXT(3)
GLOBAL_UNCERTAINTY_ASSIGNED_CONTEXT((#63))
GLOBAL_UNIT_ASSIGNED_CONTEXT((#62,#61,#60))
REPRESENTATION_CONTEXT('ID1','3D')
);
#65=PLANE('',#784);
#66=PLANE('',#788);
#67=PLANE('',#789);
#68=PLANE('',#790);
#69=PLANE('',#794);
#70=PLANE('',#798);
#71=PLANE('',#802);
#72=PLANE('',#806);
#73=PLANE('',#807);
#74=PLANE('',#808);
#75=PLANE('',#812);
#76=PLANE('',#816);
#77=PLANE('',#817);
#78=PLANE('',#818);
#79=VECTOR('',#523,1.);
#80=VECTOR('',#526,1.);
#81=VECTOR('',#531,1.);
#82=VECTOR('',#534,1.);
#83=VECTOR('',#539,1.);
#84=VECTOR('',#542,1.);
#85=VECTOR('',#544,1.);
#86=VECTOR('',#545,1.);
#87=VECTOR('',#546,1.);
#88=VECTOR('',#554,1.);
#89=VECTOR('',#555,1.);
#90=VECTOR('',#556,1.);
#91=VECTOR('',#558,1.);
#92=VECTOR('',#559,1.);
#93=VECTOR('',#560,1.);
#94=VECTOR('',#562,1.);
#95=VECTOR('',#563,1.);
#96=VECTOR('',#564,1.);
#97=VECTOR('',#572,1.);
#98=VECTOR('',#573,1.);
#99=VECTOR('',#574,1.);
#100=VECTOR('',#579,1.);
#101=VECTOR('',#583,1.);
#102=VECTOR('',#584,1.);
#103=VECTOR('',#585,1.);
#104=VECTOR('',#590,1.);
#105=VECTOR('',#594,1.);
#106=VECTOR('',#595,1.);
#107=VECTOR('',#596,1.);
#108=VECTOR('',#601,1.);
#109=VECTOR('',#605,1.);
#110=VECTOR('',#606,1.);
#111=VECTOR('',#607,1.);
#112=VECTOR('',#609,1.);
#113=VECTOR('',#610,1.);
#114=VECTOR('',#611,1.);
#115=VECTOR('',#613,1.);
#116=VECTOR('',#614,1.);
#117=VECTOR('',#615,1.);
#118=VECTOR('',#620,1.);
#119=VECTOR('',#624,1.);
#120=VECTOR('',#625,1.);
#121=VECTOR('',#626,1.);
#122=VECTOR('',#631,1.);
#123=VECTOR('',#635,1.);
#124=VECTOR('',#636,1.);
#125=LINE('',#644,#79);
#126=LINE('',#648,#80);
#127=LINE('',#653,#81);
#128=LINE('',#657,#82);
#129=LINE('',#662,#83);
#130=LINE('',#666,#84);
#131=LINE('',#668,#85);
#132=LINE('',#670,#86);
#133=LINE('',#672,#87);
#134=LINE('',#677,#88);
#135=LINE('',#679,#89);
#136=LINE('',#681,#90);
#137=LINE('',#683,#91);
#138=LINE('',#685,#92);
#139=LINE('',#687,#93);
#140=LINE('',#689,#94);
#141=LINE('',#691,#95);
#142=LINE('',#693,#96);
#143=LINE('',#698,#97);
#144=LINE('',#700,#98);
#145=LINE('',#702,#99);
#146=LINE('',#706,#100);
#147=LINE('',#710,#101);
#148=LINE('',#712,#102);
#149=LINE('',#714,#103);
#150=LINE('',#718,#104);
#151=LINE('',#722,#105);
#152=LINE('',#724,#106);
#153=LINE('',#726,#107);
#154=LINE('',#730,#108);
#155=LINE('',#734,#109);
#156=LINE('',#736,#110);
#157=LINE('',#738,#111);
#158=LINE('',#740,#112);
#159=LINE('',#742,#113);
#160=LINE('',#744,#114);
#161=LINE('',#746,#115);
#162=LINE('',#748,#116);
#163=LINE('',#750,#117);
#164=LINE('',#754,#118);
#165=LINE('',#758,#119);
#166=LINE('',#760,#120);
#167=LINE('',#762,#121);
#168=LINE('',#766,#122);
#169=LINE('',#770,#123);
#170=LINE('',#771,#124);
#171=VERTEX_POINT('',#642);
#172=VERTEX_POINT('',#643);
#173=VERTEX_POINT('',#645);
#174=VERTEX_POINT('',#647);
#175=VERTEX_POINT('',#651);
#176=VERTEX_POINT('',#652);
#177=VERTEX_POINT('',#654);
#178=VERTEX_POINT('',#656);
#179=VERTEX_POINT('',#660);
#180=VERTEX_POINT('',#661);
#181=VERTEX_POINT('',#663);
#182=VERTEX_POINT('',#665);
#183=VERTEX_POINT('',#669);
#184=VERTEX_POINT('',#671);
#185=VERTEX_POINT('',#678);
#186=VERTEX_POINT('',#680);
#187=VERTEX_POINT('',#684);
#188=VERTEX_POINT('',#686);
#189=VERTEX_POINT('',#690);
#190=VERTEX_POINT('',#692);
#191=VERTEX_POINT('',#699);
#192=VERTEX_POINT('',#701);
#193=VERTEX_POINT('',#705);
#194=VERTEX_POINT('',#707);
#195=VERTEX_POINT('',#711);
#196=VERTEX_POINT('',#713);
#197=VERTEX_POINT('',#717);
#198=VERTEX_POINT('',#719);
#199=VERTEX_POINT('',#723);
#200=VERTEX_POINT('',#725);
#201=VERTEX_POINT('',#729);
#202=VERTEX_POINT('',#731);
#203=VERTEX_POINT('',#735);
#204=VERTEX_POINT('',#737);
#205=VERTEX_POINT('',#741);
#206=VERTEX_POINT('',#743);
#207=VERTEX_POINT('',#747);
#208=VERTEX_POINT('',#749);
#209=VERTEX_POINT('',#753);
#210=VERTEX_POINT('',#755);
#211=VERTEX_POINT('',#759);
#212=VERTEX_POINT('',#761);
#213=VERTEX_POINT('',#765);
#214=VERTEX_POINT('',#767);
#215=CIRCLE('',#776,0.051);
#216=CIRCLE('',#777,0.051);
#217=CIRCLE('',#779,0.254);
#218=CIRCLE('',#780,0.254);
#219=CIRCLE('',#782,0.254);
#220=CIRCLE('',#783,0.254);
#221=CIRCLE('',#786,0.254);
#222=CIRCLE('',#787,0.254);
#223=CIRCLE('',#792,0.051);
#224=CIRCLE('',#793,0.051);
#225=CIRCLE('',#796,0.051);
#226=CIRCLE('',#797,0.051);
#227=CIRCLE('',#800,0.051);
#228=CIRCLE('',#801,0.051);
#229=CIRCLE('',#804,0.051);
#230=CIRCLE('',#805,0.051);
#231=CIRCLE('',#810,0.254);
#232=CIRCLE('',#811,0.254);
#233=CIRCLE('',#814,0.253999999999993);
#234=CIRCLE('',#815,0.253999999999993);
#235=EDGE_CURVE('',#171,#172,#215,.T.);
#236=EDGE_CURVE('',#172,#173,#125,.T.);
#237=EDGE_CURVE('',#174,#173,#216,.T.);
#238=EDGE_CURVE('',#171,#174,#126,.T.);
#239=EDGE_CURVE('',#175,#176,#217,.T.);
#240=EDGE_CURVE('',#176,#177,#127,.T.);
#241=EDGE_CURVE('',#178,#177,#218,.T.);
#242=EDGE_CURVE('',#175,#178,#128,.T.);
#243=EDGE_CURVE('',#179,#180,#219,.T.);
#244=EDGE_CURVE('',#181,#179,#129,.T.);
#245=EDGE_CURVE('',#181,#182,#220,.T.);
#246=EDGE_CURVE('',#182,#180,#130,.T.);
#247=EDGE_CURVE('',#183,#179,#131,.T.);
#248=EDGE_CURVE('',#184,#183,#132,.T.);
#249=EDGE_CURVE('',#184,#181,#133,.T.);
#250=EDGE_CURVE('',#176,#184,#221,.T.);
#251=EDGE_CURVE('',#177,#183,#222,.T.);
#252=EDGE_CURVE('',#185,#178,#134,.T.);
#253=EDGE_CURVE('',#186,#185,#135,.T.);
#254=EDGE_CURVE('',#186,#175,#136,.T.);
#255=EDGE_CURVE('',#187,#185,#137,.T.);
#256=EDGE_CURVE('',#188,#187,#138,.T.);
#257=EDGE_CURVE('',#188,#186,#139,.T.);
#258=EDGE_CURVE('',#189,#187,#140,.T.);
#259=EDGE_CURVE('',#190,#189,#141,.T.);
#260=EDGE_CURVE('',#190,#188,#142,.T.);
#261=EDGE_CURVE('',#172,#190,#223,.T.);
#262=EDGE_CURVE('',#173,#189,#224,.T.);
#263=EDGE_CURVE('',#191,#174,#143,.T.);
#264=EDGE_CURVE('',#192,#191,#144,.T.);
#265=EDGE_CURVE('',#192,#171,#145,.T.);
#266=EDGE_CURVE('',#193,#191,#225,.T.);
#267=EDGE_CURVE('',#194,#193,#146,.T.);
#268=EDGE_CURVE('',#194,#192,#226,.T.);
#269=EDGE_CURVE('',#195,#193,#147,.T.);
#270=EDGE_CURVE('',#196,#195,#148,.T.);
#271=EDGE_CURVE('',#196,#194,#149,.T.);
#272=EDGE_CURVE('',#197,#195,#227,.T.);
#273=EDGE_CURVE('',#198,#197,#150,.T.);
#274=EDGE_CURVE('',#198,#196,#228,.T.);
#275=EDGE_CURVE('',#199,#197,#151,.T.);
#276=EDGE_CURVE('',#200,#199,#152,.T.);
#277=EDGE_CURVE('',#200,#198,#153,.T.);
#278=EDGE_CURVE('',#201,#199,#229,.T.);
#279=EDGE_CURVE('',#202,#201,#154,.T.);
#280=EDGE_CURVE('',#202,#200,#230,.T.);
#281=EDGE_CURVE('',#203,#201,#155,.T.);
#282=EDGE_CURVE('',#204,#203,#156,.T.);
#283=EDGE_CURVE('',#204,#202,#157,.T.);
#284=EDGE_CURVE('',#205,#203,#158,.T.);
#285=EDGE_CURVE('',#206,#205,#159,.T.);
#286=EDGE_CURVE('',#206,#204,#160,.T.);
#287=EDGE_CURVE('',#207,#205,#161,.T.);
#288=EDGE_CURVE('',#208,#207,#162,.T.);
#289=EDGE_CURVE('',#208,#206,#163,.T.);
#290=EDGE_CURVE('',#209,#207,#231,.T.);
#291=EDGE_CURVE('',#210,#209,#164,.T.);
#292=EDGE_CURVE('',#210,#208,#232,.T.);
#293=EDGE_CURVE('',#211,#209,#165,.T.);
#294=EDGE_CURVE('',#212,#211,#166,.T.);
#295=EDGE_CURVE('',#212,#210,#167,.T.);
#296=EDGE_CURVE('',#213,#211,#233,.T.);
#297=EDGE_CURVE('',#214,#213,#168,.T.);
#298=EDGE_CURVE('',#214,#212,#234,.T.);
#299=EDGE_CURVE('',#180,#213,#169,.T.);
#300=EDGE_CURVE('',#182,#214,#170,.T.);
#301=ORIENTED_EDGE('',*,*,#235,.T.);
#302=ORIENTED_EDGE('',*,*,#236,.T.);
#303=ORIENTED_EDGE('',*,*,#237,.F.);
#304=ORIENTED_EDGE('',*,*,#238,.F.);
#305=ORIENTED_EDGE('',*,*,#239,.T.);
#306=ORIENTED_EDGE('',*,*,#240,.T.);
#307=ORIENTED_EDGE('',*,*,#241,.F.);
#308=ORIENTED_EDGE('',*,*,#242,.F.);
#309=ORIENTED_EDGE('',*,*,#243,.F.);
#310=ORIENTED_EDGE('',*,*,#244,.F.);
#311=ORIENTED_EDGE('',*,*,#245,.T.);
#312=ORIENTED_EDGE('',*,*,#246,.T.);
#313=ORIENTED_EDGE('',*,*,#247,.F.);
#314=ORIENTED_EDGE('',*,*,#248,.F.);
#315=ORIENTED_EDGE('',*,*,#249,.T.);
#316=ORIENTED_EDGE('',*,*,#244,.T.);
#317=ORIENTED_EDGE('',*,*,#240,.F.);
#318=ORIENTED_EDGE('',*,*,#250,.T.);
#319=ORIENTED_EDGE('',*,*,#248,.T.);
#320=ORIENTED_EDGE('',*,*,#251,.F.);
#321=ORIENTED_EDGE('',*,*,#252,.F.);
#322=ORIENTED_EDGE('',*,*,#253,.F.);
#323=ORIENTED_EDGE('',*,*,#254,.T.);
#324=ORIENTED_EDGE('',*,*,#242,.T.);
#325=ORIENTED_EDGE('',*,*,#255,.F.);
#326=ORIENTED_EDGE('',*,*,#256,.F.);
#327=ORIENTED_EDGE('',*,*,#257,.T.);
#328=ORIENTED_EDGE('',*,*,#253,.T.);
#329=ORIENTED_EDGE('',*,*,#258,.F.);
#330=ORIENTED_EDGE('',*,*,#259,.F.);
#331=ORIENTED_EDGE('',*,*,#260,.T.);
#332=ORIENTED_EDGE('',*,*,#256,.T.);
#333=ORIENTED_EDGE('',*,*,#236,.F.);
#334=ORIENTED_EDGE('',*,*,#261,.T.);
#335=ORIENTED_EDGE('',*,*,#259,.T.);
#336=ORIENTED_EDGE('',*,*,#262,.F.);
#337=ORIENTED_EDGE('',*,*,#263,.F.);
#338=ORIENTED_EDGE('',*,*,#264,.F.);
#339=ORIENTED_EDGE('',*,*,#265,.T.);
#340=ORIENTED_EDGE('',*,*,#238,.T.);
#341=ORIENTED_EDGE('',*,*,#266,.F.);
#342=ORIENTED_EDGE('',*,*,#267,.F.);
#343=ORIENTED_EDGE('',*,*,#268,.T.);
#344=ORIENTED_EDGE('',*,*,#264,.T.);
#345=ORIENTED_EDGE('',*,*,#269,.F.);
#346=ORIENTED_EDGE('',*,*,#270,.F.);
#347=ORIENTED_EDGE('',*,*,#271,.T.);
#348=ORIENTED_EDGE('',*,*,#267,.T.);
#349=ORIENTED_EDGE('',*,*,#272,.F.);
#350=ORIENTED_EDGE('',*,*,#273,.F.);
#351=ORIENTED_EDGE('',*,*,#274,.T.);
#352=ORIENTED_EDGE('',*,*,#270,.T.);
#353=ORIENTED_EDGE('',*,*,#275,.F.);
#354=ORIENTED_EDGE('',*,*,#276,.F.);
#355=ORIENTED_EDGE('',*,*,#277,.T.);
#356=ORIENTED_EDGE('',*,*,#273,.T.);
#357=ORIENTED_EDGE('',*,*,#278,.F.);
#358=ORIENTED_EDGE('',*,*,#279,.F.);
#359=ORIENTED_EDGE('',*,*,#280,.T.);
#360=ORIENTED_EDGE('',*,*,#276,.T.);
#361=ORIENTED_EDGE('',*,*,#281,.F.);
#362=ORIENTED_EDGE('',*,*,#282,.F.);
#363=ORIENTED_EDGE('',*,*,#283,.T.);
#364=ORIENTED_EDGE('',*,*,#279,.T.);
#365=ORIENTED_EDGE('',*,*,#284,.F.);
#366=ORIENTED_EDGE('',*,*,#285,.F.);
#367=ORIENTED_EDGE('',*,*,#286,.T.);
#368=ORIENTED_EDGE('',*,*,#282,.T.);
#369=ORIENTED_EDGE('',*,*,#287,.F.);
#370=ORIENTED_EDGE('',*,*,#288,.F.);
#371=ORIENTED_EDGE('',*,*,#289,.T.);
#372=ORIENTED_EDGE('',*,*,#285,.T.);
#373=ORIENTED_EDGE('',*,*,#290,.F.);
#374=ORIENTED_EDGE('',*,*,#291,.F.);
#375=ORIENTED_EDGE('',*,*,#292,.T.);
#376=ORIENTED_EDGE('',*,*,#288,.T.);
#377=ORIENTED_EDGE('',*,*,#293,.F.);
#378=ORIENTED_EDGE('',*,*,#294,.F.);
#379=ORIENTED_EDGE('',*,*,#295,.T.);
#380=ORIENTED_EDGE('',*,*,#291,.T.);
#381=ORIENTED_EDGE('',*,*,#296,.F.);
#382=ORIENTED_EDGE('',*,*,#297,.F.);
#383=ORIENTED_EDGE('',*,*,#298,.T.);
#384=ORIENTED_EDGE('',*,*,#294,.T.);
#385=ORIENTED_EDGE('',*,*,#299,.F.);
#386=ORIENTED_EDGE('',*,*,#246,.F.);
#387=ORIENTED_EDGE('',*,*,#300,.T.);
#388=ORIENTED_EDGE('',*,*,#297,.T.);
#389=ORIENTED_EDGE('',*,*,#245,.F.);
#390=ORIENTED_EDGE('',*,*,#249,.F.);
#391=ORIENTED_EDGE('',*,*,#250,.F.);
#392=ORIENTED_EDGE('',*,*,#239,.F.);
#393=ORIENTED_EDGE('',*,*,#254,.F.);
#394=ORIENTED_EDGE('',*,*,#257,.F.);
#395=ORIENTED_EDGE('',*,*,#260,.F.);
#396=ORIENTED_EDGE('',*,*,#261,.F.);
#397=ORIENTED_EDGE('',*,*,#235,.F.);
#398=ORIENTED_EDGE('',*,*,#265,.F.);
#399=ORIENTED_EDGE('',*,*,#268,.F.);
#400=ORIENTED_EDGE('',*,*,#271,.F.);
#401=ORIENTED_EDGE('',*,*,#274,.F.);
#402=ORIENTED_EDGE('',*,*,#277,.F.);
#403=ORIENTED_EDGE('',*,*,#280,.F.);
#404=ORIENTED_EDGE('',*,*,#283,.F.);
#405=ORIENTED_EDGE('',*,*,#286,.F.);
#406=ORIENTED_EDGE('',*,*,#289,.F.);
#407=ORIENTED_EDGE('',*,*,#292,.F.);
#408=ORIENTED_EDGE('',*,*,#295,.F.);
#409=ORIENTED_EDGE('',*,*,#298,.F.);
#410=ORIENTED_EDGE('',*,*,#300,.F.);
#411=ORIENTED_EDGE('',*,*,#243,.T.);
#412=ORIENTED_EDGE('',*,*,#299,.T.);
#413=ORIENTED_EDGE('',*,*,#296,.T.);
#414=ORIENTED_EDGE('',*,*,#293,.T.);
#415=ORIENTED_EDGE('',*,*,#290,.T.);
#416=ORIENTED_EDGE('',*,*,#287,.T.);
#417=ORIENTED_EDGE('',*,*,#284,.T.);
#418=ORIENTED_EDGE('',*,*,#281,.T.);
#419=ORIENTED_EDGE('',*,*,#278,.T.);
#420=ORIENTED_EDGE('',*,*,#275,.T.);
#421=ORIENTED_EDGE('',*,*,#272,.T.);
#422=ORIENTED_EDGE('',*,*,#269,.T.);
#423=ORIENTED_EDGE('',*,*,#266,.T.);
#424=ORIENTED_EDGE('',*,*,#263,.T.);
#425=ORIENTED_EDGE('',*,*,#237,.T.);
#426=ORIENTED_EDGE('',*,*,#262,.T.);
#427=ORIENTED_EDGE('',*,*,#258,.T.);
#428=ORIENTED_EDGE('',*,*,#255,.T.);
#429=ORIENTED_EDGE('',*,*,#252,.T.);
#430=ORIENTED_EDGE('',*,*,#241,.T.);
#431=ORIENTED_EDGE('',*,*,#251,.T.);
#432=ORIENTED_EDGE('',*,*,#247,.T.);
#433=EDGE_LOOP('',(#301,#302,#303,#304));
#434=EDGE_LOOP('',(#305,#306,#307,#308));
#435=EDGE_LOOP('',(#309,#310,#311,#312));
#436=EDGE_LOOP('',(#313,#314,#315,#316));
#437=EDGE_LOOP('',(#317,#318,#319,#320));
#438=EDGE_LOOP('',(#321,#322,#323,#324));
#439=EDGE_LOOP('',(#325,#326,#327,#328));
#440=EDGE_LOOP('',(#329,#330,#331,#332));
#441=EDGE_LOOP('',(#333,#334,#335,#336));
#442=EDGE_LOOP('',(#337,#338,#339,#340));
#443=EDGE_LOOP('',(#341,#342,#343,#344));
#444=EDGE_LOOP('',(#345,#346,#347,#348));
#445=EDGE_LOOP('',(#349,#350,#351,#352));
#446=EDGE_LOOP('',(#353,#354,#355,#356));
#447=EDGE_LOOP('',(#357,#358,#359,#360));
#448=EDGE_LOOP('',(#361,#362,#363,#364));
#449=EDGE_LOOP('',(#365,#366,#367,#368));
#450=EDGE_LOOP('',(#369,#370,#371,#372));
#451=EDGE_LOOP('',(#373,#374,#375,#376));
#452=EDGE_LOOP('',(#377,#378,#379,#380));
#453=EDGE_LOOP('',(#381,#382,#383,#384));
#454=EDGE_LOOP('',(#385,#386,#387,#388));
#455=EDGE_LOOP('',(#389,#390,#391,#392,#393,#394,#395,#396,#397,#398,#399,
#400,#401,#402,#403,#404,#405,#406,#407,#408,#409,#410));
#456=EDGE_LOOP('',(#411,#412,#413,#414,#415,#416,#417,#418,#419,#420,#421,
#422,#423,#424,#425,#426,#427,#428,#429,#430,#431,#432));
#457=FACE_BOUND('',#433,.T.);
#458=FACE_BOUND('',#434,.T.);
#459=FACE_BOUND('',#435,.T.);
#460=FACE_BOUND('',#436,.T.);
#461=FACE_BOUND('',#437,.T.);
#462=FACE_BOUND('',#438,.T.);
#463=FACE_BOUND('',#439,.T.);
#464=FACE_BOUND('',#440,.T.);
#465=FACE_BOUND('',#441,.T.);
#466=FACE_BOUND('',#442,.T.);
#467=FACE_BOUND('',#443,.T.);
#468=FACE_BOUND('',#444,.T.);
#469=FACE_BOUND('',#445,.T.);
#470=FACE_BOUND('',#446,.T.);
#471=FACE_BOUND('',#447,.T.);
#472=FACE_BOUND('',#448,.T.);
#473=FACE_BOUND('',#449,.T.);
#474=FACE_BOUND('',#450,.T.);
#475=FACE_BOUND('',#451,.T.);
#476=FACE_BOUND('',#452,.T.);
#477=FACE_BOUND('',#453,.T.);
#478=FACE_BOUND('',#454,.T.);
#479=FACE_BOUND('',#455,.T.);
#480=FACE_BOUND('',#456,.T.);
#481=ADVANCED_FACE('',(#457),#505,.F.);
#482=ADVANCED_FACE('',(#458),#506,.T.);
#483=ADVANCED_FACE('',(#459),#507,.T.);
#484=ADVANCED_FACE('',(#460),#65,.T.);
#485=ADVANCED_FACE('',(#461),#508,.T.);
#486=ADVANCED_FACE('',(#462),#66,.T.);
#487=ADVANCED_FACE('',(#463),#67,.T.);
#488=ADVANCED_FACE('',(#464),#68,.T.);
#489=ADVANCED_FACE('',(#465),#509,.F.);
#490=ADVANCED_FACE('',(#466),#69,.T.);
#491=ADVANCED_FACE('',(#467),#510,.F.);
#492=ADVANCED_FACE('',(#468),#70,.T.);
#493=ADVANCED_FACE('',(#469),#511,.F.);
#494=ADVANCED_FACE('',(#470),#71,.T.);
#495=ADVANCED_FACE('',(#471),#512,.F.);
#496=ADVANCED_FACE('',(#472),#72,.T.);
#497=ADVANCED_FACE('',(#473),#73,.T.);
#498=ADVANCED_FACE('',(#474),#74,.T.);
#499=ADVANCED_FACE('',(#475),#513,.T.);
#500=ADVANCED_FACE('',(#476),#75,.T.);
#501=ADVANCED_FACE('',(#477),#514,.T.);
#502=ADVANCED_FACE('',(#478),#76,.T.);
#503=ADVANCED_FACE('',(#479),#77,.F.);
#504=ADVANCED_FACE('',(#480),#78,.T.);
#505=CYLINDRICAL_SURFACE('',#775,0.051);
#506=CYLINDRICAL_SURFACE('',#778,0.254);
#507=CYLINDRICAL_SURFACE('',#781,0.254);
#508=CYLINDRICAL_SURFACE('',#785,0.254);
#509=CYLINDRICAL_SURFACE('',#791,0.051);
#510=CYLINDRICAL_SURFACE('',#795,0.051);
#511=CYLINDRICAL_SURFACE('',#799,0.051);
#512=CYLINDRICAL_SURFACE('',#803,0.051);
#513=CYLINDRICAL_SURFACE('',#809,0.254);
#514=CYLINDRICAL_SURFACE('',#813,0.253999999999992);
#515=CLOSED_SHELL('',(#481,#482,#483,#484,#485,#486,#487,#488,#489,#490,
#491,#492,#493,#494,#495,#496,#497,#498,#499,#500,#501,#502,#503,#504));
#516=MANIFOLD_SOLID_BREP('',#515);
#517=DIRECTION('',(1.,0.,0.));
#518=DIRECTION('',(0.,0.,1.));
#519=DIRECTION('',(0.,0.,1.));
#520=DIRECTION('',(0.051,0.,0.));
#521=DIRECTION('',(0.,0.,-1.));
#522=DIRECTION('',(0.051,0.,0.));
#523=DIRECTION('',(0.,0.,1.));
#524=DIRECTION('',(0.,0.,-1.));
#525=DIRECTION('',(0.051,0.,0.));
#526=DIRECTION('',(0.,0.,1.));
#527=DIRECTION('',(0.,0.,1.));
#528=DIRECTION('',(0.254,0.,0.));
#529=DIRECTION('',(0.,0.,1.));
#530=DIRECTION('',(0.254,0.,0.));
#531=DIRECTION('',(0.,0.,1.));
#532=DIRECTION('',(0.,0.,1.));
#533=DIRECTION('',(0.254,0.,0.));
#534=DIRECTION('',(0.,0.,1.));
#535=DIRECTION('',(0.,0.,1.));
#536=DIRECTION('',(0.254,0.,0.));
#537=DIRECTION('',(0.,0.,1.));
#538=DIRECTION('',(0.254,0.,0.));
#539=DIRECTION('',(0.,0.,1.));
#540=DIRECTION('',(0.,0.,1.));
#541=DIRECTION('',(0.254,0.,0.));
#542=DIRECTION('',(0.,0.,1.));
#543=DIRECTION('',(0.935720604940549,0.352742043836134,0.));
#544=DIRECTION('',(-0.352742043836134,0.935720604940549,0.));
#545=DIRECTION('',(0.,0.,1.));
#546=DIRECTION('',(-0.352742043836134,0.935720604940549,0.));
#547=DIRECTION('',(0.,0.,1.));
#548=DIRECTION('',(0.254,0.,0.));
#549=DIRECTION('',(0.,0.,1.));
#550=DIRECTION('',(0.254,0.,0.));
#551=DIRECTION('',(0.,0.,1.));
#552=DIRECTION('',(0.254,0.,0.));
#553=DIRECTION('',(-1.03257349760524E-016,-1.,0.));
#554=DIRECTION('',(1.,-1.03257349760524E-016,0.));
#555=DIRECTION('',(0.,0.,1.));
#556=DIRECTION('',(1.,-1.03257349760524E-016,0.));
#557=DIRECTION('',(-1.,0.,0.));
#558=DIRECTION('',(0.,-1.,0.));
#559=DIRECTION('',(0.,0.,1.));
#560=DIRECTION('',(0.,-1.,0.));
#561=DIRECTION('',(0.,1.,0.));
#562=DIRECTION('',(-1.,0.,0.));
#563=DIRECTION('',(0.,0.,1.));
#564=DIRECTION('',(-1.,0.,0.));
#565=DIRECTION('',(0.,0.,1.));
#566=DIRECTION('',(0.051,0.,0.));
#567=DIRECTION('',(0.,0.,-1.));
#568=DIRECTION('',(0.051,0.,0.));
#569=DIRECTION('',(0.,0.,-1.));
#570=DIRECTION('',(0.051,0.,0.));
#571=DIRECTION('',(-0.935720604940549,-0.352742043836134,0.));
#572=DIRECTION('',(0.352742043836134,-0.935720604940549,0.));
#573=DIRECTION('',(0.,0.,1.));
#574=DIRECTION('',(0.352742043836134,-0.935720604940549,0.));
#575=DIRECTION('',(0.,0.,1.));
#576=DIRECTION('',(0.051,0.,0.));
#577=DIRECTION('',(0.,0.,-1.));
#578=DIRECTION('',(0.051,0.,0.));
#579=DIRECTION('',(0.,0.,1.));
#580=DIRECTION('',(0.,0.,-1.));
#581=DIRECTION('',(0.051,0.,0.));
#582=DIRECTION('',(4.60197889863319E-015,-1.,0.));
#583=DIRECTION('',(1.,4.60197889863319E-015,0.));
#584=DIRECTION('',(0.,0.,1.));
#585=DIRECTION('',(1.,4.60197889863319E-015,0.));
#586=DIRECTION('',(0.,0.,1.));
#587=DIRECTION('',(0.051,0.,0.));
#588=DIRECTION('',(0.,0.,-1.));
#589=DIRECTION('',(-0.051,0.,0.));
#590=DIRECTION('',(0.,0.,1.));
#591=DIRECTION('',(0.,0.,-1.));
#592=DIRECTION('',(-0.051,0.,0.));
#593=DIRECTION('',(0.935720604940543,-0.35274204383615,0.));
#594=DIRECTION('',(0.35274204383615,0.935720604940543,0.));
#595=DIRECTION('',(0.,0.,1.));
#596=DIRECTION('',(0.35274204383615,0.935720604940543,0.));
#597=DIRECTION('',(0.,0.,1.));
#598=DIRECTION('',(0.051,0.,0.));
#599=DIRECTION('',(0.,0.,-1.));
#600=DIRECTION('',(-0.051,0.,0.));
#601=DIRECTION('',(0.,0.,1.));
#602=DIRECTION('',(0.,0.,-1.));
#603=DIRECTION('',(-0.051,0.,0.));
#604=DIRECTION('',(0.,1.,0.));
#605=DIRECTION('',(-1.,0.,0.));
#606=DIRECTION('',(0.,0.,1.));
#607=DIRECTION('',(-1.,0.,0.));
#608=DIRECTION('',(1.,0.,0.));
#609=DIRECTION('',(0.,1.,0.));
#610=DIRECTION('',(0.,0.,1.));
#611=DIRECTION('',(0.,1.,0.));
#612=DIRECTION('',(0.,-1.,0.));
#613=DIRECTION('',(1.,0.,0.));
#614=DIRECTION('',(0.,0.,1.));
#615=DIRECTION('',(1.,0.,0.));
#616=DIRECTION('',(0.,0.,1.));
#617=DIRECTION('',(0.254,0.,0.));
#618=DIRECTION('',(0.,0.,1.));
#619=DIRECTION('',(0.254,0.,0.));
#620=DIRECTION('',(0.,0.,1.));
#621=DIRECTION('',(0.,0.,1.));
#622=DIRECTION('',(0.254,0.,0.));
#623=DIRECTION('',(-0.935720604940543,0.35274204383615,0.));
#624=DIRECTION('',(-0.35274204383615,-0.935720604940543,0.));
#625=DIRECTION('',(0.,0.,1.));
#626=DIRECTION('',(-0.35274204383615,-0.935720604940543,0.));
#627=DIRECTION('',(0.,0.,1.));
#628=DIRECTION('',(0.253999999999992,0.,0.));
#629=DIRECTION('',(0.,0.,1.));
#630=DIRECTION('',(-0.253999999999993,0.,0.));
#631=DIRECTION('',(0.,0.,1.));
#632=DIRECTION('',(0.,0.,1.));
#633=DIRECTION('',(-0.253999999999993,0.,0.));
#634=DIRECTION('',(-4.60237232369476E-015,1.,0.));
#635=DIRECTION('',(-1.,-4.60237232369476E-015,0.));
#636=DIRECTION('',(-1.,-4.60237232369476E-015,0.));
#637=DIRECTION('',(0.,0.,1.));
#638=DIRECTION('',(0.,0.,1.));
#639=CARTESIAN_POINT('',(0.,0.,0.));
#640=CARTESIAN_POINT('',(1.02627089339341,-0.455,-1.02));
#641=CARTESIAN_POINT('',(1.02627089339341,-0.455,-1.02));
#642=CARTESIAN_POINT('',(1.07399264424538,-0.437010155764357,-1.02));
#643=CARTESIAN_POINT('',(1.07727089339341,-0.455,-1.02));
#644=CARTESIAN_POINT('',(1.07727089339341,-0.455,-1.02));
#645=CARTESIAN_POINT('',(1.07727089339341,-0.455,0.));
#646=CARTESIAN_POINT('',(1.02627089339341,-0.455,0.));
#647=CARTESIAN_POINT('',(1.07399264424538,-0.437010155764357,0.));
#648=CARTESIAN_POINT('',(1.07399264424538,-0.437010155764357,-1.02));
#649=CARTESIAN_POINT('',(1.1,-0.506,-1.02));
#650=CARTESIAN_POINT('',(1.1,-0.506,-1.02));
#651=CARTESIAN_POINT('',(1.1,-0.76,-1.02));
#652=CARTESIAN_POINT('',(1.354,-0.506,-1.02));
#653=CARTESIAN_POINT('',(1.354,-0.506,-1.02));
#654=CARTESIAN_POINT('',(1.354,-0.506,0.));
#655=CARTESIAN_POINT('',(1.1,-0.506,0.));
#656=CARTESIAN_POINT('',(1.1,-0.76,0.));
#657=CARTESIAN_POINT('',(1.1,-0.76,-1.02));
#658=CARTESIAN_POINT('',(0.718502631578952,0.506000000000003,-1.02));
#659=CARTESIAN_POINT('',(0.718502631578952,0.506000000000003,0.));
#660=CARTESIAN_POINT('',(0.956175665233852,0.595596479134381,0.));
#661=CARTESIAN_POINT('',(0.718502631578951,0.760000000000003,0.));
#662=CARTESIAN_POINT('',(0.956175665233852,0.595596479134381,-1.02));
#663=CARTESIAN_POINT('',(0.956175665233852,0.595596479134381,-1.02));
#664=CARTESIAN_POINT('',(0.718502631578952,0.506000000000003,-1.02));
#665=CARTESIAN_POINT('',(0.718502631578951,0.760000000000003,-1.02));
#666=CARTESIAN_POINT('',(0.718502631578951,0.760000000000003,-1.02));
#667=CARTESIAN_POINT('',(0.956175665233852,0.595596479134381,-1.02));
#668=CARTESIAN_POINT('',(0.956175665233852,0.595596479134381,0.));
#669=CARTESIAN_POINT('',(1.3376730336549,-0.416403520865622,0.));
#670=CARTESIAN_POINT('',(1.3376730336549,-0.416403520865622,-1.02));
#671=CARTESIAN_POINT('',(1.3376730336549,-0.416403520865622,-1.02));
#672=CARTESIAN_POINT('',(0.956175665233852,0.595596479134381,-1.02));
#673=CARTESIAN_POINT('',(1.1,-0.506,-1.02));
#674=CARTESIAN_POINT('',(1.1,-0.506,-1.02));
#675=CARTESIAN_POINT('',(1.1,-0.506,0.));
#676=CARTESIAN_POINT('',(0.0499999999999994,-0.76,-1.02));
#677=CARTESIAN_POINT('',(0.0499999999999994,-0.76,0.));
#678=CARTESIAN_POINT('',(0.0499999999999994,-0.76,0.));
#679=CARTESIAN_POINT('',(0.0499999999999994,-0.76,-1.02));
#680=CARTESIAN_POINT('',(0.0499999999999994,-0.76,-1.02));
#681=CARTESIAN_POINT('',(0.0499999999999994,-0.76,-1.02));
#682=CARTESIAN_POINT('',(0.0499999999999994,-0.506,-1.02));
#683=CARTESIAN_POINT('',(0.0499999999999994,-0.506,0.));
#684=CARTESIAN_POINT('',(0.0499999999999994,-0.506,0.));
#685=CARTESIAN_POINT('',(0.0499999999999994,-0.506,-1.02));
#686=CARTESIAN_POINT('',(0.0499999999999994,-0.506,-1.02));
#687=CARTESIAN_POINT('',(0.0499999999999994,-0.506,-1.02));
#688=CARTESIAN_POINT('',(0.0499999999999994,-0.506,-1.02));
#689=CARTESIAN_POINT('',(0.0499999999999994,-0.506,0.));
#690=CARTESIAN_POINT('',(1.02627089339341,-0.506,0.));
#691=CARTESIAN_POINT('',(1.02627089339341,-0.506,-1.02));
#692=CARTESIAN_POINT('',(1.02627089339341,-0.506,-1.02));
#693=CARTESIAN_POINT('',(0.0499999999999994,-0.506,-1.02));
#694=CARTESIAN_POINT('',(1.02627089339341,-0.455,-1.02));
#695=CARTESIAN_POINT('',(1.02627089339341,-0.455,-1.02));
#696=CARTESIAN_POINT('',(1.02627089339341,-0.455,0.));
#697=CARTESIAN_POINT('',(1.07399264424538,-0.437010155764357,-1.02));
#698=CARTESIAN_POINT('',(1.07399264424538,-0.437010155764357,0.));
#699=CARTESIAN_POINT('',(0.730946591613805,0.472989844235645,0.));
#700=CARTESIAN_POINT('',(0.730946591613805,0.472989844235645,-1.02));
#701=CARTESIAN_POINT('',(0.730946591613805,0.472989844235645,-1.02));
#702=CARTESIAN_POINT('',(1.07399264424538,-0.437010155764357,-1.02));
#703=CARTESIAN_POINT('',(0.683224840761837,0.455000000000003,-1.02));
#704=CARTESIAN_POINT('',(0.683224840761837,0.455000000000003,0.));
#705=CARTESIAN_POINT('',(0.683224840761837,0.506000000000003,0.));
#706=CARTESIAN_POINT('',(0.683224840761837,0.506000000000003,-1.02));
#707=CARTESIAN_POINT('',(0.683224840761837,0.506000000000003,-1.02));
#708=CARTESIAN_POINT('',(0.683224840761837,0.455000000000003,-1.02));
#709=CARTESIAN_POINT('',(-0.683224840761824,0.505999999999996,-1.02));
#710=CARTESIAN_POINT('',(-0.683224840761824,0.505999999999996,0.));
#711=CARTESIAN_POINT('',(-0.683224840761824,0.505999999999996,0.));
#712=CARTESIAN_POINT('',(-0.683224840761824,0.505999999999996,-1.02));
#713=CARTESIAN_POINT('',(-0.683224840761824,0.505999999999996,-1.02));
#714=CARTESIAN_POINT('',(-0.683224840761824,0.505999999999996,-1.02));
#715=CARTESIAN_POINT('',(-0.683224840761824,0.454999999999996,-1.02));
#716=CARTESIAN_POINT('',(-0.683224840761824,0.454999999999996,0.));
#717=CARTESIAN_POINT('',(-0.730946591613792,0.47298984423564,0.));
#718=CARTESIAN_POINT('',(-0.730946591613792,0.47298984423564,-1.02));
#719=CARTESIAN_POINT('',(-0.730946591613792,0.47298984423564,-1.02));
#720=CARTESIAN_POINT('',(-0.683224840761824,0.454999999999996,-1.02));
#721=CARTESIAN_POINT('',(-1.07399264424538,-0.437010155764356,-1.02));
#722=CARTESIAN_POINT('',(-1.07399264424538,-0.437010155764356,0.));
#723=CARTESIAN_POINT('',(-1.07399264424538,-0.437010155764356,0.));
#724=CARTESIAN_POINT('',(-1.07399264424538,-0.437010155764356,-1.02));
#725=CARTESIAN_POINT('',(-1.07399264424538,-0.437010155764356,-1.02));
#726=CARTESIAN_POINT('',(-1.07399264424538,-0.437010155764356,-1.02));
#727=CARTESIAN_POINT('',(-1.02627089339341,-0.455,-1.02));
#728=CARTESIAN_POINT('',(-1.02627089339341,-0.455,0.));
#729=CARTESIAN_POINT('',(-1.02627089339341,-0.506,0.));
#730=CARTESIAN_POINT('',(-1.02627089339341,-0.506,-1.02));
#731=CARTESIAN_POINT('',(-1.02627089339341,-0.506,-1.02));
#732=CARTESIAN_POINT('',(-1.02627089339341,-0.455,-1.02));
#733=CARTESIAN_POINT('',(-1.02627089339341,-0.506,-1.02));
#734=CARTESIAN_POINT('',(-1.02627089339341,-0.506,0.));
#735=CARTESIAN_POINT('',(-0.0500000000000007,-0.506,0.));
#736=CARTESIAN_POINT('',(-0.0500000000000007,-0.506,-1.02));
#737=CARTESIAN_POINT('',(-0.0500000000000007,-0.506,-1.02));
#738=CARTESIAN_POINT('',(-1.02627089339341,-0.506,-1.02));
#739=CARTESIAN_POINT('',(-0.0500000000000007,-0.506,-1.02));
#740=CARTESIAN_POINT('',(-0.0500000000000007,-0.506,0.));
#741=CARTESIAN_POINT('',(-0.0500000000000007,-0.76,0.));
#742=CARTESIAN_POINT('',(-0.0500000000000007,-0.76,-1.02));
#743=CARTESIAN_POINT('',(-0.0500000000000007,-0.76,-1.02));
#744=CARTESIAN_POINT('',(-0.0500000000000007,-0.506,-1.02));
#745=CARTESIAN_POINT('',(-1.1,-0.76,-1.02));
#746=CARTESIAN_POINT('',(-1.1,-0.76,0.));
#747=CARTESIAN_POINT('',(-1.1,-0.76,0.));
#748=CARTESIAN_POINT('',(-1.1,-0.76,-1.02));
#749=CARTESIAN_POINT('',(-1.1,-0.76,-1.02));
#750=CARTESIAN_POINT('',(-1.1,-0.76,-1.02));
#751=CARTESIAN_POINT('',(-1.1,-0.506,-1.02));
#752=CARTESIAN_POINT('',(-1.1,-0.506,0.));
#753=CARTESIAN_POINT('',(-1.3376730336549,-0.416403520865618,0.));
#754=CARTESIAN_POINT('',(-1.3376730336549,-0.416403520865618,-1.02));
#755=CARTESIAN_POINT('',(-1.3376730336549,-0.416403520865618,-1.02));
#756=CARTESIAN_POINT('',(-1.1,-0.506,-1.02));
#757=CARTESIAN_POINT('',(-0.956175665233837,0.595596479134376,-1.02));
#758=CARTESIAN_POINT('',(-0.956175665233837,0.595596479134376,0.));
#759=CARTESIAN_POINT('',(-0.956175665233837,0.595596479134376,0.));
#760=CARTESIAN_POINT('',(-0.956175665233837,0.595596479134376,-1.02));
#761=CARTESIAN_POINT('',(-0.956175665233837,0.595596479134376,-1.02));
#762=CARTESIAN_POINT('',(-0.956175665233837,0.595596479134376,-1.02));
#763=CARTESIAN_POINT('',(-0.718502631578949,0.506,-1.02));
#764=CARTESIAN_POINT('',(-0.718502631578949,0.506,0.));
#765=CARTESIAN_POINT('',(-0.71850263157894,0.759999999999993,0.));
#766=CARTESIAN_POINT('',(-0.71850263157894,0.759999999999993,-1.02));
#767=CARTESIAN_POINT('',(-0.71850263157894,0.759999999999993,-1.02));
#768=CARTESIAN_POINT('',(-0.718502631578949,0.506,-1.02));
#769=CARTESIAN_POINT('',(-0.71850263157894,0.759999999999996,-1.02));
#770=CARTESIAN_POINT('',(-0.71850263157894,0.759999999999996,0.));
#771=CARTESIAN_POINT('',(-0.71850263157894,0.759999999999996,-1.02));
#772=CARTESIAN_POINT('',(0.718502631578952,0.506000000000003,-1.02));
#773=CARTESIAN_POINT('',(0.718502631578952,0.506000000000003,0.));
#774=AXIS2_PLACEMENT_3D('',#639,#518,#517);
#775=AXIS2_PLACEMENT_3D('',#640,#519,#520);
#776=AXIS2_PLACEMENT_3D('',#641,#521,#522);
#777=AXIS2_PLACEMENT_3D('',#646,#524,#525);
#778=AXIS2_PLACEMENT_3D('',#649,#527,#528);
#779=AXIS2_PLACEMENT_3D('',#650,#529,#530);
#780=AXIS2_PLACEMENT_3D('',#655,#532,#533);
#781=AXIS2_PLACEMENT_3D('',#658,#535,#536);
#782=AXIS2_PLACEMENT_3D('',#659,#537,#538);
#783=AXIS2_PLACEMENT_3D('',#664,#540,#541);
#784=AXIS2_PLACEMENT_3D('',#667,#543,$);
#785=AXIS2_PLACEMENT_3D('',#673,#547,#548);
#786=AXIS2_PLACEMENT_3D('',#674,#549,#550);
#787=AXIS2_PLACEMENT_3D('',#675,#551,#552);
#788=AXIS2_PLACEMENT_3D('',#676,#553,$);
#789=AXIS2_PLACEMENT_3D('',#682,#557,$);
#790=AXIS2_PLACEMENT_3D('',#688,#561,$);
#791=AXIS2_PLACEMENT_3D('',#694,#565,#566);
#792=AXIS2_PLACEMENT_3D('',#695,#567,#568);
#793=AXIS2_PLACEMENT_3D('',#696,#569,#570);
#794=AXIS2_PLACEMENT_3D('',#697,#571,$);
#795=AXIS2_PLACEMENT_3D('',#703,#575,#576);
#796=AXIS2_PLACEMENT_3D('',#704,#577,#578);
#797=AXIS2_PLACEMENT_3D('',#708,#580,#581);
#798=AXIS2_PLACEMENT_3D('',#709,#582,$);
#799=AXIS2_PLACEMENT_3D('',#715,#586,#587);
#800=AXIS2_PLACEMENT_3D('',#716,#588,#589);
#801=AXIS2_PLACEMENT_3D('',#720,#591,#592);
#802=AXIS2_PLACEMENT_3D('',#721,#593,$);
#803=AXIS2_PLACEMENT_3D('',#727,#597,#598);
#804=AXIS2_PLACEMENT_3D('',#728,#599,#600);
#805=AXIS2_PLACEMENT_3D('',#732,#602,#603);
#806=AXIS2_PLACEMENT_3D('',#733,#604,$);
#807=AXIS2_PLACEMENT_3D('',#739,#608,$);
#808=AXIS2_PLACEMENT_3D('',#745,#612,$);
#809=AXIS2_PLACEMENT_3D('',#751,#616,#617);
#810=AXIS2_PLACEMENT_3D('',#752,#618,#619);
#811=AXIS2_PLACEMENT_3D('',#756,#621,#622);
#812=AXIS2_PLACEMENT_3D('',#757,#623,$);
#813=AXIS2_PLACEMENT_3D('',#763,#627,#628);
#814=AXIS2_PLACEMENT_3D('',#764,#629,#630);
#815=AXIS2_PLACEMENT_3D('',#768,#632,#633);
#816=AXIS2_PLACEMENT_3D('',#769,#634,$);
#817=AXIS2_PLACEMENT_3D('',#772,#637,$);
#818=AXIS2_PLACEMENT_3D('',#773,#638,$);
#819=ADVANCED_BREP_SHAPE_REPRESENTATION('',(#516,#774),#64);
ENDSEC;
END-ISO-10303-21;
