ISO-10303-21;
HEADER;
/* Generated by software containing ST-Developer
 * from STEP Tools, Inc. (www.steptools.com) 
 */

FILE_DESCRIPTION(
/* description */ ('Alibre Inc.'),
/* implementation_level */ '2;1');

FILE_NAME(
/* name */ 'export0',
/* time_stamp */ '2012-07-11T15:04:39-07:00',
/* author */ (''),
/* organization */ (''),
/* preprocessor_version */ 'ST-DEVELOPER v14',
/* originating_system */ 'Alibre',
/* authorisation */ '');

FILE_SCHEMA (('AUTOMOTIVE_DESIGN'));
ENDSEC;

DATA;
#10=STYLED_ITEM('NAME_0',(#18),#140);
#11=MECHANICAL_DESIGN_GEOMETRIC_PRESENTATION_REPRESENTATION('NAME_0',(#10),
#36);
#12=COLOUR_RGB('',0.231372549019608,0.231372549019608,0.231372549019608);
#13=FILL_AREA_STYLE_COLOUR('NAME_0',#12);
#14=FILL_AREA_STYLE('NAME_0',(#13));
#15=SURFACE_STYLE_FILL_AREA(#14);
#16=SURFACE_SIDE_STYLE('NAME_0',(#15));
#17=SURFACE_STYLE_USAGE(.POSITIVE.,#16);
#18=PRESENTATION_STYLE_ASSIGNMENT((#17));
#19=PRODUCT_DEFINITION_CONTEXT('part definition',#26,'design');
#20=SHAPE_DEFINITION_REPRESENTATION(#21,#141);
#21=PRODUCT_DEFINITION_SHAPE('PRODUCT_VERSION_ID',
'PRODUCT_VERSION_DESCR',#22);
#22=PRODUCT_DEFINITION('PRODUCT_VERSION_ID','PRODUCT_VERSION_DESCR',#23,
#19);
#23=PRODUCT_DEFINITION_FORMATION_WITH_SPECIFIED_SOURCE(
'PRODUCT_VERSION_ID','PRODUCT_VERSION_DESCR',#28,.MADE.);
#24=PRODUCT_RELATED_PRODUCT_CATEGORY('part','part',(#28));
#25=APPLICATION_PROTOCOL_DEFINITION('Draft International Standard',
'automotive_design',1994,#26);
#26=APPLICATION_CONTEXT('automotive_Design');
#27=PRODUCT_CONTEXT('3D Mechanical Parts',#26,'mechanical');
#28=PRODUCT('','SJxxA1','',(#27));
#29=(
LENGTH_UNIT()
NAMED_UNIT(*)
SI_UNIT(.CENTI.,.METRE.)
);
#30=DIMENSIONAL_EXPONENTS(1.,0.,0.,0.,0.,0.,0.);
#31=LENGTH_MEASURE_WITH_UNIT(LENGTH_MEASURE(2.54),#29);
#32=(
CONVERSION_BASED_UNIT('INCH',#31)
LENGTH_UNIT()
NAMED_UNIT(#30)
);
#33=(
NAMED_UNIT(*)
PLANE_ANGLE_UNIT()
SI_UNIT($,.RADIAN.)
);
#34=(
NAMED_UNIT(*)
SI_UNIT($,.STERADIAN.)
SOLID_ANGLE_UNIT()
);
#35=UNCERTAINTY_MEASURE_WITH_UNIT(LENGTH_MEASURE(1.E-006),#32,
'DISTANCE_ACCURACY_VALUE',
'Maximum model space distance between geometric entities at asserted co
nnectivities');
#36=(
GEOMETRIC_REPRESENTATION_CONTEXT(3)
GLOBAL_UNCERTAINTY_ASSIGNED_CONTEXT((#35))
GLOBAL_UNIT_ASSIGNED_CONTEXT((#34,#33,#32))
REPRESENTATION_CONTEXT('ID1','3D')
);
#37=CONICAL_SURFACE('',#101,0.142039566638549,0.0558505359999989);
#38=TOROIDAL_SURFACE('',#99,0.108110317993459,0.03);
#39=TOROIDAL_SURFACE('',#103,0.156,0.01);
#40=PLANE('',#96);
#41=PLANE('',#97);
#42=VERTEX_POINT('',#124);
#43=VERTEX_POINT('',#126);
#44=VERTEX_POINT('',#130);
#45=VERTEX_POINT('',#133);
#46=VERTEX_POINT('',#136);
#47=CIRCLE('',#94,0.156);
#48=CIRCLE('',#95,0.156);
#49=CIRCLE('',#98,0.108110317993459);
#50=CIRCLE('',#100,0.138063540918918);
#51=CIRCLE('',#102,0.14601559235818);
#52=EDGE_CURVE('',#42,#42,#47,.T.);
#53=EDGE_CURVE('',#43,#43,#48,.T.);
#54=EDGE_CURVE('',#44,#44,#49,.T.);
#55=EDGE_CURVE('',#45,#45,#50,.T.);
#56=EDGE_CURVE('',#46,#46,#51,.T.);
#57=ORIENTED_EDGE('',*,*,#52,.F.);
#58=ORIENTED_EDGE('',*,*,#53,.T.);
#59=ORIENTED_EDGE('',*,*,#52,.T.);
#60=ORIENTED_EDGE('',*,*,#54,.F.);
#61=ORIENTED_EDGE('',*,*,#55,.F.);
#62=ORIENTED_EDGE('',*,*,#54,.T.);
#63=ORIENTED_EDGE('',*,*,#56,.F.);
#64=ORIENTED_EDGE('',*,*,#55,.T.);
#65=ORIENTED_EDGE('',*,*,#53,.F.);
#66=ORIENTED_EDGE('',*,*,#56,.T.);
#67=EDGE_LOOP('',(#57));
#68=EDGE_LOOP('',(#58));
#69=EDGE_LOOP('',(#59));
#70=EDGE_LOOP('',(#60));
#71=EDGE_LOOP('',(#61));
#72=EDGE_LOOP('',(#62));
#73=EDGE_LOOP('',(#63));
#74=EDGE_LOOP('',(#64));
#75=EDGE_LOOP('',(#65));
#76=EDGE_LOOP('',(#66));
#77=FACE_BOUND('',#67,.T.);
#78=FACE_BOUND('',#68,.T.);
#79=FACE_BOUND('',#69,.T.);
#80=FACE_BOUND('',#70,.T.);
#81=FACE_BOUND('',#71,.T.);
#82=FACE_BOUND('',#72,.T.);
#83=FACE_BOUND('',#73,.T.);
#84=FACE_BOUND('',#74,.T.);
#85=FACE_BOUND('',#75,.T.);
#86=FACE_BOUND('',#76,.T.);
#87=ADVANCED_FACE('',(#77,#78),#138,.T.);
#88=ADVANCED_FACE('',(#79),#40,.T.);
#89=ADVANCED_FACE('',(#80),#41,.T.);
#90=ADVANCED_FACE('',(#81,#82),#38,.T.);
#91=ADVANCED_FACE('',(#83,#84),#37,.T.);
#92=ADVANCED_FACE('',(#85,#86),#39,.F.);
#93=AXIS2_PLACEMENT_3D('',#122,#104,#105);
#94=AXIS2_PLACEMENT_3D('',#123,#106,#107);
#95=AXIS2_PLACEMENT_3D('',#125,#108,#109);
#96=AXIS2_PLACEMENT_3D('',#127,#110,$);
#97=AXIS2_PLACEMENT_3D('',#128,#111,$);
#98=AXIS2_PLACEMENT_3D('',#129,#112,#113);
#99=AXIS2_PLACEMENT_3D('',#131,#114,$);
#100=AXIS2_PLACEMENT_3D('',#132,#115,#116);
#101=AXIS2_PLACEMENT_3D('',#134,#117,#118);
#102=AXIS2_PLACEMENT_3D('',#135,#119,#120);
#103=AXIS2_PLACEMENT_3D('',#137,#121,$);
#104=DIRECTION('',(3.061516E-016,-1.,0.));
#105=DIRECTION('',(0.156,4.77596496E-017,0.));
#106=DIRECTION('',(0.,-1.,0.));
#107=DIRECTION('',(0.156,0.,0.));
#108=DIRECTION('',(0.,-1.,0.));
#109=DIRECTION('',(0.156,0.,0.));
#110=DIRECTION('',(0.,-1.,0.));
#111=DIRECTION('',(0.,1.,0.));
#112=DIRECTION('',(0.,-1.,0.));
#113=DIRECTION('',(0.108110317993459,0.,0.));
#114=DIRECTION('',(3.061516E-016,-1.,0.));
#115=DIRECTION('',(0.,-1.,0.));
#116=DIRECTION('',(0.138063540918918,0.,0.));
#117=DIRECTION('',(3.061516E-016,-1.,0.));
#118=DIRECTION('',(0.142039566638549,4.34856405896984E-017,0.));
#119=DIRECTION('',(0.,-1.,0.));
#120=DIRECTION('',(0.14601559235818,0.,0.));
#121=DIRECTION('',(3.061516E-016,-1.,0.));
#122=CARTESIAN_POINT('',(-3.061516E-018,0.01,0.));
#123=CARTESIAN_POINT('',(0.,0.,0.));
#124=CARTESIAN_POINT('',(0.156,0.,0.));
#125=CARTESIAN_POINT('',(-6.123032E-018,0.02,0.));
#126=CARTESIAN_POINT('',(0.156,0.02,0.));
#127=CARTESIAN_POINT('',(0.078,0.,0.));
#128=CARTESIAN_POINT('',(0.054055158996729,0.2,0.));
#129=CARTESIAN_POINT('',(-6.123032E-017,0.2,0.));
#130=CARTESIAN_POINT('',(0.108110317993459,0.2,0.));
#131=CARTESIAN_POINT('',(-4.370957E-017,0.17,0.));
#132=CARTESIAN_POINT('',(-5.255847E-017,0.171674645149795,0.));
#133=CARTESIAN_POINT('',(0.138063540918918,0.171674645149795,0.));
#134=CARTESIAN_POINT('',(-3.078606E-017,0.100558215049932,0.));
#135=CARTESIAN_POINT('',(-9.013649E-018,0.029441784950068,0.));
#136=CARTESIAN_POINT('',(0.14601559235818,0.029441784950068,0.));
#137=CARTESIAN_POINT('',(0.,0.03,0.));
#138=CYLINDRICAL_SURFACE('',#93,0.156);
#139=CLOSED_SHELL('',(#87,#88,#89,#90,#91,#92));
#140=MANIFOLD_SOLID_BREP('',#139);
#141=ADVANCED_BREP_SHAPE_REPRESENTATION('',(#140),#36);
ENDSEC;
END-ISO-10303-21;
