ISO-10303-21;
HEADER;
/* Generated by software containing ST-Developer
 * from STEP Tools, Inc. (www.steptools.com) 
 */

FILE_DESCRIPTION(
/* description */ ('Alibre Inc.'),
/* implementation_level */ '2;1');

FILE_NAME(
/* name */ 'export0',
/* time_stamp */ '2013-05-22T10:57:35-07:00',
/* author */ (''),
/* organization */ (''),
/* preprocessor_version */ 'ST-DEVELOPER v14',
/* originating_system */ 'Alibre',
/* authorisation */ '');

FILE_SCHEMA (('AUTOMOTIVE_DESIGN'));
ENDSEC;

DATA;
#10=STYLED_ITEM('NAME_0',(#18),#512);
#11=MECHANICAL_DESIGN_GEOMETRIC_PRESENTATION_REPRESENTATION('NAME_0',(#10),
#36);
#12=COLOUR_RGB('',0.752941176470588,0.752941176470588,0.752941176470588);
#13=FILL_AREA_STYLE_COLOUR('NAME_0',#12);
#14=FILL_AREA_STYLE('NAME_0',(#13));
#15=SURFACE_STYLE_FILL_AREA(#14);
#16=SURFACE_SIDE_STYLE('NAME_0',(#15));
#17=SURFACE_STYLE_USAGE(.POSITIVE.,#16);
#18=PRESENTATION_STYLE_ASSIGNMENT((#17));
#19=PRODUCT_DEFINITION_CONTEXT('part definition',#26,'design');
#20=SHAPE_DEFINITION_REPRESENTATION(#21,#765);
#21=PRODUCT_DEFINITION_SHAPE('PRODUCT_VERSION_ID',
'PRODUCT_VERSION_DESCR',#22);
#22=PRODUCT_DEFINITION('PRODUCT_VERSION_ID','PRODUCT_VERSION_DESCR',#23,
#19);
#23=PRODUCT_DEFINITION_FORMATION_WITH_SPECIFIED_SOURCE(
'PRODUCT_VERSION_ID','PRODUCT_VERSION_DESCR',#28,.MADE.);
#24=PRODUCT_RELATED_PRODUCT_CATEGORY('part','part',(#28));
#25=APPLICATION_PROTOCOL_DEFINITION('Draft International Standard',
'automotive_design',1994,#26);
#26=APPLICATION_CONTEXT('automotive_Design');
#27=PRODUCT_CONTEXT('3D Mechanical Parts',#26,'mechanical');
#28=PRODUCT('','Keystone_1040','',(#27));
#29=(
LENGTH_UNIT()
NAMED_UNIT(*)
SI_UNIT(.CENTI.,.METRE.)
);
#30=DIMENSIONAL_EXPONENTS(1.,0.,0.,0.,0.,0.,0.);
#31=LENGTH_MEASURE_WITH_UNIT(LENGTH_MEASURE(2.54),#29);
#32=(
CONVERSION_BASED_UNIT('INCH',#31)
LENGTH_UNIT()
NAMED_UNIT(#30)
);
#33=(
NAMED_UNIT(*)
PLANE_ANGLE_UNIT()
SI_UNIT($,.RADIAN.)
);
#34=(
NAMED_UNIT(*)
SI_UNIT($,.STERADIAN.)
SOLID_ANGLE_UNIT()
);
#35=UNCERTAINTY_MEASURE_WITH_UNIT(LENGTH_MEASURE(1.E-006),#32,
'DISTANCE_ACCURACY_VALUE',
'Maximum model space distance between geometric entities at asserted co
nnectivities');
#36=(
GEOMETRIC_REPRESENTATION_CONTEXT(3)
GLOBAL_UNCERTAINTY_ASSIGNED_CONTEXT((#35))
GLOBAL_UNIT_ASSIGNED_CONTEXT((#34,#33,#32))
REPRESENTATION_CONTEXT('ID1','3D')
);
#37=VERTEX_POINT('',#608);
#38=VERTEX_POINT('',#609);
#39=VERTEX_POINT('',#611);
#40=VERTEX_POINT('',#613);
#41=VERTEX_POINT('',#615);
#42=VERTEX_POINT('',#617);
#43=VERTEX_POINT('',#619);
#44=VERTEX_POINT('',#621);
#45=VERTEX_POINT('',#623);
#46=VERTEX_POINT('',#625);
#47=VERTEX_POINT('',#627);
#48=VERTEX_POINT('',#629);
#49=VERTEX_POINT('',#631);
#50=VERTEX_POINT('',#633);
#51=VERTEX_POINT('',#635);
#52=VERTEX_POINT('',#637);
#53=VERTEX_POINT('',#639);
#54=VERTEX_POINT('',#641);
#55=VERTEX_POINT('',#644);
#56=VERTEX_POINT('',#645);
#57=VERTEX_POINT('',#647);
#58=VERTEX_POINT('',#649);
#59=VERTEX_POINT('',#653);
#60=VERTEX_POINT('',#654);
#61=VERTEX_POINT('',#656);
#62=VERTEX_POINT('',#658);
#63=VERTEX_POINT('',#660);
#64=VERTEX_POINT('',#662);
#65=VERTEX_POINT('',#664);
#66=VERTEX_POINT('',#666);
#67=VERTEX_POINT('',#668);
#68=VERTEX_POINT('',#670);
#69=VERTEX_POINT('',#672);
#70=VERTEX_POINT('',#674);
#71=VERTEX_POINT('',#676);
#72=VERTEX_POINT('',#678);
#73=VERTEX_POINT('',#680);
#74=VERTEX_POINT('',#682);
#75=VERTEX_POINT('',#684);
#76=VERTEX_POINT('',#686);
#77=VERTEX_POINT('',#689);
#78=VERTEX_POINT('',#690);
#79=VERTEX_POINT('',#692);
#80=VERTEX_POINT('',#694);
#81=VECTOR('',#516,1.);
#82=VECTOR('',#517,1.);
#83=VECTOR('',#518,1.);
#84=VECTOR('',#519,1.);
#85=VECTOR('',#520,1.);
#86=VECTOR('',#521,1.);
#87=VECTOR('',#522,1.);
#88=VECTOR('',#523,1.);
#89=VECTOR('',#524,1.);
#90=VECTOR('',#525,1.);
#91=VECTOR('',#526,1.);
#92=VECTOR('',#527,1.);
#93=VECTOR('',#528,1.);
#94=VECTOR('',#529,1.);
#95=VECTOR('',#530,1.);
#96=VECTOR('',#531,1.);
#97=VECTOR('',#532,1.);
#98=VECTOR('',#533,1.);
#99=VECTOR('',#534,1.);
#100=VECTOR('',#535,1.);
#101=VECTOR('',#536,1.);
#102=VECTOR('',#537,1.);
#103=VECTOR('',#539,1.);
#104=VECTOR('',#540,1.);
#105=VECTOR('',#541,1.);
#106=VECTOR('',#542,1.);
#107=VECTOR('',#543,1.);
#108=VECTOR('',#544,1.);
#109=VECTOR('',#545,1.);
#110=VECTOR('',#546,1.);
#111=VECTOR('',#547,1.);
#112=VECTOR('',#548,1.);
#113=VECTOR('',#549,1.);
#114=VECTOR('',#550,1.);
#115=VECTOR('',#551,1.);
#116=VECTOR('',#552,1.);
#117=VECTOR('',#553,1.);
#118=VECTOR('',#554,1.);
#119=VECTOR('',#555,1.);
#120=VECTOR('',#556,1.);
#121=VECTOR('',#557,1.);
#122=VECTOR('',#558,1.);
#123=VECTOR('',#559,1.);
#124=VECTOR('',#560,1.);
#125=VECTOR('',#562,1.);
#126=VECTOR('',#563,1.);
#127=VECTOR('',#565,1.);
#128=VECTOR('',#567,1.);
#129=VECTOR('',#569,1.);
#130=VECTOR('',#571,1.);
#131=VECTOR('',#573,1.);
#132=VECTOR('',#575,1.);
#133=VECTOR('',#577,1.);
#134=VECTOR('',#579,1.);
#135=VECTOR('',#581,1.);
#136=VECTOR('',#583,1.);
#137=VECTOR('',#585,1.);
#138=VECTOR('',#587,1.);
#139=VECTOR('',#589,1.);
#140=VECTOR('',#591,1.);
#141=VECTOR('',#593,1.);
#142=VECTOR('',#595,1.);
#143=VECTOR('',#598,1.);
#144=VECTOR('',#599,1.);
#145=VECTOR('',#601,1.);
#146=VECTOR('',#603,1.);
#147=LINE('',#607,#81);
#148=LINE('',#610,#82);
#149=LINE('',#612,#83);
#150=LINE('',#614,#84);
#151=LINE('',#616,#85);
#152=LINE('',#618,#86);
#153=LINE('',#620,#87);
#154=LINE('',#622,#88);
#155=LINE('',#624,#89);
#156=LINE('',#626,#90);
#157=LINE('',#628,#91);
#158=LINE('',#630,#92);
#159=LINE('',#632,#93);
#160=LINE('',#634,#94);
#161=LINE('',#636,#95);
#162=LINE('',#638,#96);
#163=LINE('',#640,#97);
#164=LINE('',#642,#98);
#165=LINE('',#643,#99);
#166=LINE('',#646,#100);
#167=LINE('',#648,#101);
#168=LINE('',#650,#102);
#169=LINE('',#652,#103);
#170=LINE('',#655,#104);
#171=LINE('',#657,#105);
#172=LINE('',#659,#106);
#173=LINE('',#661,#107);
#174=LINE('',#663,#108);
#175=LINE('',#665,#109);
#176=LINE('',#667,#110);
#177=LINE('',#669,#111);
#178=LINE('',#671,#112);
#179=LINE('',#673,#113);
#180=LINE('',#675,#114);
#181=LINE('',#677,#115);
#182=LINE('',#679,#116);
#183=LINE('',#681,#117);
#184=LINE('',#683,#118);
#185=LINE('',#685,#119);
#186=LINE('',#687,#120);
#187=LINE('',#688,#121);
#188=LINE('',#691,#122);
#189=LINE('',#693,#123);
#190=LINE('',#695,#124);
#191=LINE('',#697,#125);
#192=LINE('',#698,#126);
#193=LINE('',#700,#127);
#194=LINE('',#702,#128);
#195=LINE('',#704,#129);
#196=LINE('',#706,#130);
#197=LINE('',#708,#131);
#198=LINE('',#710,#132);
#199=LINE('',#712,#133);
#200=LINE('',#714,#134);
#201=LINE('',#716,#135);
#202=LINE('',#718,#136);
#203=LINE('',#720,#137);
#204=LINE('',#722,#138);
#205=LINE('',#724,#139);
#206=LINE('',#726,#140);
#207=LINE('',#728,#141);
#208=LINE('',#730,#142);
#209=LINE('',#733,#143);
#210=LINE('',#734,#144);
#211=LINE('',#736,#145);
#212=LINE('',#738,#146);
#213=EDGE_CURVE('',#37,#38,#147,.T.);
#214=EDGE_CURVE('',#38,#39,#148,.T.);
#215=EDGE_CURVE('',#39,#40,#149,.T.);
#216=EDGE_CURVE('',#40,#41,#150,.T.);
#217=EDGE_CURVE('',#41,#42,#151,.T.);
#218=EDGE_CURVE('',#42,#43,#152,.T.);
#219=EDGE_CURVE('',#43,#44,#153,.T.);
#220=EDGE_CURVE('',#44,#45,#154,.T.);
#221=EDGE_CURVE('',#45,#46,#155,.T.);
#222=EDGE_CURVE('',#46,#47,#156,.T.);
#223=EDGE_CURVE('',#47,#48,#157,.T.);
#224=EDGE_CURVE('',#48,#49,#158,.T.);
#225=EDGE_CURVE('',#49,#50,#159,.T.);
#226=EDGE_CURVE('',#50,#51,#160,.T.);
#227=EDGE_CURVE('',#51,#52,#161,.T.);
#228=EDGE_CURVE('',#52,#53,#162,.T.);
#229=EDGE_CURVE('',#53,#54,#163,.T.);
#230=EDGE_CURVE('',#54,#37,#164,.T.);
#231=EDGE_CURVE('',#55,#56,#165,.T.);
#232=EDGE_CURVE('',#57,#55,#166,.T.);
#233=EDGE_CURVE('',#58,#57,#167,.T.);
#234=EDGE_CURVE('',#56,#58,#168,.T.);
#235=EDGE_CURVE('',#59,#60,#169,.T.);
#236=EDGE_CURVE('',#61,#59,#170,.T.);
#237=EDGE_CURVE('',#62,#61,#171,.T.);
#238=EDGE_CURVE('',#63,#62,#172,.T.);
#239=EDGE_CURVE('',#64,#63,#173,.T.);
#240=EDGE_CURVE('',#65,#64,#174,.T.);
#241=EDGE_CURVE('',#66,#65,#175,.T.);
#242=EDGE_CURVE('',#67,#66,#176,.T.);
#243=EDGE_CURVE('',#68,#67,#177,.T.);
#244=EDGE_CURVE('',#69,#68,#178,.T.);
#245=EDGE_CURVE('',#70,#69,#179,.T.);
#246=EDGE_CURVE('',#71,#70,#180,.T.);
#247=EDGE_CURVE('',#72,#71,#181,.T.);
#248=EDGE_CURVE('',#73,#72,#182,.T.);
#249=EDGE_CURVE('',#74,#73,#183,.T.);
#250=EDGE_CURVE('',#75,#74,#184,.T.);
#251=EDGE_CURVE('',#76,#75,#185,.T.);
#252=EDGE_CURVE('',#60,#76,#186,.T.);
#253=EDGE_CURVE('',#77,#78,#187,.T.);
#254=EDGE_CURVE('',#78,#79,#188,.T.);
#255=EDGE_CURVE('',#79,#80,#189,.T.);
#256=EDGE_CURVE('',#80,#77,#190,.T.);
#257=EDGE_CURVE('',#38,#60,#191,.T.);
#258=EDGE_CURVE('',#37,#59,#192,.T.);
#259=EDGE_CURVE('',#39,#76,#193,.T.);
#260=EDGE_CURVE('',#40,#75,#194,.T.);
#261=EDGE_CURVE('',#41,#74,#195,.T.);
#262=EDGE_CURVE('',#42,#73,#196,.T.);
#263=EDGE_CURVE('',#43,#72,#197,.T.);
#264=EDGE_CURVE('',#44,#71,#198,.T.);
#265=EDGE_CURVE('',#45,#70,#199,.T.);
#266=EDGE_CURVE('',#46,#69,#200,.T.);
#267=EDGE_CURVE('',#47,#68,#201,.T.);
#268=EDGE_CURVE('',#48,#67,#202,.T.);
#269=EDGE_CURVE('',#49,#66,#203,.T.);
#270=EDGE_CURVE('',#50,#65,#204,.T.);
#271=EDGE_CURVE('',#51,#64,#205,.T.);
#272=EDGE_CURVE('',#52,#63,#206,.T.);
#273=EDGE_CURVE('',#53,#62,#207,.T.);
#274=EDGE_CURVE('',#54,#61,#208,.T.);
#275=EDGE_CURVE('',#55,#78,#209,.T.);
#276=EDGE_CURVE('',#56,#79,#210,.T.);
#277=EDGE_CURVE('',#58,#80,#211,.T.);
#278=EDGE_CURVE('',#57,#77,#212,.T.);
#279=ORIENTED_EDGE('',*,*,#213,.T.);
#280=ORIENTED_EDGE('',*,*,#214,.T.);
#281=ORIENTED_EDGE('',*,*,#215,.T.);
#282=ORIENTED_EDGE('',*,*,#216,.T.);
#283=ORIENTED_EDGE('',*,*,#217,.T.);
#284=ORIENTED_EDGE('',*,*,#218,.T.);
#285=ORIENTED_EDGE('',*,*,#219,.T.);
#286=ORIENTED_EDGE('',*,*,#220,.T.);
#287=ORIENTED_EDGE('',*,*,#221,.T.);
#288=ORIENTED_EDGE('',*,*,#222,.T.);
#289=ORIENTED_EDGE('',*,*,#223,.T.);
#290=ORIENTED_EDGE('',*,*,#224,.T.);
#291=ORIENTED_EDGE('',*,*,#225,.T.);
#292=ORIENTED_EDGE('',*,*,#226,.T.);
#293=ORIENTED_EDGE('',*,*,#227,.T.);
#294=ORIENTED_EDGE('',*,*,#228,.T.);
#295=ORIENTED_EDGE('',*,*,#229,.T.);
#296=ORIENTED_EDGE('',*,*,#230,.T.);
#297=ORIENTED_EDGE('',*,*,#231,.F.);
#298=ORIENTED_EDGE('',*,*,#232,.F.);
#299=ORIENTED_EDGE('',*,*,#233,.F.);
#300=ORIENTED_EDGE('',*,*,#234,.F.);
#301=ORIENTED_EDGE('',*,*,#235,.F.);
#302=ORIENTED_EDGE('',*,*,#236,.F.);
#303=ORIENTED_EDGE('',*,*,#237,.F.);
#304=ORIENTED_EDGE('',*,*,#238,.F.);
#305=ORIENTED_EDGE('',*,*,#239,.F.);
#306=ORIENTED_EDGE('',*,*,#240,.F.);
#307=ORIENTED_EDGE('',*,*,#241,.F.);
#308=ORIENTED_EDGE('',*,*,#242,.F.);
#309=ORIENTED_EDGE('',*,*,#243,.F.);
#310=ORIENTED_EDGE('',*,*,#244,.F.);
#311=ORIENTED_EDGE('',*,*,#245,.F.);
#312=ORIENTED_EDGE('',*,*,#246,.F.);
#313=ORIENTED_EDGE('',*,*,#247,.F.);
#314=ORIENTED_EDGE('',*,*,#248,.F.);
#315=ORIENTED_EDGE('',*,*,#249,.F.);
#316=ORIENTED_EDGE('',*,*,#250,.F.);
#317=ORIENTED_EDGE('',*,*,#251,.F.);
#318=ORIENTED_EDGE('',*,*,#252,.F.);
#319=ORIENTED_EDGE('',*,*,#253,.T.);
#320=ORIENTED_EDGE('',*,*,#254,.T.);
#321=ORIENTED_EDGE('',*,*,#255,.T.);
#322=ORIENTED_EDGE('',*,*,#256,.T.);
#323=ORIENTED_EDGE('',*,*,#235,.T.);
#324=ORIENTED_EDGE('',*,*,#257,.F.);
#325=ORIENTED_EDGE('',*,*,#213,.F.);
#326=ORIENTED_EDGE('',*,*,#258,.T.);
#327=ORIENTED_EDGE('',*,*,#252,.T.);
#328=ORIENTED_EDGE('',*,*,#259,.F.);
#329=ORIENTED_EDGE('',*,*,#214,.F.);
#330=ORIENTED_EDGE('',*,*,#257,.T.);
#331=ORIENTED_EDGE('',*,*,#251,.T.);
#332=ORIENTED_EDGE('',*,*,#260,.F.);
#333=ORIENTED_EDGE('',*,*,#215,.F.);
#334=ORIENTED_EDGE('',*,*,#259,.T.);
#335=ORIENTED_EDGE('',*,*,#250,.T.);
#336=ORIENTED_EDGE('',*,*,#261,.F.);
#337=ORIENTED_EDGE('',*,*,#216,.F.);
#338=ORIENTED_EDGE('',*,*,#260,.T.);
#339=ORIENTED_EDGE('',*,*,#249,.T.);
#340=ORIENTED_EDGE('',*,*,#262,.F.);
#341=ORIENTED_EDGE('',*,*,#217,.F.);
#342=ORIENTED_EDGE('',*,*,#261,.T.);
#343=ORIENTED_EDGE('',*,*,#248,.T.);
#344=ORIENTED_EDGE('',*,*,#263,.F.);
#345=ORIENTED_EDGE('',*,*,#218,.F.);
#346=ORIENTED_EDGE('',*,*,#262,.T.);
#347=ORIENTED_EDGE('',*,*,#247,.T.);
#348=ORIENTED_EDGE('',*,*,#264,.F.);
#349=ORIENTED_EDGE('',*,*,#219,.F.);
#350=ORIENTED_EDGE('',*,*,#263,.T.);
#351=ORIENTED_EDGE('',*,*,#246,.T.);
#352=ORIENTED_EDGE('',*,*,#265,.F.);
#353=ORIENTED_EDGE('',*,*,#220,.F.);
#354=ORIENTED_EDGE('',*,*,#264,.T.);
#355=ORIENTED_EDGE('',*,*,#245,.T.);
#356=ORIENTED_EDGE('',*,*,#266,.F.);
#357=ORIENTED_EDGE('',*,*,#221,.F.);
#358=ORIENTED_EDGE('',*,*,#265,.T.);
#359=ORIENTED_EDGE('',*,*,#244,.T.);
#360=ORIENTED_EDGE('',*,*,#267,.F.);
#361=ORIENTED_EDGE('',*,*,#222,.F.);
#362=ORIENTED_EDGE('',*,*,#266,.T.);
#363=ORIENTED_EDGE('',*,*,#243,.T.);
#364=ORIENTED_EDGE('',*,*,#268,.F.);
#365=ORIENTED_EDGE('',*,*,#223,.F.);
#366=ORIENTED_EDGE('',*,*,#267,.T.);
#367=ORIENTED_EDGE('',*,*,#242,.T.);
#368=ORIENTED_EDGE('',*,*,#269,.F.);
#369=ORIENTED_EDGE('',*,*,#224,.F.);
#370=ORIENTED_EDGE('',*,*,#268,.T.);
#371=ORIENTED_EDGE('',*,*,#241,.T.);
#372=ORIENTED_EDGE('',*,*,#270,.F.);
#373=ORIENTED_EDGE('',*,*,#225,.F.);
#374=ORIENTED_EDGE('',*,*,#269,.T.);
#375=ORIENTED_EDGE('',*,*,#240,.T.);
#376=ORIENTED_EDGE('',*,*,#271,.F.);
#377=ORIENTED_EDGE('',*,*,#226,.F.);
#378=ORIENTED_EDGE('',*,*,#270,.T.);
#379=ORIENTED_EDGE('',*,*,#239,.T.);
#380=ORIENTED_EDGE('',*,*,#272,.F.);
#381=ORIENTED_EDGE('',*,*,#227,.F.);
#382=ORIENTED_EDGE('',*,*,#271,.T.);
#383=ORIENTED_EDGE('',*,*,#238,.T.);
#384=ORIENTED_EDGE('',*,*,#273,.F.);
#385=ORIENTED_EDGE('',*,*,#228,.F.);
#386=ORIENTED_EDGE('',*,*,#272,.T.);
#387=ORIENTED_EDGE('',*,*,#237,.T.);
#388=ORIENTED_EDGE('',*,*,#274,.F.);
#389=ORIENTED_EDGE('',*,*,#229,.F.);
#390=ORIENTED_EDGE('',*,*,#273,.T.);
#391=ORIENTED_EDGE('',*,*,#236,.T.);
#392=ORIENTED_EDGE('',*,*,#258,.F.);
#393=ORIENTED_EDGE('',*,*,#230,.F.);
#394=ORIENTED_EDGE('',*,*,#274,.T.);
#395=ORIENTED_EDGE('',*,*,#254,.F.);
#396=ORIENTED_EDGE('',*,*,#275,.F.);
#397=ORIENTED_EDGE('',*,*,#231,.T.);
#398=ORIENTED_EDGE('',*,*,#276,.T.);
#399=ORIENTED_EDGE('',*,*,#255,.F.);
#400=ORIENTED_EDGE('',*,*,#276,.F.);
#401=ORIENTED_EDGE('',*,*,#234,.T.);
#402=ORIENTED_EDGE('',*,*,#277,.T.);
#403=ORIENTED_EDGE('',*,*,#256,.F.);
#404=ORIENTED_EDGE('',*,*,#277,.F.);
#405=ORIENTED_EDGE('',*,*,#233,.T.);
#406=ORIENTED_EDGE('',*,*,#278,.T.);
#407=ORIENTED_EDGE('',*,*,#253,.F.);
#408=ORIENTED_EDGE('',*,*,#278,.F.);
#409=ORIENTED_EDGE('',*,*,#232,.T.);
#410=ORIENTED_EDGE('',*,*,#275,.T.);
#411=EDGE_LOOP('',(#279,#280,#281,#282,#283,#284,#285,#286,#287,#288,#289,
#290,#291,#292,#293,#294,#295,#296));
#412=EDGE_LOOP('',(#297,#298,#299,#300));
#413=EDGE_LOOP('',(#301,#302,#303,#304,#305,#306,#307,#308,#309,#310,#311,
#312,#313,#314,#315,#316,#317,#318));
#414=EDGE_LOOP('',(#319,#320,#321,#322));
#415=EDGE_LOOP('',(#323,#324,#325,#326));
#416=EDGE_LOOP('',(#327,#328,#329,#330));
#417=EDGE_LOOP('',(#331,#332,#333,#334));
#418=EDGE_LOOP('',(#335,#336,#337,#338));
#419=EDGE_LOOP('',(#339,#340,#341,#342));
#420=EDGE_LOOP('',(#343,#344,#345,#346));
#421=EDGE_LOOP('',(#347,#348,#349,#350));
#422=EDGE_LOOP('',(#351,#352,#353,#354));
#423=EDGE_LOOP('',(#355,#356,#357,#358));
#424=EDGE_LOOP('',(#359,#360,#361,#362));
#425=EDGE_LOOP('',(#363,#364,#365,#366));
#426=EDGE_LOOP('',(#367,#368,#369,#370));
#427=EDGE_LOOP('',(#371,#372,#373,#374));
#428=EDGE_LOOP('',(#375,#376,#377,#378));
#429=EDGE_LOOP('',(#379,#380,#381,#382));
#430=EDGE_LOOP('',(#383,#384,#385,#386));
#431=EDGE_LOOP('',(#387,#388,#389,#390));
#432=EDGE_LOOP('',(#391,#392,#393,#394));
#433=EDGE_LOOP('',(#395,#396,#397,#398));
#434=EDGE_LOOP('',(#399,#400,#401,#402));
#435=EDGE_LOOP('',(#403,#404,#405,#406));
#436=EDGE_LOOP('',(#407,#408,#409,#410));
#437=FACE_BOUND('',#411,.T.);
#438=FACE_BOUND('',#412,.T.);
#439=FACE_BOUND('',#413,.T.);
#440=FACE_BOUND('',#414,.T.);
#441=FACE_BOUND('',#415,.T.);
#442=FACE_BOUND('',#416,.T.);
#443=FACE_BOUND('',#417,.T.);
#444=FACE_BOUND('',#418,.T.);
#445=FACE_BOUND('',#419,.T.);
#446=FACE_BOUND('',#420,.T.);
#447=FACE_BOUND('',#421,.T.);
#448=FACE_BOUND('',#422,.T.);
#449=FACE_BOUND('',#423,.T.);
#450=FACE_BOUND('',#424,.T.);
#451=FACE_BOUND('',#425,.T.);
#452=FACE_BOUND('',#426,.T.);
#453=FACE_BOUND('',#427,.T.);
#454=FACE_BOUND('',#428,.T.);
#455=FACE_BOUND('',#429,.T.);
#456=FACE_BOUND('',#430,.T.);
#457=FACE_BOUND('',#431,.T.);
#458=FACE_BOUND('',#432,.T.);
#459=FACE_BOUND('',#433,.T.);
#460=FACE_BOUND('',#434,.T.);
#461=FACE_BOUND('',#435,.T.);
#462=FACE_BOUND('',#436,.T.);
#463=ADVANCED_FACE('',(#437,#438),#487,.F.);
#464=ADVANCED_FACE('',(#439,#440),#488,.T.);
#465=ADVANCED_FACE('',(#441),#489,.F.);
#466=ADVANCED_FACE('',(#442),#490,.F.);
#467=ADVANCED_FACE('',(#443),#491,.F.);
#468=ADVANCED_FACE('',(#444),#492,.F.);
#469=ADVANCED_FACE('',(#445),#493,.F.);
#470=ADVANCED_FACE('',(#446),#494,.F.);
#471=ADVANCED_FACE('',(#447),#495,.F.);
#472=ADVANCED_FACE('',(#448),#496,.F.);
#473=ADVANCED_FACE('',(#449),#497,.F.);
#474=ADVANCED_FACE('',(#450),#498,.F.);
#475=ADVANCED_FACE('',(#451),#499,.F.);
#476=ADVANCED_FACE('',(#452),#500,.F.);
#477=ADVANCED_FACE('',(#453),#501,.F.);
#478=ADVANCED_FACE('',(#454),#502,.F.);
#479=ADVANCED_FACE('',(#455),#503,.F.);
#480=ADVANCED_FACE('',(#456),#504,.F.);
#481=ADVANCED_FACE('',(#457),#505,.F.);
#482=ADVANCED_FACE('',(#458),#506,.F.);
#483=ADVANCED_FACE('',(#459),#507,.T.);
#484=ADVANCED_FACE('',(#460),#508,.T.);
#485=ADVANCED_FACE('',(#461),#509,.T.);
#486=ADVANCED_FACE('',(#462),#510,.T.);
#487=PLANE('',#741);
#488=PLANE('',#742);
#489=PLANE('',#743);
#490=PLANE('',#744);
#491=PLANE('',#745);
#492=PLANE('',#746);
#493=PLANE('',#747);
#494=PLANE('',#748);
#495=PLANE('',#749);
#496=PLANE('',#750);
#497=PLANE('',#751);
#498=PLANE('',#752);
#499=PLANE('',#753);
#500=PLANE('',#754);
#501=PLANE('',#755);
#502=PLANE('',#756);
#503=PLANE('',#757);
#504=PLANE('',#758);
#505=PLANE('',#759);
#506=PLANE('',#760);
#507=PLANE('',#761);
#508=PLANE('',#762);
#509=PLANE('',#763);
#510=PLANE('',#764);
#511=CLOSED_SHELL('',(#463,#464,#465,#466,#467,#468,#469,#470,#471,#472,
#473,#474,#475,#476,#477,#478,#479,#480,#481,#482,#483,#484,#485,#486));
#512=MANIFOLD_SOLID_BREP('',#511);
#513=DIRECTION('',(1.,0.,0.));
#514=DIRECTION('',(0.,0.,1.));
#515=DIRECTION('',(0.,0.,-1.));
#516=DIRECTION('',(1.0671281225251E-016,-1.,0.));
#517=DIRECTION('',(-1.,0.,0.));
#518=DIRECTION('',(1.0671281225251E-016,1.,0.));
#519=DIRECTION('',(-1.,0.,0.));
#520=DIRECTION('',(-8.41086204945894E-017,-1.,0.));
#521=DIRECTION('',(1.,0.,0.));
#522=DIRECTION('',(0.,-1.,0.));
#523=DIRECTION('',(0.657352880866503,-0.753582901887052,0.));
#524=DIRECTION('',(1.,0.,0.));
#525=DIRECTION('',(0.0693975017132202,-0.997589087127542,0.));
#526=DIRECTION('',(1.,0.,0.));
#527=DIRECTION('',(0.0693975017132202,0.997589087127542,0.));
#528=DIRECTION('',(1.,0.,0.));
#529=DIRECTION('',(0.657352880866503,0.753582901887052,0.));
#530=DIRECTION('',(0.,1.,0.));
#531=DIRECTION('',(1.,0.,0.));
#532=DIRECTION('',(-8.41086204945894E-017,1.,0.));
#533=DIRECTION('',(-1.,0.,0.));
#534=DIRECTION('',(1.08521503985604E-016,-1.,0.));
#535=DIRECTION('',(-1.,0.,0.));
#536=DIRECTION('',(1.08521503985604E-016,1.,0.));
#537=DIRECTION('',(1.,0.,0.));
#538=DIRECTION('',(0.,0.,-1.));
#539=DIRECTION('',(1.0671281225251E-016,-1.,0.));
#540=DIRECTION('',(-1.,0.,0.));
#541=DIRECTION('',(-8.41086204945894E-017,1.,0.));
#542=DIRECTION('',(1.,0.,0.));
#543=DIRECTION('',(0.,1.,0.));
#544=DIRECTION('',(0.657352880866503,0.753582901887052,0.));
#545=DIRECTION('',(1.,0.,0.));
#546=DIRECTION('',(0.0693975017132202,0.997589087127542,0.));
#547=DIRECTION('',(1.,0.,0.));
#548=DIRECTION('',(0.0693975017132202,-0.997589087127542,0.));
#549=DIRECTION('',(1.,0.,0.));
#550=DIRECTION('',(0.657352880866503,-0.753582901887052,0.));
#551=DIRECTION('',(0.,-1.,0.));
#552=DIRECTION('',(1.,0.,0.));
#553=DIRECTION('',(-8.41086204945894E-017,-1.,0.));
#554=DIRECTION('',(-1.,0.,0.));
#555=DIRECTION('',(1.0671281225251E-016,1.,0.));
#556=DIRECTION('',(-1.,0.,0.));
#557=DIRECTION('',(-1.,0.,0.));
#558=DIRECTION('',(1.08521503985604E-016,-1.,0.));
#559=DIRECTION('',(1.,0.,0.));
#560=DIRECTION('',(1.08521503985604E-016,1.,0.));
#561=DIRECTION('',(1.,1.0671281225251E-016,0.));
#562=DIRECTION('',(0.,0.,-1.));
#563=DIRECTION('',(0.,0.,-1.));
#564=DIRECTION('',(0.,-1.,0.));
#565=DIRECTION('',(0.,0.,-1.));
#566=DIRECTION('',(-1.,1.0671281225251E-016,0.));
#567=DIRECTION('',(0.,0.,-1.));
#568=DIRECTION('',(0.,-1.,0.));
#569=DIRECTION('',(0.,0.,-1.));
#570=DIRECTION('',(1.,-8.41086204945894E-017,0.));
#571=DIRECTION('',(0.,0.,-1.));
#572=DIRECTION('',(0.,1.,0.));
#573=DIRECTION('',(0.,0.,-1.));
#574=DIRECTION('',(1.,0.,0.));
#575=DIRECTION('',(0.,0.,-1.));
#576=DIRECTION('',(0.753582901887052,0.657352880866503,0.));
#577=DIRECTION('',(0.,0.,-1.));
#578=DIRECTION('',(0.,1.,0.));
#579=DIRECTION('',(0.,0.,-1.));
#580=DIRECTION('',(0.997589087127543,0.0693975017132202,0.));
#581=DIRECTION('',(0.,0.,-1.));
#582=DIRECTION('',(0.,1.,0.));
#583=DIRECTION('',(0.,0.,-1.));
#584=DIRECTION('',(-0.997589087127543,0.0693975017132202,0.));
#585=DIRECTION('',(0.,0.,-1.));
#586=DIRECTION('',(0.,1.,0.));
#587=DIRECTION('',(0.,0.,-1.));
#588=DIRECTION('',(-0.753582901887052,0.657352880866503,0.));
#589=DIRECTION('',(0.,0.,-1.));
#590=DIRECTION('',(-1.,0.,0.));
#591=DIRECTION('',(0.,0.,-1.));
#592=DIRECTION('',(0.,1.,0.));
#593=DIRECTION('',(0.,0.,-1.));
#594=DIRECTION('',(-1.,-8.41086204945894E-017,0.));
#595=DIRECTION('',(0.,0.,-1.));
#596=DIRECTION('',(0.,-1.,0.));
#597=DIRECTION('',(1.,1.08521503985604E-016,0.));
#598=DIRECTION('',(0.,0.,-1.));
#599=DIRECTION('',(0.,0.,-1.));
#600=DIRECTION('',(0.,1.,0.));
#601=DIRECTION('',(0.,0.,-1.));
#602=DIRECTION('',(-1.,1.08521503985604E-016,0.));
#603=DIRECTION('',(0.,0.,-1.));
#604=DIRECTION('',(0.,-1.,0.));
#605=CARTESIAN_POINT('',(0.,0.,0.));
#606=CARTESIAN_POINT('',(0.0235,0.35,0.025));
#607=CARTESIAN_POINT('',(0.0235,0.39,0.025));
#608=CARTESIAN_POINT('',(0.0235,0.39,0.025));
#609=CARTESIAN_POINT('',(0.0235,0.35,0.025));
#610=CARTESIAN_POINT('',(0.0235,0.35,0.025));
#611=CARTESIAN_POINT('',(-0.0235,0.35,0.025));
#612=CARTESIAN_POINT('',(-0.0235,0.39,0.025));
#613=CARTESIAN_POINT('',(-0.0235,0.39,0.025));
#614=CARTESIAN_POINT('',(-0.0235,0.39,0.025));
#615=CARTESIAN_POINT('',(-0.055,0.39,0.025));
#616=CARTESIAN_POINT('',(-0.055,0.39,0.025));
#617=CARTESIAN_POINT('',(-0.055,0.187,0.025));
#618=CARTESIAN_POINT('',(-0.045,0.187,0.025));
#619=CARTESIAN_POINT('',(-0.045,0.187,0.025));
#620=CARTESIAN_POINT('',(-0.045,0.135,0.025));
#621=CARTESIAN_POINT('',(-0.045,0.135,0.025));
#622=CARTESIAN_POINT('',(-0.0275539332375928,0.115,0.025));
#623=CARTESIAN_POINT('',(-0.0275539332375928,0.115,0.025));
#624=CARTESIAN_POINT('',(-0.0195,0.115,0.025));
#625=CARTESIAN_POINT('',(-0.0195,0.115,0.025));
#626=CARTESIAN_POINT('',(-0.0115,0.,0.025));
#627=CARTESIAN_POINT('',(-0.0115,0.,0.025));
#628=CARTESIAN_POINT('',(-0.0115,0.,0.025));
#629=CARTESIAN_POINT('',(0.0115,0.,0.025));
#630=CARTESIAN_POINT('',(0.0115,0.,0.025));
#631=CARTESIAN_POINT('',(0.0195,0.115,0.025));
#632=CARTESIAN_POINT('',(0.0195,0.115,0.025));
#633=CARTESIAN_POINT('',(0.0275539332375928,0.115,0.025));
#634=CARTESIAN_POINT('',(0.0275539332375928,0.115,0.025));
#635=CARTESIAN_POINT('',(0.045,0.135,0.025));
#636=CARTESIAN_POINT('',(0.045,0.135,0.025));
#637=CARTESIAN_POINT('',(0.045,0.187,0.025));
#638=CARTESIAN_POINT('',(0.045,0.187,0.025));
#639=CARTESIAN_POINT('',(0.055,0.187,0.025));
#640=CARTESIAN_POINT('',(0.055,0.39,0.025));
#641=CARTESIAN_POINT('',(0.055,0.39,0.025));
#642=CARTESIAN_POINT('',(0.0235,0.39,0.025));
#643=CARTESIAN_POINT('',(-0.0235,0.327,0.025));
#644=CARTESIAN_POINT('',(-0.0235,0.327,0.025));
#645=CARTESIAN_POINT('',(-0.0235,0.209,0.025));
#646=CARTESIAN_POINT('',(-0.0235,0.327,0.025));
#647=CARTESIAN_POINT('',(0.0235,0.327,0.025));
#648=CARTESIAN_POINT('',(0.0235,0.327,0.025));
#649=CARTESIAN_POINT('',(0.0235,0.209,0.025));
#650=CARTESIAN_POINT('',(0.0235,0.209,0.025));
#651=CARTESIAN_POINT('',(0.0235,0.35,0.));
#652=CARTESIAN_POINT('',(0.0235,0.39,0.));
#653=CARTESIAN_POINT('',(0.0235,0.39,0.));
#654=CARTESIAN_POINT('',(0.0235,0.35,0.));
#655=CARTESIAN_POINT('',(0.0235,0.39,0.));
#656=CARTESIAN_POINT('',(0.055,0.39,0.));
#657=CARTESIAN_POINT('',(0.055,0.39,0.));
#658=CARTESIAN_POINT('',(0.055,0.187,0.));
#659=CARTESIAN_POINT('',(0.045,0.187,0.));
#660=CARTESIAN_POINT('',(0.045,0.187,0.));
#661=CARTESIAN_POINT('',(0.045,0.135,0.));
#662=CARTESIAN_POINT('',(0.045,0.135,0.));
#663=CARTESIAN_POINT('',(0.0275539332375928,0.115,0.));
#664=CARTESIAN_POINT('',(0.0275539332375928,0.115,0.));
#665=CARTESIAN_POINT('',(0.0195,0.115,0.));
#666=CARTESIAN_POINT('',(0.0195,0.115,0.));
#667=CARTESIAN_POINT('',(0.0115,0.,0.));
#668=CARTESIAN_POINT('',(0.0115,0.,0.));
#669=CARTESIAN_POINT('',(-0.0115,0.,0.));
#670=CARTESIAN_POINT('',(-0.0115,0.,0.));
#671=CARTESIAN_POINT('',(-0.0115,0.,0.));
#672=CARTESIAN_POINT('',(-0.0195,0.115,0.));
#673=CARTESIAN_POINT('',(-0.0195,0.115,0.));
#674=CARTESIAN_POINT('',(-0.0275539332375928,0.115,0.));
#675=CARTESIAN_POINT('',(-0.0275539332375928,0.115,0.));
#676=CARTESIAN_POINT('',(-0.045,0.135,0.));
#677=CARTESIAN_POINT('',(-0.045,0.135,0.));
#678=CARTESIAN_POINT('',(-0.045,0.187,0.));
#679=CARTESIAN_POINT('',(-0.045,0.187,0.));
#680=CARTESIAN_POINT('',(-0.055,0.187,0.));
#681=CARTESIAN_POINT('',(-0.055,0.39,0.));
#682=CARTESIAN_POINT('',(-0.055,0.39,0.));
#683=CARTESIAN_POINT('',(-0.0235,0.39,0.));
#684=CARTESIAN_POINT('',(-0.0235,0.39,0.));
#685=CARTESIAN_POINT('',(-0.0235,0.39,0.));
#686=CARTESIAN_POINT('',(-0.0235,0.35,0.));
#687=CARTESIAN_POINT('',(0.0235,0.35,0.));
#688=CARTESIAN_POINT('',(-0.0235,0.327,0.));
#689=CARTESIAN_POINT('',(0.0235,0.327,0.));
#690=CARTESIAN_POINT('',(-0.0235,0.327,0.));
#691=CARTESIAN_POINT('',(-0.0235,0.327,0.));
#692=CARTESIAN_POINT('',(-0.0235,0.209,0.));
#693=CARTESIAN_POINT('',(0.0235,0.209,0.));
#694=CARTESIAN_POINT('',(0.0235,0.209,0.));
#695=CARTESIAN_POINT('',(0.0235,0.327,0.));
#696=CARTESIAN_POINT('',(0.0235,0.39,0.025));
#697=CARTESIAN_POINT('',(0.0235,0.35,0.025));
#698=CARTESIAN_POINT('',(0.0235,0.39,0.025));
#699=CARTESIAN_POINT('',(0.0235,0.35,0.025));
#700=CARTESIAN_POINT('',(-0.0235,0.35,0.025));
#701=CARTESIAN_POINT('',(-0.0235,0.39,0.025));
#702=CARTESIAN_POINT('',(-0.0235,0.39,0.025));
#703=CARTESIAN_POINT('',(-0.0235,0.39,0.025));
#704=CARTESIAN_POINT('',(-0.055,0.39,0.025));
#705=CARTESIAN_POINT('',(-0.055,0.39,0.025));
#706=CARTESIAN_POINT('',(-0.055,0.187,0.025));
#707=CARTESIAN_POINT('',(-0.045,0.187,0.025));
#708=CARTESIAN_POINT('',(-0.045,0.187,0.025));
#709=CARTESIAN_POINT('',(-0.045,0.135,0.025));
#710=CARTESIAN_POINT('',(-0.045,0.135,0.025));
#711=CARTESIAN_POINT('',(-0.0275539332375928,0.115,0.025));
#712=CARTESIAN_POINT('',(-0.0275539332375928,0.115,0.025));
#713=CARTESIAN_POINT('',(-0.0195,0.115,0.025));
#714=CARTESIAN_POINT('',(-0.0195,0.115,0.025));
#715=CARTESIAN_POINT('',(-0.0115,0.,0.025));
#716=CARTESIAN_POINT('',(-0.0115,0.,0.025));
#717=CARTESIAN_POINT('',(-0.0115,0.,0.025));
#718=CARTESIAN_POINT('',(0.0115,0.,0.025));
#719=CARTESIAN_POINT('',(0.0115,0.,0.025));
#720=CARTESIAN_POINT('',(0.0195,0.115,0.025));
#721=CARTESIAN_POINT('',(0.0195,0.115,0.025));
#722=CARTESIAN_POINT('',(0.0275539332375928,0.115,0.025));
#723=CARTESIAN_POINT('',(0.0275539332375928,0.115,0.025));
#724=CARTESIAN_POINT('',(0.045,0.135,0.025));
#725=CARTESIAN_POINT('',(0.045,0.135,0.025));
#726=CARTESIAN_POINT('',(0.045,0.187,0.025));
#727=CARTESIAN_POINT('',(0.045,0.187,0.025));
#728=CARTESIAN_POINT('',(0.055,0.187,0.025));
#729=CARTESIAN_POINT('',(0.055,0.39,0.025));
#730=CARTESIAN_POINT('',(0.055,0.39,0.025));
#731=CARTESIAN_POINT('',(0.0235,0.39,0.025));
#732=CARTESIAN_POINT('',(-0.0235,0.327,0.025));
#733=CARTESIAN_POINT('',(-0.0235,0.327,0.025));
#734=CARTESIAN_POINT('',(-0.0235,0.209,0.025));
#735=CARTESIAN_POINT('',(0.0235,0.209,0.025));
#736=CARTESIAN_POINT('',(0.0235,0.209,0.025));
#737=CARTESIAN_POINT('',(0.0235,0.327,0.025));
#738=CARTESIAN_POINT('',(0.0235,0.327,0.025));
#739=CARTESIAN_POINT('',(-0.0235,0.327,0.025));
#740=AXIS2_PLACEMENT_3D('',#605,#514,#513);
#741=AXIS2_PLACEMENT_3D('',#606,#515,$);
#742=AXIS2_PLACEMENT_3D('',#651,#538,$);
#743=AXIS2_PLACEMENT_3D('',#696,#561,$);
#744=AXIS2_PLACEMENT_3D('',#699,#564,$);
#745=AXIS2_PLACEMENT_3D('',#701,#566,$);
#746=AXIS2_PLACEMENT_3D('',#703,#568,$);
#747=AXIS2_PLACEMENT_3D('',#705,#570,$);
#748=AXIS2_PLACEMENT_3D('',#707,#572,$);
#749=AXIS2_PLACEMENT_3D('',#709,#574,$);
#750=AXIS2_PLACEMENT_3D('',#711,#576,$);
#751=AXIS2_PLACEMENT_3D('',#713,#578,$);
#752=AXIS2_PLACEMENT_3D('',#715,#580,$);
#753=AXIS2_PLACEMENT_3D('',#717,#582,$);
#754=AXIS2_PLACEMENT_3D('',#719,#584,$);
#755=AXIS2_PLACEMENT_3D('',#721,#586,$);
#756=AXIS2_PLACEMENT_3D('',#723,#588,$);
#757=AXIS2_PLACEMENT_3D('',#725,#590,$);
#758=AXIS2_PLACEMENT_3D('',#727,#592,$);
#759=AXIS2_PLACEMENT_3D('',#729,#594,$);
#760=AXIS2_PLACEMENT_3D('',#731,#596,$);
#761=AXIS2_PLACEMENT_3D('',#732,#597,$);
#762=AXIS2_PLACEMENT_3D('',#735,#600,$);
#763=AXIS2_PLACEMENT_3D('',#737,#602,$);
#764=AXIS2_PLACEMENT_3D('',#739,#604,$);
#765=ADVANCED_BREP_SHAPE_REPRESENTATION('',(#512,#740),#36);
ENDSEC;
END-ISO-10303-21;
