ISO-10303-21;
HEADER;
/* Generated by software containing ST-Developer
 * from STEP Tools, Inc. (www.steptools.com) 
 */

FILE_DESCRIPTION(
/* description */ ('Alibre Inc.'),
/* implementation_level */ '2;1');

FILE_NAME(
/* name */ 'export0',
/* time_stamp */ '2015-11-13T10:41:14+08:00',
/* author */ (''),
/* organization */ (''),
/* preprocessor_version */ 'ST-DEVELOPER v14',
/* originating_system */ 'Alibre',
/* authorisation */ '');

FILE_SCHEMA (('AUTOMOTIVE_DESIGN'));
ENDSEC;

DATA;
#10=CONTEXT_DEPENDENT_SHAPE_REPRESENTATION(#25,#87);
#11=CONTEXT_DEPENDENT_SHAPE_REPRESENTATION(#26,#88);
#12=CONTEXT_DEPENDENT_SHAPE_REPRESENTATION(#27,#89);
#13=CONTEXT_DEPENDENT_SHAPE_REPRESENTATION(#28,#90);
#14=CONTEXT_DEPENDENT_SHAPE_REPRESENTATION(#29,#91);
#15=NEXT_ASSEMBLY_USAGE_OCCURRENCE('NAUO_ID9','NAUO_NAME9',$,#93,#92,$);
#16=NEXT_ASSEMBLY_USAGE_OCCURRENCE('NAUO_ID19','NAUO_NAME19',$,#93,#92,$);
#17=NEXT_ASSEMBLY_USAGE_OCCURRENCE('NAUO_ID29','NAUO_NAME29',$,#93,#92,$);
#18=NEXT_ASSEMBLY_USAGE_OCCURRENCE('NAUO_ID39','NAUO_NAME39',$,#93,#92,$);
#19=NEXT_ASSEMBLY_USAGE_OCCURRENCE('NAUO_ID49','NAUO_NAME49',$,#93,#92,$);
#20=ITEM_DEFINED_TRANSFORMATION('ITD_NAME0',$,#582,#581);
#21=ITEM_DEFINED_TRANSFORMATION('ITD_NAME10',$,#584,#583);
#22=ITEM_DEFINED_TRANSFORMATION('ITD_NAME20',$,#586,#585);
#23=ITEM_DEFINED_TRANSFORMATION('ITD_NAME30',$,#588,#587);
#24=ITEM_DEFINED_TRANSFORMATION('ITD_NAME40',$,#590,#589);
#25=(
REPRESENTATION_RELATIONSHIP('PEC05SAAN_1',$,#104,#105)
REPRESENTATION_RELATIONSHIP_WITH_TRANSFORMATION(#20)
SHAPE_REPRESENTATION_RELATIONSHIP()
);
#26=(
REPRESENTATION_RELATIONSHIP('PEC05SAAN_1',$,#104,#105)
REPRESENTATION_RELATIONSHIP_WITH_TRANSFORMATION(#21)
SHAPE_REPRESENTATION_RELATIONSHIP()
);
#27=(
REPRESENTATION_RELATIONSHIP('PEC05SAAN_1',$,#104,#105)
REPRESENTATION_RELATIONSHIP_WITH_TRANSFORMATION(#22)
SHAPE_REPRESENTATION_RELATIONSHIP()
);
#28=(
REPRESENTATION_RELATIONSHIP('PEC05SAAN_1',$,#104,#105)
REPRESENTATION_RELATIONSHIP_WITH_TRANSFORMATION(#23)
SHAPE_REPRESENTATION_RELATIONSHIP()
);
#29=(
REPRESENTATION_RELATIONSHIP('PEC05SAAN_1',$,#104,#105)
REPRESENTATION_RELATIONSHIP_WITH_TRANSFORMATION(#24)
SHAPE_REPRESENTATION_RELATIONSHIP()
);
#30=STYLED_ITEM('NAME_0',(#78),#854);
#31=STYLED_ITEM('NAME_0',(#79),#529);
#32=STYLED_ITEM('NAME_0',(#79),#530);
#33=STYLED_ITEM('NAME_0',(#79),#531);
#34=STYLED_ITEM('NAME_0',(#79),#532);
#35=STYLED_ITEM('NAME_0',(#79),#533);
#36=STYLED_ITEM('NAME_0',(#79),#534);
#37=STYLED_ITEM('NAME_0',(#79),#535);
#38=STYLED_ITEM('NAME_0',(#79),#536);
#39=STYLED_ITEM('NAME_0',(#79),#537);
#40=STYLED_ITEM('NAME_0',(#79),#538);
#41=STYLED_ITEM('NAME_0',(#79),#539);
#42=STYLED_ITEM('NAME_0',(#79),#540);
#43=STYLED_ITEM('NAME_0',(#79),#541);
#44=STYLED_ITEM('NAME_0',(#79),#542);
#45=STYLED_ITEM('NAME_0',(#79),#543);
#46=STYLED_ITEM('NAME_0',(#79),#544);
#47=STYLED_ITEM('NAME_0',(#79),#545);
#48=STYLED_ITEM('NAME_0',(#79),#546);
#49=STYLED_ITEM('NAME_0',(#80),#547);
#50=STYLED_ITEM('NAME_0',(#80),#548);
#51=STYLED_ITEM('NAME_0',(#80),#549);
#52=STYLED_ITEM('NAME_0',(#80),#550);
#53=STYLED_ITEM('NAME_0',(#80),#551);
#54=STYLED_ITEM('NAME_0',(#80),#552);
#55=STYLED_ITEM('NAME_0',(#80),#553);
#56=STYLED_ITEM('NAME_0',(#80),#554);
#57=STYLED_ITEM('NAME_0',(#80),#555);
#58=STYLED_ITEM('NAME_0',(#80),#556);
#59=MECHANICAL_DESIGN_GEOMETRIC_PRESENTATION_REPRESENTATION('NAME_0',(#30,
#31,#32,#33,#34,#35,#36,#37,#38,#39,#40,#41,#42,#43,#44,#45,#46,#47,#48,
#49,#50,#51,#52,#53,#54,#55,#56,#57,#58),#115);
#60=COLOUR_RGB('',0.882352941176471,0.882352941176471,0.882352941176471);
#61=COLOUR_RGB('',1.,1.,0.501960784313725);
#62=COLOUR_RGB('',0.305882352941176,0.305882352941176,0.305882352941176);
#63=FILL_AREA_STYLE_COLOUR('NAME_0',#60);
#64=FILL_AREA_STYLE_COLOUR('NAME_0',#61);
#65=FILL_AREA_STYLE_COLOUR('NAME_0',#62);
#66=FILL_AREA_STYLE('NAME_0',(#63));
#67=FILL_AREA_STYLE('NAME_0',(#64));
#68=FILL_AREA_STYLE('NAME_0',(#65));
#69=SURFACE_STYLE_FILL_AREA(#66);
#70=SURFACE_STYLE_FILL_AREA(#67);
#71=SURFACE_STYLE_FILL_AREA(#68);
#72=SURFACE_SIDE_STYLE('NAME_0',(#69));
#73=SURFACE_SIDE_STYLE('NAME_0',(#70));
#74=SURFACE_SIDE_STYLE('NAME_0',(#71));
#75=SURFACE_STYLE_USAGE(.POSITIVE.,#72);
#76=SURFACE_STYLE_USAGE(.POSITIVE.,#73);
#77=SURFACE_STYLE_USAGE(.POSITIVE.,#74);
#78=PRESENTATION_STYLE_ASSIGNMENT((#75));
#79=PRESENTATION_STYLE_ASSIGNMENT((#76));
#80=PRESENTATION_STYLE_ASSIGNMENT((#77));
#81=PRODUCT_DEFINITION_CONTEXT('part definition',#99,'design');
#82=PRODUCT_DEFINITION_CONTEXT('part definition',#99,'design');
#83=SHAPE_DEFINITION_REPRESENTATION(#85,#104);
#84=SHAPE_DEFINITION_REPRESENTATION(#86,#105);
#85=PRODUCT_DEFINITION_SHAPE('PRODUCT_VERSION_ID',
'PRODUCT_VERSION_DESCR',#92);
#86=PRODUCT_DEFINITION_SHAPE('PRODUCT_VERSION_ID',
'PRODUCT_VERSION_DESCR',#93);
#87=PRODUCT_DEFINITION_SHAPE('NAME_10',$,#15);
#88=PRODUCT_DEFINITION_SHAPE('NAME_20',$,#16);
#89=PRODUCT_DEFINITION_SHAPE('NAME_30',$,#17);
#90=PRODUCT_DEFINITION_SHAPE('NAME_40',$,#18);
#91=PRODUCT_DEFINITION_SHAPE('NAME_50',$,#19);
#92=PRODUCT_DEFINITION('PEC05SAAN_1','PRODUCT_VERSION_DESCR',#94,#81);
#93=PRODUCT_DEFINITION('PRODUCT_VERSION_ID','PRODUCT_VERSION_DESCR',#95,
#82);
#94=PRODUCT_DEFINITION_FORMATION_WITH_SPECIFIED_SOURCE(
'PRODUCT_VERSION_ID','PRODUCT_VERSION_DESCR',#102,.MADE.);
#95=PRODUCT_DEFINITION_FORMATION_WITH_SPECIFIED_SOURCE(
'PRODUCT_VERSION_ID','PRODUCT_VERSION_DESCR',#103,.MADE.);
#96=PRODUCT_RELATED_PRODUCT_CATEGORY('part','part',(#102));
#97=PRODUCT_RELATED_PRODUCT_CATEGORY('part','part',(#103));
#98=APPLICATION_PROTOCOL_DEFINITION('Draft International Standard',
'automotive_design',1994,#99);
#99=APPLICATION_CONTEXT('automotive_Design');
#100=PRODUCT_CONTEXT('3D Mechanical Parts',#99,'mechanical');
#101=PRODUCT_CONTEXT('3D Mechanical Parts',#99,'mechanical');
#102=PRODUCT('','PEC05SAAN_1','',(#100));
#103=PRODUCT('','PEC05SAAN','',(#101));
#104=SHAPE_REPRESENTATION('PEC05SAAN_1',(#582,#584,#586,#588,#590),#115);
#105=SHAPE_REPRESENTATION('NAME_0',(#581,#583,#585,#587,#589),#116);
#106=SHAPE_REPRESENTATION_RELATIONSHIP('NAME_0',$,#104,#855);
#107=(
LENGTH_UNIT()
NAMED_UNIT(*)
SI_UNIT(.CENTI.,.METRE.)
);
#108=(
LENGTH_UNIT()
NAMED_UNIT(*)
SI_UNIT(.CENTI.,.METRE.)
);
#109=(
NAMED_UNIT(*)
PLANE_ANGLE_UNIT()
SI_UNIT($,.RADIAN.)
);
#110=(
NAMED_UNIT(*)
PLANE_ANGLE_UNIT()
SI_UNIT($,.RADIAN.)
);
#111=(
NAMED_UNIT(*)
SI_UNIT($,.STERADIAN.)
SOLID_ANGLE_UNIT()
);
#112=(
NAMED_UNIT(*)
SI_UNIT($,.STERADIAN.)
SOLID_ANGLE_UNIT()
);
#113=UNCERTAINTY_MEASURE_WITH_UNIT(LENGTH_MEASURE(1.E-006),#107,
'DISTANCE_ACCURACY_VALUE',
'Maximum model space distance between geometric entities at asserted co
nnectivities');
#114=UNCERTAINTY_MEASURE_WITH_UNIT(LENGTH_MEASURE(1.E-006),#108,
'DISTANCE_ACCURACY_VALUE',
'Maximum model space distance between geometric entities at asserted co
nnectivities');
#115=(
GEOMETRIC_REPRESENTATION_CONTEXT(3)
GLOBAL_UNCERTAINTY_ASSIGNED_CONTEXT((#113))
GLOBAL_UNIT_ASSIGNED_CONTEXT((#111,#109,#107))
REPRESENTATION_CONTEXT('ID1','3D')
);
#116=(
GEOMETRIC_REPRESENTATION_CONTEXT(3)
GLOBAL_UNCERTAINTY_ASSIGNED_CONTEXT((#114))
GLOBAL_UNIT_ASSIGNED_CONTEXT((#112,#110,#108))
REPRESENTATION_CONTEXT('ID1','3D')
);
#117=VERTEX_POINT('',#697);
#118=VERTEX_POINT('',#698);
#119=VERTEX_POINT('',#700);
#120=VERTEX_POINT('',#702);
#121=VERTEX_POINT('',#706);
#122=VERTEX_POINT('',#708);
#123=VERTEX_POINT('',#712);
#124=VERTEX_POINT('',#714);
#125=VERTEX_POINT('',#721);
#126=VERTEX_POINT('',#723);
#127=VERTEX_POINT('',#727);
#128=VERTEX_POINT('',#732);
#129=VERTEX_POINT('',#733);
#130=VERTEX_POINT('',#735);
#131=VERTEX_POINT('',#737);
#132=VERTEX_POINT('',#741);
#133=VERTEX_POINT('',#743);
#134=VERTEX_POINT('',#747);
#135=VERTEX_POINT('',#749);
#136=VERTEX_POINT('',#754);
#137=VERTEX_POINT('',#756);
#138=VERTEX_POINT('',#757);
#139=VERTEX_POINT('',#762);
#140=VERTEX_POINT('',#766);
#141=VERTEX_POINT('',#771);
#142=VERTEX_POINT('',#772);
#143=VERTEX_POINT('',#774);
#144=VERTEX_POINT('',#776);
#145=VERTEX_POINT('',#780);
#146=VERTEX_POINT('',#782);
#147=VERTEX_POINT('',#786);
#148=VERTEX_POINT('',#788);
#149=VERTEX_POINT('',#790);
#150=VERTEX_POINT('',#792);
#151=VERTEX_POINT('',#794);
#152=VERTEX_POINT('',#798);
#153=VERTEX_POINT('',#802);
#154=VERTEX_POINT('',#806);
#155=VERTEX_POINT('',#807);
#156=VERTEX_POINT('',#814);
#157=VECTOR('',#592,1.);
#158=VECTOR('',#593,1.);
#159=VECTOR('',#594,1.);
#160=VECTOR('',#595,1.);
#161=VECTOR('',#597,1.);
#162=VECTOR('',#598,1.);
#163=VECTOR('',#599,1.);
#164=VECTOR('',#601,1.);
#165=VECTOR('',#602,1.);
#166=VECTOR('',#603,1.);
#167=VECTOR('',#605,1.);
#168=VECTOR('',#606,1.);
#169=VECTOR('',#608,1.);
#170=VECTOR('',#609,1.);
#171=VECTOR('',#610,1.);
#172=VECTOR('',#612,1.);
#173=VECTOR('',#613,1.);
#174=VECTOR('',#616,1.);
#175=VECTOR('',#617,1.);
#176=VECTOR('',#618,1.);
#177=VECTOR('',#619,1.);
#178=VECTOR('',#621,1.);
#179=VECTOR('',#622,1.);
#180=VECTOR('',#623,1.);
#181=VECTOR('',#625,1.);
#182=VECTOR('',#626,1.);
#183=VECTOR('',#627,1.);
#184=VECTOR('',#629,1.);
#185=VECTOR('',#630,1.);
#186=VECTOR('',#631,1.);
#187=VECTOR('',#632,1.);
#188=VECTOR('',#635,1.);
#189=VECTOR('',#636,1.);
#190=VECTOR('',#638,1.);
#191=VECTOR('',#639,1.);
#192=VECTOR('',#640,1.);
#193=VECTOR('',#642,1.);
#194=VECTOR('',#643,1.);
#195=VECTOR('',#644,1.);
#196=VECTOR('',#645,1.);
#197=VECTOR('',#647,1.);
#198=VECTOR('',#648,1.);
#199=VECTOR('',#649,1.);
#200=VECTOR('',#651,1.);
#201=VECTOR('',#652,1.);
#202=VECTOR('',#653,1.);
#203=VECTOR('',#654,1.);
#204=VECTOR('',#655,1.);
#205=VECTOR('',#656,1.);
#206=VECTOR('',#658,1.);
#207=VECTOR('',#659,1.);
#208=VECTOR('',#661,1.);
#209=VECTOR('',#662,1.);
#210=VECTOR('',#664,1.);
#211=VECTOR('',#665,1.);
#212=VECTOR('',#666,1.);
#213=VECTOR('',#668,1.);
#214=VECTOR('',#670,1.);
#215=VECTOR('',#671,1.);
#216=VECTOR('',#673,1.);
#217=LINE('',#696,#157);
#218=LINE('',#699,#158);
#219=LINE('',#701,#159);
#220=LINE('',#703,#160);
#221=LINE('',#705,#161);
#222=LINE('',#707,#162);
#223=LINE('',#709,#163);
#224=LINE('',#711,#164);
#225=LINE('',#713,#165);
#226=LINE('',#715,#166);
#227=LINE('',#717,#167);
#228=LINE('',#718,#168);
#229=LINE('',#720,#169);
#230=LINE('',#722,#170);
#231=LINE('',#724,#171);
#232=LINE('',#726,#172);
#233=LINE('',#728,#173);
#234=LINE('',#731,#174);
#235=LINE('',#734,#175);
#236=LINE('',#736,#176);
#237=LINE('',#738,#177);
#238=LINE('',#740,#178);
#239=LINE('',#742,#179);
#240=LINE('',#744,#180);
#241=LINE('',#746,#181);
#242=LINE('',#748,#182);
#243=LINE('',#750,#183);
#244=LINE('',#752,#184);
#245=LINE('',#753,#185);
#246=LINE('',#755,#186);
#247=LINE('',#758,#187);
#248=LINE('',#761,#188);
#249=LINE('',#763,#189);
#250=LINE('',#765,#190);
#251=LINE('',#767,#191);
#252=LINE('',#768,#192);
#253=LINE('',#770,#193);
#254=LINE('',#773,#194);
#255=LINE('',#775,#195);
#256=LINE('',#777,#196);
#257=LINE('',#779,#197);
#258=LINE('',#781,#198);
#259=LINE('',#783,#199);
#260=LINE('',#785,#200);
#261=LINE('',#787,#201);
#262=LINE('',#789,#202);
#263=LINE('',#791,#203);
#264=LINE('',#793,#204);
#265=LINE('',#795,#205);
#266=LINE('',#797,#206);
#267=LINE('',#799,#207);
#268=LINE('',#801,#208);
#269=LINE('',#803,#209);
#270=LINE('',#805,#210);
#271=LINE('',#808,#211);
#272=LINE('',#809,#212);
#273=LINE('',#811,#213);
#274=LINE('',#813,#214);
#275=LINE('',#815,#215);
#276=LINE('',#817,#216);
#277=EDGE_CURVE('',#117,#118,#217,.T.);
#278=EDGE_CURVE('',#118,#119,#218,.T.);
#279=EDGE_CURVE('',#119,#120,#219,.T.);
#280=EDGE_CURVE('',#120,#117,#220,.T.);
#281=EDGE_CURVE('',#121,#117,#221,.T.);
#282=EDGE_CURVE('',#120,#122,#222,.T.);
#283=EDGE_CURVE('',#122,#121,#223,.T.);
#284=EDGE_CURVE('',#123,#121,#224,.T.);
#285=EDGE_CURVE('',#122,#124,#225,.T.);
#286=EDGE_CURVE('',#124,#123,#226,.T.);
#287=EDGE_CURVE('',#118,#123,#227,.T.);
#288=EDGE_CURVE('',#124,#119,#228,.T.);
#289=EDGE_CURVE('',#120,#125,#229,.T.);
#290=EDGE_CURVE('',#126,#125,#230,.T.);
#291=EDGE_CURVE('',#122,#126,#231,.T.);
#292=EDGE_CURVE('',#119,#127,#232,.T.);
#293=EDGE_CURVE('',#125,#127,#233,.T.);
#294=EDGE_CURVE('',#128,#129,#234,.T.);
#295=EDGE_CURVE('',#129,#130,#235,.T.);
#296=EDGE_CURVE('',#130,#131,#236,.T.);
#297=EDGE_CURVE('',#131,#128,#237,.T.);
#298=EDGE_CURVE('',#132,#128,#238,.T.);
#299=EDGE_CURVE('',#131,#133,#239,.T.);
#300=EDGE_CURVE('',#133,#132,#240,.T.);
#301=EDGE_CURVE('',#134,#132,#241,.T.);
#302=EDGE_CURVE('',#133,#135,#242,.T.);
#303=EDGE_CURVE('',#135,#134,#243,.T.);
#304=EDGE_CURVE('',#129,#134,#244,.T.);
#305=EDGE_CURVE('',#135,#130,#245,.T.);
#306=EDGE_CURVE('',#136,#129,#229,.T.);
#307=EDGE_CURVE('',#137,#136,#246,.T.);
#308=EDGE_CURVE('',#137,#134,#232,.T.);
#309=EDGE_CURVE('',#138,#128,#231,.T.);
#310=EDGE_CURVE('',#136,#138,#247,.T.);
#311=EDGE_CURVE('',#139,#137,#248,.T.);
#312=EDGE_CURVE('',#139,#132,#249,.T.);
#313=EDGE_CURVE('',#140,#126,#250,.T.);
#314=EDGE_CURVE('',#124,#140,#249,.T.);
#315=EDGE_CURVE('',#138,#139,#251,.T.);
#316=EDGE_CURVE('',#127,#140,#252,.T.);
#317=EDGE_CURVE('',#141,#142,#253,.T.);
#318=EDGE_CURVE('',#142,#143,#254,.T.);
#319=EDGE_CURVE('',#143,#144,#255,.T.);
#320=EDGE_CURVE('',#144,#141,#256,.T.);
#321=EDGE_CURVE('',#144,#145,#257,.T.);
#322=EDGE_CURVE('',#146,#145,#258,.T.);
#323=EDGE_CURVE('',#146,#141,#259,.T.);
#324=EDGE_CURVE('',#147,#143,#260,.T.);
#325=EDGE_CURVE('',#148,#147,#261,.T.);
#326=EDGE_CURVE('',#149,#148,#262,.T.);
#327=EDGE_CURVE('',#150,#149,#263,.T.);
#328=EDGE_CURVE('',#151,#150,#264,.T.);
#329=EDGE_CURVE('',#145,#151,#265,.T.);
#330=EDGE_CURVE('',#152,#146,#266,.T.);
#331=EDGE_CURVE('',#151,#152,#267,.T.);
#332=EDGE_CURVE('',#153,#150,#268,.T.);
#333=EDGE_CURVE('',#153,#152,#269,.T.);
#334=EDGE_CURVE('',#154,#155,#270,.T.);
#335=EDGE_CURVE('',#155,#148,#271,.T.);
#336=EDGE_CURVE('',#147,#154,#272,.T.);
#337=EDGE_CURVE('',#142,#154,#273,.T.);
#338=EDGE_CURVE('',#156,#153,#274,.T.);
#339=EDGE_CURVE('',#149,#156,#275,.T.);
#340=EDGE_CURVE('',#155,#156,#276,.T.);
#341=ORIENTED_EDGE('',*,*,#277,.T.);
#342=ORIENTED_EDGE('',*,*,#278,.T.);
#343=ORIENTED_EDGE('',*,*,#279,.T.);
#344=ORIENTED_EDGE('',*,*,#280,.T.);
#345=ORIENTED_EDGE('',*,*,#281,.T.);
#346=ORIENTED_EDGE('',*,*,#280,.F.);
#347=ORIENTED_EDGE('',*,*,#282,.T.);
#348=ORIENTED_EDGE('',*,*,#283,.T.);
#349=ORIENTED_EDGE('',*,*,#284,.T.);
#350=ORIENTED_EDGE('',*,*,#283,.F.);
#351=ORIENTED_EDGE('',*,*,#285,.T.);
#352=ORIENTED_EDGE('',*,*,#286,.T.);
#353=ORIENTED_EDGE('',*,*,#287,.T.);
#354=ORIENTED_EDGE('',*,*,#286,.F.);
#355=ORIENTED_EDGE('',*,*,#288,.T.);
#356=ORIENTED_EDGE('',*,*,#278,.F.);
#357=ORIENTED_EDGE('',*,*,#282,.F.);
#358=ORIENTED_EDGE('',*,*,#289,.T.);
#359=ORIENTED_EDGE('',*,*,#290,.F.);
#360=ORIENTED_EDGE('',*,*,#291,.F.);
#361=ORIENTED_EDGE('',*,*,#279,.F.);
#362=ORIENTED_EDGE('',*,*,#292,.T.);
#363=ORIENTED_EDGE('',*,*,#293,.F.);
#364=ORIENTED_EDGE('',*,*,#289,.F.);
#365=ORIENTED_EDGE('',*,*,#277,.F.);
#366=ORIENTED_EDGE('',*,*,#281,.F.);
#367=ORIENTED_EDGE('',*,*,#284,.F.);
#368=ORIENTED_EDGE('',*,*,#287,.F.);
#369=ORIENTED_EDGE('',*,*,#294,.T.);
#370=ORIENTED_EDGE('',*,*,#295,.T.);
#371=ORIENTED_EDGE('',*,*,#296,.T.);
#372=ORIENTED_EDGE('',*,*,#297,.T.);
#373=ORIENTED_EDGE('',*,*,#298,.T.);
#374=ORIENTED_EDGE('',*,*,#297,.F.);
#375=ORIENTED_EDGE('',*,*,#299,.T.);
#376=ORIENTED_EDGE('',*,*,#300,.T.);
#377=ORIENTED_EDGE('',*,*,#301,.T.);
#378=ORIENTED_EDGE('',*,*,#300,.F.);
#379=ORIENTED_EDGE('',*,*,#302,.T.);
#380=ORIENTED_EDGE('',*,*,#303,.T.);
#381=ORIENTED_EDGE('',*,*,#304,.T.);
#382=ORIENTED_EDGE('',*,*,#303,.F.);
#383=ORIENTED_EDGE('',*,*,#305,.T.);
#384=ORIENTED_EDGE('',*,*,#295,.F.);
#385=ORIENTED_EDGE('',*,*,#304,.F.);
#386=ORIENTED_EDGE('',*,*,#306,.F.);
#387=ORIENTED_EDGE('',*,*,#307,.F.);
#388=ORIENTED_EDGE('',*,*,#308,.T.);
#389=ORIENTED_EDGE('',*,*,#294,.F.);
#390=ORIENTED_EDGE('',*,*,#309,.F.);
#391=ORIENTED_EDGE('',*,*,#310,.F.);
#392=ORIENTED_EDGE('',*,*,#306,.T.);
#393=ORIENTED_EDGE('',*,*,#296,.F.);
#394=ORIENTED_EDGE('',*,*,#305,.F.);
#395=ORIENTED_EDGE('',*,*,#302,.F.);
#396=ORIENTED_EDGE('',*,*,#299,.F.);
#397=ORIENTED_EDGE('',*,*,#301,.F.);
#398=ORIENTED_EDGE('',*,*,#308,.F.);
#399=ORIENTED_EDGE('',*,*,#311,.F.);
#400=ORIENTED_EDGE('',*,*,#312,.T.);
#401=ORIENTED_EDGE('',*,*,#285,.F.);
#402=ORIENTED_EDGE('',*,*,#291,.T.);
#403=ORIENTED_EDGE('',*,*,#313,.F.);
#404=ORIENTED_EDGE('',*,*,#314,.F.);
#405=ORIENTED_EDGE('',*,*,#298,.F.);
#406=ORIENTED_EDGE('',*,*,#312,.F.);
#407=ORIENTED_EDGE('',*,*,#315,.F.);
#408=ORIENTED_EDGE('',*,*,#309,.T.);
#409=ORIENTED_EDGE('',*,*,#288,.F.);
#410=ORIENTED_EDGE('',*,*,#314,.T.);
#411=ORIENTED_EDGE('',*,*,#316,.F.);
#412=ORIENTED_EDGE('',*,*,#292,.F.);
#413=ORIENTED_EDGE('',*,*,#317,.T.);
#414=ORIENTED_EDGE('',*,*,#318,.T.);
#415=ORIENTED_EDGE('',*,*,#319,.T.);
#416=ORIENTED_EDGE('',*,*,#320,.T.);
#417=ORIENTED_EDGE('',*,*,#320,.F.);
#418=ORIENTED_EDGE('',*,*,#321,.T.);
#419=ORIENTED_EDGE('',*,*,#322,.F.);
#420=ORIENTED_EDGE('',*,*,#323,.T.);
#421=ORIENTED_EDGE('',*,*,#293,.T.);
#422=ORIENTED_EDGE('',*,*,#316,.T.);
#423=ORIENTED_EDGE('',*,*,#313,.T.);
#424=ORIENTED_EDGE('',*,*,#290,.T.);
#425=ORIENTED_EDGE('',*,*,#319,.F.);
#426=ORIENTED_EDGE('',*,*,#324,.F.);
#427=ORIENTED_EDGE('',*,*,#325,.F.);
#428=ORIENTED_EDGE('',*,*,#326,.F.);
#429=ORIENTED_EDGE('',*,*,#327,.F.);
#430=ORIENTED_EDGE('',*,*,#328,.F.);
#431=ORIENTED_EDGE('',*,*,#329,.F.);
#432=ORIENTED_EDGE('',*,*,#321,.F.);
#433=ORIENTED_EDGE('',*,*,#330,.T.);
#434=ORIENTED_EDGE('',*,*,#322,.T.);
#435=ORIENTED_EDGE('',*,*,#329,.T.);
#436=ORIENTED_EDGE('',*,*,#331,.T.);
#437=ORIENTED_EDGE('',*,*,#331,.F.);
#438=ORIENTED_EDGE('',*,*,#328,.T.);
#439=ORIENTED_EDGE('',*,*,#332,.F.);
#440=ORIENTED_EDGE('',*,*,#333,.T.);
#441=ORIENTED_EDGE('',*,*,#334,.T.);
#442=ORIENTED_EDGE('',*,*,#335,.T.);
#443=ORIENTED_EDGE('',*,*,#325,.T.);
#444=ORIENTED_EDGE('',*,*,#336,.T.);
#445=ORIENTED_EDGE('',*,*,#318,.F.);
#446=ORIENTED_EDGE('',*,*,#337,.T.);
#447=ORIENTED_EDGE('',*,*,#336,.F.);
#448=ORIENTED_EDGE('',*,*,#324,.T.);
#449=ORIENTED_EDGE('',*,*,#338,.T.);
#450=ORIENTED_EDGE('',*,*,#332,.T.);
#451=ORIENTED_EDGE('',*,*,#327,.T.);
#452=ORIENTED_EDGE('',*,*,#339,.T.);
#453=ORIENTED_EDGE('',*,*,#335,.F.);
#454=ORIENTED_EDGE('',*,*,#340,.T.);
#455=ORIENTED_EDGE('',*,*,#339,.F.);
#456=ORIENTED_EDGE('',*,*,#326,.T.);
#457=ORIENTED_EDGE('',*,*,#307,.T.);
#458=ORIENTED_EDGE('',*,*,#310,.T.);
#459=ORIENTED_EDGE('',*,*,#315,.T.);
#460=ORIENTED_EDGE('',*,*,#311,.T.);
#461=ORIENTED_EDGE('',*,*,#317,.F.);
#462=ORIENTED_EDGE('',*,*,#323,.F.);
#463=ORIENTED_EDGE('',*,*,#330,.F.);
#464=ORIENTED_EDGE('',*,*,#333,.F.);
#465=ORIENTED_EDGE('',*,*,#338,.F.);
#466=ORIENTED_EDGE('',*,*,#340,.F.);
#467=ORIENTED_EDGE('',*,*,#334,.F.);
#468=ORIENTED_EDGE('',*,*,#337,.F.);
#469=EDGE_LOOP('',(#341,#342,#343,#344));
#470=EDGE_LOOP('',(#345,#346,#347,#348));
#471=EDGE_LOOP('',(#349,#350,#351,#352));
#472=EDGE_LOOP('',(#353,#354,#355,#356));
#473=EDGE_LOOP('',(#357,#358,#359,#360));
#474=EDGE_LOOP('',(#361,#362,#363,#364));
#475=EDGE_LOOP('',(#365,#366,#367,#368));
#476=EDGE_LOOP('',(#369,#370,#371,#372));
#477=EDGE_LOOP('',(#373,#374,#375,#376));
#478=EDGE_LOOP('',(#377,#378,#379,#380));
#479=EDGE_LOOP('',(#381,#382,#383,#384));
#480=EDGE_LOOP('',(#385,#386,#387,#388));
#481=EDGE_LOOP('',(#389,#390,#391,#392));
#482=EDGE_LOOP('',(#393,#394,#395,#396));
#483=EDGE_LOOP('',(#397,#398,#399,#400));
#484=EDGE_LOOP('',(#401,#402,#403,#404));
#485=EDGE_LOOP('',(#405,#406,#407,#408));
#486=EDGE_LOOP('',(#409,#410,#411,#412));
#487=EDGE_LOOP('',(#413,#414,#415,#416));
#488=EDGE_LOOP('',(#417,#418,#419,#420));
#489=EDGE_LOOP('',(#421,#422,#423,#424));
#490=EDGE_LOOP('',(#425,#426,#427,#428,#429,#430,#431,#432));
#491=EDGE_LOOP('',(#433,#434,#435,#436));
#492=EDGE_LOOP('',(#437,#438,#439,#440));
#493=EDGE_LOOP('',(#441,#442,#443,#444));
#494=EDGE_LOOP('',(#445,#446,#447,#448));
#495=EDGE_LOOP('',(#449,#450,#451,#452));
#496=EDGE_LOOP('',(#453,#454,#455,#456));
#497=EDGE_LOOP('',(#457,#458,#459,#460));
#498=EDGE_LOOP('',(#461,#462,#463,#464,#465,#466,#467,#468));
#499=FACE_BOUND('',#469,.T.);
#500=FACE_BOUND('',#470,.T.);
#501=FACE_BOUND('',#471,.T.);
#502=FACE_BOUND('',#472,.T.);
#503=FACE_BOUND('',#473,.T.);
#504=FACE_BOUND('',#474,.T.);
#505=FACE_BOUND('',#475,.T.);
#506=FACE_BOUND('',#476,.T.);
#507=FACE_BOUND('',#477,.T.);
#508=FACE_BOUND('',#478,.T.);
#509=FACE_BOUND('',#479,.T.);
#510=FACE_BOUND('',#480,.T.);
#511=FACE_BOUND('',#481,.T.);
#512=FACE_BOUND('',#482,.T.);
#513=FACE_BOUND('',#483,.T.);
#514=FACE_BOUND('',#484,.T.);
#515=FACE_BOUND('',#485,.T.);
#516=FACE_BOUND('',#486,.T.);
#517=FACE_BOUND('',#487,.T.);
#518=FACE_BOUND('',#488,.T.);
#519=FACE_BOUND('',#489,.T.);
#520=FACE_BOUND('',#490,.T.);
#521=FACE_BOUND('',#491,.T.);
#522=FACE_BOUND('',#492,.T.);
#523=FACE_BOUND('',#493,.T.);
#524=FACE_BOUND('',#494,.T.);
#525=FACE_BOUND('',#495,.T.);
#526=FACE_BOUND('',#496,.T.);
#527=FACE_BOUND('',#497,.T.);
#528=FACE_BOUND('',#498,.T.);
#529=ADVANCED_FACE('',(#499),#829,.T.);
#530=ADVANCED_FACE('',(#500),#830,.T.);
#531=ADVANCED_FACE('',(#501),#831,.T.);
#532=ADVANCED_FACE('',(#502),#832,.T.);
#533=ADVANCED_FACE('',(#503),#833,.T.);
#534=ADVANCED_FACE('',(#504),#834,.T.);
#535=ADVANCED_FACE('',(#505),#835,.F.);
#536=ADVANCED_FACE('',(#506),#836,.T.);
#537=ADVANCED_FACE('',(#507),#837,.T.);
#538=ADVANCED_FACE('',(#508),#838,.T.);
#539=ADVANCED_FACE('',(#509),#839,.T.);
#540=ADVANCED_FACE('',(#510),#834,.T.);
#541=ADVANCED_FACE('',(#511),#833,.T.);
#542=ADVANCED_FACE('',(#512),#840,.T.);
#543=ADVANCED_FACE('',(#513),#841,.T.);
#544=ADVANCED_FACE('',(#514),#842,.T.);
#545=ADVANCED_FACE('',(#515),#842,.T.);
#546=ADVANCED_FACE('',(#516),#841,.T.);
#547=ADVANCED_FACE('',(#517),#843,.T.);
#548=ADVANCED_FACE('',(#518),#844,.T.);
#549=ADVANCED_FACE('',(#519,#520),#845,.F.);
#550=ADVANCED_FACE('',(#521),#846,.T.);
#551=ADVANCED_FACE('',(#522),#847,.T.);
#552=ADVANCED_FACE('',(#523),#848,.T.);
#553=ADVANCED_FACE('',(#524),#849,.T.);
#554=ADVANCED_FACE('',(#525),#850,.T.);
#555=ADVANCED_FACE('',(#526),#851,.T.);
#556=ADVANCED_FACE('',(#527,#528),#852,.T.);
#557=AXIS2_PLACEMENT_3D('',#695,#591,$);
#558=AXIS2_PLACEMENT_3D('',#704,#596,$);
#559=AXIS2_PLACEMENT_3D('',#710,#600,$);
#560=AXIS2_PLACEMENT_3D('',#716,#604,$);
#561=AXIS2_PLACEMENT_3D('',#719,#607,$);
#562=AXIS2_PLACEMENT_3D('',#725,#611,$);
#563=AXIS2_PLACEMENT_3D('',#729,#614,$);
#564=AXIS2_PLACEMENT_3D('',#730,#615,$);
#565=AXIS2_PLACEMENT_3D('',#739,#620,$);
#566=AXIS2_PLACEMENT_3D('',#745,#624,$);
#567=AXIS2_PLACEMENT_3D('',#751,#628,$);
#568=AXIS2_PLACEMENT_3D('',#759,#633,$);
#569=AXIS2_PLACEMENT_3D('',#760,#634,$);
#570=AXIS2_PLACEMENT_3D('',#764,#637,$);
#571=AXIS2_PLACEMENT_3D('',#769,#641,$);
#572=AXIS2_PLACEMENT_3D('',#778,#646,$);
#573=AXIS2_PLACEMENT_3D('',#784,#650,$);
#574=AXIS2_PLACEMENT_3D('',#796,#657,$);
#575=AXIS2_PLACEMENT_3D('',#800,#660,$);
#576=AXIS2_PLACEMENT_3D('',#804,#663,$);
#577=AXIS2_PLACEMENT_3D('',#810,#667,$);
#578=AXIS2_PLACEMENT_3D('',#812,#669,$);
#579=AXIS2_PLACEMENT_3D('',#816,#672,$);
#580=AXIS2_PLACEMENT_3D('',#818,#674,$);
#581=AXIS2_PLACEMENT_3D('AXIS_PLACEMENT_1',#819,#675,#676);
#582=AXIS2_PLACEMENT_3D('AXIS_PLACEMENT_5',#820,#677,#678);
#583=AXIS2_PLACEMENT_3D('AXIS_PLACEMENT_11',#821,#679,#680);
#584=AXIS2_PLACEMENT_3D('AXIS_PLACEMENT_15',#822,#681,#682);
#585=AXIS2_PLACEMENT_3D('AXIS_PLACEMENT_21',#823,#683,#684);
#586=AXIS2_PLACEMENT_3D('AXIS_PLACEMENT_25',#824,#685,#686);
#587=AXIS2_PLACEMENT_3D('AXIS_PLACEMENT_31',#825,#687,#688);
#588=AXIS2_PLACEMENT_3D('AXIS_PLACEMENT_35',#826,#689,#690);
#589=AXIS2_PLACEMENT_3D('AXIS_PLACEMENT_41',#827,#691,#692);
#590=AXIS2_PLACEMENT_3D('AXIS_PLACEMENT_45',#828,#693,#694);
#591=DIRECTION('',(9.13079432329413E-031,0.707106781186549,-0.707106781186546));
#592=DIRECTION('',(-1.,0.,-1.29128931672419E-030));
#593=DIRECTION('',(-0.577350269189625,0.577350269189625,0.577350269189627));
#594=DIRECTION('',(1.,0.,1.29128931672419E-030));
#595=DIRECTION('',(-0.577350269189625,-0.577350269189625,-0.577350269189627));
#596=DIRECTION('',(0.707106781186549,-1.58796423013811E-031,-0.707106781186546));
#597=DIRECTION('',(0.,1.,-2.24572055082467E-031));
#598=DIRECTION('',(0.,-1.,2.24572055082467E-031));
#599=DIRECTION('',(-0.577350269189625,0.577350269189625,-0.577350269189627));
#600=DIRECTION('',(9.13079432329413E-031,-0.707106781186549,-0.707106781186546));
#601=DIRECTION('',(1.,0.,1.29128931672419E-030));
#602=DIRECTION('',(-1.,0.,-1.29128931672419E-030));
#603=DIRECTION('',(0.577350269189625,0.577350269189625,-0.577350269189627));
#604=DIRECTION('',(-0.707106781186549,-1.58796423013811E-031,-0.707106781186546));
#605=DIRECTION('',(0.,-1.,2.24572055082467E-031));
#606=DIRECTION('',(0.,1.,-2.24572055082467E-031));
#607=DIRECTION('',(1.,0.,0.));
#608=DIRECTION('',(0.,0.,1.));
#609=DIRECTION('',(0.,1.,0.));
#610=DIRECTION('',(0.,0.,1.));
#611=DIRECTION('',(0.,1.,0.));
#612=DIRECTION('',(0.,0.,1.));
#613=DIRECTION('',(-1.,0.,0.));
#614=DIRECTION('',(-1.29128931672419E-030,2.24572055082467E-031,1.));
#615=DIRECTION('',(0.707106781186548,0.,0.707106781186547));
#616=DIRECTION('',(0.,1.,0.));
#617=DIRECTION('',(-0.577350269189627,-0.577350269189627,0.577350269189624));
#618=DIRECTION('',(0.,-1.,0.));
#619=DIRECTION('',(0.577350269189627,-0.577350269189627,-0.577350269189624));
#620=DIRECTION('',(0.,-0.707106781186548,0.707106781186547));
#621=DIRECTION('',(1.,0.,0.));
#622=DIRECTION('',(-1.,0.,0.));
#623=DIRECTION('',(-0.577350269189627,-0.577350269189627,-0.577350269189624));
#624=DIRECTION('',(-0.707106781186548,0.,0.707106781186547));
#625=DIRECTION('',(0.,-1.,0.));
#626=DIRECTION('',(0.,1.,0.));
#627=DIRECTION('',(-0.577350269189627,0.577350269189627,-0.577350269189624));
#628=DIRECTION('',(0.,0.707106781186548,0.707106781186547));
#629=DIRECTION('',(-1.,0.,0.));
#630=DIRECTION('',(1.,0.,0.));
#631=DIRECTION('',(1.,0.,0.));
#632=DIRECTION('',(0.,-1.,0.));
#633=DIRECTION('',(0.,0.,1.));
#634=DIRECTION('',(-1.,0.,0.));
#635=DIRECTION('',(0.,1.,0.));
#636=DIRECTION('',(0.,0.,1.));
#637=DIRECTION('',(0.,-1.,0.));
#638=DIRECTION('',(1.,0.,0.));
#639=DIRECTION('',(-1.,0.,0.));
#640=DIRECTION('',(0.,-1.,0.));
#641=DIRECTION('',(-0.707106781186547,-0.707106781186547,0.));
#642=DIRECTION('',(-0.707106781186547,0.707106781186547,0.));
#643=DIRECTION('',(0.,0.,-1.));
#644=DIRECTION('',(0.707106781186547,-0.707106781186547,0.));
#645=DIRECTION('',(0.,0.,1.));
#646=DIRECTION('',(0.,-1.,0.));
#647=DIRECTION('',(1.,0.,0.));
#648=DIRECTION('',(0.,0.,-1.));
#649=DIRECTION('',(-1.,0.,0.));
#650=DIRECTION('',(0.,0.,1.));
#651=DIRECTION('',(0.,-1.,0.));
#652=DIRECTION('',(-0.707106781186547,-0.707106781186547,0.));
#653=DIRECTION('',(-1.,0.,0.));
#654=DIRECTION('',(-0.707106781186547,0.707106781186547,0.));
#655=DIRECTION('',(0.,1.,0.));
#656=DIRECTION('',(0.707106781186547,0.707106781186547,0.));
#657=DIRECTION('',(0.707106781186547,-0.707106781186547,0.));
#658=DIRECTION('',(-0.707106781186547,-0.707106781186547,0.));
#659=DIRECTION('',(0.,0.,1.));
#660=DIRECTION('',(1.,0.,0.));
#661=DIRECTION('',(0.,0.,-1.));
#662=DIRECTION('',(0.,-1.,0.));
#663=DIRECTION('',(-0.707106781186547,0.707106781186547,0.));
#664=DIRECTION('',(0.707106781186547,0.707106781186547,0.));
#665=DIRECTION('',(0.,0.,-1.));
#666=DIRECTION('',(0.,0.,1.));
#667=DIRECTION('',(-1.,0.,0.));
#668=DIRECTION('',(0.,1.,0.));
#669=DIRECTION('',(0.707106781186547,0.707106781186547,0.));
#670=DIRECTION('',(0.707106781186547,-0.707106781186547,0.));
#671=DIRECTION('',(0.,0.,1.));
#672=DIRECTION('',(0.,1.,0.));
#673=DIRECTION('',(1.,0.,0.));
#674=DIRECTION('',(0.,0.,1.));
#675=DIRECTION('DIRECTION2',(0.,0.,1.));
#676=DIRECTION('DIRECTION3',(1.,0.,0.));
#677=DIRECTION('DIRECTION6',(0.,0.,1.));
#678=DIRECTION('DIRECTION7',(1.,0.,0.));
#679=DIRECTION('DIRECTION12',(0.,0.,1.));
#680=DIRECTION('DIRECTION13',(1.,0.,0.));
#681=DIRECTION('DIRECTION16',(0.,0.,1.));
#682=DIRECTION('DIRECTION17',(1.,0.,0.));
#683=DIRECTION('DIRECTION22',(0.,0.,1.));
#684=DIRECTION('DIRECTION23',(1.,0.,0.));
#685=DIRECTION('DIRECTION26',(0.,0.,1.));
#686=DIRECTION('DIRECTION27',(1.,0.,0.));
#687=DIRECTION('DIRECTION32',(0.,0.,1.));
#688=DIRECTION('DIRECTION33',(1.,0.,0.));
#689=DIRECTION('DIRECTION36',(0.,0.,1.));
#690=DIRECTION('DIRECTION37',(1.,0.,0.));
#691=DIRECTION('DIRECTION42',(0.,0.,1.));
#692=DIRECTION('DIRECTION43',(1.,0.,0.));
#693=DIRECTION('DIRECTION46',(0.,0.,1.));
#694=DIRECTION('DIRECTION47',(1.,0.,0.));
#695=CARTESIAN_POINT('',(1.47451495458028E-017,0.022,-0.295));
#696=CARTESIAN_POINT('',(1.47451495458029E-017,0.012,-0.305));
#697=CARTESIAN_POINT('',(0.012,0.012,-0.305));
#698=CARTESIAN_POINT('',(-0.012,0.012,-0.305));
#699=CARTESIAN_POINT('',(-0.012,0.012,-0.305));
#700=CARTESIAN_POINT('',(-0.032,0.032,-0.285));
#701=CARTESIAN_POINT('',(1.47451495458028E-017,0.032,-0.285));
#702=CARTESIAN_POINT('',(0.032,0.032,-0.285));
#703=CARTESIAN_POINT('',(0.032,0.032,-0.285));
#704=CARTESIAN_POINT('',(0.022,-1.5770213417971E-018,-0.295));
#705=CARTESIAN_POINT('',(0.012,-1.5770213417971E-018,-0.305));
#706=CARTESIAN_POINT('',(0.012,-0.012,-0.305));
#707=CARTESIAN_POINT('',(0.032,-1.57702134179709E-018,-0.285));
#708=CARTESIAN_POINT('',(0.032,-0.032,-0.285));
#709=CARTESIAN_POINT('',(0.032,-0.032,-0.285));
#710=CARTESIAN_POINT('',(1.47451495458028E-017,-0.022,-0.295));
#711=CARTESIAN_POINT('',(1.47451495458029E-017,-0.012,-0.305));
#712=CARTESIAN_POINT('',(-0.012,-0.012,-0.305));
#713=CARTESIAN_POINT('',(1.47451495458028E-017,-0.032,-0.285));
#714=CARTESIAN_POINT('',(-0.032,-0.032,-0.285));
#715=CARTESIAN_POINT('',(-0.032,-0.032,-0.285));
#716=CARTESIAN_POINT('',(-0.022,-1.5770213417971E-018,-0.295));
#717=CARTESIAN_POINT('',(-0.012,-1.5770213417971E-018,-0.305));
#718=CARTESIAN_POINT('',(-0.032,-1.57702134179709E-018,-0.285));
#719=CARTESIAN_POINT('',(0.032,0.,-0.305));
#720=CARTESIAN_POINT('',(0.032,0.032,-0.305));
#721=CARTESIAN_POINT('',(0.032,0.032,0.));
#722=CARTESIAN_POINT('',(0.032,-3.46944695195361E-018,0.));
#723=CARTESIAN_POINT('',(0.032,-0.032,0.));
#724=CARTESIAN_POINT('',(0.032,-0.032,-0.305));
#725=CARTESIAN_POINT('',(1.38777878078145E-017,0.032,-0.305));
#726=CARTESIAN_POINT('',(-0.032,0.032,-0.305));
#727=CARTESIAN_POINT('',(-0.032,0.032,0.));
#728=CARTESIAN_POINT('',(2.2803728602386E-016,0.032,0.));
#729=CARTESIAN_POINT('',(1.56125112837913E-017,-3.1540426835942E-018,-0.305));
#730=CARTESIAN_POINT('',(0.022,0.,0.574));
#731=CARTESIAN_POINT('',(0.032,0.,0.564));
#732=CARTESIAN_POINT('',(0.032,-0.032,0.564));
#733=CARTESIAN_POINT('',(0.032,0.032,0.564));
#734=CARTESIAN_POINT('',(0.032,0.032,0.564));
#735=CARTESIAN_POINT('',(0.012,0.012,0.584));
#736=CARTESIAN_POINT('',(0.012,0.,0.584));
#737=CARTESIAN_POINT('',(0.012,-0.012,0.584));
#738=CARTESIAN_POINT('',(0.012,-0.012,0.584));
#739=CARTESIAN_POINT('',(6.93889390390723E-018,-0.022,0.574));
#740=CARTESIAN_POINT('',(6.93889390390723E-018,-0.032,0.564));
#741=CARTESIAN_POINT('',(-0.032,-0.032,0.564));
#742=CARTESIAN_POINT('',(6.93889390390723E-018,-0.012,0.584));
#743=CARTESIAN_POINT('',(-0.012,-0.012,0.584));
#744=CARTESIAN_POINT('',(-0.012,-0.012,0.584));
#745=CARTESIAN_POINT('',(-0.022,0.,0.574));
#746=CARTESIAN_POINT('',(-0.032,0.,0.564));
#747=CARTESIAN_POINT('',(-0.032,0.032,0.564));
#748=CARTESIAN_POINT('',(-0.012,0.,0.584));
#749=CARTESIAN_POINT('',(-0.012,0.012,0.584));
#750=CARTESIAN_POINT('',(-0.012,0.012,0.584));
#751=CARTESIAN_POINT('',(6.93889390390723E-018,0.022,0.574));
#752=CARTESIAN_POINT('',(6.93889390390723E-018,0.032,0.564));
#753=CARTESIAN_POINT('',(6.93889390390723E-018,0.012,0.584));
#754=CARTESIAN_POINT('',(0.032,0.032,0.254));
#755=CARTESIAN_POINT('',(2.2803728602386E-016,0.032,0.254));
#756=CARTESIAN_POINT('',(-0.032,0.032,0.254));
#757=CARTESIAN_POINT('',(0.032,-0.032,0.254));
#758=CARTESIAN_POINT('',(0.032,-3.46944695195361E-018,0.254));
#759=CARTESIAN_POINT('',(0.,0.,0.584));
#760=CARTESIAN_POINT('',(-0.032,0.,-0.305));
#761=CARTESIAN_POINT('',(-0.032,0.,0.254));
#762=CARTESIAN_POINT('',(-0.032,-0.032,0.254));
#763=CARTESIAN_POINT('',(-0.032,-0.032,-0.305));
#764=CARTESIAN_POINT('',(1.38777878078145E-017,-0.032,-0.305));
#765=CARTESIAN_POINT('',(2.2803728602386E-016,-0.032,0.));
#766=CARTESIAN_POINT('',(-0.032,-0.032,0.));
#767=CARTESIAN_POINT('',(2.2803728602386E-016,-0.032,0.254));
#768=CARTESIAN_POINT('',(-0.032,0.,0.));
#769=CARTESIAN_POINT('',(-0.114499999999999,-0.1145,0.));
#770=CARTESIAN_POINT('',(-0.114499999999999,-0.1145,0.254));
#771=CARTESIAN_POINT('',(-0.101999999999999,-0.127,0.254));
#772=CARTESIAN_POINT('',(-0.126999999999999,-0.102,0.254));
#773=CARTESIAN_POINT('',(-0.126999999999999,-0.102,0.));
#774=CARTESIAN_POINT('',(-0.126999999999999,-0.102,0.));
#775=CARTESIAN_POINT('',(-0.114499999999999,-0.1145,0.));
#776=CARTESIAN_POINT('',(-0.101999999999999,-0.127,0.));
#777=CARTESIAN_POINT('',(-0.101999999999999,-0.127,0.));
#778=CARTESIAN_POINT('',(4.44089209850063E-016,-0.127,0.));
#779=CARTESIAN_POINT('',(-0.126999999999999,-0.127,0.));
#780=CARTESIAN_POINT('',(0.102,-0.127,0.));
#781=CARTESIAN_POINT('',(0.102,-0.127,0.));
#782=CARTESIAN_POINT('',(0.102,-0.127,0.254));
#783=CARTESIAN_POINT('',(-0.126999999999999,-0.127,0.254));
#784=CARTESIAN_POINT('',(4.42196784239906E-016,0.,0.));
#785=CARTESIAN_POINT('',(-0.126999999999999,0.127,0.));
#786=CARTESIAN_POINT('',(-0.126999999999999,0.102,0.));
#787=CARTESIAN_POINT('',(-0.114499999999999,0.1145,0.));
#788=CARTESIAN_POINT('',(-0.101999999999999,0.127,0.));
#789=CARTESIAN_POINT('',(0.127,0.127,0.));
#790=CARTESIAN_POINT('',(0.102,0.127,0.));
#791=CARTESIAN_POINT('',(0.1145,0.1145,0.));
#792=CARTESIAN_POINT('',(0.127,0.102,0.));
#793=CARTESIAN_POINT('',(0.127,-0.127,0.));
#794=CARTESIAN_POINT('',(0.127,-0.102,0.));
#795=CARTESIAN_POINT('',(0.1145,-0.1145,0.));
#796=CARTESIAN_POINT('',(0.1145,-0.1145,0.));
#797=CARTESIAN_POINT('',(0.1145,-0.1145,0.254));
#798=CARTESIAN_POINT('',(0.127,-0.102,0.254));
#799=CARTESIAN_POINT('',(0.127,-0.102,0.));
#800=CARTESIAN_POINT('',(0.127,0.,0.));
#801=CARTESIAN_POINT('',(0.127,0.102,0.));
#802=CARTESIAN_POINT('',(0.127,0.102,0.254));
#803=CARTESIAN_POINT('',(0.127,-0.127,0.254));
#804=CARTESIAN_POINT('',(-0.114499999999999,0.1145,0.));
#805=CARTESIAN_POINT('',(-0.114499999999999,0.1145,0.254));
#806=CARTESIAN_POINT('',(-0.126999999999999,0.102,0.254));
#807=CARTESIAN_POINT('',(-0.101999999999999,0.127,0.254));
#808=CARTESIAN_POINT('',(-0.101999999999999,0.127,0.));
#809=CARTESIAN_POINT('',(-0.126999999999999,0.102,0.));
#810=CARTESIAN_POINT('',(-0.126999999999999,0.,0.));
#811=CARTESIAN_POINT('',(-0.126999999999999,0.127,0.254));
#812=CARTESIAN_POINT('',(0.1145,0.1145,0.));
#813=CARTESIAN_POINT('',(0.1145,0.1145,0.254));
#814=CARTESIAN_POINT('',(0.102,0.127,0.254));
#815=CARTESIAN_POINT('',(0.102,0.127,0.));
#816=CARTESIAN_POINT('',(4.44089209850063E-016,0.127,0.));
#817=CARTESIAN_POINT('',(0.127,0.127,0.254));
#818=CARTESIAN_POINT('',(4.42196784239906E-016,0.,0.254));
#819=CARTESIAN_POINT('CARTESIAN_POINT4',(0.,0.,0.));
#820=CARTESIAN_POINT('CARTESIAN_POINT8',(0.,0.,0.));
#821=CARTESIAN_POINT('CARTESIAN_POINT14',(0.254,0.,0.));
#822=CARTESIAN_POINT('CARTESIAN_POINT18',(0.,0.,0.));
#823=CARTESIAN_POINT('CARTESIAN_POINT24',(0.508,0.,0.));
#824=CARTESIAN_POINT('CARTESIAN_POINT28',(0.,0.,0.));
#825=CARTESIAN_POINT('CARTESIAN_POINT34',(0.762,0.,0.));
#826=CARTESIAN_POINT('CARTESIAN_POINT38',(0.,0.,0.));
#827=CARTESIAN_POINT('CARTESIAN_POINT44',(1.016,0.,0.));
#828=CARTESIAN_POINT('CARTESIAN_POINT48',(0.,0.,0.));
#829=PLANE('',#557);
#830=PLANE('',#558);
#831=PLANE('',#559);
#832=PLANE('',#560);
#833=PLANE('',#561);
#834=PLANE('',#562);
#835=PLANE('',#563);
#836=PLANE('',#564);
#837=PLANE('',#565);
#838=PLANE('',#566);
#839=PLANE('',#567);
#840=PLANE('',#568);
#841=PLANE('',#569);
#842=PLANE('',#570);
#843=PLANE('',#571);
#844=PLANE('',#572);
#845=PLANE('',#573);
#846=PLANE('',#574);
#847=PLANE('',#575);
#848=PLANE('',#576);
#849=PLANE('',#577);
#850=PLANE('',#578);
#851=PLANE('',#579);
#852=PLANE('',#580);
#853=CLOSED_SHELL('',(#529,#530,#531,#532,#533,#534,#535,#536,#537,#538,
#539,#540,#541,#542,#543,#544,#545,#546,#547,#548,#549,#550,#551,#552,#553,
#554,#555,#556));
#854=MANIFOLD_SOLID_BREP('',#853);
#855=ADVANCED_BREP_SHAPE_REPRESENTATION('PEC05SAAN_1',(#854),#115);
ENDSEC;
END-ISO-10303-21;
