ISO-10303-21;
HEADER;
/* Generated by software containing ST-Developer
 * from STEP Tools, Inc. (www.steptools.com) 
 */

FILE_DESCRIPTION(
/* description */ ('Alibre Inc.'),
/* implementation_level */ '2;1');

FILE_NAME(
/* name */ 'export0',
/* time_stamp */ '2013-11-08T09:57:26-06:00',
/* author */ (''),
/* organization */ (''),
/* preprocessor_version */ 'ST-DEVELOPER v14',
/* originating_system */ 'Alibre',
/* authorisation */ '');

FILE_SCHEMA (('AUTOMOTIVE_DESIGN'));
ENDSEC;

DATA;
#10=CONTEXT_DEPENDENT_SHAPE_REPRESENTATION(#34,#76);
#11=CONTEXT_DEPENDENT_SHAPE_REPRESENTATION(#35,#77);
#12=CONTEXT_DEPENDENT_SHAPE_REPRESENTATION(#36,#78);
#13=CONTEXT_DEPENDENT_SHAPE_REPRESENTATION(#37,#79);
#14=CONTEXT_DEPENDENT_SHAPE_REPRESENTATION(#38,#80);
#15=CONTEXT_DEPENDENT_SHAPE_REPRESENTATION(#39,#81);
#16=CONTEXT_DEPENDENT_SHAPE_REPRESENTATION(#40,#82);
#17=CONTEXT_DEPENDENT_SHAPE_REPRESENTATION(#41,#83);
#18=NEXT_ASSEMBLY_USAGE_OCCURRENCE('NAUO_ID9','NAUO_NAME9',$,#85,#84,$);
#19=NEXT_ASSEMBLY_USAGE_OCCURRENCE('NAUO_ID19','NAUO_NAME19',$,#85,#84,$);
#20=NEXT_ASSEMBLY_USAGE_OCCURRENCE('NAUO_ID29','NAUO_NAME29',$,#85,#84,$);
#21=NEXT_ASSEMBLY_USAGE_OCCURRENCE('NAUO_ID39','NAUO_NAME39',$,#85,#84,$);
#22=NEXT_ASSEMBLY_USAGE_OCCURRENCE('NAUO_ID49','NAUO_NAME49',$,#85,#84,$);
#23=NEXT_ASSEMBLY_USAGE_OCCURRENCE('NAUO_ID59','NAUO_NAME59',$,#85,#84,$);
#24=NEXT_ASSEMBLY_USAGE_OCCURRENCE('NAUO_ID69','NAUO_NAME69',$,#85,#84,$);
#25=NEXT_ASSEMBLY_USAGE_OCCURRENCE('NAUO_ID79','NAUO_NAME79',$,#85,#84,$);
#26=ITEM_DEFINED_TRANSFORMATION('ITD_NAME0',$,#327,#326);
#27=ITEM_DEFINED_TRANSFORMATION('ITD_NAME10',$,#329,#328);
#28=ITEM_DEFINED_TRANSFORMATION('ITD_NAME20',$,#331,#330);
#29=ITEM_DEFINED_TRANSFORMATION('ITD_NAME30',$,#333,#332);
#30=ITEM_DEFINED_TRANSFORMATION('ITD_NAME40',$,#335,#334);
#31=ITEM_DEFINED_TRANSFORMATION('ITD_NAME50',$,#337,#336);
#32=ITEM_DEFINED_TRANSFORMATION('ITD_NAME60',$,#339,#338);
#33=ITEM_DEFINED_TRANSFORMATION('ITD_NAME70',$,#341,#340);
#34=(
REPRESENTATION_RELATIONSHIP('On-Shore_OSTTE080161',$,#96,#97)
REPRESENTATION_RELATIONSHIP_WITH_TRANSFORMATION(#26)
SHAPE_REPRESENTATION_RELATIONSHIP()
);
#35=(
REPRESENTATION_RELATIONSHIP('On-Shore_OSTTE080161',$,#96,#97)
REPRESENTATION_RELATIONSHIP_WITH_TRANSFORMATION(#27)
SHAPE_REPRESENTATION_RELATIONSHIP()
);
#36=(
REPRESENTATION_RELATIONSHIP('On-Shore_OSTTE080161',$,#96,#97)
REPRESENTATION_RELATIONSHIP_WITH_TRANSFORMATION(#28)
SHAPE_REPRESENTATION_RELATIONSHIP()
);
#37=(
REPRESENTATION_RELATIONSHIP('On-Shore_OSTTE080161',$,#96,#97)
REPRESENTATION_RELATIONSHIP_WITH_TRANSFORMATION(#29)
SHAPE_REPRESENTATION_RELATIONSHIP()
);
#38=(
REPRESENTATION_RELATIONSHIP('On-Shore_OSTTE080161',$,#96,#97)
REPRESENTATION_RELATIONSHIP_WITH_TRANSFORMATION(#30)
SHAPE_REPRESENTATION_RELATIONSHIP()
);
#39=(
REPRESENTATION_RELATIONSHIP('On-Shore_OSTTE080161',$,#96,#97)
REPRESENTATION_RELATIONSHIP_WITH_TRANSFORMATION(#31)
SHAPE_REPRESENTATION_RELATIONSHIP()
);
#40=(
REPRESENTATION_RELATIONSHIP('On-Shore_OSTTE080161',$,#96,#97)
REPRESENTATION_RELATIONSHIP_WITH_TRANSFORMATION(#32)
SHAPE_REPRESENTATION_RELATIONSHIP()
);
#41=(
REPRESENTATION_RELATIONSHIP('On-Shore_OSTTE080161',$,#96,#97)
REPRESENTATION_RELATIONSHIP_WITH_TRANSFORMATION(#33)
SHAPE_REPRESENTATION_RELATIONSHIP()
);
#42=STYLED_ITEM('NAME_0',(#68),#497);
#43=STYLED_ITEM('NAME_0',(#69),#298);
#44=STYLED_ITEM('NAME_0',(#69),#299);
#45=STYLED_ITEM('NAME_0',(#69),#300);
#46=STYLED_ITEM('NAME_0',(#69),#301);
#47=STYLED_ITEM('NAME_0',(#69),#302);
#48=STYLED_ITEM('NAME_0',(#69),#303);
#49=STYLED_ITEM('NAME_0',(#69),#304);
#50=STYLED_ITEM('NAME_0',(#69),#305);
#51=STYLED_ITEM('NAME_0',(#68),#294);
#52=STYLED_ITEM('NAME_0',(#68),#295);
#53=STYLED_ITEM('NAME_0',(#68),#296);
#54=STYLED_ITEM('NAME_0',(#68),#297);
#55=MECHANICAL_DESIGN_GEOMETRIC_PRESENTATION_REPRESENTATION('NAME_0',(#42,
#43,#44,#45,#46,#47,#48,#49,#50,#51,#52,#53,#54),#107);
#56=COLOUR_RGB('',0.752941176470588,0.752941176470588,0.752941176470588);
#57=COLOUR_RGB('',0.211764705882353,0.211764705882353,0.211764705882353);
#58=FILL_AREA_STYLE_COLOUR('NAME_0',#56);
#59=FILL_AREA_STYLE_COLOUR('NAME_0',#57);
#60=FILL_AREA_STYLE('NAME_0',(#58));
#61=FILL_AREA_STYLE('NAME_0',(#59));
#62=SURFACE_STYLE_FILL_AREA(#60);
#63=SURFACE_STYLE_FILL_AREA(#61);
#64=SURFACE_SIDE_STYLE('NAME_0',(#62));
#65=SURFACE_SIDE_STYLE('NAME_0',(#63));
#66=SURFACE_STYLE_USAGE(.POSITIVE.,#64);
#67=SURFACE_STYLE_USAGE(.POSITIVE.,#65);
#68=PRESENTATION_STYLE_ASSIGNMENT((#66));
#69=PRESENTATION_STYLE_ASSIGNMENT((#67));
#70=PRODUCT_DEFINITION_CONTEXT('part definition',#91,'design');
#71=PRODUCT_DEFINITION_CONTEXT('part definition',#91,'design');
#72=SHAPE_DEFINITION_REPRESENTATION(#74,#96);
#73=SHAPE_DEFINITION_REPRESENTATION(#75,#97);
#74=PRODUCT_DEFINITION_SHAPE('PRODUCT_VERSION_ID',
'PRODUCT_VERSION_DESCR',#84);
#75=PRODUCT_DEFINITION_SHAPE('PRODUCT_VERSION_ID',
'PRODUCT_VERSION_DESCR',#85);
#76=PRODUCT_DEFINITION_SHAPE('NAME_10',$,#18);
#77=PRODUCT_DEFINITION_SHAPE('NAME_20',$,#19);
#78=PRODUCT_DEFINITION_SHAPE('NAME_30',$,#20);
#79=PRODUCT_DEFINITION_SHAPE('NAME_40',$,#21);
#80=PRODUCT_DEFINITION_SHAPE('NAME_50',$,#22);
#81=PRODUCT_DEFINITION_SHAPE('NAME_60',$,#23);
#82=PRODUCT_DEFINITION_SHAPE('NAME_70',$,#24);
#83=PRODUCT_DEFINITION_SHAPE('NAME_80',$,#25);
#84=PRODUCT_DEFINITION('On-Shore_OSTTE080161','PRODUCT_VERSION_DESCR',#86,
#70);
#85=PRODUCT_DEFINITION('PRODUCT_VERSION_ID','PRODUCT_VERSION_DESCR',#87,
#71);
#86=PRODUCT_DEFINITION_FORMATION_WITH_SPECIFIED_SOURCE(
'PRODUCT_VERSION_ID','PRODUCT_VERSION_DESCR',#94,.MADE.);
#87=PRODUCT_DEFINITION_FORMATION_WITH_SPECIFIED_SOURCE(
'PRODUCT_VERSION_ID','PRODUCT_VERSION_DESCR',#95,.MADE.);
#88=PRODUCT_RELATED_PRODUCT_CATEGORY('part','part',(#94));
#89=PRODUCT_RELATED_PRODUCT_CATEGORY('part','part',(#95));
#90=APPLICATION_PROTOCOL_DEFINITION('Draft International Standard',
'automotive_design',1994,#91);
#91=APPLICATION_CONTEXT('automotive_Design');
#92=PRODUCT_CONTEXT('3D Mechanical Parts',#91,'mechanical');
#93=PRODUCT_CONTEXT('3D Mechanical Parts',#91,'mechanical');
#94=PRODUCT('','On-Shore_OSTTE080161','',(#92));
#95=PRODUCT('','On-Shore_OSTTE080161','',(#93));
#96=SHAPE_REPRESENTATION('On-Shore_OSTTE080161',(#327,#329,#331,#333,#335,
#337,#339,#341),#107);
#97=SHAPE_REPRESENTATION('NAME_0',(#326,#328,#330,#332,#334,#336,#338,#340),
#108);
#98=SHAPE_REPRESENTATION_RELATIONSHIP('NAME_0',$,#96,#498);
#99=(
LENGTH_UNIT()
NAMED_UNIT(*)
SI_UNIT(.CENTI.,.METRE.)
);
#100=(
LENGTH_UNIT()
NAMED_UNIT(*)
SI_UNIT(.CENTI.,.METRE.)
);
#101=(
NAMED_UNIT(*)
PLANE_ANGLE_UNIT()
SI_UNIT($,.RADIAN.)
);
#102=(
NAMED_UNIT(*)
PLANE_ANGLE_UNIT()
SI_UNIT($,.RADIAN.)
);
#103=(
NAMED_UNIT(*)
SI_UNIT($,.STERADIAN.)
SOLID_ANGLE_UNIT()
);
#104=(
NAMED_UNIT(*)
SI_UNIT($,.STERADIAN.)
SOLID_ANGLE_UNIT()
);
#105=UNCERTAINTY_MEASURE_WITH_UNIT(LENGTH_MEASURE(1.E-006),#99,
'DISTANCE_ACCURACY_VALUE',
'Maximum model space distance between geometric entities at asserted co
nnectivities');
#106=UNCERTAINTY_MEASURE_WITH_UNIT(LENGTH_MEASURE(1.E-006),#100,
'DISTANCE_ACCURACY_VALUE',
'Maximum model space distance between geometric entities at asserted co
nnectivities');
#107=(
GEOMETRIC_REPRESENTATION_CONTEXT(3)
GLOBAL_UNCERTAINTY_ASSIGNED_CONTEXT((#105))
GLOBAL_UNIT_ASSIGNED_CONTEXT((#103,#101,#99))
REPRESENTATION_CONTEXT('ID1','3D')
);
#108=(
GEOMETRIC_REPRESENTATION_CONTEXT(3)
GLOBAL_UNCERTAINTY_ASSIGNED_CONTEXT((#106))
GLOBAL_UNIT_ASSIGNED_CONTEXT((#104,#102,#100))
REPRESENTATION_CONTEXT('ID1','3D')
);
#109=VECTOR('',#364,1.);
#110=VECTOR('',#365,1.);
#111=VECTOR('',#366,1.);
#112=VECTOR('',#367,1.);
#113=VECTOR('',#369,1.);
#114=VECTOR('',#370,1.);
#115=VECTOR('',#371,1.);
#116=VECTOR('',#373,1.);
#117=VECTOR('',#374,1.);
#118=VECTOR('',#375,1.);
#119=VECTOR('',#377,1.);
#120=VECTOR('',#378,1.);
#121=VECTOR('',#379,1.);
#122=VECTOR('',#381,1.);
#123=VECTOR('',#382,1.);
#124=VECTOR('',#383,1.);
#125=VECTOR('',#385,1.);
#126=VECTOR('',#386,1.);
#127=LINE('',#440,#109);
#128=LINE('',#443,#110);
#129=LINE('',#445,#111);
#130=LINE('',#447,#112);
#131=LINE('',#449,#113);
#132=LINE('',#451,#114);
#133=LINE('',#453,#115);
#134=LINE('',#455,#116);
#135=LINE('',#457,#117);
#136=LINE('',#459,#118);
#137=LINE('',#461,#119);
#138=LINE('',#463,#120);
#139=LINE('',#465,#121);
#140=LINE('',#467,#122);
#141=LINE('',#469,#123);
#142=LINE('',#471,#124);
#143=LINE('',#473,#125);
#144=LINE('',#474,#126);
#145=PLANE('',#309);
#146=PLANE('',#313);
#147=PLANE('',#317);
#148=PLANE('',#318);
#149=PLANE('',#319);
#150=PLANE('',#320);
#151=PLANE('',#321);
#152=PLANE('',#322);
#153=PLANE('',#323);
#154=PLANE('',#324);
#155=PLANE('',#325);
#156=VERTEX_POINT('',#423);
#157=VERTEX_POINT('',#425);
#158=VERTEX_POINT('',#429);
#159=VERTEX_POINT('',#431);
#160=VERTEX_POINT('',#435);
#161=VERTEX_POINT('',#437);
#162=VERTEX_POINT('',#441);
#163=VERTEX_POINT('',#442);
#164=VERTEX_POINT('',#444);
#165=VERTEX_POINT('',#446);
#166=VERTEX_POINT('',#450);
#167=VERTEX_POINT('',#452);
#168=VERTEX_POINT('',#456);
#169=VERTEX_POINT('',#458);
#170=VERTEX_POINT('',#462);
#171=VERTEX_POINT('',#464);
#172=VERTEX_POINT('',#468);
#173=VERTEX_POINT('',#470);
#174=CIRCLE('',#307,0.045);
#175=CIRCLE('',#308,0.045);
#176=CIRCLE('',#311,0.0998993210417564);
#177=CIRCLE('',#312,0.0998993210417564);
#178=CIRCLE('',#315,0.0738725016788661);
#179=CIRCLE('',#316,0.0738725016788661);
#180=EDGE_CURVE('',#156,#156,#174,.T.);
#181=EDGE_CURVE('',#157,#157,#175,.T.);
#182=EDGE_CURVE('',#158,#158,#176,.T.);
#183=EDGE_CURVE('',#159,#159,#177,.T.);
#184=EDGE_CURVE('',#160,#160,#178,.T.);
#185=EDGE_CURVE('',#161,#161,#179,.T.);
#186=EDGE_CURVE('',#162,#163,#127,.T.);
#187=EDGE_CURVE('',#164,#163,#128,.T.);
#188=EDGE_CURVE('',#165,#164,#129,.T.);
#189=EDGE_CURVE('',#165,#162,#130,.T.);
#190=EDGE_CURVE('',#163,#166,#131,.T.);
#191=EDGE_CURVE('',#167,#166,#132,.T.);
#192=EDGE_CURVE('',#164,#167,#133,.T.);
#193=EDGE_CURVE('',#166,#168,#134,.T.);
#194=EDGE_CURVE('',#169,#168,#135,.T.);
#195=EDGE_CURVE('',#167,#169,#136,.T.);
#196=EDGE_CURVE('',#168,#170,#137,.T.);
#197=EDGE_CURVE('',#171,#170,#138,.T.);
#198=EDGE_CURVE('',#169,#171,#139,.T.);
#199=EDGE_CURVE('',#170,#172,#140,.T.);
#200=EDGE_CURVE('',#173,#172,#141,.T.);
#201=EDGE_CURVE('',#171,#173,#142,.T.);
#202=EDGE_CURVE('',#172,#162,#143,.T.);
#203=EDGE_CURVE('',#173,#165,#144,.T.);
#204=ORIENTED_EDGE('',*,*,#180,.T.);
#205=ORIENTED_EDGE('',*,*,#181,.F.);
#206=ORIENTED_EDGE('',*,*,#180,.F.);
#207=ORIENTED_EDGE('',*,*,#182,.F.);
#208=ORIENTED_EDGE('',*,*,#183,.F.);
#209=ORIENTED_EDGE('',*,*,#182,.T.);
#210=ORIENTED_EDGE('',*,*,#184,.F.);
#211=ORIENTED_EDGE('',*,*,#185,.F.);
#212=ORIENTED_EDGE('',*,*,#184,.T.);
#213=ORIENTED_EDGE('',*,*,#186,.T.);
#214=ORIENTED_EDGE('',*,*,#187,.F.);
#215=ORIENTED_EDGE('',*,*,#188,.F.);
#216=ORIENTED_EDGE('',*,*,#189,.T.);
#217=ORIENTED_EDGE('',*,*,#190,.T.);
#218=ORIENTED_EDGE('',*,*,#191,.F.);
#219=ORIENTED_EDGE('',*,*,#192,.F.);
#220=ORIENTED_EDGE('',*,*,#187,.T.);
#221=ORIENTED_EDGE('',*,*,#185,.T.);
#222=ORIENTED_EDGE('',*,*,#193,.T.);
#223=ORIENTED_EDGE('',*,*,#194,.F.);
#224=ORIENTED_EDGE('',*,*,#195,.F.);
#225=ORIENTED_EDGE('',*,*,#191,.T.);
#226=ORIENTED_EDGE('',*,*,#196,.T.);
#227=ORIENTED_EDGE('',*,*,#197,.F.);
#228=ORIENTED_EDGE('',*,*,#198,.F.);
#229=ORIENTED_EDGE('',*,*,#194,.T.);
#230=ORIENTED_EDGE('',*,*,#183,.T.);
#231=ORIENTED_EDGE('',*,*,#199,.T.);
#232=ORIENTED_EDGE('',*,*,#200,.F.);
#233=ORIENTED_EDGE('',*,*,#201,.F.);
#234=ORIENTED_EDGE('',*,*,#197,.T.);
#235=ORIENTED_EDGE('',*,*,#181,.T.);
#236=ORIENTED_EDGE('',*,*,#202,.T.);
#237=ORIENTED_EDGE('',*,*,#189,.F.);
#238=ORIENTED_EDGE('',*,*,#203,.F.);
#239=ORIENTED_EDGE('',*,*,#200,.T.);
#240=ORIENTED_EDGE('',*,*,#186,.F.);
#241=ORIENTED_EDGE('',*,*,#202,.F.);
#242=ORIENTED_EDGE('',*,*,#199,.F.);
#243=ORIENTED_EDGE('',*,*,#196,.F.);
#244=ORIENTED_EDGE('',*,*,#193,.F.);
#245=ORIENTED_EDGE('',*,*,#190,.F.);
#246=ORIENTED_EDGE('',*,*,#203,.T.);
#247=ORIENTED_EDGE('',*,*,#188,.T.);
#248=ORIENTED_EDGE('',*,*,#192,.T.);
#249=ORIENTED_EDGE('',*,*,#195,.T.);
#250=ORIENTED_EDGE('',*,*,#198,.T.);
#251=ORIENTED_EDGE('',*,*,#201,.T.);
#252=EDGE_LOOP('',(#204));
#253=EDGE_LOOP('',(#205));
#254=EDGE_LOOP('',(#206));
#255=EDGE_LOOP('',(#207));
#256=EDGE_LOOP('',(#208));
#257=EDGE_LOOP('',(#209));
#258=EDGE_LOOP('',(#210));
#259=EDGE_LOOP('',(#211));
#260=EDGE_LOOP('',(#212));
#261=EDGE_LOOP('',(#213,#214,#215,#216));
#262=EDGE_LOOP('',(#217,#218,#219,#220));
#263=EDGE_LOOP('',(#221));
#264=EDGE_LOOP('',(#222,#223,#224,#225));
#265=EDGE_LOOP('',(#226,#227,#228,#229));
#266=EDGE_LOOP('',(#230));
#267=EDGE_LOOP('',(#231,#232,#233,#234));
#268=EDGE_LOOP('',(#235));
#269=EDGE_LOOP('',(#236,#237,#238,#239));
#270=EDGE_LOOP('',(#240,#241,#242,#243,#244,#245));
#271=EDGE_LOOP('',(#246,#247,#248,#249,#250,#251));
#272=FACE_BOUND('',#252,.T.);
#273=FACE_BOUND('',#253,.T.);
#274=FACE_BOUND('',#254,.T.);
#275=FACE_BOUND('',#255,.T.);
#276=FACE_BOUND('',#256,.T.);
#277=FACE_BOUND('',#257,.T.);
#278=FACE_BOUND('',#258,.T.);
#279=FACE_BOUND('',#259,.T.);
#280=FACE_BOUND('',#260,.T.);
#281=FACE_BOUND('',#261,.T.);
#282=FACE_BOUND('',#262,.T.);
#283=FACE_BOUND('',#263,.T.);
#284=FACE_BOUND('',#264,.T.);
#285=FACE_BOUND('',#265,.T.);
#286=FACE_BOUND('',#266,.T.);
#287=FACE_BOUND('',#267,.T.);
#288=FACE_BOUND('',#268,.T.);
#289=FACE_BOUND('',#269,.T.);
#290=FACE_BOUND('',#270,.T.);
#291=FACE_BOUND('',#271,.T.);
#292=ADVANCED_FACE('',(#272,#273),#493,.T.);
#293=ADVANCED_FACE('',(#274),#145,.T.);
#294=ADVANCED_FACE('',(#275,#276),#494,.F.);
#295=ADVANCED_FACE('',(#277),#146,.T.);
#296=ADVANCED_FACE('',(#278,#279),#495,.F.);
#297=ADVANCED_FACE('',(#280),#147,.T.);
#298=ADVANCED_FACE('',(#281),#148,.T.);
#299=ADVANCED_FACE('',(#282),#149,.T.);
#300=ADVANCED_FACE('',(#283,#284),#150,.T.);
#301=ADVANCED_FACE('',(#285),#151,.T.);
#302=ADVANCED_FACE('',(#286,#287),#152,.T.);
#303=ADVANCED_FACE('',(#288,#289),#153,.T.);
#304=ADVANCED_FACE('',(#290),#154,.T.);
#305=ADVANCED_FACE('',(#291),#155,.F.);
#306=AXIS2_PLACEMENT_3D('',#421,#342,#343);
#307=AXIS2_PLACEMENT_3D('',#422,#344,#345);
#308=AXIS2_PLACEMENT_3D('',#424,#346,#347);
#309=AXIS2_PLACEMENT_3D('',#426,#348,$);
#310=AXIS2_PLACEMENT_3D('',#427,#349,#350);
#311=AXIS2_PLACEMENT_3D('',#428,#351,#352);
#312=AXIS2_PLACEMENT_3D('',#430,#353,#354);
#313=AXIS2_PLACEMENT_3D('',#432,#355,$);
#314=AXIS2_PLACEMENT_3D('',#433,#356,#357);
#315=AXIS2_PLACEMENT_3D('',#434,#358,#359);
#316=AXIS2_PLACEMENT_3D('',#436,#360,#361);
#317=AXIS2_PLACEMENT_3D('',#438,#362,$);
#318=AXIS2_PLACEMENT_3D('',#439,#363,$);
#319=AXIS2_PLACEMENT_3D('',#448,#368,$);
#320=AXIS2_PLACEMENT_3D('',#454,#372,$);
#321=AXIS2_PLACEMENT_3D('',#460,#376,$);
#322=AXIS2_PLACEMENT_3D('',#466,#380,$);
#323=AXIS2_PLACEMENT_3D('',#472,#384,$);
#324=AXIS2_PLACEMENT_3D('',#475,#387,$);
#325=AXIS2_PLACEMENT_3D('',#476,#388,$);
#326=AXIS2_PLACEMENT_3D('AXIS_PLACEMENT_1',#477,#389,#390);
#327=AXIS2_PLACEMENT_3D('AXIS_PLACEMENT_5',#478,#391,#392);
#328=AXIS2_PLACEMENT_3D('AXIS_PLACEMENT_11',#479,#393,#394);
#329=AXIS2_PLACEMENT_3D('AXIS_PLACEMENT_15',#480,#395,#396);
#330=AXIS2_PLACEMENT_3D('AXIS_PLACEMENT_21',#481,#397,#398);
#331=AXIS2_PLACEMENT_3D('AXIS_PLACEMENT_25',#482,#399,#400);
#332=AXIS2_PLACEMENT_3D('AXIS_PLACEMENT_31',#483,#401,#402);
#333=AXIS2_PLACEMENT_3D('AXIS_PLACEMENT_35',#484,#403,#404);
#334=AXIS2_PLACEMENT_3D('AXIS_PLACEMENT_41',#485,#405,#406);
#335=AXIS2_PLACEMENT_3D('AXIS_PLACEMENT_45',#486,#407,#408);
#336=AXIS2_PLACEMENT_3D('AXIS_PLACEMENT_51',#487,#409,#410);
#337=AXIS2_PLACEMENT_3D('AXIS_PLACEMENT_55',#488,#411,#412);
#338=AXIS2_PLACEMENT_3D('AXIS_PLACEMENT_61',#489,#413,#414);
#339=AXIS2_PLACEMENT_3D('AXIS_PLACEMENT_65',#490,#415,#416);
#340=AXIS2_PLACEMENT_3D('AXIS_PLACEMENT_71',#491,#417,#418);
#341=AXIS2_PLACEMENT_3D('AXIS_PLACEMENT_75',#492,#419,#420);
#342=DIRECTION('',(0.,2.91289883867172E-017,-1.));
#343=DIRECTION('',(-0.045,0.,0.));
#344=DIRECTION('',(0.,-2.91289883867172E-017,1.));
#345=DIRECTION('',(-0.045,0.,0.));
#346=DIRECTION('',(0.,-2.91289883867172E-017,1.));
#347=DIRECTION('',(-0.045,0.,0.));
#348=DIRECTION('',(0.,2.91289883867172E-017,-1.));
#349=DIRECTION('',(0.,-1.,0.));
#350=DIRECTION('',(0.0998993210417564,0.,0.));
#351=DIRECTION('',(0.,1.,1.08845394571094E-016));
#352=DIRECTION('',(0.0998993210417564,0.,0.));
#353=DIRECTION('',(0.,-1.,-1.08845394571094E-016));
#354=DIRECTION('',(0.0998993210417564,0.,0.));
#355=DIRECTION('',(0.,1.,1.08845394571094E-016));
#356=DIRECTION('',(0.,0.,-1.));
#357=DIRECTION('',(0.0738725016788661,0.,0.));
#358=DIRECTION('',(0.,0.,1.));
#359=DIRECTION('',(0.0738725016788661,0.,0.));
#360=DIRECTION('',(0.,0.,-1.));
#361=DIRECTION('',(0.0738725016788661,0.,0.));
#362=DIRECTION('',(0.,0.,1.));
#363=DIRECTION('',(0.,-1.,0.));
#364=DIRECTION('',(0.,0.,1.));
#365=DIRECTION('',(1.,0.,0.));
#366=DIRECTION('',(0.,0.,1.));
#367=DIRECTION('',(1.,0.,0.));
#368=DIRECTION('',(0.,-0.59319903804985,0.805055837353368));
#369=DIRECTION('',(0.,0.805055837353368,0.59319903804985));
#370=DIRECTION('',(1.,0.,0.));
#371=DIRECTION('',(0.,0.805055837353368,0.59319903804985));
#372=DIRECTION('',(0.,0.,1.));
#373=DIRECTION('',(0.,1.,0.));
#374=DIRECTION('',(1.,0.,0.));
#375=DIRECTION('',(0.,1.,0.));
#376=DIRECTION('',(0.,0.843661487732108,0.536875492193159));
#377=DIRECTION('',(0.,0.536875492193159,-0.843661487732108));
#378=DIRECTION('',(1.,0.,0.));
#379=DIRECTION('',(0.,0.536875492193159,-0.843661487732108));
#380=DIRECTION('',(0.,1.,1.08845394571094E-016));
#381=DIRECTION('',(0.,1.08845394571094E-016,-1.));
#382=DIRECTION('',(1.,0.,0.));
#383=DIRECTION('',(0.,1.08845394571094E-016,-1.));
#384=DIRECTION('',(0.,2.91289883867172E-017,-1.));
#385=DIRECTION('',(0.,-1.,-2.91289883867172E-017));
#386=DIRECTION('',(0.,-1.,-2.91289883867172E-017));
#387=DIRECTION('',(1.,1.96511395741335E-032,7.02109701419025E-032));
#388=DIRECTION('',(1.,1.96511395741335E-032,7.02109701419025E-032));
#389=DIRECTION('DIRECTION2',(0.,0.,1.));
#390=DIRECTION('DIRECTION3',(1.,0.,0.));
#391=DIRECTION('DIRECTION6',(0.,0.,1.));
#392=DIRECTION('DIRECTION7',(1.,0.,0.));
#393=DIRECTION('DIRECTION12',(0.,0.,1.));
#394=DIRECTION('DIRECTION13',(1.,0.,0.));
#395=DIRECTION('DIRECTION16',(0.,0.,1.));
#396=DIRECTION('DIRECTION17',(1.,0.,0.));
#397=DIRECTION('DIRECTION22',(0.,0.,1.));
#398=DIRECTION('DIRECTION23',(1.,0.,0.));
#399=DIRECTION('DIRECTION26',(0.,0.,1.));
#400=DIRECTION('DIRECTION27',(1.,0.,0.));
#401=DIRECTION('DIRECTION32',(0.,0.,1.));
#402=DIRECTION('DIRECTION33',(1.,0.,0.));
#403=DIRECTION('DIRECTION36',(0.,0.,1.));
#404=DIRECTION('DIRECTION37',(1.,0.,0.));
#405=DIRECTION('DIRECTION42',(0.,0.,1.));
#406=DIRECTION('DIRECTION43',(1.,0.,0.));
#407=DIRECTION('DIRECTION46',(0.,0.,1.));
#408=DIRECTION('DIRECTION47',(1.,0.,0.));
#409=DIRECTION('DIRECTION52',(0.,0.,1.));
#410=DIRECTION('DIRECTION53',(1.,0.,0.));
#411=DIRECTION('DIRECTION56',(0.,0.,1.));
#412=DIRECTION('DIRECTION57',(1.,0.,0.));
#413=DIRECTION('DIRECTION62',(0.,0.,1.));
#414=DIRECTION('DIRECTION63',(1.,0.,0.));
#415=DIRECTION('DIRECTION66',(0.,0.,1.));
#416=DIRECTION('DIRECTION67',(1.,0.,0.));
#417=DIRECTION('DIRECTION72',(0.,0.,1.));
#418=DIRECTION('DIRECTION73',(1.,0.,0.));
#419=DIRECTION('DIRECTION76',(0.,0.,1.));
#420=DIRECTION('DIRECTION77',(1.,0.,0.));
#421=CARTESIAN_POINT('',(0.,1.16243450240364E-032,-3.99064494438023E-016));
#422=CARTESIAN_POINT('',(0.,1.0195145935351E-017,-0.35));
#423=CARTESIAN_POINT('',(-0.045,1.0195145935351E-017,-0.35));
#424=CARTESIAN_POINT('',(0.,1.16243450240364E-032,-3.99064494438023E-016));
#425=CARTESIAN_POINT('',(-0.045,1.16243450240364E-032,-3.99064494438023E-016));
#426=CARTESIAN_POINT('',(0.,1.0195145935351E-017,-0.35));
#427=CARTESIAN_POINT('',(0.,0.36,0.352248787879944));
#428=CARTESIAN_POINT('',(0.,0.31,0.352248787879944));
#429=CARTESIAN_POINT('',(0.0998993210417564,0.31,0.352248787879944));
#430=CARTESIAN_POINT('',(0.,0.36,0.352248787879944));
#431=CARTESIAN_POINT('',(0.0998993210417564,0.36,0.352248787879944));
#432=CARTESIAN_POINT('',(0.,0.31,0.352248787879944));
#433=CARTESIAN_POINT('',(0.,0.,0.84));
#434=CARTESIAN_POINT('',(0.,0.,0.789999999999999));
#435=CARTESIAN_POINT('',(0.0738725016788661,0.,0.789999999999999));
#436=CARTESIAN_POINT('',(0.,0.,0.84));
#437=CARTESIAN_POINT('',(0.0738725016788661,0.,0.84));
#438=CARTESIAN_POINT('',(0.,0.,0.789999999999999));
#439=CARTESIAN_POINT('',(-0.175,-0.34,0.35));
#440=CARTESIAN_POINT('',(0.175,-0.34,-4.08968350489507E-016));
#441=CARTESIAN_POINT('',(0.175,-0.34,-4.08968350489507E-016));
#442=CARTESIAN_POINT('',(0.175,-0.34,0.7));
#443=CARTESIAN_POINT('',(-0.175,-0.34,0.7));
#444=CARTESIAN_POINT('',(-0.175,-0.34,0.7));
#445=CARTESIAN_POINT('',(-0.175,-0.34,-4.08968350489507E-016));
#446=CARTESIAN_POINT('',(-0.175,-0.34,-4.08968350489507E-016));
#447=CARTESIAN_POINT('',(-0.175,-0.34,-4.08968350489507E-016));
#448=CARTESIAN_POINT('',(-0.175,-0.245,0.77));
#449=CARTESIAN_POINT('',(0.175,-0.34,0.7));
#450=CARTESIAN_POINT('',(0.175,-0.15,0.84));
#451=CARTESIAN_POINT('',(-0.175,-0.15,0.84));
#452=CARTESIAN_POINT('',(-0.175,-0.15,0.84));
#453=CARTESIAN_POINT('',(-0.175,-0.34,0.7));
#454=CARTESIAN_POINT('',(-0.175,0.,0.84));
#455=CARTESIAN_POINT('',(0.175,-0.15,0.84));
#456=CARTESIAN_POINT('',(0.175,0.15,0.84));
#457=CARTESIAN_POINT('',(-0.175,0.15,0.84));
#458=CARTESIAN_POINT('',(-0.175,0.15,0.84));
#459=CARTESIAN_POINT('',(-0.175,-0.15,0.84));
#460=CARTESIAN_POINT('',(-0.175,0.255,0.675));
#461=CARTESIAN_POINT('',(0.175,0.15,0.84));
#462=CARTESIAN_POINT('',(0.175,0.36,0.51));
#463=CARTESIAN_POINT('',(-0.175,0.36,0.51));
#464=CARTESIAN_POINT('',(-0.175,0.36,0.51));
#465=CARTESIAN_POINT('',(-0.175,0.15,0.84));
#466=CARTESIAN_POINT('',(-0.175,0.36,0.255));
#467=CARTESIAN_POINT('',(0.175,0.36,0.51));
#468=CARTESIAN_POINT('',(0.175,0.36,-3.88578058618805E-016));
#469=CARTESIAN_POINT('',(-0.175,0.36,-3.88578058618805E-016));
#470=CARTESIAN_POINT('',(-0.175,0.36,-3.88578058618805E-016));
#471=CARTESIAN_POINT('',(-0.175,0.36,0.51));
#472=CARTESIAN_POINT('',(-0.175,0.01,-3.98773204554156E-016));
#473=CARTESIAN_POINT('',(0.175,0.36,-3.88578058618805E-016));
#474=CARTESIAN_POINT('',(-0.175,0.36,-3.88578058618805E-016));
#475=CARTESIAN_POINT('',(0.175,-0.00193090211323625,0.378126009374515));
#476=CARTESIAN_POINT('',(-0.175,-0.00193090211323625,0.378126009374515));
#477=CARTESIAN_POINT('CARTESIAN_POINT4',(0.,0.,0.));
#478=CARTESIAN_POINT('CARTESIAN_POINT8',(0.,0.,0.));
#479=CARTESIAN_POINT('CARTESIAN_POINT14',(0.35,0.,0.));
#480=CARTESIAN_POINT('CARTESIAN_POINT18',(0.,0.,0.));
#481=CARTESIAN_POINT('CARTESIAN_POINT24',(0.7,0.,0.));
#482=CARTESIAN_POINT('CARTESIAN_POINT28',(0.,0.,0.));
#483=CARTESIAN_POINT('CARTESIAN_POINT34',(1.05,0.,0.));
#484=CARTESIAN_POINT('CARTESIAN_POINT38',(0.,0.,0.));
#485=CARTESIAN_POINT('CARTESIAN_POINT44',(1.4,0.,0.));
#486=CARTESIAN_POINT('CARTESIAN_POINT48',(0.,0.,0.));
#487=CARTESIAN_POINT('CARTESIAN_POINT54',(1.75,0.,0.));
#488=CARTESIAN_POINT('CARTESIAN_POINT58',(0.,0.,0.));
#489=CARTESIAN_POINT('CARTESIAN_POINT64',(2.1,0.,0.));
#490=CARTESIAN_POINT('CARTESIAN_POINT68',(0.,0.,0.));
#491=CARTESIAN_POINT('CARTESIAN_POINT74',(2.45,0.,0.));
#492=CARTESIAN_POINT('CARTESIAN_POINT78',(0.,0.,0.));
#493=CYLINDRICAL_SURFACE('',#306,0.045);
#494=CYLINDRICAL_SURFACE('',#310,0.0998993210417564);
#495=CYLINDRICAL_SURFACE('',#314,0.0738725016788661);
#496=CLOSED_SHELL('',(#292,#293,#294,#295,#296,#297,#298,#299,#300,#301,
#302,#303,#304,#305));
#497=MANIFOLD_SOLID_BREP('',#496);
#498=ADVANCED_BREP_SHAPE_REPRESENTATION('On-Shore_OSTTE080161',(#497),#107);
ENDSEC;
END-ISO-10303-21;
