ISO-10303-21;
HEADER;
/* Generated by software containing ST-Developer
 * from STEP Tools, Inc. (www.steptools.com) 
 */

FILE_DESCRIPTION(
/* description */ ('Alibre Inc.'),
/* implementation_level */ '2;1');

FILE_NAME(
/* name */ 'export0',
/* time_stamp */ '2017-11-23T10:24:37+08:00',
/* author */ (''),
/* organization */ (''),
/* preprocessor_version */ 'ST-DEVELOPER v14',
/* originating_system */ 'Alibre',
/* authorisation */ '');

FILE_SCHEMA (('AUTOMOTIVE_DESIGN'));
ENDSEC;

DATA;
#10=STYLED_ITEM('NAME_0',(#31),#1142);
#11=STYLED_ITEM('NAME_0',(#31),#1143);
#12=STYLED_ITEM('NAME_0',(#32),#738);
#13=STYLED_ITEM('NAME_0',(#32),#739);
#14=STYLED_ITEM('NAME_0',(#32),#740);
#15=STYLED_ITEM('NAME_0',(#32),#741);
#16=STYLED_ITEM('NAME_0',(#32),#742);
#17=STYLED_ITEM('NAME_0',(#32),#743);
#18=MECHANICAL_DESIGN_GEOMETRIC_PRESENTATION_REPRESENTATION('NAME_0',(#10,
#11,#12,#13,#14,#15,#16,#17),#47);
#19=COLOUR_RGB('',0.266666666666667,0.266666666666667,0.266666666666667);
#20=COLOUR_RGB('',1.,1.,0.501960784313725);
#21=FILL_AREA_STYLE_COLOUR('NAME_0',#19);
#22=FILL_AREA_STYLE_COLOUR('NAME_0',#20);
#23=FILL_AREA_STYLE('NAME_0',(#21));
#24=FILL_AREA_STYLE('NAME_0',(#22));
#25=SURFACE_STYLE_FILL_AREA(#23);
#26=SURFACE_STYLE_FILL_AREA(#24);
#27=SURFACE_SIDE_STYLE('NAME_0',(#25));
#28=SURFACE_SIDE_STYLE('NAME_0',(#26));
#29=SURFACE_STYLE_USAGE(.POSITIVE.,#27);
#30=SURFACE_STYLE_USAGE(.POSITIVE.,#28);
#31=PRESENTATION_STYLE_ASSIGNMENT((#29));
#32=PRESENTATION_STYLE_ASSIGNMENT((#30));
#33=PRODUCT_DEFINITION_CONTEXT('part definition',#40,'design');
#34=SHAPE_DEFINITION_REPRESENTATION(#35,#1144);
#35=PRODUCT_DEFINITION_SHAPE('PRODUCT_VERSION_ID',
'PRODUCT_VERSION_DESCR',#36);
#36=PRODUCT_DEFINITION('PRODUCT_VERSION_ID','PRODUCT_VERSION_DESCR',#37,
#33);
#37=PRODUCT_DEFINITION_FORMATION_WITH_SPECIFIED_SOURCE(
'PRODUCT_VERSION_ID','PRODUCT_VERSION_DESCR',#42,.MADE.);
#38=PRODUCT_RELATED_PRODUCT_CATEGORY('part','part',(#42));
#39=APPLICATION_PROTOCOL_DEFINITION('Draft International Standard',
'automotive_design',1994,#40);
#40=APPLICATION_CONTEXT('automotive_Design');
#41=PRODUCT_CONTEXT('3D Mechanical Parts',#40,'mechanical');
#42=PRODUCT('','M7582-05','',(#41));
#43=(
LENGTH_UNIT()
NAMED_UNIT(*)
SI_UNIT(.CENTI.,.METRE.)
);
#44=(
NAMED_UNIT(*)
PLANE_ANGLE_UNIT()
SI_UNIT($,.RADIAN.)
);
#45=(
NAMED_UNIT(*)
SI_UNIT($,.STERADIAN.)
SOLID_ANGLE_UNIT()
);
#46=UNCERTAINTY_MEASURE_WITH_UNIT(LENGTH_MEASURE(1.E-006),#43,
'DISTANCE_ACCURACY_VALUE',
'Maximum model space distance between geometric entities at asserted co
nnectivities');
#47=(
GEOMETRIC_REPRESENTATION_CONTEXT(3)
GLOBAL_UNCERTAINTY_ASSIGNED_CONTEXT((#46))
GLOBAL_UNIT_ASSIGNED_CONTEXT((#45,#44,#43))
REPRESENTATION_CONTEXT('ID1','3D')
);
#48=CIRCLE('',#746,0.07);
#49=CIRCLE('',#747,0.07);
#50=CIRCLE('',#748,0.07);
#51=CIRCLE('',#749,0.07);
#52=CIRCLE('',#750,0.07);
#53=CIRCLE('',#751,0.07);
#54=CIRCLE('',#752,0.07);
#55=CIRCLE('',#753,0.07);
#56=CYLINDRICAL_SURFACE('',#745,0.07);
#57=VERTEX_POINT('',#917);
#58=VERTEX_POINT('',#918);
#59=VERTEX_POINT('',#920);
#60=VERTEX_POINT('',#922);
#61=VERTEX_POINT('',#924);
#62=VERTEX_POINT('',#926);
#63=VERTEX_POINT('',#928);
#64=VERTEX_POINT('',#930);
#65=VERTEX_POINT('',#932);
#66=VERTEX_POINT('',#934);
#67=VERTEX_POINT('',#935);
#68=VERTEX_POINT('',#937);
#69=VERTEX_POINT('',#941);
#70=VERTEX_POINT('',#943);
#71=VERTEX_POINT('',#945);
#72=VERTEX_POINT('',#947);
#73=VERTEX_POINT('',#949);
#74=VERTEX_POINT('',#951);
#75=VERTEX_POINT('',#954);
#76=VERTEX_POINT('',#955);
#77=VERTEX_POINT('',#957);
#78=VERTEX_POINT('',#959);
#79=VERTEX_POINT('',#961);
#80=VERTEX_POINT('',#963);
#81=VERTEX_POINT('',#967);
#82=VERTEX_POINT('',#969);
#83=VERTEX_POINT('',#972);
#84=VERTEX_POINT('',#974);
#85=VERTEX_POINT('',#976);
#86=VERTEX_POINT('',#978);
#87=VERTEX_POINT('',#980);
#88=VERTEX_POINT('',#982);
#89=VERTEX_POINT('',#986);
#90=VERTEX_POINT('',#988);
#91=VERTEX_POINT('',#990);
#92=VERTEX_POINT('',#992);
#93=VERTEX_POINT('',#995);
#94=VERTEX_POINT('',#999);
#95=VERTEX_POINT('',#1001);
#96=VERTEX_POINT('',#1005);
#97=VERTEX_POINT('',#1007);
#98=VERTEX_POINT('',#1009);
#99=VERTEX_POINT('',#1011);
#100=VERTEX_POINT('',#1014);
#101=VERTEX_POINT('',#1016);
#102=VERTEX_POINT('',#1018);
#103=VERTEX_POINT('',#1020);
#104=VERTEX_POINT('',#1023);
#105=VERTEX_POINT('',#1026);
#106=VERTEX_POINT('',#1030);
#107=VERTEX_POINT('',#1032);
#108=VERTEX_POINT('',#1036);
#109=VERTEX_POINT('',#1038);
#110=VERTEX_POINT('',#1040);
#111=VERTEX_POINT('',#1043);
#112=VERTEX_POINT('',#1045);
#113=VERTEX_POINT('',#1052);
#114=VERTEX_POINT('',#1055);
#115=VERTEX_POINT('',#1057);
#116=VERTEX_POINT('',#1061);
#117=VERTEX_POINT('',#1068);
#118=VERTEX_POINT('',#1073);
#119=VERTEX_POINT('',#1075);
#120=VERTEX_POINT('',#1077);
#121=VERTEX_POINT('',#1087);
#122=VERTEX_POINT('',#1088);
#123=VERTEX_POINT('',#1090);
#124=VERTEX_POINT('',#1092);
#125=VERTEX_POINT('',#1096);
#126=VERTEX_POINT('',#1098);
#127=VERTEX_POINT('',#1102);
#128=VERTEX_POINT('',#1104);
#129=VECTOR('',#783,1.);
#130=VECTOR('',#784,1.);
#131=VECTOR('',#785,1.);
#132=VECTOR('',#786,1.);
#133=VECTOR('',#787,1.);
#134=VECTOR('',#788,1.);
#135=VECTOR('',#789,1.);
#136=VECTOR('',#790,1.);
#137=VECTOR('',#791,1.);
#138=VECTOR('',#792,1.);
#139=VECTOR('',#793,1.);
#140=VECTOR('',#800,1.);
#141=VECTOR('',#803,1.);
#142=VECTOR('',#806,1.);
#143=VECTOR('',#811,1.);
#144=VECTOR('',#814,1.);
#145=VECTOR('',#818,1.);
#146=VECTOR('',#819,1.);
#147=VECTOR('',#820,1.);
#148=VECTOR('',#821,1.);
#149=VECTOR('',#822,1.);
#150=VECTOR('',#823,1.);
#151=VECTOR('',#824,1.);
#152=VECTOR('',#825,1.);
#153=VECTOR('',#826,1.);
#154=VECTOR('',#827,1.);
#155=VECTOR('',#829,1.);
#156=VECTOR('',#830,1.);
#157=VECTOR('',#831,1.);
#158=VECTOR('',#832,1.);
#159=VECTOR('',#834,1.);
#160=VECTOR('',#835,1.);
#161=VECTOR('',#837,1.);
#162=VECTOR('',#838,1.);
#163=VECTOR('',#839,1.);
#164=VECTOR('',#841,1.);
#165=VECTOR('',#842,1.);
#166=VECTOR('',#843,1.);
#167=VECTOR('',#844,1.);
#168=VECTOR('',#846,1.);
#169=VECTOR('',#847,1.);
#170=VECTOR('',#848,1.);
#171=VECTOR('',#849,1.);
#172=VECTOR('',#851,1.);
#173=VECTOR('',#852,1.);
#174=VECTOR('',#853,1.);
#175=VECTOR('',#854,1.);
#176=VECTOR('',#856,1.);
#177=VECTOR('',#857,1.);
#178=VECTOR('',#858,1.);
#179=VECTOR('',#860,1.);
#180=VECTOR('',#861,1.);
#181=VECTOR('',#862,1.);
#182=VECTOR('',#864,1.);
#183=VECTOR('',#865,1.);
#184=VECTOR('',#866,1.);
#185=VECTOR('',#868,1.);
#186=VECTOR('',#869,1.);
#187=VECTOR('',#870,1.);
#188=VECTOR('',#871,1.);
#189=VECTOR('',#873,1.);
#190=VECTOR('',#874,1.);
#191=VECTOR('',#875,1.);
#192=VECTOR('',#877,1.);
#193=VECTOR('',#878,1.);
#194=VECTOR('',#880,1.);
#195=VECTOR('',#883,1.);
#196=VECTOR('',#885,1.);
#197=VECTOR('',#888,1.);
#198=VECTOR('',#889,1.);
#199=VECTOR('',#890,1.);
#200=VECTOR('',#892,1.);
#201=VECTOR('',#893,1.);
#202=VECTOR('',#895,1.);
#203=VECTOR('',#898,1.);
#204=VECTOR('',#899,1.);
#205=VECTOR('',#900,1.);
#206=VECTOR('',#901,1.);
#207=VECTOR('',#903,1.);
#208=VECTOR('',#904,1.);
#209=VECTOR('',#905,1.);
#210=VECTOR('',#907,1.);
#211=VECTOR('',#908,1.);
#212=VECTOR('',#909,1.);
#213=VECTOR('',#911,1.);
#214=VECTOR('',#912,1.);
#215=LINE('',#916,#129);
#216=LINE('',#919,#130);
#217=LINE('',#921,#131);
#218=LINE('',#923,#132);
#219=LINE('',#925,#133);
#220=LINE('',#927,#134);
#221=LINE('',#929,#135);
#222=LINE('',#931,#136);
#223=LINE('',#933,#137);
#224=LINE('',#936,#138);
#225=LINE('',#938,#139);
#226=LINE('',#944,#140);
#227=LINE('',#948,#141);
#228=LINE('',#952,#142);
#229=LINE('',#958,#143);
#230=LINE('',#962,#144);
#231=LINE('',#966,#145);
#232=LINE('',#968,#146);
#233=LINE('',#970,#147);
#234=LINE('',#971,#148);
#235=LINE('',#973,#149);
#236=LINE('',#975,#150);
#237=LINE('',#977,#151);
#238=LINE('',#979,#152);
#239=LINE('',#981,#153);
#240=LINE('',#983,#154);
#241=LINE('',#985,#155);
#242=LINE('',#987,#156);
#243=LINE('',#989,#157);
#244=LINE('',#991,#158);
#245=LINE('',#994,#159);
#246=LINE('',#996,#160);
#247=LINE('',#998,#161);
#248=LINE('',#1000,#162);
#249=LINE('',#1002,#163);
#250=LINE('',#1004,#164);
#251=LINE('',#1006,#165);
#252=LINE('',#1008,#166);
#253=LINE('',#1010,#167);
#254=LINE('',#1013,#168);
#255=LINE('',#1015,#169);
#256=LINE('',#1017,#170);
#257=LINE('',#1019,#171);
#258=LINE('',#1022,#172);
#259=LINE('',#1024,#173);
#260=LINE('',#1025,#174);
#261=LINE('',#1027,#175);
#262=LINE('',#1029,#176);
#263=LINE('',#1031,#177);
#264=LINE('',#1033,#178);
#265=LINE('',#1035,#179);
#266=LINE('',#1037,#180);
#267=LINE('',#1039,#181);
#268=LINE('',#1042,#182);
#269=LINE('',#1044,#183);
#270=LINE('',#1046,#184);
#271=LINE('',#1048,#185);
#272=LINE('',#1049,#186);
#273=LINE('',#1050,#187);
#274=LINE('',#1051,#188);
#275=LINE('',#1054,#189);
#276=LINE('',#1056,#190);
#277=LINE('',#1058,#191);
#278=LINE('',#1060,#192);
#279=LINE('',#1062,#193);
#280=LINE('',#1064,#194);
#281=LINE('',#1067,#195);
#282=LINE('',#1070,#196);
#283=LINE('',#1074,#197);
#284=LINE('',#1076,#198);
#285=LINE('',#1078,#199);
#286=LINE('',#1080,#200);
#287=LINE('',#1081,#201);
#288=LINE('',#1083,#202);
#289=LINE('',#1086,#203);
#290=LINE('',#1089,#204);
#291=LINE('',#1091,#205);
#292=LINE('',#1093,#206);
#293=LINE('',#1095,#207);
#294=LINE('',#1097,#208);
#295=LINE('',#1099,#209);
#296=LINE('',#1101,#210);
#297=LINE('',#1103,#211);
#298=LINE('',#1105,#212);
#299=LINE('',#1107,#213);
#300=LINE('',#1108,#214);
#301=EDGE_CURVE('',#57,#58,#215,.T.);
#302=EDGE_CURVE('',#59,#57,#216,.T.);
#303=EDGE_CURVE('',#60,#59,#217,.T.);
#304=EDGE_CURVE('',#61,#60,#218,.T.);
#305=EDGE_CURVE('',#62,#61,#219,.T.);
#306=EDGE_CURVE('',#63,#62,#220,.T.);
#307=EDGE_CURVE('',#64,#63,#221,.T.);
#308=EDGE_CURVE('',#65,#64,#222,.T.);
#309=EDGE_CURVE('',#66,#65,#223,.T.);
#310=EDGE_CURVE('',#67,#66,#216,.T.);
#311=EDGE_CURVE('',#68,#67,#224,.T.);
#312=EDGE_CURVE('',#58,#68,#225,.T.);
#313=EDGE_CURVE('',#67,#69,#48,.T.);
#314=EDGE_CURVE('',#70,#66,#49,.T.);
#315=EDGE_CURVE('',#71,#70,#226,.T.);
#316=EDGE_CURVE('',#72,#71,#50,.T.);
#317=EDGE_CURVE('',#73,#72,#227,.T.);
#318=EDGE_CURVE('',#74,#73,#51,.T.);
#319=EDGE_CURVE('',#69,#74,#228,.T.);
#320=EDGE_CURVE('',#75,#57,#52,.T.);
#321=EDGE_CURVE('',#76,#75,#228,.T.);
#322=EDGE_CURVE('',#77,#76,#53,.T.);
#323=EDGE_CURVE('',#78,#77,#229,.T.);
#324=EDGE_CURVE('',#79,#78,#54,.T.);
#325=EDGE_CURVE('',#80,#79,#230,.T.);
#326=EDGE_CURVE('',#59,#80,#55,.T.);
#327=EDGE_CURVE('',#81,#75,#231,.T.);
#328=EDGE_CURVE('',#82,#81,#232,.T.);
#329=EDGE_CURVE('',#69,#82,#233,.T.);
#330=EDGE_CURVE('',#83,#74,#234,.T.);
#331=EDGE_CURVE('',#84,#83,#235,.T.);
#332=EDGE_CURVE('',#85,#84,#236,.T.);
#333=EDGE_CURVE('',#86,#85,#237,.T.);
#334=EDGE_CURVE('',#87,#86,#238,.T.);
#335=EDGE_CURVE('',#88,#87,#239,.T.);
#336=EDGE_CURVE('',#76,#88,#240,.T.);
#337=EDGE_CURVE('',#89,#58,#241,.T.);
#338=EDGE_CURVE('',#90,#89,#242,.T.);
#339=EDGE_CURVE('',#91,#90,#243,.T.);
#340=EDGE_CURVE('',#91,#92,#244,.T.);
#341=EDGE_CURVE('',#81,#92,#241,.T.);
#342=EDGE_CURVE('',#68,#93,#245,.T.);
#343=EDGE_CURVE('',#93,#89,#246,.T.);
#344=EDGE_CURVE('',#94,#73,#247,.T.);
#345=EDGE_CURVE('',#94,#95,#248,.T.);
#346=EDGE_CURVE('',#95,#83,#249,.T.);
#347=EDGE_CURVE('',#78,#96,#250,.T.);
#348=EDGE_CURVE('',#97,#96,#251,.T.);
#349=EDGE_CURVE('',#97,#98,#252,.T.);
#350=EDGE_CURVE('',#98,#99,#253,.T.);
#351=EDGE_CURVE('',#99,#79,#250,.T.);
#352=EDGE_CURVE('',#100,#84,#254,.T.);
#353=EDGE_CURVE('',#100,#101,#255,.T.);
#354=EDGE_CURVE('',#101,#85,#256,.T.);
#355=EDGE_CURVE('',#63,#102,#256,.T.);
#356=EDGE_CURVE('',#103,#102,#257,.T.);
#357=EDGE_CURVE('',#64,#103,#254,.T.);
#358=EDGE_CURVE('',#104,#72,#258,.T.);
#359=EDGE_CURVE('',#96,#104,#259,.T.);
#360=EDGE_CURVE('',#77,#105,#260,.T.);
#361=EDGE_CURVE('',#105,#94,#261,.T.);
#362=EDGE_CURVE('',#106,#101,#262,.T.);
#363=EDGE_CURVE('',#86,#106,#263,.T.);
#364=EDGE_CURVE('',#107,#62,#263,.T.);
#365=EDGE_CURVE('',#102,#107,#264,.T.);
#366=EDGE_CURVE('',#88,#108,#265,.T.);
#367=EDGE_CURVE('',#105,#108,#266,.T.);
#368=EDGE_CURVE('',#109,#80,#260,.T.);
#369=EDGE_CURVE('',#109,#110,#267,.T.);
#370=EDGE_CURVE('',#110,#60,#265,.T.);
#371=EDGE_CURVE('',#111,#106,#268,.T.);
#372=EDGE_CURVE('',#87,#111,#269,.T.);
#373=EDGE_CURVE('',#112,#61,#269,.T.);
#374=EDGE_CURVE('',#112,#107,#270,.T.);
#375=EDGE_CURVE('',#108,#95,#271,.T.);
#376=EDGE_CURVE('',#111,#100,#272,.T.);
#377=EDGE_CURVE('',#103,#112,#273,.T.);
#378=EDGE_CURVE('',#113,#110,#274,.T.);
#379=EDGE_CURVE('',#65,#113,#249,.T.);
#380=EDGE_CURVE('',#92,#114,#275,.T.);
#381=EDGE_CURVE('',#115,#91,#276,.T.);
#382=EDGE_CURVE('',#115,#114,#277,.T.);
#383=EDGE_CURVE('',#114,#82,#245,.T.);
#384=EDGE_CURVE('',#116,#115,#278,.T.);
#385=EDGE_CURVE('',#116,#93,#279,.T.);
#386=EDGE_CURVE('',#90,#116,#280,.T.);
#387=EDGE_CURVE('',#117,#113,#281,.T.);
#388=EDGE_CURVE('',#70,#117,#247,.T.);
#389=EDGE_CURVE('',#117,#109,#282,.T.);
#390=EDGE_CURVE('',#71,#118,#258,.T.);
#391=EDGE_CURVE('',#119,#118,#283,.T.);
#392=EDGE_CURVE('',#119,#120,#284,.T.);
#393=EDGE_CURVE('',#120,#104,#285,.T.);
#394=EDGE_CURVE('',#118,#99,#286,.T.);
#395=EDGE_CURVE('',#98,#119,#287,.T.);
#396=EDGE_CURVE('',#120,#97,#288,.T.);
#397=EDGE_CURVE('',#121,#122,#289,.T.);
#398=EDGE_CURVE('',#123,#122,#290,.T.);
#399=EDGE_CURVE('',#123,#124,#291,.T.);
#400=EDGE_CURVE('',#124,#121,#292,.T.);
#401=EDGE_CURVE('',#122,#125,#293,.T.);
#402=EDGE_CURVE('',#126,#125,#294,.T.);
#403=EDGE_CURVE('',#126,#123,#295,.T.);
#404=EDGE_CURVE('',#125,#127,#296,.T.);
#405=EDGE_CURVE('',#128,#127,#297,.T.);
#406=EDGE_CURVE('',#128,#126,#298,.T.);
#407=EDGE_CURVE('',#127,#121,#299,.T.);
#408=EDGE_CURVE('',#124,#128,#300,.T.);
#409=ORIENTED_EDGE('',*,*,#301,.F.);
#410=ORIENTED_EDGE('',*,*,#302,.F.);
#411=ORIENTED_EDGE('',*,*,#303,.F.);
#412=ORIENTED_EDGE('',*,*,#304,.F.);
#413=ORIENTED_EDGE('',*,*,#305,.F.);
#414=ORIENTED_EDGE('',*,*,#306,.F.);
#415=ORIENTED_EDGE('',*,*,#307,.F.);
#416=ORIENTED_EDGE('',*,*,#308,.F.);
#417=ORIENTED_EDGE('',*,*,#309,.F.);
#418=ORIENTED_EDGE('',*,*,#310,.F.);
#419=ORIENTED_EDGE('',*,*,#311,.F.);
#420=ORIENTED_EDGE('',*,*,#312,.F.);
#421=ORIENTED_EDGE('',*,*,#313,.F.);
#422=ORIENTED_EDGE('',*,*,#310,.T.);
#423=ORIENTED_EDGE('',*,*,#314,.F.);
#424=ORIENTED_EDGE('',*,*,#315,.F.);
#425=ORIENTED_EDGE('',*,*,#316,.F.);
#426=ORIENTED_EDGE('',*,*,#317,.F.);
#427=ORIENTED_EDGE('',*,*,#318,.F.);
#428=ORIENTED_EDGE('',*,*,#319,.F.);
#429=ORIENTED_EDGE('',*,*,#320,.F.);
#430=ORIENTED_EDGE('',*,*,#321,.F.);
#431=ORIENTED_EDGE('',*,*,#322,.F.);
#432=ORIENTED_EDGE('',*,*,#323,.F.);
#433=ORIENTED_EDGE('',*,*,#324,.F.);
#434=ORIENTED_EDGE('',*,*,#325,.F.);
#435=ORIENTED_EDGE('',*,*,#326,.F.);
#436=ORIENTED_EDGE('',*,*,#302,.T.);
#437=ORIENTED_EDGE('',*,*,#327,.F.);
#438=ORIENTED_EDGE('',*,*,#328,.F.);
#439=ORIENTED_EDGE('',*,*,#329,.F.);
#440=ORIENTED_EDGE('',*,*,#319,.T.);
#441=ORIENTED_EDGE('',*,*,#330,.F.);
#442=ORIENTED_EDGE('',*,*,#331,.F.);
#443=ORIENTED_EDGE('',*,*,#332,.F.);
#444=ORIENTED_EDGE('',*,*,#333,.F.);
#445=ORIENTED_EDGE('',*,*,#334,.F.);
#446=ORIENTED_EDGE('',*,*,#335,.F.);
#447=ORIENTED_EDGE('',*,*,#336,.F.);
#448=ORIENTED_EDGE('',*,*,#321,.T.);
#449=ORIENTED_EDGE('',*,*,#327,.T.);
#450=ORIENTED_EDGE('',*,*,#320,.T.);
#451=ORIENTED_EDGE('',*,*,#301,.T.);
#452=ORIENTED_EDGE('',*,*,#337,.F.);
#453=ORIENTED_EDGE('',*,*,#338,.F.);
#454=ORIENTED_EDGE('',*,*,#339,.F.);
#455=ORIENTED_EDGE('',*,*,#340,.T.);
#456=ORIENTED_EDGE('',*,*,#341,.F.);
#457=ORIENTED_EDGE('',*,*,#312,.T.);
#458=ORIENTED_EDGE('',*,*,#342,.T.);
#459=ORIENTED_EDGE('',*,*,#343,.T.);
#460=ORIENTED_EDGE('',*,*,#337,.T.);
#461=ORIENTED_EDGE('',*,*,#318,.T.);
#462=ORIENTED_EDGE('',*,*,#344,.F.);
#463=ORIENTED_EDGE('',*,*,#345,.T.);
#464=ORIENTED_EDGE('',*,*,#346,.T.);
#465=ORIENTED_EDGE('',*,*,#330,.T.);
#466=ORIENTED_EDGE('',*,*,#324,.T.);
#467=ORIENTED_EDGE('',*,*,#347,.T.);
#468=ORIENTED_EDGE('',*,*,#348,.F.);
#469=ORIENTED_EDGE('',*,*,#349,.T.);
#470=ORIENTED_EDGE('',*,*,#350,.T.);
#471=ORIENTED_EDGE('',*,*,#351,.T.);
#472=ORIENTED_EDGE('',*,*,#332,.T.);
#473=ORIENTED_EDGE('',*,*,#352,.F.);
#474=ORIENTED_EDGE('',*,*,#353,.T.);
#475=ORIENTED_EDGE('',*,*,#354,.T.);
#476=ORIENTED_EDGE('',*,*,#307,.T.);
#477=ORIENTED_EDGE('',*,*,#355,.T.);
#478=ORIENTED_EDGE('',*,*,#356,.F.);
#479=ORIENTED_EDGE('',*,*,#357,.F.);
#480=ORIENTED_EDGE('',*,*,#317,.T.);
#481=ORIENTED_EDGE('',*,*,#358,.F.);
#482=ORIENTED_EDGE('',*,*,#359,.F.);
#483=ORIENTED_EDGE('',*,*,#347,.F.);
#484=ORIENTED_EDGE('',*,*,#323,.T.);
#485=ORIENTED_EDGE('',*,*,#360,.T.);
#486=ORIENTED_EDGE('',*,*,#361,.T.);
#487=ORIENTED_EDGE('',*,*,#344,.T.);
#488=ORIENTED_EDGE('',*,*,#333,.T.);
#489=ORIENTED_EDGE('',*,*,#354,.F.);
#490=ORIENTED_EDGE('',*,*,#362,.F.);
#491=ORIENTED_EDGE('',*,*,#363,.F.);
#492=ORIENTED_EDGE('',*,*,#306,.T.);
#493=ORIENTED_EDGE('',*,*,#364,.F.);
#494=ORIENTED_EDGE('',*,*,#365,.F.);
#495=ORIENTED_EDGE('',*,*,#355,.F.);
#496=ORIENTED_EDGE('',*,*,#322,.T.);
#497=ORIENTED_EDGE('',*,*,#336,.T.);
#498=ORIENTED_EDGE('',*,*,#366,.T.);
#499=ORIENTED_EDGE('',*,*,#367,.F.);
#500=ORIENTED_EDGE('',*,*,#360,.F.);
#501=ORIENTED_EDGE('',*,*,#303,.T.);
#502=ORIENTED_EDGE('',*,*,#326,.T.);
#503=ORIENTED_EDGE('',*,*,#368,.F.);
#504=ORIENTED_EDGE('',*,*,#369,.T.);
#505=ORIENTED_EDGE('',*,*,#370,.T.);
#506=ORIENTED_EDGE('',*,*,#334,.T.);
#507=ORIENTED_EDGE('',*,*,#363,.T.);
#508=ORIENTED_EDGE('',*,*,#371,.F.);
#509=ORIENTED_EDGE('',*,*,#372,.F.);
#510=ORIENTED_EDGE('',*,*,#305,.T.);
#511=ORIENTED_EDGE('',*,*,#373,.F.);
#512=ORIENTED_EDGE('',*,*,#374,.T.);
#513=ORIENTED_EDGE('',*,*,#364,.T.);
#514=ORIENTED_EDGE('',*,*,#331,.T.);
#515=ORIENTED_EDGE('',*,*,#346,.F.);
#516=ORIENTED_EDGE('',*,*,#375,.F.);
#517=ORIENTED_EDGE('',*,*,#366,.F.);
#518=ORIENTED_EDGE('',*,*,#335,.T.);
#519=ORIENTED_EDGE('',*,*,#372,.T.);
#520=ORIENTED_EDGE('',*,*,#376,.T.);
#521=ORIENTED_EDGE('',*,*,#352,.T.);
#522=ORIENTED_EDGE('',*,*,#308,.T.);
#523=ORIENTED_EDGE('',*,*,#357,.T.);
#524=ORIENTED_EDGE('',*,*,#377,.T.);
#525=ORIENTED_EDGE('',*,*,#373,.T.);
#526=ORIENTED_EDGE('',*,*,#304,.T.);
#527=ORIENTED_EDGE('',*,*,#370,.F.);
#528=ORIENTED_EDGE('',*,*,#378,.F.);
#529=ORIENTED_EDGE('',*,*,#379,.F.);
#530=ORIENTED_EDGE('',*,*,#380,.F.);
#531=ORIENTED_EDGE('',*,*,#340,.F.);
#532=ORIENTED_EDGE('',*,*,#381,.F.);
#533=ORIENTED_EDGE('',*,*,#382,.T.);
#534=ORIENTED_EDGE('',*,*,#329,.T.);
#535=ORIENTED_EDGE('',*,*,#383,.F.);
#536=ORIENTED_EDGE('',*,*,#382,.F.);
#537=ORIENTED_EDGE('',*,*,#384,.F.);
#538=ORIENTED_EDGE('',*,*,#385,.T.);
#539=ORIENTED_EDGE('',*,*,#342,.F.);
#540=ORIENTED_EDGE('',*,*,#311,.T.);
#541=ORIENTED_EDGE('',*,*,#313,.T.);
#542=ORIENTED_EDGE('',*,*,#343,.F.);
#543=ORIENTED_EDGE('',*,*,#385,.F.);
#544=ORIENTED_EDGE('',*,*,#386,.F.);
#545=ORIENTED_EDGE('',*,*,#338,.T.);
#546=ORIENTED_EDGE('',*,*,#328,.T.);
#547=ORIENTED_EDGE('',*,*,#341,.T.);
#548=ORIENTED_EDGE('',*,*,#380,.T.);
#549=ORIENTED_EDGE('',*,*,#383,.T.);
#550=ORIENTED_EDGE('',*,*,#365,.T.);
#551=ORIENTED_EDGE('',*,*,#374,.F.);
#552=ORIENTED_EDGE('',*,*,#377,.F.);
#553=ORIENTED_EDGE('',*,*,#356,.T.);
#554=ORIENTED_EDGE('',*,*,#362,.T.);
#555=ORIENTED_EDGE('',*,*,#353,.F.);
#556=ORIENTED_EDGE('',*,*,#376,.F.);
#557=ORIENTED_EDGE('',*,*,#371,.T.);
#558=ORIENTED_EDGE('',*,*,#309,.T.);
#559=ORIENTED_EDGE('',*,*,#379,.T.);
#560=ORIENTED_EDGE('',*,*,#387,.F.);
#561=ORIENTED_EDGE('',*,*,#388,.F.);
#562=ORIENTED_EDGE('',*,*,#314,.T.);
#563=ORIENTED_EDGE('',*,*,#378,.T.);
#564=ORIENTED_EDGE('',*,*,#369,.F.);
#565=ORIENTED_EDGE('',*,*,#389,.F.);
#566=ORIENTED_EDGE('',*,*,#387,.T.);
#567=ORIENTED_EDGE('',*,*,#375,.T.);
#568=ORIENTED_EDGE('',*,*,#345,.F.);
#569=ORIENTED_EDGE('',*,*,#361,.F.);
#570=ORIENTED_EDGE('',*,*,#367,.T.);
#571=ORIENTED_EDGE('',*,*,#316,.T.);
#572=ORIENTED_EDGE('',*,*,#390,.T.);
#573=ORIENTED_EDGE('',*,*,#391,.F.);
#574=ORIENTED_EDGE('',*,*,#392,.T.);
#575=ORIENTED_EDGE('',*,*,#393,.T.);
#576=ORIENTED_EDGE('',*,*,#358,.T.);
#577=ORIENTED_EDGE('',*,*,#394,.T.);
#578=ORIENTED_EDGE('',*,*,#350,.F.);
#579=ORIENTED_EDGE('',*,*,#395,.T.);
#580=ORIENTED_EDGE('',*,*,#391,.T.);
#581=ORIENTED_EDGE('',*,*,#359,.T.);
#582=ORIENTED_EDGE('',*,*,#393,.F.);
#583=ORIENTED_EDGE('',*,*,#396,.T.);
#584=ORIENTED_EDGE('',*,*,#348,.T.);
#585=ORIENTED_EDGE('',*,*,#315,.T.);
#586=ORIENTED_EDGE('',*,*,#388,.T.);
#587=ORIENTED_EDGE('',*,*,#389,.T.);
#588=ORIENTED_EDGE('',*,*,#368,.T.);
#589=ORIENTED_EDGE('',*,*,#325,.T.);
#590=ORIENTED_EDGE('',*,*,#351,.F.);
#591=ORIENTED_EDGE('',*,*,#394,.F.);
#592=ORIENTED_EDGE('',*,*,#390,.F.);
#593=ORIENTED_EDGE('',*,*,#339,.T.);
#594=ORIENTED_EDGE('',*,*,#386,.T.);
#595=ORIENTED_EDGE('',*,*,#384,.T.);
#596=ORIENTED_EDGE('',*,*,#381,.T.);
#597=ORIENTED_EDGE('',*,*,#396,.F.);
#598=ORIENTED_EDGE('',*,*,#392,.F.);
#599=ORIENTED_EDGE('',*,*,#395,.F.);
#600=ORIENTED_EDGE('',*,*,#349,.F.);
#601=ORIENTED_EDGE('',*,*,#397,.T.);
#602=ORIENTED_EDGE('',*,*,#398,.F.);
#603=ORIENTED_EDGE('',*,*,#399,.T.);
#604=ORIENTED_EDGE('',*,*,#400,.T.);
#605=ORIENTED_EDGE('',*,*,#401,.T.);
#606=ORIENTED_EDGE('',*,*,#402,.F.);
#607=ORIENTED_EDGE('',*,*,#403,.T.);
#608=ORIENTED_EDGE('',*,*,#398,.T.);
#609=ORIENTED_EDGE('',*,*,#404,.T.);
#610=ORIENTED_EDGE('',*,*,#405,.F.);
#611=ORIENTED_EDGE('',*,*,#406,.T.);
#612=ORIENTED_EDGE('',*,*,#402,.T.);
#613=ORIENTED_EDGE('',*,*,#407,.T.);
#614=ORIENTED_EDGE('',*,*,#400,.F.);
#615=ORIENTED_EDGE('',*,*,#408,.T.);
#616=ORIENTED_EDGE('',*,*,#405,.T.);
#617=ORIENTED_EDGE('',*,*,#397,.F.);
#618=ORIENTED_EDGE('',*,*,#407,.F.);
#619=ORIENTED_EDGE('',*,*,#404,.F.);
#620=ORIENTED_EDGE('',*,*,#401,.F.);
#621=ORIENTED_EDGE('',*,*,#408,.F.);
#622=ORIENTED_EDGE('',*,*,#399,.F.);
#623=ORIENTED_EDGE('',*,*,#403,.F.);
#624=ORIENTED_EDGE('',*,*,#406,.F.);
#625=EDGE_LOOP('',(#409,#410,#411,#412,#413,#414,#415,#416,#417,#418,#419,
#420));
#626=EDGE_LOOP('',(#421,#422,#423,#424,#425,#426,#427,#428));
#627=EDGE_LOOP('',(#429,#430,#431,#432,#433,#434,#435,#436));
#628=EDGE_LOOP('',(#437,#438,#439,#440,#441,#442,#443,#444,#445,#446,#447,
#448));
#629=EDGE_LOOP('',(#449,#450,#451,#452,#453,#454,#455,#456));
#630=EDGE_LOOP('',(#457,#458,#459,#460));
#631=EDGE_LOOP('',(#461,#462,#463,#464,#465));
#632=EDGE_LOOP('',(#466,#467,#468,#469,#470,#471));
#633=EDGE_LOOP('',(#472,#473,#474,#475));
#634=EDGE_LOOP('',(#476,#477,#478,#479));
#635=EDGE_LOOP('',(#480,#481,#482,#483,#484,#485,#486,#487));
#636=EDGE_LOOP('',(#488,#489,#490,#491));
#637=EDGE_LOOP('',(#492,#493,#494,#495));
#638=EDGE_LOOP('',(#496,#497,#498,#499,#500));
#639=EDGE_LOOP('',(#501,#502,#503,#504,#505));
#640=EDGE_LOOP('',(#506,#507,#508,#509));
#641=EDGE_LOOP('',(#510,#511,#512,#513));
#642=EDGE_LOOP('',(#514,#515,#516,#517,#518,#519,#520,#521));
#643=EDGE_LOOP('',(#522,#523,#524,#525,#526,#527,#528,#529));
#644=EDGE_LOOP('',(#530,#531,#532,#533));
#645=EDGE_LOOP('',(#534,#535,#536,#537,#538,#539,#540,#541));
#646=EDGE_LOOP('',(#542,#543,#544,#545));
#647=EDGE_LOOP('',(#546,#547,#548,#549));
#648=EDGE_LOOP('',(#550,#551,#552,#553));
#649=EDGE_LOOP('',(#554,#555,#556,#557));
#650=EDGE_LOOP('',(#558,#559,#560,#561,#562));
#651=EDGE_LOOP('',(#563,#564,#565,#566));
#652=EDGE_LOOP('',(#567,#568,#569,#570));
#653=EDGE_LOOP('',(#571,#572,#573,#574,#575,#576));
#654=EDGE_LOOP('',(#577,#578,#579,#580));
#655=EDGE_LOOP('',(#581,#582,#583,#584));
#656=EDGE_LOOP('',(#585,#586,#587,#588,#589,#590,#591,#592));
#657=EDGE_LOOP('',(#593,#594,#595,#596));
#658=EDGE_LOOP('',(#597,#598,#599,#600));
#659=EDGE_LOOP('',(#601,#602,#603,#604));
#660=EDGE_LOOP('',(#605,#606,#607,#608));
#661=EDGE_LOOP('',(#609,#610,#611,#612));
#662=EDGE_LOOP('',(#613,#614,#615,#616));
#663=EDGE_LOOP('',(#617,#618,#619,#620));
#664=EDGE_LOOP('',(#621,#622,#623,#624));
#665=FACE_BOUND('',#625,.T.);
#666=FACE_BOUND('',#626,.T.);
#667=FACE_BOUND('',#627,.T.);
#668=FACE_BOUND('',#628,.T.);
#669=FACE_BOUND('',#629,.T.);
#670=FACE_BOUND('',#630,.T.);
#671=FACE_BOUND('',#631,.T.);
#672=FACE_BOUND('',#632,.T.);
#673=FACE_BOUND('',#633,.T.);
#674=FACE_BOUND('',#634,.T.);
#675=FACE_BOUND('',#635,.T.);
#676=FACE_BOUND('',#636,.T.);
#677=FACE_BOUND('',#637,.T.);
#678=FACE_BOUND('',#638,.T.);
#679=FACE_BOUND('',#639,.T.);
#680=FACE_BOUND('',#640,.T.);
#681=FACE_BOUND('',#641,.T.);
#682=FACE_BOUND('',#642,.T.);
#683=FACE_BOUND('',#643,.T.);
#684=FACE_BOUND('',#644,.T.);
#685=FACE_BOUND('',#645,.T.);
#686=FACE_BOUND('',#646,.T.);
#687=FACE_BOUND('',#647,.T.);
#688=FACE_BOUND('',#648,.T.);
#689=FACE_BOUND('',#649,.T.);
#690=FACE_BOUND('',#650,.T.);
#691=FACE_BOUND('',#651,.T.);
#692=FACE_BOUND('',#652,.T.);
#693=FACE_BOUND('',#653,.T.);
#694=FACE_BOUND('',#654,.T.);
#695=FACE_BOUND('',#655,.T.);
#696=FACE_BOUND('',#656,.T.);
#697=FACE_BOUND('',#657,.T.);
#698=FACE_BOUND('',#658,.T.);
#699=FACE_BOUND('',#659,.T.);
#700=FACE_BOUND('',#660,.T.);
#701=FACE_BOUND('',#661,.T.);
#702=FACE_BOUND('',#662,.T.);
#703=FACE_BOUND('',#663,.T.);
#704=FACE_BOUND('',#664,.T.);
#705=ADVANCED_FACE('',(#665),#1111,.F.);
#706=ADVANCED_FACE('',(#666),#56,.F.);
#707=ADVANCED_FACE('',(#667),#56,.F.);
#708=ADVANCED_FACE('',(#668),#1112,.F.);
#709=ADVANCED_FACE('',(#669),#1113,.F.);
#710=ADVANCED_FACE('',(#670),#1114,.F.);
#711=ADVANCED_FACE('',(#671),#1115,.T.);
#712=ADVANCED_FACE('',(#672),#1116,.T.);
#713=ADVANCED_FACE('',(#673),#1117,.T.);
#714=ADVANCED_FACE('',(#674),#1117,.T.);
#715=ADVANCED_FACE('',(#675),#1118,.T.);
#716=ADVANCED_FACE('',(#676),#1119,.T.);
#717=ADVANCED_FACE('',(#677),#1119,.T.);
#718=ADVANCED_FACE('',(#678),#1120,.T.);
#719=ADVANCED_FACE('',(#679),#1120,.T.);
#720=ADVANCED_FACE('',(#680),#1121,.T.);
#721=ADVANCED_FACE('',(#681),#1121,.T.);
#722=ADVANCED_FACE('',(#682),#1122,.F.);
#723=ADVANCED_FACE('',(#683),#1122,.F.);
#724=ADVANCED_FACE('',(#684),#1123,.F.);
#725=ADVANCED_FACE('',(#685),#1124,.F.);
#726=ADVANCED_FACE('',(#686),#1125,.F.);
#727=ADVANCED_FACE('',(#687),#1114,.F.);
#728=ADVANCED_FACE('',(#688),#1126,.T.);
#729=ADVANCED_FACE('',(#689),#1127,.T.);
#730=ADVANCED_FACE('',(#690),#1115,.T.);
#731=ADVANCED_FACE('',(#691),#1128,.T.);
#732=ADVANCED_FACE('',(#692),#1129,.T.);
#733=ADVANCED_FACE('',(#693),#1130,.T.);
#734=ADVANCED_FACE('',(#694),#1131,.T.);
#735=ADVANCED_FACE('',(#695),#1132,.T.);
#736=ADVANCED_FACE('',(#696),#1118,.T.);
#737=ADVANCED_FACE('',(#697,#698),#1133,.F.);
#738=ADVANCED_FACE('',(#699),#1134,.T.);
#739=ADVANCED_FACE('',(#700),#1135,.T.);
#740=ADVANCED_FACE('',(#701),#1136,.T.);
#741=ADVANCED_FACE('',(#702),#1137,.T.);
#742=ADVANCED_FACE('',(#703),#1138,.T.);
#743=ADVANCED_FACE('',(#704),#1139,.F.);
#744=AXIS2_PLACEMENT_3D('',#915,#782,$);
#745=AXIS2_PLACEMENT_3D('',#939,#794,#795);
#746=AXIS2_PLACEMENT_3D('',#940,#796,#797);
#747=AXIS2_PLACEMENT_3D('',#942,#798,#799);
#748=AXIS2_PLACEMENT_3D('',#946,#801,#802);
#749=AXIS2_PLACEMENT_3D('',#950,#804,#805);
#750=AXIS2_PLACEMENT_3D('',#953,#807,#808);
#751=AXIS2_PLACEMENT_3D('',#956,#809,#810);
#752=AXIS2_PLACEMENT_3D('',#960,#812,#813);
#753=AXIS2_PLACEMENT_3D('',#964,#815,#816);
#754=AXIS2_PLACEMENT_3D('',#965,#817,$);
#755=AXIS2_PLACEMENT_3D('',#984,#828,$);
#756=AXIS2_PLACEMENT_3D('',#993,#833,$);
#757=AXIS2_PLACEMENT_3D('',#997,#836,$);
#758=AXIS2_PLACEMENT_3D('',#1003,#840,$);
#759=AXIS2_PLACEMENT_3D('',#1012,#845,$);
#760=AXIS2_PLACEMENT_3D('',#1021,#850,$);
#761=AXIS2_PLACEMENT_3D('',#1028,#855,$);
#762=AXIS2_PLACEMENT_3D('',#1034,#859,$);
#763=AXIS2_PLACEMENT_3D('',#1041,#863,$);
#764=AXIS2_PLACEMENT_3D('',#1047,#867,$);
#765=AXIS2_PLACEMENT_3D('',#1053,#872,$);
#766=AXIS2_PLACEMENT_3D('',#1059,#876,$);
#767=AXIS2_PLACEMENT_3D('',#1063,#879,$);
#768=AXIS2_PLACEMENT_3D('',#1065,#881,$);
#769=AXIS2_PLACEMENT_3D('',#1066,#882,$);
#770=AXIS2_PLACEMENT_3D('',#1069,#884,$);
#771=AXIS2_PLACEMENT_3D('',#1071,#886,$);
#772=AXIS2_PLACEMENT_3D('',#1072,#887,$);
#773=AXIS2_PLACEMENT_3D('',#1079,#891,$);
#774=AXIS2_PLACEMENT_3D('',#1082,#894,$);
#775=AXIS2_PLACEMENT_3D('',#1084,#896,$);
#776=AXIS2_PLACEMENT_3D('',#1085,#897,$);
#777=AXIS2_PLACEMENT_3D('',#1094,#902,$);
#778=AXIS2_PLACEMENT_3D('',#1100,#906,$);
#779=AXIS2_PLACEMENT_3D('',#1106,#910,$);
#780=AXIS2_PLACEMENT_3D('',#1109,#913,$);
#781=AXIS2_PLACEMENT_3D('',#1110,#914,$);
#782=DIRECTION('',(1.,0.,0.));
#783=DIRECTION('',(0.,0.,1.));
#784=DIRECTION('',(0.,1.,0.));
#785=DIRECTION('',(0.,0.,-1.));
#786=DIRECTION('',(0.,1.,5.58934892649695E-032));
#787=DIRECTION('',(0.,0.,-1.));
#788=DIRECTION('',(0.,-1.,-5.58934892649695E-032));
#789=DIRECTION('',(0.,0.,1.));
#790=DIRECTION('',(0.,1.,5.58934892649695E-032));
#791=DIRECTION('',(0.,0.,1.));
#792=DIRECTION('',(0.,0.,-1.));
#793=DIRECTION('',(0.,1.,0.));
#794=DIRECTION('',(0.,1.,0.));
#795=DIRECTION('',(0.07,0.,0.));
#796=DIRECTION('',(0.,1.,0.));
#797=DIRECTION('',(0.07,0.,0.));
#798=DIRECTION('',(0.,-1.,0.));
#799=DIRECTION('',(0.07,0.,0.));
#800=DIRECTION('',(0.,-1.,0.));
#801=DIRECTION('',(0.,-1.,0.));
#802=DIRECTION('',(0.07,0.,0.));
#803=DIRECTION('',(0.,1.,0.));
#804=DIRECTION('',(0.,-1.,0.));
#805=DIRECTION('',(0.07,0.,0.));
#806=DIRECTION('',(0.,1.,0.));
#807=DIRECTION('',(0.,-1.,0.));
#808=DIRECTION('',(0.07,0.,0.));
#809=DIRECTION('',(0.,1.,0.));
#810=DIRECTION('',(0.07,0.,0.));
#811=DIRECTION('',(0.,1.,0.));
#812=DIRECTION('',(0.,1.,0.));
#813=DIRECTION('',(0.07,0.,0.));
#814=DIRECTION('',(0.,-1.,0.));
#815=DIRECTION('',(0.,1.,0.));
#816=DIRECTION('',(0.07,0.,0.));
#817=DIRECTION('',(-1.,0.,0.));
#818=DIRECTION('',(0.,0.,-1.));
#819=DIRECTION('',(0.,-1.,0.));
#820=DIRECTION('',(0.,0.,1.));
#821=DIRECTION('',(0.,0.,-1.));
#822=DIRECTION('',(0.,-1.,-5.58934892649695E-032));
#823=DIRECTION('',(0.,0.,-1.));
#824=DIRECTION('',(0.,1.,5.58934892649695E-032));
#825=DIRECTION('',(0.,0.,1.));
#826=DIRECTION('',(0.,-1.,-5.58934892649695E-032));
#827=DIRECTION('',(0.,0.,1.));
#828=DIRECTION('',(0.,-1.,0.));
#829=DIRECTION('',(-1.,0.,0.));
#830=DIRECTION('',(0.,0.,1.));
#831=DIRECTION('',(1.,0.,0.));
#832=DIRECTION('',(0.,0.,1.));
#833=DIRECTION('',(0.,0.,1.));
#834=DIRECTION('',(1.,0.,0.));
#835=DIRECTION('',(0.,-1.,0.));
#836=DIRECTION('',(0.,1.,0.));
#837=DIRECTION('',(1.,0.,0.));
#838=DIRECTION('',(0.,0.,1.));
#839=DIRECTION('',(1.,0.,0.));
#840=DIRECTION('',(0.,-1.,0.));
#841=DIRECTION('',(-1.,0.,0.));
#842=DIRECTION('',(0.,0.,1.));
#843=DIRECTION('',(1.,0.,0.));
#844=DIRECTION('',(0.,0.,1.));
#845=DIRECTION('',(0.,1.,0.));
#846=DIRECTION('',(1.,0.,0.));
#847=DIRECTION('',(0.,0.,1.));
#848=DIRECTION('',(1.,0.,0.));
#849=DIRECTION('',(0.,0.,1.));
#850=DIRECTION('',(0.,0.,1.));
#851=DIRECTION('',(1.,0.,0.));
#852=DIRECTION('',(0.,1.,0.));
#853=DIRECTION('',(-1.,0.,0.));
#854=DIRECTION('',(0.,1.,0.));
#855=DIRECTION('',(2.31545666823165E-049,-5.58934892649695E-032,1.));
#856=DIRECTION('',(0.,1.,0.));
#857=DIRECTION('',(-1.,0.,0.));
#858=DIRECTION('',(0.,-1.,0.));
#859=DIRECTION('',(0.,-1.,0.));
#860=DIRECTION('',(-1.,0.,0.));
#861=DIRECTION('',(0.,0.,1.));
#862=DIRECTION('',(0.,0.,1.));
#863=DIRECTION('',(0.,-1.,0.));
#864=DIRECTION('',(0.,0.,1.));
#865=DIRECTION('',(-1.,0.,0.));
#866=DIRECTION('',(0.,0.,1.));
#867=DIRECTION('',(2.31545666823165E-049,-5.58934892649695E-032,1.));
#868=DIRECTION('',(0.,1.,0.));
#869=DIRECTION('',(0.,1.,0.));
#870=DIRECTION('',(0.,-1.,0.));
#871=DIRECTION('',(0.,-1.,0.));
#872=DIRECTION('',(-1.,0.,0.));
#873=DIRECTION('',(0.,1.,0.));
#874=DIRECTION('',(0.,-1.,0.));
#875=DIRECTION('',(0.,0.,1.));
#876=DIRECTION('',(0.,1.,0.));
#877=DIRECTION('',(-1.,0.,0.));
#878=DIRECTION('',(0.,0.,1.));
#879=DIRECTION('',(1.,0.,0.));
#880=DIRECTION('',(0.,1.,0.));
#881=DIRECTION('',(1.,0.,0.));
#882=DIRECTION('',(-1.,0.,0.));
#883=DIRECTION('',(0.,0.,1.));
#884=DIRECTION('',(1.,0.,0.));
#885=DIRECTION('',(0.,-1.,0.));
#886=DIRECTION('',(-1.,0.,0.));
#887=DIRECTION('',(0.,1.,0.));
#888=DIRECTION('',(0.,0.,1.));
#889=DIRECTION('',(-1.,0.,0.));
#890=DIRECTION('',(0.,0.,1.));
#891=DIRECTION('',(1.,0.,0.));
#892=DIRECTION('',(0.,-1.,0.));
#893=DIRECTION('',(0.,1.,0.));
#894=DIRECTION('',(-1.,0.,0.));
#895=DIRECTION('',(0.,-1.,0.));
#896=DIRECTION('',(0.,0.,1.));
#897=DIRECTION('',(0.,0.,-1.));
#898=DIRECTION('',(1.,0.,0.));
#899=DIRECTION('',(0.,1.,0.));
#900=DIRECTION('',(-1.,0.,0.));
#901=DIRECTION('',(0.,1.,0.));
#902=DIRECTION('',(1.,0.,0.));
#903=DIRECTION('',(0.,0.,1.));
#904=DIRECTION('',(0.,1.,0.));
#905=DIRECTION('',(0.,0.,-1.));
#906=DIRECTION('',(0.,0.,1.));
#907=DIRECTION('',(-1.,0.,0.));
#908=DIRECTION('',(0.,1.,0.));
#909=DIRECTION('',(1.,0.,0.));
#910=DIRECTION('',(-1.,0.,0.));
#911=DIRECTION('',(0.,0.,-1.));
#912=DIRECTION('',(0.,0.,1.));
#913=DIRECTION('',(0.,1.,0.));
#914=DIRECTION('',(0.,1.,0.));
#915=CARTESIAN_POINT('',(0.07,-0.714784248574209,0.54195542216301));
#916=CARTESIAN_POINT('',(0.07,-0.07,0.270977711081505));
#917=CARTESIAN_POINT('',(0.07,-0.07,0.46));
#918=CARTESIAN_POINT('',(0.07,-0.07,0.5));
#919=CARTESIAN_POINT('',(0.07,-0.714784248574209,0.46));
#920=CARTESIAN_POINT('',(0.07,-0.11,0.46));
#921=CARTESIAN_POINT('',(0.07,-0.11,0.495977711081505));
#922=CARTESIAN_POINT('',(0.07,-0.11,0.5));
#923=CARTESIAN_POINT('',(0.07,-0.357392124287104,0.5));
#924=CARTESIAN_POINT('',(0.07,-0.12,0.5));
#925=CARTESIAN_POINT('',(0.07,-0.12,0.520977711081505));
#926=CARTESIAN_POINT('',(0.07,-0.12,0.6));
#927=CARTESIAN_POINT('',(0.07,-0.357392124287104,0.6));
#928=CARTESIAN_POINT('',(0.07,0.12,0.6));
#929=CARTESIAN_POINT('',(0.07,0.12,0.520977711081505));
#930=CARTESIAN_POINT('',(0.07,0.12,0.5));
#931=CARTESIAN_POINT('',(0.07,-0.357392124287104,0.5));
#932=CARTESIAN_POINT('',(0.07,0.11,0.5));
#933=CARTESIAN_POINT('',(0.07,0.11,0.495977711081505));
#934=CARTESIAN_POINT('',(0.07,0.11,0.46));
#935=CARTESIAN_POINT('',(0.07,0.07,0.46));
#936=CARTESIAN_POINT('',(0.07,0.07,0.270977711081505));
#937=CARTESIAN_POINT('',(0.07,0.07,0.5));
#938=CARTESIAN_POINT('',(0.07,-0.357392124287104,0.5));
#939=CARTESIAN_POINT('',(0.,-0.714784248574209,0.46));
#940=CARTESIAN_POINT('',(0.,0.07,0.46));
#941=CARTESIAN_POINT('',(-0.07,0.07,0.46));
#942=CARTESIAN_POINT('',(0.,0.11,0.46));
#943=CARTESIAN_POINT('',(0.0692820323027551,0.11,0.45));
#944=CARTESIAN_POINT('',(0.0692820323027551,0.,0.45));
#945=CARTESIAN_POINT('',(0.0692820323027551,0.12,0.45));
#946=CARTESIAN_POINT('',(0.,0.12,0.46));
#947=CARTESIAN_POINT('',(-0.0692820323027551,0.12,0.45));
#948=CARTESIAN_POINT('',(-0.0692820323027551,0.,0.45));
#949=CARTESIAN_POINT('',(-0.0692820323027551,0.11,0.45));
#950=CARTESIAN_POINT('',(0.,0.11,0.46));
#951=CARTESIAN_POINT('',(-0.07,0.11,0.46));
#952=CARTESIAN_POINT('',(-0.07,-0.714784248574209,0.46));
#953=CARTESIAN_POINT('',(0.,-0.07,0.46));
#954=CARTESIAN_POINT('',(-0.07,-0.07,0.46));
#955=CARTESIAN_POINT('',(-0.07,-0.11,0.46));
#956=CARTESIAN_POINT('',(0.,-0.11,0.46));
#957=CARTESIAN_POINT('',(-0.0692820323027551,-0.11,0.45));
#958=CARTESIAN_POINT('',(-0.0692820323027551,0.,0.45));
#959=CARTESIAN_POINT('',(-0.0692820323027551,-0.12,0.45));
#960=CARTESIAN_POINT('',(0.,-0.12,0.46));
#961=CARTESIAN_POINT('',(0.0692820323027551,-0.12,0.45));
#962=CARTESIAN_POINT('',(0.0692820323027551,0.,0.45));
#963=CARTESIAN_POINT('',(0.0692820323027551,-0.11,0.45));
#964=CARTESIAN_POINT('',(0.,-0.11,0.46));
#965=CARTESIAN_POINT('',(-0.07,-0.714784248574209,0.54195542216301));
#966=CARTESIAN_POINT('',(-0.07,-0.07,0.270977711081505));
#967=CARTESIAN_POINT('',(-0.07,-0.07,0.5));
#968=CARTESIAN_POINT('',(-0.07,-0.357392124287104,0.5));
#969=CARTESIAN_POINT('',(-0.07,0.07,0.5));
#970=CARTESIAN_POINT('',(-0.07,0.07,0.270977711081505));
#971=CARTESIAN_POINT('',(-0.07,0.11,0.495977711081505));
#972=CARTESIAN_POINT('',(-0.07,0.11,0.5));
#973=CARTESIAN_POINT('',(-0.07,-0.357392124287104,0.5));
#974=CARTESIAN_POINT('',(-0.07,0.12,0.5));
#975=CARTESIAN_POINT('',(-0.07,0.12,0.520977711081505));
#976=CARTESIAN_POINT('',(-0.07,0.12,0.6));
#977=CARTESIAN_POINT('',(-0.07,-0.357392124287104,0.6));
#978=CARTESIAN_POINT('',(-0.07,-0.12,0.6));
#979=CARTESIAN_POINT('',(-0.07,-0.12,0.520977711081505));
#980=CARTESIAN_POINT('',(-0.07,-0.12,0.5));
#981=CARTESIAN_POINT('',(-0.07,-0.357392124287104,0.5));
#982=CARTESIAN_POINT('',(-0.07,-0.11,0.5));
#983=CARTESIAN_POINT('',(-0.07,-0.11,0.495977711081505));
#984=CARTESIAN_POINT('',(0.,-0.07,0.));
#985=CARTESIAN_POINT('',(0.2,-0.07,0.5));
#986=CARTESIAN_POINT('',(0.2,-0.07,0.5));
#987=CARTESIAN_POINT('',(0.2,-0.07,0.));
#988=CARTESIAN_POINT('',(0.2,-0.07,0.));
#989=CARTESIAN_POINT('',(9.121150463367E-019,-0.07,0.));
#990=CARTESIAN_POINT('',(-0.2,-0.07,0.));
#991=CARTESIAN_POINT('',(-0.2,-0.07,0.));
#992=CARTESIAN_POINT('',(-0.2,-0.07,0.5));
#993=CARTESIAN_POINT('',(1.60038462093483E-018,0.,0.5));
#994=CARTESIAN_POINT('',(-0.2,0.07,0.5));
#995=CARTESIAN_POINT('',(0.2,0.07,0.5));
#996=CARTESIAN_POINT('',(0.2,0.07,0.5));
#997=CARTESIAN_POINT('',(0.,0.11,0.45));
#998=CARTESIAN_POINT('',(9.121150463367E-019,0.11,0.45));
#999=CARTESIAN_POINT('',(-0.24,0.11,0.45));
#1000=CARTESIAN_POINT('',(-0.24,0.11,0.45));
#1001=CARTESIAN_POINT('',(-0.24,0.11,0.5));
#1002=CARTESIAN_POINT('',(0.24,0.11,0.5));
#1003=CARTESIAN_POINT('',(0.,-0.12,0.));
#1004=CARTESIAN_POINT('',(-0.25,-0.12,0.45));
#1005=CARTESIAN_POINT('',(-0.25,-0.12,0.45));
#1006=CARTESIAN_POINT('',(-0.25,-0.12,0.));
#1007=CARTESIAN_POINT('',(-0.25,-0.12,0.));
#1008=CARTESIAN_POINT('',(-0.25,-0.12,0.));
#1009=CARTESIAN_POINT('',(0.25,-0.12,0.));
#1010=CARTESIAN_POINT('',(0.25,-0.12,0.));
#1011=CARTESIAN_POINT('',(0.25,-0.12,0.45));
#1012=CARTESIAN_POINT('',(0.,0.12,0.5));
#1013=CARTESIAN_POINT('',(-0.25,0.12,0.5));
#1014=CARTESIAN_POINT('',(-0.25,0.12,0.5));
#1015=CARTESIAN_POINT('',(-0.25,0.12,0.5));
#1016=CARTESIAN_POINT('',(-0.25,0.12,0.6));
#1017=CARTESIAN_POINT('',(-0.25,0.12,0.6));
#1018=CARTESIAN_POINT('',(0.25,0.12,0.6));
#1019=CARTESIAN_POINT('',(0.25,0.12,0.5));
#1020=CARTESIAN_POINT('',(0.25,0.12,0.5));
#1021=CARTESIAN_POINT('',(1.8242300926734E-018,0.,0.45));
#1022=CARTESIAN_POINT('',(0.25,0.12,0.45));
#1023=CARTESIAN_POINT('',(-0.25,0.12,0.45));
#1024=CARTESIAN_POINT('',(-0.25,0.12,0.45));
#1025=CARTESIAN_POINT('',(9.121150463367E-019,-0.11,0.45));
#1026=CARTESIAN_POINT('',(-0.24,-0.11,0.45));
#1027=CARTESIAN_POINT('',(-0.24,-6.93889390390723E-018,0.45));
#1028=CARTESIAN_POINT('',(0.,1.22751931469612E-018,0.6));
#1029=CARTESIAN_POINT('',(-0.25,-0.12,0.6));
#1030=CARTESIAN_POINT('',(-0.25,-0.12,0.6));
#1031=CARTESIAN_POINT('',(0.25,-0.12,0.6));
#1032=CARTESIAN_POINT('',(0.25,-0.12,0.6));
#1033=CARTESIAN_POINT('',(0.25,0.12,0.6));
#1034=CARTESIAN_POINT('',(0.,-0.11,0.45));
#1035=CARTESIAN_POINT('',(-0.24,-0.11,0.5));
#1036=CARTESIAN_POINT('',(-0.24,-0.11,0.5));
#1037=CARTESIAN_POINT('',(-0.24,-0.11,0.45));
#1038=CARTESIAN_POINT('',(0.24,-0.11,0.45));
#1039=CARTESIAN_POINT('',(0.24,-0.11,0.45));
#1040=CARTESIAN_POINT('',(0.24,-0.11,0.5));
#1041=CARTESIAN_POINT('',(0.,-0.12,0.5));
#1042=CARTESIAN_POINT('',(-0.25,-0.12,0.5));
#1043=CARTESIAN_POINT('',(-0.25,-0.12,0.5));
#1044=CARTESIAN_POINT('',(0.25,-0.12,0.5));
#1045=CARTESIAN_POINT('',(0.25,-0.12,0.5));
#1046=CARTESIAN_POINT('',(0.25,-0.12,0.5));
#1047=CARTESIAN_POINT('',(0.,1.22751931469612E-018,0.5));
#1048=CARTESIAN_POINT('',(-0.24,0.11,0.5));
#1049=CARTESIAN_POINT('',(-0.25,-0.12,0.5));
#1050=CARTESIAN_POINT('',(0.25,0.12,0.5));
#1051=CARTESIAN_POINT('',(0.24,-0.11,0.5));
#1052=CARTESIAN_POINT('',(0.24,0.11,0.5));
#1053=CARTESIAN_POINT('',(-0.2,0.,0.));
#1054=CARTESIAN_POINT('',(-0.2,-0.07,0.5));
#1055=CARTESIAN_POINT('',(-0.2,0.07,0.5));
#1056=CARTESIAN_POINT('',(-0.2,0.,0.));
#1057=CARTESIAN_POINT('',(-0.2,0.07,0.));
#1058=CARTESIAN_POINT('',(-0.2,0.07,0.));
#1059=CARTESIAN_POINT('',(0.,0.07,0.));
#1060=CARTESIAN_POINT('',(9.121150463367E-019,0.07,0.));
#1061=CARTESIAN_POINT('',(0.2,0.07,0.));
#1062=CARTESIAN_POINT('',(0.2,0.07,0.));
#1063=CARTESIAN_POINT('',(0.2,0.,0.));
#1064=CARTESIAN_POINT('',(0.2,0.,0.));
#1065=CARTESIAN_POINT('',(0.25,0.,0.5));
#1066=CARTESIAN_POINT('',(-0.25,0.,0.5));
#1067=CARTESIAN_POINT('',(0.24,0.11,0.45));
#1068=CARTESIAN_POINT('',(0.24,0.11,0.45));
#1069=CARTESIAN_POINT('',(0.24,-1.38777878078145E-017,0.45));
#1070=CARTESIAN_POINT('',(0.24,-6.93889390390723E-018,0.45));
#1071=CARTESIAN_POINT('',(-0.24,-1.38777878078145E-017,0.45));
#1072=CARTESIAN_POINT('',(0.,0.12,0.));
#1073=CARTESIAN_POINT('',(0.25,0.12,0.45));
#1074=CARTESIAN_POINT('',(0.25,0.12,0.));
#1075=CARTESIAN_POINT('',(0.25,0.12,0.));
#1076=CARTESIAN_POINT('',(0.25,0.12,0.));
#1077=CARTESIAN_POINT('',(-0.25,0.12,0.));
#1078=CARTESIAN_POINT('',(-0.25,0.12,0.));
#1079=CARTESIAN_POINT('',(0.25,0.,0.));
#1080=CARTESIAN_POINT('',(0.25,-0.12,0.45));
#1081=CARTESIAN_POINT('',(0.25,-0.12,0.));
#1082=CARTESIAN_POINT('',(-0.25,0.,0.));
#1083=CARTESIAN_POINT('',(-0.25,0.12,0.));
#1084=CARTESIAN_POINT('',(1.8242300926734E-018,0.,0.));
#1085=CARTESIAN_POINT('',(-0.00949901342391968,-0.01,0.47041580080986));
#1086=CARTESIAN_POINT('',(0.148098260164261,0.01,0.47041580080986));
#1087=CARTESIAN_POINT('',(-0.1670962870121,0.01,0.47041580080986));
#1088=CARTESIAN_POINT('',(0.148098260164261,0.01,0.47041580080986));
#1089=CARTESIAN_POINT('',(0.148098260164261,-0.01,0.47041580080986));
#1090=CARTESIAN_POINT('',(0.148098260164261,-0.01,0.47041580080986));
#1091=CARTESIAN_POINT('',(0.148098260164261,-0.01,0.47041580080986));
#1092=CARTESIAN_POINT('',(-0.1670962870121,-0.01,0.47041580080986));
#1093=CARTESIAN_POINT('',(-0.1670962870121,-0.01,0.47041580080986));
#1094=CARTESIAN_POINT('',(0.148098260164261,-0.01,0.477755934000015));
#1095=CARTESIAN_POINT('',(0.148098260164261,0.01,0.48509606719017));
#1096=CARTESIAN_POINT('',(0.148098260164261,0.01,0.48509606719017));
#1097=CARTESIAN_POINT('',(0.148098260164261,-0.01,0.48509606719017));
#1098=CARTESIAN_POINT('',(0.148098260164261,-0.01,0.48509606719017));
#1099=CARTESIAN_POINT('',(0.148098260164261,-0.01,0.48509606719017));
#1100=CARTESIAN_POINT('',(-0.00949901342391968,-0.01,0.48509606719017));
#1101=CARTESIAN_POINT('',(-0.1670962870121,0.01,0.48509606719017));
#1102=CARTESIAN_POINT('',(-0.1670962870121,0.01,0.48509606719017));
#1103=CARTESIAN_POINT('',(-0.1670962870121,-0.01,0.48509606719017));
#1104=CARTESIAN_POINT('',(-0.1670962870121,-0.01,0.48509606719017));
#1105=CARTESIAN_POINT('',(-0.1670962870121,-0.01,0.48509606719017));
#1106=CARTESIAN_POINT('',(-0.1670962870121,-0.01,0.477755934000015));
#1107=CARTESIAN_POINT('',(-0.1670962870121,0.01,0.47041580080986));
#1108=CARTESIAN_POINT('',(-0.1670962870121,-0.01,0.47041580080986));
#1109=CARTESIAN_POINT('',(-0.00949901342391968,0.01,0.477755934000015));
#1110=CARTESIAN_POINT('',(-0.00949901342391968,-0.01,0.477755934000015));
#1111=PLANE('',#744);
#1112=PLANE('',#754);
#1113=PLANE('',#755);
#1114=PLANE('',#756);
#1115=PLANE('',#757);
#1116=PLANE('',#758);
#1117=PLANE('',#759);
#1118=PLANE('',#760);
#1119=PLANE('',#761);
#1120=PLANE('',#762);
#1121=PLANE('',#763);
#1122=PLANE('',#764);
#1123=PLANE('',#765);
#1124=PLANE('',#766);
#1125=PLANE('',#767);
#1126=PLANE('',#768);
#1127=PLANE('',#769);
#1128=PLANE('',#770);
#1129=PLANE('',#771);
#1130=PLANE('',#772);
#1131=PLANE('',#773);
#1132=PLANE('',#774);
#1133=PLANE('',#775);
#1134=PLANE('',#776);
#1135=PLANE('',#777);
#1136=PLANE('',#778);
#1137=PLANE('',#779);
#1138=PLANE('',#780);
#1139=PLANE('',#781);
#1140=CLOSED_SHELL('',(#705,#706,#707,#708,#709,#710,#711,#712,#713,#714,
#715,#716,#717,#718,#719,#720,#721,#722,#723,#724,#725,#726,#727,#728,#729,
#730,#731,#732,#733,#734,#735,#736,#737));
#1141=CLOSED_SHELL('',(#738,#739,#740,#741,#742,#743));
#1142=MANIFOLD_SOLID_BREP('',#1140);
#1143=MANIFOLD_SOLID_BREP('',#1141);
#1144=ADVANCED_BREP_SHAPE_REPRESENTATION('',(#1142,#1143),#47);
ENDSEC;
END-ISO-10303-21;
