ISO-10303-21;
HEADER;
/* Generated by software containing ST-Developer
 * from STEP Tools, Inc. (www.steptools.com) 
 */

FILE_DESCRIPTION(
/* description */ ('Alibre Inc.'),
/* implementation_level */ '2;1');

FILE_NAME(
/* name */ 'export0',
/* time_stamp */ '2010-09-27T14:54:22-07:00',
/* author */ (''),
/* organization */ (''),
/* preprocessor_version */ 'ST-DEVELOPER v10',
/* originating_system */ 'Alibre',
/* authorisation */ '');

FILE_SCHEMA (('AUTOMOTIVE_DESIGN'));
ENDSEC;

DATA;
#10=CONTEXT_DEPENDENT_SHAPE_REPRESENTATION(#34,#68);
#11=CONTEXT_DEPENDENT_SHAPE_REPRESENTATION(#35,#69);
#12=CONTEXT_DEPENDENT_SHAPE_REPRESENTATION(#36,#70);
#13=CONTEXT_DEPENDENT_SHAPE_REPRESENTATION(#37,#71);
#14=CONTEXT_DEPENDENT_SHAPE_REPRESENTATION(#38,#72);
#15=CONTEXT_DEPENDENT_SHAPE_REPRESENTATION(#39,#73);
#16=CONTEXT_DEPENDENT_SHAPE_REPRESENTATION(#40,#74);
#17=CONTEXT_DEPENDENT_SHAPE_REPRESENTATION(#41,#75);
#18=NEXT_ASSEMBLY_USAGE_OCCURRENCE('NAUO_ID9','NAUO_NAME9',$,#78,#76,$);
#19=NEXT_ASSEMBLY_USAGE_OCCURRENCE('NAUO_ID19','NAUO_NAME19',$,#78,#77,$);
#20=NEXT_ASSEMBLY_USAGE_OCCURRENCE('NAUO_ID29','NAUO_NAME29',$,#78,#77,$);
#21=NEXT_ASSEMBLY_USAGE_OCCURRENCE('NAUO_ID39','NAUO_NAME39',$,#78,#76,$);
#22=NEXT_ASSEMBLY_USAGE_OCCURRENCE('NAUO_ID49','NAUO_NAME49',$,#78,#77,$);
#23=NEXT_ASSEMBLY_USAGE_OCCURRENCE('NAUO_ID59','NAUO_NAME59',$,#78,#77,$);
#24=NEXT_ASSEMBLY_USAGE_OCCURRENCE('NAUO_ID69','NAUO_NAME69',$,#78,#76,$);
#25=NEXT_ASSEMBLY_USAGE_OCCURRENCE('NAUO_ID79','NAUO_NAME79',$,#78,#76,$);
#26=ITEM_DEFINED_TRANSFORMATION('ITD_NAME0',$,#386,#385);
#27=ITEM_DEFINED_TRANSFORMATION('ITD_NAME10',$,#388,#387);
#28=ITEM_DEFINED_TRANSFORMATION('ITD_NAME20',$,#390,#389);
#29=ITEM_DEFINED_TRANSFORMATION('ITD_NAME30',$,#392,#391);
#30=ITEM_DEFINED_TRANSFORMATION('ITD_NAME40',$,#394,#393);
#31=ITEM_DEFINED_TRANSFORMATION('ITD_NAME50',$,#396,#395);
#32=ITEM_DEFINED_TRANSFORMATION('ITD_NAME60',$,#398,#397);
#33=ITEM_DEFINED_TRANSFORMATION('ITD_NAME70',$,#400,#399);
#34=(
REPRESENTATION_RELATIONSHIP('SamtecTSWpin',$,#93,#95)
REPRESENTATION_RELATIONSHIP_WITH_TRANSFORMATION(#26)
SHAPE_REPRESENTATION_RELATIONSHIP()
);
#35=(
REPRESENTATION_RELATIONSHIP('SamtecTSWbody',$,#94,#95)
REPRESENTATION_RELATIONSHIP_WITH_TRANSFORMATION(#27)
SHAPE_REPRESENTATION_RELATIONSHIP()
);
#36=(
REPRESENTATION_RELATIONSHIP('SamtecTSWbody',$,#94,#95)
REPRESENTATION_RELATIONSHIP_WITH_TRANSFORMATION(#28)
SHAPE_REPRESENTATION_RELATIONSHIP()
);
#37=(
REPRESENTATION_RELATIONSHIP('SamtecTSWpin',$,#93,#95)
REPRESENTATION_RELATIONSHIP_WITH_TRANSFORMATION(#29)
SHAPE_REPRESENTATION_RELATIONSHIP()
);
#38=(
REPRESENTATION_RELATIONSHIP('SamtecTSWbody',$,#94,#95)
REPRESENTATION_RELATIONSHIP_WITH_TRANSFORMATION(#30)
SHAPE_REPRESENTATION_RELATIONSHIP()
);
#39=(
REPRESENTATION_RELATIONSHIP('SamtecTSWbody',$,#94,#95)
REPRESENTATION_RELATIONSHIP_WITH_TRANSFORMATION(#31)
SHAPE_REPRESENTATION_RELATIONSHIP()
);
#40=(
REPRESENTATION_RELATIONSHIP('SamtecTSWpin',$,#93,#95)
REPRESENTATION_RELATIONSHIP_WITH_TRANSFORMATION(#32)
SHAPE_REPRESENTATION_RELATIONSHIP()
);
#41=(
REPRESENTATION_RELATIONSHIP('SamtecTSWpin',$,#93,#95)
REPRESENTATION_RELATIONSHIP_WITH_TRANSFORMATION(#33)
SHAPE_REPRESENTATION_RELATIONSHIP()
);
#42=COLOUR_RGB('',0.968627450980392,0.909803921568627,0.192156862745098);
#43=COLOUR_RGB('',0.207843137254902,0.207843137254902,0.207843137254902);
#44=FILL_AREA_STYLE_COLOUR('NAME_0',#42);
#45=FILL_AREA_STYLE_COLOUR('NAME_0',#43);
#46=FILL_AREA_STYLE('NAME_0',(#44));
#47=FILL_AREA_STYLE('NAME_0',(#45));
#48=SURFACE_STYLE_FILL_AREA(#46);
#49=SURFACE_STYLE_FILL_AREA(#47);
#50=SURFACE_SIDE_STYLE('NAME_0',(#48));
#51=SURFACE_SIDE_STYLE('NAME_0',(#49));
#52=SURFACE_STYLE_USAGE(.POSITIVE.,#50);
#53=SURFACE_STYLE_USAGE(.POSITIVE.,#51);
#54=PRESENTATION_STYLE_ASSIGNMENT((#52));
#55=PRESENTATION_STYLE_ASSIGNMENT((#53));
#56=STYLED_ITEM('NAME_0',(#54),#595);
#57=STYLED_ITEM('NAME_0',(#55),#596);
#58=MECHANICAL_DESIGN_GEOMETRIC_PRESENTATION_REPRESENTATION('NAME_0',(#56,
#57),#110);
#59=PRODUCT_DEFINITION_CONTEXT('part definition',#86,'design');
#60=PRODUCT_DEFINITION_CONTEXT('part definition',#86,'design');
#61=PRODUCT_DEFINITION_CONTEXT('part definition',#86,'design');
#62=SHAPE_DEFINITION_REPRESENTATION(#65,#93);
#63=SHAPE_DEFINITION_REPRESENTATION(#66,#94);
#64=SHAPE_DEFINITION_REPRESENTATION(#67,#95);
#65=PRODUCT_DEFINITION_SHAPE('PRODUCT_VERSION_ID',
'PRODUCT_VERSION_DESCR',#76);
#66=PRODUCT_DEFINITION_SHAPE('PRODUCT_VERSION_ID',
'PRODUCT_VERSION_DESCR',#77);
#67=PRODUCT_DEFINITION_SHAPE('PRODUCT_VERSION_ID',
'PRODUCT_VERSION_DESCR',#78);
#68=PRODUCT_DEFINITION_SHAPE('NAME_10',$,#18);
#69=PRODUCT_DEFINITION_SHAPE('NAME_20',$,#19);
#70=PRODUCT_DEFINITION_SHAPE('NAME_30',$,#20);
#71=PRODUCT_DEFINITION_SHAPE('NAME_40',$,#21);
#72=PRODUCT_DEFINITION_SHAPE('NAME_50',$,#22);
#73=PRODUCT_DEFINITION_SHAPE('NAME_60',$,#23);
#74=PRODUCT_DEFINITION_SHAPE('NAME_70',$,#24);
#75=PRODUCT_DEFINITION_SHAPE('NAME_80',$,#25);
#76=PRODUCT_DEFINITION('SamtecTSWpin','PRODUCT_VERSION_DESCR',#79,#59);
#77=PRODUCT_DEFINITION('SamtecTSWbody','PRODUCT_VERSION_DESCR',#80,#60);
#78=PRODUCT_DEFINITION('PRODUCT_VERSION_ID','PRODUCT_VERSION_DESCR',#81,
#61);
#79=PRODUCT_DEFINITION_FORMATION_WITH_SPECIFIED_SOURCE(
'PRODUCT_VERSION_ID','PRODUCT_VERSION_DESCR',#90,.MADE.);
#80=PRODUCT_DEFINITION_FORMATION_WITH_SPECIFIED_SOURCE(
'PRODUCT_VERSION_ID','PRODUCT_VERSION_DESCR',#91,.MADE.);
#81=PRODUCT_DEFINITION_FORMATION_WITH_SPECIFIED_SOURCE(
'PRODUCT_VERSION_ID','PRODUCT_VERSION_DESCR',#92,.MADE.);
#82=PRODUCT_RELATED_PRODUCT_CATEGORY('part','part',(#90));
#83=PRODUCT_RELATED_PRODUCT_CATEGORY('part','part',(#91));
#84=PRODUCT_RELATED_PRODUCT_CATEGORY('part','part',(#92));
#85=APPLICATION_PROTOCOL_DEFINITION('Draft International Standard',
'automotive_design',1994,#86);
#86=APPLICATION_CONTEXT('automotive_Design');
#87=PRODUCT_CONTEXT('3D Mechanical Parts',#86,'mechanical');
#88=PRODUCT_CONTEXT('3D Mechanical Parts',#86,'mechanical');
#89=PRODUCT_CONTEXT('3D Mechanical Parts',#86,'mechanical');
#90=PRODUCT('','SamtecTSWpin','',(#87));
#91=PRODUCT('','SamtecTSWbody','',(#88));
#92=PRODUCT('','SamtecTSW-07_2x2','',(#89));
#93=SHAPE_REPRESENTATION('SamtecTSWpin',(#386,#392,#398,#400),#110);
#94=SHAPE_REPRESENTATION('SamtecTSWbody',(#388,#390,#394,#396),#111);
#95=SHAPE_REPRESENTATION('NAME_0',(#385,#387,#389,#391,#393,#395,#397,#399),
#112);
#96=SHAPE_REPRESENTATION_RELATIONSHIP('NAME_0',$,#93,#597);
#97=SHAPE_REPRESENTATION_RELATIONSHIP('NAME_0',$,#94,#598);
#98=(
LENGTH_UNIT()
NAMED_UNIT(*)
SI_UNIT(.CENTI.,.METRE.)
);
#99=(
LENGTH_UNIT()
NAMED_UNIT(*)
SI_UNIT(.CENTI.,.METRE.)
);
#100=(
LENGTH_UNIT()
NAMED_UNIT(*)
SI_UNIT(.CENTI.,.METRE.)
);
#101=(
NAMED_UNIT(*)
PLANE_ANGLE_UNIT()
SI_UNIT($,.RADIAN.)
);
#102=(
NAMED_UNIT(*)
PLANE_ANGLE_UNIT()
SI_UNIT($,.RADIAN.)
);
#103=(
NAMED_UNIT(*)
PLANE_ANGLE_UNIT()
SI_UNIT($,.RADIAN.)
);
#104=(
NAMED_UNIT(*)
SI_UNIT($,.STERADIAN.)
SOLID_ANGLE_UNIT()
);
#105=(
NAMED_UNIT(*)
SI_UNIT($,.STERADIAN.)
SOLID_ANGLE_UNIT()
);
#106=(
NAMED_UNIT(*)
SI_UNIT($,.STERADIAN.)
SOLID_ANGLE_UNIT()
);
#107=UNCERTAINTY_MEASURE_WITH_UNIT(LENGTH_MEASURE(1.E-006),#98,
'DISTANCE_ACCURACY_VALUE',
'Maximum model space distance between geometric entities at asserted co
nnectivities');
#108=UNCERTAINTY_MEASURE_WITH_UNIT(LENGTH_MEASURE(1.E-006),#99,
'DISTANCE_ACCURACY_VALUE',
'Maximum model space distance between geometric entities at asserted co
nnectivities');
#109=UNCERTAINTY_MEASURE_WITH_UNIT(LENGTH_MEASURE(1.E-006),#100,
'DISTANCE_ACCURACY_VALUE',
'Maximum model space distance between geometric entities at asserted co
nnectivities');
#110=(
GEOMETRIC_REPRESENTATION_CONTEXT(3)
GLOBAL_UNCERTAINTY_ASSIGNED_CONTEXT((#107))
GLOBAL_UNIT_ASSIGNED_CONTEXT((#104,#101,#98))
REPRESENTATION_CONTEXT('ID1','3D')
);
#111=(
GEOMETRIC_REPRESENTATION_CONTEXT(3)
GLOBAL_UNCERTAINTY_ASSIGNED_CONTEXT((#108))
GLOBAL_UNIT_ASSIGNED_CONTEXT((#105,#102,#99))
REPRESENTATION_CONTEXT('ID1','3D')
);
#112=(
GEOMETRIC_REPRESENTATION_CONTEXT(3)
GLOBAL_UNCERTAINTY_ASSIGNED_CONTEXT((#109))
GLOBAL_UNIT_ASSIGNED_CONTEXT((#106,#103,#100))
REPRESENTATION_CONTEXT('ID1','3D')
);
#113=VERTEX_POINT('',#487);
#114=VERTEX_POINT('',#488);
#115=VERTEX_POINT('',#490);
#116=VERTEX_POINT('',#492);
#117=VERTEX_POINT('',#496);
#118=VERTEX_POINT('',#497);
#119=VERTEX_POINT('',#502);
#120=VERTEX_POINT('',#506);
#121=VERTEX_POINT('',#513);
#122=VERTEX_POINT('',#514);
#123=VERTEX_POINT('',#516);
#124=VERTEX_POINT('',#518);
#125=VERTEX_POINT('',#522);
#126=VERTEX_POINT('',#524);
#127=VERTEX_POINT('',#528);
#128=VERTEX_POINT('',#530);
#129=VERTEX_POINT('',#537);
#130=VERTEX_POINT('',#538);
#131=VERTEX_POINT('',#540);
#132=VERTEX_POINT('',#542);
#133=VERTEX_POINT('',#546);
#134=VERTEX_POINT('',#548);
#135=VERTEX_POINT('',#552);
#136=VERTEX_POINT('',#554);
#137=VECTOR('',#402,1.);
#138=VECTOR('',#403,1.);
#139=VECTOR('',#404,1.);
#140=VECTOR('',#405,1.);
#141=VECTOR('',#407,1.);
#142=VECTOR('',#408,1.);
#143=VECTOR('',#409,1.);
#144=VECTOR('',#411,1.);
#145=VECTOR('',#412,1.);
#146=VECTOR('',#414,1.);
#147=VECTOR('',#415,1.);
#148=VECTOR('',#417,1.);
#149=VECTOR('',#420,1.);
#150=VECTOR('',#421,1.);
#151=VECTOR('',#422,1.);
#152=VECTOR('',#423,1.);
#153=VECTOR('',#425,1.);
#154=VECTOR('',#426,1.);
#155=VECTOR('',#427,1.);
#156=VECTOR('',#429,1.);
#157=VECTOR('',#430,1.);
#158=VECTOR('',#431,1.);
#159=VECTOR('',#433,1.);
#160=VECTOR('',#434,1.);
#161=VECTOR('',#436,1.);
#162=VECTOR('',#437,1.);
#163=VECTOR('',#438,1.);
#164=VECTOR('',#439,1.);
#165=VECTOR('',#441,1.);
#166=VECTOR('',#442,1.);
#167=VECTOR('',#443,1.);
#168=VECTOR('',#445,1.);
#169=VECTOR('',#446,1.);
#170=VECTOR('',#447,1.);
#171=VECTOR('',#449,1.);
#172=VECTOR('',#450,1.);
#173=LINE('',#486,#137);
#174=LINE('',#489,#138);
#175=LINE('',#491,#139);
#176=LINE('',#493,#140);
#177=LINE('',#495,#141);
#178=LINE('',#498,#142);
#179=LINE('',#499,#143);
#180=LINE('',#501,#144);
#181=LINE('',#503,#145);
#182=LINE('',#505,#146);
#183=LINE('',#507,#147);
#184=LINE('',#509,#148);
#185=LINE('',#512,#149);
#186=LINE('',#515,#150);
#187=LINE('',#517,#151);
#188=LINE('',#519,#152);
#189=LINE('',#521,#153);
#190=LINE('',#523,#154);
#191=LINE('',#525,#155);
#192=LINE('',#527,#156);
#193=LINE('',#529,#157);
#194=LINE('',#531,#158);
#195=LINE('',#533,#159);
#196=LINE('',#534,#160);
#197=LINE('',#536,#161);
#198=LINE('',#539,#162);
#199=LINE('',#541,#163);
#200=LINE('',#543,#164);
#201=LINE('',#545,#165);
#202=LINE('',#547,#166);
#203=LINE('',#549,#167);
#204=LINE('',#551,#168);
#205=LINE('',#553,#169);
#206=LINE('',#555,#170);
#207=LINE('',#557,#171);
#208=LINE('',#558,#172);
#209=EDGE_CURVE('',#113,#114,#173,.T.);
#210=EDGE_CURVE('',#115,#113,#174,.T.);
#211=EDGE_CURVE('',#116,#115,#175,.T.);
#212=EDGE_CURVE('',#114,#116,#176,.T.);
#213=EDGE_CURVE('',#117,#118,#177,.T.);
#214=EDGE_CURVE('',#116,#118,#178,.T.);
#215=EDGE_CURVE('',#117,#115,#179,.T.);
#216=EDGE_CURVE('',#118,#119,#180,.T.);
#217=EDGE_CURVE('',#114,#119,#181,.T.);
#218=EDGE_CURVE('',#119,#120,#182,.T.);
#219=EDGE_CURVE('',#113,#120,#183,.T.);
#220=EDGE_CURVE('',#120,#117,#184,.T.);
#221=EDGE_CURVE('',#121,#122,#185,.T.);
#222=EDGE_CURVE('',#123,#121,#186,.T.);
#223=EDGE_CURVE('',#124,#123,#187,.T.);
#224=EDGE_CURVE('',#124,#122,#188,.T.);
#225=EDGE_CURVE('',#122,#125,#189,.T.);
#226=EDGE_CURVE('',#126,#124,#190,.T.);
#227=EDGE_CURVE('',#126,#125,#191,.T.);
#228=EDGE_CURVE('',#125,#127,#192,.T.);
#229=EDGE_CURVE('',#128,#126,#193,.T.);
#230=EDGE_CURVE('',#128,#127,#194,.T.);
#231=EDGE_CURVE('',#127,#121,#195,.T.);
#232=EDGE_CURVE('',#123,#128,#196,.T.);
#233=EDGE_CURVE('',#129,#130,#197,.T.);
#234=EDGE_CURVE('',#131,#130,#198,.T.);
#235=EDGE_CURVE('',#131,#132,#199,.T.);
#236=EDGE_CURVE('',#132,#129,#200,.T.);
#237=EDGE_CURVE('',#130,#133,#201,.T.);
#238=EDGE_CURVE('',#134,#133,#202,.T.);
#239=EDGE_CURVE('',#134,#131,#203,.T.);
#240=EDGE_CURVE('',#133,#135,#204,.T.);
#241=EDGE_CURVE('',#136,#135,#205,.T.);
#242=EDGE_CURVE('',#136,#134,#206,.T.);
#243=EDGE_CURVE('',#135,#129,#207,.T.);
#244=EDGE_CURVE('',#132,#136,#208,.T.);
#245=ORIENTED_EDGE('',*,*,#209,.F.);
#246=ORIENTED_EDGE('',*,*,#210,.F.);
#247=ORIENTED_EDGE('',*,*,#211,.F.);
#248=ORIENTED_EDGE('',*,*,#212,.F.);
#249=ORIENTED_EDGE('',*,*,#213,.T.);
#250=ORIENTED_EDGE('',*,*,#214,.F.);
#251=ORIENTED_EDGE('',*,*,#211,.T.);
#252=ORIENTED_EDGE('',*,*,#215,.F.);
#253=ORIENTED_EDGE('',*,*,#216,.T.);
#254=ORIENTED_EDGE('',*,*,#217,.F.);
#255=ORIENTED_EDGE('',*,*,#212,.T.);
#256=ORIENTED_EDGE('',*,*,#214,.T.);
#257=ORIENTED_EDGE('',*,*,#218,.T.);
#258=ORIENTED_EDGE('',*,*,#219,.F.);
#259=ORIENTED_EDGE('',*,*,#209,.T.);
#260=ORIENTED_EDGE('',*,*,#217,.T.);
#261=ORIENTED_EDGE('',*,*,#220,.T.);
#262=ORIENTED_EDGE('',*,*,#215,.T.);
#263=ORIENTED_EDGE('',*,*,#210,.T.);
#264=ORIENTED_EDGE('',*,*,#219,.T.);
#265=ORIENTED_EDGE('',*,*,#213,.F.);
#266=ORIENTED_EDGE('',*,*,#220,.F.);
#267=ORIENTED_EDGE('',*,*,#218,.F.);
#268=ORIENTED_EDGE('',*,*,#216,.F.);
#269=ORIENTED_EDGE('',*,*,#221,.F.);
#270=ORIENTED_EDGE('',*,*,#222,.F.);
#271=ORIENTED_EDGE('',*,*,#223,.F.);
#272=ORIENTED_EDGE('',*,*,#224,.T.);
#273=ORIENTED_EDGE('',*,*,#225,.F.);
#274=ORIENTED_EDGE('',*,*,#224,.F.);
#275=ORIENTED_EDGE('',*,*,#226,.F.);
#276=ORIENTED_EDGE('',*,*,#227,.T.);
#277=ORIENTED_EDGE('',*,*,#228,.F.);
#278=ORIENTED_EDGE('',*,*,#227,.F.);
#279=ORIENTED_EDGE('',*,*,#229,.F.);
#280=ORIENTED_EDGE('',*,*,#230,.T.);
#281=ORIENTED_EDGE('',*,*,#231,.F.);
#282=ORIENTED_EDGE('',*,*,#230,.F.);
#283=ORIENTED_EDGE('',*,*,#232,.F.);
#284=ORIENTED_EDGE('',*,*,#222,.T.);
#285=ORIENTED_EDGE('',*,*,#233,.T.);
#286=ORIENTED_EDGE('',*,*,#234,.F.);
#287=ORIENTED_EDGE('',*,*,#235,.T.);
#288=ORIENTED_EDGE('',*,*,#236,.T.);
#289=ORIENTED_EDGE('',*,*,#237,.T.);
#290=ORIENTED_EDGE('',*,*,#238,.F.);
#291=ORIENTED_EDGE('',*,*,#239,.T.);
#292=ORIENTED_EDGE('',*,*,#234,.T.);
#293=ORIENTED_EDGE('',*,*,#240,.T.);
#294=ORIENTED_EDGE('',*,*,#241,.F.);
#295=ORIENTED_EDGE('',*,*,#242,.T.);
#296=ORIENTED_EDGE('',*,*,#238,.T.);
#297=ORIENTED_EDGE('',*,*,#243,.T.);
#298=ORIENTED_EDGE('',*,*,#236,.F.);
#299=ORIENTED_EDGE('',*,*,#244,.T.);
#300=ORIENTED_EDGE('',*,*,#241,.T.);
#301=ORIENTED_EDGE('',*,*,#221,.T.);
#302=ORIENTED_EDGE('',*,*,#225,.T.);
#303=ORIENTED_EDGE('',*,*,#228,.T.);
#304=ORIENTED_EDGE('',*,*,#231,.T.);
#305=ORIENTED_EDGE('',*,*,#233,.F.);
#306=ORIENTED_EDGE('',*,*,#243,.F.);
#307=ORIENTED_EDGE('',*,*,#240,.F.);
#308=ORIENTED_EDGE('',*,*,#237,.F.);
#309=ORIENTED_EDGE('',*,*,#223,.T.);
#310=ORIENTED_EDGE('',*,*,#232,.T.);
#311=ORIENTED_EDGE('',*,*,#229,.T.);
#312=ORIENTED_EDGE('',*,*,#226,.T.);
#313=ORIENTED_EDGE('',*,*,#244,.F.);
#314=ORIENTED_EDGE('',*,*,#235,.F.);
#315=ORIENTED_EDGE('',*,*,#239,.F.);
#316=ORIENTED_EDGE('',*,*,#242,.F.);
#317=EDGE_LOOP('',(#245,#246,#247,#248));
#318=EDGE_LOOP('',(#249,#250,#251,#252));
#319=EDGE_LOOP('',(#253,#254,#255,#256));
#320=EDGE_LOOP('',(#257,#258,#259,#260));
#321=EDGE_LOOP('',(#261,#262,#263,#264));
#322=EDGE_LOOP('',(#265,#266,#267,#268));
#323=EDGE_LOOP('',(#269,#270,#271,#272));
#324=EDGE_LOOP('',(#273,#274,#275,#276));
#325=EDGE_LOOP('',(#277,#278,#279,#280));
#326=EDGE_LOOP('',(#281,#282,#283,#284));
#327=EDGE_LOOP('',(#285,#286,#287,#288));
#328=EDGE_LOOP('',(#289,#290,#291,#292));
#329=EDGE_LOOP('',(#293,#294,#295,#296));
#330=EDGE_LOOP('',(#297,#298,#299,#300));
#331=EDGE_LOOP('',(#301,#302,#303,#304));
#332=EDGE_LOOP('',(#305,#306,#307,#308));
#333=EDGE_LOOP('',(#309,#310,#311,#312));
#334=EDGE_LOOP('',(#313,#314,#315,#316));
#335=FACE_BOUND('',#317,.T.);
#336=FACE_BOUND('',#318,.T.);
#337=FACE_BOUND('',#319,.T.);
#338=FACE_BOUND('',#320,.T.);
#339=FACE_BOUND('',#321,.T.);
#340=FACE_BOUND('',#322,.T.);
#341=FACE_BOUND('',#323,.T.);
#342=FACE_BOUND('',#324,.T.);
#343=FACE_BOUND('',#325,.T.);
#344=FACE_BOUND('',#326,.T.);
#345=FACE_BOUND('',#327,.T.);
#346=FACE_BOUND('',#328,.T.);
#347=FACE_BOUND('',#329,.T.);
#348=FACE_BOUND('',#330,.T.);
#349=FACE_BOUND('',#331,.T.);
#350=FACE_BOUND('',#332,.T.);
#351=FACE_BOUND('',#333,.T.);
#352=FACE_BOUND('',#334,.T.);
#353=ADVANCED_FACE('',(#335),#577,.F.);
#354=ADVANCED_FACE('',(#336),#578,.T.);
#355=ADVANCED_FACE('',(#337),#579,.T.);
#356=ADVANCED_FACE('',(#338),#580,.T.);
#357=ADVANCED_FACE('',(#339),#581,.T.);
#358=ADVANCED_FACE('',(#340),#582,.T.);
#359=ADVANCED_FACE('',(#341),#583,.F.);
#360=ADVANCED_FACE('',(#342),#584,.F.);
#361=ADVANCED_FACE('',(#343),#585,.F.);
#362=ADVANCED_FACE('',(#344),#586,.F.);
#363=ADVANCED_FACE('',(#345),#587,.T.);
#364=ADVANCED_FACE('',(#346),#588,.T.);
#365=ADVANCED_FACE('',(#347),#589,.T.);
#366=ADVANCED_FACE('',(#348),#590,.T.);
#367=ADVANCED_FACE('',(#349,#350),#591,.T.);
#368=ADVANCED_FACE('',(#351,#352),#592,.F.);
#369=AXIS2_PLACEMENT_3D('',#485,#401,$);
#370=AXIS2_PLACEMENT_3D('',#494,#406,$);
#371=AXIS2_PLACEMENT_3D('',#500,#410,$);
#372=AXIS2_PLACEMENT_3D('',#504,#413,$);
#373=AXIS2_PLACEMENT_3D('',#508,#416,$);
#374=AXIS2_PLACEMENT_3D('',#510,#418,$);
#375=AXIS2_PLACEMENT_3D('',#511,#419,$);
#376=AXIS2_PLACEMENT_3D('',#520,#424,$);
#377=AXIS2_PLACEMENT_3D('',#526,#428,$);
#378=AXIS2_PLACEMENT_3D('',#532,#432,$);
#379=AXIS2_PLACEMENT_3D('',#535,#435,$);
#380=AXIS2_PLACEMENT_3D('',#544,#440,$);
#381=AXIS2_PLACEMENT_3D('',#550,#444,$);
#382=AXIS2_PLACEMENT_3D('',#556,#448,$);
#383=AXIS2_PLACEMENT_3D('',#559,#451,$);
#384=AXIS2_PLACEMENT_3D('',#560,#452,$);
#385=AXIS2_PLACEMENT_3D('AXIS_PLACEMENT_1',#561,#453,#454);
#386=AXIS2_PLACEMENT_3D('AXIS_PLACEMENT_5',#562,#455,#456);
#387=AXIS2_PLACEMENT_3D('AXIS_PLACEMENT_11',#563,#457,#458);
#388=AXIS2_PLACEMENT_3D('AXIS_PLACEMENT_15',#564,#459,#460);
#389=AXIS2_PLACEMENT_3D('AXIS_PLACEMENT_21',#565,#461,#462);
#390=AXIS2_PLACEMENT_3D('AXIS_PLACEMENT_25',#566,#463,#464);
#391=AXIS2_PLACEMENT_3D('AXIS_PLACEMENT_31',#567,#465,#466);
#392=AXIS2_PLACEMENT_3D('AXIS_PLACEMENT_35',#568,#467,#468);
#393=AXIS2_PLACEMENT_3D('AXIS_PLACEMENT_41',#569,#469,#470);
#394=AXIS2_PLACEMENT_3D('AXIS_PLACEMENT_45',#570,#471,#472);
#395=AXIS2_PLACEMENT_3D('AXIS_PLACEMENT_51',#571,#473,#474);
#396=AXIS2_PLACEMENT_3D('AXIS_PLACEMENT_55',#572,#475,#476);
#397=AXIS2_PLACEMENT_3D('AXIS_PLACEMENT_61',#573,#477,#478);
#398=AXIS2_PLACEMENT_3D('AXIS_PLACEMENT_65',#574,#479,#480);
#399=AXIS2_PLACEMENT_3D('AXIS_PLACEMENT_71',#575,#481,#482);
#400=AXIS2_PLACEMENT_3D('AXIS_PLACEMENT_75',#576,#483,#484);
#401=DIRECTION('',(0.,0.,1.));
#402=DIRECTION('',(1.,0.,0.));
#403=DIRECTION('',(0.,-1.,0.));
#404=DIRECTION('',(-1.,0.,0.));
#405=DIRECTION('',(1.09273919746571E-016,1.,0.));
#406=DIRECTION('',(0.,1.,0.));
#407=DIRECTION('',(1.,0.,0.));
#408=DIRECTION('',(0.,0.,1.));
#409=DIRECTION('',(0.,0.,-1.));
#410=DIRECTION('',(1.,-1.09273919746571E-016,0.));
#411=DIRECTION('',(-1.09273919746571E-016,-1.,0.));
#412=DIRECTION('',(0.,0.,1.));
#413=DIRECTION('',(0.,-1.,0.));
#414=DIRECTION('',(-1.,0.,0.));
#415=DIRECTION('',(0.,0.,1.));
#416=DIRECTION('',(-1.,0.,0.));
#417=DIRECTION('',(0.,1.,0.));
#418=DIRECTION('',(0.,0.,1.));
#419=DIRECTION('',(0.,1.,0.));
#420=DIRECTION('',(1.,0.,0.));
#421=DIRECTION('',(0.,0.,1.));
#422=DIRECTION('',(-1.,0.,0.));
#423=DIRECTION('',(0.,0.,1.));
#424=DIRECTION('',(1.,-1.09273919746571E-016,0.));
#425=DIRECTION('',(-1.09273919746571E-016,-1.,0.));
#426=DIRECTION('',(1.09273919746571E-016,1.,0.));
#427=DIRECTION('',(0.,0.,1.));
#428=DIRECTION('',(0.,-1.,0.));
#429=DIRECTION('',(-1.,0.,0.));
#430=DIRECTION('',(1.,0.,0.));
#431=DIRECTION('',(0.,0.,1.));
#432=DIRECTION('',(-1.,0.,0.));
#433=DIRECTION('',(0.,1.,0.));
#434=DIRECTION('',(0.,-1.,0.));
#435=DIRECTION('',(0.,1.,0.));
#436=DIRECTION('',(1.,0.,0.));
#437=DIRECTION('',(0.,0.,1.));
#438=DIRECTION('',(-1.,0.,0.));
#439=DIRECTION('',(0.,0.,1.));
#440=DIRECTION('',(1.,0.,0.));
#441=DIRECTION('',(0.,-1.,0.));
#442=DIRECTION('',(0.,0.,1.));
#443=DIRECTION('',(0.,1.,0.));
#444=DIRECTION('',(0.,-1.,0.));
#445=DIRECTION('',(-1.,0.,0.));
#446=DIRECTION('',(0.,0.,1.));
#447=DIRECTION('',(1.,0.,0.));
#448=DIRECTION('',(-1.,0.,0.));
#449=DIRECTION('',(0.,1.,0.));
#450=DIRECTION('',(0.,-1.,0.));
#451=DIRECTION('',(0.,0.,1.));
#452=DIRECTION('',(0.,0.,1.));
#453=DIRECTION('DIRECTION2',(0.,0.,1.));
#454=DIRECTION('DIRECTION3',(1.,0.,0.));
#455=DIRECTION('DIRECTION6',(0.,0.,1.));
#456=DIRECTION('DIRECTION7',(1.,0.,0.));
#457=DIRECTION('DIRECTION12',(0.,0.,1.));
#458=DIRECTION('DIRECTION13',(1.,0.,0.));
#459=DIRECTION('DIRECTION16',(0.,0.,1.));
#460=DIRECTION('DIRECTION17',(1.,0.,0.));
#461=DIRECTION('DIRECTION22',(0.,0.,1.));
#462=DIRECTION('DIRECTION23',(1.,0.,0.));
#463=DIRECTION('DIRECTION26',(0.,0.,1.));
#464=DIRECTION('DIRECTION27',(1.,0.,0.));
#465=DIRECTION('DIRECTION32',(0.,0.,1.));
#466=DIRECTION('DIRECTION33',(1.,0.,0.));
#467=DIRECTION('DIRECTION36',(0.,0.,1.));
#468=DIRECTION('DIRECTION37',(1.,0.,0.));
#469=DIRECTION('DIRECTION42',(0.,0.,1.));
#470=DIRECTION('DIRECTION43',(1.,0.,0.));
#471=DIRECTION('DIRECTION46',(0.,0.,1.));
#472=DIRECTION('DIRECTION47',(1.,0.,0.));
#473=DIRECTION('DIRECTION52',(0.,0.,1.));
#474=DIRECTION('DIRECTION53',(1.,0.,0.));
#475=DIRECTION('DIRECTION56',(0.,0.,1.));
#476=DIRECTION('DIRECTION57',(1.,0.,0.));
#477=DIRECTION('DIRECTION62',(0.,0.,1.));
#478=DIRECTION('DIRECTION63',(1.,0.,0.));
#479=DIRECTION('DIRECTION66',(0.,0.,1.));
#480=DIRECTION('DIRECTION67',(1.,0.,0.));
#481=DIRECTION('DIRECTION72',(0.,0.,1.));
#482=DIRECTION('DIRECTION73',(1.,0.,0.));
#483=DIRECTION('DIRECTION76',(0.,0.,1.));
#484=DIRECTION('DIRECTION77',(1.,0.,0.));
#485=CARTESIAN_POINT('',(4.73106402539129E-019,0.,-0.254));
#486=CARTESIAN_POINT('',(-0.03175,-0.03175,-0.254));
#487=CARTESIAN_POINT('',(-0.03175,-0.03175,-0.254));
#488=CARTESIAN_POINT('',(0.03175,-0.03175,-0.254));
#489=CARTESIAN_POINT('',(-0.03175,0.03175,-0.254));
#490=CARTESIAN_POINT('',(-0.03175,0.03175,-0.254));
#491=CARTESIAN_POINT('',(0.03175,0.03175,-0.254));
#492=CARTESIAN_POINT('',(0.03175,0.03175,-0.254));
#493=CARTESIAN_POINT('',(0.03175,-0.03175,-0.254));
#494=CARTESIAN_POINT('',(0.,0.03175,0.));
#495=CARTESIAN_POINT('',(0.03175,0.03175,0.8382));
#496=CARTESIAN_POINT('',(-0.03175,0.03175,0.8382));
#497=CARTESIAN_POINT('',(0.03175,0.03175,0.8382));
#498=CARTESIAN_POINT('',(0.03175,0.03175,0.));
#499=CARTESIAN_POINT('',(-0.03175,0.03175,0.));
#500=CARTESIAN_POINT('',(0.03175,0.,0.));
#501=CARTESIAN_POINT('',(0.03175,-0.03175,0.8382));
#502=CARTESIAN_POINT('',(0.03175,-0.03175,0.8382));
#503=CARTESIAN_POINT('',(0.03175,-0.03175,0.));
#504=CARTESIAN_POINT('',(0.,-0.03175,0.));
#505=CARTESIAN_POINT('',(-0.03175,-0.03175,0.8382));
#506=CARTESIAN_POINT('',(-0.03175,-0.03175,0.8382));
#507=CARTESIAN_POINT('',(-0.03175,-0.03175,0.));
#508=CARTESIAN_POINT('',(-0.03175,0.,0.));
#509=CARTESIAN_POINT('',(-0.03175,0.03175,0.8382));
#510=CARTESIAN_POINT('',(4.73106402539129E-019,0.,0.8382));
#511=CARTESIAN_POINT('',(0.,0.03175,0.));
#512=CARTESIAN_POINT('',(0.,0.03175,0.254));
#513=CARTESIAN_POINT('',(-0.03175,0.03175,0.254));
#514=CARTESIAN_POINT('',(0.03175,0.03175,0.254));
#515=CARTESIAN_POINT('',(-0.03175,0.03175,0.));
#516=CARTESIAN_POINT('',(-0.03175,0.03175,0.));
#517=CARTESIAN_POINT('',(0.,0.03175,0.));
#518=CARTESIAN_POINT('',(0.03175,0.03175,0.));
#519=CARTESIAN_POINT('',(0.03175,0.03175,0.));
#520=CARTESIAN_POINT('',(0.03175,0.,0.));
#521=CARTESIAN_POINT('',(0.03175,0.,0.254));
#522=CARTESIAN_POINT('',(0.03175,-0.03175,0.254));
#523=CARTESIAN_POINT('',(0.03175,0.,0.));
#524=CARTESIAN_POINT('',(0.03175,-0.03175,0.));
#525=CARTESIAN_POINT('',(0.03175,-0.03175,0.));
#526=CARTESIAN_POINT('',(0.,-0.03175,0.));
#527=CARTESIAN_POINT('',(0.,-0.03175,0.254));
#528=CARTESIAN_POINT('',(-0.03175,-0.03175,0.254));
#529=CARTESIAN_POINT('',(0.,-0.03175,0.));
#530=CARTESIAN_POINT('',(-0.03175,-0.03175,0.));
#531=CARTESIAN_POINT('',(-0.03175,-0.03175,0.));
#532=CARTESIAN_POINT('',(-0.03175,0.,0.));
#533=CARTESIAN_POINT('',(-0.03175,0.,0.254));
#534=CARTESIAN_POINT('',(-0.03175,0.,0.));
#535=CARTESIAN_POINT('',(0.,0.127,0.));
#536=CARTESIAN_POINT('',(0.127,0.127,0.254));
#537=CARTESIAN_POINT('',(-0.127,0.127,0.254));
#538=CARTESIAN_POINT('',(0.127,0.127,0.254));
#539=CARTESIAN_POINT('',(0.127,0.127,0.));
#540=CARTESIAN_POINT('',(0.127,0.127,0.));
#541=CARTESIAN_POINT('',(0.127,0.127,0.));
#542=CARTESIAN_POINT('',(-0.127,0.127,0.));
#543=CARTESIAN_POINT('',(-0.127,0.127,0.));
#544=CARTESIAN_POINT('',(0.127,0.,0.));
#545=CARTESIAN_POINT('',(0.127,-0.127,0.254));
#546=CARTESIAN_POINT('',(0.127,-0.127,0.254));
#547=CARTESIAN_POINT('',(0.127,-0.127,0.));
#548=CARTESIAN_POINT('',(0.127,-0.127,0.));
#549=CARTESIAN_POINT('',(0.127,-0.127,0.));
#550=CARTESIAN_POINT('',(0.,-0.127,0.));
#551=CARTESIAN_POINT('',(-0.127,-0.127,0.254));
#552=CARTESIAN_POINT('',(-0.127,-0.127,0.254));
#553=CARTESIAN_POINT('',(-0.127,-0.127,0.));
#554=CARTESIAN_POINT('',(-0.127,-0.127,0.));
#555=CARTESIAN_POINT('',(-0.127,-0.127,0.));
#556=CARTESIAN_POINT('',(-0.127,0.,0.));
#557=CARTESIAN_POINT('',(-0.127,0.127,0.254));
#558=CARTESIAN_POINT('',(-0.127,0.127,0.));
#559=CARTESIAN_POINT('',(1.89242561015652E-018,0.,0.254));
#560=CARTESIAN_POINT('',(1.89242561015652E-018,0.,0.));
#561=CARTESIAN_POINT('CARTESIAN_POINT4',(0.,0.,0.));
#562=CARTESIAN_POINT('CARTESIAN_POINT8',(0.,0.,0.));
#563=CARTESIAN_POINT('CARTESIAN_POINT14',(0.,0.,0.));
#564=CARTESIAN_POINT('CARTESIAN_POINT18',(0.,0.,0.));
#565=CARTESIAN_POINT('CARTESIAN_POINT24',(0.254,0.,0.));
#566=CARTESIAN_POINT('CARTESIAN_POINT28',(0.,0.,0.));
#567=CARTESIAN_POINT('CARTESIAN_POINT34',(0.254,0.,0.));
#568=CARTESIAN_POINT('CARTESIAN_POINT38',(0.,0.,0.));
#569=CARTESIAN_POINT('CARTESIAN_POINT44',(0.,0.254,0.));
#570=CARTESIAN_POINT('CARTESIAN_POINT48',(0.,0.,0.));
#571=CARTESIAN_POINT('CARTESIAN_POINT54',(0.254,0.254,0.));
#572=CARTESIAN_POINT('CARTESIAN_POINT58',(0.,0.,0.));
#573=CARTESIAN_POINT('CARTESIAN_POINT64',(0.,0.254,0.));
#574=CARTESIAN_POINT('CARTESIAN_POINT68',(0.,0.,0.));
#575=CARTESIAN_POINT('CARTESIAN_POINT74',(0.254,0.254,0.));
#576=CARTESIAN_POINT('CARTESIAN_POINT78',(0.,0.,0.));
#577=PLANE('',#369);
#578=PLANE('',#370);
#579=PLANE('',#371);
#580=PLANE('',#372);
#581=PLANE('',#373);
#582=PLANE('',#374);
#583=PLANE('',#375);
#584=PLANE('',#376);
#585=PLANE('',#377);
#586=PLANE('',#378);
#587=PLANE('',#379);
#588=PLANE('',#380);
#589=PLANE('',#381);
#590=PLANE('',#382);
#591=PLANE('',#383);
#592=PLANE('',#384);
#593=CLOSED_SHELL('',(#353,#354,#355,#356,#357,#358));
#594=CLOSED_SHELL('',(#359,#360,#361,#362,#363,#364,#365,#366,#367,#368));
#595=MANIFOLD_SOLID_BREP('',#593);
#596=MANIFOLD_SOLID_BREP('',#594);
#597=ADVANCED_BREP_SHAPE_REPRESENTATION('SamtecTSWpin',(#595),#110);
#598=ADVANCED_BREP_SHAPE_REPRESENTATION('SamtecTSWbody',(#596),#111);
ENDSEC;
END-ISO-10303-21;
