ISO-10303-21;
HEADER;
/* Generated by software containing ST-Developer
 * from STEP Tools, Inc. (www.steptools.com) 
 */

FILE_DESCRIPTION(
/* description */ ('Alibre Inc.'),
/* implementation_level */ '2;1');

FILE_NAME(
/* name */ 'export0',
/* time_stamp */ '2017-03-06T11:23:49+08:00',
/* author */ (''),
/* organization */ (''),
/* preprocessor_version */ 'ST-DEVELOPER v14',
/* originating_system */ 'Alibre',
/* authorisation */ '');

FILE_SCHEMA (('AUTOMOTIVE_DESIGN'));
ENDSEC;

DATA;
#10=STYLED_ITEM('NAME_0',(#51),#1666);
#11=STYLED_ITEM('NAME_0',(#52),#981);
#12=STYLED_ITEM('NAME_0',(#52),#982);
#13=STYLED_ITEM('NAME_0',(#52),#983);
#14=STYLED_ITEM('NAME_0',(#52),#984);
#15=STYLED_ITEM('NAME_0',(#52),#985);
#16=STYLED_ITEM('NAME_0',(#52),#986);
#17=STYLED_ITEM('NAME_0',(#52),#1003);
#18=STYLED_ITEM('NAME_0',(#52),#1004);
#19=STYLED_ITEM('NAME_0',(#52),#1005);
#20=STYLED_ITEM('NAME_0',(#52),#1006);
#21=STYLED_ITEM('NAME_0',(#52),#1007);
#22=STYLED_ITEM('NAME_0',(#52),#1008);
#23=STYLED_ITEM('NAME_0',(#52),#1009);
#24=STYLED_ITEM('NAME_0',(#52),#1010);
#25=STYLED_ITEM('NAME_0',(#52),#1011);
#26=STYLED_ITEM('NAME_0',(#52),#1012);
#27=STYLED_ITEM('NAME_0',(#52),#1013);
#28=STYLED_ITEM('NAME_0',(#52),#1014);
#29=STYLED_ITEM('NAME_0',(#52),#1015);
#30=STYLED_ITEM('NAME_0',(#52),#1016);
#31=STYLED_ITEM('NAME_0',(#52),#1017);
#32=STYLED_ITEM('NAME_0',(#52),#1018);
#33=STYLED_ITEM('NAME_0',(#52),#1019);
#34=STYLED_ITEM('NAME_0',(#52),#1020);
#35=STYLED_ITEM('NAME_0',(#52),#1021);
#36=STYLED_ITEM('NAME_0',(#52),#1022);
#37=STYLED_ITEM('NAME_0',(#52),#1023);
#38=MECHANICAL_DESIGN_GEOMETRIC_PRESENTATION_REPRESENTATION('NAME_0',(#10,
#11,#12,#13,#14,#15,#16,#17,#18,#19,#20,#21,#22,#23,#24,#25,#26,#27,#28,
#29,#30,#31,#32,#33,#34,#35,#36,#37),#67);
#39=COLOUR_RGB('',0.882352941176471,0.882352941176471,0.882352941176471);
#40=COLOUR_RGB('',0.215686274509804,0.215686274509804,0.215686274509804);
#41=FILL_AREA_STYLE_COLOUR('NAME_0',#39);
#42=FILL_AREA_STYLE_COLOUR('NAME_0',#40);
#43=FILL_AREA_STYLE('NAME_0',(#41));
#44=FILL_AREA_STYLE('NAME_0',(#42));
#45=SURFACE_STYLE_FILL_AREA(#43);
#46=SURFACE_STYLE_FILL_AREA(#44);
#47=SURFACE_SIDE_STYLE('NAME_0',(#45));
#48=SURFACE_SIDE_STYLE('NAME_0',(#46));
#49=SURFACE_STYLE_USAGE(.POSITIVE.,#47);
#50=SURFACE_STYLE_USAGE(.POSITIVE.,#48);
#51=PRESENTATION_STYLE_ASSIGNMENT((#49));
#52=PRESENTATION_STYLE_ASSIGNMENT((#50));
#53=PRODUCT_DEFINITION_CONTEXT('part definition',#60,'design');
#54=SHAPE_DEFINITION_REPRESENTATION(#55,#1667);
#55=PRODUCT_DEFINITION_SHAPE('PRODUCT_VERSION_ID',
'PRODUCT_VERSION_DESCR',#56);
#56=PRODUCT_DEFINITION('PRODUCT_VERSION_ID','PRODUCT_VERSION_DESCR',#57,
#53);
#57=PRODUCT_DEFINITION_FORMATION_WITH_SPECIFIED_SOURCE(
'PRODUCT_VERSION_ID','PRODUCT_VERSION_DESCR',#62,.MADE.);
#58=PRODUCT_RELATED_PRODUCT_CATEGORY('part','part',(#62));
#59=APPLICATION_PROTOCOL_DEFINITION('Draft International Standard',
'automotive_design',1994,#60);
#60=APPLICATION_CONTEXT('automotive_Design');
#61=PRODUCT_CONTEXT('3D Mechanical Parts',#60,'mechanical');
#62=PRODUCT('','SS-7188S-A-NF','',(#61));
#63=(
LENGTH_UNIT()
NAMED_UNIT(*)
SI_UNIT(.CENTI.,.METRE.)
);
#64=(
NAMED_UNIT(*)
PLANE_ANGLE_UNIT()
SI_UNIT($,.RADIAN.)
);
#65=(
NAMED_UNIT(*)
SI_UNIT($,.STERADIAN.)
SOLID_ANGLE_UNIT()
);
#66=UNCERTAINTY_MEASURE_WITH_UNIT(LENGTH_MEASURE(1.E-006),#63,
'DISTANCE_ACCURACY_VALUE',
'Maximum model space distance between geometric entities at asserted co
nnectivities');
#67=(
GEOMETRIC_REPRESENTATION_CONTEXT(3)
GLOBAL_UNCERTAINTY_ASSIGNED_CONTEXT((#66))
GLOBAL_UNIT_ASSIGNED_CONTEXT((#65,#64,#63))
REPRESENTATION_CONTEXT('ID1','3D')
);
#68=CYLINDRICAL_SURFACE('',#1055,0.145);
#69=CYLINDRICAL_SURFACE('',#1060,0.145);
#70=CYLINDRICAL_SURFACE('',#1062,0.0325);
#71=CYLINDRICAL_SURFACE('',#1065,0.0325);
#72=CYLINDRICAL_SURFACE('',#1068,0.0325);
#73=CYLINDRICAL_SURFACE('',#1071,0.0325);
#74=CYLINDRICAL_SURFACE('',#1074,0.0325);
#75=CYLINDRICAL_SURFACE('',#1077,0.0325);
#76=CYLINDRICAL_SURFACE('',#1080,0.0325);
#77=CYLINDRICAL_SURFACE('',#1083,0.0325);
#78=CONICAL_SURFACE('',#1052,0.12,0.785398163397448);
#79=CONICAL_SURFACE('',#1057,0.12,0.785398163397448);
#80=CIRCLE('',#1042,0.145);
#81=CIRCLE('',#1043,0.145);
#82=CIRCLE('',#1044,0.0325);
#83=CIRCLE('',#1045,0.0325);
#84=CIRCLE('',#1046,0.0325);
#85=CIRCLE('',#1047,0.0325);
#86=CIRCLE('',#1048,0.0325);
#87=CIRCLE('',#1049,0.0325);
#88=CIRCLE('',#1050,0.0325);
#89=CIRCLE('',#1051,0.0325);
#90=CIRCLE('',#1053,0.12);
#91=CIRCLE('',#1054,0.145);
#92=CIRCLE('',#1058,0.12);
#93=CIRCLE('',#1059,0.145);
#94=CIRCLE('',#1063,0.0325);
#95=CIRCLE('',#1066,0.0325);
#96=CIRCLE('',#1069,0.0325);
#97=CIRCLE('',#1072,0.0325);
#98=CIRCLE('',#1075,0.0325);
#99=CIRCLE('',#1078,0.0325);
#100=CIRCLE('',#1081,0.0325);
#101=CIRCLE('',#1084,0.0325);
#102=VERTEX_POINT('',#1335);
#103=VERTEX_POINT('',#1336);
#104=VERTEX_POINT('',#1338);
#105=VERTEX_POINT('',#1340);
#106=VERTEX_POINT('',#1344);
#107=VERTEX_POINT('',#1345);
#108=VERTEX_POINT('',#1347);
#109=VERTEX_POINT('',#1349);
#110=VERTEX_POINT('',#1353);
#111=VERTEX_POINT('',#1354);
#112=VERTEX_POINT('',#1356);
#113=VERTEX_POINT('',#1358);
#114=VERTEX_POINT('',#1362);
#115=VERTEX_POINT('',#1363);
#116=VERTEX_POINT('',#1365);
#117=VERTEX_POINT('',#1367);
#118=VERTEX_POINT('',#1371);
#119=VERTEX_POINT('',#1373);
#120=VERTEX_POINT('',#1377);
#121=VERTEX_POINT('',#1379);
#122=VERTEX_POINT('',#1381);
#123=VERTEX_POINT('',#1383);
#124=VERTEX_POINT('',#1384);
#125=VERTEX_POINT('',#1389);
#126=VERTEX_POINT('',#1393);
#127=VERTEX_POINT('',#1395);
#128=VERTEX_POINT('',#1399);
#129=VERTEX_POINT('',#1401);
#130=VERTEX_POINT('',#1403);
#131=VERTEX_POINT('',#1405);
#132=VERTEX_POINT('',#1406);
#133=VERTEX_POINT('',#1416);
#134=VERTEX_POINT('',#1423);
#135=VERTEX_POINT('',#1425);
#136=VERTEX_POINT('',#1427);
#137=VERTEX_POINT('',#1429);
#138=VERTEX_POINT('',#1431);
#139=VERTEX_POINT('',#1433);
#140=VERTEX_POINT('',#1435);
#141=VERTEX_POINT('',#1437);
#142=VERTEX_POINT('',#1439);
#143=VERTEX_POINT('',#1441);
#144=VERTEX_POINT('',#1446);
#145=VERTEX_POINT('',#1448);
#146=VERTEX_POINT('',#1453);
#147=VERTEX_POINT('',#1455);
#148=VERTEX_POINT('',#1460);
#149=VERTEX_POINT('',#1464);
#150=VERTEX_POINT('',#1468);
#151=VERTEX_POINT('',#1472);
#152=VERTEX_POINT('',#1476);
#153=VERTEX_POINT('',#1480);
#154=VERTEX_POINT('',#1484);
#155=VERTEX_POINT('',#1488);
#156=VERTEX_POINT('',#1492);
#157=VERTEX_POINT('',#1493);
#158=VERTEX_POINT('',#1495);
#159=VERTEX_POINT('',#1497);
#160=VERTEX_POINT('',#1501);
#161=VERTEX_POINT('',#1503);
#162=VERTEX_POINT('',#1507);
#163=VERTEX_POINT('',#1509);
#164=VERTEX_POINT('',#1513);
#165=VERTEX_POINT('',#1515);
#166=VERTEX_POINT('',#1519);
#167=VERTEX_POINT('',#1521);
#168=VERTEX_POINT('',#1525);
#169=VERTEX_POINT('',#1527);
#170=VERTEX_POINT('',#1531);
#171=VERTEX_POINT('',#1533);
#172=VERTEX_POINT('',#1537);
#173=VERTEX_POINT('',#1539);
#174=VERTEX_POINT('',#1543);
#175=VERTEX_POINT('',#1545);
#176=VERTEX_POINT('',#1549);
#177=VERTEX_POINT('',#1551);
#178=VERTEX_POINT('',#1555);
#179=VERTEX_POINT('',#1557);
#180=VERTEX_POINT('',#1561);
#181=VERTEX_POINT('',#1563);
#182=VERTEX_POINT('',#1567);
#183=VERTEX_POINT('',#1569);
#184=VERTEX_POINT('',#1573);
#185=VERTEX_POINT('',#1575);
#186=VERTEX_POINT('',#1579);
#187=VERTEX_POINT('',#1581);
#188=VERTEX_POINT('',#1585);
#189=VERTEX_POINT('',#1587);
#190=VERTEX_POINT('',#1591);
#191=VERTEX_POINT('',#1593);
#192=VERTEX_POINT('',#1597);
#193=VERTEX_POINT('',#1599);
#194=VERTEX_POINT('',#1603);
#195=VERTEX_POINT('',#1605);
#196=VECTOR('',#1111,1.);
#197=VECTOR('',#1112,1.);
#198=VECTOR('',#1113,1.);
#199=VECTOR('',#1114,1.);
#200=VECTOR('',#1116,1.);
#201=VECTOR('',#1117,1.);
#202=VECTOR('',#1118,1.);
#203=VECTOR('',#1119,1.);
#204=VECTOR('',#1121,1.);
#205=VECTOR('',#1122,1.);
#206=VECTOR('',#1123,1.);
#207=VECTOR('',#1124,1.);
#208=VECTOR('',#1126,1.);
#209=VECTOR('',#1127,1.);
#210=VECTOR('',#1128,1.);
#211=VECTOR('',#1129,1.);
#212=VECTOR('',#1131,1.);
#213=VECTOR('',#1132,1.);
#214=VECTOR('',#1133,1.);
#215=VECTOR('',#1135,1.);
#216=VECTOR('',#1136,1.);
#217=VECTOR('',#1137,1.);
#218=VECTOR('',#1138,1.);
#219=VECTOR('',#1139,1.);
#220=VECTOR('',#1140,1.);
#221=VECTOR('',#1142,1.);
#222=VECTOR('',#1143,1.);
#223=VECTOR('',#1145,1.);
#224=VECTOR('',#1146,1.);
#225=VECTOR('',#1147,1.);
#226=VECTOR('',#1149,1.);
#227=VECTOR('',#1150,1.);
#228=VECTOR('',#1151,1.);
#229=VECTOR('',#1152,1.);
#230=VECTOR('',#1153,1.);
#231=VECTOR('',#1154,1.);
#232=VECTOR('',#1156,1.);
#233=VECTOR('',#1157,1.);
#234=VECTOR('',#1160,1.);
#235=VECTOR('',#1161,1.);
#236=VECTOR('',#1162,1.);
#237=VECTOR('',#1164,1.);
#238=VECTOR('',#1187,1.);
#239=VECTOR('',#1188,1.);
#240=VECTOR('',#1248,1.);
#241=VECTOR('',#1249,1.);
#242=VECTOR('',#1250,1.);
#243=VECTOR('',#1251,1.);
#244=VECTOR('',#1253,1.);
#245=VECTOR('',#1254,1.);
#246=VECTOR('',#1255,1.);
#247=VECTOR('',#1257,1.);
#248=VECTOR('',#1258,1.);
#249=VECTOR('',#1259,1.);
#250=VECTOR('',#1261,1.);
#251=VECTOR('',#1262,1.);
#252=VECTOR('',#1263,1.);
#253=VECTOR('',#1265,1.);
#254=VECTOR('',#1266,1.);
#255=VECTOR('',#1267,1.);
#256=VECTOR('',#1269,1.);
#257=VECTOR('',#1270,1.);
#258=VECTOR('',#1271,1.);
#259=VECTOR('',#1273,1.);
#260=VECTOR('',#1274,1.);
#261=VECTOR('',#1275,1.);
#262=VECTOR('',#1277,1.);
#263=VECTOR('',#1278,1.);
#264=VECTOR('',#1279,1.);
#265=VECTOR('',#1281,1.);
#266=VECTOR('',#1282,1.);
#267=VECTOR('',#1283,1.);
#268=VECTOR('',#1285,1.);
#269=VECTOR('',#1286,1.);
#270=VECTOR('',#1287,1.);
#271=VECTOR('',#1289,1.);
#272=VECTOR('',#1290,1.);
#273=VECTOR('',#1291,1.);
#274=VECTOR('',#1293,1.);
#275=VECTOR('',#1294,1.);
#276=VECTOR('',#1295,1.);
#277=VECTOR('',#1297,1.);
#278=VECTOR('',#1298,1.);
#279=VECTOR('',#1299,1.);
#280=VECTOR('',#1301,1.);
#281=VECTOR('',#1302,1.);
#282=VECTOR('',#1303,1.);
#283=VECTOR('',#1305,1.);
#284=VECTOR('',#1306,1.);
#285=VECTOR('',#1307,1.);
#286=VECTOR('',#1309,1.);
#287=VECTOR('',#1310,1.);
#288=VECTOR('',#1311,1.);
#289=VECTOR('',#1313,1.);
#290=VECTOR('',#1314,1.);
#291=VECTOR('',#1315,1.);
#292=VECTOR('',#1317,1.);
#293=VECTOR('',#1318,1.);
#294=VECTOR('',#1319,1.);
#295=VECTOR('',#1321,1.);
#296=VECTOR('',#1322,1.);
#297=VECTOR('',#1323,1.);
#298=VECTOR('',#1325,1.);
#299=VECTOR('',#1326,1.);
#300=VECTOR('',#1329,1.);
#301=VECTOR('',#1331,1.);
#302=LINE('',#1334,#196);
#303=LINE('',#1337,#197);
#304=LINE('',#1339,#198);
#305=LINE('',#1341,#199);
#306=LINE('',#1343,#200);
#307=LINE('',#1346,#201);
#308=LINE('',#1348,#202);
#309=LINE('',#1350,#203);
#310=LINE('',#1352,#204);
#311=LINE('',#1355,#205);
#312=LINE('',#1357,#206);
#313=LINE('',#1359,#207);
#314=LINE('',#1361,#208);
#315=LINE('',#1364,#209);
#316=LINE('',#1366,#210);
#317=LINE('',#1368,#211);
#318=LINE('',#1370,#212);
#319=LINE('',#1372,#213);
#320=LINE('',#1374,#214);
#321=LINE('',#1376,#215);
#322=LINE('',#1378,#216);
#323=LINE('',#1380,#217);
#324=LINE('',#1382,#218);
#325=LINE('',#1385,#219);
#326=LINE('',#1386,#220);
#327=LINE('',#1388,#221);
#328=LINE('',#1390,#222);
#329=LINE('',#1392,#223);
#330=LINE('',#1394,#224);
#331=LINE('',#1396,#225);
#332=LINE('',#1398,#226);
#333=LINE('',#1400,#227);
#334=LINE('',#1402,#228);
#335=LINE('',#1404,#229);
#336=LINE('',#1407,#230);
#337=LINE('',#1408,#231);
#338=LINE('',#1410,#232);
#339=LINE('',#1411,#233);
#340=LINE('',#1414,#234);
#341=LINE('',#1415,#235);
#342=LINE('',#1417,#236);
#343=LINE('',#1419,#237);
#344=LINE('',#1442,#238);
#345=LINE('',#1443,#239);
#346=LINE('',#1491,#240);
#347=LINE('',#1494,#241);
#348=LINE('',#1496,#242);
#349=LINE('',#1498,#243);
#350=LINE('',#1500,#244);
#351=LINE('',#1502,#245);
#352=LINE('',#1504,#246);
#353=LINE('',#1506,#247);
#354=LINE('',#1508,#248);
#355=LINE('',#1510,#249);
#356=LINE('',#1512,#250);
#357=LINE('',#1514,#251);
#358=LINE('',#1516,#252);
#359=LINE('',#1518,#253);
#360=LINE('',#1520,#254);
#361=LINE('',#1522,#255);
#362=LINE('',#1524,#256);
#363=LINE('',#1526,#257);
#364=LINE('',#1528,#258);
#365=LINE('',#1530,#259);
#366=LINE('',#1532,#260);
#367=LINE('',#1534,#261);
#368=LINE('',#1536,#262);
#369=LINE('',#1538,#263);
#370=LINE('',#1540,#264);
#371=LINE('',#1542,#265);
#372=LINE('',#1544,#266);
#373=LINE('',#1546,#267);
#374=LINE('',#1548,#268);
#375=LINE('',#1550,#269);
#376=LINE('',#1552,#270);
#377=LINE('',#1554,#271);
#378=LINE('',#1556,#272);
#379=LINE('',#1558,#273);
#380=LINE('',#1560,#274);
#381=LINE('',#1562,#275);
#382=LINE('',#1564,#276);
#383=LINE('',#1566,#277);
#384=LINE('',#1568,#278);
#385=LINE('',#1570,#279);
#386=LINE('',#1572,#280);
#387=LINE('',#1574,#281);
#388=LINE('',#1576,#282);
#389=LINE('',#1578,#283);
#390=LINE('',#1580,#284);
#391=LINE('',#1582,#285);
#392=LINE('',#1584,#286);
#393=LINE('',#1586,#287);
#394=LINE('',#1588,#288);
#395=LINE('',#1590,#289);
#396=LINE('',#1592,#290);
#397=LINE('',#1594,#291);
#398=LINE('',#1596,#292);
#399=LINE('',#1598,#293);
#400=LINE('',#1600,#294);
#401=LINE('',#1602,#295);
#402=LINE('',#1604,#296);
#403=LINE('',#1606,#297);
#404=LINE('',#1608,#298);
#405=LINE('',#1609,#299);
#406=LINE('',#1612,#300);
#407=LINE('',#1614,#301);
#408=EDGE_CURVE('',#102,#103,#302,.T.);
#409=EDGE_CURVE('',#103,#104,#303,.T.);
#410=EDGE_CURVE('',#104,#105,#304,.T.);
#411=EDGE_CURVE('',#105,#102,#305,.T.);
#412=EDGE_CURVE('',#106,#107,#306,.T.);
#413=EDGE_CURVE('',#107,#108,#307,.T.);
#414=EDGE_CURVE('',#108,#109,#308,.T.);
#415=EDGE_CURVE('',#109,#106,#309,.T.);
#416=EDGE_CURVE('',#110,#111,#310,.T.);
#417=EDGE_CURVE('',#111,#112,#311,.T.);
#418=EDGE_CURVE('',#112,#113,#312,.T.);
#419=EDGE_CURVE('',#113,#110,#313,.T.);
#420=EDGE_CURVE('',#114,#115,#314,.T.);
#421=EDGE_CURVE('',#115,#116,#315,.T.);
#422=EDGE_CURVE('',#116,#117,#316,.T.);
#423=EDGE_CURVE('',#117,#114,#317,.T.);
#424=EDGE_CURVE('',#118,#103,#318,.T.);
#425=EDGE_CURVE('',#119,#118,#319,.T.);
#426=EDGE_CURVE('',#119,#104,#320,.T.);
#427=EDGE_CURVE('',#119,#120,#321,.T.);
#428=EDGE_CURVE('',#120,#121,#322,.T.);
#429=EDGE_CURVE('',#121,#122,#323,.T.);
#430=EDGE_CURVE('',#123,#122,#324,.T.);
#431=EDGE_CURVE('',#123,#124,#321,.T.);
#432=EDGE_CURVE('',#124,#107,#325,.T.);
#433=EDGE_CURVE('',#106,#105,#326,.T.);
#434=EDGE_CURVE('',#125,#124,#327,.T.);
#435=EDGE_CURVE('',#125,#108,#328,.T.);
#436=EDGE_CURVE('',#126,#111,#329,.T.);
#437=EDGE_CURVE('',#127,#126,#330,.T.);
#438=EDGE_CURVE('',#127,#112,#331,.T.);
#439=EDGE_CURVE('',#127,#128,#332,.T.);
#440=EDGE_CURVE('',#128,#129,#333,.T.);
#441=EDGE_CURVE('',#129,#130,#334,.T.);
#442=EDGE_CURVE('',#131,#130,#335,.T.);
#443=EDGE_CURVE('',#131,#132,#332,.T.);
#444=EDGE_CURVE('',#132,#115,#336,.T.);
#445=EDGE_CURVE('',#114,#113,#337,.T.);
#446=EDGE_CURVE('',#102,#109,#338,.T.);
#447=EDGE_CURVE('',#118,#125,#339,.T.);
#448=EDGE_CURVE('',#110,#117,#340,.T.);
#449=EDGE_CURVE('',#133,#116,#341,.T.);
#450=EDGE_CURVE('',#126,#133,#342,.T.);
#451=EDGE_CURVE('',#133,#132,#343,.T.);
#452=EDGE_CURVE('',#134,#134,#80,.T.);
#453=EDGE_CURVE('',#135,#135,#81,.T.);
#454=EDGE_CURVE('',#136,#136,#82,.T.);
#455=EDGE_CURVE('',#137,#137,#83,.T.);
#456=EDGE_CURVE('',#138,#138,#84,.T.);
#457=EDGE_CURVE('',#139,#139,#85,.T.);
#458=EDGE_CURVE('',#140,#140,#86,.T.);
#459=EDGE_CURVE('',#141,#141,#87,.T.);
#460=EDGE_CURVE('',#142,#142,#88,.T.);
#461=EDGE_CURVE('',#143,#143,#89,.T.);
#462=EDGE_CURVE('',#128,#123,#344,.T.);
#463=EDGE_CURVE('',#120,#131,#345,.T.);
#464=EDGE_CURVE('',#144,#144,#90,.T.);
#465=EDGE_CURVE('',#145,#145,#91,.T.);
#466=EDGE_CURVE('',#146,#146,#92,.T.);
#467=EDGE_CURVE('',#147,#147,#93,.T.);
#468=EDGE_CURVE('',#148,#148,#94,.T.);
#469=EDGE_CURVE('',#149,#149,#95,.T.);
#470=EDGE_CURVE('',#150,#150,#96,.T.);
#471=EDGE_CURVE('',#151,#151,#97,.T.);
#472=EDGE_CURVE('',#152,#152,#98,.T.);
#473=EDGE_CURVE('',#153,#153,#99,.T.);
#474=EDGE_CURVE('',#154,#154,#100,.T.);
#475=EDGE_CURVE('',#155,#155,#101,.T.);
#476=EDGE_CURVE('',#156,#157,#346,.T.);
#477=EDGE_CURVE('',#158,#156,#347,.T.);
#478=EDGE_CURVE('',#159,#158,#348,.T.);
#479=EDGE_CURVE('',#159,#157,#349,.T.);
#480=EDGE_CURVE('',#157,#160,#350,.T.);
#481=EDGE_CURVE('',#161,#159,#351,.T.);
#482=EDGE_CURVE('',#161,#160,#352,.T.);
#483=EDGE_CURVE('',#160,#162,#353,.T.);
#484=EDGE_CURVE('',#163,#161,#354,.T.);
#485=EDGE_CURVE('',#163,#162,#355,.T.);
#486=EDGE_CURVE('',#162,#164,#356,.T.);
#487=EDGE_CURVE('',#165,#163,#357,.T.);
#488=EDGE_CURVE('',#165,#164,#358,.T.);
#489=EDGE_CURVE('',#164,#166,#359,.T.);
#490=EDGE_CURVE('',#167,#165,#360,.T.);
#491=EDGE_CURVE('',#167,#166,#361,.T.);
#492=EDGE_CURVE('',#166,#168,#362,.T.);
#493=EDGE_CURVE('',#169,#167,#363,.T.);
#494=EDGE_CURVE('',#169,#168,#364,.T.);
#495=EDGE_CURVE('',#168,#170,#365,.T.);
#496=EDGE_CURVE('',#171,#169,#366,.T.);
#497=EDGE_CURVE('',#171,#170,#367,.T.);
#498=EDGE_CURVE('',#170,#172,#368,.T.);
#499=EDGE_CURVE('',#173,#171,#369,.T.);
#500=EDGE_CURVE('',#173,#172,#370,.T.);
#501=EDGE_CURVE('',#172,#174,#371,.T.);
#502=EDGE_CURVE('',#175,#173,#372,.T.);
#503=EDGE_CURVE('',#175,#174,#373,.T.);
#504=EDGE_CURVE('',#174,#176,#374,.T.);
#505=EDGE_CURVE('',#177,#175,#375,.T.);
#506=EDGE_CURVE('',#177,#176,#376,.T.);
#507=EDGE_CURVE('',#176,#178,#377,.T.);
#508=EDGE_CURVE('',#179,#177,#378,.T.);
#509=EDGE_CURVE('',#179,#178,#379,.T.);
#510=EDGE_CURVE('',#178,#180,#380,.T.);
#511=EDGE_CURVE('',#181,#179,#381,.T.);
#512=EDGE_CURVE('',#181,#180,#382,.T.);
#513=EDGE_CURVE('',#180,#182,#383,.T.);
#514=EDGE_CURVE('',#183,#181,#384,.T.);
#515=EDGE_CURVE('',#183,#182,#385,.T.);
#516=EDGE_CURVE('',#182,#184,#386,.T.);
#517=EDGE_CURVE('',#185,#183,#387,.T.);
#518=EDGE_CURVE('',#185,#184,#388,.T.);
#519=EDGE_CURVE('',#184,#186,#389,.T.);
#520=EDGE_CURVE('',#187,#185,#390,.T.);
#521=EDGE_CURVE('',#187,#186,#391,.T.);
#522=EDGE_CURVE('',#186,#188,#392,.T.);
#523=EDGE_CURVE('',#189,#187,#393,.T.);
#524=EDGE_CURVE('',#189,#188,#394,.T.);
#525=EDGE_CURVE('',#188,#190,#395,.T.);
#526=EDGE_CURVE('',#191,#189,#396,.T.);
#527=EDGE_CURVE('',#191,#190,#397,.T.);
#528=EDGE_CURVE('',#190,#192,#398,.T.);
#529=EDGE_CURVE('',#193,#191,#399,.T.);
#530=EDGE_CURVE('',#193,#192,#400,.T.);
#531=EDGE_CURVE('',#192,#194,#401,.T.);
#532=EDGE_CURVE('',#195,#193,#402,.T.);
#533=EDGE_CURVE('',#195,#194,#403,.T.);
#534=EDGE_CURVE('',#194,#156,#404,.T.);
#535=EDGE_CURVE('',#158,#195,#405,.T.);
#536=EDGE_CURVE('',#122,#129,#406,.T.);
#537=EDGE_CURVE('',#130,#121,#407,.T.);
#538=ORIENTED_EDGE('',*,*,#408,.T.);
#539=ORIENTED_EDGE('',*,*,#409,.T.);
#540=ORIENTED_EDGE('',*,*,#410,.T.);
#541=ORIENTED_EDGE('',*,*,#411,.T.);
#542=ORIENTED_EDGE('',*,*,#412,.T.);
#543=ORIENTED_EDGE('',*,*,#413,.T.);
#544=ORIENTED_EDGE('',*,*,#414,.T.);
#545=ORIENTED_EDGE('',*,*,#415,.T.);
#546=ORIENTED_EDGE('',*,*,#416,.T.);
#547=ORIENTED_EDGE('',*,*,#417,.T.);
#548=ORIENTED_EDGE('',*,*,#418,.T.);
#549=ORIENTED_EDGE('',*,*,#419,.T.);
#550=ORIENTED_EDGE('',*,*,#420,.T.);
#551=ORIENTED_EDGE('',*,*,#421,.T.);
#552=ORIENTED_EDGE('',*,*,#422,.T.);
#553=ORIENTED_EDGE('',*,*,#423,.T.);
#554=ORIENTED_EDGE('',*,*,#409,.F.);
#555=ORIENTED_EDGE('',*,*,#424,.F.);
#556=ORIENTED_EDGE('',*,*,#425,.F.);
#557=ORIENTED_EDGE('',*,*,#426,.T.);
#558=ORIENTED_EDGE('',*,*,#410,.F.);
#559=ORIENTED_EDGE('',*,*,#426,.F.);
#560=ORIENTED_EDGE('',*,*,#427,.T.);
#561=ORIENTED_EDGE('',*,*,#428,.T.);
#562=ORIENTED_EDGE('',*,*,#429,.T.);
#563=ORIENTED_EDGE('',*,*,#430,.F.);
#564=ORIENTED_EDGE('',*,*,#431,.T.);
#565=ORIENTED_EDGE('',*,*,#432,.T.);
#566=ORIENTED_EDGE('',*,*,#412,.F.);
#567=ORIENTED_EDGE('',*,*,#433,.T.);
#568=ORIENTED_EDGE('',*,*,#413,.F.);
#569=ORIENTED_EDGE('',*,*,#432,.F.);
#570=ORIENTED_EDGE('',*,*,#434,.F.);
#571=ORIENTED_EDGE('',*,*,#435,.T.);
#572=ORIENTED_EDGE('',*,*,#417,.F.);
#573=ORIENTED_EDGE('',*,*,#436,.F.);
#574=ORIENTED_EDGE('',*,*,#437,.F.);
#575=ORIENTED_EDGE('',*,*,#438,.T.);
#576=ORIENTED_EDGE('',*,*,#418,.F.);
#577=ORIENTED_EDGE('',*,*,#438,.F.);
#578=ORIENTED_EDGE('',*,*,#439,.T.);
#579=ORIENTED_EDGE('',*,*,#440,.T.);
#580=ORIENTED_EDGE('',*,*,#441,.T.);
#581=ORIENTED_EDGE('',*,*,#442,.F.);
#582=ORIENTED_EDGE('',*,*,#443,.T.);
#583=ORIENTED_EDGE('',*,*,#444,.T.);
#584=ORIENTED_EDGE('',*,*,#420,.F.);
#585=ORIENTED_EDGE('',*,*,#445,.T.);
#586=ORIENTED_EDGE('',*,*,#408,.F.);
#587=ORIENTED_EDGE('',*,*,#446,.T.);
#588=ORIENTED_EDGE('',*,*,#414,.F.);
#589=ORIENTED_EDGE('',*,*,#435,.F.);
#590=ORIENTED_EDGE('',*,*,#447,.F.);
#591=ORIENTED_EDGE('',*,*,#424,.T.);
#592=ORIENTED_EDGE('',*,*,#411,.F.);
#593=ORIENTED_EDGE('',*,*,#433,.F.);
#594=ORIENTED_EDGE('',*,*,#415,.F.);
#595=ORIENTED_EDGE('',*,*,#446,.F.);
#596=ORIENTED_EDGE('',*,*,#416,.F.);
#597=ORIENTED_EDGE('',*,*,#448,.T.);
#598=ORIENTED_EDGE('',*,*,#422,.F.);
#599=ORIENTED_EDGE('',*,*,#449,.F.);
#600=ORIENTED_EDGE('',*,*,#450,.F.);
#601=ORIENTED_EDGE('',*,*,#436,.T.);
#602=ORIENTED_EDGE('',*,*,#421,.F.);
#603=ORIENTED_EDGE('',*,*,#444,.F.);
#604=ORIENTED_EDGE('',*,*,#451,.F.);
#605=ORIENTED_EDGE('',*,*,#449,.T.);
#606=ORIENTED_EDGE('',*,*,#419,.F.);
#607=ORIENTED_EDGE('',*,*,#445,.F.);
#608=ORIENTED_EDGE('',*,*,#423,.F.);
#609=ORIENTED_EDGE('',*,*,#448,.F.);
#610=ORIENTED_EDGE('',*,*,#452,.T.);
#611=ORIENTED_EDGE('',*,*,#453,.T.);
#612=ORIENTED_EDGE('',*,*,#454,.T.);
#613=ORIENTED_EDGE('',*,*,#455,.T.);
#614=ORIENTED_EDGE('',*,*,#456,.T.);
#615=ORIENTED_EDGE('',*,*,#457,.T.);
#616=ORIENTED_EDGE('',*,*,#458,.T.);
#617=ORIENTED_EDGE('',*,*,#459,.T.);
#618=ORIENTED_EDGE('',*,*,#460,.T.);
#619=ORIENTED_EDGE('',*,*,#461,.T.);
#620=ORIENTED_EDGE('',*,*,#425,.T.);
#621=ORIENTED_EDGE('',*,*,#447,.T.);
#622=ORIENTED_EDGE('',*,*,#434,.T.);
#623=ORIENTED_EDGE('',*,*,#431,.F.);
#624=ORIENTED_EDGE('',*,*,#462,.F.);
#625=ORIENTED_EDGE('',*,*,#439,.F.);
#626=ORIENTED_EDGE('',*,*,#437,.T.);
#627=ORIENTED_EDGE('',*,*,#450,.T.);
#628=ORIENTED_EDGE('',*,*,#451,.T.);
#629=ORIENTED_EDGE('',*,*,#443,.F.);
#630=ORIENTED_EDGE('',*,*,#463,.F.);
#631=ORIENTED_EDGE('',*,*,#427,.F.);
#632=ORIENTED_EDGE('',*,*,#464,.T.);
#633=ORIENTED_EDGE('',*,*,#465,.T.);
#634=ORIENTED_EDGE('',*,*,#452,.F.);
#635=ORIENTED_EDGE('',*,*,#465,.F.);
#636=ORIENTED_EDGE('',*,*,#464,.F.);
#637=ORIENTED_EDGE('',*,*,#466,.T.);
#638=ORIENTED_EDGE('',*,*,#467,.T.);
#639=ORIENTED_EDGE('',*,*,#453,.F.);
#640=ORIENTED_EDGE('',*,*,#467,.F.);
#641=ORIENTED_EDGE('',*,*,#466,.F.);
#642=ORIENTED_EDGE('',*,*,#468,.T.);
#643=ORIENTED_EDGE('',*,*,#461,.F.);
#644=ORIENTED_EDGE('',*,*,#468,.F.);
#645=ORIENTED_EDGE('',*,*,#469,.T.);
#646=ORIENTED_EDGE('',*,*,#460,.F.);
#647=ORIENTED_EDGE('',*,*,#469,.F.);
#648=ORIENTED_EDGE('',*,*,#470,.T.);
#649=ORIENTED_EDGE('',*,*,#459,.F.);
#650=ORIENTED_EDGE('',*,*,#470,.F.);
#651=ORIENTED_EDGE('',*,*,#471,.T.);
#652=ORIENTED_EDGE('',*,*,#458,.F.);
#653=ORIENTED_EDGE('',*,*,#471,.F.);
#654=ORIENTED_EDGE('',*,*,#472,.T.);
#655=ORIENTED_EDGE('',*,*,#457,.F.);
#656=ORIENTED_EDGE('',*,*,#472,.F.);
#657=ORIENTED_EDGE('',*,*,#473,.T.);
#658=ORIENTED_EDGE('',*,*,#456,.F.);
#659=ORIENTED_EDGE('',*,*,#473,.F.);
#660=ORIENTED_EDGE('',*,*,#474,.T.);
#661=ORIENTED_EDGE('',*,*,#455,.F.);
#662=ORIENTED_EDGE('',*,*,#474,.F.);
#663=ORIENTED_EDGE('',*,*,#475,.T.);
#664=ORIENTED_EDGE('',*,*,#454,.F.);
#665=ORIENTED_EDGE('',*,*,#475,.F.);
#666=ORIENTED_EDGE('',*,*,#476,.F.);
#667=ORIENTED_EDGE('',*,*,#477,.F.);
#668=ORIENTED_EDGE('',*,*,#478,.F.);
#669=ORIENTED_EDGE('',*,*,#479,.T.);
#670=ORIENTED_EDGE('',*,*,#480,.F.);
#671=ORIENTED_EDGE('',*,*,#479,.F.);
#672=ORIENTED_EDGE('',*,*,#481,.F.);
#673=ORIENTED_EDGE('',*,*,#482,.T.);
#674=ORIENTED_EDGE('',*,*,#483,.F.);
#675=ORIENTED_EDGE('',*,*,#482,.F.);
#676=ORIENTED_EDGE('',*,*,#484,.F.);
#677=ORIENTED_EDGE('',*,*,#485,.T.);
#678=ORIENTED_EDGE('',*,*,#486,.F.);
#679=ORIENTED_EDGE('',*,*,#485,.F.);
#680=ORIENTED_EDGE('',*,*,#487,.F.);
#681=ORIENTED_EDGE('',*,*,#488,.T.);
#682=ORIENTED_EDGE('',*,*,#489,.F.);
#683=ORIENTED_EDGE('',*,*,#488,.F.);
#684=ORIENTED_EDGE('',*,*,#490,.F.);
#685=ORIENTED_EDGE('',*,*,#491,.T.);
#686=ORIENTED_EDGE('',*,*,#492,.F.);
#687=ORIENTED_EDGE('',*,*,#491,.F.);
#688=ORIENTED_EDGE('',*,*,#493,.F.);
#689=ORIENTED_EDGE('',*,*,#494,.T.);
#690=ORIENTED_EDGE('',*,*,#495,.F.);
#691=ORIENTED_EDGE('',*,*,#494,.F.);
#692=ORIENTED_EDGE('',*,*,#496,.F.);
#693=ORIENTED_EDGE('',*,*,#497,.T.);
#694=ORIENTED_EDGE('',*,*,#498,.F.);
#695=ORIENTED_EDGE('',*,*,#497,.F.);
#696=ORIENTED_EDGE('',*,*,#499,.F.);
#697=ORIENTED_EDGE('',*,*,#500,.T.);
#698=ORIENTED_EDGE('',*,*,#501,.F.);
#699=ORIENTED_EDGE('',*,*,#500,.F.);
#700=ORIENTED_EDGE('',*,*,#502,.F.);
#701=ORIENTED_EDGE('',*,*,#503,.T.);
#702=ORIENTED_EDGE('',*,*,#504,.F.);
#703=ORIENTED_EDGE('',*,*,#503,.F.);
#704=ORIENTED_EDGE('',*,*,#505,.F.);
#705=ORIENTED_EDGE('',*,*,#506,.T.);
#706=ORIENTED_EDGE('',*,*,#507,.F.);
#707=ORIENTED_EDGE('',*,*,#506,.F.);
#708=ORIENTED_EDGE('',*,*,#508,.F.);
#709=ORIENTED_EDGE('',*,*,#509,.T.);
#710=ORIENTED_EDGE('',*,*,#510,.F.);
#711=ORIENTED_EDGE('',*,*,#509,.F.);
#712=ORIENTED_EDGE('',*,*,#511,.F.);
#713=ORIENTED_EDGE('',*,*,#512,.T.);
#714=ORIENTED_EDGE('',*,*,#513,.F.);
#715=ORIENTED_EDGE('',*,*,#512,.F.);
#716=ORIENTED_EDGE('',*,*,#514,.F.);
#717=ORIENTED_EDGE('',*,*,#515,.T.);
#718=ORIENTED_EDGE('',*,*,#516,.F.);
#719=ORIENTED_EDGE('',*,*,#515,.F.);
#720=ORIENTED_EDGE('',*,*,#517,.F.);
#721=ORIENTED_EDGE('',*,*,#518,.T.);
#722=ORIENTED_EDGE('',*,*,#519,.F.);
#723=ORIENTED_EDGE('',*,*,#518,.F.);
#724=ORIENTED_EDGE('',*,*,#520,.F.);
#725=ORIENTED_EDGE('',*,*,#521,.T.);
#726=ORIENTED_EDGE('',*,*,#522,.F.);
#727=ORIENTED_EDGE('',*,*,#521,.F.);
#728=ORIENTED_EDGE('',*,*,#523,.F.);
#729=ORIENTED_EDGE('',*,*,#524,.T.);
#730=ORIENTED_EDGE('',*,*,#525,.F.);
#731=ORIENTED_EDGE('',*,*,#524,.F.);
#732=ORIENTED_EDGE('',*,*,#526,.F.);
#733=ORIENTED_EDGE('',*,*,#527,.T.);
#734=ORIENTED_EDGE('',*,*,#528,.F.);
#735=ORIENTED_EDGE('',*,*,#527,.F.);
#736=ORIENTED_EDGE('',*,*,#529,.F.);
#737=ORIENTED_EDGE('',*,*,#530,.T.);
#738=ORIENTED_EDGE('',*,*,#531,.F.);
#739=ORIENTED_EDGE('',*,*,#530,.F.);
#740=ORIENTED_EDGE('',*,*,#532,.F.);
#741=ORIENTED_EDGE('',*,*,#533,.T.);
#742=ORIENTED_EDGE('',*,*,#534,.F.);
#743=ORIENTED_EDGE('',*,*,#533,.F.);
#744=ORIENTED_EDGE('',*,*,#535,.F.);
#745=ORIENTED_EDGE('',*,*,#477,.T.);
#746=ORIENTED_EDGE('',*,*,#476,.T.);
#747=ORIENTED_EDGE('',*,*,#480,.T.);
#748=ORIENTED_EDGE('',*,*,#483,.T.);
#749=ORIENTED_EDGE('',*,*,#486,.T.);
#750=ORIENTED_EDGE('',*,*,#489,.T.);
#751=ORIENTED_EDGE('',*,*,#492,.T.);
#752=ORIENTED_EDGE('',*,*,#495,.T.);
#753=ORIENTED_EDGE('',*,*,#498,.T.);
#754=ORIENTED_EDGE('',*,*,#501,.T.);
#755=ORIENTED_EDGE('',*,*,#504,.T.);
#756=ORIENTED_EDGE('',*,*,#507,.T.);
#757=ORIENTED_EDGE('',*,*,#510,.T.);
#758=ORIENTED_EDGE('',*,*,#513,.T.);
#759=ORIENTED_EDGE('',*,*,#516,.T.);
#760=ORIENTED_EDGE('',*,*,#519,.T.);
#761=ORIENTED_EDGE('',*,*,#522,.T.);
#762=ORIENTED_EDGE('',*,*,#525,.T.);
#763=ORIENTED_EDGE('',*,*,#528,.T.);
#764=ORIENTED_EDGE('',*,*,#531,.T.);
#765=ORIENTED_EDGE('',*,*,#534,.T.);
#766=ORIENTED_EDGE('',*,*,#536,.T.);
#767=ORIENTED_EDGE('',*,*,#440,.F.);
#768=ORIENTED_EDGE('',*,*,#462,.T.);
#769=ORIENTED_EDGE('',*,*,#430,.T.);
#770=ORIENTED_EDGE('',*,*,#478,.T.);
#771=ORIENTED_EDGE('',*,*,#535,.T.);
#772=ORIENTED_EDGE('',*,*,#532,.T.);
#773=ORIENTED_EDGE('',*,*,#529,.T.);
#774=ORIENTED_EDGE('',*,*,#526,.T.);
#775=ORIENTED_EDGE('',*,*,#523,.T.);
#776=ORIENTED_EDGE('',*,*,#520,.T.);
#777=ORIENTED_EDGE('',*,*,#517,.T.);
#778=ORIENTED_EDGE('',*,*,#514,.T.);
#779=ORIENTED_EDGE('',*,*,#511,.T.);
#780=ORIENTED_EDGE('',*,*,#508,.T.);
#781=ORIENTED_EDGE('',*,*,#505,.T.);
#782=ORIENTED_EDGE('',*,*,#502,.T.);
#783=ORIENTED_EDGE('',*,*,#499,.T.);
#784=ORIENTED_EDGE('',*,*,#496,.T.);
#785=ORIENTED_EDGE('',*,*,#493,.T.);
#786=ORIENTED_EDGE('',*,*,#490,.T.);
#787=ORIENTED_EDGE('',*,*,#487,.T.);
#788=ORIENTED_EDGE('',*,*,#484,.T.);
#789=ORIENTED_EDGE('',*,*,#481,.T.);
#790=ORIENTED_EDGE('',*,*,#537,.T.);
#791=ORIENTED_EDGE('',*,*,#428,.F.);
#792=ORIENTED_EDGE('',*,*,#463,.T.);
#793=ORIENTED_EDGE('',*,*,#442,.T.);
#794=ORIENTED_EDGE('',*,*,#536,.F.);
#795=ORIENTED_EDGE('',*,*,#429,.F.);
#796=ORIENTED_EDGE('',*,*,#537,.F.);
#797=ORIENTED_EDGE('',*,*,#441,.F.);
#798=EDGE_LOOP('',(#538,#539,#540,#541));
#799=EDGE_LOOP('',(#542,#543,#544,#545));
#800=EDGE_LOOP('',(#546,#547,#548,#549));
#801=EDGE_LOOP('',(#550,#551,#552,#553));
#802=EDGE_LOOP('',(#554,#555,#556,#557));
#803=EDGE_LOOP('',(#558,#559,#560,#561,#562,#563,#564,#565,#566,#567));
#804=EDGE_LOOP('',(#568,#569,#570,#571));
#805=EDGE_LOOP('',(#572,#573,#574,#575));
#806=EDGE_LOOP('',(#576,#577,#578,#579,#580,#581,#582,#583,#584,#585));
#807=EDGE_LOOP('',(#586,#587,#588,#589,#590,#591));
#808=EDGE_LOOP('',(#592,#593,#594,#595));
#809=EDGE_LOOP('',(#596,#597,#598,#599,#600,#601));
#810=EDGE_LOOP('',(#602,#603,#604,#605));
#811=EDGE_LOOP('',(#606,#607,#608,#609));
#812=EDGE_LOOP('',(#610));
#813=EDGE_LOOP('',(#611));
#814=EDGE_LOOP('',(#612));
#815=EDGE_LOOP('',(#613));
#816=EDGE_LOOP('',(#614));
#817=EDGE_LOOP('',(#615));
#818=EDGE_LOOP('',(#616));
#819=EDGE_LOOP('',(#617));
#820=EDGE_LOOP('',(#618));
#821=EDGE_LOOP('',(#619));
#822=EDGE_LOOP('',(#620,#621,#622,#623,#624,#625,#626,#627,#628,#629,#630,
#631));
#823=EDGE_LOOP('',(#632));
#824=EDGE_LOOP('',(#633));
#825=EDGE_LOOP('',(#634));
#826=EDGE_LOOP('',(#635));
#827=EDGE_LOOP('',(#636));
#828=EDGE_LOOP('',(#637));
#829=EDGE_LOOP('',(#638));
#830=EDGE_LOOP('',(#639));
#831=EDGE_LOOP('',(#640));
#832=EDGE_LOOP('',(#641));
#833=EDGE_LOOP('',(#642));
#834=EDGE_LOOP('',(#643));
#835=EDGE_LOOP('',(#644));
#836=EDGE_LOOP('',(#645));
#837=EDGE_LOOP('',(#646));
#838=EDGE_LOOP('',(#647));
#839=EDGE_LOOP('',(#648));
#840=EDGE_LOOP('',(#649));
#841=EDGE_LOOP('',(#650));
#842=EDGE_LOOP('',(#651));
#843=EDGE_LOOP('',(#652));
#844=EDGE_LOOP('',(#653));
#845=EDGE_LOOP('',(#654));
#846=EDGE_LOOP('',(#655));
#847=EDGE_LOOP('',(#656));
#848=EDGE_LOOP('',(#657));
#849=EDGE_LOOP('',(#658));
#850=EDGE_LOOP('',(#659));
#851=EDGE_LOOP('',(#660));
#852=EDGE_LOOP('',(#661));
#853=EDGE_LOOP('',(#662));
#854=EDGE_LOOP('',(#663));
#855=EDGE_LOOP('',(#664));
#856=EDGE_LOOP('',(#665));
#857=EDGE_LOOP('',(#666,#667,#668,#669));
#858=EDGE_LOOP('',(#670,#671,#672,#673));
#859=EDGE_LOOP('',(#674,#675,#676,#677));
#860=EDGE_LOOP('',(#678,#679,#680,#681));
#861=EDGE_LOOP('',(#682,#683,#684,#685));
#862=EDGE_LOOP('',(#686,#687,#688,#689));
#863=EDGE_LOOP('',(#690,#691,#692,#693));
#864=EDGE_LOOP('',(#694,#695,#696,#697));
#865=EDGE_LOOP('',(#698,#699,#700,#701));
#866=EDGE_LOOP('',(#702,#703,#704,#705));
#867=EDGE_LOOP('',(#706,#707,#708,#709));
#868=EDGE_LOOP('',(#710,#711,#712,#713));
#869=EDGE_LOOP('',(#714,#715,#716,#717));
#870=EDGE_LOOP('',(#718,#719,#720,#721));
#871=EDGE_LOOP('',(#722,#723,#724,#725));
#872=EDGE_LOOP('',(#726,#727,#728,#729));
#873=EDGE_LOOP('',(#730,#731,#732,#733));
#874=EDGE_LOOP('',(#734,#735,#736,#737));
#875=EDGE_LOOP('',(#738,#739,#740,#741));
#876=EDGE_LOOP('',(#742,#743,#744,#745));
#877=EDGE_LOOP('',(#746,#747,#748,#749,#750,#751,#752,#753,#754,#755,#756,
#757,#758,#759,#760,#761,#762,#763,#764,#765));
#878=EDGE_LOOP('',(#766,#767,#768,#769));
#879=EDGE_LOOP('',(#770,#771,#772,#773,#774,#775,#776,#777,#778,#779,#780,
#781,#782,#783,#784,#785,#786,#787,#788,#789));
#880=EDGE_LOOP('',(#790,#791,#792,#793));
#881=EDGE_LOOP('',(#794,#795,#796,#797));
#882=FACE_BOUND('',#798,.T.);
#883=FACE_BOUND('',#799,.T.);
#884=FACE_BOUND('',#800,.T.);
#885=FACE_BOUND('',#801,.T.);
#886=FACE_BOUND('',#802,.T.);
#887=FACE_BOUND('',#803,.T.);
#888=FACE_BOUND('',#804,.T.);
#889=FACE_BOUND('',#805,.T.);
#890=FACE_BOUND('',#806,.T.);
#891=FACE_BOUND('',#807,.T.);
#892=FACE_BOUND('',#808,.T.);
#893=FACE_BOUND('',#809,.T.);
#894=FACE_BOUND('',#810,.T.);
#895=FACE_BOUND('',#811,.T.);
#896=FACE_BOUND('',#812,.T.);
#897=FACE_BOUND('',#813,.T.);
#898=FACE_BOUND('',#814,.T.);
#899=FACE_BOUND('',#815,.T.);
#900=FACE_BOUND('',#816,.T.);
#901=FACE_BOUND('',#817,.T.);
#902=FACE_BOUND('',#818,.T.);
#903=FACE_BOUND('',#819,.T.);
#904=FACE_BOUND('',#820,.T.);
#905=FACE_BOUND('',#821,.T.);
#906=FACE_BOUND('',#822,.T.);
#907=FACE_BOUND('',#823,.T.);
#908=FACE_BOUND('',#824,.T.);
#909=FACE_BOUND('',#825,.T.);
#910=FACE_BOUND('',#826,.T.);
#911=FACE_BOUND('',#827,.T.);
#912=FACE_BOUND('',#828,.T.);
#913=FACE_BOUND('',#829,.T.);
#914=FACE_BOUND('',#830,.T.);
#915=FACE_BOUND('',#831,.T.);
#916=FACE_BOUND('',#832,.T.);
#917=FACE_BOUND('',#833,.T.);
#918=FACE_BOUND('',#834,.T.);
#919=FACE_BOUND('',#835,.T.);
#920=FACE_BOUND('',#836,.T.);
#921=FACE_BOUND('',#837,.T.);
#922=FACE_BOUND('',#838,.T.);
#923=FACE_BOUND('',#839,.T.);
#924=FACE_BOUND('',#840,.T.);
#925=FACE_BOUND('',#841,.T.);
#926=FACE_BOUND('',#842,.T.);
#927=FACE_BOUND('',#843,.T.);
#928=FACE_BOUND('',#844,.T.);
#929=FACE_BOUND('',#845,.T.);
#930=FACE_BOUND('',#846,.T.);
#931=FACE_BOUND('',#847,.T.);
#932=FACE_BOUND('',#848,.T.);
#933=FACE_BOUND('',#849,.T.);
#934=FACE_BOUND('',#850,.T.);
#935=FACE_BOUND('',#851,.T.);
#936=FACE_BOUND('',#852,.T.);
#937=FACE_BOUND('',#853,.T.);
#938=FACE_BOUND('',#854,.T.);
#939=FACE_BOUND('',#855,.T.);
#940=FACE_BOUND('',#856,.T.);
#941=FACE_BOUND('',#857,.T.);
#942=FACE_BOUND('',#858,.T.);
#943=FACE_BOUND('',#859,.T.);
#944=FACE_BOUND('',#860,.T.);
#945=FACE_BOUND('',#861,.T.);
#946=FACE_BOUND('',#862,.T.);
#947=FACE_BOUND('',#863,.T.);
#948=FACE_BOUND('',#864,.T.);
#949=FACE_BOUND('',#865,.T.);
#950=FACE_BOUND('',#866,.T.);
#951=FACE_BOUND('',#867,.T.);
#952=FACE_BOUND('',#868,.T.);
#953=FACE_BOUND('',#869,.T.);
#954=FACE_BOUND('',#870,.T.);
#955=FACE_BOUND('',#871,.T.);
#956=FACE_BOUND('',#872,.T.);
#957=FACE_BOUND('',#873,.T.);
#958=FACE_BOUND('',#874,.T.);
#959=FACE_BOUND('',#875,.T.);
#960=FACE_BOUND('',#876,.T.);
#961=FACE_BOUND('',#877,.T.);
#962=FACE_BOUND('',#878,.T.);
#963=FACE_BOUND('',#879,.T.);
#964=FACE_BOUND('',#880,.T.);
#965=FACE_BOUND('',#881,.T.);
#966=ADVANCED_FACE('',(#882),#1616,.T.);
#967=ADVANCED_FACE('',(#883),#1617,.T.);
#968=ADVANCED_FACE('',(#884),#1618,.T.);
#969=ADVANCED_FACE('',(#885),#1619,.T.);
#970=ADVANCED_FACE('',(#886),#1620,.T.);
#971=ADVANCED_FACE('',(#887),#1621,.T.);
#972=ADVANCED_FACE('',(#888),#1622,.T.);
#973=ADVANCED_FACE('',(#889),#1623,.T.);
#974=ADVANCED_FACE('',(#890),#1624,.T.);
#975=ADVANCED_FACE('',(#891),#1625,.T.);
#976=ADVANCED_FACE('',(#892),#1626,.F.);
#977=ADVANCED_FACE('',(#893),#1627,.T.);
#978=ADVANCED_FACE('',(#894),#1628,.T.);
#979=ADVANCED_FACE('',(#895),#1629,.F.);
#980=ADVANCED_FACE('',(#896,#897,#898,#899,#900,#901,#902,#903,#904,#905,
#906),#1630,.F.);
#981=ADVANCED_FACE('',(#907,#908),#78,.T.);
#982=ADVANCED_FACE('',(#909,#910),#68,.T.);
#983=ADVANCED_FACE('',(#911),#1631,.T.);
#984=ADVANCED_FACE('',(#912,#913),#79,.T.);
#985=ADVANCED_FACE('',(#914,#915),#69,.T.);
#986=ADVANCED_FACE('',(#916),#1632,.T.);
#987=ADVANCED_FACE('',(#917,#918),#70,.T.);
#988=ADVANCED_FACE('',(#919),#1633,.T.);
#989=ADVANCED_FACE('',(#920,#921),#71,.T.);
#990=ADVANCED_FACE('',(#922),#1634,.T.);
#991=ADVANCED_FACE('',(#923,#924),#72,.T.);
#992=ADVANCED_FACE('',(#925),#1635,.T.);
#993=ADVANCED_FACE('',(#926,#927),#73,.T.);
#994=ADVANCED_FACE('',(#928),#1636,.T.);
#995=ADVANCED_FACE('',(#929,#930),#74,.T.);
#996=ADVANCED_FACE('',(#931),#1637,.T.);
#997=ADVANCED_FACE('',(#932,#933),#75,.T.);
#998=ADVANCED_FACE('',(#934),#1638,.T.);
#999=ADVANCED_FACE('',(#935,#936),#76,.T.);
#1000=ADVANCED_FACE('',(#937),#1639,.T.);
#1001=ADVANCED_FACE('',(#938,#939),#77,.T.);
#1002=ADVANCED_FACE('',(#940),#1640,.T.);
#1003=ADVANCED_FACE('',(#941),#1641,.F.);
#1004=ADVANCED_FACE('',(#942),#1642,.F.);
#1005=ADVANCED_FACE('',(#943),#1643,.F.);
#1006=ADVANCED_FACE('',(#944),#1644,.F.);
#1007=ADVANCED_FACE('',(#945),#1645,.F.);
#1008=ADVANCED_FACE('',(#946),#1646,.F.);
#1009=ADVANCED_FACE('',(#947),#1647,.F.);
#1010=ADVANCED_FACE('',(#948),#1648,.F.);
#1011=ADVANCED_FACE('',(#949),#1649,.F.);
#1012=ADVANCED_FACE('',(#950),#1650,.F.);
#1013=ADVANCED_FACE('',(#951),#1651,.F.);
#1014=ADVANCED_FACE('',(#952),#1652,.F.);
#1015=ADVANCED_FACE('',(#953),#1653,.F.);
#1016=ADVANCED_FACE('',(#954),#1654,.F.);
#1017=ADVANCED_FACE('',(#955),#1655,.F.);
#1018=ADVANCED_FACE('',(#956),#1656,.F.);
#1019=ADVANCED_FACE('',(#957),#1657,.F.);
#1020=ADVANCED_FACE('',(#958),#1658,.F.);
#1021=ADVANCED_FACE('',(#959),#1659,.F.);
#1022=ADVANCED_FACE('',(#960),#1660,.F.);
#1023=ADVANCED_FACE('',(#961),#1661,.F.);
#1024=ADVANCED_FACE('',(#962),#1662,.T.);
#1025=ADVANCED_FACE('',(#963,#964),#1663,.T.);
#1026=ADVANCED_FACE('',(#965),#1664,.T.);
#1027=AXIS2_PLACEMENT_3D('',#1333,#1110,$);
#1028=AXIS2_PLACEMENT_3D('',#1342,#1115,$);
#1029=AXIS2_PLACEMENT_3D('',#1351,#1120,$);
#1030=AXIS2_PLACEMENT_3D('',#1360,#1125,$);
#1031=AXIS2_PLACEMENT_3D('',#1369,#1130,$);
#1032=AXIS2_PLACEMENT_3D('',#1375,#1134,$);
#1033=AXIS2_PLACEMENT_3D('',#1387,#1141,$);
#1034=AXIS2_PLACEMENT_3D('',#1391,#1144,$);
#1035=AXIS2_PLACEMENT_3D('',#1397,#1148,$);
#1036=AXIS2_PLACEMENT_3D('',#1409,#1155,$);
#1037=AXIS2_PLACEMENT_3D('',#1412,#1158,$);
#1038=AXIS2_PLACEMENT_3D('',#1413,#1159,$);
#1039=AXIS2_PLACEMENT_3D('',#1418,#1163,$);
#1040=AXIS2_PLACEMENT_3D('',#1420,#1165,$);
#1041=AXIS2_PLACEMENT_3D('',#1421,#1166,$);
#1042=AXIS2_PLACEMENT_3D('',#1422,#1167,#1168);
#1043=AXIS2_PLACEMENT_3D('',#1424,#1169,#1170);
#1044=AXIS2_PLACEMENT_3D('',#1426,#1171,#1172);
#1045=AXIS2_PLACEMENT_3D('',#1428,#1173,#1174);
#1046=AXIS2_PLACEMENT_3D('',#1430,#1175,#1176);
#1047=AXIS2_PLACEMENT_3D('',#1432,#1177,#1178);
#1048=AXIS2_PLACEMENT_3D('',#1434,#1179,#1180);
#1049=AXIS2_PLACEMENT_3D('',#1436,#1181,#1182);
#1050=AXIS2_PLACEMENT_3D('',#1438,#1183,#1184);
#1051=AXIS2_PLACEMENT_3D('',#1440,#1185,#1186);
#1052=AXIS2_PLACEMENT_3D('',#1444,#1189,#1190);
#1053=AXIS2_PLACEMENT_3D('',#1445,#1191,#1192);
#1054=AXIS2_PLACEMENT_3D('',#1447,#1193,#1194);
#1055=AXIS2_PLACEMENT_3D('',#1449,#1195,#1196);
#1056=AXIS2_PLACEMENT_3D('',#1450,#1197,$);
#1057=AXIS2_PLACEMENT_3D('',#1451,#1198,#1199);
#1058=AXIS2_PLACEMENT_3D('',#1452,#1200,#1201);
#1059=AXIS2_PLACEMENT_3D('',#1454,#1202,#1203);
#1060=AXIS2_PLACEMENT_3D('',#1456,#1204,#1205);
#1061=AXIS2_PLACEMENT_3D('',#1457,#1206,$);
#1062=AXIS2_PLACEMENT_3D('',#1458,#1207,#1208);
#1063=AXIS2_PLACEMENT_3D('',#1459,#1209,#1210);
#1064=AXIS2_PLACEMENT_3D('',#1461,#1211,$);
#1065=AXIS2_PLACEMENT_3D('',#1462,#1212,#1213);
#1066=AXIS2_PLACEMENT_3D('',#1463,#1214,#1215);
#1067=AXIS2_PLACEMENT_3D('',#1465,#1216,$);
#1068=AXIS2_PLACEMENT_3D('',#1466,#1217,#1218);
#1069=AXIS2_PLACEMENT_3D('',#1467,#1219,#1220);
#1070=AXIS2_PLACEMENT_3D('',#1469,#1221,$);
#1071=AXIS2_PLACEMENT_3D('',#1470,#1222,#1223);
#1072=AXIS2_PLACEMENT_3D('',#1471,#1224,#1225);
#1073=AXIS2_PLACEMENT_3D('',#1473,#1226,$);
#1074=AXIS2_PLACEMENT_3D('',#1474,#1227,#1228);
#1075=AXIS2_PLACEMENT_3D('',#1475,#1229,#1230);
#1076=AXIS2_PLACEMENT_3D('',#1477,#1231,$);
#1077=AXIS2_PLACEMENT_3D('',#1478,#1232,#1233);
#1078=AXIS2_PLACEMENT_3D('',#1479,#1234,#1235);
#1079=AXIS2_PLACEMENT_3D('',#1481,#1236,$);
#1080=AXIS2_PLACEMENT_3D('',#1482,#1237,#1238);
#1081=AXIS2_PLACEMENT_3D('',#1483,#1239,#1240);
#1082=AXIS2_PLACEMENT_3D('',#1485,#1241,$);
#1083=AXIS2_PLACEMENT_3D('',#1486,#1242,#1243);
#1084=AXIS2_PLACEMENT_3D('',#1487,#1244,#1245);
#1085=AXIS2_PLACEMENT_3D('',#1489,#1246,$);
#1086=AXIS2_PLACEMENT_3D('',#1490,#1247,$);
#1087=AXIS2_PLACEMENT_3D('',#1499,#1252,$);
#1088=AXIS2_PLACEMENT_3D('',#1505,#1256,$);
#1089=AXIS2_PLACEMENT_3D('',#1511,#1260,$);
#1090=AXIS2_PLACEMENT_3D('',#1517,#1264,$);
#1091=AXIS2_PLACEMENT_3D('',#1523,#1268,$);
#1092=AXIS2_PLACEMENT_3D('',#1529,#1272,$);
#1093=AXIS2_PLACEMENT_3D('',#1535,#1276,$);
#1094=AXIS2_PLACEMENT_3D('',#1541,#1280,$);
#1095=AXIS2_PLACEMENT_3D('',#1547,#1284,$);
#1096=AXIS2_PLACEMENT_3D('',#1553,#1288,$);
#1097=AXIS2_PLACEMENT_3D('',#1559,#1292,$);
#1098=AXIS2_PLACEMENT_3D('',#1565,#1296,$);
#1099=AXIS2_PLACEMENT_3D('',#1571,#1300,$);
#1100=AXIS2_PLACEMENT_3D('',#1577,#1304,$);
#1101=AXIS2_PLACEMENT_3D('',#1583,#1308,$);
#1102=AXIS2_PLACEMENT_3D('',#1589,#1312,$);
#1103=AXIS2_PLACEMENT_3D('',#1595,#1316,$);
#1104=AXIS2_PLACEMENT_3D('',#1601,#1320,$);
#1105=AXIS2_PLACEMENT_3D('',#1607,#1324,$);
#1106=AXIS2_PLACEMENT_3D('',#1610,#1327,$);
#1107=AXIS2_PLACEMENT_3D('',#1611,#1328,$);
#1108=AXIS2_PLACEMENT_3D('',#1613,#1330,$);
#1109=AXIS2_PLACEMENT_3D('',#1615,#1332,$);
#1110=DIRECTION('',(0.,-0.866025403784439,-0.5));
#1111=DIRECTION('',(0.,-0.5,0.866025403784439));
#1112=DIRECTION('',(-1.,0.,0.));
#1113=DIRECTION('',(0.,0.5,-0.866025403784439));
#1114=DIRECTION('',(1.,0.,0.));
#1115=DIRECTION('',(0.,0.866025403784439,-0.5));
#1116=DIRECTION('',(0.,0.5,0.866025403784439));
#1117=DIRECTION('',(1.,0.,0.));
#1118=DIRECTION('',(0.,-0.5,-0.866025403784439));
#1119=DIRECTION('',(-1.,0.,0.));
#1120=DIRECTION('',(0.,0.866025403784439,-0.5));
#1121=DIRECTION('',(0.,0.5,0.866025403784439));
#1122=DIRECTION('',(1.,0.,0.));
#1123=DIRECTION('',(0.,-0.5,-0.866025403784439));
#1124=DIRECTION('',(-1.,0.,0.));
#1125=DIRECTION('',(0.,-0.866025403784439,-0.5));
#1126=DIRECTION('',(0.,-0.5,0.866025403784439));
#1127=DIRECTION('',(-1.,0.,0.));
#1128=DIRECTION('',(0.,0.5,-0.866025403784439));
#1129=DIRECTION('',(1.,0.,0.));
#1130=DIRECTION('',(0.,-1.,0.));
#1131=DIRECTION('',(0.,0.,-1.));
#1132=DIRECTION('',(1.,0.,0.));
#1133=DIRECTION('',(0.,0.,-1.));
#1134=DIRECTION('',(-1.,0.,0.));
#1135=DIRECTION('',(0.,-1.,0.));
#1136=DIRECTION('',(0.,0.,1.));
#1137=DIRECTION('',(0.,1.,0.));
#1138=DIRECTION('',(0.,0.,1.));
#1139=DIRECTION('',(0.,0.,-1.));
#1140=DIRECTION('',(0.,-1.,0.));
#1141=DIRECTION('',(0.,1.,0.));
#1142=DIRECTION('',(-1.,0.,0.));
#1143=DIRECTION('',(0.,0.,-1.));
#1144=DIRECTION('',(0.,1.,0.));
#1145=DIRECTION('',(0.,0.,-1.));
#1146=DIRECTION('',(-1.,0.,0.));
#1147=DIRECTION('',(0.,0.,-1.));
#1148=DIRECTION('',(1.,0.,0.));
#1149=DIRECTION('',(0.,1.,0.));
#1150=DIRECTION('',(0.,0.,1.));
#1151=DIRECTION('',(0.,-1.,0.));
#1152=DIRECTION('',(0.,0.,1.));
#1153=DIRECTION('',(0.,0.,-1.));
#1154=DIRECTION('',(0.,1.,0.));
#1155=DIRECTION('',(1.,0.,0.));
#1156=DIRECTION('',(0.,1.,0.));
#1157=DIRECTION('',(0.,1.,0.));
#1158=DIRECTION('',(0.,0.,1.));
#1159=DIRECTION('',(-1.,0.,0.));
#1160=DIRECTION('',(0.,-1.,0.));
#1161=DIRECTION('',(0.,0.,-1.));
#1162=DIRECTION('',(0.,-1.,0.));
#1163=DIRECTION('',(0.,-1.,0.));
#1164=DIRECTION('',(1.,0.,0.));
#1165=DIRECTION('',(0.,0.,1.));
#1166=DIRECTION('',(0.,0.,1.));
#1167=DIRECTION('',(0.,0.,1.));
#1168=DIRECTION('',(-0.145,0.,0.));
#1169=DIRECTION('',(0.,0.,1.));
#1170=DIRECTION('',(-0.145,0.,0.));
#1171=DIRECTION('',(0.,0.,1.));
#1172=DIRECTION('',(-0.0325,0.,0.));
#1173=DIRECTION('',(0.,0.,1.));
#1174=DIRECTION('',(-0.0325,0.,0.));
#1175=DIRECTION('',(0.,0.,1.));
#1176=DIRECTION('',(-0.0325,0.,0.));
#1177=DIRECTION('',(0.,0.,1.));
#1178=DIRECTION('',(-0.0325,0.,0.));
#1179=DIRECTION('',(0.,0.,1.));
#1180=DIRECTION('',(-0.0325,0.,0.));
#1181=DIRECTION('',(0.,0.,1.));
#1182=DIRECTION('',(-0.0325,0.,0.));
#1183=DIRECTION('',(0.,0.,1.));
#1184=DIRECTION('',(-0.0325,0.,0.));
#1185=DIRECTION('',(0.,0.,1.));
#1186=DIRECTION('',(-0.0325,0.,0.));
#1187=DIRECTION('',(-1.,0.,0.));
#1188=DIRECTION('',(1.,0.,0.));
#1189=DIRECTION('',(0.,0.,1.));
#1190=DIRECTION('',(0.12,0.,0.));
#1191=DIRECTION('',(0.,0.,1.));
#1192=DIRECTION('',(0.12,0.,0.));
#1193=DIRECTION('',(0.,0.,-1.));
#1194=DIRECTION('',(0.145,0.,0.));
#1195=DIRECTION('',(0.,0.,-1.));
#1196=DIRECTION('',(-0.145,0.,0.));
#1197=DIRECTION('',(0.,0.,-1.));
#1198=DIRECTION('',(0.,0.,1.));
#1199=DIRECTION('',(0.12,0.,0.));
#1200=DIRECTION('',(0.,0.,1.));
#1201=DIRECTION('',(0.12,0.,0.));
#1202=DIRECTION('',(0.,0.,-1.));
#1203=DIRECTION('',(0.145,0.,0.));
#1204=DIRECTION('',(0.,0.,-1.));
#1205=DIRECTION('',(-0.145,0.,0.));
#1206=DIRECTION('',(0.,0.,-1.));
#1207=DIRECTION('',(0.,0.,-1.));
#1208=DIRECTION('',(-0.0325,0.,0.));
#1209=DIRECTION('',(0.,0.,1.));
#1210=DIRECTION('',(-0.0325,0.,0.));
#1211=DIRECTION('',(0.,0.,-1.));
#1212=DIRECTION('',(0.,0.,-1.));
#1213=DIRECTION('',(-0.0325,0.,0.));
#1214=DIRECTION('',(0.,0.,1.));
#1215=DIRECTION('',(-0.0325,0.,0.));
#1216=DIRECTION('',(0.,0.,-1.));
#1217=DIRECTION('',(0.,0.,-1.));
#1218=DIRECTION('',(-0.0325,0.,0.));
#1219=DIRECTION('',(0.,0.,1.));
#1220=DIRECTION('',(-0.0325,0.,0.));
#1221=DIRECTION('',(0.,0.,-1.));
#1222=DIRECTION('',(0.,0.,-1.));
#1223=DIRECTION('',(-0.0325,0.,0.));
#1224=DIRECTION('',(0.,0.,1.));
#1225=DIRECTION('',(-0.0325,0.,0.));
#1226=DIRECTION('',(0.,0.,-1.));
#1227=DIRECTION('',(0.,0.,-1.));
#1228=DIRECTION('',(-0.0325,0.,0.));
#1229=DIRECTION('',(0.,0.,1.));
#1230=DIRECTION('',(-0.0325,0.,0.));
#1231=DIRECTION('',(0.,0.,-1.));
#1232=DIRECTION('',(0.,0.,-1.));
#1233=DIRECTION('',(-0.0325,0.,0.));
#1234=DIRECTION('',(0.,0.,1.));
#1235=DIRECTION('',(-0.0325,0.,0.));
#1236=DIRECTION('',(0.,0.,-1.));
#1237=DIRECTION('',(0.,0.,-1.));
#1238=DIRECTION('',(-0.0325,0.,0.));
#1239=DIRECTION('',(0.,0.,1.));
#1240=DIRECTION('',(-0.0325,0.,0.));
#1241=DIRECTION('',(0.,0.,-1.));
#1242=DIRECTION('',(0.,0.,-1.));
#1243=DIRECTION('',(-0.0325,0.,0.));
#1244=DIRECTION('',(0.,0.,1.));
#1245=DIRECTION('',(-0.0325,0.,0.));
#1246=DIRECTION('',(0.,0.,-1.));
#1247=DIRECTION('',(-1.53134210293125E-016,0.,1.));
#1248=DIRECTION('',(-1.,0.,-1.53134210293125E-016));
#1249=DIRECTION('',(0.,1.,0.));
#1250=DIRECTION('',(1.,0.,1.53134210293125E-016));
#1251=DIRECTION('',(0.,1.,0.));
#1252=DIRECTION('',(-1.,0.,0.));
#1253=DIRECTION('',(0.,0.,-1.));
#1254=DIRECTION('',(0.,0.,1.));
#1255=DIRECTION('',(0.,1.,0.));
#1256=DIRECTION('',(0.,0.,-1.));
#1257=DIRECTION('',(1.,0.,0.));
#1258=DIRECTION('',(-1.,0.,0.));
#1259=DIRECTION('',(0.,1.,0.));
#1260=DIRECTION('',(-1.,0.,0.));
#1261=DIRECTION('',(0.,0.,-1.));
#1262=DIRECTION('',(0.,0.,1.));
#1263=DIRECTION('',(0.,1.,0.));
#1264=DIRECTION('',(0.,0.,1.));
#1265=DIRECTION('',(-1.,0.,0.));
#1266=DIRECTION('',(1.,0.,0.));
#1267=DIRECTION('',(0.,1.,0.));
#1268=DIRECTION('',(-1.,0.,2.03429535387045E-016));
#1269=DIRECTION('',(-2.03429535387045E-016,0.,-1.));
#1270=DIRECTION('',(2.03429535387045E-016,0.,1.));
#1271=DIRECTION('',(0.,1.,0.));
#1272=DIRECTION('',(2.20840207407743E-016,0.,-1.));
#1273=DIRECTION('',(1.,0.,2.20840207407743E-016));
#1274=DIRECTION('',(-1.,0.,-2.20840207407743E-016));
#1275=DIRECTION('',(0.,1.,0.));
#1276=DIRECTION('',(-1.,0.,-3.70074341541719E-016));
#1277=DIRECTION('',(3.70074341541719E-016,0.,-1.));
#1278=DIRECTION('',(-3.70074341541719E-016,0.,1.));
#1279=DIRECTION('',(0.,1.,0.));
#1280=DIRECTION('',(3.29991098327816E-016,0.,-1.));
#1281=DIRECTION('',(1.,0.,3.29991098327816E-016));
#1282=DIRECTION('',(-1.,0.,-3.29991098327816E-016));
#1283=DIRECTION('',(0.,1.,0.));
#1284=DIRECTION('',(-1.,0.,-3.70074341541719E-016));
#1285=DIRECTION('',(3.70074341541719E-016,0.,-1.));
#1286=DIRECTION('',(-3.70074341541719E-016,0.,1.));
#1287=DIRECTION('',(0.,1.,0.));
#1288=DIRECTION('',(0.,0.,-1.));
#1289=DIRECTION('',(1.,0.,0.));
#1290=DIRECTION('',(-1.,0.,0.));
#1291=DIRECTION('',(0.,1.,0.));
#1292=DIRECTION('',(1.,0.,-3.70074341541719E-016));
#1293=DIRECTION('',(3.70074341541719E-016,0.,1.));
#1294=DIRECTION('',(-3.70074341541719E-016,0.,-1.));
#1295=DIRECTION('',(0.,1.,0.));
#1296=DIRECTION('',(-3.29991098327816E-016,0.,-1.));
#1297=DIRECTION('',(1.,0.,-3.29991098327816E-016));
#1298=DIRECTION('',(-1.,0.,3.29991098327816E-016));
#1299=DIRECTION('',(0.,1.,0.));
#1300=DIRECTION('',(1.,0.,-3.70074341541719E-016));
#1301=DIRECTION('',(3.70074341541719E-016,0.,1.));
#1302=DIRECTION('',(-3.70074341541719E-016,0.,-1.));
#1303=DIRECTION('',(0.,1.,0.));
#1304=DIRECTION('',(-2.20840207407743E-016,0.,-1.));
#1305=DIRECTION('',(1.,0.,-2.20840207407743E-016));
#1306=DIRECTION('',(-1.,0.,2.20840207407743E-016));
#1307=DIRECTION('',(0.,1.,0.));
#1308=DIRECTION('',(1.,0.,2.03429535387045E-016));
#1309=DIRECTION('',(-2.03429535387045E-016,0.,1.));
#1310=DIRECTION('',(2.03429535387045E-016,0.,-1.));
#1311=DIRECTION('',(0.,1.,0.));
#1312=DIRECTION('',(0.,0.,1.));
#1313=DIRECTION('',(-1.,0.,0.));
#1314=DIRECTION('',(1.,0.,0.));
#1315=DIRECTION('',(0.,1.,0.));
#1316=DIRECTION('',(1.,0.,0.));
#1317=DIRECTION('',(0.,0.,1.));
#1318=DIRECTION('',(0.,0.,-1.));
#1319=DIRECTION('',(0.,1.,0.));
#1320=DIRECTION('',(0.,0.,-1.));
#1321=DIRECTION('',(1.,0.,0.));
#1322=DIRECTION('',(-1.,0.,0.));
#1323=DIRECTION('',(0.,1.,0.));
#1324=DIRECTION('',(1.,0.,0.));
#1325=DIRECTION('',(0.,0.,1.));
#1326=DIRECTION('',(0.,0.,-1.));
#1327=DIRECTION('',(-9.32543841469409E-033,1.,-7.44989974559296E-030));
#1328=DIRECTION('',(0.,1.,0.));
#1329=DIRECTION('',(1.,0.,0.));
#1330=DIRECTION('',(0.,-1.,0.));
#1331=DIRECTION('',(-1.,0.,0.));
#1332=DIRECTION('',(0.,0.,1.));
#1333=CARTESIAN_POINT('',(-0.7745,0.267933756729741,-0.293));
#1334=CARTESIAN_POINT('',(-0.7425,0.209068176311313,-0.191041823898252));
#1335=CARTESIAN_POINT('',(-0.7425,0.282367513459481,-0.318));
#1336=CARTESIAN_POINT('',(-0.7425,0.2535,-0.268));
#1337=CARTESIAN_POINT('',(-0.7745,0.2535,-0.268));
#1338=CARTESIAN_POINT('',(-0.8065,0.2535,-0.268));
#1339=CARTESIAN_POINT('',(-0.8065,0.171005676311313,-0.125115640035161));
#1340=CARTESIAN_POINT('',(-0.8065,0.282367513459481,-0.318));
#1341=CARTESIAN_POINT('',(-0.7745,0.282367513459481,-0.318));
#1342=CARTESIAN_POINT('',(-0.7745,0.341066243270259,-0.293));
#1343=CARTESIAN_POINT('',(-0.8065,0.361869323688687,-0.256968007761342));
#1344=CARTESIAN_POINT('',(-0.8065,0.326632486540519,-0.318));
#1345=CARTESIAN_POINT('',(-0.8065,0.3555,-0.268));
#1346=CARTESIAN_POINT('',(-0.7745,0.3555,-0.268));
#1347=CARTESIAN_POINT('',(-0.7425,0.3555,-0.268));
#1348=CARTESIAN_POINT('',(-0.7425,0.399931823688687,-0.191041823898252));
#1349=CARTESIAN_POINT('',(-0.7425,0.326632486540519,-0.318));
#1350=CARTESIAN_POINT('',(-0.7745,0.326632486540519,-0.318));
#1351=CARTESIAN_POINT('',(0.7745,0.341066243270259,-0.293));
#1352=CARTESIAN_POINT('',(0.7425,0.399931823688687,-0.191041823898252));
#1353=CARTESIAN_POINT('',(0.7425,0.326632486540519,-0.318));
#1354=CARTESIAN_POINT('',(0.7425,0.3555,-0.268));
#1355=CARTESIAN_POINT('',(0.7745,0.3555,-0.268));
#1356=CARTESIAN_POINT('',(0.8065,0.3555,-0.268));
#1357=CARTESIAN_POINT('',(0.8065,0.361869323688687,-0.256968007761342));
#1358=CARTESIAN_POINT('',(0.8065,0.326632486540519,-0.318));
#1359=CARTESIAN_POINT('',(0.7745,0.326632486540519,-0.318));
#1360=CARTESIAN_POINT('',(0.7745,0.267933756729741,-0.293));
#1361=CARTESIAN_POINT('',(0.8065,0.171005676311313,-0.125115640035161));
#1362=CARTESIAN_POINT('',(0.8065,0.282367513459481,-0.318));
#1363=CARTESIAN_POINT('',(0.8065,0.2535,-0.268));
#1364=CARTESIAN_POINT('',(0.7745,0.2535,-0.268));
#1365=CARTESIAN_POINT('',(0.7425,0.2535,-0.268));
#1366=CARTESIAN_POINT('',(0.7425,0.209068176311313,-0.191041823898252));
#1367=CARTESIAN_POINT('',(0.7425,0.282367513459481,-0.318));
#1368=CARTESIAN_POINT('',(0.7745,0.282367513459481,-0.318));
#1369=CARTESIAN_POINT('',(-0.7745,0.2535,0.));
#1370=CARTESIAN_POINT('',(-0.7425,0.2535,0.));
#1371=CARTESIAN_POINT('',(-0.7425,0.2535,0.));
#1372=CARTESIAN_POINT('',(-0.38725,0.2535,0.));
#1373=CARTESIAN_POINT('',(-0.8065,0.2535,0.));
#1374=CARTESIAN_POINT('',(-0.8065,0.2535,0.));
#1375=CARTESIAN_POINT('',(-0.8065,0.,0.));
#1376=CARTESIAN_POINT('',(-0.8065,1.0795,0.));
#1377=CARTESIAN_POINT('',(-0.8065,-1.0795,0.));
#1378=CARTESIAN_POINT('',(-0.8065,-1.0795,0.));
#1379=CARTESIAN_POINT('',(-0.8065,-1.0795,1.397));
#1380=CARTESIAN_POINT('',(-0.8065,1.0795,1.397));
#1381=CARTESIAN_POINT('',(-0.8065,1.0795,1.397));
#1382=CARTESIAN_POINT('',(-0.8065,1.0795,0.));
#1383=CARTESIAN_POINT('',(-0.8065,1.0795,0.));
#1384=CARTESIAN_POINT('',(-0.8065,0.3555,0.));
#1385=CARTESIAN_POINT('',(-0.8065,0.3555,0.));
#1386=CARTESIAN_POINT('',(-0.8065,0.2535,-0.318));
#1387=CARTESIAN_POINT('',(-0.7745,0.3555,0.));
#1388=CARTESIAN_POINT('',(-0.38725,0.3555,0.));
#1389=CARTESIAN_POINT('',(-0.7425,0.3555,0.));
#1390=CARTESIAN_POINT('',(-0.7425,0.3555,0.));
#1391=CARTESIAN_POINT('',(0.7745,0.3555,0.));
#1392=CARTESIAN_POINT('',(0.7425,0.3555,0.));
#1393=CARTESIAN_POINT('',(0.7425,0.3555,0.));
#1394=CARTESIAN_POINT('',(0.38725,0.3555,0.));
#1395=CARTESIAN_POINT('',(0.8065,0.3555,0.));
#1396=CARTESIAN_POINT('',(0.8065,0.3555,0.));
#1397=CARTESIAN_POINT('',(0.8065,0.,0.));
#1398=CARTESIAN_POINT('',(0.8065,-1.0795,0.));
#1399=CARTESIAN_POINT('',(0.8065,1.0795,0.));
#1400=CARTESIAN_POINT('',(0.8065,1.0795,0.));
#1401=CARTESIAN_POINT('',(0.8065,1.0795,1.397));
#1402=CARTESIAN_POINT('',(0.8065,-1.0795,1.397));
#1403=CARTESIAN_POINT('',(0.8065,-1.0795,1.397));
#1404=CARTESIAN_POINT('',(0.8065,-1.0795,0.));
#1405=CARTESIAN_POINT('',(0.8065,-1.0795,0.));
#1406=CARTESIAN_POINT('',(0.8065,0.2535,0.));
#1407=CARTESIAN_POINT('',(0.8065,0.2535,0.));
#1408=CARTESIAN_POINT('',(0.8065,0.3555,-0.318));
#1409=CARTESIAN_POINT('',(-0.7425,0.3045,0.));
#1410=CARTESIAN_POINT('',(-0.7425,0.3555,-0.318));
#1411=CARTESIAN_POINT('',(-0.7425,0.15225,0.));
#1412=CARTESIAN_POINT('',(-0.7745,0.3045,-0.318));
#1413=CARTESIAN_POINT('',(0.7425,0.3045,0.));
#1414=CARTESIAN_POINT('',(0.7425,0.2535,-0.318));
#1415=CARTESIAN_POINT('',(0.7425,0.2535,0.));
#1416=CARTESIAN_POINT('',(0.7425,0.2535,0.));
#1417=CARTESIAN_POINT('',(0.7425,0.15225,0.));
#1418=CARTESIAN_POINT('',(0.7745,0.2535,0.));
#1419=CARTESIAN_POINT('',(0.38725,0.2535,0.));
#1420=CARTESIAN_POINT('',(0.7745,0.3045,-0.318));
#1421=CARTESIAN_POINT('',(8.63197598920456E-018,0.,0.));
#1422=CARTESIAN_POINT('',(-0.5715,-0.000500000000000167,0.));
#1423=CARTESIAN_POINT('',(-0.7165,-0.000500000000000167,0.));
#1424=CARTESIAN_POINT('',(0.5715,-0.000500000000000167,0.));
#1425=CARTESIAN_POINT('',(0.4265,-0.000500000000000167,0.));
#1426=CARTESIAN_POINT('',(-0.4445,0.6345,0.));
#1427=CARTESIAN_POINT('',(-0.477,0.6345,0.));
#1428=CARTESIAN_POINT('',(0.0635,0.6345,0.));
#1429=CARTESIAN_POINT('',(0.031,0.6345,0.));
#1430=CARTESIAN_POINT('',(-0.3175,0.8885,0.));
#1431=CARTESIAN_POINT('',(-0.35,0.8885,0.));
#1432=CARTESIAN_POINT('',(0.1905,0.8885,0.));
#1433=CARTESIAN_POINT('',(0.158,0.8885,0.));
#1434=CARTESIAN_POINT('',(0.4445,0.8885,0.));
#1435=CARTESIAN_POINT('',(0.412,0.8885,0.));
#1436=CARTESIAN_POINT('',(-0.0635,0.8885,0.));
#1437=CARTESIAN_POINT('',(-0.096,0.8885,0.));
#1438=CARTESIAN_POINT('',(0.3175,0.6345,0.));
#1439=CARTESIAN_POINT('',(0.285,0.6345,0.));
#1440=CARTESIAN_POINT('',(-0.1905,0.6345,0.));
#1441=CARTESIAN_POINT('',(-0.223,0.6345,0.));
#1442=CARTESIAN_POINT('',(0.8065,1.0795,0.));
#1443=CARTESIAN_POINT('',(-0.8065,-1.0795,0.));
#1444=CARTESIAN_POINT('',(-0.5715,-0.000500000000000167,-0.318));
#1445=CARTESIAN_POINT('',(-0.5715,-0.000500000000000167,-0.318));
#1446=CARTESIAN_POINT('',(-0.6915,-0.000500000000000182,-0.318));
#1447=CARTESIAN_POINT('',(-0.5715,-0.000500000000000167,-0.293));
#1448=CARTESIAN_POINT('',(-0.7165,-0.000500000000000149,-0.293));
#1449=CARTESIAN_POINT('',(-0.5715,-0.000500000000000167,0.));
#1450=CARTESIAN_POINT('',(-0.5715,-0.000500000000000167,-0.318));
#1451=CARTESIAN_POINT('',(0.5715,-0.000500000000000167,-0.318));
#1452=CARTESIAN_POINT('',(0.5715,-0.000500000000000167,-0.318));
#1453=CARTESIAN_POINT('',(0.4515,-0.000500000000000182,-0.318));
#1454=CARTESIAN_POINT('',(0.5715,-0.000500000000000167,-0.293));
#1455=CARTESIAN_POINT('',(0.4265,-0.000500000000000149,-0.293));
#1456=CARTESIAN_POINT('',(0.5715,-0.000500000000000167,0.));
#1457=CARTESIAN_POINT('',(0.5715,-0.000500000000000167,-0.318));
#1458=CARTESIAN_POINT('',(-0.1905,0.6345,0.));
#1459=CARTESIAN_POINT('',(-0.1905,0.6345,-0.318));
#1460=CARTESIAN_POINT('',(-0.223,0.6345,-0.318));
#1461=CARTESIAN_POINT('',(-0.1905,0.6345,-0.318));
#1462=CARTESIAN_POINT('',(0.3175,0.6345,0.));
#1463=CARTESIAN_POINT('',(0.3175,0.6345,-0.318));
#1464=CARTESIAN_POINT('',(0.285,0.6345,-0.318));
#1465=CARTESIAN_POINT('',(0.3175,0.6345,-0.318));
#1466=CARTESIAN_POINT('',(-0.0635,0.8885,0.));
#1467=CARTESIAN_POINT('',(-0.0635,0.8885,-0.318));
#1468=CARTESIAN_POINT('',(-0.096,0.8885,-0.318));
#1469=CARTESIAN_POINT('',(-0.0635,0.8885,-0.318));
#1470=CARTESIAN_POINT('',(0.4445,0.8885,0.));
#1471=CARTESIAN_POINT('',(0.4445,0.8885,-0.318));
#1472=CARTESIAN_POINT('',(0.412,0.8885,-0.318));
#1473=CARTESIAN_POINT('',(0.4445,0.8885,-0.318));
#1474=CARTESIAN_POINT('',(0.1905,0.8885,0.));
#1475=CARTESIAN_POINT('',(0.1905,0.8885,-0.318));
#1476=CARTESIAN_POINT('',(0.158,0.8885,-0.318));
#1477=CARTESIAN_POINT('',(0.1905,0.8885,-0.318));
#1478=CARTESIAN_POINT('',(-0.3175,0.8885,0.));
#1479=CARTESIAN_POINT('',(-0.3175,0.8885,-0.318));
#1480=CARTESIAN_POINT('',(-0.35,0.8885,-0.318));
#1481=CARTESIAN_POINT('',(-0.3175,0.8885,-0.318));
#1482=CARTESIAN_POINT('',(0.0635,0.6345,0.));
#1483=CARTESIAN_POINT('',(0.0635,0.6345,-0.318));
#1484=CARTESIAN_POINT('',(0.031,0.6345,-0.318));
#1485=CARTESIAN_POINT('',(0.0635,0.6345,-0.318));
#1486=CARTESIAN_POINT('',(-0.4445,0.6345,0.));
#1487=CARTESIAN_POINT('',(-0.4445,0.6345,-0.318));
#1488=CARTESIAN_POINT('',(-0.477,0.6345,-0.318));
#1489=CARTESIAN_POINT('',(-0.4445,0.6345,-0.318));
#1490=CARTESIAN_POINT('',(0.,-1.0795,1.277));
#1491=CARTESIAN_POINT('',(-0.725,0.7205,1.277));
#1492=CARTESIAN_POINT('',(0.725,0.720500000000001,1.277));
#1493=CARTESIAN_POINT('',(-0.725,0.720500000000001,1.277));
#1494=CARTESIAN_POINT('',(0.725,-1.0795,1.277));
#1495=CARTESIAN_POINT('',(0.725,-1.0795,1.277));
#1496=CARTESIAN_POINT('',(-1.11022302462516E-016,-1.0795,1.277));
#1497=CARTESIAN_POINT('',(-0.725,-1.0795,1.277));
#1498=CARTESIAN_POINT('',(-0.725,-1.0795,1.277));
#1499=CARTESIAN_POINT('',(-0.725,-1.0795,1.14637655711174));
#1500=CARTESIAN_POINT('',(-0.725,0.7205,1.01575311422348));
#1501=CARTESIAN_POINT('',(-0.725,0.720500000000001,1.01575311422348));
#1502=CARTESIAN_POINT('',(-0.725,-1.0795,0.57318827855587));
#1503=CARTESIAN_POINT('',(-0.725,-1.0795,1.01575311422348));
#1504=CARTESIAN_POINT('',(-0.725,-1.0795,1.01575311422348));
#1505=CARTESIAN_POINT('',(-0.65,-1.0795,1.01575311422348));
#1506=CARTESIAN_POINT('',(-0.575,0.7205,1.01575311422348));
#1507=CARTESIAN_POINT('',(-0.575,0.720500000000001,1.01575311422348));
#1508=CARTESIAN_POINT('',(-0.325,-1.0795,1.01575311422348));
#1509=CARTESIAN_POINT('',(-0.575,-1.0795,1.01575311422348));
#1510=CARTESIAN_POINT('',(-0.575,-1.0795,1.01575311422348));
#1511=CARTESIAN_POINT('',(-0.575,-1.0795,0.94075311422348));
#1512=CARTESIAN_POINT('',(-0.575,0.7205,0.86575311422348));
#1513=CARTESIAN_POINT('',(-0.575,0.720500000000001,0.86575311422348));
#1514=CARTESIAN_POINT('',(-0.575,-1.0795,0.47037655711174));
#1515=CARTESIAN_POINT('',(-0.575,-1.0795,0.86575311422348));
#1516=CARTESIAN_POINT('',(-0.575,-1.0795,0.86575311422348));
#1517=CARTESIAN_POINT('',(-0.65,-1.0795,0.86575311422348));
#1518=CARTESIAN_POINT('',(-0.725,0.7205,0.86575311422348));
#1519=CARTESIAN_POINT('',(-0.725,0.720500000000001,0.86575311422348));
#1520=CARTESIAN_POINT('',(-0.325,-1.0795,0.86575311422348));
#1521=CARTESIAN_POINT('',(-0.725,-1.0795,0.86575311422348));
#1522=CARTESIAN_POINT('',(-0.725,-1.0795,0.86575311422348));
#1523=CARTESIAN_POINT('',(-0.725,-1.0795,0.59287655711174));
#1524=CARTESIAN_POINT('',(-0.725,0.7205,0.32));
#1525=CARTESIAN_POINT('',(-0.725,0.720500000000001,0.32));
#1526=CARTESIAN_POINT('',(-0.725,-1.0795,0.29643827855587));
#1527=CARTESIAN_POINT('',(-0.725,-1.0795,0.32));
#1528=CARTESIAN_POINT('',(-0.725,-1.0795,0.32));
#1529=CARTESIAN_POINT('',(-0.599318286776542,-1.0795,0.32));
#1530=CARTESIAN_POINT('',(-0.473636573553084,0.7205,0.32));
#1531=CARTESIAN_POINT('',(-0.473636573553084,0.720500000000001,0.32));
#1532=CARTESIAN_POINT('',(-0.299659143388271,-1.0795,0.32));
#1533=CARTESIAN_POINT('',(-0.473636573553084,-1.0795,0.32));
#1534=CARTESIAN_POINT('',(-0.473636573553084,-1.0795,0.32));
#1535=CARTESIAN_POINT('',(-0.473636573553084,-1.0795,0.245));
#1536=CARTESIAN_POINT('',(-0.473636573553084,0.7205,0.17));
#1537=CARTESIAN_POINT('',(-0.473636573553084,0.720500000000001,0.17));
#1538=CARTESIAN_POINT('',(-0.473636573553084,-1.0795,0.1225));
#1539=CARTESIAN_POINT('',(-0.473636573553084,-1.0795,0.17));
#1540=CARTESIAN_POINT('',(-0.473636573553084,-1.0795,0.17));
#1541=CARTESIAN_POINT('',(-0.389526499807833,-1.0795,0.17));
#1542=CARTESIAN_POINT('',(-0.305416426062583,0.7205,0.17));
#1543=CARTESIAN_POINT('',(-0.305416426062583,0.720500000000001,0.17));
#1544=CARTESIAN_POINT('',(-0.194763249903917,-1.0795,0.17));
#1545=CARTESIAN_POINT('',(-0.305416426062583,-1.0795,0.17));
#1546=CARTESIAN_POINT('',(-0.305416426062583,-1.0795,0.17));
#1547=CARTESIAN_POINT('',(-0.305416426062583,-1.0795,0.0949999999999999));
#1548=CARTESIAN_POINT('',(-0.305416426062583,0.7205,0.0199999999999999));
#1549=CARTESIAN_POINT('',(-0.305416426062583,0.720500000000001,0.0199999999999999));
#1550=CARTESIAN_POINT('',(-0.305416426062583,-1.0795,0.0474999999999999));
#1551=CARTESIAN_POINT('',(-0.305416426062583,-1.0795,0.0199999999999999));
#1552=CARTESIAN_POINT('',(-0.305416426062583,-1.0795,0.0199999999999999));
#1553=CARTESIAN_POINT('',(0.,-1.0795,0.0199999999999999));
#1554=CARTESIAN_POINT('',(0.305416426062583,0.7205,0.0199999999999999));
#1555=CARTESIAN_POINT('',(0.305416426062583,0.720500000000001,0.0199999999999999));
#1556=CARTESIAN_POINT('',(0.,-1.0795,0.0199999999999999));
#1557=CARTESIAN_POINT('',(0.305416426062583,-1.0795,0.0199999999999999));
#1558=CARTESIAN_POINT('',(0.305416426062583,-1.0795,0.0199999999999999));
#1559=CARTESIAN_POINT('',(0.305416426062583,-1.0795,0.0949999999999999));
#1560=CARTESIAN_POINT('',(0.305416426062583,0.7205,0.17));
#1561=CARTESIAN_POINT('',(0.305416426062583,0.720500000000001,0.17));
#1562=CARTESIAN_POINT('',(0.305416426062583,-1.0795,0.0474999999999999));
#1563=CARTESIAN_POINT('',(0.305416426062583,-1.0795,0.17));
#1564=CARTESIAN_POINT('',(0.305416426062583,-1.0795,0.17));
#1565=CARTESIAN_POINT('',(0.389526499807833,-1.0795,0.17));
#1566=CARTESIAN_POINT('',(0.473636573553084,0.7205,0.17));
#1567=CARTESIAN_POINT('',(0.473636573553084,0.720500000000001,0.17));
#1568=CARTESIAN_POINT('',(0.194763249903917,-1.0795,0.17));
#1569=CARTESIAN_POINT('',(0.473636573553084,-1.0795,0.17));
#1570=CARTESIAN_POINT('',(0.473636573553084,-1.0795,0.17));
#1571=CARTESIAN_POINT('',(0.473636573553084,-1.0795,0.245));
#1572=CARTESIAN_POINT('',(0.473636573553084,0.7205,0.32));
#1573=CARTESIAN_POINT('',(0.473636573553084,0.720500000000001,0.32));
#1574=CARTESIAN_POINT('',(0.473636573553084,-1.0795,0.1225));
#1575=CARTESIAN_POINT('',(0.473636573553084,-1.0795,0.32));
#1576=CARTESIAN_POINT('',(0.473636573553084,-1.0795,0.32));
#1577=CARTESIAN_POINT('',(0.599318286776542,-1.0795,0.32));
#1578=CARTESIAN_POINT('',(0.725,0.7205,0.32));
#1579=CARTESIAN_POINT('',(0.725,0.720500000000001,0.32));
#1580=CARTESIAN_POINT('',(0.299659143388271,-1.0795,0.32));
#1581=CARTESIAN_POINT('',(0.725,-1.0795,0.32));
#1582=CARTESIAN_POINT('',(0.725,-1.0795,0.32));
#1583=CARTESIAN_POINT('',(0.725,-1.0795,0.59287655711174));
#1584=CARTESIAN_POINT('',(0.725,0.7205,0.86575311422348));
#1585=CARTESIAN_POINT('',(0.725,0.720500000000001,0.86575311422348));
#1586=CARTESIAN_POINT('',(0.725,-1.0795,0.29643827855587));
#1587=CARTESIAN_POINT('',(0.725,-1.0795,0.86575311422348));
#1588=CARTESIAN_POINT('',(0.725,-1.0795,0.86575311422348));
#1589=CARTESIAN_POINT('',(0.65,-1.0795,0.86575311422348));
#1590=CARTESIAN_POINT('',(0.575,0.7205,0.86575311422348));
#1591=CARTESIAN_POINT('',(0.575,0.720500000000001,0.86575311422348));
#1592=CARTESIAN_POINT('',(0.325,-1.0795,0.86575311422348));
#1593=CARTESIAN_POINT('',(0.575,-1.0795,0.86575311422348));
#1594=CARTESIAN_POINT('',(0.575,-1.0795,0.86575311422348));
#1595=CARTESIAN_POINT('',(0.575,-1.0795,0.94075311422348));
#1596=CARTESIAN_POINT('',(0.575,0.7205,1.01575311422348));
#1597=CARTESIAN_POINT('',(0.575,0.720500000000001,1.01575311422348));
#1598=CARTESIAN_POINT('',(0.575,-1.0795,0.47037655711174));
#1599=CARTESIAN_POINT('',(0.575,-1.0795,1.01575311422348));
#1600=CARTESIAN_POINT('',(0.575,-1.0795,1.01575311422348));
#1601=CARTESIAN_POINT('',(0.65,-1.0795,1.01575311422348));
#1602=CARTESIAN_POINT('',(0.725,0.7205,1.01575311422348));
#1603=CARTESIAN_POINT('',(0.725,0.720500000000001,1.01575311422348));
#1604=CARTESIAN_POINT('',(0.325,-1.0795,1.01575311422348));
#1605=CARTESIAN_POINT('',(0.725,-1.0795,1.01575311422348));
#1606=CARTESIAN_POINT('',(0.725,-1.0795,1.01575311422348));
#1607=CARTESIAN_POINT('',(0.725,-1.0795,1.14637655711174));
#1608=CARTESIAN_POINT('',(0.725,0.7205,1.277));
#1609=CARTESIAN_POINT('',(0.725,-1.0795,0.57318827855587));
#1610=CARTESIAN_POINT('',(-4.86689659191123E-018,0.720500000000001,0.71112653286488));
#1611=CARTESIAN_POINT('',(0.,1.0795,0.));
#1612=CARTESIAN_POINT('',(0.8065,1.0795,1.397));
#1613=CARTESIAN_POINT('',(0.,-1.0795,0.));
#1614=CARTESIAN_POINT('',(-0.8065,-1.0795,1.397));
#1615=CARTESIAN_POINT('',(8.63197598920456E-018,0.,1.397));
#1616=PLANE('',#1027);
#1617=PLANE('',#1028);
#1618=PLANE('',#1029);
#1619=PLANE('',#1030);
#1620=PLANE('',#1031);
#1621=PLANE('',#1032);
#1622=PLANE('',#1033);
#1623=PLANE('',#1034);
#1624=PLANE('',#1035);
#1625=PLANE('',#1036);
#1626=PLANE('',#1037);
#1627=PLANE('',#1038);
#1628=PLANE('',#1039);
#1629=PLANE('',#1040);
#1630=PLANE('',#1041);
#1631=PLANE('',#1056);
#1632=PLANE('',#1061);
#1633=PLANE('',#1064);
#1634=PLANE('',#1067);
#1635=PLANE('',#1070);
#1636=PLANE('',#1073);
#1637=PLANE('',#1076);
#1638=PLANE('',#1079);
#1639=PLANE('',#1082);
#1640=PLANE('',#1085);
#1641=PLANE('',#1086);
#1642=PLANE('',#1087);
#1643=PLANE('',#1088);
#1644=PLANE('',#1089);
#1645=PLANE('',#1090);
#1646=PLANE('',#1091);
#1647=PLANE('',#1092);
#1648=PLANE('',#1093);
#1649=PLANE('',#1094);
#1650=PLANE('',#1095);
#1651=PLANE('',#1096);
#1652=PLANE('',#1097);
#1653=PLANE('',#1098);
#1654=PLANE('',#1099);
#1655=PLANE('',#1100);
#1656=PLANE('',#1101);
#1657=PLANE('',#1102);
#1658=PLANE('',#1103);
#1659=PLANE('',#1104);
#1660=PLANE('',#1105);
#1661=PLANE('',#1106);
#1662=PLANE('',#1107);
#1663=PLANE('',#1108);
#1664=PLANE('',#1109);
#1665=CLOSED_SHELL('',(#966,#967,#968,#969,#970,#971,#972,#973,#974,#975,
#976,#977,#978,#979,#980,#981,#982,#983,#984,#985,#986,#987,#988,#989,#990,
#991,#992,#993,#994,#995,#996,#997,#998,#999,#1000,#1001,#1002,#1003,#1004,
#1005,#1006,#1007,#1008,#1009,#1010,#1011,#1012,#1013,#1014,#1015,#1016,
#1017,#1018,#1019,#1020,#1021,#1022,#1023,#1024,#1025,#1026));
#1666=MANIFOLD_SOLID_BREP('',#1665);
#1667=ADVANCED_BREP_SHAPE_REPRESENTATION('',(#1666),#67);
ENDSEC;
END-ISO-10303-21;
