ISO-10303-21;
HEADER;
/* Generated by software containing ST-Developer
 * from STEP Tools, Inc. (www.steptools.com) 
 */

FILE_DESCRIPTION(
/* description */ ('Alibre Inc.'),
/* implementation_level */ '2;1');

FILE_NAME(
/* name */ 'export0',
/* time_stamp */ '2012-01-05T20:35:06-08:00',
/* author */ (''),
/* organization */ (''),
/* preprocessor_version */ 'ST-DEVELOPER v14',
/* originating_system */ 'Alibre',
/* authorisation */ '');

FILE_SCHEMA (('AUTOMOTIVE_DESIGN'));
ENDSEC;

DATA;
#10=STYLED_ITEM('NAME_0',(#52),#897);
#11=STYLED_ITEM('NAME_0',(#53),#812);
#12=STYLED_ITEM('NAME_0',(#53),#813);
#13=STYLED_ITEM('NAME_0',(#53),#814);
#14=STYLED_ITEM('NAME_0',(#53),#821);
#15=STYLED_ITEM('NAME_0',(#53),#830);
#16=STYLED_ITEM('NAME_0',(#53),#831);
#17=STYLED_ITEM('NAME_0',(#53),#832);
#18=STYLED_ITEM('NAME_0',(#53),#836);
#19=STYLED_ITEM('NAME_0',(#53),#840);
#20=STYLED_ITEM('NAME_0',(#53),#841);
#21=STYLED_ITEM('NAME_0',(#53),#843);
#22=STYLED_ITEM('NAME_0',(#53),#844);
#23=STYLED_ITEM('NAME_0',(#53),#845);
#24=STYLED_ITEM('NAME_0',(#53),#847);
#25=STYLED_ITEM('NAME_0',(#53),#848);
#26=STYLED_ITEM('NAME_0',(#53),#849);
#27=STYLED_ITEM('NAME_0',(#53),#850);
#28=STYLED_ITEM('NAME_0',(#53),#851);
#29=STYLED_ITEM('NAME_0',(#53),#852);
#30=STYLED_ITEM('NAME_0',(#53),#853);
#31=STYLED_ITEM('NAME_0',(#53),#854);
#32=STYLED_ITEM('NAME_0',(#54),#855);
#33=MECHANICAL_DESIGN_GEOMETRIC_PRESENTATION_REPRESENTATION('NAME_0',(#10,
#11,#12,#13,#14,#15,#16,#17,#18,#19,#20,#21,#22,#23,#24,#25,#26,#27,#28,
#29,#30,#31,#32),#69);
#34=COLOUR_RGB('',0.749019607843137,0.749019607843137,0.749019607843137);
#35=COLOUR_RGB('',0.341176470588235,0.337254901960784,0.356862745098039);
#36=COLOUR_RGB('',0.482352941176471,0.482352941176471,0.482352941176471);
#37=FILL_AREA_STYLE_COLOUR('NAME_0',#34);
#38=FILL_AREA_STYLE_COLOUR('NAME_0',#35);
#39=FILL_AREA_STYLE_COLOUR('NAME_0',#36);
#40=FILL_AREA_STYLE('NAME_0',(#37));
#41=FILL_AREA_STYLE('NAME_0',(#38));
#42=FILL_AREA_STYLE('NAME_0',(#39));
#43=SURFACE_STYLE_FILL_AREA(#40);
#44=SURFACE_STYLE_FILL_AREA(#41);
#45=SURFACE_STYLE_FILL_AREA(#42);
#46=SURFACE_SIDE_STYLE('NAME_0',(#43));
#47=SURFACE_SIDE_STYLE('NAME_0',(#44));
#48=SURFACE_SIDE_STYLE('NAME_0',(#45));
#49=SURFACE_STYLE_USAGE(.POSITIVE.,#46);
#50=SURFACE_STYLE_USAGE(.POSITIVE.,#47);
#51=SURFACE_STYLE_USAGE(.POSITIVE.,#48);
#52=PRESENTATION_STYLE_ASSIGNMENT((#49));
#53=PRESENTATION_STYLE_ASSIGNMENT((#50));
#54=PRESENTATION_STYLE_ASSIGNMENT((#51));
#55=PRODUCT_DEFINITION_CONTEXT('part definition',#62,'design');
#56=SHAPE_DEFINITION_REPRESENTATION(#57,#1386);
#57=PRODUCT_DEFINITION_SHAPE('PRODUCT_VERSION_ID',
'PRODUCT_VERSION_DESCR',#58);
#58=PRODUCT_DEFINITION('PRODUCT_VERSION_ID','PRODUCT_VERSION_DESCR',#59,
#55);
#59=PRODUCT_DEFINITION_FORMATION_WITH_SPECIFIED_SOURCE(
'PRODUCT_VERSION_ID','PRODUCT_VERSION_DESCR',#64,.MADE.);
#60=PRODUCT_RELATED_PRODUCT_CATEGORY('part','part',(#64));
#61=APPLICATION_PROTOCOL_DEFINITION('Draft International Standard',
'automotive_design',1994,#62);
#62=APPLICATION_CONTEXT('automotive_Design');
#63=PRODUCT_CONTEXT('3D Mechanical Parts',#62,'mechanical');
#64=PRODUCT('','BBE5A025-C517-480D-83DB-E5AFE1ED45CA','',(#63));
#65=(
LENGTH_UNIT()
NAMED_UNIT(*)
SI_UNIT(.MILLI.,.METRE.)
);
#66=(
NAMED_UNIT(*)
PLANE_ANGLE_UNIT()
SI_UNIT($,.RADIAN.)
);
#67=(
NAMED_UNIT(*)
SI_UNIT($,.STERADIAN.)
SOLID_ANGLE_UNIT()
);
#68=UNCERTAINTY_MEASURE_WITH_UNIT(LENGTH_MEASURE(1.E-006),#65,
'DISTANCE_ACCURACY_VALUE',
'Maximum model space distance between geometric entities at asserted co
nnectivities');
#69=(
GEOMETRIC_REPRESENTATION_CONTEXT(3)
GLOBAL_UNCERTAINTY_ASSIGNED_CONTEXT((#68))
GLOBAL_UNIT_ASSIGNED_CONTEXT((#67,#66,#65))
REPRESENTATION_CONTEXT('ID1','3D')
);
#70=B_SPLINE_CURVE_WITH_KNOTS('',3,(#1085,#1086,#1087,#1088,#1089,#1090),
 .UNSPECIFIED.,.F.,.U.,(4,2,4),(0.,0.5,1.),.UNSPECIFIED.);
#71=B_SPLINE_CURVE_WITH_KNOTS('',3,(#1095,#1096,#1097,#1098,#1099,#1100),
 .UNSPECIFIED.,.F.,.U.,(4,2,4),(0.,0.5,1.),.UNSPECIFIED.);
#72=B_SPLINE_CURVE_WITH_KNOTS('',3,(#1110,#1111,#1112,#1113,#1114,#1115),
 .UNSPECIFIED.,.F.,.U.,(4,2,4),(0.,0.5,1.),.UNSPECIFIED.);
#73=B_SPLINE_CURVE_WITH_KNOTS('',3,(#1120,#1121,#1122,#1123,#1124,#1125),
 .UNSPECIFIED.,.F.,.U.,(4,2,4),(0.,0.5,1.),.UNSPECIFIED.);
#74=B_SPLINE_CURVE_WITH_KNOTS('',3,(#1228,#1229,#1230,#1231,#1232,#1233),
 .UNSPECIFIED.,.F.,.U.,(4,2,4),(0.,0.5,1.),.UNSPECIFIED.);
#75=B_SPLINE_CURVE_WITH_KNOTS('',3,(#1238,#1239,#1240,#1241,#1242,#1243),
 .UNSPECIFIED.,.F.,.U.,(4,2,4),(0.,0.5,1.),.UNSPECIFIED.);
#76=B_SPLINE_CURVE_WITH_KNOTS('',3,(#1251,#1252,#1253,#1254,#1255,#1256),
 .UNSPECIFIED.,.F.,.U.,(4,2,4),(0.,0.5,1.),.UNSPECIFIED.);
#77=B_SPLINE_CURVE_WITH_KNOTS('',3,(#1262,#1263,#1264,#1265,#1266,#1267),
 .UNSPECIFIED.,.F.,.U.,(4,2,4),(0.,0.5,1.),.UNSPECIFIED.);
#78=B_SPLINE_CURVE_WITH_KNOTS('',3,(#1309,#1310,#1311,#1312),
 .UNSPECIFIED.,.F.,.U.,(4,4),(0.,1.),.UNSPECIFIED.);
#79=B_SPLINE_CURVE_WITH_KNOTS('',3,(#1324,#1325,#1326,#1327),
 .UNSPECIFIED.,.F.,.U.,(4,4),(0.,1.),.UNSPECIFIED.);
#80=B_SPLINE_CURVE_WITH_KNOTS('',3,(#1331,#1332,#1333,#1334),
 .UNSPECIFIED.,.F.,.U.,(4,4),(0.,1.),.UNSPECIFIED.);
#81=B_SPLINE_CURVE_WITH_KNOTS('',3,(#1336,#1337,#1338,#1339),
 .UNSPECIFIED.,.F.,.U.,(4,4),(0.,1.),.UNSPECIFIED.);
#82=CYLINDRICAL_SURFACE('',#1345,0.15);
#83=CYLINDRICAL_SURFACE('',#1347,0.15);
#84=CYLINDRICAL_SURFACE('',#1364,0.15);
#85=CYLINDRICAL_SURFACE('',#1368,0.149999999999999);
#86=VERTEX_POINT('',#1057);
#87=VERTEX_POINT('',#1058);
#88=VERTEX_POINT('',#1060);
#89=VERTEX_POINT('',#1062);
#90=VERTEX_POINT('',#1064);
#91=VERTEX_POINT('',#1066);
#92=VERTEX_POINT('',#1068);
#93=VERTEX_POINT('',#1070);
#94=VERTEX_POINT('',#1074);
#95=VERTEX_POINT('',#1076);
#96=VERTEX_POINT('',#1080);
#97=VERTEX_POINT('',#1082);
#98=VERTEX_POINT('',#1091);
#99=VERTEX_POINT('',#1092);
#100=VERTEX_POINT('',#1094);
#101=VERTEX_POINT('',#1101);
#102=VERTEX_POINT('',#1105);
#103=VERTEX_POINT('',#1107);
#104=VERTEX_POINT('',#1116);
#105=VERTEX_POINT('',#1117);
#106=VERTEX_POINT('',#1119);
#107=VERTEX_POINT('',#1126);
#108=VERTEX_POINT('',#1130);
#109=VERTEX_POINT('',#1132);
#110=VERTEX_POINT('',#1137);
#111=VERTEX_POINT('',#1138);
#112=VERTEX_POINT('',#1140);
#113=VERTEX_POINT('',#1142);
#114=VERTEX_POINT('',#1146);
#115=VERTEX_POINT('',#1147);
#116=VERTEX_POINT('',#1149);
#117=VERTEX_POINT('',#1151);
#118=VERTEX_POINT('',#1155);
#119=VERTEX_POINT('',#1157);
#120=VERTEX_POINT('',#1161);
#121=VERTEX_POINT('',#1162);
#122=VERTEX_POINT('',#1164);
#123=VERTEX_POINT('',#1166);
#124=VERTEX_POINT('',#1170);
#125=VERTEX_POINT('',#1171);
#126=VERTEX_POINT('',#1173);
#127=VERTEX_POINT('',#1175);
#128=VERTEX_POINT('',#1179);
#129=VERTEX_POINT('',#1181);
#130=VERTEX_POINT('',#1191);
#131=VERTEX_POINT('',#1193);
#132=VERTEX_POINT('',#1203);
#133=VERTEX_POINT('',#1206);
#134=VERTEX_POINT('',#1210);
#135=VERTEX_POINT('',#1215);
#136=VERTEX_POINT('',#1219);
#137=VERTEX_POINT('',#1222);
#138=VERTEX_POINT('',#1226);
#139=VERTEX_POINT('',#1227);
#140=VERTEX_POINT('',#1237);
#141=VERTEX_POINT('',#1246);
#142=VERTEX_POINT('',#1257);
#143=VERTEX_POINT('',#1259);
#144=VERTEX_POINT('',#1268);
#145=VERTEX_POINT('',#1272);
#146=VERTEX_POINT('',#1278);
#147=VERTEX_POINT('',#1284);
#148=VERTEX_POINT('',#1288);
#149=VERTEX_POINT('',#1296);
#150=VERTEX_POINT('',#1302);
#151=VERTEX_POINT('',#1304);
#152=VERTEX_POINT('',#1308);
#153=VERTEX_POINT('',#1313);
#154=VERTEX_POINT('',#1315);
#155=VERTEX_POINT('',#1319);
#156=VERTEX_POINT('',#1323);
#157=VERTEX_POINT('',#1328);
#158=VECTOR('',#901,1.);
#159=VECTOR('',#902,1.);
#160=VECTOR('',#903,1.);
#161=VECTOR('',#904,1.);
#162=VECTOR('',#905,1.);
#163=VECTOR('',#906,1.);
#164=VECTOR('',#907,1.);
#165=VECTOR('',#908,1.);
#166=VECTOR('',#910,1.);
#167=VECTOR('',#911,1.);
#168=VECTOR('',#912,1.);
#169=VECTOR('',#914,1.);
#170=VECTOR('',#915,1.);
#171=VECTOR('',#916,1.);
#172=VECTOR('',#919,1.);
#173=VECTOR('',#920,1.);
#174=VECTOR('',#922,1.);
#175=VECTOR('',#923,1.);
#176=VECTOR('',#924,1.);
#177=VECTOR('',#927,1.);
#178=VECTOR('',#928,1.);
#179=VECTOR('',#930,1.);
#180=VECTOR('',#931,1.);
#181=VECTOR('',#932,1.);
#182=VECTOR('',#933,1.);
#183=VECTOR('',#935,1.);
#184=VECTOR('',#936,1.);
#185=VECTOR('',#937,1.);
#186=VECTOR('',#938,1.);
#187=VECTOR('',#940,1.);
#188=VECTOR('',#941,1.);
#189=VECTOR('',#942,1.);
#190=VECTOR('',#943,1.);
#191=VECTOR('',#945,1.);
#192=VECTOR('',#946,1.);
#193=VECTOR('',#947,1.);
#194=VECTOR('',#949,1.);
#195=VECTOR('',#950,1.);
#196=VECTOR('',#951,1.);
#197=VECTOR('',#952,1.);
#198=VECTOR('',#954,1.);
#199=VECTOR('',#955,1.);
#200=VECTOR('',#956,1.);
#201=VECTOR('',#957,1.);
#202=VECTOR('',#959,1.);
#203=VECTOR('',#960,1.);
#204=VECTOR('',#961,1.);
#205=VECTOR('',#963,1.);
#206=VECTOR('',#964,1.);
#207=VECTOR('',#966,1.);
#208=VECTOR('',#967,1.);
#209=VECTOR('',#969,1.);
#210=VECTOR('',#970,1.);
#211=VECTOR('',#971,1.);
#212=VECTOR('',#973,1.);
#213=VECTOR('',#974,1.);
#214=VECTOR('',#976,1.);
#215=VECTOR('',#977,1.);
#216=VECTOR('',#979,1.);
#217=VECTOR('',#980,1.);
#218=VECTOR('',#981,1.);
#219=VECTOR('',#982,1.);
#220=VECTOR('',#984,1.);
#221=VECTOR('',#985,1.);
#222=VECTOR('',#986,1.);
#223=VECTOR('',#987,1.);
#224=VECTOR('',#988,1.);
#225=VECTOR('',#989,1.);
#226=VECTOR('',#991,1.);
#227=VECTOR('',#992,1.);
#228=VECTOR('',#993,1.);
#229=VECTOR('',#994,1.);
#230=VECTOR('',#996,1.);
#231=VECTOR('',#997,1.);
#232=VECTOR('',#1000,1.);
#233=VECTOR('',#1002,1.);
#234=VECTOR('',#1003,1.);
#235=VECTOR('',#1005,1.);
#236=VECTOR('',#1007,1.);
#237=VECTOR('',#1008,1.);
#238=VECTOR('',#1011,1.);
#239=VECTOR('',#1013,1.);
#240=VECTOR('',#1014,1.);
#241=VECTOR('',#1016,1.);
#242=VECTOR('',#1018,1.);
#243=VECTOR('',#1019,1.);
#244=VECTOR('',#1021,1.);
#245=VECTOR('',#1023,1.);
#246=VECTOR('',#1024,1.);
#247=VECTOR('',#1026,1.);
#248=VECTOR('',#1027,1.);
#249=VECTOR('',#1029,1.);
#250=VECTOR('',#1031,1.);
#251=VECTOR('',#1033,1.);
#252=VECTOR('',#1034,1.);
#253=VECTOR('',#1036,1.);
#254=VECTOR('',#1038,1.);
#255=VECTOR('',#1039,1.);
#256=VECTOR('',#1040,1.);
#257=VECTOR('',#1042,1.);
#258=VECTOR('',#1043,1.);
#259=VECTOR('',#1044,1.);
#260=VECTOR('',#1046,1.);
#261=VECTOR('',#1047,1.);
#262=VECTOR('',#1049,1.);
#263=VECTOR('',#1050,1.);
#264=LINE('',#1056,#158);
#265=LINE('',#1059,#159);
#266=LINE('',#1061,#160);
#267=LINE('',#1063,#161);
#268=LINE('',#1065,#162);
#269=LINE('',#1067,#163);
#270=LINE('',#1069,#164);
#271=LINE('',#1071,#165);
#272=LINE('',#1073,#166);
#273=LINE('',#1075,#167);
#274=LINE('',#1077,#168);
#275=LINE('',#1079,#169);
#276=LINE('',#1081,#170);
#277=LINE('',#1083,#171);
#278=LINE('',#1093,#172);
#279=LINE('',#1102,#173);
#280=LINE('',#1104,#174);
#281=LINE('',#1106,#175);
#282=LINE('',#1108,#176);
#283=LINE('',#1118,#177);
#284=LINE('',#1127,#178);
#285=LINE('',#1129,#179);
#286=LINE('',#1131,#180);
#287=LINE('',#1133,#181);
#288=LINE('',#1134,#182);
#289=LINE('',#1136,#183);
#290=LINE('',#1139,#184);
#291=LINE('',#1141,#185);
#292=LINE('',#1143,#186);
#293=LINE('',#1145,#187);
#294=LINE('',#1148,#188);
#295=LINE('',#1150,#189);
#296=LINE('',#1152,#190);
#297=LINE('',#1154,#191);
#298=LINE('',#1156,#192);
#299=LINE('',#1158,#193);
#300=LINE('',#1160,#194);
#301=LINE('',#1163,#195);
#302=LINE('',#1165,#196);
#303=LINE('',#1167,#197);
#304=LINE('',#1169,#198);
#305=LINE('',#1172,#199);
#306=LINE('',#1174,#200);
#307=LINE('',#1176,#201);
#308=LINE('',#1178,#202);
#309=LINE('',#1180,#203);
#310=LINE('',#1182,#204);
#311=LINE('',#1184,#205);
#312=LINE('',#1185,#206);
#313=LINE('',#1187,#207);
#314=LINE('',#1188,#208);
#315=LINE('',#1190,#209);
#316=LINE('',#1192,#210);
#317=LINE('',#1194,#211);
#318=LINE('',#1196,#212);
#319=LINE('',#1197,#213);
#320=LINE('',#1199,#214);
#321=LINE('',#1200,#215);
#322=LINE('',#1202,#216);
#323=LINE('',#1204,#217);
#324=LINE('',#1205,#218);
#325=LINE('',#1207,#219);
#326=LINE('',#1209,#220);
#327=LINE('',#1211,#221);
#328=LINE('',#1212,#222);
#329=LINE('',#1213,#223);
#330=LINE('',#1214,#224);
#331=LINE('',#1216,#225);
#332=LINE('',#1218,#226);
#333=LINE('',#1220,#227);
#334=LINE('',#1221,#228);
#335=LINE('',#1223,#229);
#336=LINE('',#1225,#230);
#337=LINE('',#1234,#231);
#338=LINE('',#1236,#232);
#339=LINE('',#1245,#233);
#340=LINE('',#1247,#234);
#341=LINE('',#1249,#235);
#342=LINE('',#1258,#236);
#343=LINE('',#1260,#237);
#344=LINE('',#1269,#238);
#345=LINE('',#1271,#239);
#346=LINE('',#1273,#240);
#347=LINE('',#1275,#241);
#348=LINE('',#1277,#242);
#349=LINE('',#1279,#243);
#350=LINE('',#1281,#244);
#351=LINE('',#1283,#245);
#352=LINE('',#1285,#246);
#353=LINE('',#1287,#247);
#354=LINE('',#1289,#248);
#355=LINE('',#1291,#249);
#356=LINE('',#1293,#250);
#357=LINE('',#1295,#251);
#358=LINE('',#1297,#252);
#359=LINE('',#1299,#253);
#360=LINE('',#1301,#254);
#361=LINE('',#1303,#255);
#362=LINE('',#1305,#256);
#363=LINE('',#1307,#257);
#364=LINE('',#1314,#258);
#365=LINE('',#1316,#259);
#366=LINE('',#1318,#260);
#367=LINE('',#1320,#261);
#368=LINE('',#1322,#262);
#369=LINE('',#1329,#263);
#370=EDGE_CURVE('',#86,#87,#264,.T.);
#371=EDGE_CURVE('',#88,#86,#265,.T.);
#372=EDGE_CURVE('',#89,#88,#266,.T.);
#373=EDGE_CURVE('',#90,#89,#267,.T.);
#374=EDGE_CURVE('',#91,#90,#268,.T.);
#375=EDGE_CURVE('',#91,#92,#269,.T.);
#376=EDGE_CURVE('',#93,#92,#270,.T.);
#377=EDGE_CURVE('',#87,#93,#271,.T.);
#378=EDGE_CURVE('',#94,#91,#272,.T.);
#379=EDGE_CURVE('',#94,#95,#273,.T.);
#380=EDGE_CURVE('',#92,#95,#274,.T.);
#381=EDGE_CURVE('',#96,#94,#275,.T.);
#382=EDGE_CURVE('',#96,#97,#276,.T.);
#383=EDGE_CURVE('',#95,#97,#277,.T.);
#384=EDGE_CURVE('',#98,#99,#70,.T.);
#385=EDGE_CURVE('',#98,#100,#278,.T.);
#386=EDGE_CURVE('',#101,#100,#71,.T.);
#387=EDGE_CURVE('',#101,#99,#279,.T.);
#388=EDGE_CURVE('',#88,#102,#280,.T.);
#389=EDGE_CURVE('',#103,#86,#281,.T.);
#390=EDGE_CURVE('',#103,#102,#282,.T.);
#391=EDGE_CURVE('',#104,#105,#72,.T.);
#392=EDGE_CURVE('',#104,#106,#283,.T.);
#393=EDGE_CURVE('',#107,#106,#73,.T.);
#394=EDGE_CURVE('',#107,#105,#284,.T.);
#395=EDGE_CURVE('',#108,#89,#285,.T.);
#396=EDGE_CURVE('',#108,#109,#286,.T.);
#397=EDGE_CURVE('',#87,#109,#287,.T.);
#398=EDGE_CURVE('',#87,#89,#288,.T.);
#399=EDGE_CURVE('',#110,#111,#289,.T.);
#400=EDGE_CURVE('',#112,#111,#290,.T.);
#401=EDGE_CURVE('',#112,#113,#291,.T.);
#402=EDGE_CURVE('',#110,#113,#292,.T.);
#403=EDGE_CURVE('',#114,#115,#293,.T.);
#404=EDGE_CURVE('',#114,#116,#294,.T.);
#405=EDGE_CURVE('',#117,#116,#295,.T.);
#406=EDGE_CURVE('',#117,#115,#296,.T.);
#407=EDGE_CURVE('',#118,#96,#297,.T.);
#408=EDGE_CURVE('',#118,#119,#298,.T.);
#409=EDGE_CURVE('',#97,#119,#299,.T.);
#410=EDGE_CURVE('',#120,#121,#300,.T.);
#411=EDGE_CURVE('',#122,#121,#301,.T.);
#412=EDGE_CURVE('',#122,#123,#302,.T.);
#413=EDGE_CURVE('',#120,#123,#303,.T.);
#414=EDGE_CURVE('',#124,#125,#304,.T.);
#415=EDGE_CURVE('',#124,#126,#305,.T.);
#416=EDGE_CURVE('',#127,#126,#306,.T.);
#417=EDGE_CURVE('',#127,#125,#307,.T.);
#418=EDGE_CURVE('',#98,#128,#308,.T.);
#419=EDGE_CURVE('',#128,#129,#309,.T.);
#420=EDGE_CURVE('',#129,#100,#310,.T.);
#421=EDGE_CURVE('',#114,#99,#311,.T.);
#422=EDGE_CURVE('',#101,#116,#312,.T.);
#423=EDGE_CURVE('',#120,#126,#313,.T.);
#424=EDGE_CURVE('',#124,#121,#314,.T.);
#425=EDGE_CURVE('',#130,#105,#315,.T.);
#426=EDGE_CURVE('',#107,#131,#316,.T.);
#427=EDGE_CURVE('',#131,#130,#317,.T.);
#428=EDGE_CURVE('',#104,#102,#318,.T.);
#429=EDGE_CURVE('',#103,#106,#319,.T.);
#430=EDGE_CURVE('',#108,#111,#320,.T.);
#431=EDGE_CURVE('',#110,#109,#321,.T.);
#432=EDGE_CURVE('',#132,#112,#322,.T.);
#433=EDGE_CURVE('',#132,#90,#323,.T.);
#434=EDGE_CURVE('',#93,#133,#324,.T.);
#435=EDGE_CURVE('',#113,#133,#325,.T.);
#436=EDGE_CURVE('',#118,#134,#326,.T.);
#437=EDGE_CURVE('',#134,#127,#327,.T.);
#438=EDGE_CURVE('',#127,#115,#328,.T.);
#439=EDGE_CURVE('',#117,#125,#329,.T.);
#440=EDGE_CURVE('',#125,#135,#330,.T.);
#441=EDGE_CURVE('',#135,#119,#331,.T.);
#442=EDGE_CURVE('',#134,#136,#332,.T.);
#443=EDGE_CURVE('',#123,#136,#333,.T.);
#444=EDGE_CURVE('',#137,#122,#334,.T.);
#445=EDGE_CURVE('',#137,#135,#335,.T.);
#446=EDGE_CURVE('',#138,#139,#336,.T.);
#447=EDGE_CURVE('',#139,#128,#74,.T.);
#448=EDGE_CURVE('',#123,#138,#337,.T.);
#449=EDGE_CURVE('',#139,#140,#338,.T.);
#450=EDGE_CURVE('',#140,#129,#75,.T.);
#451=EDGE_CURVE('',#140,#141,#339,.T.);
#452=EDGE_CURVE('',#141,#122,#340,.T.);
#453=EDGE_CURVE('',#137,#133,#341,.T.);
#454=EDGE_CURVE('',#142,#131,#76,.T.);
#455=EDGE_CURVE('',#113,#143,#342,.T.);
#456=EDGE_CURVE('',#143,#142,#343,.T.);
#457=EDGE_CURVE('',#144,#130,#77,.T.);
#458=EDGE_CURVE('',#142,#144,#344,.T.);
#459=EDGE_CURVE('',#144,#145,#345,.T.);
#460=EDGE_CURVE('',#145,#112,#346,.T.);
#461=EDGE_CURVE('',#132,#136,#347,.T.);
#462=EDGE_CURVE('',#136,#146,#348,.T.);
#463=EDGE_CURVE('',#146,#138,#349,.T.);
#464=EDGE_CURVE('',#138,#141,#350,.T.);
#465=EDGE_CURVE('',#141,#147,#351,.T.);
#466=EDGE_CURVE('',#147,#137,#352,.T.);
#467=EDGE_CURVE('',#147,#148,#353,.T.);
#468=EDGE_CURVE('',#148,#133,#354,.T.);
#469=EDGE_CURVE('',#148,#143,#355,.T.);
#470=EDGE_CURVE('',#143,#145,#356,.T.);
#471=EDGE_CURVE('',#149,#132,#357,.T.);
#472=EDGE_CURVE('',#145,#149,#358,.T.);
#473=EDGE_CURVE('',#149,#146,#359,.T.);
#474=EDGE_CURVE('',#146,#150,#360,.T.);
#475=EDGE_CURVE('',#150,#151,#361,.T.);
#476=EDGE_CURVE('',#151,#147,#362,.T.);
#477=EDGE_CURVE('',#151,#152,#363,.T.);
#478=EDGE_CURVE('',#153,#152,#78,.T.);
#479=EDGE_CURVE('',#153,#154,#364,.T.);
#480=EDGE_CURVE('',#154,#148,#365,.T.);
#481=EDGE_CURVE('',#154,#155,#366,.T.);
#482=EDGE_CURVE('',#155,#149,#367,.T.);
#483=EDGE_CURVE('',#155,#156,#368,.T.);
#484=EDGE_CURVE('',#157,#156,#79,.T.);
#485=EDGE_CURVE('',#157,#150,#369,.T.);
#486=EDGE_CURVE('',#157,#152,#80,.T.);
#487=EDGE_CURVE('',#153,#156,#81,.T.);
#488=ORIENTED_EDGE('',*,*,#370,.F.);
#489=ORIENTED_EDGE('',*,*,#371,.F.);
#490=ORIENTED_EDGE('',*,*,#372,.F.);
#491=ORIENTED_EDGE('',*,*,#373,.F.);
#492=ORIENTED_EDGE('',*,*,#374,.F.);
#493=ORIENTED_EDGE('',*,*,#375,.T.);
#494=ORIENTED_EDGE('',*,*,#376,.F.);
#495=ORIENTED_EDGE('',*,*,#377,.F.);
#496=ORIENTED_EDGE('',*,*,#378,.F.);
#497=ORIENTED_EDGE('',*,*,#379,.T.);
#498=ORIENTED_EDGE('',*,*,#380,.F.);
#499=ORIENTED_EDGE('',*,*,#375,.F.);
#500=ORIENTED_EDGE('',*,*,#381,.F.);
#501=ORIENTED_EDGE('',*,*,#382,.T.);
#502=ORIENTED_EDGE('',*,*,#383,.F.);
#503=ORIENTED_EDGE('',*,*,#379,.F.);
#504=ORIENTED_EDGE('',*,*,#384,.F.);
#505=ORIENTED_EDGE('',*,*,#385,.T.);
#506=ORIENTED_EDGE('',*,*,#386,.F.);
#507=ORIENTED_EDGE('',*,*,#387,.T.);
#508=ORIENTED_EDGE('',*,*,#388,.F.);
#509=ORIENTED_EDGE('',*,*,#371,.T.);
#510=ORIENTED_EDGE('',*,*,#389,.F.);
#511=ORIENTED_EDGE('',*,*,#390,.T.);
#512=ORIENTED_EDGE('',*,*,#391,.F.);
#513=ORIENTED_EDGE('',*,*,#392,.T.);
#514=ORIENTED_EDGE('',*,*,#393,.F.);
#515=ORIENTED_EDGE('',*,*,#394,.T.);
#516=ORIENTED_EDGE('',*,*,#395,.F.);
#517=ORIENTED_EDGE('',*,*,#396,.T.);
#518=ORIENTED_EDGE('',*,*,#397,.F.);
#519=ORIENTED_EDGE('',*,*,#398,.T.);
#520=ORIENTED_EDGE('',*,*,#399,.T.);
#521=ORIENTED_EDGE('',*,*,#400,.F.);
#522=ORIENTED_EDGE('',*,*,#401,.T.);
#523=ORIENTED_EDGE('',*,*,#402,.F.);
#524=ORIENTED_EDGE('',*,*,#403,.F.);
#525=ORIENTED_EDGE('',*,*,#404,.T.);
#526=ORIENTED_EDGE('',*,*,#405,.F.);
#527=ORIENTED_EDGE('',*,*,#406,.T.);
#528=ORIENTED_EDGE('',*,*,#382,.F.);
#529=ORIENTED_EDGE('',*,*,#407,.F.);
#530=ORIENTED_EDGE('',*,*,#408,.T.);
#531=ORIENTED_EDGE('',*,*,#409,.F.);
#532=ORIENTED_EDGE('',*,*,#410,.T.);
#533=ORIENTED_EDGE('',*,*,#411,.F.);
#534=ORIENTED_EDGE('',*,*,#412,.T.);
#535=ORIENTED_EDGE('',*,*,#413,.F.);
#536=ORIENTED_EDGE('',*,*,#414,.F.);
#537=ORIENTED_EDGE('',*,*,#415,.T.);
#538=ORIENTED_EDGE('',*,*,#416,.F.);
#539=ORIENTED_EDGE('',*,*,#417,.T.);
#540=ORIENTED_EDGE('',*,*,#418,.T.);
#541=ORIENTED_EDGE('',*,*,#419,.T.);
#542=ORIENTED_EDGE('',*,*,#420,.T.);
#543=ORIENTED_EDGE('',*,*,#385,.F.);
#544=ORIENTED_EDGE('',*,*,#421,.T.);
#545=ORIENTED_EDGE('',*,*,#387,.F.);
#546=ORIENTED_EDGE('',*,*,#422,.T.);
#547=ORIENTED_EDGE('',*,*,#404,.F.);
#548=ORIENTED_EDGE('',*,*,#423,.T.);
#549=ORIENTED_EDGE('',*,*,#415,.F.);
#550=ORIENTED_EDGE('',*,*,#424,.T.);
#551=ORIENTED_EDGE('',*,*,#410,.F.);
#552=ORIENTED_EDGE('',*,*,#425,.T.);
#553=ORIENTED_EDGE('',*,*,#394,.F.);
#554=ORIENTED_EDGE('',*,*,#426,.T.);
#555=ORIENTED_EDGE('',*,*,#427,.T.);
#556=ORIENTED_EDGE('',*,*,#428,.T.);
#557=ORIENTED_EDGE('',*,*,#390,.F.);
#558=ORIENTED_EDGE('',*,*,#429,.T.);
#559=ORIENTED_EDGE('',*,*,#392,.F.);
#560=ORIENTED_EDGE('',*,*,#430,.T.);
#561=ORIENTED_EDGE('',*,*,#399,.F.);
#562=ORIENTED_EDGE('',*,*,#431,.T.);
#563=ORIENTED_EDGE('',*,*,#396,.F.);
#564=ORIENTED_EDGE('',*,*,#401,.F.);
#565=ORIENTED_EDGE('',*,*,#432,.F.);
#566=ORIENTED_EDGE('',*,*,#433,.T.);
#567=ORIENTED_EDGE('',*,*,#373,.T.);
#568=ORIENTED_EDGE('',*,*,#398,.F.);
#569=ORIENTED_EDGE('',*,*,#377,.T.);
#570=ORIENTED_EDGE('',*,*,#434,.T.);
#571=ORIENTED_EDGE('',*,*,#435,.F.);
#572=ORIENTED_EDGE('',*,*,#436,.T.);
#573=ORIENTED_EDGE('',*,*,#437,.T.);
#574=ORIENTED_EDGE('',*,*,#438,.T.);
#575=ORIENTED_EDGE('',*,*,#406,.F.);
#576=ORIENTED_EDGE('',*,*,#439,.T.);
#577=ORIENTED_EDGE('',*,*,#440,.T.);
#578=ORIENTED_EDGE('',*,*,#441,.T.);
#579=ORIENTED_EDGE('',*,*,#408,.F.);
#580=ORIENTED_EDGE('',*,*,#440,.F.);
#581=ORIENTED_EDGE('',*,*,#417,.F.);
#582=ORIENTED_EDGE('',*,*,#437,.F.);
#583=ORIENTED_EDGE('',*,*,#442,.T.);
#584=ORIENTED_EDGE('',*,*,#443,.F.);
#585=ORIENTED_EDGE('',*,*,#412,.F.);
#586=ORIENTED_EDGE('',*,*,#444,.F.);
#587=ORIENTED_EDGE('',*,*,#445,.T.);
#588=ORIENTED_EDGE('',*,*,#446,.T.);
#589=ORIENTED_EDGE('',*,*,#447,.T.);
#590=ORIENTED_EDGE('',*,*,#418,.F.);
#591=ORIENTED_EDGE('',*,*,#384,.T.);
#592=ORIENTED_EDGE('',*,*,#421,.F.);
#593=ORIENTED_EDGE('',*,*,#403,.T.);
#594=ORIENTED_EDGE('',*,*,#438,.F.);
#595=ORIENTED_EDGE('',*,*,#416,.T.);
#596=ORIENTED_EDGE('',*,*,#423,.F.);
#597=ORIENTED_EDGE('',*,*,#413,.T.);
#598=ORIENTED_EDGE('',*,*,#448,.T.);
#599=ORIENTED_EDGE('',*,*,#447,.F.);
#600=ORIENTED_EDGE('',*,*,#449,.T.);
#601=ORIENTED_EDGE('',*,*,#450,.T.);
#602=ORIENTED_EDGE('',*,*,#419,.F.);
#603=ORIENTED_EDGE('',*,*,#424,.F.);
#604=ORIENTED_EDGE('',*,*,#414,.T.);
#605=ORIENTED_EDGE('',*,*,#439,.F.);
#606=ORIENTED_EDGE('',*,*,#405,.T.);
#607=ORIENTED_EDGE('',*,*,#422,.F.);
#608=ORIENTED_EDGE('',*,*,#386,.T.);
#609=ORIENTED_EDGE('',*,*,#420,.F.);
#610=ORIENTED_EDGE('',*,*,#450,.F.);
#611=ORIENTED_EDGE('',*,*,#451,.T.);
#612=ORIENTED_EDGE('',*,*,#452,.T.);
#613=ORIENTED_EDGE('',*,*,#411,.T.);
#614=ORIENTED_EDGE('',*,*,#376,.T.);
#615=ORIENTED_EDGE('',*,*,#380,.T.);
#616=ORIENTED_EDGE('',*,*,#383,.T.);
#617=ORIENTED_EDGE('',*,*,#409,.T.);
#618=ORIENTED_EDGE('',*,*,#441,.F.);
#619=ORIENTED_EDGE('',*,*,#445,.F.);
#620=ORIENTED_EDGE('',*,*,#453,.T.);
#621=ORIENTED_EDGE('',*,*,#434,.F.);
#622=ORIENTED_EDGE('',*,*,#454,.T.);
#623=ORIENTED_EDGE('',*,*,#426,.F.);
#624=ORIENTED_EDGE('',*,*,#393,.T.);
#625=ORIENTED_EDGE('',*,*,#429,.F.);
#626=ORIENTED_EDGE('',*,*,#389,.T.);
#627=ORIENTED_EDGE('',*,*,#370,.T.);
#628=ORIENTED_EDGE('',*,*,#397,.T.);
#629=ORIENTED_EDGE('',*,*,#431,.F.);
#630=ORIENTED_EDGE('',*,*,#402,.T.);
#631=ORIENTED_EDGE('',*,*,#455,.T.);
#632=ORIENTED_EDGE('',*,*,#456,.T.);
#633=ORIENTED_EDGE('',*,*,#457,.T.);
#634=ORIENTED_EDGE('',*,*,#427,.F.);
#635=ORIENTED_EDGE('',*,*,#454,.F.);
#636=ORIENTED_EDGE('',*,*,#458,.T.);
#637=ORIENTED_EDGE('',*,*,#400,.T.);
#638=ORIENTED_EDGE('',*,*,#430,.F.);
#639=ORIENTED_EDGE('',*,*,#395,.T.);
#640=ORIENTED_EDGE('',*,*,#372,.T.);
#641=ORIENTED_EDGE('',*,*,#388,.T.);
#642=ORIENTED_EDGE('',*,*,#428,.F.);
#643=ORIENTED_EDGE('',*,*,#391,.T.);
#644=ORIENTED_EDGE('',*,*,#425,.F.);
#645=ORIENTED_EDGE('',*,*,#457,.F.);
#646=ORIENTED_EDGE('',*,*,#459,.T.);
#647=ORIENTED_EDGE('',*,*,#460,.T.);
#648=ORIENTED_EDGE('',*,*,#442,.F.);
#649=ORIENTED_EDGE('',*,*,#436,.F.);
#650=ORIENTED_EDGE('',*,*,#407,.T.);
#651=ORIENTED_EDGE('',*,*,#381,.T.);
#652=ORIENTED_EDGE('',*,*,#378,.T.);
#653=ORIENTED_EDGE('',*,*,#374,.T.);
#654=ORIENTED_EDGE('',*,*,#433,.F.);
#655=ORIENTED_EDGE('',*,*,#461,.T.);
#656=ORIENTED_EDGE('',*,*,#443,.T.);
#657=ORIENTED_EDGE('',*,*,#462,.T.);
#658=ORIENTED_EDGE('',*,*,#463,.T.);
#659=ORIENTED_EDGE('',*,*,#448,.F.);
#660=ORIENTED_EDGE('',*,*,#449,.F.);
#661=ORIENTED_EDGE('',*,*,#446,.F.);
#662=ORIENTED_EDGE('',*,*,#464,.T.);
#663=ORIENTED_EDGE('',*,*,#451,.F.);
#664=ORIENTED_EDGE('',*,*,#465,.T.);
#665=ORIENTED_EDGE('',*,*,#466,.T.);
#666=ORIENTED_EDGE('',*,*,#444,.T.);
#667=ORIENTED_EDGE('',*,*,#452,.F.);
#668=ORIENTED_EDGE('',*,*,#453,.F.);
#669=ORIENTED_EDGE('',*,*,#466,.F.);
#670=ORIENTED_EDGE('',*,*,#467,.T.);
#671=ORIENTED_EDGE('',*,*,#468,.T.);
#672=ORIENTED_EDGE('',*,*,#468,.F.);
#673=ORIENTED_EDGE('',*,*,#469,.T.);
#674=ORIENTED_EDGE('',*,*,#455,.F.);
#675=ORIENTED_EDGE('',*,*,#435,.T.);
#676=ORIENTED_EDGE('',*,*,#458,.F.);
#677=ORIENTED_EDGE('',*,*,#456,.F.);
#678=ORIENTED_EDGE('',*,*,#470,.T.);
#679=ORIENTED_EDGE('',*,*,#459,.F.);
#680=ORIENTED_EDGE('',*,*,#471,.T.);
#681=ORIENTED_EDGE('',*,*,#432,.T.);
#682=ORIENTED_EDGE('',*,*,#460,.F.);
#683=ORIENTED_EDGE('',*,*,#472,.T.);
#684=ORIENTED_EDGE('',*,*,#462,.F.);
#685=ORIENTED_EDGE('',*,*,#461,.F.);
#686=ORIENTED_EDGE('',*,*,#471,.F.);
#687=ORIENTED_EDGE('',*,*,#473,.T.);
#688=ORIENTED_EDGE('',*,*,#464,.F.);
#689=ORIENTED_EDGE('',*,*,#463,.F.);
#690=ORIENTED_EDGE('',*,*,#474,.T.);
#691=ORIENTED_EDGE('',*,*,#475,.T.);
#692=ORIENTED_EDGE('',*,*,#476,.T.);
#693=ORIENTED_EDGE('',*,*,#465,.F.);
#694=ORIENTED_EDGE('',*,*,#476,.F.);
#695=ORIENTED_EDGE('',*,*,#477,.T.);
#696=ORIENTED_EDGE('',*,*,#478,.F.);
#697=ORIENTED_EDGE('',*,*,#479,.T.);
#698=ORIENTED_EDGE('',*,*,#480,.T.);
#699=ORIENTED_EDGE('',*,*,#467,.F.);
#700=ORIENTED_EDGE('',*,*,#481,.T.);
#701=ORIENTED_EDGE('',*,*,#482,.T.);
#702=ORIENTED_EDGE('',*,*,#472,.F.);
#703=ORIENTED_EDGE('',*,*,#470,.F.);
#704=ORIENTED_EDGE('',*,*,#469,.F.);
#705=ORIENTED_EDGE('',*,*,#480,.F.);
#706=ORIENTED_EDGE('',*,*,#483,.T.);
#707=ORIENTED_EDGE('',*,*,#484,.F.);
#708=ORIENTED_EDGE('',*,*,#485,.T.);
#709=ORIENTED_EDGE('',*,*,#474,.F.);
#710=ORIENTED_EDGE('',*,*,#473,.F.);
#711=ORIENTED_EDGE('',*,*,#482,.F.);
#712=ORIENTED_EDGE('',*,*,#475,.F.);
#713=ORIENTED_EDGE('',*,*,#485,.F.);
#714=ORIENTED_EDGE('',*,*,#486,.T.);
#715=ORIENTED_EDGE('',*,*,#477,.F.);
#716=ORIENTED_EDGE('',*,*,#481,.F.);
#717=ORIENTED_EDGE('',*,*,#479,.F.);
#718=ORIENTED_EDGE('',*,*,#487,.T.);
#719=ORIENTED_EDGE('',*,*,#483,.F.);
#720=ORIENTED_EDGE('',*,*,#487,.F.);
#721=ORIENTED_EDGE('',*,*,#478,.T.);
#722=ORIENTED_EDGE('',*,*,#486,.F.);
#723=ORIENTED_EDGE('',*,*,#484,.T.);
#724=EDGE_LOOP('',(#488,#489,#490,#491,#492,#493,#494,#495));
#725=EDGE_LOOP('',(#496,#497,#498,#499));
#726=EDGE_LOOP('',(#500,#501,#502,#503));
#727=EDGE_LOOP('',(#504,#505,#506,#507));
#728=EDGE_LOOP('',(#508,#509,#510,#511));
#729=EDGE_LOOP('',(#512,#513,#514,#515));
#730=EDGE_LOOP('',(#516,#517,#518,#519));
#731=EDGE_LOOP('',(#520,#521,#522,#523));
#732=EDGE_LOOP('',(#524,#525,#526,#527));
#733=EDGE_LOOP('',(#528,#529,#530,#531));
#734=EDGE_LOOP('',(#532,#533,#534,#535));
#735=EDGE_LOOP('',(#536,#537,#538,#539));
#736=EDGE_LOOP('',(#540,#541,#542,#543));
#737=EDGE_LOOP('',(#544,#545,#546,#547));
#738=EDGE_LOOP('',(#548,#549,#550,#551));
#739=EDGE_LOOP('',(#552,#553,#554,#555));
#740=EDGE_LOOP('',(#556,#557,#558,#559));
#741=EDGE_LOOP('',(#560,#561,#562,#563));
#742=EDGE_LOOP('',(#564,#565,#566,#567,#568,#569,#570,#571));
#743=EDGE_LOOP('',(#572,#573,#574,#575,#576,#577,#578,#579));
#744=EDGE_LOOP('',(#580,#581,#582,#583,#584,#585,#586,#587));
#745=EDGE_LOOP('',(#588,#589,#590,#591,#592,#593,#594,#595,#596,#597,#598));
#746=EDGE_LOOP('',(#599,#600,#601,#602));
#747=EDGE_LOOP('',(#603,#604,#605,#606,#607,#608,#609,#610,#611,#612,#613));
#748=EDGE_LOOP('',(#614,#615,#616,#617,#618,#619,#620,#621));
#749=EDGE_LOOP('',(#622,#623,#624,#625,#626,#627,#628,#629,#630,#631,#632));
#750=EDGE_LOOP('',(#633,#634,#635,#636));
#751=EDGE_LOOP('',(#637,#638,#639,#640,#641,#642,#643,#644,#645,#646,#647));
#752=EDGE_LOOP('',(#648,#649,#650,#651,#652,#653,#654,#655));
#753=EDGE_LOOP('',(#656,#657,#658,#659));
#754=EDGE_LOOP('',(#660,#661,#662,#663));
#755=EDGE_LOOP('',(#664,#665,#666,#667));
#756=EDGE_LOOP('',(#668,#669,#670,#671));
#757=EDGE_LOOP('',(#672,#673,#674,#675));
#758=EDGE_LOOP('',(#676,#677,#678,#679));
#759=EDGE_LOOP('',(#680,#681,#682,#683));
#760=EDGE_LOOP('',(#684,#685,#686,#687));
#761=EDGE_LOOP('',(#688,#689,#690,#691,#692,#693));
#762=EDGE_LOOP('',(#694,#695,#696,#697,#698,#699));
#763=EDGE_LOOP('',(#700,#701,#702,#703,#704,#705));
#764=EDGE_LOOP('',(#706,#707,#708,#709,#710,#711));
#765=EDGE_LOOP('',(#712,#713,#714,#715));
#766=EDGE_LOOP('',(#716,#717,#718,#719));
#767=EDGE_LOOP('',(#720,#721,#722,#723));
#768=FACE_BOUND('',#724,.T.);
#769=FACE_BOUND('',#725,.T.);
#770=FACE_BOUND('',#726,.T.);
#771=FACE_BOUND('',#727,.T.);
#772=FACE_BOUND('',#728,.T.);
#773=FACE_BOUND('',#729,.T.);
#774=FACE_BOUND('',#730,.T.);
#775=FACE_BOUND('',#731,.T.);
#776=FACE_BOUND('',#732,.T.);
#777=FACE_BOUND('',#733,.T.);
#778=FACE_BOUND('',#734,.T.);
#779=FACE_BOUND('',#735,.T.);
#780=FACE_BOUND('',#736,.T.);
#781=FACE_BOUND('',#737,.T.);
#782=FACE_BOUND('',#738,.T.);
#783=FACE_BOUND('',#739,.T.);
#784=FACE_BOUND('',#740,.T.);
#785=FACE_BOUND('',#741,.T.);
#786=FACE_BOUND('',#742,.T.);
#787=FACE_BOUND('',#743,.T.);
#788=FACE_BOUND('',#744,.T.);
#789=FACE_BOUND('',#745,.T.);
#790=FACE_BOUND('',#746,.T.);
#791=FACE_BOUND('',#747,.T.);
#792=FACE_BOUND('',#748,.T.);
#793=FACE_BOUND('',#749,.T.);
#794=FACE_BOUND('',#750,.T.);
#795=FACE_BOUND('',#751,.T.);
#796=FACE_BOUND('',#752,.T.);
#797=FACE_BOUND('',#753,.T.);
#798=FACE_BOUND('',#754,.T.);
#799=FACE_BOUND('',#755,.T.);
#800=FACE_BOUND('',#756,.T.);
#801=FACE_BOUND('',#757,.T.);
#802=FACE_BOUND('',#758,.T.);
#803=FACE_BOUND('',#759,.T.);
#804=FACE_BOUND('',#760,.T.);
#805=FACE_BOUND('',#761,.T.);
#806=FACE_BOUND('',#762,.T.);
#807=FACE_BOUND('',#763,.T.);
#808=FACE_BOUND('',#764,.T.);
#809=FACE_BOUND('',#765,.T.);
#810=FACE_BOUND('',#766,.T.);
#811=FACE_BOUND('',#767,.T.);
#812=ADVANCED_FACE('',(#768),#856,.T.);
#813=ADVANCED_FACE('',(#769),#857,.T.);
#814=ADVANCED_FACE('',(#770),#858,.T.);
#815=ADVANCED_FACE('',(#771),#82,.T.);
#816=ADVANCED_FACE('',(#772),#859,.F.);
#817=ADVANCED_FACE('',(#773),#83,.T.);
#818=ADVANCED_FACE('',(#774),#860,.F.);
#819=ADVANCED_FACE('',(#775),#861,.T.);
#820=ADVANCED_FACE('',(#776),#862,.T.);
#821=ADVANCED_FACE('',(#777),#863,.F.);
#822=ADVANCED_FACE('',(#778),#864,.T.);
#823=ADVANCED_FACE('',(#779),#865,.F.);
#824=ADVANCED_FACE('',(#780),#866,.F.);
#825=ADVANCED_FACE('',(#781),#867,.T.);
#826=ADVANCED_FACE('',(#782),#868,.T.);
#827=ADVANCED_FACE('',(#783),#869,.T.);
#828=ADVANCED_FACE('',(#784),#870,.T.);
#829=ADVANCED_FACE('',(#785),#871,.F.);
#830=ADVANCED_FACE('',(#786),#872,.T.);
#831=ADVANCED_FACE('',(#787),#873,.T.);
#832=ADVANCED_FACE('',(#788),#874,.F.);
#833=ADVANCED_FACE('',(#789),#875,.F.);
#834=ADVANCED_FACE('',(#790),#84,.T.);
#835=ADVANCED_FACE('',(#791),#876,.T.);
#836=ADVANCED_FACE('',(#792),#877,.F.);
#837=ADVANCED_FACE('',(#793),#878,.T.);
#838=ADVANCED_FACE('',(#794),#85,.T.);
#839=ADVANCED_FACE('',(#795),#879,.F.);
#840=ADVANCED_FACE('',(#796),#880,.T.);
#841=ADVANCED_FACE('',(#797),#881,.F.);
#842=ADVANCED_FACE('',(#798),#882,.T.);
#843=ADVANCED_FACE('',(#799),#883,.F.);
#844=ADVANCED_FACE('',(#800),#884,.T.);
#845=ADVANCED_FACE('',(#801),#885,.T.);
#846=ADVANCED_FACE('',(#802),#886,.T.);
#847=ADVANCED_FACE('',(#803),#887,.T.);
#848=ADVANCED_FACE('',(#804),#888,.F.);
#849=ADVANCED_FACE('',(#805),#889,.T.);
#850=ADVANCED_FACE('',(#806),#890,.T.);
#851=ADVANCED_FACE('',(#807),#891,.F.);
#852=ADVANCED_FACE('',(#808),#892,.F.);
#853=ADVANCED_FACE('',(#809),#893,.T.);
#854=ADVANCED_FACE('',(#810),#894,.T.);
#855=ADVANCED_FACE('',(#811),#895,.T.);
#856=PLANE('',#1342);
#857=PLANE('',#1343);
#858=PLANE('',#1344);
#859=PLANE('',#1346);
#860=PLANE('',#1348);
#861=PLANE('',#1349);
#862=PLANE('',#1350);
#863=PLANE('',#1351);
#864=PLANE('',#1352);
#865=PLANE('',#1353);
#866=PLANE('',#1354);
#867=PLANE('',#1355);
#868=PLANE('',#1356);
#869=PLANE('',#1357);
#870=PLANE('',#1358);
#871=PLANE('',#1359);
#872=PLANE('',#1360);
#873=PLANE('',#1361);
#874=PLANE('',#1362);
#875=PLANE('',#1363);
#876=PLANE('',#1365);
#877=PLANE('',#1366);
#878=PLANE('',#1367);
#879=PLANE('',#1369);
#880=PLANE('',#1370);
#881=PLANE('',#1371);
#882=PLANE('',#1372);
#883=PLANE('',#1373);
#884=PLANE('',#1374);
#885=PLANE('',#1375);
#886=PLANE('',#1376);
#887=PLANE('',#1377);
#888=PLANE('',#1378);
#889=PLANE('',#1379);
#890=PLANE('',#1380);
#891=PLANE('',#1381);
#892=PLANE('',#1382);
#893=PLANE('',#1383);
#894=PLANE('',#1384);
#895=PLANE('',#1385);
#896=CLOSED_SHELL('',(#812,#813,#814,#815,#816,#817,#818,#819,#820,#821,
#822,#823,#824,#825,#826,#827,#828,#829,#830,#831,#832,#833,#834,#835,#836,
#837,#838,#839,#840,#841,#842,#843,#844,#845,#846,#847,#848,#849,#850,#851,
#852,#853,#854,#855));
#897=MANIFOLD_SOLID_BREP('',#896);
#898=DIRECTION('',(1.,0.,0.));
#899=DIRECTION('',(0.,0.,1.));
#900=DIRECTION('',(0.,0.,-1.));
#901=DIRECTION('',(0.,-1.,0.));
#902=DIRECTION('',(1.,0.,0.));
#903=DIRECTION('',(0.,1.,0.));
#904=DIRECTION('',(1.,0.,0.));
#905=DIRECTION('',(0.,-1.,0.));
#906=DIRECTION('',(1.,0.,0.));
#907=DIRECTION('',(0.,1.,0.));
#908=DIRECTION('',(1.,0.,0.));
#909=DIRECTION('',(0.,-1.,0.));
#910=DIRECTION('',(-0.139173101249069,0.,0.990268068700953));
#911=DIRECTION('',(1.,0.,0.));
#912=DIRECTION('',(-0.139173101249069,0.,-0.990268068700953));
#913=DIRECTION('',(0.,0.,-1.));
#914=DIRECTION('',(0.,-1.,0.));
#915=DIRECTION('',(1.,0.,0.));
#916=DIRECTION('',(0.,1.,0.));
#917=DIRECTION('',(1.,-3.61400724161835E-016,0.));
#918=DIRECTION('',(5.42101086242752E-017,0.15,0.));
#919=DIRECTION('',(1.,0.,0.));
#920=DIRECTION('',(-1.,0.,0.));
#921=DIRECTION('',(0.,-1.,0.));
#922=DIRECTION('',(0.,0.,-1.));
#923=DIRECTION('',(0.,0.,1.));
#924=DIRECTION('',(-1.,0.,0.));
#925=DIRECTION('',(1.,0.,3.61400724161834E-016));
#926=DIRECTION('',(5.42101086242753E-017,0.,-0.15));
#927=DIRECTION('',(1.,0.,0.));
#928=DIRECTION('',(-1.,0.,0.));
#929=DIRECTION('',(0.,0.,-1.));
#930=DIRECTION('',(0.,1.,0.));
#931=DIRECTION('',(1.,0.,0.));
#932=DIRECTION('',(0.,-1.,0.));
#933=DIRECTION('',(-1.,0.,0.));
#934=DIRECTION('',(0.,0.,-1.));
#935=DIRECTION('',(-1.,0.,0.));
#936=DIRECTION('',(0.,-1.,0.));
#937=DIRECTION('',(1.,0.,0.));
#938=DIRECTION('',(0.,1.,0.));
#939=DIRECTION('',(0.,-1.,0.));
#940=DIRECTION('',(0.,0.,1.));
#941=DIRECTION('',(1.,0.,0.));
#942=DIRECTION('',(0.,0.,-1.));
#943=DIRECTION('',(-1.,0.,0.));
#944=DIRECTION('',(0.,-1.,0.));
#945=DIRECTION('',(0.139173101249069,0.,-0.990268068700953));
#946=DIRECTION('',(1.,0.,0.));
#947=DIRECTION('',(0.139173101249069,0.,0.990268068700953));
#948=DIRECTION('',(0.,0.,-1.));
#949=DIRECTION('',(1.,0.,0.));
#950=DIRECTION('',(0.,1.,0.));
#951=DIRECTION('',(-1.,0.,0.));
#952=DIRECTION('',(0.,-1.,0.));
#953=DIRECTION('',(0.,0.,-1.));
#954=DIRECTION('',(0.,-1.,0.));
#955=DIRECTION('',(-1.,0.,0.));
#956=DIRECTION('',(0.,1.,0.));
#957=DIRECTION('',(1.,0.,0.));
#958=DIRECTION('',(0.,-1.,0.));
#959=DIRECTION('',(0.,0.,1.));
#960=DIRECTION('',(1.,0.,0.));
#961=DIRECTION('',(0.,0.,-1.));
#962=DIRECTION('',(0.,0.,-1.));
#963=DIRECTION('',(0.,1.,0.));
#964=DIRECTION('',(0.,-1.,0.));
#965=DIRECTION('',(0.,-1.,0.));
#966=DIRECTION('',(0.,0.,-1.));
#967=DIRECTION('',(0.,0.,1.));
#968=DIRECTION('',(0.,-1.,0.));
#969=DIRECTION('',(0.,0.,-1.));
#970=DIRECTION('',(0.,0.,1.));
#971=DIRECTION('',(-1.,0.,0.));
#972=DIRECTION('',(0.,0.,-1.));
#973=DIRECTION('',(0.,1.,0.));
#974=DIRECTION('',(0.,-1.,0.));
#975=DIRECTION('',(0.,-1.,0.));
#976=DIRECTION('',(0.,0.,1.));
#977=DIRECTION('',(0.,0.,-1.));
#978=DIRECTION('',(0.,-0.990453877513186,-0.137844537501835));
#979=DIRECTION('',(1.,0.,0.));
#980=DIRECTION('',(0.137869910377289,0.136528170121679,-0.980995385603716));
#981=DIRECTION('',(0.137869910377289,-0.136528170121679,0.980995385603716));
#982=DIRECTION('',(1.,0.,0.));
#983=DIRECTION('',(0.,0.,-1.));
#984=DIRECTION('',(0.,1.,0.));
#985=DIRECTION('',(1.,0.,0.));
#986=DIRECTION('',(0.,-1.,0.));
#987=DIRECTION('',(0.,1.,0.));
#988=DIRECTION('',(1.,0.,0.));
#989=DIRECTION('',(0.,-1.,0.));
#990=DIRECTION('',(0.,-0.990453877513186,0.137844537501835));
#991=DIRECTION('',(-0.137869910377289,0.136528170121679,0.980995385603716));
#992=DIRECTION('',(-1.,0.,0.));
#993=DIRECTION('',(-1.,0.,0.));
#994=DIRECTION('',(-0.137869910377289,-0.136528170121679,-0.980995385603716));
#995=DIRECTION('',(1.,0.,0.));
#996=DIRECTION('',(0.,1.,-3.118300019E-016));
#997=DIRECTION('',(0.,0.,1.));
#998=DIRECTION('',(1.,0.,-3.61400724161834E-016));
#999=DIRECTION('',(-5.42101086242752E-017,0.,-0.15));
#1000=DIRECTION('',(1.,0.,0.));
#1001=DIRECTION('',(1.,0.,0.));
#1002=DIRECTION('',(0.,-1.,3.118300019E-016));
#1003=DIRECTION('',(0.,0.,-1.));
#1004=DIRECTION('',(-0.990268068735261,0.,0.139173101004956));
#1005=DIRECTION('',(0.,-1.,0.));
#1006=DIRECTION('',(1.,0.,0.));
#1007=DIRECTION('',(0.,0.,1.));
#1008=DIRECTION('',(0.,-1.,3.118300019E-016));
#1009=DIRECTION('',(1.,3.61400724161837E-016,0.));
#1010=DIRECTION('',(-5.42101086242752E-017,0.149999999999999,0.));
#1011=DIRECTION('',(-1.,0.,0.));
#1012=DIRECTION('',(1.,0.,0.));
#1013=DIRECTION('',(0.,1.,-3.118300019E-016));
#1014=DIRECTION('',(0.,0.,-1.));
#1015=DIRECTION('',(-0.990268068735261,0.,-0.139173101004956));
#1016=DIRECTION('',(0.,1.,0.));
#1017=DIRECTION('',(0.,-1.,0.));
#1018=DIRECTION('',(0.,0.,1.));
#1019=DIRECTION('',(1.,0.,0.));
#1020=DIRECTION('',(0.,3.118300019E-016,1.));
#1021=DIRECTION('',(1.,0.,0.));
#1022=DIRECTION('',(0.,-1.,0.));
#1023=DIRECTION('',(1.,0.,0.));
#1024=DIRECTION('',(0.,0.,-1.));
#1025=DIRECTION('',(1.,0.,0.));
#1026=DIRECTION('',(0.,-1.,0.));
#1027=DIRECTION('',(0.,0.,-1.));
#1028=DIRECTION('',(0.,-1.,0.));
#1029=DIRECTION('',(-1.,0.,0.));
#1030=DIRECTION('',(0.,3.118300019E-016,1.));
#1031=DIRECTION('',(-1.,0.,0.));
#1032=DIRECTION('',(0.,-1.,0.));
#1033=DIRECTION('',(0.,0.,-1.));
#1034=DIRECTION('',(-1.,0.,0.));
#1035=DIRECTION('',(1.,0.,0.));
#1036=DIRECTION('',(0.,1.,0.));
#1037=DIRECTION('',(0.,0.990453877513186,0.137844537501835));
#1038=DIRECTION('',(0.137869910381905,-0.136528169881002,0.980995385636563));
#1039=DIRECTION('',(1.,0.,0.));
#1040=DIRECTION('',(0.137869910381905,0.136528169881002,-0.980995385636563));
#1041=DIRECTION('',(0.990268068735261,0.,0.139173101004956));
#1042=DIRECTION('',(0.,-1.,0.));
#1043=DIRECTION('',(0.,-1.,0.));
#1044=DIRECTION('',(0.137869910623733,-0.136528169852679,-0.980995385606518));
#1045=DIRECTION('',(0.,0.990453877513186,-0.137844537501835));
#1046=DIRECTION('',(-1.,0.,0.));
#1047=DIRECTION('',(-0.137869910381905,-0.136528169881002,-0.980995385636563));
#1048=DIRECTION('',(0.990268068735261,0.,-0.139173101004956));
#1049=DIRECTION('',(0.,1.,0.));
#1050=DIRECTION('',(0.,1.,0.));
#1051=DIRECTION('',(0.,0.,1.));
#1052=DIRECTION('',(0.,0.,1.));
#1053=DIRECTION('',(0.,0.,1.));
#1054=CARTESIAN_POINT('',(0.,0.,0.));
#1055=CARTESIAN_POINT('',(0.,0.,-1.1));
#1056=CARTESIAN_POINT('',(0.75,0.,-1.1));
#1057=CARTESIAN_POINT('',(0.75,-1.45,-1.1));
#1058=CARTESIAN_POINT('',(0.75,-2.03866151910722,-1.10000000001194));
#1059=CARTESIAN_POINT('',(0.,-1.45,-1.1));
#1060=CARTESIAN_POINT('',(-0.75,-1.45,-1.1));
#1061=CARTESIAN_POINT('',(-0.75,0.,-1.1));
#1062=CARTESIAN_POINT('',(-0.75,-2.03866151914296,-1.10000000001194));
#1063=CARTESIAN_POINT('',(0.,-2.038661519,-1.1));
#1064=CARTESIAN_POINT('',(-1.18756733219447,-2.038661519,-1.10000000002733));
#1065=CARTESIAN_POINT('',(-1.187567332,0.,-1.1));
#1066=CARTESIAN_POINT('',(-1.18756733209724,-0.8246615192,-1.1));
#1067=CARTESIAN_POINT('',(0.,-0.8246615192,-1.1));
#1068=CARTESIAN_POINT('',(1.187567332,-0.8246615192,-1.1));
#1069=CARTESIAN_POINT('',(1.187567332,0.,-1.1));
#1070=CARTESIAN_POINT('',(1.18756733219447,-2.038661519,-1.10000000002733));
#1071=CARTESIAN_POINT('',(0.,-2.038661519,-1.1));
#1072=CARTESIAN_POINT('',(0.,-0.8246615192,0.));
#1073=CARTESIAN_POINT('',(-1.159459165,-0.8246615192,-1.3));
#1074=CARTESIAN_POINT('',(-1.159459165,-0.8246615192,-1.3));
#1075=CARTESIAN_POINT('',(0.,-0.8246615192,-1.3));
#1076=CARTESIAN_POINT('',(1.159459165,-0.8246615192,-1.3));
#1077=CARTESIAN_POINT('',(1.187567332,-0.8246615192,-1.1));
#1078=CARTESIAN_POINT('',(0.,0.,-1.3));
#1079=CARTESIAN_POINT('',(-1.159459165,0.,-1.3));
#1080=CARTESIAN_POINT('',(-1.159459165,0.8246615192,-1.3));
#1081=CARTESIAN_POINT('',(0.,0.8246615192,-1.3));
#1082=CARTESIAN_POINT('',(1.159459165,0.8246615192,-1.3));
#1083=CARTESIAN_POINT('',(1.159459165,0.,-1.3));
#1084=CARTESIAN_POINT('',(-0.75,2.45,-1.25));
#1085=CARTESIAN_POINT('',(-0.75,2.6,-1.25));
#1086=CARTESIAN_POINT('',(-0.75,2.59966060010932,-1.29203287623469));
#1087=CARTESIAN_POINT('',(-0.75,2.58529513530493,-1.32711164351307));
#1088=CARTESIAN_POINT('',(-0.75,2.52683689905103,-1.38502039084289));
#1089=CARTESIAN_POINT('',(-0.75,2.4914815599917,-1.39966505178356));
#1090=CARTESIAN_POINT('',(-0.75,2.45,-1.4));
#1091=CARTESIAN_POINT('',(-0.75,2.6,-1.25));
#1092=CARTESIAN_POINT('',(-0.75,2.45,-1.4));
#1093=CARTESIAN_POINT('',(0.,2.6,-1.25));
#1094=CARTESIAN_POINT('',(0.75,2.6,-1.25));
#1095=CARTESIAN_POINT('',(0.75,2.45,-1.4));
#1096=CARTESIAN_POINT('',(0.75,2.49203287623467,-1.39966060010932));
#1097=CARTESIAN_POINT('',(0.75,2.52711164351307,-1.38529513530492));
#1098=CARTESIAN_POINT('',(0.75,2.58502039084289,-1.32683689905105));
#1099=CARTESIAN_POINT('',(0.75,2.59966505178356,-1.29148155999172));
#1100=CARTESIAN_POINT('',(0.75,2.6,-1.25));
#1101=CARTESIAN_POINT('',(0.75,2.45,-1.4));
#1102=CARTESIAN_POINT('',(0.,2.45,-1.4));
#1103=CARTESIAN_POINT('',(0.,-1.45,0.));
#1104=CARTESIAN_POINT('',(-0.75,-1.45,0.));
#1105=CARTESIAN_POINT('',(-0.75,-1.45,-1.4));
#1106=CARTESIAN_POINT('',(0.75,-1.45,0.));
#1107=CARTESIAN_POINT('',(0.75,-1.45,-1.4));
#1108=CARTESIAN_POINT('',(0.,-1.45,-1.4));
#1109=CARTESIAN_POINT('',(-0.75,-2.45,-1.25));
#1110=CARTESIAN_POINT('',(-0.75,-2.45,-1.4));
#1111=CARTESIAN_POINT('',(-0.75,-2.49203287623469,-1.39966060010932));
#1112=CARTESIAN_POINT('',(-0.75,-2.52711164351307,-1.38529513530493));
#1113=CARTESIAN_POINT('',(-0.75,-2.58502039084289,-1.32683689905104));
#1114=CARTESIAN_POINT('',(-0.75,-2.59966505178356,-1.29148155999171));
#1115=CARTESIAN_POINT('',(-0.75,-2.6,-1.25));
#1116=CARTESIAN_POINT('',(-0.75,-2.45,-1.4));
#1117=CARTESIAN_POINT('',(-0.75,-2.6,-1.25));
#1118=CARTESIAN_POINT('',(0.,-2.45,-1.4));
#1119=CARTESIAN_POINT('',(0.75,-2.45,-1.4));
#1120=CARTESIAN_POINT('',(0.75,-2.6,-1.25));
#1121=CARTESIAN_POINT('',(0.75,-2.59966060010932,-1.29203287623467));
#1122=CARTESIAN_POINT('',(0.75,-2.58529513530491,-1.32711164351307));
#1123=CARTESIAN_POINT('',(0.75,-2.52683689905105,-1.38502039084289));
#1124=CARTESIAN_POINT('',(0.75,-2.49148155999173,-1.39966505178356));
#1125=CARTESIAN_POINT('',(0.75,-2.45,-1.4));
#1126=CARTESIAN_POINT('',(0.75,-2.6,-1.25));
#1127=CARTESIAN_POINT('',(0.,-2.6,-1.25));
#1128=CARTESIAN_POINT('',(0.,0.,-1.1));
#1129=CARTESIAN_POINT('',(-0.75,0.,-1.1));
#1130=CARTESIAN_POINT('',(-0.75,-2.3,-1.1));
#1131=CARTESIAN_POINT('',(0.,-2.3,-1.1));
#1132=CARTESIAN_POINT('',(0.75,-2.3,-1.1));
#1133=CARTESIAN_POINT('',(0.75,0.,-1.1));
#1134=CARTESIAN_POINT('',(0.,-2.0386615193431,-1.10000000004775));
#1135=CARTESIAN_POINT('',(0.,0.,-0.3));
#1136=CARTESIAN_POINT('',(0.,-2.3,-0.3));
#1137=CARTESIAN_POINT('',(0.75,-2.3,-0.3));
#1138=CARTESIAN_POINT('',(-0.75,-2.3,-0.3));
#1139=CARTESIAN_POINT('',(-0.75,0.,-0.3));
#1140=CARTESIAN_POINT('',(-0.75,-2.15000000009286,-0.300000000008615));
#1141=CARTESIAN_POINT('',(0.,-2.15000000012381,-0.300000000017231));
#1142=CARTESIAN_POINT('',(0.75,-2.1500000000619,-0.300000000008615));
#1143=CARTESIAN_POINT('',(0.75,0.,-0.3));
#1144=CARTESIAN_POINT('',(0.,1.45,0.));
#1145=CARTESIAN_POINT('',(-0.75,1.45,0.));
#1146=CARTESIAN_POINT('',(-0.75,1.45,-1.4));
#1147=CARTESIAN_POINT('',(-0.75,1.45,-1.1));
#1148=CARTESIAN_POINT('',(0.,1.45,-1.4));
#1149=CARTESIAN_POINT('',(0.75,1.45,-1.4));
#1150=CARTESIAN_POINT('',(0.75,1.45,0.));
#1151=CARTESIAN_POINT('',(0.75,1.45,-1.1));
#1152=CARTESIAN_POINT('',(0.,1.45,-1.1));
#1153=CARTESIAN_POINT('',(0.,0.8246615192,0.));
#1154=CARTESIAN_POINT('',(-1.187567332,0.8246615192,-1.1));
#1155=CARTESIAN_POINT('',(-1.18756733238894,0.8246615192,-1.10000000002733));
#1156=CARTESIAN_POINT('',(0.,0.8246615192,-1.1));
#1157=CARTESIAN_POINT('',(1.18756733219447,0.8246615192,-1.10000000002733));
#1158=CARTESIAN_POINT('',(1.159459165,0.8246615192,-1.3));
#1159=CARTESIAN_POINT('',(0.,0.,-0.3));
#1160=CARTESIAN_POINT('',(0.,2.3,-0.3));
#1161=CARTESIAN_POINT('',(-0.75,2.3,-0.3));
#1162=CARTESIAN_POINT('',(0.75,2.3,-0.3));
#1163=CARTESIAN_POINT('',(0.75,0.,-0.3));
#1164=CARTESIAN_POINT('',(0.75,2.15000000009286,-0.300000000008615));
#1165=CARTESIAN_POINT('',(0.,2.15000000012381,-0.300000000017231));
#1166=CARTESIAN_POINT('',(-0.75,2.1500000000619,-0.300000000008615));
#1167=CARTESIAN_POINT('',(-0.75,0.,-0.3));
#1168=CARTESIAN_POINT('',(0.,0.,-1.1));
#1169=CARTESIAN_POINT('',(0.75,0.,-1.1));
#1170=CARTESIAN_POINT('',(0.75,2.3,-1.1));
#1171=CARTESIAN_POINT('',(0.75,2.03866151925733,-1.10000000002388));
#1172=CARTESIAN_POINT('',(0.,2.3,-1.1));
#1173=CARTESIAN_POINT('',(-0.75,2.3,-1.1));
#1174=CARTESIAN_POINT('',(-0.75,0.,-1.1));
#1175=CARTESIAN_POINT('',(-0.75,2.03866151925733,-1.10000000002388));
#1176=CARTESIAN_POINT('',(0.,2.0386615193431,-1.10000000004775));
#1177=CARTESIAN_POINT('',(0.,2.6,0.));
#1178=CARTESIAN_POINT('',(-0.75,2.6,0.));
#1179=CARTESIAN_POINT('',(-0.75,2.6,-0.15));
#1180=CARTESIAN_POINT('',(0.,2.6,-0.15));
#1181=CARTESIAN_POINT('',(0.75,2.6,-0.15));
#1182=CARTESIAN_POINT('',(0.75,2.6,0.));
#1183=CARTESIAN_POINT('',(0.,0.,-1.4));
#1184=CARTESIAN_POINT('',(-0.75,0.,-1.4));
#1185=CARTESIAN_POINT('',(0.75,0.,-1.4));
#1186=CARTESIAN_POINT('',(0.,2.3,0.));
#1187=CARTESIAN_POINT('',(-0.75,2.3,0.));
#1188=CARTESIAN_POINT('',(0.75,2.3,0.));
#1189=CARTESIAN_POINT('',(0.,-2.6,0.));
#1190=CARTESIAN_POINT('',(-0.75,-2.6,0.));
#1191=CARTESIAN_POINT('',(-0.75,-2.6,-0.15));
#1192=CARTESIAN_POINT('',(0.75,-2.6,0.));
#1193=CARTESIAN_POINT('',(0.75,-2.6,-0.15));
#1194=CARTESIAN_POINT('',(0.,-2.6,-0.15));
#1195=CARTESIAN_POINT('',(0.,0.,-1.4));
#1196=CARTESIAN_POINT('',(-0.75,0.,-1.4));
#1197=CARTESIAN_POINT('',(0.75,0.,-1.4));
#1198=CARTESIAN_POINT('',(0.,-2.3,0.));
#1199=CARTESIAN_POINT('',(-0.75,-2.3,0.));
#1200=CARTESIAN_POINT('',(0.75,-2.3,0.));
#1201=CARTESIAN_POINT('',(0.,-2.15010619660656,-0.299236946797773));
#1202=CARTESIAN_POINT('',(0.,-2.15000000012381,-0.300000000017231));
#1203=CARTESIAN_POINT('',(-1.30000000009655,-2.15000000003095,-0.300000000017877));
#1204=CARTESIAN_POINT('',(-1.3000000003862,-2.15,-0.300000000054278));
#1205=CARTESIAN_POINT('',(1.18756733258341,-2.038661519,-1.10000000008199));
#1206=CARTESIAN_POINT('',(1.30000000009655,-2.15000000003095,-0.300000000017877));
#1207=CARTESIAN_POINT('',(0.,-2.15000000012381,-0.300000000017231));
#1208=CARTESIAN_POINT('',(0.,0.,-1.1));
#1209=CARTESIAN_POINT('',(-1.18756733258341,0.,-1.10000000008199));
#1210=CARTESIAN_POINT('',(-1.18756733258341,2.03866151911437,-1.10000000007058));
#1211=CARTESIAN_POINT('',(0.,2.0386615193431,-1.10000000004775));
#1212=CARTESIAN_POINT('',(-0.75,0.,-1.1));
#1213=CARTESIAN_POINT('',(0.75,0.,-1.1));
#1214=CARTESIAN_POINT('',(0.,2.0386615193431,-1.10000000004775));
#1215=CARTESIAN_POINT('',(1.18756733258341,2.03866151911437,-1.10000000007058));
#1216=CARTESIAN_POINT('',(1.18756733258341,0.,-1.10000000008199));
#1217=CARTESIAN_POINT('',(0.,2.15010619660656,-0.299236946797773));
#1218=CARTESIAN_POINT('',(-1.18756733258341,2.038661519,-1.10000000008199));
#1219=CARTESIAN_POINT('',(-1.30000000009655,2.15000000003095,-0.300000000017877));
#1220=CARTESIAN_POINT('',(0.,2.15000000012381,-0.300000000017231));
#1221=CARTESIAN_POINT('',(0.,2.15000000012381,-0.300000000017231));
#1222=CARTESIAN_POINT('',(1.30000000009655,2.15000000003095,-0.300000000017877));
#1223=CARTESIAN_POINT('',(1.3000000003862,2.15,-0.300000000054278));
#1224=CARTESIAN_POINT('',(-0.75,0.,0.));
#1225=CARTESIAN_POINT('',(-0.75,0.,0.));
#1226=CARTESIAN_POINT('',(-0.75,2.15000000027857,2.58453369563807E-011));
#1227=CARTESIAN_POINT('',(-0.75,2.45,-3.00676589391087E-016));
#1228=CARTESIAN_POINT('',(-0.75,2.45,-3.00676589391087E-016));
#1229=CARTESIAN_POINT('',(-0.75,2.49203287623468,-0.000339399890681039));
#1230=CARTESIAN_POINT('',(-0.75,2.52711164351307,-0.01470486469508));
#1231=CARTESIAN_POINT('',(-0.75,2.58502039084289,-0.0731631009489559));
#1232=CARTESIAN_POINT('',(-0.75,2.59966505178356,-0.108518440008283));
#1233=CARTESIAN_POINT('',(-0.75,2.6,-0.15));
#1234=CARTESIAN_POINT('',(-0.75,2.15,0.));
#1235=CARTESIAN_POINT('',(-0.75,2.45,-0.15));
#1236=CARTESIAN_POINT('',(0.,2.45,-7.63983504655E-016));
#1237=CARTESIAN_POINT('',(0.75,2.45,-4.22649333795706E-016));
#1238=CARTESIAN_POINT('',(0.75,2.45,-4.22649333795706E-016));
#1239=CARTESIAN_POINT('',(0.75,2.48926990816987,-1.69618347687674E-016));
#1240=CARTESIAN_POINT('',(0.75,2.52829799881449,-0.0161659644585282));
#1241=CARTESIAN_POINT('',(0.75,2.58383403554147,-0.0717020011855077));
#1242=CARTESIAN_POINT('',(0.75,2.6,-0.110730091830128));
#1243=CARTESIAN_POINT('',(0.75,2.6,-0.15));
#1244=CARTESIAN_POINT('',(0.75,0.,0.));
#1245=CARTESIAN_POINT('',(0.75,0.,0.));
#1246=CARTESIAN_POINT('',(0.75,2.15000000018571,3.87680967063343E-011));
#1247=CARTESIAN_POINT('',(0.75,2.15,0.));
#1248=CARTESIAN_POINT('',(1.31616570611549,0.,-0.184975027004976));
#1249=CARTESIAN_POINT('',(1.3,0.,-0.3));
#1250=CARTESIAN_POINT('',(0.75,0.,0.));
#1251=CARTESIAN_POINT('',(0.75,-2.45,1.71927581408433E-016));
#1252=CARTESIAN_POINT('',(0.75,-2.4920328762347,-0.000339399890681249));
#1253=CARTESIAN_POINT('',(0.75,-2.52711164351307,-0.0147048646950546));
#1254=CARTESIAN_POINT('',(0.75,-2.58502039084289,-0.0731631009489814));
#1255=CARTESIAN_POINT('',(0.75,-2.59966505178356,-0.108518440008309));
#1256=CARTESIAN_POINT('',(0.75,-2.6,-0.15));
#1257=CARTESIAN_POINT('',(0.75,-2.45,1.71927581408433E-016));
#1258=CARTESIAN_POINT('',(0.75,-2.15,0.));
#1259=CARTESIAN_POINT('',(0.75,-2.15000000027857,2.58456352338555E-011));
#1260=CARTESIAN_POINT('',(0.75,0.,0.));
#1261=CARTESIAN_POINT('',(-0.75,-2.45,-0.15));
#1262=CARTESIAN_POINT('',(-0.75,-2.45,1.85480108564502E-016));
#1263=CARTESIAN_POINT('',(-0.75,-2.48926990816987,-7.87105366236058E-016));
#1264=CARTESIAN_POINT('',(-0.75,-2.52829799881449,-0.0161659644585288));
#1265=CARTESIAN_POINT('',(-0.75,-2.58383403554147,-0.071702001185508));
#1266=CARTESIAN_POINT('',(-0.75,-2.6,-0.110730091830128));
#1267=CARTESIAN_POINT('',(-0.75,-2.6,-0.15));
#1268=CARTESIAN_POINT('',(-0.75,-2.45,1.85480108564502E-016));
#1269=CARTESIAN_POINT('',(0.,-2.45,7.63983504655E-016));
#1270=CARTESIAN_POINT('',(-0.75,0.,0.));
#1271=CARTESIAN_POINT('',(-0.75,0.,0.));
#1272=CARTESIAN_POINT('',(-0.75,-2.15000000018571,3.87683912660049E-011));
#1273=CARTESIAN_POINT('',(-0.75,-2.15,0.));
#1274=CARTESIAN_POINT('',(-1.31616570611549,0.,-0.184975027004976));
#1275=CARTESIAN_POINT('',(-1.3,0.,-0.3));
#1276=CARTESIAN_POINT('',(0.,2.15,0.));
#1277=CARTESIAN_POINT('',(-1.3,2.15,0.));
#1278=CARTESIAN_POINT('',(-1.29999999976976,2.15000000009286,-8.64893166260995E-012));
#1279=CARTESIAN_POINT('',(0.,2.15000000037142,5.16916696079173E-011));
#1280=CARTESIAN_POINT('',(0.,0.,0.));
#1281=CARTESIAN_POINT('',(0.,2.15000000037142,5.16910190866138E-011));
#1282=CARTESIAN_POINT('',(0.,2.15,0.));
#1283=CARTESIAN_POINT('',(0.,2.15000000037142,5.16910190866138E-011));
#1284=CARTESIAN_POINT('',(1.29999999984651,2.15000000009286,-1.94349168648657E-011));
#1285=CARTESIAN_POINT('',(1.3,2.15,0.));
#1286=CARTESIAN_POINT('',(1.3,0.,0.));
#1287=CARTESIAN_POINT('',(1.29999999969302,0.,-4.314368415477E-011));
#1288=CARTESIAN_POINT('',(1.29999999992325,-2.15000000027857,1.50597363219171E-011));
#1289=CARTESIAN_POINT('',(1.3,-2.15,0.));
#1290=CARTESIAN_POINT('',(0.,-2.15,0.));
#1291=CARTESIAN_POINT('',(0.,-2.15000000037142,5.16916696079173E-011));
#1292=CARTESIAN_POINT('',(0.,0.,0.));
#1293=CARTESIAN_POINT('',(0.,-2.15000000037142,5.16909648765052E-011));
#1294=CARTESIAN_POINT('',(0.,-2.15,0.));
#1295=CARTESIAN_POINT('',(-1.3,-2.15,0.));
#1296=CARTESIAN_POINT('',(-1.29999999976976,-2.15000000009286,-8.6490398718865E-012));
#1297=CARTESIAN_POINT('',(0.,-2.15000000037142,5.16909648765052E-011));
#1298=CARTESIAN_POINT('',(-1.3,0.,0.));
#1299=CARTESIAN_POINT('',(-1.29999999969302,0.,-4.314368415477E-011));
#1300=CARTESIAN_POINT('',(0.,2.10914759985537,0.293536611876506));
#1301=CARTESIAN_POINT('',(-1.29999999969302,2.15,-4.314368415477E-011));
#1302=CARTESIAN_POINT('',(-1.15945916497984,2.010826899,0.999999999997167));
#1303=CARTESIAN_POINT('',(0.,2.010826899,1.));
#1304=CARTESIAN_POINT('',(1.15945916497984,2.010826899,0.999999999997167));
#1305=CARTESIAN_POINT('',(1.15945916493953,2.010826899,0.999999999991502));
#1306=CARTESIAN_POINT('',(1.27482010203668,0.,0.179164281294554));
#1307=CARTESIAN_POINT('',(1.159459165,0.,1.));
#1308=CARTESIAN_POINT('',(1.15945916498992,1.510826899,1.00249999999858));
#1309=CARTESIAN_POINT('',(1.15945916498992,1.010826899,1.00249999999858));
#1310=CARTESIAN_POINT('',(1.159459165,1.17749356566667,1.005));
#1311=CARTESIAN_POINT('',(1.159459165,1.34416023233333,1.005));
#1312=CARTESIAN_POINT('',(1.15945916498992,1.510826899,1.00249999999858));
#1313=CARTESIAN_POINT('',(1.15945916498992,1.010826899,1.00249999999858));
#1314=CARTESIAN_POINT('',(1.159459165,0.,1.));
#1315=CARTESIAN_POINT('',(1.159459165,-2.01082689913343,1.00000000001857));
#1316=CARTESIAN_POINT('',(1.159459165,-2.01082689940029,1.00000000005571));
#1317=CARTESIAN_POINT('',(0.,-2.10914759985537,0.293536611876506));
#1318=CARTESIAN_POINT('',(0.,-2.010826899,1.));
#1319=CARTESIAN_POINT('',(-1.15945916497984,-2.010826899,0.999999999997167));
#1320=CARTESIAN_POINT('',(-1.15945916493953,-2.010826899,0.999999999991502));
#1321=CARTESIAN_POINT('',(-1.27482010203668,0.,0.179164281294554));
#1322=CARTESIAN_POINT('',(-1.159459165,0.,1.));
#1323=CARTESIAN_POINT('',(-1.15945916498992,1.010826899,1.00249999999858));
#1324=CARTESIAN_POINT('',(-1.15945916498992,1.510826899,1.00249999999858));
#1325=CARTESIAN_POINT('',(-1.159459165,1.34416023233333,1.005));
#1326=CARTESIAN_POINT('',(-1.159459165,1.17749356566667,1.005));
#1327=CARTESIAN_POINT('',(-1.15945916498992,1.010826899,1.00249999999858));
#1328=CARTESIAN_POINT('',(-1.15945916498992,1.510826899,1.00249999999858));
#1329=CARTESIAN_POINT('',(-1.159459165,0.,1.));
#1330=CARTESIAN_POINT('',(0.,0.,1.));
#1331=CARTESIAN_POINT('',(-1.15945916498992,1.510826899,1.00249999999858));
#1332=CARTESIAN_POINT('',(-0.386486388333333,1.510826899,1.));
#1333=CARTESIAN_POINT('',(0.386486388333333,1.510826899,1.));
#1334=CARTESIAN_POINT('',(1.15945916498992,1.510826899,1.00249999999858));
#1335=CARTESIAN_POINT('',(0.,0.,1.));
#1336=CARTESIAN_POINT('',(1.15945916498992,1.010826899,1.00249999999858));
#1337=CARTESIAN_POINT('',(0.386486388333333,1.010826899,1.));
#1338=CARTESIAN_POINT('',(-0.386486388333333,1.010826899,1.));
#1339=CARTESIAN_POINT('',(-1.15945916498992,1.010826899,1.00249999999858));
#1340=CARTESIAN_POINT('',(0.,0.,1.005));
#1341=AXIS2_PLACEMENT_3D('',#1054,#899,#898);
#1342=AXIS2_PLACEMENT_3D('',#1055,#900,$);
#1343=AXIS2_PLACEMENT_3D('',#1072,#909,$);
#1344=AXIS2_PLACEMENT_3D('',#1078,#913,$);
#1345=AXIS2_PLACEMENT_3D('',#1084,#917,#918);
#1346=AXIS2_PLACEMENT_3D('',#1103,#921,$);
#1347=AXIS2_PLACEMENT_3D('',#1109,#925,#926);
#1348=AXIS2_PLACEMENT_3D('',#1128,#929,$);
#1349=AXIS2_PLACEMENT_3D('',#1135,#934,$);
#1350=AXIS2_PLACEMENT_3D('',#1144,#939,$);
#1351=AXIS2_PLACEMENT_3D('',#1153,#944,$);
#1352=AXIS2_PLACEMENT_3D('',#1159,#948,$);
#1353=AXIS2_PLACEMENT_3D('',#1168,#953,$);
#1354=AXIS2_PLACEMENT_3D('',#1177,#958,$);
#1355=AXIS2_PLACEMENT_3D('',#1183,#962,$);
#1356=AXIS2_PLACEMENT_3D('',#1186,#965,$);
#1357=AXIS2_PLACEMENT_3D('',#1189,#968,$);
#1358=AXIS2_PLACEMENT_3D('',#1195,#972,$);
#1359=AXIS2_PLACEMENT_3D('',#1198,#975,$);
#1360=AXIS2_PLACEMENT_3D('',#1201,#978,$);
#1361=AXIS2_PLACEMENT_3D('',#1208,#983,$);
#1362=AXIS2_PLACEMENT_3D('',#1217,#990,$);
#1363=AXIS2_PLACEMENT_3D('',#1224,#995,$);
#1364=AXIS2_PLACEMENT_3D('',#1235,#998,#999);
#1365=AXIS2_PLACEMENT_3D('',#1244,#1001,$);
#1366=AXIS2_PLACEMENT_3D('',#1248,#1004,$);
#1367=AXIS2_PLACEMENT_3D('',#1250,#1006,$);
#1368=AXIS2_PLACEMENT_3D('',#1261,#1009,#1010);
#1369=AXIS2_PLACEMENT_3D('',#1270,#1012,$);
#1370=AXIS2_PLACEMENT_3D('',#1274,#1015,$);
#1371=AXIS2_PLACEMENT_3D('',#1276,#1017,$);
#1372=AXIS2_PLACEMENT_3D('',#1280,#1020,$);
#1373=AXIS2_PLACEMENT_3D('',#1282,#1022,$);
#1374=AXIS2_PLACEMENT_3D('',#1286,#1025,$);
#1375=AXIS2_PLACEMENT_3D('',#1290,#1028,$);
#1376=AXIS2_PLACEMENT_3D('',#1292,#1030,$);
#1377=AXIS2_PLACEMENT_3D('',#1294,#1032,$);
#1378=AXIS2_PLACEMENT_3D('',#1298,#1035,$);
#1379=AXIS2_PLACEMENT_3D('',#1300,#1037,$);
#1380=AXIS2_PLACEMENT_3D('',#1306,#1041,$);
#1381=AXIS2_PLACEMENT_3D('',#1317,#1045,$);
#1382=AXIS2_PLACEMENT_3D('',#1321,#1048,$);
#1383=AXIS2_PLACEMENT_3D('',#1330,#1051,$);
#1384=AXIS2_PLACEMENT_3D('',#1335,#1052,$);
#1385=AXIS2_PLACEMENT_3D('',#1340,#1053,$);
#1386=ADVANCED_BREP_SHAPE_REPRESENTATION('',(#897,#1341),#69);
ENDSEC;
END-ISO-10303-21;
