ISO-10303-21;
HEADER;
/* Generated by software containing ST-Developer
 * from STEP Tools, Inc. (www.steptools.com) 
 */

FILE_DESCRIPTION(
/* description */ ('Alibre Inc.'),
/* implementation_level */ '2;1');

FILE_NAME(
/* name */ 'export0',
/* time_stamp */ '2009-10-29T15:58:53-07:00',
/* author */ (''),
/* organization */ (''),
/* preprocessor_version */ 'ST-DEVELOPER v10',
/* originating_system */ 'Alibre',
/* authorisation */ '');

FILE_SCHEMA (('AUTOMOTIVE_DESIGN'));
ENDSEC;

DATA;
#10=COLOUR_RGB('',0.823529411764706,0.823529411764706,0.823529411764706);
#11=FILL_AREA_STYLE_COLOUR('NAME_0',#10);
#12=FILL_AREA_STYLE('NAME_0',(#11));
#13=SURFACE_STYLE_FILL_AREA(#12);
#14=SURFACE_SIDE_STYLE('NAME_0',(#13));
#15=SURFACE_STYLE_USAGE(.POSITIVE.,#14);
#16=PRESENTATION_STYLE_ASSIGNMENT((#15));
#17=STYLED_ITEM('NAME_0',(#16),#275);
#18=MECHANICAL_DESIGN_GEOMETRIC_PRESENTATION_REPRESENTATION('NAME_0',(#17),
#33);
#19=PRODUCT_DEFINITION_CONTEXT('part definition',#26,'design');
#20=SHAPE_DEFINITION_REPRESENTATION(#21,#276);
#21=PRODUCT_DEFINITION_SHAPE('PRODUCT_VERSION_ID',
'PRODUCT_VERSION_DESCR',#22);
#22=PRODUCT_DEFINITION('PRODUCT_VERSION_ID','PRODUCT_VERSION_DESCR',#23,
#19);
#23=PRODUCT_DEFINITION_FORMATION_WITH_SPECIFIED_SOURCE(
'PRODUCT_VERSION_ID','PRODUCT_VERSION_DESCR',#28,.MADE.);
#24=PRODUCT_RELATED_PRODUCT_CATEGORY('part','part',(#28));
#25=APPLICATION_PROTOCOL_DEFINITION('Draft International Standard',
'automotive_design',1994,#26);
#26=APPLICATION_CONTEXT('automotive_Design');
#27=PRODUCT_CONTEXT('3D Mechanical Parts',#26,'mechanical');
#28=PRODUCT('','Keystone_1902C','',(#27));
#29=(
LENGTH_UNIT()
NAMED_UNIT(*)
SI_UNIT(.CENTI.,.METRE.)
);
#30=(
NAMED_UNIT(*)
PLANE_ANGLE_UNIT()
SI_UNIT($,.RADIAN.)
);
#31=(
NAMED_UNIT(*)
SI_UNIT($,.STERADIAN.)
SOLID_ANGLE_UNIT()
);
#32=UNCERTAINTY_MEASURE_WITH_UNIT(LENGTH_MEASURE(1.E-006),#29,
'DISTANCE_ACCURACY_VALUE',
'Maximum model space distance between geometric entities at asserted co
nnectivities');
#33=(
GEOMETRIC_REPRESENTATION_CONTEXT(3)
GLOBAL_UNCERTAINTY_ASSIGNED_CONTEXT((#32))
GLOBAL_UNIT_ASSIGNED_CONTEXT((#31,#30,#29))
REPRESENTATION_CONTEXT('ID1','3D')
);
#34=VECTOR('',#205,1.);
#35=VECTOR('',#206,1.);
#36=VECTOR('',#207,1.);
#37=VECTOR('',#208,1.);
#38=VECTOR('',#210,1.);
#39=VECTOR('',#211,1.);
#40=VECTOR('',#212,1.);
#41=VECTOR('',#214,1.);
#42=VECTOR('',#215,1.);
#43=VECTOR('',#216,1.);
#44=VECTOR('',#218,1.);
#45=VECTOR('',#219,1.);
#46=VECTOR('',#220,1.);
#47=VECTOR('',#222,1.);
#48=VECTOR('',#223,1.);
#49=VECTOR('',#224,1.);
#50=VECTOR('',#226,1.);
#51=VECTOR('',#227,1.);
#52=LINE('',#236,#34);
#53=LINE('',#239,#35);
#54=LINE('',#241,#36);
#55=LINE('',#243,#37);
#56=LINE('',#245,#38);
#57=LINE('',#247,#39);
#58=LINE('',#249,#40);
#59=LINE('',#251,#41);
#60=LINE('',#253,#42);
#61=LINE('',#255,#43);
#62=LINE('',#257,#44);
#63=LINE('',#259,#45);
#64=LINE('',#261,#46);
#65=LINE('',#263,#47);
#66=LINE('',#265,#48);
#67=LINE('',#267,#49);
#68=LINE('',#269,#50);
#69=LINE('',#270,#51);
#70=PLANE('',#190);
#71=PLANE('',#191);
#72=PLANE('',#192);
#73=PLANE('',#193);
#74=PLANE('',#194);
#75=PLANE('',#195);
#76=PLANE('',#196);
#77=PLANE('',#197);
#78=VERTEX_POINT('',#232);
#79=VERTEX_POINT('',#234);
#80=VERTEX_POINT('',#237);
#81=VERTEX_POINT('',#238);
#82=VERTEX_POINT('',#240);
#83=VERTEX_POINT('',#242);
#84=VERTEX_POINT('',#246);
#85=VERTEX_POINT('',#248);
#86=VERTEX_POINT('',#252);
#87=VERTEX_POINT('',#254);
#88=VERTEX_POINT('',#258);
#89=VERTEX_POINT('',#260);
#90=VERTEX_POINT('',#264);
#91=VERTEX_POINT('',#266);
#92=CIRCLE('',#188,0.16);
#93=CIRCLE('',#189,0.16);
#94=EDGE_CURVE('',#78,#78,#92,.T.);
#95=EDGE_CURVE('',#79,#79,#93,.T.);
#96=EDGE_CURVE('',#80,#81,#52,.T.);
#97=EDGE_CURVE('',#82,#81,#53,.T.);
#98=EDGE_CURVE('',#82,#83,#54,.T.);
#99=EDGE_CURVE('',#83,#80,#55,.T.);
#100=EDGE_CURVE('',#81,#84,#56,.T.);
#101=EDGE_CURVE('',#85,#84,#57,.T.);
#102=EDGE_CURVE('',#85,#82,#58,.T.);
#103=EDGE_CURVE('',#84,#86,#59,.T.);
#104=EDGE_CURVE('',#87,#86,#60,.T.);
#105=EDGE_CURVE('',#87,#85,#61,.T.);
#106=EDGE_CURVE('',#86,#88,#62,.T.);
#107=EDGE_CURVE('',#89,#88,#63,.T.);
#108=EDGE_CURVE('',#89,#87,#64,.T.);
#109=EDGE_CURVE('',#88,#90,#65,.T.);
#110=EDGE_CURVE('',#91,#90,#66,.T.);
#111=EDGE_CURVE('',#91,#89,#67,.T.);
#112=EDGE_CURVE('',#90,#80,#68,.T.);
#113=EDGE_CURVE('',#83,#91,#69,.T.);
#114=ORIENTED_EDGE('',*,*,#94,.F.);
#115=ORIENTED_EDGE('',*,*,#95,.F.);
#116=ORIENTED_EDGE('',*,*,#96,.T.);
#117=ORIENTED_EDGE('',*,*,#97,.F.);
#118=ORIENTED_EDGE('',*,*,#98,.T.);
#119=ORIENTED_EDGE('',*,*,#99,.T.);
#120=ORIENTED_EDGE('',*,*,#100,.T.);
#121=ORIENTED_EDGE('',*,*,#101,.F.);
#122=ORIENTED_EDGE('',*,*,#102,.T.);
#123=ORIENTED_EDGE('',*,*,#97,.T.);
#124=ORIENTED_EDGE('',*,*,#103,.T.);
#125=ORIENTED_EDGE('',*,*,#104,.F.);
#126=ORIENTED_EDGE('',*,*,#105,.T.);
#127=ORIENTED_EDGE('',*,*,#101,.T.);
#128=ORIENTED_EDGE('',*,*,#106,.T.);
#129=ORIENTED_EDGE('',*,*,#107,.F.);
#130=ORIENTED_EDGE('',*,*,#108,.T.);
#131=ORIENTED_EDGE('',*,*,#104,.T.);
#132=ORIENTED_EDGE('',*,*,#109,.T.);
#133=ORIENTED_EDGE('',*,*,#110,.F.);
#134=ORIENTED_EDGE('',*,*,#111,.T.);
#135=ORIENTED_EDGE('',*,*,#107,.T.);
#136=ORIENTED_EDGE('',*,*,#112,.T.);
#137=ORIENTED_EDGE('',*,*,#99,.F.);
#138=ORIENTED_EDGE('',*,*,#113,.T.);
#139=ORIENTED_EDGE('',*,*,#110,.T.);
#140=ORIENTED_EDGE('',*,*,#94,.T.);
#141=ORIENTED_EDGE('',*,*,#96,.F.);
#142=ORIENTED_EDGE('',*,*,#112,.F.);
#143=ORIENTED_EDGE('',*,*,#109,.F.);
#144=ORIENTED_EDGE('',*,*,#106,.F.);
#145=ORIENTED_EDGE('',*,*,#103,.F.);
#146=ORIENTED_EDGE('',*,*,#100,.F.);
#147=ORIENTED_EDGE('',*,*,#95,.T.);
#148=ORIENTED_EDGE('',*,*,#113,.F.);
#149=ORIENTED_EDGE('',*,*,#98,.F.);
#150=ORIENTED_EDGE('',*,*,#102,.F.);
#151=ORIENTED_EDGE('',*,*,#105,.F.);
#152=ORIENTED_EDGE('',*,*,#108,.F.);
#153=ORIENTED_EDGE('',*,*,#111,.F.);
#154=EDGE_LOOP('',(#114));
#155=EDGE_LOOP('',(#115));
#156=EDGE_LOOP('',(#116,#117,#118,#119));
#157=EDGE_LOOP('',(#120,#121,#122,#123));
#158=EDGE_LOOP('',(#124,#125,#126,#127));
#159=EDGE_LOOP('',(#128,#129,#130,#131));
#160=EDGE_LOOP('',(#132,#133,#134,#135));
#161=EDGE_LOOP('',(#136,#137,#138,#139));
#162=EDGE_LOOP('',(#140));
#163=EDGE_LOOP('',(#141,#142,#143,#144,#145,#146));
#164=EDGE_LOOP('',(#147));
#165=EDGE_LOOP('',(#148,#149,#150,#151,#152,#153));
#166=FACE_BOUND('',#154,.T.);
#167=FACE_BOUND('',#155,.T.);
#168=FACE_BOUND('',#156,.T.);
#169=FACE_BOUND('',#157,.T.);
#170=FACE_BOUND('',#158,.T.);
#171=FACE_BOUND('',#159,.T.);
#172=FACE_BOUND('',#160,.T.);
#173=FACE_BOUND('',#161,.T.);
#174=FACE_BOUND('',#162,.T.);
#175=FACE_BOUND('',#163,.T.);
#176=FACE_BOUND('',#164,.T.);
#177=FACE_BOUND('',#165,.T.);
#178=ADVANCED_FACE('',(#166,#167),#273,.F.);
#179=ADVANCED_FACE('',(#168),#70,.T.);
#180=ADVANCED_FACE('',(#169),#71,.T.);
#181=ADVANCED_FACE('',(#170),#72,.T.);
#182=ADVANCED_FACE('',(#171),#73,.T.);
#183=ADVANCED_FACE('',(#172),#74,.T.);
#184=ADVANCED_FACE('',(#173),#75,.T.);
#185=ADVANCED_FACE('',(#174,#175),#76,.T.);
#186=ADVANCED_FACE('',(#176,#177),#77,.F.);
#187=AXIS2_PLACEMENT_3D('',#230,#198,#199);
#188=AXIS2_PLACEMENT_3D('',#231,#200,#201);
#189=AXIS2_PLACEMENT_3D('',#233,#202,#203);
#190=AXIS2_PLACEMENT_3D('',#235,#204,$);
#191=AXIS2_PLACEMENT_3D('',#244,#209,$);
#192=AXIS2_PLACEMENT_3D('',#250,#213,$);
#193=AXIS2_PLACEMENT_3D('',#256,#217,$);
#194=AXIS2_PLACEMENT_3D('',#262,#221,$);
#195=AXIS2_PLACEMENT_3D('',#268,#225,$);
#196=AXIS2_PLACEMENT_3D('',#271,#228,$);
#197=AXIS2_PLACEMENT_3D('',#272,#229,$);
#198=DIRECTION('',(0.,0.,1.));
#199=DIRECTION('',(0.16,0.,0.));
#200=DIRECTION('',(0.,0.,-1.));
#201=DIRECTION('',(0.16,0.,0.));
#202=DIRECTION('',(0.,0.,1.));
#203=DIRECTION('',(0.16,0.,0.));
#204=DIRECTION('',(0.866025403784438,0.500000000000001,0.));
#205=DIRECTION('',(0.500000000000001,-0.866025403784438,0.));
#206=DIRECTION('',(0.,0.,1.));
#207=DIRECTION('',(-0.500000000000001,0.866025403784438,0.));
#208=DIRECTION('',(0.,0.,1.));
#209=DIRECTION('',(0.866025403784437,-0.500000000000002,0.));
#210=DIRECTION('',(-0.500000000000002,-0.866025403784437,0.));
#211=DIRECTION('',(0.,0.,1.));
#212=DIRECTION('',(0.500000000000002,0.866025403784437,0.));
#213=DIRECTION('',(0.,-1.,0.));
#214=DIRECTION('',(-1.,0.,0.));
#215=DIRECTION('',(0.,0.,1.));
#216=DIRECTION('',(1.,0.,0.));
#217=DIRECTION('',(-0.866025403784439,-0.499999999999999,0.));
#218=DIRECTION('',(-0.499999999999999,0.866025403784439,0.));
#219=DIRECTION('',(0.,0.,1.));
#220=DIRECTION('',(0.499999999999999,-0.866025403784439,0.));
#221=DIRECTION('',(-0.866025403784438,0.500000000000002,0.));
#222=DIRECTION('',(0.500000000000002,0.866025403784438,0.));
#223=DIRECTION('',(0.,0.,1.));
#224=DIRECTION('',(-0.500000000000002,-0.866025403784438,0.));
#225=DIRECTION('',(0.,1.,0.));
#226=DIRECTION('',(1.,0.,0.));
#227=DIRECTION('',(-1.,0.,0.));
#228=DIRECTION('',(0.,0.,1.));
#229=DIRECTION('',(0.,0.,1.));
#230=CARTESIAN_POINT('',(-9.71445146547012E-017,-1.14491749414469E-016,0.));
#231=CARTESIAN_POINT('',(-9.71445146547012E-017,-1.14491749414469E-016,1.27));
#232=CARTESIAN_POINT('',(0.16,-1.14491749414469E-016,1.27));
#233=CARTESIAN_POINT('',(-9.71445146547012E-017,-1.14491749414469E-016,0.));
#234=CARTESIAN_POINT('',(0.16,-1.14491749414469E-016,0.));
#235=CARTESIAN_POINT('',(0.27712812921102,0.16,0.));
#236=CARTESIAN_POINT('',(0.369504172281361,-4.23272528138341E-016,1.27));
#237=CARTESIAN_POINT('',(0.18475208614068,0.32,1.27));
#238=CARTESIAN_POINT('',(0.369504172281361,-4.44089209850063E-016,1.27));
#239=CARTESIAN_POINT('',(0.369504172281361,-4.44089209850063E-016,0.));
#240=CARTESIAN_POINT('',(0.369504172281361,-4.44089209850063E-016,0.));
#241=CARTESIAN_POINT('',(0.369504172281361,-4.23272528138341E-016,0.));
#242=CARTESIAN_POINT('',(0.18475208614068,0.32,0.));
#243=CARTESIAN_POINT('',(0.18475208614068,0.32,0.));
#244=CARTESIAN_POINT('',(0.27712812921102,-0.16,0.));
#245=CARTESIAN_POINT('',(0.18475208614068,-0.32,1.27));
#246=CARTESIAN_POINT('',(0.18475208614068,-0.32,1.27));
#247=CARTESIAN_POINT('',(0.18475208614068,-0.32,0.));
#248=CARTESIAN_POINT('',(0.18475208614068,-0.32,0.));
#249=CARTESIAN_POINT('',(0.18475208614068,-0.32,0.));
#250=CARTESIAN_POINT('',(-4.9960036108132E-016,-0.32,0.));
#251=CARTESIAN_POINT('',(-0.184752086140681,-0.32,1.27));
#252=CARTESIAN_POINT('',(-0.184752086140681,-0.32,1.27));
#253=CARTESIAN_POINT('',(-0.184752086140681,-0.32,0.));
#254=CARTESIAN_POINT('',(-0.184752086140681,-0.32,0.));
#255=CARTESIAN_POINT('',(-0.184752086140681,-0.32,0.));
#256=CARTESIAN_POINT('',(-0.277128129211021,-0.16,0.));
#257=CARTESIAN_POINT('',(-0.369504172281361,1.31838984174237E-016,1.27));
#258=CARTESIAN_POINT('',(-0.369504172281361,1.11022302462516E-016,1.27));
#259=CARTESIAN_POINT('',(-0.369504172281361,1.11022302462516E-016,0.));
#260=CARTESIAN_POINT('',(-0.369504172281361,1.11022302462516E-016,0.));
#261=CARTESIAN_POINT('',(-0.369504172281361,1.31838984174237E-016,0.));
#262=CARTESIAN_POINT('',(-0.27712812921102,0.16,0.));
#263=CARTESIAN_POINT('',(-0.18475208614068,0.32,1.27));
#264=CARTESIAN_POINT('',(-0.18475208614068,0.32,1.27));
#265=CARTESIAN_POINT('',(-0.18475208614068,0.32,0.));
#266=CARTESIAN_POINT('',(-0.18475208614068,0.32,0.));
#267=CARTESIAN_POINT('',(-0.18475208614068,0.32,0.));
#268=CARTESIAN_POINT('',(0.,0.32,0.));
#269=CARTESIAN_POINT('',(0.18475208614068,0.32,1.27));
#270=CARTESIAN_POINT('',(0.18475208614068,0.32,0.));
#271=CARTESIAN_POINT('',(-9.71445146547012E-017,-1.14491749414469E-016,1.27));
#272=CARTESIAN_POINT('',(-9.71445146547012E-017,-1.14491749414469E-016,0.));
#273=CYLINDRICAL_SURFACE('',#187,0.16);
#274=CLOSED_SHELL('',(#178,#179,#180,#181,#182,#183,#184,#185,#186));
#275=MANIFOLD_SOLID_BREP('',#274);
#276=ADVANCED_BREP_SHAPE_REPRESENTATION('',(#275),#33);
ENDSEC;
END-ISO-10303-21;
