ISO-10303-21;
HEADER;
/* Generated by software containing ST-Developer
 * from STEP Tools, Inc. (www.steptools.com) 
 */

FILE_DESCRIPTION(
/* description */ ('Alibre Inc.'),
/* implementation_level */ '2;1');

FILE_NAME(
/* name */ 'export0',
/* time_stamp */ '2009-10-27T15:33:49-07:00',
/* author */ (''),
/* organization */ (''),
/* preprocessor_version */ 'ST-DEVELOPER v10',
/* originating_system */ 'Alibre',
/* authorisation */ '');

FILE_SCHEMA (('AUTOMOTIVE_DESIGN'));
ENDSEC;

DATA;
#10=COLOUR_RGB('',0.823529411764706,0.823529411764706,0.823529411764706);
#11=FILL_AREA_STYLE_COLOUR('NAME_0',#10);
#12=FILL_AREA_STYLE('NAME_0',(#11));
#13=SURFACE_STYLE_FILL_AREA(#12);
#14=SURFACE_SIDE_STYLE('NAME_0',(#13));
#15=SURFACE_STYLE_USAGE(.POSITIVE.,#14);
#16=PRESENTATION_STYLE_ASSIGNMENT((#15));
#17=STYLED_ITEM('NAME_0',(#16),#1459);
#18=MECHANICAL_DESIGN_GEOMETRIC_PRESENTATION_REPRESENTATION('NAME_0',(#17),
#33);
#19=PRODUCT_DEFINITION_CONTEXT('part definition',#26,'design');
#20=SHAPE_DEFINITION_REPRESENTATION(#21,#1460);
#21=PRODUCT_DEFINITION_SHAPE('PRODUCT_VERSION_ID',
'PRODUCT_VERSION_DESCR',#22);
#22=PRODUCT_DEFINITION('PRODUCT_VERSION_ID','PRODUCT_VERSION_DESCR',#23,
#19);
#23=PRODUCT_DEFINITION_FORMATION_WITH_SPECIFIED_SOURCE(
'PRODUCT_VERSION_ID','PRODUCT_VERSION_DESCR',#28,.MADE.);
#24=PRODUCT_RELATED_PRODUCT_CATEGORY('part','part',(#28));
#25=APPLICATION_PROTOCOL_DEFINITION('Draft International Standard',
'automotive_design',1994,#26);
#26=APPLICATION_CONTEXT('automotive_Design');
#27=PRODUCT_CONTEXT('3D Mechanical Parts',#26,'mechanical');
#28=PRODUCT('','B_F_NY PMS 440 0025 PH','',(#27));
#29=(
LENGTH_UNIT()
NAMED_UNIT(*)
SI_UNIT(.CENTI.,.METRE.)
);
#30=(
NAMED_UNIT(*)
PLANE_ANGLE_UNIT()
SI_UNIT($,.RADIAN.)
);
#31=(
NAMED_UNIT(*)
SI_UNIT($,.STERADIAN.)
SOLID_ANGLE_UNIT()
);
#32=UNCERTAINTY_MEASURE_WITH_UNIT(LENGTH_MEASURE(1.E-006),#29,
'DISTANCE_ACCURACY_VALUE',
'Maximum model space distance between geometric entities at asserted co
nnectivities');
#33=(
GEOMETRIC_REPRESENTATION_CONTEXT(3)
GLOBAL_UNCERTAINTY_ASSIGNED_CONTEXT((#32))
GLOBAL_UNIT_ASSIGNED_CONTEXT((#31,#30,#29))
REPRESENTATION_CONTEXT('ID1','3D')
);
#34=CONICAL_SURFACE('',#841,0.121618576642539,1.0471975511966);
#35=CONICAL_SURFACE('',#844,0.121618576642539,1.0471975511966);
#36=CONICAL_SURFACE('',#846,0.121618576642539,1.0471975511966);
#37=CONICAL_SURFACE('',#849,0.121618576642539,1.0471975511966);
#38=CONICAL_SURFACE('',#852,0.121618576642539,1.0471975511966);
#39=CONICAL_SURFACE('',#855,0.121618576642539,1.0471975511966);
#40=CONICAL_SURFACE('',#857,0.121618576642539,1.0471975511966);
#41=CONICAL_SURFACE('',#860,0.121618576642539,1.0471975511966);
#42=CONICAL_SURFACE('',#862,0.121618576642539,1.0471975511966);
#43=CONICAL_SURFACE('',#865,0.121618576642539,1.0471975511966);
#44=CONICAL_SURFACE('',#867,0.121618576642539,1.0471975511966);
#45=CONICAL_SURFACE('',#870,0.121618576642539,1.0471975511966);
#46=CONICAL_SURFACE('',#872,0.121618576642539,1.0471975511966);
#47=CONICAL_SURFACE('',#875,0.121618576642539,1.0471975511966);
#48=CONICAL_SURFACE('',#877,0.121618576642539,1.0471975511966);
#49=CONICAL_SURFACE('',#880,0.121618576642539,1.0471975511966);
#50=CONICAL_SURFACE('',#882,0.121618576642539,1.0471975511966);
#51=CONICAL_SURFACE('',#885,0.121618576642539,1.0471975511966);
#52=CONICAL_SURFACE('',#887,0.121618576642539,1.0471975511966);
#53=CONICAL_SURFACE('',#890,0.121618576642539,1.0471975511966);
#54=CONICAL_SURFACE('',#892,0.121618576642539,1.0471975511966);
#55=CONICAL_SURFACE('',#895,0.121618576642539,1.0471975511966);
#56=CONICAL_SURFACE('',#897,0.121618576642539,1.0471975511966);
#57=CONICAL_SURFACE('',#900,0.121618576642539,1.0471975511966);
#58=CONICAL_SURFACE('',#902,0.121618576642539,1.0471975511966);
#59=CONICAL_SURFACE('',#905,0.121618576642539,1.0471975511966);
#60=CONICAL_SURFACE('',#907,0.121618576642539,1.0471975511966);
#61=CONICAL_SURFACE('',#910,0.121618576642539,1.0471975511966);
#62=CYLINDRICAL_SURFACE('',#839,0.3302);
#63=CYLINDRICAL_SURFACE('',#851,0.14224);
#64=TOROIDAL_SURFACE('',#837,0.1778,0.1524);
#65=CIRCLE('',#836,0.1778);
#66=CIRCLE('',#838,0.3302);
#67=CIRCLE('',#840,0.3302);
#68=CIRCLE('',#842,0.14224);
#69=CIRCLE('',#843,0.0941230766425392);
#70=CIRCLE('',#845,0.127120257667039);
#71=CIRCLE('',#847,0.14224);
#72=CIRCLE('',#848,0.0941230766425392);
#73=CIRCLE('',#850,0.14224);
#74=CIRCLE('',#853,0.14224);
#75=CIRCLE('',#854,0.0941230766425392);
#76=CIRCLE('',#856,0.14224);
#77=CIRCLE('',#858,0.14224);
#78=CIRCLE('',#859,0.0941230766425392);
#79=CIRCLE('',#861,0.14224);
#80=CIRCLE('',#863,0.14224);
#81=CIRCLE('',#864,0.0941230766425392);
#82=CIRCLE('',#866,0.14224);
#83=CIRCLE('',#868,0.14224);
#84=CIRCLE('',#869,0.0941230766425392);
#85=CIRCLE('',#871,0.14224);
#86=CIRCLE('',#873,0.14224);
#87=CIRCLE('',#874,0.0941230766425392);
#88=CIRCLE('',#876,0.14224);
#89=CIRCLE('',#878,0.14224);
#90=CIRCLE('',#879,0.0941230766425392);
#91=CIRCLE('',#881,0.14224);
#92=CIRCLE('',#883,0.14224);
#93=CIRCLE('',#884,0.0941230766425392);
#94=CIRCLE('',#886,0.14224);
#95=CIRCLE('',#888,0.14224);
#96=CIRCLE('',#889,0.0941230766425392);
#97=CIRCLE('',#891,0.14224);
#98=CIRCLE('',#893,0.14224);
#99=CIRCLE('',#894,0.0941230766425392);
#100=CIRCLE('',#896,0.14224);
#101=CIRCLE('',#898,0.14224);
#102=CIRCLE('',#899,0.0941230766425392);
#103=CIRCLE('',#901,0.14224);
#104=CIRCLE('',#903,0.14224);
#105=CIRCLE('',#904,0.0941230766425392);
#106=CIRCLE('',#906,0.14224);
#107=CIRCLE('',#908,0.14224);
#108=CIRCLE('',#909,0.0941230766425392);
#109=CIRCLE('',#911,0.14224);
#110=CIRCLE('',#912,0.14224);
#111=VECTOR('',#916,1.);
#112=VECTOR('',#917,1.);
#113=VECTOR('',#918,1.);
#114=VECTOR('',#919,1.);
#115=VECTOR('',#921,1.);
#116=VECTOR('',#922,1.);
#117=VECTOR('',#923,1.);
#118=VECTOR('',#925,1.);
#119=VECTOR('',#926,1.);
#120=VECTOR('',#927,1.);
#121=VECTOR('',#929,1.);
#122=VECTOR('',#930,1.);
#123=VECTOR('',#931,1.);
#124=VECTOR('',#932,1.);
#125=VECTOR('',#934,1.);
#126=VECTOR('',#935,1.);
#127=VECTOR('',#936,1.);
#128=VECTOR('',#938,1.);
#129=VECTOR('',#939,1.);
#130=VECTOR('',#941,1.);
#131=VECTOR('',#942,1.);
#132=VECTOR('',#944,1.);
#133=VECTOR('',#945,1.);
#134=VECTOR('',#947,1.);
#135=VECTOR('',#948,1.);
#136=VECTOR('',#950,1.);
#137=VECTOR('',#951,1.);
#138=VECTOR('',#953,1.);
#139=VECTOR('',#954,1.);
#140=VECTOR('',#955,1.);
#141=VECTOR('',#957,1.);
#142=VECTOR('',#958,1.);
#143=LINE('',#1131,#111);
#144=LINE('',#1133,#112);
#145=LINE('',#1135,#113);
#146=LINE('',#1137,#114);
#147=LINE('',#1148,#115);
#148=LINE('',#1150,#116);
#149=LINE('',#1152,#117);
#150=LINE('',#1167,#118);
#151=LINE('',#1169,#119);
#152=LINE('',#1171,#120);
#153=LINE('',#1187,#121);
#154=LINE('',#1189,#122);
#155=LINE('',#1191,#123);
#156=LINE('',#1193,#124);
#157=LINE('',#1209,#125);
#158=LINE('',#1210,#126);
#159=LINE('',#1212,#127);
#160=LINE('',#1222,#128);
#161=LINE('',#1224,#129);
#162=LINE('',#1239,#130);
#163=LINE('',#1240,#131);
#164=LINE('',#1250,#132);
#165=LINE('',#1252,#133);
#166=LINE('',#1267,#134);
#167=LINE('',#1268,#135);
#168=LINE('',#1278,#136);
#169=LINE('',#1280,#137);
#170=LINE('',#1295,#138);
#171=LINE('',#1297,#139);
#172=LINE('',#1299,#140);
#173=LINE('',#1314,#141);
#174=LINE('',#1315,#142);
#175=VERTEX_POINT('',#1129);
#176=VERTEX_POINT('',#1130);
#177=VERTEX_POINT('',#1132);
#178=VERTEX_POINT('',#1134);
#179=VERTEX_POINT('',#1136);
#180=VERTEX_POINT('',#1146);
#181=VERTEX_POINT('',#1147);
#182=VERTEX_POINT('',#1149);
#183=VERTEX_POINT('',#1151);
#184=VERTEX_POINT('',#1166);
#185=VERTEX_POINT('',#1168);
#186=VERTEX_POINT('',#1170);
#187=VERTEX_POINT('',#1185);
#188=VERTEX_POINT('',#1186);
#189=VERTEX_POINT('',#1188);
#190=VERTEX_POINT('',#1190);
#191=VERTEX_POINT('',#1192);
#192=VERTEX_POINT('',#1207);
#193=VERTEX_POINT('',#1208);
#194=VERTEX_POINT('',#1211);
#195=VERTEX_POINT('',#1221);
#196=VERTEX_POINT('',#1223);
#197=VERTEX_POINT('',#1238);
#198=VERTEX_POINT('',#1249);
#199=VERTEX_POINT('',#1251);
#200=VERTEX_POINT('',#1266);
#201=VERTEX_POINT('',#1277);
#202=VERTEX_POINT('',#1279);
#203=VERTEX_POINT('',#1294);
#204=VERTEX_POINT('',#1296);
#205=VERTEX_POINT('',#1298);
#206=VERTEX_POINT('',#1313);
#207=VERTEX_POINT('',#1321);
#208=VERTEX_POINT('',#1324);
#209=VERTEX_POINT('',#1327);
#210=VERTEX_POINT('',#1329);
#211=VERTEX_POINT('',#1332);
#212=VERTEX_POINT('',#1335);
#213=VERTEX_POINT('',#1337);
#214=VERTEX_POINT('',#1340);
#215=VERTEX_POINT('',#1344);
#216=VERTEX_POINT('',#1346);
#217=VERTEX_POINT('',#1349);
#218=VERTEX_POINT('',#1352);
#219=VERTEX_POINT('',#1354);
#220=VERTEX_POINT('',#1357);
#221=VERTEX_POINT('',#1360);
#222=VERTEX_POINT('',#1362);
#223=VERTEX_POINT('',#1365);
#224=VERTEX_POINT('',#1368);
#225=VERTEX_POINT('',#1370);
#226=VERTEX_POINT('',#1373);
#227=VERTEX_POINT('',#1376);
#228=VERTEX_POINT('',#1378);
#229=VERTEX_POINT('',#1381);
#230=VERTEX_POINT('',#1384);
#231=VERTEX_POINT('',#1386);
#232=VERTEX_POINT('',#1389);
#233=VERTEX_POINT('',#1392);
#234=VERTEX_POINT('',#1394);
#235=VERTEX_POINT('',#1397);
#236=VERTEX_POINT('',#1400);
#237=VERTEX_POINT('',#1402);
#238=VERTEX_POINT('',#1405);
#239=VERTEX_POINT('',#1408);
#240=VERTEX_POINT('',#1410);
#241=VERTEX_POINT('',#1413);
#242=VERTEX_POINT('',#1416);
#243=VERTEX_POINT('',#1418);
#244=VERTEX_POINT('',#1421);
#245=VERTEX_POINT('',#1424);
#246=VERTEX_POINT('',#1426);
#247=VERTEX_POINT('',#1429);
#248=VERTEX_POINT('',#1432);
#249=VERTEX_POINT('',#1434);
#250=VERTEX_POINT('',#1437);
#251=VERTEX_POINT('',#1439);
#252=B_SPLINE_CURVE_WITH_KNOTS('',3,(#1117,#1118,#1119,#1120,#1121,#1122,
#1123,#1124,#1125,#1126,#1127,#1128),.UNSPECIFIED.,.F.,.U.,(4,2,2,2,2,4),
(1.44781691649748,1.49734656090606,1.54885212509621,1.6015187727904,1.62113525651057,
1.63131847124168),.UNSPECIFIED.);
#253=B_SPLINE_CURVE_WITH_KNOTS('',3,(#1139,#1140,#1141,#1142,#1143,#1144,
#1145),.UNSPECIFIED.,.F.,.U.,(4,3,4),(-0.172447288615313,0.,0.172447288615313),
.UNSPECIFIED.);
#254=B_SPLINE_CURVE_WITH_KNOTS('',3,(#1154,#1155,#1156,#1157,#1158,#1159,
#1160,#1161,#1162,#1163,#1164,#1165),.UNSPECIFIED.,.F.,.U.,(4,2,2,2,2,4),
(1.44781691649748,1.49734656090606,1.54885212509621,1.6015187727904,1.62113525651057,
1.63131847124168),.UNSPECIFIED.);
#255=B_SPLINE_CURVE_WITH_KNOTS('',3,(#1173,#1174,#1175,#1176,#1177,#1178,
#1179,#1180,#1181,#1182,#1183,#1184),.UNSPECIFIED.,.F.,.U.,(4,2,2,2,2,4),
(1.44781691649748,1.49734656090606,1.54885212509621,1.6015187727904,1.62113525651057,
1.63131847124168),.UNSPECIFIED.);
#256=B_SPLINE_CURVE_WITH_KNOTS('',3,(#1195,#1196,#1197,#1198,#1199,#1200,
#1201,#1202,#1203,#1204,#1205,#1206),.UNSPECIFIED.,.F.,.U.,(4,2,2,2,2,4),
(0.0366317933317702,0.0468150080628729,0.0664314917830436,0.119098139477237,
0.170603703667385,0.220133348075969),.UNSPECIFIED.);
#257=B_SPLINE_CURVE_WITH_KNOTS('',3,(#1214,#1215,#1216,#1217,#1218,#1219,
#1220),.UNSPECIFIED.,.F.,.U.,(4,3,4),(-0.172447288615313,0.,0.172447288615313),
.UNSPECIFIED.);
#258=B_SPLINE_CURVE_WITH_KNOTS('',3,(#1226,#1227,#1228,#1229,#1230,#1231,
#1232,#1233,#1234,#1235,#1236,#1237),.UNSPECIFIED.,.F.,.U.,(4,2,2,2,2,4),
(0.03663179333177,0.0468150080628728,0.0664314917830435,0.119098139477237,
0.170603703667384,0.220133348075969),.UNSPECIFIED.);
#259=B_SPLINE_CURVE_WITH_KNOTS('',3,(#1242,#1243,#1244,#1245,#1246,#1247,
#1248),.UNSPECIFIED.,.F.,.U.,(4,3,4),(-0.172447288615313,0.,0.172447288615313),
.UNSPECIFIED.);
#260=B_SPLINE_CURVE_WITH_KNOTS('',3,(#1254,#1255,#1256,#1257,#1258,#1259,
#1260,#1261,#1262,#1263,#1264,#1265),.UNSPECIFIED.,.F.,.U.,(4,2,2,2,2,4),
(0.0366317933317702,0.0468150080628729,0.0664314917830436,0.119098139477237,
0.170603703667385,0.220133348075969),.UNSPECIFIED.);
#261=B_SPLINE_CURVE_WITH_KNOTS('',3,(#1270,#1271,#1272,#1273,#1274,#1275,
#1276),.UNSPECIFIED.,.F.,.U.,(4,3,4),(-0.172447288615313,0.,0.172447288615313),
.UNSPECIFIED.);
#262=B_SPLINE_CURVE_WITH_KNOTS('',3,(#1282,#1283,#1284,#1285,#1286,#1287,
#1288,#1289,#1290,#1291,#1292,#1293),.UNSPECIFIED.,.F.,.U.,(4,2,2,2,2,4),
(0.03663179333177,0.0468150080628728,0.0664314917830435,0.119098139477237,
0.170603703667384,0.220133348075969),.UNSPECIFIED.);
#263=B_SPLINE_CURVE_WITH_KNOTS('',3,(#1301,#1302,#1303,#1304,#1305,#1306,
#1307,#1308,#1309,#1310,#1311,#1312),.UNSPECIFIED.,.F.,.U.,(4,2,2,2,2,4),
(1.44781691649748,1.49734656090606,1.54885212509621,1.6015187727904,1.62113525651057,
1.63131847124168),.UNSPECIFIED.);
#264=EDGE_CURVE('',#175,#176,#252,.T.);
#265=EDGE_CURVE('',#175,#177,#143,.T.);
#266=EDGE_CURVE('',#178,#177,#144,.T.);
#267=EDGE_CURVE('',#179,#178,#145,.T.);
#268=EDGE_CURVE('',#176,#179,#146,.T.);
#269=EDGE_CURVE('',#180,#181,#253,.T.);
#270=EDGE_CURVE('',#180,#182,#147,.T.);
#271=EDGE_CURVE('',#183,#182,#148,.T.);
#272=EDGE_CURVE('',#181,#183,#149,.T.);
#273=EDGE_CURVE('',#181,#184,#254,.T.);
#274=EDGE_CURVE('',#185,#183,#150,.T.);
#275=EDGE_CURVE('',#186,#185,#151,.T.);
#276=EDGE_CURVE('',#184,#186,#152,.T.);
#277=EDGE_CURVE('',#187,#188,#255,.T.);
#278=EDGE_CURVE('',#187,#189,#153,.T.);
#279=EDGE_CURVE('',#190,#189,#154,.T.);
#280=EDGE_CURVE('',#191,#190,#155,.T.);
#281=EDGE_CURVE('',#188,#191,#156,.T.);
#282=EDGE_CURVE('',#192,#193,#256,.T.);
#283=EDGE_CURVE('',#186,#192,#157,.T.);
#284=EDGE_CURVE('',#194,#185,#158,.T.);
#285=EDGE_CURVE('',#193,#194,#159,.T.);
#286=EDGE_CURVE('',#193,#195,#257,.T.);
#287=EDGE_CURVE('',#196,#194,#160,.T.);
#288=EDGE_CURVE('',#195,#196,#161,.T.);
#289=EDGE_CURVE('',#197,#180,#258,.T.);
#290=EDGE_CURVE('',#179,#197,#162,.T.);
#291=EDGE_CURVE('',#182,#178,#163,.T.);
#292=EDGE_CURVE('',#198,#175,#259,.T.);
#293=EDGE_CURVE('',#198,#199,#164,.T.);
#294=EDGE_CURVE('',#177,#199,#165,.T.);
#295=EDGE_CURVE('',#200,#198,#260,.T.);
#296=EDGE_CURVE('',#191,#200,#166,.T.);
#297=EDGE_CURVE('',#199,#190,#167,.T.);
#298=EDGE_CURVE('',#201,#187,#261,.T.);
#299=EDGE_CURVE('',#201,#202,#168,.T.);
#300=EDGE_CURVE('',#189,#202,#169,.T.);
#301=EDGE_CURVE('',#203,#201,#262,.T.);
#302=EDGE_CURVE('',#204,#203,#170,.T.);
#303=EDGE_CURVE('',#204,#205,#171,.T.);
#304=EDGE_CURVE('',#202,#205,#172,.T.);
#305=EDGE_CURVE('',#195,#206,#263,.T.);
#306=EDGE_CURVE('',#205,#196,#173,.T.);
#307=EDGE_CURVE('',#206,#204,#174,.T.);
#308=EDGE_CURVE('',#184,#192,#65,.T.);
#309=EDGE_CURVE('',#206,#203,#65,.T.);
#310=EDGE_CURVE('',#188,#200,#65,.T.);
#311=EDGE_CURVE('',#176,#197,#65,.T.);
#312=EDGE_CURVE('',#207,#207,#66,.T.);
#313=EDGE_CURVE('',#208,#208,#67,.T.);
#314=EDGE_CURVE('',#209,#209,#68,.T.);
#315=EDGE_CURVE('',#210,#210,#69,.T.);
#316=EDGE_CURVE('',#211,#211,#70,.T.);
#317=EDGE_CURVE('',#212,#212,#71,.T.);
#318=EDGE_CURVE('',#213,#213,#72,.T.);
#319=EDGE_CURVE('',#214,#214,#73,.T.);
#320=EDGE_CURVE('',#215,#215,#74,.T.);
#321=EDGE_CURVE('',#216,#216,#75,.T.);
#322=EDGE_CURVE('',#217,#217,#76,.T.);
#323=EDGE_CURVE('',#218,#218,#77,.T.);
#324=EDGE_CURVE('',#219,#219,#78,.T.);
#325=EDGE_CURVE('',#220,#220,#79,.T.);
#326=EDGE_CURVE('',#221,#221,#80,.T.);
#327=EDGE_CURVE('',#222,#222,#81,.T.);
#328=EDGE_CURVE('',#223,#223,#82,.T.);
#329=EDGE_CURVE('',#224,#224,#83,.T.);
#330=EDGE_CURVE('',#225,#225,#84,.T.);
#331=EDGE_CURVE('',#226,#226,#85,.T.);
#332=EDGE_CURVE('',#227,#227,#86,.T.);
#333=EDGE_CURVE('',#228,#228,#87,.T.);
#334=EDGE_CURVE('',#229,#229,#88,.T.);
#335=EDGE_CURVE('',#230,#230,#89,.T.);
#336=EDGE_CURVE('',#231,#231,#90,.T.);
#337=EDGE_CURVE('',#232,#232,#91,.T.);
#338=EDGE_CURVE('',#233,#233,#92,.T.);
#339=EDGE_CURVE('',#234,#234,#93,.T.);
#340=EDGE_CURVE('',#235,#235,#94,.T.);
#341=EDGE_CURVE('',#236,#236,#95,.T.);
#342=EDGE_CURVE('',#237,#237,#96,.T.);
#343=EDGE_CURVE('',#238,#238,#97,.T.);
#344=EDGE_CURVE('',#239,#239,#98,.T.);
#345=EDGE_CURVE('',#240,#240,#99,.T.);
#346=EDGE_CURVE('',#241,#241,#100,.T.);
#347=EDGE_CURVE('',#242,#242,#101,.T.);
#348=EDGE_CURVE('',#243,#243,#102,.T.);
#349=EDGE_CURVE('',#244,#244,#103,.T.);
#350=EDGE_CURVE('',#245,#245,#104,.T.);
#351=EDGE_CURVE('',#246,#246,#105,.T.);
#352=EDGE_CURVE('',#247,#247,#106,.T.);
#353=EDGE_CURVE('',#248,#248,#107,.T.);
#354=EDGE_CURVE('',#249,#249,#108,.T.);
#355=EDGE_CURVE('',#250,#250,#109,.T.);
#356=EDGE_CURVE('',#251,#251,#110,.T.);
#357=ORIENTED_EDGE('',*,*,#264,.F.);
#358=ORIENTED_EDGE('',*,*,#265,.T.);
#359=ORIENTED_EDGE('',*,*,#266,.F.);
#360=ORIENTED_EDGE('',*,*,#267,.F.);
#361=ORIENTED_EDGE('',*,*,#268,.F.);
#362=ORIENTED_EDGE('',*,*,#269,.F.);
#363=ORIENTED_EDGE('',*,*,#270,.T.);
#364=ORIENTED_EDGE('',*,*,#271,.F.);
#365=ORIENTED_EDGE('',*,*,#272,.F.);
#366=ORIENTED_EDGE('',*,*,#273,.F.);
#367=ORIENTED_EDGE('',*,*,#272,.T.);
#368=ORIENTED_EDGE('',*,*,#274,.F.);
#369=ORIENTED_EDGE('',*,*,#275,.F.);
#370=ORIENTED_EDGE('',*,*,#276,.F.);
#371=ORIENTED_EDGE('',*,*,#277,.F.);
#372=ORIENTED_EDGE('',*,*,#278,.T.);
#373=ORIENTED_EDGE('',*,*,#279,.F.);
#374=ORIENTED_EDGE('',*,*,#280,.F.);
#375=ORIENTED_EDGE('',*,*,#281,.F.);
#376=ORIENTED_EDGE('',*,*,#282,.F.);
#377=ORIENTED_EDGE('',*,*,#283,.F.);
#378=ORIENTED_EDGE('',*,*,#275,.T.);
#379=ORIENTED_EDGE('',*,*,#284,.F.);
#380=ORIENTED_EDGE('',*,*,#285,.F.);
#381=ORIENTED_EDGE('',*,*,#286,.F.);
#382=ORIENTED_EDGE('',*,*,#285,.T.);
#383=ORIENTED_EDGE('',*,*,#287,.F.);
#384=ORIENTED_EDGE('',*,*,#288,.F.);
#385=ORIENTED_EDGE('',*,*,#289,.F.);
#386=ORIENTED_EDGE('',*,*,#290,.F.);
#387=ORIENTED_EDGE('',*,*,#267,.T.);
#388=ORIENTED_EDGE('',*,*,#291,.F.);
#389=ORIENTED_EDGE('',*,*,#270,.F.);
#390=ORIENTED_EDGE('',*,*,#292,.F.);
#391=ORIENTED_EDGE('',*,*,#293,.T.);
#392=ORIENTED_EDGE('',*,*,#294,.F.);
#393=ORIENTED_EDGE('',*,*,#265,.F.);
#394=ORIENTED_EDGE('',*,*,#295,.F.);
#395=ORIENTED_EDGE('',*,*,#296,.F.);
#396=ORIENTED_EDGE('',*,*,#280,.T.);
#397=ORIENTED_EDGE('',*,*,#297,.F.);
#398=ORIENTED_EDGE('',*,*,#293,.F.);
#399=ORIENTED_EDGE('',*,*,#298,.F.);
#400=ORIENTED_EDGE('',*,*,#299,.T.);
#401=ORIENTED_EDGE('',*,*,#300,.F.);
#402=ORIENTED_EDGE('',*,*,#278,.F.);
#403=ORIENTED_EDGE('',*,*,#301,.F.);
#404=ORIENTED_EDGE('',*,*,#302,.F.);
#405=ORIENTED_EDGE('',*,*,#303,.T.);
#406=ORIENTED_EDGE('',*,*,#304,.F.);
#407=ORIENTED_EDGE('',*,*,#299,.F.);
#408=ORIENTED_EDGE('',*,*,#305,.F.);
#409=ORIENTED_EDGE('',*,*,#288,.T.);
#410=ORIENTED_EDGE('',*,*,#306,.F.);
#411=ORIENTED_EDGE('',*,*,#303,.F.);
#412=ORIENTED_EDGE('',*,*,#307,.F.);
#413=ORIENTED_EDGE('',*,*,#271,.T.);
#414=ORIENTED_EDGE('',*,*,#291,.T.);
#415=ORIENTED_EDGE('',*,*,#266,.T.);
#416=ORIENTED_EDGE('',*,*,#294,.T.);
#417=ORIENTED_EDGE('',*,*,#297,.T.);
#418=ORIENTED_EDGE('',*,*,#279,.T.);
#419=ORIENTED_EDGE('',*,*,#300,.T.);
#420=ORIENTED_EDGE('',*,*,#304,.T.);
#421=ORIENTED_EDGE('',*,*,#306,.T.);
#422=ORIENTED_EDGE('',*,*,#287,.T.);
#423=ORIENTED_EDGE('',*,*,#284,.T.);
#424=ORIENTED_EDGE('',*,*,#274,.T.);
#425=ORIENTED_EDGE('',*,*,#276,.T.);
#426=ORIENTED_EDGE('',*,*,#283,.T.);
#427=ORIENTED_EDGE('',*,*,#308,.F.);
#428=ORIENTED_EDGE('',*,*,#302,.T.);
#429=ORIENTED_EDGE('',*,*,#309,.F.);
#430=ORIENTED_EDGE('',*,*,#307,.T.);
#431=ORIENTED_EDGE('',*,*,#296,.T.);
#432=ORIENTED_EDGE('',*,*,#310,.F.);
#433=ORIENTED_EDGE('',*,*,#281,.T.);
#434=ORIENTED_EDGE('',*,*,#268,.T.);
#435=ORIENTED_EDGE('',*,*,#290,.T.);
#436=ORIENTED_EDGE('',*,*,#311,.F.);
#437=ORIENTED_EDGE('',*,*,#264,.T.);
#438=ORIENTED_EDGE('',*,*,#311,.T.);
#439=ORIENTED_EDGE('',*,*,#289,.T.);
#440=ORIENTED_EDGE('',*,*,#269,.T.);
#441=ORIENTED_EDGE('',*,*,#273,.T.);
#442=ORIENTED_EDGE('',*,*,#308,.T.);
#443=ORIENTED_EDGE('',*,*,#282,.T.);
#444=ORIENTED_EDGE('',*,*,#286,.T.);
#445=ORIENTED_EDGE('',*,*,#305,.T.);
#446=ORIENTED_EDGE('',*,*,#309,.T.);
#447=ORIENTED_EDGE('',*,*,#301,.T.);
#448=ORIENTED_EDGE('',*,*,#298,.T.);
#449=ORIENTED_EDGE('',*,*,#277,.T.);
#450=ORIENTED_EDGE('',*,*,#310,.T.);
#451=ORIENTED_EDGE('',*,*,#295,.T.);
#452=ORIENTED_EDGE('',*,*,#292,.T.);
#453=ORIENTED_EDGE('',*,*,#312,.T.);
#454=ORIENTED_EDGE('',*,*,#313,.T.);
#455=ORIENTED_EDGE('',*,*,#312,.F.);
#456=ORIENTED_EDGE('',*,*,#314,.F.);
#457=ORIENTED_EDGE('',*,*,#315,.T.);
#458=ORIENTED_EDGE('',*,*,#316,.F.);
#459=ORIENTED_EDGE('',*,*,#315,.F.);
#460=ORIENTED_EDGE('',*,*,#317,.F.);
#461=ORIENTED_EDGE('',*,*,#318,.T.);
#462=ORIENTED_EDGE('',*,*,#319,.F.);
#463=ORIENTED_EDGE('',*,*,#318,.F.);
#464=ORIENTED_EDGE('',*,*,#314,.T.);
#465=ORIENTED_EDGE('',*,*,#319,.T.);
#466=ORIENTED_EDGE('',*,*,#320,.F.);
#467=ORIENTED_EDGE('',*,*,#321,.T.);
#468=ORIENTED_EDGE('',*,*,#322,.F.);
#469=ORIENTED_EDGE('',*,*,#321,.F.);
#470=ORIENTED_EDGE('',*,*,#317,.T.);
#471=ORIENTED_EDGE('',*,*,#322,.T.);
#472=ORIENTED_EDGE('',*,*,#323,.F.);
#473=ORIENTED_EDGE('',*,*,#324,.T.);
#474=ORIENTED_EDGE('',*,*,#325,.F.);
#475=ORIENTED_EDGE('',*,*,#324,.F.);
#476=ORIENTED_EDGE('',*,*,#320,.T.);
#477=ORIENTED_EDGE('',*,*,#325,.T.);
#478=ORIENTED_EDGE('',*,*,#326,.F.);
#479=ORIENTED_EDGE('',*,*,#327,.T.);
#480=ORIENTED_EDGE('',*,*,#328,.F.);
#481=ORIENTED_EDGE('',*,*,#327,.F.);
#482=ORIENTED_EDGE('',*,*,#323,.T.);
#483=ORIENTED_EDGE('',*,*,#328,.T.);
#484=ORIENTED_EDGE('',*,*,#329,.F.);
#485=ORIENTED_EDGE('',*,*,#330,.T.);
#486=ORIENTED_EDGE('',*,*,#331,.F.);
#487=ORIENTED_EDGE('',*,*,#330,.F.);
#488=ORIENTED_EDGE('',*,*,#326,.T.);
#489=ORIENTED_EDGE('',*,*,#331,.T.);
#490=ORIENTED_EDGE('',*,*,#332,.F.);
#491=ORIENTED_EDGE('',*,*,#333,.T.);
#492=ORIENTED_EDGE('',*,*,#334,.F.);
#493=ORIENTED_EDGE('',*,*,#333,.F.);
#494=ORIENTED_EDGE('',*,*,#329,.T.);
#495=ORIENTED_EDGE('',*,*,#334,.T.);
#496=ORIENTED_EDGE('',*,*,#335,.F.);
#497=ORIENTED_EDGE('',*,*,#336,.T.);
#498=ORIENTED_EDGE('',*,*,#337,.F.);
#499=ORIENTED_EDGE('',*,*,#336,.F.);
#500=ORIENTED_EDGE('',*,*,#332,.T.);
#501=ORIENTED_EDGE('',*,*,#337,.T.);
#502=ORIENTED_EDGE('',*,*,#338,.F.);
#503=ORIENTED_EDGE('',*,*,#339,.T.);
#504=ORIENTED_EDGE('',*,*,#340,.F.);
#505=ORIENTED_EDGE('',*,*,#339,.F.);
#506=ORIENTED_EDGE('',*,*,#335,.T.);
#507=ORIENTED_EDGE('',*,*,#340,.T.);
#508=ORIENTED_EDGE('',*,*,#341,.F.);
#509=ORIENTED_EDGE('',*,*,#342,.T.);
#510=ORIENTED_EDGE('',*,*,#343,.F.);
#511=ORIENTED_EDGE('',*,*,#342,.F.);
#512=ORIENTED_EDGE('',*,*,#338,.T.);
#513=ORIENTED_EDGE('',*,*,#343,.T.);
#514=ORIENTED_EDGE('',*,*,#344,.F.);
#515=ORIENTED_EDGE('',*,*,#345,.T.);
#516=ORIENTED_EDGE('',*,*,#346,.F.);
#517=ORIENTED_EDGE('',*,*,#345,.F.);
#518=ORIENTED_EDGE('',*,*,#341,.T.);
#519=ORIENTED_EDGE('',*,*,#346,.T.);
#520=ORIENTED_EDGE('',*,*,#347,.F.);
#521=ORIENTED_EDGE('',*,*,#348,.T.);
#522=ORIENTED_EDGE('',*,*,#349,.F.);
#523=ORIENTED_EDGE('',*,*,#348,.F.);
#524=ORIENTED_EDGE('',*,*,#344,.T.);
#525=ORIENTED_EDGE('',*,*,#349,.T.);
#526=ORIENTED_EDGE('',*,*,#350,.F.);
#527=ORIENTED_EDGE('',*,*,#351,.T.);
#528=ORIENTED_EDGE('',*,*,#352,.F.);
#529=ORIENTED_EDGE('',*,*,#351,.F.);
#530=ORIENTED_EDGE('',*,*,#347,.T.);
#531=ORIENTED_EDGE('',*,*,#352,.T.);
#532=ORIENTED_EDGE('',*,*,#353,.F.);
#533=ORIENTED_EDGE('',*,*,#354,.T.);
#534=ORIENTED_EDGE('',*,*,#355,.F.);
#535=ORIENTED_EDGE('',*,*,#354,.F.);
#536=ORIENTED_EDGE('',*,*,#350,.T.);
#537=ORIENTED_EDGE('',*,*,#355,.T.);
#538=ORIENTED_EDGE('',*,*,#353,.T.);
#539=ORIENTED_EDGE('',*,*,#356,.F.);
#540=ORIENTED_EDGE('',*,*,#316,.T.);
#541=ORIENTED_EDGE('',*,*,#356,.T.);
#542=ORIENTED_EDGE('',*,*,#313,.F.);
#543=EDGE_LOOP('',(#357,#358,#359,#360,#361));
#544=EDGE_LOOP('',(#362,#363,#364,#365));
#545=EDGE_LOOP('',(#366,#367,#368,#369,#370));
#546=EDGE_LOOP('',(#371,#372,#373,#374,#375));
#547=EDGE_LOOP('',(#376,#377,#378,#379,#380));
#548=EDGE_LOOP('',(#381,#382,#383,#384));
#549=EDGE_LOOP('',(#385,#386,#387,#388,#389));
#550=EDGE_LOOP('',(#390,#391,#392,#393));
#551=EDGE_LOOP('',(#394,#395,#396,#397,#398));
#552=EDGE_LOOP('',(#399,#400,#401,#402));
#553=EDGE_LOOP('',(#403,#404,#405,#406,#407));
#554=EDGE_LOOP('',(#408,#409,#410,#411,#412));
#555=EDGE_LOOP('',(#413,#414,#415,#416,#417,#418,#419,#420,#421,#422,#423,
#424));
#556=EDGE_LOOP('',(#425,#426,#427));
#557=EDGE_LOOP('',(#428,#429,#430));
#558=EDGE_LOOP('',(#431,#432,#433));
#559=EDGE_LOOP('',(#434,#435,#436));
#560=EDGE_LOOP('',(#437,#438,#439,#440,#441,#442,#443,#444,#445,#446,#447,
#448,#449,#450,#451,#452));
#561=EDGE_LOOP('',(#453));
#562=EDGE_LOOP('',(#454));
#563=EDGE_LOOP('',(#455));
#564=EDGE_LOOP('',(#456));
#565=EDGE_LOOP('',(#457));
#566=EDGE_LOOP('',(#458));
#567=EDGE_LOOP('',(#459));
#568=EDGE_LOOP('',(#460));
#569=EDGE_LOOP('',(#461));
#570=EDGE_LOOP('',(#462));
#571=EDGE_LOOP('',(#463));
#572=EDGE_LOOP('',(#464));
#573=EDGE_LOOP('',(#465));
#574=EDGE_LOOP('',(#466));
#575=EDGE_LOOP('',(#467));
#576=EDGE_LOOP('',(#468));
#577=EDGE_LOOP('',(#469));
#578=EDGE_LOOP('',(#470));
#579=EDGE_LOOP('',(#471));
#580=EDGE_LOOP('',(#472));
#581=EDGE_LOOP('',(#473));
#582=EDGE_LOOP('',(#474));
#583=EDGE_LOOP('',(#475));
#584=EDGE_LOOP('',(#476));
#585=EDGE_LOOP('',(#477));
#586=EDGE_LOOP('',(#478));
#587=EDGE_LOOP('',(#479));
#588=EDGE_LOOP('',(#480));
#589=EDGE_LOOP('',(#481));
#590=EDGE_LOOP('',(#482));
#591=EDGE_LOOP('',(#483));
#592=EDGE_LOOP('',(#484));
#593=EDGE_LOOP('',(#485));
#594=EDGE_LOOP('',(#486));
#595=EDGE_LOOP('',(#487));
#596=EDGE_LOOP('',(#488));
#597=EDGE_LOOP('',(#489));
#598=EDGE_LOOP('',(#490));
#599=EDGE_LOOP('',(#491));
#600=EDGE_LOOP('',(#492));
#601=EDGE_LOOP('',(#493));
#602=EDGE_LOOP('',(#494));
#603=EDGE_LOOP('',(#495));
#604=EDGE_LOOP('',(#496));
#605=EDGE_LOOP('',(#497));
#606=EDGE_LOOP('',(#498));
#607=EDGE_LOOP('',(#499));
#608=EDGE_LOOP('',(#500));
#609=EDGE_LOOP('',(#501));
#610=EDGE_LOOP('',(#502));
#611=EDGE_LOOP('',(#503));
#612=EDGE_LOOP('',(#504));
#613=EDGE_LOOP('',(#505));
#614=EDGE_LOOP('',(#506));
#615=EDGE_LOOP('',(#507));
#616=EDGE_LOOP('',(#508));
#617=EDGE_LOOP('',(#509));
#618=EDGE_LOOP('',(#510));
#619=EDGE_LOOP('',(#511));
#620=EDGE_LOOP('',(#512));
#621=EDGE_LOOP('',(#513));
#622=EDGE_LOOP('',(#514));
#623=EDGE_LOOP('',(#515));
#624=EDGE_LOOP('',(#516));
#625=EDGE_LOOP('',(#517));
#626=EDGE_LOOP('',(#518));
#627=EDGE_LOOP('',(#519));
#628=EDGE_LOOP('',(#520));
#629=EDGE_LOOP('',(#521));
#630=EDGE_LOOP('',(#522));
#631=EDGE_LOOP('',(#523));
#632=EDGE_LOOP('',(#524));
#633=EDGE_LOOP('',(#525));
#634=EDGE_LOOP('',(#526));
#635=EDGE_LOOP('',(#527));
#636=EDGE_LOOP('',(#528));
#637=EDGE_LOOP('',(#529));
#638=EDGE_LOOP('',(#530));
#639=EDGE_LOOP('',(#531));
#640=EDGE_LOOP('',(#532));
#641=EDGE_LOOP('',(#533));
#642=EDGE_LOOP('',(#534));
#643=EDGE_LOOP('',(#535));
#644=EDGE_LOOP('',(#536));
#645=EDGE_LOOP('',(#537));
#646=EDGE_LOOP('',(#538));
#647=EDGE_LOOP('',(#539));
#648=EDGE_LOOP('',(#540));
#649=EDGE_LOOP('',(#541));
#650=EDGE_LOOP('',(#542));
#651=FACE_BOUND('',#543,.T.);
#652=FACE_BOUND('',#544,.T.);
#653=FACE_BOUND('',#545,.T.);
#654=FACE_BOUND('',#546,.T.);
#655=FACE_BOUND('',#547,.T.);
#656=FACE_BOUND('',#548,.T.);
#657=FACE_BOUND('',#549,.T.);
#658=FACE_BOUND('',#550,.T.);
#659=FACE_BOUND('',#551,.T.);
#660=FACE_BOUND('',#552,.T.);
#661=FACE_BOUND('',#553,.T.);
#662=FACE_BOUND('',#554,.T.);
#663=FACE_BOUND('',#555,.T.);
#664=FACE_BOUND('',#556,.T.);
#665=FACE_BOUND('',#557,.T.);
#666=FACE_BOUND('',#558,.T.);
#667=FACE_BOUND('',#559,.T.);
#668=FACE_BOUND('',#560,.T.);
#669=FACE_BOUND('',#561,.T.);
#670=FACE_BOUND('',#562,.T.);
#671=FACE_BOUND('',#563,.T.);
#672=FACE_BOUND('',#564,.T.);
#673=FACE_BOUND('',#565,.T.);
#674=FACE_BOUND('',#566,.T.);
#675=FACE_BOUND('',#567,.T.);
#676=FACE_BOUND('',#568,.T.);
#677=FACE_BOUND('',#569,.T.);
#678=FACE_BOUND('',#570,.T.);
#679=FACE_BOUND('',#571,.T.);
#680=FACE_BOUND('',#572,.T.);
#681=FACE_BOUND('',#573,.T.);
#682=FACE_BOUND('',#574,.T.);
#683=FACE_BOUND('',#575,.T.);
#684=FACE_BOUND('',#576,.T.);
#685=FACE_BOUND('',#577,.T.);
#686=FACE_BOUND('',#578,.T.);
#687=FACE_BOUND('',#579,.T.);
#688=FACE_BOUND('',#580,.T.);
#689=FACE_BOUND('',#581,.T.);
#690=FACE_BOUND('',#582,.T.);
#691=FACE_BOUND('',#583,.T.);
#692=FACE_BOUND('',#584,.T.);
#693=FACE_BOUND('',#585,.T.);
#694=FACE_BOUND('',#586,.T.);
#695=FACE_BOUND('',#587,.T.);
#696=FACE_BOUND('',#588,.T.);
#697=FACE_BOUND('',#589,.T.);
#698=FACE_BOUND('',#590,.T.);
#699=FACE_BOUND('',#591,.T.);
#700=FACE_BOUND('',#592,.T.);
#701=FACE_BOUND('',#593,.T.);
#702=FACE_BOUND('',#594,.T.);
#703=FACE_BOUND('',#595,.T.);
#704=FACE_BOUND('',#596,.T.);
#705=FACE_BOUND('',#597,.T.);
#706=FACE_BOUND('',#598,.T.);
#707=FACE_BOUND('',#599,.T.);
#708=FACE_BOUND('',#600,.T.);
#709=FACE_BOUND('',#601,.T.);
#710=FACE_BOUND('',#602,.T.);
#711=FACE_BOUND('',#603,.T.);
#712=FACE_BOUND('',#604,.T.);
#713=FACE_BOUND('',#605,.T.);
#714=FACE_BOUND('',#606,.T.);
#715=FACE_BOUND('',#607,.T.);
#716=FACE_BOUND('',#608,.T.);
#717=FACE_BOUND('',#609,.T.);
#718=FACE_BOUND('',#610,.T.);
#719=FACE_BOUND('',#611,.T.);
#720=FACE_BOUND('',#612,.T.);
#721=FACE_BOUND('',#613,.T.);
#722=FACE_BOUND('',#614,.T.);
#723=FACE_BOUND('',#615,.T.);
#724=FACE_BOUND('',#616,.T.);
#725=FACE_BOUND('',#617,.T.);
#726=FACE_BOUND('',#618,.T.);
#727=FACE_BOUND('',#619,.T.);
#728=FACE_BOUND('',#620,.T.);
#729=FACE_BOUND('',#621,.T.);
#730=FACE_BOUND('',#622,.T.);
#731=FACE_BOUND('',#623,.T.);
#732=FACE_BOUND('',#624,.T.);
#733=FACE_BOUND('',#625,.T.);
#734=FACE_BOUND('',#626,.T.);
#735=FACE_BOUND('',#627,.T.);
#736=FACE_BOUND('',#628,.T.);
#737=FACE_BOUND('',#629,.T.);
#738=FACE_BOUND('',#630,.T.);
#739=FACE_BOUND('',#631,.T.);
#740=FACE_BOUND('',#632,.T.);
#741=FACE_BOUND('',#633,.T.);
#742=FACE_BOUND('',#634,.T.);
#743=FACE_BOUND('',#635,.T.);
#744=FACE_BOUND('',#636,.T.);
#745=FACE_BOUND('',#637,.T.);
#746=FACE_BOUND('',#638,.T.);
#747=FACE_BOUND('',#639,.T.);
#748=FACE_BOUND('',#640,.T.);
#749=FACE_BOUND('',#641,.T.);
#750=FACE_BOUND('',#642,.T.);
#751=FACE_BOUND('',#643,.T.);
#752=FACE_BOUND('',#644,.T.);
#753=FACE_BOUND('',#645,.T.);
#754=FACE_BOUND('',#646,.T.);
#755=FACE_BOUND('',#647,.T.);
#756=FACE_BOUND('',#648,.T.);
#757=FACE_BOUND('',#649,.T.);
#758=FACE_BOUND('',#650,.T.);
#759=ADVANCED_FACE('',(#651),#1442,.F.);
#760=ADVANCED_FACE('',(#652),#1443,.F.);
#761=ADVANCED_FACE('',(#653),#1444,.F.);
#762=ADVANCED_FACE('',(#654),#1445,.F.);
#763=ADVANCED_FACE('',(#655),#1446,.F.);
#764=ADVANCED_FACE('',(#656),#1447,.F.);
#765=ADVANCED_FACE('',(#657),#1448,.F.);
#766=ADVANCED_FACE('',(#658),#1449,.F.);
#767=ADVANCED_FACE('',(#659),#1450,.F.);
#768=ADVANCED_FACE('',(#660),#1451,.F.);
#769=ADVANCED_FACE('',(#661),#1452,.F.);
#770=ADVANCED_FACE('',(#662),#1453,.F.);
#771=ADVANCED_FACE('',(#663),#1454,.T.);
#772=ADVANCED_FACE('',(#664),#1455,.T.);
#773=ADVANCED_FACE('',(#665),#1455,.T.);
#774=ADVANCED_FACE('',(#666),#1455,.T.);
#775=ADVANCED_FACE('',(#667),#1455,.T.);
#776=ADVANCED_FACE('',(#668,#669),#64,.T.);
#777=ADVANCED_FACE('',(#670,#671),#62,.T.);
#778=ADVANCED_FACE('',(#672,#673),#34,.T.);
#779=ADVANCED_FACE('',(#674,#675),#35,.T.);
#780=ADVANCED_FACE('',(#676,#677),#36,.T.);
#781=ADVANCED_FACE('',(#678,#679),#37,.T.);
#782=ADVANCED_FACE('',(#680,#681),#63,.T.);
#783=ADVANCED_FACE('',(#682,#683),#38,.T.);
#784=ADVANCED_FACE('',(#684,#685),#39,.T.);
#785=ADVANCED_FACE('',(#686,#687),#63,.T.);
#786=ADVANCED_FACE('',(#688,#689),#40,.T.);
#787=ADVANCED_FACE('',(#690,#691),#41,.T.);
#788=ADVANCED_FACE('',(#692,#693),#63,.T.);
#789=ADVANCED_FACE('',(#694,#695),#42,.T.);
#790=ADVANCED_FACE('',(#696,#697),#43,.T.);
#791=ADVANCED_FACE('',(#698,#699),#63,.T.);
#792=ADVANCED_FACE('',(#700,#701),#44,.T.);
#793=ADVANCED_FACE('',(#702,#703),#45,.T.);
#794=ADVANCED_FACE('',(#704,#705),#63,.T.);
#795=ADVANCED_FACE('',(#706,#707),#46,.T.);
#796=ADVANCED_FACE('',(#708,#709),#47,.T.);
#797=ADVANCED_FACE('',(#710,#711),#63,.T.);
#798=ADVANCED_FACE('',(#712,#713),#48,.T.);
#799=ADVANCED_FACE('',(#714,#715),#49,.T.);
#800=ADVANCED_FACE('',(#716,#717),#63,.T.);
#801=ADVANCED_FACE('',(#718,#719),#50,.T.);
#802=ADVANCED_FACE('',(#720,#721),#51,.T.);
#803=ADVANCED_FACE('',(#722,#723),#63,.T.);
#804=ADVANCED_FACE('',(#724,#725),#52,.T.);
#805=ADVANCED_FACE('',(#726,#727),#53,.T.);
#806=ADVANCED_FACE('',(#728,#729),#63,.T.);
#807=ADVANCED_FACE('',(#730,#731),#54,.T.);
#808=ADVANCED_FACE('',(#732,#733),#55,.T.);
#809=ADVANCED_FACE('',(#734,#735),#63,.T.);
#810=ADVANCED_FACE('',(#736,#737),#56,.T.);
#811=ADVANCED_FACE('',(#738,#739),#57,.T.);
#812=ADVANCED_FACE('',(#740,#741),#63,.T.);
#813=ADVANCED_FACE('',(#742,#743),#58,.T.);
#814=ADVANCED_FACE('',(#744,#745),#59,.T.);
#815=ADVANCED_FACE('',(#746,#747),#63,.T.);
#816=ADVANCED_FACE('',(#748,#749),#60,.T.);
#817=ADVANCED_FACE('',(#750,#751),#61,.T.);
#818=ADVANCED_FACE('',(#752,#753),#63,.T.);
#819=ADVANCED_FACE('',(#754,#755),#63,.T.);
#820=ADVANCED_FACE('',(#756),#1456,.F.);
#821=ADVANCED_FACE('',(#757,#758),#1457,.F.);
#822=AXIS2_PLACEMENT_3D('',#1116,#915,$);
#823=AXIS2_PLACEMENT_3D('',#1138,#920,$);
#824=AXIS2_PLACEMENT_3D('',#1153,#924,$);
#825=AXIS2_PLACEMENT_3D('',#1172,#928,$);
#826=AXIS2_PLACEMENT_3D('',#1194,#933,$);
#827=AXIS2_PLACEMENT_3D('',#1213,#937,$);
#828=AXIS2_PLACEMENT_3D('',#1225,#940,$);
#829=AXIS2_PLACEMENT_3D('',#1241,#943,$);
#830=AXIS2_PLACEMENT_3D('',#1253,#946,$);
#831=AXIS2_PLACEMENT_3D('',#1269,#949,$);
#832=AXIS2_PLACEMENT_3D('',#1281,#952,$);
#833=AXIS2_PLACEMENT_3D('',#1300,#956,$);
#834=AXIS2_PLACEMENT_3D('',#1316,#959,$);
#835=AXIS2_PLACEMENT_3D('',#1317,#960,$);
#836=AXIS2_PLACEMENT_3D('',#1318,#961,#962);
#837=AXIS2_PLACEMENT_3D('',#1319,#963,$);
#838=AXIS2_PLACEMENT_3D('',#1320,#964,#965);
#839=AXIS2_PLACEMENT_3D('',#1322,#966,#967);
#840=AXIS2_PLACEMENT_3D('',#1323,#968,#969);
#841=AXIS2_PLACEMENT_3D('',#1325,#970,#971);
#842=AXIS2_PLACEMENT_3D('',#1326,#972,#973);
#843=AXIS2_PLACEMENT_3D('',#1328,#974,#975);
#844=AXIS2_PLACEMENT_3D('',#1330,#976,#977);
#845=AXIS2_PLACEMENT_3D('',#1331,#978,#979);
#846=AXIS2_PLACEMENT_3D('',#1333,#980,#981);
#847=AXIS2_PLACEMENT_3D('',#1334,#982,#983);
#848=AXIS2_PLACEMENT_3D('',#1336,#984,#985);
#849=AXIS2_PLACEMENT_3D('',#1338,#986,#987);
#850=AXIS2_PLACEMENT_3D('',#1339,#988,#989);
#851=AXIS2_PLACEMENT_3D('',#1341,#990,#991);
#852=AXIS2_PLACEMENT_3D('',#1342,#992,#993);
#853=AXIS2_PLACEMENT_3D('',#1343,#994,#995);
#854=AXIS2_PLACEMENT_3D('',#1345,#996,#997);
#855=AXIS2_PLACEMENT_3D('',#1347,#998,#999);
#856=AXIS2_PLACEMENT_3D('',#1348,#1000,#1001);
#857=AXIS2_PLACEMENT_3D('',#1350,#1002,#1003);
#858=AXIS2_PLACEMENT_3D('',#1351,#1004,#1005);
#859=AXIS2_PLACEMENT_3D('',#1353,#1006,#1007);
#860=AXIS2_PLACEMENT_3D('',#1355,#1008,#1009);
#861=AXIS2_PLACEMENT_3D('',#1356,#1010,#1011);
#862=AXIS2_PLACEMENT_3D('',#1358,#1012,#1013);
#863=AXIS2_PLACEMENT_3D('',#1359,#1014,#1015);
#864=AXIS2_PLACEMENT_3D('',#1361,#1016,#1017);
#865=AXIS2_PLACEMENT_3D('',#1363,#1018,#1019);
#866=AXIS2_PLACEMENT_3D('',#1364,#1020,#1021);
#867=AXIS2_PLACEMENT_3D('',#1366,#1022,#1023);
#868=AXIS2_PLACEMENT_3D('',#1367,#1024,#1025);
#869=AXIS2_PLACEMENT_3D('',#1369,#1026,#1027);
#870=AXIS2_PLACEMENT_3D('',#1371,#1028,#1029);
#871=AXIS2_PLACEMENT_3D('',#1372,#1030,#1031);
#872=AXIS2_PLACEMENT_3D('',#1374,#1032,#1033);
#873=AXIS2_PLACEMENT_3D('',#1375,#1034,#1035);
#874=AXIS2_PLACEMENT_3D('',#1377,#1036,#1037);
#875=AXIS2_PLACEMENT_3D('',#1379,#1038,#1039);
#876=AXIS2_PLACEMENT_3D('',#1380,#1040,#1041);
#877=AXIS2_PLACEMENT_3D('',#1382,#1042,#1043);
#878=AXIS2_PLACEMENT_3D('',#1383,#1044,#1045);
#879=AXIS2_PLACEMENT_3D('',#1385,#1046,#1047);
#880=AXIS2_PLACEMENT_3D('',#1387,#1048,#1049);
#881=AXIS2_PLACEMENT_3D('',#1388,#1050,#1051);
#882=AXIS2_PLACEMENT_3D('',#1390,#1052,#1053);
#883=AXIS2_PLACEMENT_3D('',#1391,#1054,#1055);
#884=AXIS2_PLACEMENT_3D('',#1393,#1056,#1057);
#885=AXIS2_PLACEMENT_3D('',#1395,#1058,#1059);
#886=AXIS2_PLACEMENT_3D('',#1396,#1060,#1061);
#887=AXIS2_PLACEMENT_3D('',#1398,#1062,#1063);
#888=AXIS2_PLACEMENT_3D('',#1399,#1064,#1065);
#889=AXIS2_PLACEMENT_3D('',#1401,#1066,#1067);
#890=AXIS2_PLACEMENT_3D('',#1403,#1068,#1069);
#891=AXIS2_PLACEMENT_3D('',#1404,#1070,#1071);
#892=AXIS2_PLACEMENT_3D('',#1406,#1072,#1073);
#893=AXIS2_PLACEMENT_3D('',#1407,#1074,#1075);
#894=AXIS2_PLACEMENT_3D('',#1409,#1076,#1077);
#895=AXIS2_PLACEMENT_3D('',#1411,#1078,#1079);
#896=AXIS2_PLACEMENT_3D('',#1412,#1080,#1081);
#897=AXIS2_PLACEMENT_3D('',#1414,#1082,#1083);
#898=AXIS2_PLACEMENT_3D('',#1415,#1084,#1085);
#899=AXIS2_PLACEMENT_3D('',#1417,#1086,#1087);
#900=AXIS2_PLACEMENT_3D('',#1419,#1088,#1089);
#901=AXIS2_PLACEMENT_3D('',#1420,#1090,#1091);
#902=AXIS2_PLACEMENT_3D('',#1422,#1092,#1093);
#903=AXIS2_PLACEMENT_3D('',#1423,#1094,#1095);
#904=AXIS2_PLACEMENT_3D('',#1425,#1096,#1097);
#905=AXIS2_PLACEMENT_3D('',#1427,#1098,#1099);
#906=AXIS2_PLACEMENT_3D('',#1428,#1100,#1101);
#907=AXIS2_PLACEMENT_3D('',#1430,#1102,#1103);
#908=AXIS2_PLACEMENT_3D('',#1431,#1104,#1105);
#909=AXIS2_PLACEMENT_3D('',#1433,#1106,#1107);
#910=AXIS2_PLACEMENT_3D('',#1435,#1108,#1109);
#911=AXIS2_PLACEMENT_3D('',#1436,#1110,#1111);
#912=AXIS2_PLACEMENT_3D('',#1438,#1112,#1113);
#913=AXIS2_PLACEMENT_3D('',#1440,#1114,$);
#914=AXIS2_PLACEMENT_3D('',#1441,#1115,$);
#915=DIRECTION('',(1.82123199577618E-016,1.,0.));
#916=DIRECTION('',(0.,0.,-1.));
#917=DIRECTION('',(-1.,1.82123199577618E-016,0.));
#918=DIRECTION('',(0.,0.,-1.));
#919=DIRECTION('',(1.,-1.82123199577618E-016,0.));
#920=DIRECTION('',(2.91397119324188E-015,1.,0.));
#921=DIRECTION('',(0.,0.,-1.));
#922=DIRECTION('',(-1.,2.91397119324188E-015,0.));
#923=DIRECTION('',(0.,0.,-1.));
#924=DIRECTION('',(1.,0.,0.));
#925=DIRECTION('',(0.,1.,0.));
#926=DIRECTION('',(0.,0.,-1.));
#927=DIRECTION('',(0.,-1.,0.));
#928=DIRECTION('',(-1.,0.,0.));
#929=DIRECTION('',(0.,0.,-1.));
#930=DIRECTION('',(0.,-1.,0.));
#931=DIRECTION('',(0.,0.,-1.));
#932=DIRECTION('',(0.,1.,0.));
#933=DIRECTION('',(-1.82123199577618E-016,1.,0.));
#934=DIRECTION('',(1.,1.82123199577618E-016,0.));
#935=DIRECTION('',(-1.,-1.82123199577618E-016,0.));
#936=DIRECTION('',(0.,0.,-1.));
#937=DIRECTION('',(1.,0.,0.));
#938=DIRECTION('',(0.,1.,0.));
#939=DIRECTION('',(0.,0.,-1.));
#940=DIRECTION('',(-1.,0.,0.));
#941=DIRECTION('',(0.,1.,0.));
#942=DIRECTION('',(0.,-1.,0.));
#943=DIRECTION('',(-1.,0.,0.));
#944=DIRECTION('',(0.,0.,-1.));
#945=DIRECTION('',(0.,-1.,0.));
#946=DIRECTION('',(1.82123199577618E-016,-1.,0.));
#947=DIRECTION('',(-1.,-1.82123199577618E-016,0.));
#948=DIRECTION('',(1.,1.82123199577618E-016,0.));
#949=DIRECTION('',(-2.91397119324188E-015,-1.,0.));
#950=DIRECTION('',(0.,0.,-1.));
#951=DIRECTION('',(1.,-2.91397119324188E-015,0.));
#952=DIRECTION('',(1.,0.,0.));
#953=DIRECTION('',(0.,-1.,0.));
#954=DIRECTION('',(0.,0.,-1.));
#955=DIRECTION('',(0.,1.,0.));
#956=DIRECTION('',(-1.82123199577618E-016,-1.,0.));
#957=DIRECTION('',(1.,-1.82123199577618E-016,0.));
#958=DIRECTION('',(-1.,1.82123199577618E-016,0.));
#959=DIRECTION('',(-2.17841537475887E-032,-1.30162578408829E-032,1.));
#960=DIRECTION('',(0.,0.,1.));
#961=DIRECTION('',(0.,0.,-1.));
#962=DIRECTION('',(-0.1778,-2.17735009709619E-017,0.));
#963=DIRECTION('',(0.,0.,-1.));
#964=DIRECTION('',(0.,0.,1.));
#965=DIRECTION('',(-0.3302,-4.04365018032149E-017,0.));
#966=DIRECTION('',(0.,0.,1.));
#967=DIRECTION('',(0.3302,0.,0.));
#968=DIRECTION('',(0.,0.,1.));
#969=DIRECTION('',(0.3302,0.,0.));
#970=DIRECTION('',(0.,0.,1.));
#971=DIRECTION('',(0.,0.121618576642539,0.));
#972=DIRECTION('',(0.,0.,1.));
#973=DIRECTION('',(0.14224,0.,0.));
#974=DIRECTION('',(0.,0.,1.));
#975=DIRECTION('',(0.,0.0941230766425392,0.));
#976=DIRECTION('',(0.,0.,-1.));
#977=DIRECTION('',(0.,0.121618576642539,0.));
#978=DIRECTION('',(0.,0.,-1.));
#979=DIRECTION('',(0.,0.127120257667039,0.));
#980=DIRECTION('',(0.,0.,1.));
#981=DIRECTION('',(0.,0.121618576642539,0.));
#982=DIRECTION('',(0.,0.,1.));
#983=DIRECTION('',(0.14224,0.,0.));
#984=DIRECTION('',(0.,0.,1.));
#985=DIRECTION('',(0.,0.0941230766425392,0.));
#986=DIRECTION('',(0.,0.,-1.));
#987=DIRECTION('',(0.,0.121618576642539,0.));
#988=DIRECTION('',(0.,0.,-1.));
#989=DIRECTION('',(0.14224,0.,0.));
#990=DIRECTION('',(0.,0.,-1.));
#991=DIRECTION('',(0.14224,0.,0.));
#992=DIRECTION('',(0.,0.,1.));
#993=DIRECTION('',(0.,0.121618576642539,0.));
#994=DIRECTION('',(0.,0.,1.));
#995=DIRECTION('',(0.14224,0.,0.));
#996=DIRECTION('',(0.,0.,1.));
#997=DIRECTION('',(0.,0.0941230766425392,0.));
#998=DIRECTION('',(0.,0.,-1.));
#999=DIRECTION('',(0.,0.121618576642539,0.));
#1000=DIRECTION('',(0.,0.,-1.));
#1001=DIRECTION('',(0.14224,0.,0.));
#1002=DIRECTION('',(0.,0.,1.));
#1003=DIRECTION('',(0.,0.121618576642539,0.));
#1004=DIRECTION('',(0.,0.,1.));
#1005=DIRECTION('',(0.14224,0.,0.));
#1006=DIRECTION('',(0.,0.,1.));
#1007=DIRECTION('',(0.,0.0941230766425392,0.));
#1008=DIRECTION('',(0.,0.,-1.));
#1009=DIRECTION('',(0.,0.121618576642539,0.));
#1010=DIRECTION('',(0.,0.,-1.));
#1011=DIRECTION('',(0.14224,0.,0.));
#1012=DIRECTION('',(0.,0.,1.));
#1013=DIRECTION('',(0.,0.121618576642539,0.));
#1014=DIRECTION('',(0.,0.,1.));
#1015=DIRECTION('',(0.14224,0.,0.));
#1016=DIRECTION('',(0.,0.,1.));
#1017=DIRECTION('',(0.,0.0941230766425392,0.));
#1018=DIRECTION('',(0.,0.,-1.));
#1019=DIRECTION('',(0.,0.121618576642539,0.));
#1020=DIRECTION('',(0.,0.,-1.));
#1021=DIRECTION('',(0.14224,0.,0.));
#1022=DIRECTION('',(0.,0.,1.));
#1023=DIRECTION('',(0.,0.121618576642539,0.));
#1024=DIRECTION('',(0.,0.,1.));
#1025=DIRECTION('',(0.14224,0.,0.));
#1026=DIRECTION('',(0.,0.,1.));
#1027=DIRECTION('',(0.,0.0941230766425392,0.));
#1028=DIRECTION('',(0.,0.,-1.));
#1029=DIRECTION('',(0.,0.121618576642539,0.));
#1030=DIRECTION('',(0.,0.,-1.));
#1031=DIRECTION('',(0.14224,0.,0.));
#1032=DIRECTION('',(0.,0.,1.));
#1033=DIRECTION('',(0.,0.121618576642539,0.));
#1034=DIRECTION('',(0.,0.,1.));
#1035=DIRECTION('',(0.14224,0.,0.));
#1036=DIRECTION('',(0.,0.,1.));
#1037=DIRECTION('',(0.,0.0941230766425392,0.));
#1038=DIRECTION('',(0.,0.,-1.));
#1039=DIRECTION('',(0.,0.121618576642539,0.));
#1040=DIRECTION('',(0.,0.,-1.));
#1041=DIRECTION('',(0.14224,0.,0.));
#1042=DIRECTION('',(0.,0.,1.));
#1043=DIRECTION('',(0.,0.121618576642539,0.));
#1044=DIRECTION('',(0.,0.,1.));
#1045=DIRECTION('',(0.14224,0.,0.));
#1046=DIRECTION('',(0.,0.,1.));
#1047=DIRECTION('',(0.,0.0941230766425392,0.));
#1048=DIRECTION('',(0.,0.,-1.));
#1049=DIRECTION('',(0.,0.121618576642539,0.));
#1050=DIRECTION('',(0.,0.,-1.));
#1051=DIRECTION('',(0.14224,0.,0.));
#1052=DIRECTION('',(0.,0.,1.));
#1053=DIRECTION('',(0.,0.121618576642539,0.));
#1054=DIRECTION('',(0.,0.,1.));
#1055=DIRECTION('',(0.14224,0.,0.));
#1056=DIRECTION('',(0.,0.,1.));
#1057=DIRECTION('',(0.,0.0941230766425392,0.));
#1058=DIRECTION('',(0.,0.,-1.));
#1059=DIRECTION('',(0.,0.121618576642539,0.));
#1060=DIRECTION('',(0.,0.,-1.));
#1061=DIRECTION('',(0.14224,0.,0.));
#1062=DIRECTION('',(0.,0.,1.));
#1063=DIRECTION('',(0.,0.121618576642539,0.));
#1064=DIRECTION('',(0.,0.,1.));
#1065=DIRECTION('',(0.14224,0.,0.));
#1066=DIRECTION('',(0.,0.,1.));
#1067=DIRECTION('',(0.,0.0941230766425392,0.));
#1068=DIRECTION('',(0.,0.,-1.));
#1069=DIRECTION('',(0.,0.121618576642539,0.));
#1070=DIRECTION('',(0.,0.,-1.));
#1071=DIRECTION('',(0.14224,0.,0.));
#1072=DIRECTION('',(0.,0.,1.));
#1073=DIRECTION('',(0.,0.121618576642539,0.));
#1074=DIRECTION('',(0.,0.,1.));
#1075=DIRECTION('',(0.14224,0.,0.));
#1076=DIRECTION('',(0.,0.,1.));
#1077=DIRECTION('',(0.,0.0941230766425392,0.));
#1078=DIRECTION('',(0.,0.,-1.));
#1079=DIRECTION('',(0.,0.121618576642539,0.));
#1080=DIRECTION('',(0.,0.,-1.));
#1081=DIRECTION('',(0.14224,0.,0.));
#1082=DIRECTION('',(0.,0.,1.));
#1083=DIRECTION('',(0.,0.121618576642539,0.));
#1084=DIRECTION('',(0.,0.,1.));
#1085=DIRECTION('',(0.14224,0.,0.));
#1086=DIRECTION('',(0.,0.,1.));
#1087=DIRECTION('',(0.,0.0941230766425392,0.));
#1088=DIRECTION('',(0.,0.,-1.));
#1089=DIRECTION('',(0.,0.121618576642539,0.));
#1090=DIRECTION('',(0.,0.,-1.));
#1091=DIRECTION('',(0.14224,0.,0.));
#1092=DIRECTION('',(0.,0.,1.));
#1093=DIRECTION('',(0.,0.121618576642539,0.));
#1094=DIRECTION('',(0.,0.,1.));
#1095=DIRECTION('',(0.14224,0.,0.));
#1096=DIRECTION('',(0.,0.,1.));
#1097=DIRECTION('',(0.,0.0941230766425392,0.));
#1098=DIRECTION('',(0.,0.,-1.));
#1099=DIRECTION('',(0.,0.121618576642539,0.));
#1100=DIRECTION('',(0.,0.,-1.));
#1101=DIRECTION('',(0.14224,0.,0.));
#1102=DIRECTION('',(0.,0.,1.));
#1103=DIRECTION('',(0.,0.121618576642539,0.));
#1104=DIRECTION('',(0.,0.,1.));
#1105=DIRECTION('',(0.14224,0.,0.));
#1106=DIRECTION('',(0.,0.,1.));
#1107=DIRECTION('',(0.,0.0941230766425392,0.));
#1108=DIRECTION('',(0.,0.,-1.));
#1109=DIRECTION('',(0.,0.121618576642539,0.));
#1110=DIRECTION('',(0.,0.,-1.));
#1111=DIRECTION('',(0.14224,0.,0.));
#1112=DIRECTION('',(0.,0.,1.));
#1113=DIRECTION('',(0.14224,0.,0.));
#1114=DIRECTION('',(0.,0.,1.));
#1115=DIRECTION('',(0.,0.,1.));
#1116=CARTESIAN_POINT('',(-0.1143,0.0381000000000001,0.2667));
#1117=CARTESIAN_POINT('',(-0.205404867559603,0.0381000000000001,0.263491219580778));
#1118=CARTESIAN_POINT('',(-0.18923139031807,0.0381000000000001,0.26680706337316));
#1119=CARTESIAN_POINT('',(-0.169431084761558,0.0381000000000001,0.267483530598765));
#1120=CARTESIAN_POINT('',(-0.136029165196304,0.0381000000000001,0.263176955512073));
#1121=CARTESIAN_POINT('',(-0.116325484282723,0.0381000000000001,0.257158927490948));
#1122=CARTESIAN_POINT('',(-0.0850639665619638,0.0381000000000001,0.242043419203732));
#1123=CARTESIAN_POINT('',(-0.067765217892203,0.0381000000000001,0.230020215838757));
#1124=CARTESIAN_POINT('',(-0.0496392729041244,0.0381000000000001,0.214146050413036));
#1125=CARTESIAN_POINT('',(-0.0439382011769282,0.0381000000000001,0.208754685972714));
#1126=CARTESIAN_POINT('',(-0.0368543944265566,0.0381000000000001,0.20179129627215));
#1127=CARTESIAN_POINT('',(-0.0339737975233177,0.0381000000000001,0.198911397065127));
#1128=CARTESIAN_POINT('',(-0.0315685456315942,0.0381000000000001,0.196516246123561));
#1129=CARTESIAN_POINT('',(-0.1905,0.0381000000000001,0.265807135202207));
#1130=CARTESIAN_POINT('',(-0.173669888005952,0.0381000000000001,0.2667));
#1131=CARTESIAN_POINT('',(-0.1905,0.0381000000000001,0.2667));
#1132=CARTESIAN_POINT('',(-0.1905,0.0381000000000001,0.1397));
#1133=CARTESIAN_POINT('',(-0.1905,0.0381000000000001,0.1397));
#1134=CARTESIAN_POINT('',(-0.0381,0.0381000000000001,0.1397));
#1135=CARTESIAN_POINT('',(-0.0381,0.0381000000000001,0.2667));
#1136=CARTESIAN_POINT('',(-0.0381,0.0381000000000001,0.2667));
#1137=CARTESIAN_POINT('',(-0.05715,0.0381000000000001,0.2667));
#1138=CARTESIAN_POINT('',(-0.01905,0.1905,0.2667));
#1139=CARTESIAN_POINT('',(-0.178902024205466,0.190500000000001,0.241766070753901));
#1140=CARTESIAN_POINT('',(-0.126455799609831,0.1905,0.265295270300542));
#1141=CARTESIAN_POINT('',(-0.0574824295384372,0.1905,0.266169911437388));
#1142=CARTESIAN_POINT('',(5.55111512312578E-016,0.1905,0.266169911437388));
#1143=CARTESIAN_POINT('',(0.0574824295384383,0.1905,0.266169911437388));
#1144=CARTESIAN_POINT('',(0.126455799609832,0.1905,0.265295270300542));
#1145=CARTESIAN_POINT('',(0.178902024205467,0.190499999999999,0.241766070753901));
#1146=CARTESIAN_POINT('',(-0.0381,0.1905,0.265807135202207));
#1147=CARTESIAN_POINT('',(0.0381,0.1905,0.265807135202207));
#1148=CARTESIAN_POINT('',(-0.0381,0.1905,0.2667));
#1149=CARTESIAN_POINT('',(-0.0381,0.1905,0.1397));
#1150=CARTESIAN_POINT('',(-0.0381,0.1905,0.1397));
#1151=CARTESIAN_POINT('',(0.0381,0.1905,0.1397));
#1152=CARTESIAN_POINT('',(0.0381,0.1905,0.2667));
#1153=CARTESIAN_POINT('',(0.0381,0.1143,0.2667));
#1154=CARTESIAN_POINT('',(0.0381,0.205404867559603,0.263491219580778));
#1155=CARTESIAN_POINT('',(0.0381,0.189231390318069,0.26680706337316));
#1156=CARTESIAN_POINT('',(0.0381,0.169431084761558,0.267483530598765));
#1157=CARTESIAN_POINT('',(0.0381,0.136029165196303,0.263176955512073));
#1158=CARTESIAN_POINT('',(0.0381,0.116325484282723,0.257158927490948));
#1159=CARTESIAN_POINT('',(0.0381,0.0850639665619637,0.242043419203732));
#1160=CARTESIAN_POINT('',(0.0381,0.0677652178922029,0.230020215838757));
#1161=CARTESIAN_POINT('',(0.0381,0.0496392729041243,0.214146050413035));
#1162=CARTESIAN_POINT('',(0.0381,0.0439382011769281,0.208754685972714));
#1163=CARTESIAN_POINT('',(0.0381,0.0368543944265565,0.20179129627215));
#1164=CARTESIAN_POINT('',(0.0381,0.0339737975233176,0.198911397065127));
#1165=CARTESIAN_POINT('',(0.0381,0.0315685456315941,0.19651624612356));
#1166=CARTESIAN_POINT('',(0.0381,0.173669888005952,0.2667));
#1167=CARTESIAN_POINT('',(0.0381,0.1905,0.1397));
#1168=CARTESIAN_POINT('',(0.0381,0.0381000000000001,0.1397));
#1169=CARTESIAN_POINT('',(0.0381,0.0381000000000001,0.2667));
#1170=CARTESIAN_POINT('',(0.0381,0.0381000000000001,0.2667));
#1171=CARTESIAN_POINT('',(0.0381,0.0571500000000001,0.2667));
#1172=CARTESIAN_POINT('',(-0.0381,-0.1143,0.2667));
#1173=CARTESIAN_POINT('',(-0.0381,-0.205404867559603,0.263491219580778));
#1174=CARTESIAN_POINT('',(-0.0381,-0.189231390318069,0.26680706337316));
#1175=CARTESIAN_POINT('',(-0.0381,-0.169431084761558,0.267483530598765));
#1176=CARTESIAN_POINT('',(-0.0381,-0.136029165196303,0.263176955512073));
#1177=CARTESIAN_POINT('',(-0.0381,-0.116325484282723,0.257158927490948));
#1178=CARTESIAN_POINT('',(-0.0381,-0.0850639665619637,0.242043419203732));
#1179=CARTESIAN_POINT('',(-0.0381,-0.0677652178922029,0.230020215838757));
#1180=CARTESIAN_POINT('',(-0.0381,-0.0496392729041243,0.214146050413035));
#1181=CARTESIAN_POINT('',(-0.0381,-0.0439382011769281,0.208754685972714));
#1182=CARTESIAN_POINT('',(-0.0381,-0.0368543944265565,0.20179129627215));
#1183=CARTESIAN_POINT('',(-0.0381,-0.0339737975233176,0.198911397065127));
#1184=CARTESIAN_POINT('',(-0.0381,-0.0315685456315941,0.19651624612356));
#1185=CARTESIAN_POINT('',(-0.0381,-0.1905,0.265807135202207));
#1186=CARTESIAN_POINT('',(-0.0381,-0.173669888005952,0.2667));
#1187=CARTESIAN_POINT('',(-0.0381,-0.1905,0.2667));
#1188=CARTESIAN_POINT('',(-0.0381,-0.1905,0.1397));
#1189=CARTESIAN_POINT('',(-0.0381,-0.1905,0.1397));
#1190=CARTESIAN_POINT('',(-0.0381,-0.0381000000000001,0.1397));
#1191=CARTESIAN_POINT('',(-0.0381,-0.0381000000000001,0.2667));
#1192=CARTESIAN_POINT('',(-0.0381,-0.0381000000000001,0.2667));
#1193=CARTESIAN_POINT('',(-0.0381,-0.0571500000000001,0.2667));
#1194=CARTESIAN_POINT('',(0.1143,0.0381000000000001,0.2667));
#1195=CARTESIAN_POINT('',(0.0315685456315942,0.0381000000000001,0.196516246123561));
#1196=CARTESIAN_POINT('',(0.0339737975233177,0.0381000000000001,0.198911397065127));
#1197=CARTESIAN_POINT('',(0.0368543944265566,0.0381000000000001,0.20179129627215));
#1198=CARTESIAN_POINT('',(0.0439382011769282,0.0381000000000001,0.208754685972714));
#1199=CARTESIAN_POINT('',(0.0496392729041244,0.0381000000000001,0.214146050413036));
#1200=CARTESIAN_POINT('',(0.067765217892203,0.0381000000000001,0.230020215838757));
#1201=CARTESIAN_POINT('',(0.0850639665619638,0.0381000000000001,0.242043419203732));
#1202=CARTESIAN_POINT('',(0.116325484282723,0.0381000000000001,0.257158927490948));
#1203=CARTESIAN_POINT('',(0.136029165196304,0.0381000000000001,0.263176955512073));
#1204=CARTESIAN_POINT('',(0.169431084761558,0.0381000000000001,0.267483530598765));
#1205=CARTESIAN_POINT('',(0.18923139031807,0.0381000000000001,0.26680706337316));
#1206=CARTESIAN_POINT('',(0.205404867559603,0.0381000000000001,0.263491219580778));
#1207=CARTESIAN_POINT('',(0.173669888005952,0.0381000000000001,0.2667));
#1208=CARTESIAN_POINT('',(0.1905,0.0381000000000001,0.265807135202207));
#1209=CARTESIAN_POINT('',(0.05715,0.0381000000000001,0.2667));
#1210=CARTESIAN_POINT('',(0.0381,0.0381000000000001,0.1397));
#1211=CARTESIAN_POINT('',(0.1905,0.0381000000000001,0.1397));
#1212=CARTESIAN_POINT('',(0.1905,0.0381000000000001,0.2667));
#1213=CARTESIAN_POINT('',(0.1905,0.0190500000000001,0.2667));
#1214=CARTESIAN_POINT('',(0.1905,0.178902024205467,0.241766070753901));
#1215=CARTESIAN_POINT('',(0.1905,0.126455799609831,0.265295270300542));
#1216=CARTESIAN_POINT('',(0.1905,0.0574824295384377,0.266169911437388));
#1217=CARTESIAN_POINT('',(0.1905,0.,0.266169911437388));
#1218=CARTESIAN_POINT('',(0.1905,-0.0574824295384377,0.266169911437388));
#1219=CARTESIAN_POINT('',(0.1905,-0.126455799609831,0.265295270300542));
#1220=CARTESIAN_POINT('',(0.1905,-0.178902024205467,0.241766070753901));
#1221=CARTESIAN_POINT('',(0.1905,-0.0381000000000001,0.265807135202207));
#1222=CARTESIAN_POINT('',(0.1905,0.0381000000000001,0.1397));
#1223=CARTESIAN_POINT('',(0.1905,-0.0381000000000001,0.1397));
#1224=CARTESIAN_POINT('',(0.1905,-0.0381000000000001,0.2667));
#1225=CARTESIAN_POINT('',(-0.0381,0.1143,0.2667));
#1226=CARTESIAN_POINT('',(-0.0381,0.0315685456315941,0.19651624612356));
#1227=CARTESIAN_POINT('',(-0.0381,0.0339737975233176,0.198911397065127));
#1228=CARTESIAN_POINT('',(-0.0381,0.0368543944265565,0.20179129627215));
#1229=CARTESIAN_POINT('',(-0.0381,0.0439382011769281,0.208754685972714));
#1230=CARTESIAN_POINT('',(-0.0381,0.0496392729041243,0.214146050413035));
#1231=CARTESIAN_POINT('',(-0.0381,0.0677652178922029,0.230020215838757));
#1232=CARTESIAN_POINT('',(-0.0381,0.0850639665619637,0.242043419203732));
#1233=CARTESIAN_POINT('',(-0.0381,0.116325484282723,0.257158927490948));
#1234=CARTESIAN_POINT('',(-0.0381,0.136029165196303,0.263176955512073));
#1235=CARTESIAN_POINT('',(-0.0381,0.169431084761558,0.267483530598765));
#1236=CARTESIAN_POINT('',(-0.0381,0.189231390318069,0.26680706337316));
#1237=CARTESIAN_POINT('',(-0.0381,0.205404867559603,0.263491219580778));
#1238=CARTESIAN_POINT('',(-0.0381,0.173669888005952,0.2667));
#1239=CARTESIAN_POINT('',(-0.0381,0.05715,0.2667));
#1240=CARTESIAN_POINT('',(-0.0381,0.0381000000000001,0.1397));
#1241=CARTESIAN_POINT('',(-0.1905,-0.0190500000000001,0.2667));
#1242=CARTESIAN_POINT('',(-0.1905,-0.178902024205467,0.241766070753901));
#1243=CARTESIAN_POINT('',(-0.1905,-0.126455799609831,0.265295270300542));
#1244=CARTESIAN_POINT('',(-0.1905,-0.0574824295384377,0.266169911437388));
#1245=CARTESIAN_POINT('',(-0.1905,0.,0.266169911437388));
#1246=CARTESIAN_POINT('',(-0.1905,0.0574824295384377,0.266169911437388));
#1247=CARTESIAN_POINT('',(-0.1905,0.126455799609831,0.265295270300542));
#1248=CARTESIAN_POINT('',(-0.1905,0.178902024205467,0.241766070753901));
#1249=CARTESIAN_POINT('',(-0.1905,-0.0381000000000001,0.265807135202207));
#1250=CARTESIAN_POINT('',(-0.1905,-0.0381000000000001,0.2667));
#1251=CARTESIAN_POINT('',(-0.1905,-0.0381000000000001,0.1397));
#1252=CARTESIAN_POINT('',(-0.1905,-0.0381000000000001,0.1397));
#1253=CARTESIAN_POINT('',(-0.1143,-0.0381000000000001,0.2667));
#1254=CARTESIAN_POINT('',(-0.0315685456315942,-0.0381000000000001,0.196516246123561));
#1255=CARTESIAN_POINT('',(-0.0339737975233177,-0.0381000000000001,0.198911397065127));
#1256=CARTESIAN_POINT('',(-0.0368543944265566,-0.0381000000000001,0.20179129627215));
#1257=CARTESIAN_POINT('',(-0.0439382011769282,-0.0381000000000001,0.208754685972714));
#1258=CARTESIAN_POINT('',(-0.0496392729041244,-0.0381000000000001,0.214146050413036));
#1259=CARTESIAN_POINT('',(-0.067765217892203,-0.0381000000000001,0.230020215838757));
#1260=CARTESIAN_POINT('',(-0.0850639665619638,-0.0381000000000001,0.242043419203732));
#1261=CARTESIAN_POINT('',(-0.116325484282723,-0.0381000000000001,0.257158927490948));
#1262=CARTESIAN_POINT('',(-0.136029165196304,-0.0381000000000001,0.263176955512073));
#1263=CARTESIAN_POINT('',(-0.169431084761558,-0.0381000000000001,0.267483530598765));
#1264=CARTESIAN_POINT('',(-0.18923139031807,-0.0381000000000001,0.26680706337316));
#1265=CARTESIAN_POINT('',(-0.205404867559603,-0.0381000000000001,0.263491219580778));
#1266=CARTESIAN_POINT('',(-0.173669888005952,-0.0381000000000001,0.2667));
#1267=CARTESIAN_POINT('',(-0.05715,-0.0381000000000001,0.2667));
#1268=CARTESIAN_POINT('',(-0.0381,-0.0381000000000001,0.1397));
#1269=CARTESIAN_POINT('',(0.01905,-0.1905,0.2667));
#1270=CARTESIAN_POINT('',(0.178902024205466,-0.190500000000001,0.241766070753901));
#1271=CARTESIAN_POINT('',(0.126455799609831,-0.1905,0.265295270300542));
#1272=CARTESIAN_POINT('',(0.0574824295384372,-0.1905,0.266169911437388));
#1273=CARTESIAN_POINT('',(-5.55111512312578E-016,-0.1905,0.266169911437388));
#1274=CARTESIAN_POINT('',(-0.0574824295384383,-0.1905,0.266169911437388));
#1275=CARTESIAN_POINT('',(-0.126455799609832,-0.1905,0.265295270300542));
#1276=CARTESIAN_POINT('',(-0.178902024205467,-0.190499999999999,0.241766070753901));
#1277=CARTESIAN_POINT('',(0.0381,-0.1905,0.265807135202207));
#1278=CARTESIAN_POINT('',(0.0381,-0.1905,0.2667));
#1279=CARTESIAN_POINT('',(0.0381,-0.1905,0.1397));
#1280=CARTESIAN_POINT('',(0.0381,-0.1905,0.1397));
#1281=CARTESIAN_POINT('',(0.0381,-0.1143,0.2667));
#1282=CARTESIAN_POINT('',(0.0381,-0.0315685456315941,0.19651624612356));
#1283=CARTESIAN_POINT('',(0.0381,-0.0339737975233176,0.198911397065127));
#1284=CARTESIAN_POINT('',(0.0381,-0.0368543944265565,0.20179129627215));
#1285=CARTESIAN_POINT('',(0.0381,-0.0439382011769281,0.208754685972714));
#1286=CARTESIAN_POINT('',(0.0381,-0.0496392729041243,0.214146050413035));
#1287=CARTESIAN_POINT('',(0.0381,-0.0677652178922029,0.230020215838757));
#1288=CARTESIAN_POINT('',(0.0381,-0.0850639665619637,0.242043419203732));
#1289=CARTESIAN_POINT('',(0.0381,-0.116325484282723,0.257158927490948));
#1290=CARTESIAN_POINT('',(0.0381,-0.136029165196303,0.263176955512073));
#1291=CARTESIAN_POINT('',(0.0381,-0.169431084761558,0.267483530598765));
#1292=CARTESIAN_POINT('',(0.0381,-0.189231390318069,0.26680706337316));
#1293=CARTESIAN_POINT('',(0.0381,-0.205404867559603,0.263491219580778));
#1294=CARTESIAN_POINT('',(0.0381,-0.173669888005952,0.2667));
#1295=CARTESIAN_POINT('',(0.0381,-0.05715,0.2667));
#1296=CARTESIAN_POINT('',(0.0381,-0.0381000000000001,0.2667));
#1297=CARTESIAN_POINT('',(0.0381,-0.0381000000000001,0.2667));
#1298=CARTESIAN_POINT('',(0.0381,-0.0381000000000001,0.1397));
#1299=CARTESIAN_POINT('',(0.0381,-0.0381000000000001,0.1397));
#1300=CARTESIAN_POINT('',(0.1143,-0.0381000000000001,0.2667));
#1301=CARTESIAN_POINT('',(0.205404867559603,-0.0381000000000001,0.263491219580778));
#1302=CARTESIAN_POINT('',(0.18923139031807,-0.0381000000000001,0.26680706337316));
#1303=CARTESIAN_POINT('',(0.169431084761558,-0.0381000000000001,0.267483530598765));
#1304=CARTESIAN_POINT('',(0.136029165196304,-0.0381000000000001,0.263176955512073));
#1305=CARTESIAN_POINT('',(0.116325484282723,-0.0381000000000001,0.257158927490948));
#1306=CARTESIAN_POINT('',(0.0850639665619638,-0.0381000000000001,0.242043419203732));
#1307=CARTESIAN_POINT('',(0.067765217892203,-0.0381000000000001,0.230020215838757));
#1308=CARTESIAN_POINT('',(0.0496392729041244,-0.0381000000000001,0.214146050413036));
#1309=CARTESIAN_POINT('',(0.0439382011769282,-0.0381000000000001,0.208754685972714));
#1310=CARTESIAN_POINT('',(0.0368543944265566,-0.0381000000000001,0.20179129627215));
#1311=CARTESIAN_POINT('',(0.0339737975233177,-0.0381000000000001,0.198911397065127));
#1312=CARTESIAN_POINT('',(0.0315685456315942,-0.0381000000000001,0.196516246123561));
#1313=CARTESIAN_POINT('',(0.173669888005952,-0.0381000000000001,0.2667));
#1314=CARTESIAN_POINT('',(0.1905,-0.0381000000000001,0.1397));
#1315=CARTESIAN_POINT('',(0.05715,-0.0381000000000001,0.2667));
#1316=CARTESIAN_POINT('',(4.87890977618477E-019,-8.67361737988404E-019,0.1397));
#1317=CARTESIAN_POINT('',(0.,0.,0.2667));
#1318=CARTESIAN_POINT('',(0.,0.,0.2667));
#1319=CARTESIAN_POINT('',(0.,0.,0.1143));
#1320=CARTESIAN_POINT('',(0.,0.,0.1143));
#1321=CARTESIAN_POINT('',(0.3302,8.08730036064298E-017,0.1143));
#1322=CARTESIAN_POINT('',(0.,0.,0.));
#1323=CARTESIAN_POINT('',(0.,0.,0.));
#1324=CARTESIAN_POINT('',(0.3302,0.,0.));
#1325=CARTESIAN_POINT('',(0.,0.,-0.841374534326503));
#1326=CARTESIAN_POINT('',(0.,0.,-0.82946875));
#1327=CARTESIAN_POINT('',(-0.14224,-1.74188007767695E-017,-0.82946875));
#1328=CARTESIAN_POINT('',(0.,0.,-0.857249068653006));
#1329=CARTESIAN_POINT('',(0.,0.0941230766425392,-0.857249068653006));
#1330=CARTESIAN_POINT('',(0.,0.,-0.873123602979509));
#1331=CARTESIAN_POINT('',(0.,0.,-0.8763));
#1332=CARTESIAN_POINT('',(-1.55672275238594E-017,-0.127120257667039,-0.8763));
#1333=CARTESIAN_POINT('',(0.,0.,-0.777874534326503));
#1334=CARTESIAN_POINT('',(0.,0.,-0.76596875));
#1335=CARTESIAN_POINT('',(-0.14224,-1.74188007767695E-017,-0.76596875));
#1336=CARTESIAN_POINT('',(0.,0.,-0.793749068653006));
#1337=CARTESIAN_POINT('',(0.,0.0941230766425392,-0.793749068653006));
#1338=CARTESIAN_POINT('',(0.,0.,-0.809623602979509));
#1339=CARTESIAN_POINT('',(0.,0.,-0.821529387306012));
#1340=CARTESIAN_POINT('',(-0.14224,1.74188007767695E-017,-0.821529387306012));
#1341=CARTESIAN_POINT('',(0.,0.,0.));
#1342=CARTESIAN_POINT('',(0.,0.,-0.714374534326503));
#1343=CARTESIAN_POINT('',(0.,0.,-0.70246875));
#1344=CARTESIAN_POINT('',(-0.14224,-1.74188007767695E-017,-0.70246875));
#1345=CARTESIAN_POINT('',(0.,0.,-0.730249068653006));
#1346=CARTESIAN_POINT('',(0.,0.0941230766425392,-0.730249068653006));
#1347=CARTESIAN_POINT('',(0.,0.,-0.746123602979509));
#1348=CARTESIAN_POINT('',(0.,0.,-0.758029387306012));
#1349=CARTESIAN_POINT('',(-0.14224,1.74188007767695E-017,-0.758029387306012));
#1350=CARTESIAN_POINT('',(0.,0.,-0.650874534326503));
#1351=CARTESIAN_POINT('',(0.,0.,-0.63896875));
#1352=CARTESIAN_POINT('',(-0.14224,-1.74188007767695E-017,-0.63896875));
#1353=CARTESIAN_POINT('',(0.,0.,-0.666749068653006));
#1354=CARTESIAN_POINT('',(0.,0.0941230766425392,-0.666749068653006));
#1355=CARTESIAN_POINT('',(0.,0.,-0.682623602979509));
#1356=CARTESIAN_POINT('',(0.,0.,-0.694529387306012));
#1357=CARTESIAN_POINT('',(-0.14224,1.74188007767695E-017,-0.694529387306012));
#1358=CARTESIAN_POINT('',(0.,0.,-0.587374534326503));
#1359=CARTESIAN_POINT('',(0.,0.,-0.57546875));
#1360=CARTESIAN_POINT('',(-0.14224,-1.74188007767695E-017,-0.57546875));
#1361=CARTESIAN_POINT('',(0.,0.,-0.603249068653006));
#1362=CARTESIAN_POINT('',(0.,0.0941230766425392,-0.603249068653006));
#1363=CARTESIAN_POINT('',(0.,0.,-0.619123602979509));
#1364=CARTESIAN_POINT('',(0.,0.,-0.631029387306012));
#1365=CARTESIAN_POINT('',(-0.14224,1.74188007767695E-017,-0.631029387306012));
#1366=CARTESIAN_POINT('',(0.,0.,-0.523874534326503));
#1367=CARTESIAN_POINT('',(0.,0.,-0.51196875));
#1368=CARTESIAN_POINT('',(-0.14224,-1.74188007767695E-017,-0.51196875));
#1369=CARTESIAN_POINT('',(0.,0.,-0.539749068653006));
#1370=CARTESIAN_POINT('',(0.,0.0941230766425392,-0.539749068653006));
#1371=CARTESIAN_POINT('',(0.,0.,-0.555623602979509));
#1372=CARTESIAN_POINT('',(0.,0.,-0.567529387306012));
#1373=CARTESIAN_POINT('',(-0.14224,1.74188007767695E-017,-0.567529387306012));
#1374=CARTESIAN_POINT('',(0.,0.,-0.460374534326503));
#1375=CARTESIAN_POINT('',(0.,0.,-0.44846875));
#1376=CARTESIAN_POINT('',(-0.14224,-1.74188007767695E-017,-0.44846875));
#1377=CARTESIAN_POINT('',(0.,0.,-0.476249068653006));
#1378=CARTESIAN_POINT('',(0.,0.0941230766425392,-0.476249068653006));
#1379=CARTESIAN_POINT('',(0.,0.,-0.492123602979509));
#1380=CARTESIAN_POINT('',(0.,0.,-0.504029387306012));
#1381=CARTESIAN_POINT('',(-0.14224,1.74188007767695E-017,-0.504029387306012));
#1382=CARTESIAN_POINT('',(0.,0.,-0.396874534326503));
#1383=CARTESIAN_POINT('',(0.,0.,-0.38496875));
#1384=CARTESIAN_POINT('',(-0.14224,-1.74188007767695E-017,-0.38496875));
#1385=CARTESIAN_POINT('',(0.,0.,-0.412749068653006));
#1386=CARTESIAN_POINT('',(0.,0.0941230766425392,-0.412749068653006));
#1387=CARTESIAN_POINT('',(0.,0.,-0.428623602979509));
#1388=CARTESIAN_POINT('',(0.,0.,-0.440529387306012));
#1389=CARTESIAN_POINT('',(-0.14224,1.74188007767695E-017,-0.440529387306012));
#1390=CARTESIAN_POINT('',(0.,0.,-0.333374534326503));
#1391=CARTESIAN_POINT('',(0.,0.,-0.32146875));
#1392=CARTESIAN_POINT('',(-0.14224,-1.74188007767695E-017,-0.32146875));
#1393=CARTESIAN_POINT('',(0.,0.,-0.349249068653006));
#1394=CARTESIAN_POINT('',(0.,0.0941230766425392,-0.349249068653006));
#1395=CARTESIAN_POINT('',(0.,0.,-0.365123602979509));
#1396=CARTESIAN_POINT('',(0.,0.,-0.377029387306012));
#1397=CARTESIAN_POINT('',(-0.14224,1.74188007767695E-017,-0.377029387306012));
#1398=CARTESIAN_POINT('',(0.,0.,-0.269874534326503));
#1399=CARTESIAN_POINT('',(0.,0.,-0.25796875));
#1400=CARTESIAN_POINT('',(-0.14224,-1.74188007767695E-017,-0.25796875));
#1401=CARTESIAN_POINT('',(0.,0.,-0.285749068653006));
#1402=CARTESIAN_POINT('',(0.,0.0941230766425392,-0.285749068653006));
#1403=CARTESIAN_POINT('',(0.,0.,-0.301623602979509));
#1404=CARTESIAN_POINT('',(0.,0.,-0.313529387306012));
#1405=CARTESIAN_POINT('',(-0.14224,1.74188007767695E-017,-0.313529387306012));
#1406=CARTESIAN_POINT('',(0.,0.,-0.206374534326503));
#1407=CARTESIAN_POINT('',(0.,0.,-0.19446875));
#1408=CARTESIAN_POINT('',(-0.14224,-1.74188007767695E-017,-0.19446875));
#1409=CARTESIAN_POINT('',(0.,0.,-0.222249068653006));
#1410=CARTESIAN_POINT('',(0.,0.0941230766425392,-0.222249068653006));
#1411=CARTESIAN_POINT('',(0.,0.,-0.238123602979509));
#1412=CARTESIAN_POINT('',(0.,0.,-0.250029387306012));
#1413=CARTESIAN_POINT('',(-0.14224,1.74188007767695E-017,-0.250029387306012));
#1414=CARTESIAN_POINT('',(0.,0.,-0.142874534326503));
#1415=CARTESIAN_POINT('',(0.,0.,-0.13096875));
#1416=CARTESIAN_POINT('',(-0.14224,-1.74188007767695E-017,-0.13096875));
#1417=CARTESIAN_POINT('',(0.,0.,-0.158749068653006));
#1418=CARTESIAN_POINT('',(0.,0.0941230766425392,-0.158749068653006));
#1419=CARTESIAN_POINT('',(0.,0.,-0.174623602979509));
#1420=CARTESIAN_POINT('',(0.,0.,-0.186529387306012));
#1421=CARTESIAN_POINT('',(-0.14224,1.74188007767695E-017,-0.186529387306012));
#1422=CARTESIAN_POINT('',(0.,0.,-0.0793745343265031));
#1423=CARTESIAN_POINT('',(0.,0.,-0.0674687500000001));
#1424=CARTESIAN_POINT('',(-0.14224,-1.74188007767695E-017,-0.0674687500000001));
#1425=CARTESIAN_POINT('',(0.,0.,-0.0952490686530062));
#1426=CARTESIAN_POINT('',(0.,0.0941230766425392,-0.0952490686530062));
#1427=CARTESIAN_POINT('',(0.,0.,-0.111123602979509));
#1428=CARTESIAN_POINT('',(0.,0.,-0.123029387306012));
#1429=CARTESIAN_POINT('',(-0.14224,1.74188007767695E-017,-0.123029387306012));
#1430=CARTESIAN_POINT('',(0.,0.,-0.0158745343265031));
#1431=CARTESIAN_POINT('',(0.,0.,-0.00396875000000006));
#1432=CARTESIAN_POINT('',(-0.14224,-1.74188007767695E-017,-0.00396875000000006));
#1433=CARTESIAN_POINT('',(0.,0.,-0.0317490686530062));
#1434=CARTESIAN_POINT('',(0.,0.0941230766425392,-0.0317490686530062));
#1435=CARTESIAN_POINT('',(0.,0.,-0.0476236029795093));
#1436=CARTESIAN_POINT('',(0.,0.,-0.0595293873060123));
#1437=CARTESIAN_POINT('',(-0.14224,1.74188007767695E-017,-0.0595293873060123));
#1438=CARTESIAN_POINT('',(0.,0.,0.));
#1439=CARTESIAN_POINT('',(0.14224,0.,0.));
#1440=CARTESIAN_POINT('',(0.,0.,-0.8763));
#1441=CARTESIAN_POINT('',(0.,0.,0.));
#1442=PLANE('',#822);
#1443=PLANE('',#823);
#1444=PLANE('',#824);
#1445=PLANE('',#825);
#1446=PLANE('',#826);
#1447=PLANE('',#827);
#1448=PLANE('',#828);
#1449=PLANE('',#829);
#1450=PLANE('',#830);
#1451=PLANE('',#831);
#1452=PLANE('',#832);
#1453=PLANE('',#833);
#1454=PLANE('',#834);
#1455=PLANE('',#835);
#1456=PLANE('',#913);
#1457=PLANE('',#914);
#1458=CLOSED_SHELL('',(#759,#760,#761,#762,#763,#764,#765,#766,#767,#768,
#769,#770,#771,#772,#773,#774,#775,#776,#777,#778,#779,#780,#781,#782,#783,
#784,#785,#786,#787,#788,#789,#790,#791,#792,#793,#794,#795,#796,#797,#798,
#799,#800,#801,#802,#803,#804,#805,#806,#807,#808,#809,#810,#811,#812,#813,
#814,#815,#816,#817,#818,#819,#820,#821));
#1459=MANIFOLD_SOLID_BREP('',#1458);
#1460=ADVANCED_BREP_SHAPE_REPRESENTATION('',(#1459),#33);
ENDSEC;
END-ISO-10303-21;
