ISO-10303-21;
HEADER;
/* Generated by software containing ST-Developer
 * from STEP Tools, Inc. (www.steptools.com) 
 */

FILE_DESCRIPTION(
/* description */ ('Alibre Inc.'),
/* implementation_level */ '2;1');

FILE_NAME(
/* name */ 'export0',
/* time_stamp */ '2012-12-07T21:33:43-08:00',
/* author */ (''),
/* organization */ (''),
/* preprocessor_version */ 'ST-DEVELOPER v14',
/* originating_system */ 'Alibre',
/* authorisation */ '');

FILE_SCHEMA (('AUTOMOTIVE_DESIGN'));
ENDSEC;

DATA;
#10=STYLED_ITEM('NAME_0',(#18),#318);
#11=MECHANICAL_DESIGN_GEOMETRIC_PRESENTATION_REPRESENTATION('NAME_0',(#10),
#33);
#12=COLOUR_RGB('',0.752941176470588,0.752941176470588,0.752941176470588);
#13=FILL_AREA_STYLE_COLOUR('NAME_0',#12);
#14=FILL_AREA_STYLE('NAME_0',(#13));
#15=SURFACE_STYLE_FILL_AREA(#14);
#16=SURFACE_SIDE_STYLE('NAME_0',(#15));
#17=SURFACE_STYLE_USAGE(.POSITIVE.,#16);
#18=PRESENTATION_STYLE_ASSIGNMENT((#17));
#19=PRODUCT_DEFINITION_CONTEXT('part definition',#26,'design');
#20=SHAPE_DEFINITION_REPRESENTATION(#21,#319);
#21=PRODUCT_DEFINITION_SHAPE('PRODUCT_VERSION_ID',
'PRODUCT_VERSION_DESCR',#22);
#22=PRODUCT_DEFINITION('PRODUCT_VERSION_ID','PRODUCT_VERSION_DESCR',#23,
#19);
#23=PRODUCT_DEFINITION_FORMATION_WITH_SPECIFIED_SOURCE(
'PRODUCT_VERSION_ID','PRODUCT_VERSION_DESCR',#28,.MADE.);
#24=PRODUCT_RELATED_PRODUCT_CATEGORY('part','part',(#28));
#25=APPLICATION_PROTOCOL_DEFINITION('Draft International Standard',
'automotive_design',1994,#26);
#26=APPLICATION_CONTEXT('automotive_Design');
#27=PRODUCT_CONTEXT('3D Mechanical Parts',#26,'mechanical');
#28=PRODUCT('','Keystone1502-2','',(#27));
#29=(
LENGTH_UNIT()
NAMED_UNIT(*)
SI_UNIT(.CENTI.,.METRE.)
);
#30=(
NAMED_UNIT(*)
PLANE_ANGLE_UNIT()
SI_UNIT($,.RADIAN.)
);
#31=(
NAMED_UNIT(*)
SI_UNIT($,.STERADIAN.)
SOLID_ANGLE_UNIT()
);
#32=UNCERTAINTY_MEASURE_WITH_UNIT(LENGTH_MEASURE(1.E-006),#29,
'DISTANCE_ACCURACY_VALUE',
'Maximum model space distance between geometric entities at asserted co
nnectivities');
#33=(
GEOMETRIC_REPRESENTATION_CONTEXT(3)
GLOBAL_UNCERTAINTY_ASSIGNED_CONTEXT((#32))
GLOBAL_UNIT_ASSIGNED_CONTEXT((#31,#30,#29))
REPRESENTATION_CONTEXT('ID1','3D')
);
#34=PLANE('',#196);
#35=PLANE('',#200);
#36=PLANE('',#204);
#37=PLANE('',#208);
#38=PLANE('',#212);
#39=PLANE('',#216);
#40=PLANE('',#220);
#41=CYLINDRICAL_SURFACE('',#194,0.09);
#42=CYLINDRICAL_SURFACE('',#198,0.1145);
#43=CYLINDRICAL_SURFACE('',#202,0.16);
#44=CYLINDRICAL_SURFACE('',#206,0.0700000000000001);
#45=CYLINDRICAL_SURFACE('',#210,0.118);
#46=CYLINDRICAL_SURFACE('',#214,0.0700000000000001);
#47=CYLINDRICAL_SURFACE('',#218,0.118);
#48=CIRCLE('',#193,0.09);
#49=CIRCLE('',#195,0.09);
#50=CIRCLE('',#197,0.1145);
#51=CIRCLE('',#199,0.1145);
#52=CIRCLE('',#201,0.16);
#53=CIRCLE('',#203,0.16);
#54=CIRCLE('',#205,0.0700000000000001);
#55=CIRCLE('',#207,0.0700000000000001);
#56=CIRCLE('',#209,0.118);
#57=CIRCLE('',#211,0.118);
#58=CIRCLE('',#213,0.0700000000000001);
#59=CIRCLE('',#215,0.07);
#60=CIRCLE('',#217,0.118);
#61=CIRCLE('',#219,0.118);
#62=EDGE_CURVE('',#134,#134,#48,.T.);
#63=EDGE_CURVE('',#135,#135,#49,.T.);
#64=EDGE_CURVE('',#136,#136,#50,.T.);
#65=EDGE_CURVE('',#137,#137,#51,.T.);
#66=EDGE_CURVE('',#138,#138,#52,.T.);
#67=EDGE_CURVE('',#139,#139,#53,.T.);
#68=EDGE_CURVE('',#140,#140,#54,.T.);
#69=EDGE_CURVE('',#141,#141,#55,.T.);
#70=EDGE_CURVE('',#142,#142,#56,.T.);
#71=EDGE_CURVE('',#143,#143,#57,.T.);
#72=EDGE_CURVE('',#144,#144,#58,.T.);
#73=EDGE_CURVE('',#145,#145,#59,.T.);
#74=EDGE_CURVE('',#146,#146,#60,.T.);
#75=EDGE_CURVE('',#147,#147,#61,.T.);
#76=ORIENTED_EDGE('',*,*,#62,.T.);
#77=ORIENTED_EDGE('',*,*,#62,.F.);
#78=ORIENTED_EDGE('',*,*,#63,.F.);
#79=ORIENTED_EDGE('',*,*,#63,.T.);
#80=ORIENTED_EDGE('',*,*,#64,.F.);
#81=ORIENTED_EDGE('',*,*,#65,.F.);
#82=ORIENTED_EDGE('',*,*,#64,.T.);
#83=ORIENTED_EDGE('',*,*,#66,.F.);
#84=ORIENTED_EDGE('',*,*,#65,.T.);
#85=ORIENTED_EDGE('',*,*,#67,.F.);
#86=ORIENTED_EDGE('',*,*,#66,.T.);
#87=ORIENTED_EDGE('',*,*,#68,.F.);
#88=ORIENTED_EDGE('',*,*,#67,.T.);
#89=ORIENTED_EDGE('',*,*,#69,.F.);
#90=ORIENTED_EDGE('',*,*,#68,.T.);
#91=ORIENTED_EDGE('',*,*,#70,.F.);
#92=ORIENTED_EDGE('',*,*,#69,.T.);
#93=ORIENTED_EDGE('',*,*,#71,.F.);
#94=ORIENTED_EDGE('',*,*,#70,.T.);
#95=ORIENTED_EDGE('',*,*,#72,.F.);
#96=ORIENTED_EDGE('',*,*,#71,.T.);
#97=ORIENTED_EDGE('',*,*,#73,.F.);
#98=ORIENTED_EDGE('',*,*,#72,.T.);
#99=ORIENTED_EDGE('',*,*,#74,.F.);
#100=ORIENTED_EDGE('',*,*,#73,.T.);
#101=ORIENTED_EDGE('',*,*,#75,.F.);
#102=ORIENTED_EDGE('',*,*,#74,.T.);
#103=ORIENTED_EDGE('',*,*,#75,.T.);
#104=EDGE_LOOP('',(#76));
#105=EDGE_LOOP('',(#77));
#106=EDGE_LOOP('',(#78));
#107=EDGE_LOOP('',(#79));
#108=EDGE_LOOP('',(#80));
#109=EDGE_LOOP('',(#81));
#110=EDGE_LOOP('',(#82));
#111=EDGE_LOOP('',(#83));
#112=EDGE_LOOP('',(#84));
#113=EDGE_LOOP('',(#85));
#114=EDGE_LOOP('',(#86));
#115=EDGE_LOOP('',(#87));
#116=EDGE_LOOP('',(#88));
#117=EDGE_LOOP('',(#89));
#118=EDGE_LOOP('',(#90));
#119=EDGE_LOOP('',(#91));
#120=EDGE_LOOP('',(#92));
#121=EDGE_LOOP('',(#93));
#122=EDGE_LOOP('',(#94));
#123=EDGE_LOOP('',(#95));
#124=EDGE_LOOP('',(#96));
#125=EDGE_LOOP('',(#97));
#126=EDGE_LOOP('',(#98));
#127=EDGE_LOOP('',(#99));
#128=EDGE_LOOP('',(#100));
#129=EDGE_LOOP('',(#101));
#130=EDGE_LOOP('',(#102));
#131=EDGE_LOOP('',(#103));
#132=VERTEX_LOOP('',#133);
#133=VERTEX_POINT('',#222);
#134=VERTEX_POINT('',#224);
#135=VERTEX_POINT('',#227);
#136=VERTEX_POINT('',#230);
#137=VERTEX_POINT('',#233);
#138=VERTEX_POINT('',#236);
#139=VERTEX_POINT('',#239);
#140=VERTEX_POINT('',#242);
#141=VERTEX_POINT('',#245);
#142=VERTEX_POINT('',#248);
#143=VERTEX_POINT('',#251);
#144=VERTEX_POINT('',#254);
#145=VERTEX_POINT('',#257);
#146=VERTEX_POINT('',#260);
#147=VERTEX_POINT('',#263);
#148=FACE_BOUND('',#132,.T.);
#149=FACE_BOUND('',#104,.T.);
#150=FACE_BOUND('',#105,.T.);
#151=FACE_BOUND('',#106,.T.);
#152=FACE_BOUND('',#107,.T.);
#153=FACE_BOUND('',#108,.T.);
#154=FACE_BOUND('',#109,.T.);
#155=FACE_BOUND('',#110,.T.);
#156=FACE_BOUND('',#111,.T.);
#157=FACE_BOUND('',#112,.T.);
#158=FACE_BOUND('',#113,.T.);
#159=FACE_BOUND('',#114,.T.);
#160=FACE_BOUND('',#115,.T.);
#161=FACE_BOUND('',#116,.T.);
#162=FACE_BOUND('',#117,.T.);
#163=FACE_BOUND('',#118,.T.);
#164=FACE_BOUND('',#119,.T.);
#165=FACE_BOUND('',#120,.T.);
#166=FACE_BOUND('',#121,.T.);
#167=FACE_BOUND('',#122,.T.);
#168=FACE_BOUND('',#123,.T.);
#169=FACE_BOUND('',#124,.T.);
#170=FACE_BOUND('',#125,.T.);
#171=FACE_BOUND('',#126,.T.);
#172=FACE_BOUND('',#127,.T.);
#173=FACE_BOUND('',#128,.T.);
#174=FACE_BOUND('',#129,.T.);
#175=FACE_BOUND('',#130,.T.);
#176=FACE_BOUND('',#131,.T.);
#177=ADVANCED_FACE('',(#148,#149),#316,.F.);
#178=ADVANCED_FACE('',(#150,#151),#41,.F.);
#179=ADVANCED_FACE('',(#152,#153),#34,.T.);
#180=ADVANCED_FACE('',(#154,#155),#42,.T.);
#181=ADVANCED_FACE('',(#156,#157),#35,.T.);
#182=ADVANCED_FACE('',(#158,#159),#43,.T.);
#183=ADVANCED_FACE('',(#160,#161),#36,.T.);
#184=ADVANCED_FACE('',(#162,#163),#44,.T.);
#185=ADVANCED_FACE('',(#164,#165),#37,.T.);
#186=ADVANCED_FACE('',(#166,#167),#45,.T.);
#187=ADVANCED_FACE('',(#168,#169),#38,.T.);
#188=ADVANCED_FACE('',(#170,#171),#46,.T.);
#189=ADVANCED_FACE('',(#172,#173),#39,.T.);
#190=ADVANCED_FACE('',(#174,#175),#47,.T.);
#191=ADVANCED_FACE('',(#176),#40,.T.);
#192=AXIS2_PLACEMENT_3D('',#221,#265,#266);
#193=AXIS2_PLACEMENT_3D('',#223,#267,#268);
#194=AXIS2_PLACEMENT_3D('',#225,#269,#270);
#195=AXIS2_PLACEMENT_3D('',#226,#271,#272);
#196=AXIS2_PLACEMENT_3D('',#228,#273,$);
#197=AXIS2_PLACEMENT_3D('',#229,#274,#275);
#198=AXIS2_PLACEMENT_3D('',#231,#276,#277);
#199=AXIS2_PLACEMENT_3D('',#232,#278,#279);
#200=AXIS2_PLACEMENT_3D('',#234,#280,$);
#201=AXIS2_PLACEMENT_3D('',#235,#281,#282);
#202=AXIS2_PLACEMENT_3D('',#237,#283,#284);
#203=AXIS2_PLACEMENT_3D('',#238,#285,#286);
#204=AXIS2_PLACEMENT_3D('',#240,#287,$);
#205=AXIS2_PLACEMENT_3D('',#241,#288,#289);
#206=AXIS2_PLACEMENT_3D('',#243,#290,#291);
#207=AXIS2_PLACEMENT_3D('',#244,#292,#293);
#208=AXIS2_PLACEMENT_3D('',#246,#294,$);
#209=AXIS2_PLACEMENT_3D('',#247,#295,#296);
#210=AXIS2_PLACEMENT_3D('',#249,#297,#298);
#211=AXIS2_PLACEMENT_3D('',#250,#299,#300);
#212=AXIS2_PLACEMENT_3D('',#252,#301,$);
#213=AXIS2_PLACEMENT_3D('',#253,#302,#303);
#214=AXIS2_PLACEMENT_3D('',#255,#304,#305);
#215=AXIS2_PLACEMENT_3D('',#256,#306,#307);
#216=AXIS2_PLACEMENT_3D('',#258,#308,$);
#217=AXIS2_PLACEMENT_3D('',#259,#309,#310);
#218=AXIS2_PLACEMENT_3D('',#261,#311,#312);
#219=AXIS2_PLACEMENT_3D('',#262,#313,#314);
#220=AXIS2_PLACEMENT_3D('',#264,#315,$);
#221=CARTESIAN_POINT('',(0.,-0.13,-6.30257612232622E-017));
#222=CARTESIAN_POINT('',(0.,-0.0759225442875198,-5.55111512312578E-017));
#223=CARTESIAN_POINT('',(0.,-0.13,-6.6358854364877E-017));
#224=CARTESIAN_POINT('',(0.,-0.13,-0.0900000000000001));
#225=CARTESIAN_POINT('',(0.,-0.28,-1.35747793403949E-016));
#226=CARTESIAN_POINT('',(0.,-0.28,-1.35747793403949E-016));
#227=CARTESIAN_POINT('',(0.,-0.28,-0.0900000000000001));
#228=CARTESIAN_POINT('',(0.,-0.28,-0.05725));
#229=CARTESIAN_POINT('',(0.,-0.28,0.));
#230=CARTESIAN_POINT('',(0.,-0.28,-0.1145));
#231=CARTESIAN_POINT('',(0.,-0.14,0.));
#232=CARTESIAN_POINT('',(0.,0.,0.));
#233=CARTESIAN_POINT('',(0.,2.77555756156289E-017,-0.1145));
#234=CARTESIAN_POINT('',(0.,-1.07852076885685E-032,-0.13725));
#235=CARTESIAN_POINT('',(0.,0.,0.));
#236=CARTESIAN_POINT('',(0.,-2.77555756156289E-017,-0.16));
#237=CARTESIAN_POINT('',(0.,0.05,0.));
#238=CARTESIAN_POINT('',(0.,0.1,0.));
#239=CARTESIAN_POINT('',(0.,0.1,-0.16));
#240=CARTESIAN_POINT('',(0.,0.1,-0.115));
#241=CARTESIAN_POINT('',(0.,0.1,0.));
#242=CARTESIAN_POINT('',(0.,0.1,-0.0700000000000001));
#243=CARTESIAN_POINT('',(0.,0.205,0.));
#244=CARTESIAN_POINT('',(0.,0.31,0.));
#245=CARTESIAN_POINT('',(0.,0.31,-0.0700000000000001));
#246=CARTESIAN_POINT('',(0.,0.31,-0.094));
#247=CARTESIAN_POINT('',(0.,0.31,0.));
#248=CARTESIAN_POINT('',(0.,0.31,-0.118));
#249=CARTESIAN_POINT('',(0.,0.335,0.));
#250=CARTESIAN_POINT('',(0.,0.36,0.));
#251=CARTESIAN_POINT('',(0.,0.36,-0.118));
#252=CARTESIAN_POINT('',(0.,0.36,-0.094));
#253=CARTESIAN_POINT('',(0.,0.36,0.));
#254=CARTESIAN_POINT('',(0.,0.36,-0.0700000000000001));
#255=CARTESIAN_POINT('',(0.,0.435,0.));
#256=CARTESIAN_POINT('',(0.,0.51,0.));
#257=CARTESIAN_POINT('',(0.,0.51,-0.07));
#258=CARTESIAN_POINT('',(0.,0.51,-0.0939999999999999));
#259=CARTESIAN_POINT('',(0.,0.51,0.));
#260=CARTESIAN_POINT('',(0.,0.51,-0.118));
#261=CARTESIAN_POINT('',(0.,0.535,0.));
#262=CARTESIAN_POINT('',(0.,0.56,0.));
#263=CARTESIAN_POINT('',(0.,0.56,-0.118));
#264=CARTESIAN_POINT('',(0.,0.56,-0.0589999999999999));
#265=DIRECTION('',(0.,-1.,-5.13255944643551E-016));
#266=DIRECTION('',(0.,5.55111512312578E-017,-0.09));
#267=DIRECTION('',(0.,-1.,-4.84813547871247E-016));
#268=DIRECTION('',(0.,5.55111512312578E-017,-0.09));
#269=DIRECTION('',(0.,1.,4.62592926927149E-016));
#270=DIRECTION('',(0.,4.16333634234434E-017,-0.09));
#271=DIRECTION('',(0.,1.,4.84813547871247E-016));
#272=DIRECTION('',(0.,4.16333634234434E-017,-0.09));
#273=DIRECTION('',(0.,-1.,-4.84813547871247E-016));
#274=DIRECTION('',(0.,1.,0.));
#275=DIRECTION('',(0.,0.,-0.1145));
#276=DIRECTION('',(0.,1.,0.));
#277=DIRECTION('',(0.,0.,-0.1145));
#278=DIRECTION('',(0.,1.,0.));
#279=DIRECTION('',(0.,0.,-0.1145));
#280=DIRECTION('',(0.,-1.,1.22002530178589E-015));
#281=DIRECTION('',(0.,1.,0.));
#282=DIRECTION('',(0.,0.,-0.16));
#283=DIRECTION('',(0.,1.,0.));
#284=DIRECTION('',(0.,0.,-0.16));
#285=DIRECTION('',(0.,1.,0.));
#286=DIRECTION('',(0.,0.,-0.16));
#287=DIRECTION('',(0.,1.,3.08395284618099E-016));
#288=DIRECTION('',(0.,1.,0.));
#289=DIRECTION('',(0.,0.,-0.0700000000000001));
#290=DIRECTION('',(0.,1.,0.));
#291=DIRECTION('',(0.,0.,-0.0700000000000001));
#292=DIRECTION('',(0.,1.,0.));
#293=DIRECTION('',(0.,0.,-0.0700000000000001));
#294=DIRECTION('',(0.,-1.,-1.15648231731788E-015));
#295=DIRECTION('',(0.,1.,0.));
#296=DIRECTION('',(0.,0.,-0.118));
#297=DIRECTION('',(0.,1.,0.));
#298=DIRECTION('',(0.,0.,-0.118));
#299=DIRECTION('',(0.,1.,0.));
#300=DIRECTION('',(0.,0.,-0.118));
#301=DIRECTION('',(0.,1.,0.));
#302=DIRECTION('',(0.,1.,0.));
#303=DIRECTION('',(0.,0.,-0.0700000000000001));
#304=DIRECTION('',(0.,1.,0.));
#305=DIRECTION('',(0.,0.,-0.0700000000000001));
#306=DIRECTION('',(0.,1.,0.));
#307=DIRECTION('',(0.,0.,-0.07));
#308=DIRECTION('',(0.,-1.,0.));
#309=DIRECTION('',(0.,1.,0.));
#310=DIRECTION('',(0.,0.,-0.118));
#311=DIRECTION('',(0.,1.,0.));
#312=DIRECTION('',(0.,0.,-0.118));
#313=DIRECTION('',(0.,1.,0.));
#314=DIRECTION('',(0.,0.,-0.118));
#315=DIRECTION('',(0.,1.,0.));
#316=CONICAL_SURFACE('',#192,0.09,1.02974425867666);
#317=CLOSED_SHELL('',(#177,#178,#179,#180,#181,#182,#183,#184,#185,#186,
#187,#188,#189,#190,#191));
#318=MANIFOLD_SOLID_BREP('',#317);
#319=ADVANCED_BREP_SHAPE_REPRESENTATION('',(#318),#33);
ENDSEC;
END-ISO-10303-21;
