ISO-10303-21;
HEADER;
/* Generated by software containing ST-Developer
 * from STEP Tools, Inc. (www.steptools.com) 
 */

FILE_DESCRIPTION(
/* description */ ('Alibre Inc.'),
/* implementation_level */ '2;1');

FILE_NAME(
/* name */ 'export0',
/* time_stamp */ '2013-07-10T07:43:32-07:00',
/* author */ (''),
/* organization */ (''),
/* preprocessor_version */ 'ST-DEVELOPER v14',
/* originating_system */ 'Alibre',
/* authorisation */ '');

FILE_SCHEMA (('AUTOMOTIVE_DESIGN'));
ENDSEC;

DATA;
#10=STYLED_ITEM('NAME_0',(#41),#372);
#11=STYLED_ITEM('NAME_0',(#42),#224);
#12=STYLED_ITEM('NAME_0',(#42),#225);
#13=STYLED_ITEM('NAME_0',(#42),#226);
#14=STYLED_ITEM('NAME_0',(#42),#227);
#15=STYLED_ITEM('NAME_0',(#43),#230);
#16=STYLED_ITEM('NAME_0',(#43),#231);
#17=STYLED_ITEM('NAME_0',(#43),#232);
#18=STYLED_ITEM('NAME_0',(#43),#233);
#19=STYLED_ITEM('NAME_0',(#43),#234);
#20=STYLED_ITEM('NAME_0',(#43),#235);
#21=STYLED_ITEM('NAME_0',(#43),#236);
#22=MECHANICAL_DESIGN_GEOMETRIC_PRESENTATION_REPRESENTATION('NAME_0',(#10,
#11,#12,#13,#14,#15,#16,#17,#18,#19,#20,#21),#58);
#23=COLOUR_RGB('',0.,0.,1.);
#24=COLOUR_RGB('',0.501960784313725,0.501960784313725,0.501960784313725);
#25=COLOUR_RGB('',0.752941176470588,0.752941176470588,0.752941176470588);
#26=FILL_AREA_STYLE_COLOUR('NAME_0',#23);
#27=FILL_AREA_STYLE_COLOUR('NAME_0',#24);
#28=FILL_AREA_STYLE_COLOUR('NAME_0',#25);
#29=FILL_AREA_STYLE('NAME_0',(#26));
#30=FILL_AREA_STYLE('NAME_0',(#27));
#31=FILL_AREA_STYLE('NAME_0',(#28));
#32=SURFACE_STYLE_FILL_AREA(#29);
#33=SURFACE_STYLE_FILL_AREA(#30);
#34=SURFACE_STYLE_FILL_AREA(#31);
#35=SURFACE_SIDE_STYLE('NAME_0',(#32));
#36=SURFACE_SIDE_STYLE('NAME_0',(#33));
#37=SURFACE_SIDE_STYLE('NAME_0',(#34));
#38=SURFACE_STYLE_USAGE(.POSITIVE.,#35);
#39=SURFACE_STYLE_USAGE(.POSITIVE.,#36);
#40=SURFACE_STYLE_USAGE(.POSITIVE.,#37);
#41=PRESENTATION_STYLE_ASSIGNMENT((#38));
#42=PRESENTATION_STYLE_ASSIGNMENT((#39));
#43=PRESENTATION_STYLE_ASSIGNMENT((#40));
#44=PRODUCT_DEFINITION_CONTEXT('part definition',#51,'design');
#45=SHAPE_DEFINITION_REPRESENTATION(#46,#373);
#46=PRODUCT_DEFINITION_SHAPE('PRODUCT_VERSION_ID',
'PRODUCT_VERSION_DESCR',#47);
#47=PRODUCT_DEFINITION('PRODUCT_VERSION_ID','PRODUCT_VERSION_DESCR',#48,
#44);
#48=PRODUCT_DEFINITION_FORMATION_WITH_SPECIFIED_SOURCE(
'PRODUCT_VERSION_ID','PRODUCT_VERSION_DESCR',#53,.MADE.);
#49=PRODUCT_RELATED_PRODUCT_CATEGORY('part','part',(#53));
#50=APPLICATION_PROTOCOL_DEFINITION('Draft International Standard',
'automotive_design',1994,#51);
#51=APPLICATION_CONTEXT('automotive_Design');
#52=PRODUCT_CONTEXT('3D Mechanical Parts',#51,'mechanical');
#53=PRODUCT('','BXW_1000x2500','',(#52));
#54=(
LENGTH_UNIT()
NAMED_UNIT(*)
SI_UNIT(.CENTI.,.METRE.)
);
#55=(
NAMED_UNIT(*)
PLANE_ANGLE_UNIT()
SI_UNIT($,.RADIAN.)
);
#56=(
NAMED_UNIT(*)
SI_UNIT($,.STERADIAN.)
SOLID_ANGLE_UNIT()
);
#57=UNCERTAINTY_MEASURE_WITH_UNIT(LENGTH_MEASURE(1.E-006),#54,
'DISTANCE_ACCURACY_VALUE',
'Maximum model space distance between geometric entities at asserted co
nnectivities');
#58=(
GEOMETRIC_REPRESENTATION_CONTEXT(3)
GLOBAL_UNCERTAINTY_ASSIGNED_CONTEXT((#57))
GLOBAL_UNIT_ASSIGNED_CONTEXT((#56,#55,#54))
REPRESENTATION_CONTEXT('ID1','3D')
);
#59=VECTOR('',#279,1.);
#60=VECTOR('',#282,1.);
#61=VECTOR('',#284,1.);
#62=VECTOR('',#287,1.);
#63=VECTOR('',#289,1.);
#64=VECTOR('',#290,1.);
#65=VECTOR('',#291,1.);
#66=VECTOR('',#292,1.);
#67=VECTOR('',#295,1.);
#68=VECTOR('',#304,1.);
#69=VECTOR('',#308,1.);
#70=VECTOR('',#309,1.);
#71=LINE('',#329,#59);
#72=LINE('',#333,#60);
#73=LINE('',#335,#61);
#74=LINE('',#339,#62);
#75=LINE('',#341,#63);
#76=LINE('',#343,#64);
#77=LINE('',#345,#65);
#78=LINE('',#347,#66);
#79=LINE('',#349,#67);
#80=LINE('',#357,#68);
#81=LINE('',#361,#69);
#82=LINE('',#362,#70);
#83=PLANE('',#240);
#84=PLANE('',#244);
#85=PLANE('',#248);
#86=PLANE('',#250);
#87=PLANE('',#257);
#88=PLANE('',#258);
#89=PLANE('',#259);
#90=PLANE('',#260);
#91=VERTEX_POINT('',#315);
#92=VERTEX_POINT('',#317);
#93=VERTEX_POINT('',#321);
#94=VERTEX_POINT('',#323);
#95=VERTEX_POINT('',#327);
#96=VERTEX_POINT('',#328);
#97=VERTEX_POINT('',#330);
#98=VERTEX_POINT('',#332);
#99=VERTEX_POINT('',#336);
#100=VERTEX_POINT('',#338);
#101=VERTEX_POINT('',#342);
#102=VERTEX_POINT('',#344);
#103=VERTEX_POINT('',#346);
#104=VERTEX_POINT('',#350);
#105=VERTEX_POINT('',#353);
#106=VERTEX_POINT('',#356);
#107=VERTEX_POINT('',#358);
#108=CIRCLE('',#238,0.03);
#109=CIRCLE('',#239,0.03);
#110=CIRCLE('',#242,0.03);
#111=CIRCLE('',#243,0.03);
#112=CIRCLE('',#246,0.525);
#113=CIRCLE('',#247,0.525);
#114=CIRCLE('',#249,0.4725);
#115=CIRCLE('',#252,0.4725);
#116=CIRCLE('',#253,0.4725);
#117=CIRCLE('',#255,0.526);
#118=CIRCLE('',#256,0.526);
#119=EDGE_CURVE('',#91,#91,#108,.T.);
#120=EDGE_CURVE('',#92,#92,#109,.T.);
#121=EDGE_CURVE('',#93,#93,#110,.T.);
#122=EDGE_CURVE('',#94,#94,#111,.T.);
#123=EDGE_CURVE('',#95,#96,#112,.T.);
#124=EDGE_CURVE('',#97,#96,#71,.T.);
#125=EDGE_CURVE('',#98,#97,#113,.T.);
#126=EDGE_CURVE('',#95,#98,#72,.T.);
#127=EDGE_CURVE('',#99,#95,#73,.T.);
#128=EDGE_CURVE('',#100,#99,#114,.T.);
#129=EDGE_CURVE('',#96,#100,#74,.T.);
#130=EDGE_CURVE('',#100,#101,#75,.T.);
#131=EDGE_CURVE('',#101,#102,#76,.T.);
#132=EDGE_CURVE('',#103,#102,#77,.T.);
#133=EDGE_CURVE('',#103,#97,#78,.T.);
#134=EDGE_CURVE('',#99,#104,#79,.T.);
#135=EDGE_CURVE('',#104,#101,#115,.T.);
#136=EDGE_CURVE('',#105,#105,#116,.T.);
#137=EDGE_CURVE('',#102,#106,#117,.T.);
#138=EDGE_CURVE('',#107,#106,#80,.T.);
#139=EDGE_CURVE('',#103,#107,#118,.T.);
#140=EDGE_CURVE('',#98,#107,#81,.T.);
#141=EDGE_CURVE('',#106,#104,#82,.T.);
#142=ORIENTED_EDGE('',*,*,#119,.T.);
#143=ORIENTED_EDGE('',*,*,#120,.F.);
#144=ORIENTED_EDGE('',*,*,#119,.F.);
#145=ORIENTED_EDGE('',*,*,#121,.T.);
#146=ORIENTED_EDGE('',*,*,#122,.F.);
#147=ORIENTED_EDGE('',*,*,#121,.F.);
#148=ORIENTED_EDGE('',*,*,#123,.T.);
#149=ORIENTED_EDGE('',*,*,#124,.F.);
#150=ORIENTED_EDGE('',*,*,#125,.F.);
#151=ORIENTED_EDGE('',*,*,#126,.F.);
#152=ORIENTED_EDGE('',*,*,#127,.F.);
#153=ORIENTED_EDGE('',*,*,#128,.F.);
#154=ORIENTED_EDGE('',*,*,#129,.F.);
#155=ORIENTED_EDGE('',*,*,#123,.F.);
#156=ORIENTED_EDGE('',*,*,#124,.T.);
#157=ORIENTED_EDGE('',*,*,#129,.T.);
#158=ORIENTED_EDGE('',*,*,#130,.T.);
#159=ORIENTED_EDGE('',*,*,#131,.T.);
#160=ORIENTED_EDGE('',*,*,#132,.F.);
#161=ORIENTED_EDGE('',*,*,#133,.T.);
#162=ORIENTED_EDGE('',*,*,#128,.T.);
#163=ORIENTED_EDGE('',*,*,#134,.T.);
#164=ORIENTED_EDGE('',*,*,#135,.T.);
#165=ORIENTED_EDGE('',*,*,#130,.F.);
#166=ORIENTED_EDGE('',*,*,#136,.T.);
#167=ORIENTED_EDGE('',*,*,#137,.T.);
#168=ORIENTED_EDGE('',*,*,#138,.F.);
#169=ORIENTED_EDGE('',*,*,#139,.F.);
#170=ORIENTED_EDGE('',*,*,#132,.T.);
#171=ORIENTED_EDGE('',*,*,#126,.T.);
#172=ORIENTED_EDGE('',*,*,#140,.T.);
#173=ORIENTED_EDGE('',*,*,#138,.T.);
#174=ORIENTED_EDGE('',*,*,#141,.T.);
#175=ORIENTED_EDGE('',*,*,#134,.F.);
#176=ORIENTED_EDGE('',*,*,#127,.T.);
#177=ORIENTED_EDGE('',*,*,#135,.F.);
#178=ORIENTED_EDGE('',*,*,#141,.F.);
#179=ORIENTED_EDGE('',*,*,#137,.F.);
#180=ORIENTED_EDGE('',*,*,#131,.F.);
#181=ORIENTED_EDGE('',*,*,#136,.F.);
#182=ORIENTED_EDGE('',*,*,#120,.T.);
#183=ORIENTED_EDGE('',*,*,#122,.T.);
#184=ORIENTED_EDGE('',*,*,#140,.F.);
#185=ORIENTED_EDGE('',*,*,#125,.T.);
#186=ORIENTED_EDGE('',*,*,#133,.F.);
#187=ORIENTED_EDGE('',*,*,#139,.T.);
#188=EDGE_LOOP('',(#142));
#189=EDGE_LOOP('',(#143));
#190=EDGE_LOOP('',(#144));
#191=EDGE_LOOP('',(#145));
#192=EDGE_LOOP('',(#146));
#193=EDGE_LOOP('',(#147));
#194=EDGE_LOOP('',(#148,#149,#150,#151));
#195=EDGE_LOOP('',(#152,#153,#154,#155));
#196=EDGE_LOOP('',(#156,#157,#158,#159,#160,#161));
#197=EDGE_LOOP('',(#162,#163,#164,#165));
#198=EDGE_LOOP('',(#166));
#199=EDGE_LOOP('',(#167,#168,#169,#170));
#200=EDGE_LOOP('',(#171,#172,#173,#174,#175,#176));
#201=EDGE_LOOP('',(#177,#178,#179,#180));
#202=EDGE_LOOP('',(#181));
#203=EDGE_LOOP('',(#182));
#204=EDGE_LOOP('',(#183));
#205=EDGE_LOOP('',(#184,#185,#186,#187));
#206=FACE_BOUND('',#188,.T.);
#207=FACE_BOUND('',#189,.T.);
#208=FACE_BOUND('',#190,.T.);
#209=FACE_BOUND('',#191,.T.);
#210=FACE_BOUND('',#192,.T.);
#211=FACE_BOUND('',#193,.T.);
#212=FACE_BOUND('',#194,.T.);
#213=FACE_BOUND('',#195,.T.);
#214=FACE_BOUND('',#196,.T.);
#215=FACE_BOUND('',#197,.T.);
#216=FACE_BOUND('',#198,.T.);
#217=FACE_BOUND('',#199,.T.);
#218=FACE_BOUND('',#200,.T.);
#219=FACE_BOUND('',#201,.T.);
#220=FACE_BOUND('',#202,.T.);
#221=FACE_BOUND('',#203,.T.);
#222=FACE_BOUND('',#204,.T.);
#223=FACE_BOUND('',#205,.T.);
#224=ADVANCED_FACE('',(#206,#207),#366,.T.);
#225=ADVANCED_FACE('',(#208),#83,.F.);
#226=ADVANCED_FACE('',(#209,#210),#367,.T.);
#227=ADVANCED_FACE('',(#211),#84,.T.);
#228=ADVANCED_FACE('',(#212),#368,.T.);
#229=ADVANCED_FACE('',(#213),#85,.T.);
#230=ADVANCED_FACE('',(#214),#86,.T.);
#231=ADVANCED_FACE('',(#215,#216),#369,.F.);
#232=ADVANCED_FACE('',(#217),#370,.T.);
#233=ADVANCED_FACE('',(#218),#87,.T.);
#234=ADVANCED_FACE('',(#219),#88,.T.);
#235=ADVANCED_FACE('',(#220),#89,.T.);
#236=ADVANCED_FACE('',(#221,#222,#223),#90,.F.);
#237=AXIS2_PLACEMENT_3D('',#313,#261,#262);
#238=AXIS2_PLACEMENT_3D('',#314,#263,#264);
#239=AXIS2_PLACEMENT_3D('',#316,#265,#266);
#240=AXIS2_PLACEMENT_3D('',#318,#267,$);
#241=AXIS2_PLACEMENT_3D('',#319,#268,#269);
#242=AXIS2_PLACEMENT_3D('',#320,#270,#271);
#243=AXIS2_PLACEMENT_3D('',#322,#272,#273);
#244=AXIS2_PLACEMENT_3D('',#324,#274,$);
#245=AXIS2_PLACEMENT_3D('',#325,#275,#276);
#246=AXIS2_PLACEMENT_3D('',#326,#277,#278);
#247=AXIS2_PLACEMENT_3D('',#331,#280,#281);
#248=AXIS2_PLACEMENT_3D('',#334,#283,$);
#249=AXIS2_PLACEMENT_3D('',#337,#285,#286);
#250=AXIS2_PLACEMENT_3D('',#340,#288,$);
#251=AXIS2_PLACEMENT_3D('',#348,#293,#294);
#252=AXIS2_PLACEMENT_3D('',#351,#296,#297);
#253=AXIS2_PLACEMENT_3D('',#352,#298,#299);
#254=AXIS2_PLACEMENT_3D('',#354,#300,#301);
#255=AXIS2_PLACEMENT_3D('',#355,#302,#303);
#256=AXIS2_PLACEMENT_3D('',#359,#305,#306);
#257=AXIS2_PLACEMENT_3D('',#360,#307,$);
#258=AXIS2_PLACEMENT_3D('',#363,#310,$);
#259=AXIS2_PLACEMENT_3D('',#364,#311,$);
#260=AXIS2_PLACEMENT_3D('',#365,#312,$);
#261=DIRECTION('',(0.,0.,-1.));
#262=DIRECTION('',(0.03,0.,0.));
#263=DIRECTION('',(0.,0.,1.));
#264=DIRECTION('',(0.03,0.,0.));
#265=DIRECTION('',(0.,0.,1.));
#266=DIRECTION('',(0.03,0.,0.));
#267=DIRECTION('',(0.,0.,1.));
#268=DIRECTION('',(0.,0.,-1.));
#269=DIRECTION('',(-0.03,0.,0.));
#270=DIRECTION('',(0.,0.,1.));
#271=DIRECTION('',(-0.03,0.,0.));
#272=DIRECTION('',(0.,0.,1.));
#273=DIRECTION('',(-0.03,0.,0.));
#274=DIRECTION('',(0.,0.,-1.));
#275=DIRECTION('',(0.,0.,1.));
#276=DIRECTION('',(-0.525,0.,0.));
#277=DIRECTION('',(0.,0.,-1.));
#278=DIRECTION('',(-0.525,0.,0.));
#279=DIRECTION('',(0.,0.,1.));
#280=DIRECTION('',(0.,0.,-1.));
#281=DIRECTION('',(-0.525,0.,0.));
#282=DIRECTION('',(0.,0.,-1.));
#283=DIRECTION('',(0.,0.,1.));
#284=DIRECTION('',(0.965911509849318,-0.258872468873404,0.));
#285=DIRECTION('',(0.,0.,1.));
#286=DIRECTION('',(-0.4725,0.,0.));
#287=DIRECTION('',(-0.965911509849318,-0.258872468873404,0.));
#288=DIRECTION('',(-0.258872468873404,0.965911509849318,0.));
#289=DIRECTION('',(0.,0.,1.));
#290=DIRECTION('',(0.965911509849318,0.258872468873404,0.));
#291=DIRECTION('',(0.,0.,1.));
#292=DIRECTION('',(-0.965911509849318,-0.258872468873404,0.));
#293=DIRECTION('',(0.,0.,1.));
#294=DIRECTION('',(-0.4725,0.,0.));
#295=DIRECTION('',(0.,0.,1.));
#296=DIRECTION('',(0.,0.,1.));
#297=DIRECTION('',(-0.4725,0.,0.));
#298=DIRECTION('',(0.,0.,-1.));
#299=DIRECTION('',(0.4725,0.,0.));
#300=DIRECTION('',(0.,0.,1.));
#301=DIRECTION('',(-0.526,0.,0.));
#302=DIRECTION('',(0.,0.,-1.));
#303=DIRECTION('',(-0.526,0.,0.));
#304=DIRECTION('',(0.,0.,1.));
#305=DIRECTION('',(0.,0.,-1.));
#306=DIRECTION('',(-0.526,0.,0.));
#307=DIRECTION('',(-0.258872468873404,-0.965911509849318,0.));
#308=DIRECTION('',(0.965911509849318,-0.258872468873404,0.));
#309=DIRECTION('',(-0.965911509849318,0.258872468873404,0.));
#310=DIRECTION('',(0.,0.,1.));
#311=DIRECTION('',(0.,0.,1.));
#312=DIRECTION('',(0.,0.,1.));
#313=CARTESIAN_POINT('',(-0.25,0.,0.));
#314=CARTESIAN_POINT('',(-0.25,0.,-0.4));
#315=CARTESIAN_POINT('',(-0.22,0.,-0.4));
#316=CARTESIAN_POINT('',(-0.25,0.,0.));
#317=CARTESIAN_POINT('',(-0.22,0.,0.));
#318=CARTESIAN_POINT('',(-0.25,0.,-0.4));
#319=CARTESIAN_POINT('',(0.25,0.,0.));
#320=CARTESIAN_POINT('',(0.25,0.,-0.4));
#321=CARTESIAN_POINT('',(0.22,0.,-0.4));
#322=CARTESIAN_POINT('',(0.25,0.,0.));
#323=CARTESIAN_POINT('',(0.22,0.,0.));
#324=CARTESIAN_POINT('',(0.25,0.,-0.4));
#325=CARTESIAN_POINT('',(0.,0.,0.));
#326=CARTESIAN_POINT('',(0.,0.,2.7));
#327=CARTESIAN_POINT('',(0.507103542670892,-0.135908046158537,2.7));
#328=CARTESIAN_POINT('',(0.507103542670883,0.135908046158569,2.7));
#329=CARTESIAN_POINT('',(0.507103542670892,0.135908046158537,1.35));
#330=CARTESIAN_POINT('',(0.507103542670883,0.135908046158569,0.));
#331=CARTESIAN_POINT('',(0.,0.,0.));
#332=CARTESIAN_POINT('',(0.507103542670892,-0.135908046158537,0.));
#333=CARTESIAN_POINT('',(0.507103542670892,-0.135908046158537,1.35));
#334=CARTESIAN_POINT('',(0.0127524815600329,3.93131707743244E-016,2.7));
#335=CARTESIAN_POINT('',(0.247064597936314,-0.0662154056420412,2.7));
#336=CARTESIAN_POINT('',(0.456393188403803,-0.122317241542683,2.7));
#337=CARTESIAN_POINT('',(0.,0.,2.7));
#338=CARTESIAN_POINT('',(0.456393188403795,0.122317241542713,2.7));
#339=CARTESIAN_POINT('',(0.247064597936309,0.0662154056420589,2.7));
#340=CARTESIAN_POINT('',(0.482231321292272,0.129242080085047,0.));
#341=CARTESIAN_POINT('',(0.456393188403803,0.122317241542683,0.));
#342=CARTESIAN_POINT('',(0.456393188403803,0.122317241542683,2.701));
#343=CARTESIAN_POINT('',(0.508069454180741,0.13616691862741,2.701));
#344=CARTESIAN_POINT('',(0.508069454180741,0.136166918627411,2.701));
#345=CARTESIAN_POINT('',(0.508069454180741,0.136166918627411,0.));
#346=CARTESIAN_POINT('',(0.508069454180741,0.136166918627411,0.));
#347=CARTESIAN_POINT('',(0.508069454180741,0.13616691862741,0.));
#348=CARTESIAN_POINT('',(0.,0.,0.));
#349=CARTESIAN_POINT('',(0.456393188403803,-0.122317241542683,0.));
#350=CARTESIAN_POINT('',(0.456393188403803,-0.122317241542683,2.701));
#351=CARTESIAN_POINT('',(0.,0.,2.701));
#352=CARTESIAN_POINT('',(0.,0.,2.69));
#353=CARTESIAN_POINT('',(0.456393188403803,-0.122317241542683,2.69));
#354=CARTESIAN_POINT('',(0.,0.,0.));
#355=CARTESIAN_POINT('',(0.,0.,2.701));
#356=CARTESIAN_POINT('',(0.508069454180741,-0.13616691862741,2.701));
#357=CARTESIAN_POINT('',(0.508069454180741,-0.13616691862741,0.));
#358=CARTESIAN_POINT('',(0.508069454180741,-0.13616691862741,0.));
#359=CARTESIAN_POINT('',(0.,0.,0.));
#360=CARTESIAN_POINT('',(0.482231321292272,-0.129242080085047,0.));
#361=CARTESIAN_POINT('',(0.456393188403803,-0.122317241542683,0.));
#362=CARTESIAN_POINT('',(0.456393188403803,-0.122317241542683,2.701));
#363=CARTESIAN_POINT('',(0.491872277149446,5.17923195724482E-017,2.701));
#364=CARTESIAN_POINT('',(0.,0.,2.69));
#365=CARTESIAN_POINT('',(0.,0.,0.));
#366=CYLINDRICAL_SURFACE('',#237,0.03);
#367=CYLINDRICAL_SURFACE('',#241,0.03);
#368=CYLINDRICAL_SURFACE('',#245,0.525);
#369=CYLINDRICAL_SURFACE('',#251,0.4725);
#370=CYLINDRICAL_SURFACE('',#254,0.526);
#371=CLOSED_SHELL('',(#224,#225,#226,#227,#228,#229,#230,#231,#232,#233,
#234,#235,#236));
#372=MANIFOLD_SOLID_BREP('',#371);
#373=ADVANCED_BREP_SHAPE_REPRESENTATION('',(#372),#58);
ENDSEC;
END-ISO-10303-21;
