ISO-10303-21;
HEADER;
/* Generated by software containing ST-Developer
 * from STEP Tools, Inc. (www.steptools.com) 
 */

FILE_DESCRIPTION(
/* description */ ('Alibre Inc.'),
/* implementation_level */ '2;1');

FILE_NAME(
/* name */ 'export0',
/* time_stamp */ '2015-07-17T14:01:55+08:00',
/* author */ (''),
/* organization */ (''),
/* preprocessor_version */ 'ST-DEVELOPER v14',
/* originating_system */ 'Alibre',
/* authorisation */ '');

FILE_SCHEMA (('AUTOMOTIVE_DESIGN'));
ENDSEC;

DATA;
#10=STYLED_ITEM('NAME_0',(#18),#182);
#11=MECHANICAL_DESIGN_GEOMETRIC_PRESENTATION_REPRESENTATION('NAME_0',(#10),
#33);
#12=COLOUR_RGB('',0.643137254901961,0.643137254901961,0.643137254901961);
#13=FILL_AREA_STYLE_COLOUR('NAME_0',#12);
#14=FILL_AREA_STYLE('NAME_0',(#13));
#15=SURFACE_STYLE_FILL_AREA(#14);
#16=SURFACE_SIDE_STYLE('NAME_0',(#15));
#17=SURFACE_STYLE_USAGE(.POSITIVE.,#16);
#18=PRESENTATION_STYLE_ASSIGNMENT((#17));
#19=PRODUCT_DEFINITION_CONTEXT('part definition',#26,'design');
#20=SHAPE_DEFINITION_REPRESENTATION(#21,#183);
#21=PRODUCT_DEFINITION_SHAPE('PRODUCT_VERSION_ID',
'PRODUCT_VERSION_DESCR',#22);
#22=PRODUCT_DEFINITION('PRODUCT_VERSION_ID','PRODUCT_VERSION_DESCR',#23,
#19);
#23=PRODUCT_DEFINITION_FORMATION_WITH_SPECIFIED_SOURCE(
'PRODUCT_VERSION_ID','PRODUCT_VERSION_DESCR',#28,.MADE.);
#24=PRODUCT_RELATED_PRODUCT_CATEGORY('part','part',(#28));
#25=APPLICATION_PROTOCOL_DEFINITION('Draft International Standard',
'automotive_design',1994,#26);
#26=APPLICATION_CONTEXT('automotive_Design');
#27=PRODUCT_CONTEXT('3D Mechanical Parts',#26,'mechanical');
#28=PRODUCT('','0312-0-15-15-34-27-10-0','',(#27));
#29=(
LENGTH_UNIT()
NAMED_UNIT(*)
SI_UNIT(.CENTI.,.METRE.)
);
#30=(
NAMED_UNIT(*)
PLANE_ANGLE_UNIT()
SI_UNIT($,.RADIAN.)
);
#31=(
NAMED_UNIT(*)
SI_UNIT($,.STERADIAN.)
SOLID_ANGLE_UNIT()
);
#32=UNCERTAINTY_MEASURE_WITH_UNIT(LENGTH_MEASURE(1.E-006),#29,
'DISTANCE_ACCURACY_VALUE',
'Maximum model space distance between geometric entities at asserted co
nnectivities');
#33=(
GEOMETRIC_REPRESENTATION_CONTEXT(3)
GLOBAL_UNCERTAINTY_ASSIGNED_CONTEXT((#32))
GLOBAL_UNIT_ASSIGNED_CONTEXT((#31,#30,#29))
REPRESENTATION_CONTEXT('ID1','3D')
);
#34=PLANE('',#123);
#35=PLANE('',#127);
#36=PLANE('',#128);
#37=CYLINDRICAL_SURFACE('',#119,0.08001);
#38=CYLINDRICAL_SURFACE('',#120,0.09144);
#39=CYLINDRICAL_SURFACE('',#124,0.11557);
#40=VERTEX_LOOP('',#44);
#41=VERTEX_POINT('',#131);
#42=VERTEX_POINT('',#133);
#43=VERTEX_POINT('',#136);
#44=VERTEX_POINT('',#137);
#45=VERTEX_POINT('',#141);
#46=VERTEX_POINT('',#143);
#47=VERTEX_POINT('',#147);
#48=VERTEX_POINT('',#149);
#49=CIRCLE('',#115,0.0966507191106507);
#50=CIRCLE('',#116,0.08001);
#51=CIRCLE('',#118,0.08001);
#52=CIRCLE('',#121,0.09144);
#53=CIRCLE('',#122,0.09144);
#54=CIRCLE('',#125,0.11557);
#55=CIRCLE('',#126,0.11557);
#56=EDGE_CURVE('',#41,#41,#49,.T.);
#57=EDGE_CURVE('',#42,#42,#50,.T.);
#58=EDGE_CURVE('',#43,#43,#51,.T.);
#59=EDGE_CURVE('',#45,#45,#52,.T.);
#60=EDGE_CURVE('',#46,#46,#53,.T.);
#61=EDGE_CURVE('',#47,#47,#54,.T.);
#62=EDGE_CURVE('',#48,#48,#55,.T.);
#63=ORIENTED_EDGE('',*,*,#56,.F.);
#64=ORIENTED_EDGE('',*,*,#57,.F.);
#65=ORIENTED_EDGE('',*,*,#58,.T.);
#66=ORIENTED_EDGE('',*,*,#57,.T.);
#67=ORIENTED_EDGE('',*,*,#58,.F.);
#68=ORIENTED_EDGE('',*,*,#59,.T.);
#69=ORIENTED_EDGE('',*,*,#60,.F.);
#70=ORIENTED_EDGE('',*,*,#59,.F.);
#71=ORIENTED_EDGE('',*,*,#61,.T.);
#72=ORIENTED_EDGE('',*,*,#62,.T.);
#73=ORIENTED_EDGE('',*,*,#56,.T.);
#74=ORIENTED_EDGE('',*,*,#61,.F.);
#75=ORIENTED_EDGE('',*,*,#60,.T.);
#76=ORIENTED_EDGE('',*,*,#62,.F.);
#77=EDGE_LOOP('',(#63));
#78=EDGE_LOOP('',(#64));
#79=EDGE_LOOP('',(#65));
#80=EDGE_LOOP('',(#66));
#81=EDGE_LOOP('',(#67));
#82=EDGE_LOOP('',(#68));
#83=EDGE_LOOP('',(#69));
#84=EDGE_LOOP('',(#70));
#85=EDGE_LOOP('',(#71));
#86=EDGE_LOOP('',(#72));
#87=EDGE_LOOP('',(#73));
#88=EDGE_LOOP('',(#74));
#89=EDGE_LOOP('',(#75));
#90=EDGE_LOOP('',(#76));
#91=FACE_BOUND('',#77,.T.);
#92=FACE_BOUND('',#78,.T.);
#93=FACE_BOUND('',#79,.T.);
#94=FACE_BOUND('',#40,.T.);
#95=FACE_BOUND('',#80,.T.);
#96=FACE_BOUND('',#81,.T.);
#97=FACE_BOUND('',#82,.T.);
#98=FACE_BOUND('',#83,.T.);
#99=FACE_BOUND('',#84,.T.);
#100=FACE_BOUND('',#85,.T.);
#101=FACE_BOUND('',#86,.T.);
#102=FACE_BOUND('',#87,.T.);
#103=FACE_BOUND('',#88,.T.);
#104=FACE_BOUND('',#89,.T.);
#105=FACE_BOUND('',#90,.T.);
#106=ADVANCED_FACE('',(#91,#92),#179,.F.);
#107=ADVANCED_FACE('',(#93,#94),#180,.F.);
#108=ADVANCED_FACE('',(#95,#96),#37,.F.);
#109=ADVANCED_FACE('',(#97,#98),#38,.T.);
#110=ADVANCED_FACE('',(#99),#34,.F.);
#111=ADVANCED_FACE('',(#100,#101),#39,.T.);
#112=ADVANCED_FACE('',(#102,#103),#35,.T.);
#113=ADVANCED_FACE('',(#104,#105),#36,.F.);
#114=AXIS2_PLACEMENT_3D('',#129,#152,#153);
#115=AXIS2_PLACEMENT_3D('',#130,#154,#155);
#116=AXIS2_PLACEMENT_3D('',#132,#156,#157);
#117=AXIS2_PLACEMENT_3D('',#134,#158,#159);
#118=AXIS2_PLACEMENT_3D('',#135,#160,#161);
#119=AXIS2_PLACEMENT_3D('',#138,#162,#163);
#120=AXIS2_PLACEMENT_3D('',#139,#164,#165);
#121=AXIS2_PLACEMENT_3D('',#140,#166,#167);
#122=AXIS2_PLACEMENT_3D('',#142,#168,#169);
#123=AXIS2_PLACEMENT_3D('',#144,#170,$);
#124=AXIS2_PLACEMENT_3D('',#145,#171,#172);
#125=AXIS2_PLACEMENT_3D('',#146,#173,#174);
#126=AXIS2_PLACEMENT_3D('',#148,#175,#176);
#127=AXIS2_PLACEMENT_3D('',#150,#177,$);
#128=AXIS2_PLACEMENT_3D('',#151,#178,$);
#129=CARTESIAN_POINT('',(0.,0.,0.02286));
#130=CARTESIAN_POINT('',(0.,0.,0.04572));
#131=CARTESIAN_POINT('',(0.0966507191106507,0.,0.04572));
#132=CARTESIAN_POINT('',(0.,0.,0.));
#133=CARTESIAN_POINT('',(0.08001,0.,0.));
#134=CARTESIAN_POINT('',(0.,0.,-0.408703102481069));
#135=CARTESIAN_POINT('',(0.,0.,-0.385606204962138));
#136=CARTESIAN_POINT('',(0.08001,0.,-0.385606204962138));
#137=CARTESIAN_POINT('',(0.,0.,-0.4318));
#138=CARTESIAN_POINT('',(0.,0.,-0.192803102481069));
#139=CARTESIAN_POINT('',(0.,0.,0.));
#140=CARTESIAN_POINT('',(0.,0.,-0.47752));
#141=CARTESIAN_POINT('',(0.09144,0.,-0.47752));
#142=CARTESIAN_POINT('',(0.,0.,0.));
#143=CARTESIAN_POINT('',(0.09144,0.,0.));
#144=CARTESIAN_POINT('',(0.,0.,-0.47752));
#145=CARTESIAN_POINT('',(0.,0.,0.));
#146=CARTESIAN_POINT('',(0.,0.,0.04572));
#147=CARTESIAN_POINT('',(0.11557,0.,0.04572));
#148=CARTESIAN_POINT('',(0.,0.,0.));
#149=CARTESIAN_POINT('',(0.11557,0.,0.));
#150=CARTESIAN_POINT('',(0.,0.,0.04572));
#151=CARTESIAN_POINT('',(0.,0.,0.));
#152=DIRECTION('',(0.,0.,1.));
#153=DIRECTION('',(0.0883303595553254,0.,0.));
#154=DIRECTION('',(0.,0.,-1.));
#155=DIRECTION('',(0.0966507191106507,0.,0.));
#156=DIRECTION('',(0.,0.,1.));
#157=DIRECTION('',(0.08001,0.,0.));
#158=DIRECTION('',(0.,0.,1.));
#159=DIRECTION('',(0.040005,0.,0.));
#160=DIRECTION('',(0.,0.,1.));
#161=DIRECTION('',(0.08001,0.,0.));
#162=DIRECTION('',(0.,0.,1.));
#163=DIRECTION('',(0.08001,0.,0.));
#164=DIRECTION('',(0.,0.,-1.));
#165=DIRECTION('',(0.09144,0.,0.));
#166=DIRECTION('',(0.,0.,1.));
#167=DIRECTION('',(0.09144,0.,0.));
#168=DIRECTION('',(0.,0.,1.));
#169=DIRECTION('',(0.09144,0.,0.));
#170=DIRECTION('',(0.,0.,1.));
#171=DIRECTION('',(0.,0.,1.));
#172=DIRECTION('',(0.11557,0.,0.));
#173=DIRECTION('',(0.,0.,-1.));
#174=DIRECTION('',(0.11557,0.,0.));
#175=DIRECTION('',(0.,0.,1.));
#176=DIRECTION('',(0.11557,0.,0.));
#177=DIRECTION('',(0.,0.,1.));
#178=DIRECTION('',(0.,0.,1.));
#179=CONICAL_SURFACE('',#114,0.0883303595553254,0.349065850398865);
#180=CONICAL_SURFACE('',#117,0.040005,1.0471975511966);
#181=CLOSED_SHELL('',(#106,#107,#108,#109,#110,#111,#112,#113));
#182=MANIFOLD_SOLID_BREP('',#181);
#183=ADVANCED_BREP_SHAPE_REPRESENTATION('',(#182),#33);
ENDSEC;
END-ISO-10303-21;
