ISO-10303-21;
HEADER;
/* Generated by software containing ST-Developer
 * from STEP Tools, Inc. (www.steptools.com) 
 */

FILE_DESCRIPTION(
/* description */ ('Alibre Inc.'),
/* implementation_level */ '2;1');

FILE_NAME(
/* name */ 'export0',
/* time_stamp */ '2010-09-27T16:10:22-07:00',
/* author */ (''),
/* organization */ (''),
/* preprocessor_version */ 'ST-DEVELOPER v10',
/* originating_system */ 'Alibre',
/* authorisation */ '');

FILE_SCHEMA (('AUTOMOTIVE_DESIGN'));
ENDSEC;

DATA;
#10=CONTEXT_DEPENDENT_SHAPE_REPRESENTATION(#28,#60);
#11=CONTEXT_DEPENDENT_SHAPE_REPRESENTATION(#29,#61);
#12=CONTEXT_DEPENDENT_SHAPE_REPRESENTATION(#30,#62);
#13=CONTEXT_DEPENDENT_SHAPE_REPRESENTATION(#31,#63);
#14=CONTEXT_DEPENDENT_SHAPE_REPRESENTATION(#32,#64);
#15=CONTEXT_DEPENDENT_SHAPE_REPRESENTATION(#33,#65);
#16=NEXT_ASSEMBLY_USAGE_OCCURRENCE('NAUO_ID9','NAUO_NAME9',$,#68,#66,$);
#17=NEXT_ASSEMBLY_USAGE_OCCURRENCE('NAUO_ID19','NAUO_NAME19',$,#68,#67,$);
#18=NEXT_ASSEMBLY_USAGE_OCCURRENCE('NAUO_ID29','NAUO_NAME29',$,#68,#66,$);
#19=NEXT_ASSEMBLY_USAGE_OCCURRENCE('NAUO_ID39','NAUO_NAME39',$,#68,#66,$);
#20=NEXT_ASSEMBLY_USAGE_OCCURRENCE('NAUO_ID49','NAUO_NAME49',$,#68,#67,$);
#21=NEXT_ASSEMBLY_USAGE_OCCURRENCE('NAUO_ID59','NAUO_NAME59',$,#68,#67,$);
#22=ITEM_DEFINED_TRANSFORMATION('ITD_NAME0',$,#376,#375);
#23=ITEM_DEFINED_TRANSFORMATION('ITD_NAME10',$,#378,#377);
#24=ITEM_DEFINED_TRANSFORMATION('ITD_NAME20',$,#380,#379);
#25=ITEM_DEFINED_TRANSFORMATION('ITD_NAME30',$,#382,#381);
#26=ITEM_DEFINED_TRANSFORMATION('ITD_NAME40',$,#384,#383);
#27=ITEM_DEFINED_TRANSFORMATION('ITD_NAME50',$,#386,#385);
#28=(
REPRESENTATION_RELATIONSHIP('SamtecTSWpin',$,#83,#85)
REPRESENTATION_RELATIONSHIP_WITH_TRANSFORMATION(#22)
SHAPE_REPRESENTATION_RELATIONSHIP()
);
#29=(
REPRESENTATION_RELATIONSHIP('SamtecTSWbody',$,#84,#85)
REPRESENTATION_RELATIONSHIP_WITH_TRANSFORMATION(#23)
SHAPE_REPRESENTATION_RELATIONSHIP()
);
#30=(
REPRESENTATION_RELATIONSHIP('SamtecTSWpin',$,#83,#85)
REPRESENTATION_RELATIONSHIP_WITH_TRANSFORMATION(#24)
SHAPE_REPRESENTATION_RELATIONSHIP()
);
#31=(
REPRESENTATION_RELATIONSHIP('SamtecTSWpin',$,#83,#85)
REPRESENTATION_RELATIONSHIP_WITH_TRANSFORMATION(#25)
SHAPE_REPRESENTATION_RELATIONSHIP()
);
#32=(
REPRESENTATION_RELATIONSHIP('SamtecTSWbody',$,#84,#85)
REPRESENTATION_RELATIONSHIP_WITH_TRANSFORMATION(#26)
SHAPE_REPRESENTATION_RELATIONSHIP()
);
#33=(
REPRESENTATION_RELATIONSHIP('SamtecTSWbody',$,#84,#85)
REPRESENTATION_RELATIONSHIP_WITH_TRANSFORMATION(#27)
SHAPE_REPRESENTATION_RELATIONSHIP()
);
#34=COLOUR_RGB('',0.968627450980392,0.909803921568627,0.192156862745098);
#35=COLOUR_RGB('',0.207843137254902,0.207843137254902,0.207843137254902);
#36=FILL_AREA_STYLE_COLOUR('NAME_0',#34);
#37=FILL_AREA_STYLE_COLOUR('NAME_0',#35);
#38=FILL_AREA_STYLE('NAME_0',(#36));
#39=FILL_AREA_STYLE('NAME_0',(#37));
#40=SURFACE_STYLE_FILL_AREA(#38);
#41=SURFACE_STYLE_FILL_AREA(#39);
#42=SURFACE_SIDE_STYLE('NAME_0',(#40));
#43=SURFACE_SIDE_STYLE('NAME_0',(#41));
#44=SURFACE_STYLE_USAGE(.POSITIVE.,#42);
#45=SURFACE_STYLE_USAGE(.POSITIVE.,#43);
#46=PRESENTATION_STYLE_ASSIGNMENT((#44));
#47=PRESENTATION_STYLE_ASSIGNMENT((#45));
#48=STYLED_ITEM('NAME_0',(#46),#569);
#49=STYLED_ITEM('NAME_0',(#47),#570);
#50=MECHANICAL_DESIGN_GEOMETRIC_PRESENTATION_REPRESENTATION('NAME_0',(#48,
#49),#100);
#51=PRODUCT_DEFINITION_CONTEXT('part definition',#76,'design');
#52=PRODUCT_DEFINITION_CONTEXT('part definition',#76,'design');
#53=PRODUCT_DEFINITION_CONTEXT('part definition',#76,'design');
#54=SHAPE_DEFINITION_REPRESENTATION(#57,#83);
#55=SHAPE_DEFINITION_REPRESENTATION(#58,#84);
#56=SHAPE_DEFINITION_REPRESENTATION(#59,#85);
#57=PRODUCT_DEFINITION_SHAPE('PRODUCT_VERSION_ID',
'PRODUCT_VERSION_DESCR',#66);
#58=PRODUCT_DEFINITION_SHAPE('PRODUCT_VERSION_ID',
'PRODUCT_VERSION_DESCR',#67);
#59=PRODUCT_DEFINITION_SHAPE('PRODUCT_VERSION_ID',
'PRODUCT_VERSION_DESCR',#68);
#60=PRODUCT_DEFINITION_SHAPE('NAME_10',$,#16);
#61=PRODUCT_DEFINITION_SHAPE('NAME_20',$,#17);
#62=PRODUCT_DEFINITION_SHAPE('NAME_30',$,#18);
#63=PRODUCT_DEFINITION_SHAPE('NAME_40',$,#19);
#64=PRODUCT_DEFINITION_SHAPE('NAME_50',$,#20);
#65=PRODUCT_DEFINITION_SHAPE('NAME_60',$,#21);
#66=PRODUCT_DEFINITION('SamtecTSWpin','PRODUCT_VERSION_DESCR',#69,#51);
#67=PRODUCT_DEFINITION('SamtecTSWbody','PRODUCT_VERSION_DESCR',#70,#52);
#68=PRODUCT_DEFINITION('PRODUCT_VERSION_ID','PRODUCT_VERSION_DESCR',#71,
#53);
#69=PRODUCT_DEFINITION_FORMATION_WITH_SPECIFIED_SOURCE(
'PRODUCT_VERSION_ID','PRODUCT_VERSION_DESCR',#80,.MADE.);
#70=PRODUCT_DEFINITION_FORMATION_WITH_SPECIFIED_SOURCE(
'PRODUCT_VERSION_ID','PRODUCT_VERSION_DESCR',#81,.MADE.);
#71=PRODUCT_DEFINITION_FORMATION_WITH_SPECIFIED_SOURCE(
'PRODUCT_VERSION_ID','PRODUCT_VERSION_DESCR',#82,.MADE.);
#72=PRODUCT_RELATED_PRODUCT_CATEGORY('part','part',(#80));
#73=PRODUCT_RELATED_PRODUCT_CATEGORY('part','part',(#81));
#74=PRODUCT_RELATED_PRODUCT_CATEGORY('part','part',(#82));
#75=APPLICATION_PROTOCOL_DEFINITION('Draft International Standard',
'automotive_design',1994,#76);
#76=APPLICATION_CONTEXT('automotive_Design');
#77=PRODUCT_CONTEXT('3D Mechanical Parts',#76,'mechanical');
#78=PRODUCT_CONTEXT('3D Mechanical Parts',#76,'mechanical');
#79=PRODUCT_CONTEXT('3D Mechanical Parts',#76,'mechanical');
#80=PRODUCT('','SamtecTSWpin','',(#77));
#81=PRODUCT('','SamtecTSWbody','',(#78));
#82=PRODUCT('','SamtecTSW-07_3x1','',(#79));
#83=SHAPE_REPRESENTATION('SamtecTSWpin',(#376,#380,#382),#100);
#84=SHAPE_REPRESENTATION('SamtecTSWbody',(#378,#384,#386),#101);
#85=SHAPE_REPRESENTATION('NAME_0',(#375,#377,#379,#381,#383,#385),#102);
#86=SHAPE_REPRESENTATION_RELATIONSHIP('NAME_0',$,#83,#571);
#87=SHAPE_REPRESENTATION_RELATIONSHIP('NAME_0',$,#84,#572);
#88=(
LENGTH_UNIT()
NAMED_UNIT(*)
SI_UNIT(.CENTI.,.METRE.)
);
#89=(
LENGTH_UNIT()
NAMED_UNIT(*)
SI_UNIT(.CENTI.,.METRE.)
);
#90=(
LENGTH_UNIT()
NAMED_UNIT(*)
SI_UNIT(.CENTI.,.METRE.)
);
#91=(
NAMED_UNIT(*)
PLANE_ANGLE_UNIT()
SI_UNIT($,.RADIAN.)
);
#92=(
NAMED_UNIT(*)
PLANE_ANGLE_UNIT()
SI_UNIT($,.RADIAN.)
);
#93=(
NAMED_UNIT(*)
PLANE_ANGLE_UNIT()
SI_UNIT($,.RADIAN.)
);
#94=(
NAMED_UNIT(*)
SI_UNIT($,.STERADIAN.)
SOLID_ANGLE_UNIT()
);
#95=(
NAMED_UNIT(*)
SI_UNIT($,.STERADIAN.)
SOLID_ANGLE_UNIT()
);
#96=(
NAMED_UNIT(*)
SI_UNIT($,.STERADIAN.)
SOLID_ANGLE_UNIT()
);
#97=UNCERTAINTY_MEASURE_WITH_UNIT(LENGTH_MEASURE(1.E-006),#88,
'DISTANCE_ACCURACY_VALUE',
'Maximum model space distance between geometric entities at asserted co
nnectivities');
#98=UNCERTAINTY_MEASURE_WITH_UNIT(LENGTH_MEASURE(1.E-006),#89,
'DISTANCE_ACCURACY_VALUE',
'Maximum model space distance between geometric entities at asserted co
nnectivities');
#99=UNCERTAINTY_MEASURE_WITH_UNIT(LENGTH_MEASURE(1.E-006),#90,
'DISTANCE_ACCURACY_VALUE',
'Maximum model space distance between geometric entities at asserted co
nnectivities');
#100=(
GEOMETRIC_REPRESENTATION_CONTEXT(3)
GLOBAL_UNCERTAINTY_ASSIGNED_CONTEXT((#97))
GLOBAL_UNIT_ASSIGNED_CONTEXT((#94,#91,#88))
REPRESENTATION_CONTEXT('ID1','3D')
);
#101=(
GEOMETRIC_REPRESENTATION_CONTEXT(3)
GLOBAL_UNCERTAINTY_ASSIGNED_CONTEXT((#98))
GLOBAL_UNIT_ASSIGNED_CONTEXT((#95,#92,#89))
REPRESENTATION_CONTEXT('ID1','3D')
);
#102=(
GEOMETRIC_REPRESENTATION_CONTEXT(3)
GLOBAL_UNCERTAINTY_ASSIGNED_CONTEXT((#99))
GLOBAL_UNIT_ASSIGNED_CONTEXT((#96,#93,#90))
REPRESENTATION_CONTEXT('ID1','3D')
);
#103=VERTEX_POINT('',#465);
#104=VERTEX_POINT('',#466);
#105=VERTEX_POINT('',#468);
#106=VERTEX_POINT('',#470);
#107=VERTEX_POINT('',#474);
#108=VERTEX_POINT('',#475);
#109=VERTEX_POINT('',#480);
#110=VERTEX_POINT('',#484);
#111=VERTEX_POINT('',#491);
#112=VERTEX_POINT('',#492);
#113=VERTEX_POINT('',#494);
#114=VERTEX_POINT('',#496);
#115=VERTEX_POINT('',#500);
#116=VERTEX_POINT('',#502);
#117=VERTEX_POINT('',#506);
#118=VERTEX_POINT('',#508);
#119=VERTEX_POINT('',#515);
#120=VERTEX_POINT('',#516);
#121=VERTEX_POINT('',#518);
#122=VERTEX_POINT('',#520);
#123=VERTEX_POINT('',#524);
#124=VERTEX_POINT('',#526);
#125=VERTEX_POINT('',#530);
#126=VERTEX_POINT('',#532);
#127=VECTOR('',#388,1.);
#128=VECTOR('',#389,1.);
#129=VECTOR('',#390,1.);
#130=VECTOR('',#391,1.);
#131=VECTOR('',#393,1.);
#132=VECTOR('',#394,1.);
#133=VECTOR('',#395,1.);
#134=VECTOR('',#397,1.);
#135=VECTOR('',#398,1.);
#136=VECTOR('',#400,1.);
#137=VECTOR('',#401,1.);
#138=VECTOR('',#403,1.);
#139=VECTOR('',#406,1.);
#140=VECTOR('',#407,1.);
#141=VECTOR('',#408,1.);
#142=VECTOR('',#409,1.);
#143=VECTOR('',#411,1.);
#144=VECTOR('',#412,1.);
#145=VECTOR('',#413,1.);
#146=VECTOR('',#415,1.);
#147=VECTOR('',#416,1.);
#148=VECTOR('',#417,1.);
#149=VECTOR('',#419,1.);
#150=VECTOR('',#420,1.);
#151=VECTOR('',#422,1.);
#152=VECTOR('',#423,1.);
#153=VECTOR('',#424,1.);
#154=VECTOR('',#425,1.);
#155=VECTOR('',#427,1.);
#156=VECTOR('',#428,1.);
#157=VECTOR('',#429,1.);
#158=VECTOR('',#431,1.);
#159=VECTOR('',#432,1.);
#160=VECTOR('',#433,1.);
#161=VECTOR('',#435,1.);
#162=VECTOR('',#436,1.);
#163=LINE('',#464,#127);
#164=LINE('',#467,#128);
#165=LINE('',#469,#129);
#166=LINE('',#471,#130);
#167=LINE('',#473,#131);
#168=LINE('',#476,#132);
#169=LINE('',#477,#133);
#170=LINE('',#479,#134);
#171=LINE('',#481,#135);
#172=LINE('',#483,#136);
#173=LINE('',#485,#137);
#174=LINE('',#487,#138);
#175=LINE('',#490,#139);
#176=LINE('',#493,#140);
#177=LINE('',#495,#141);
#178=LINE('',#497,#142);
#179=LINE('',#499,#143);
#180=LINE('',#501,#144);
#181=LINE('',#503,#145);
#182=LINE('',#505,#146);
#183=LINE('',#507,#147);
#184=LINE('',#509,#148);
#185=LINE('',#511,#149);
#186=LINE('',#512,#150);
#187=LINE('',#514,#151);
#188=LINE('',#517,#152);
#189=LINE('',#519,#153);
#190=LINE('',#521,#154);
#191=LINE('',#523,#155);
#192=LINE('',#525,#156);
#193=LINE('',#527,#157);
#194=LINE('',#529,#158);
#195=LINE('',#531,#159);
#196=LINE('',#533,#160);
#197=LINE('',#535,#161);
#198=LINE('',#536,#162);
#199=EDGE_CURVE('',#103,#104,#163,.T.);
#200=EDGE_CURVE('',#105,#103,#164,.T.);
#201=EDGE_CURVE('',#106,#105,#165,.T.);
#202=EDGE_CURVE('',#104,#106,#166,.T.);
#203=EDGE_CURVE('',#107,#108,#167,.T.);
#204=EDGE_CURVE('',#106,#108,#168,.T.);
#205=EDGE_CURVE('',#107,#105,#169,.T.);
#206=EDGE_CURVE('',#108,#109,#170,.T.);
#207=EDGE_CURVE('',#104,#109,#171,.T.);
#208=EDGE_CURVE('',#109,#110,#172,.T.);
#209=EDGE_CURVE('',#103,#110,#173,.T.);
#210=EDGE_CURVE('',#110,#107,#174,.T.);
#211=EDGE_CURVE('',#111,#112,#175,.T.);
#212=EDGE_CURVE('',#113,#111,#176,.T.);
#213=EDGE_CURVE('',#114,#113,#177,.T.);
#214=EDGE_CURVE('',#114,#112,#178,.T.);
#215=EDGE_CURVE('',#112,#115,#179,.T.);
#216=EDGE_CURVE('',#116,#114,#180,.T.);
#217=EDGE_CURVE('',#116,#115,#181,.T.);
#218=EDGE_CURVE('',#115,#117,#182,.T.);
#219=EDGE_CURVE('',#118,#116,#183,.T.);
#220=EDGE_CURVE('',#118,#117,#184,.T.);
#221=EDGE_CURVE('',#117,#111,#185,.T.);
#222=EDGE_CURVE('',#113,#118,#186,.T.);
#223=EDGE_CURVE('',#119,#120,#187,.T.);
#224=EDGE_CURVE('',#121,#120,#188,.T.);
#225=EDGE_CURVE('',#121,#122,#189,.T.);
#226=EDGE_CURVE('',#122,#119,#190,.T.);
#227=EDGE_CURVE('',#120,#123,#191,.T.);
#228=EDGE_CURVE('',#124,#123,#192,.T.);
#229=EDGE_CURVE('',#124,#121,#193,.T.);
#230=EDGE_CURVE('',#123,#125,#194,.T.);
#231=EDGE_CURVE('',#126,#125,#195,.T.);
#232=EDGE_CURVE('',#126,#124,#196,.T.);
#233=EDGE_CURVE('',#125,#119,#197,.T.);
#234=EDGE_CURVE('',#122,#126,#198,.T.);
#235=ORIENTED_EDGE('',*,*,#199,.F.);
#236=ORIENTED_EDGE('',*,*,#200,.F.);
#237=ORIENTED_EDGE('',*,*,#201,.F.);
#238=ORIENTED_EDGE('',*,*,#202,.F.);
#239=ORIENTED_EDGE('',*,*,#203,.T.);
#240=ORIENTED_EDGE('',*,*,#204,.F.);
#241=ORIENTED_EDGE('',*,*,#201,.T.);
#242=ORIENTED_EDGE('',*,*,#205,.F.);
#243=ORIENTED_EDGE('',*,*,#206,.T.);
#244=ORIENTED_EDGE('',*,*,#207,.F.);
#245=ORIENTED_EDGE('',*,*,#202,.T.);
#246=ORIENTED_EDGE('',*,*,#204,.T.);
#247=ORIENTED_EDGE('',*,*,#208,.T.);
#248=ORIENTED_EDGE('',*,*,#209,.F.);
#249=ORIENTED_EDGE('',*,*,#199,.T.);
#250=ORIENTED_EDGE('',*,*,#207,.T.);
#251=ORIENTED_EDGE('',*,*,#210,.T.);
#252=ORIENTED_EDGE('',*,*,#205,.T.);
#253=ORIENTED_EDGE('',*,*,#200,.T.);
#254=ORIENTED_EDGE('',*,*,#209,.T.);
#255=ORIENTED_EDGE('',*,*,#203,.F.);
#256=ORIENTED_EDGE('',*,*,#210,.F.);
#257=ORIENTED_EDGE('',*,*,#208,.F.);
#258=ORIENTED_EDGE('',*,*,#206,.F.);
#259=ORIENTED_EDGE('',*,*,#211,.F.);
#260=ORIENTED_EDGE('',*,*,#212,.F.);
#261=ORIENTED_EDGE('',*,*,#213,.F.);
#262=ORIENTED_EDGE('',*,*,#214,.T.);
#263=ORIENTED_EDGE('',*,*,#215,.F.);
#264=ORIENTED_EDGE('',*,*,#214,.F.);
#265=ORIENTED_EDGE('',*,*,#216,.F.);
#266=ORIENTED_EDGE('',*,*,#217,.T.);
#267=ORIENTED_EDGE('',*,*,#218,.F.);
#268=ORIENTED_EDGE('',*,*,#217,.F.);
#269=ORIENTED_EDGE('',*,*,#219,.F.);
#270=ORIENTED_EDGE('',*,*,#220,.T.);
#271=ORIENTED_EDGE('',*,*,#221,.F.);
#272=ORIENTED_EDGE('',*,*,#220,.F.);
#273=ORIENTED_EDGE('',*,*,#222,.F.);
#274=ORIENTED_EDGE('',*,*,#212,.T.);
#275=ORIENTED_EDGE('',*,*,#223,.T.);
#276=ORIENTED_EDGE('',*,*,#224,.F.);
#277=ORIENTED_EDGE('',*,*,#225,.T.);
#278=ORIENTED_EDGE('',*,*,#226,.T.);
#279=ORIENTED_EDGE('',*,*,#227,.T.);
#280=ORIENTED_EDGE('',*,*,#228,.F.);
#281=ORIENTED_EDGE('',*,*,#229,.T.);
#282=ORIENTED_EDGE('',*,*,#224,.T.);
#283=ORIENTED_EDGE('',*,*,#230,.T.);
#284=ORIENTED_EDGE('',*,*,#231,.F.);
#285=ORIENTED_EDGE('',*,*,#232,.T.);
#286=ORIENTED_EDGE('',*,*,#228,.T.);
#287=ORIENTED_EDGE('',*,*,#233,.T.);
#288=ORIENTED_EDGE('',*,*,#226,.F.);
#289=ORIENTED_EDGE('',*,*,#234,.T.);
#290=ORIENTED_EDGE('',*,*,#231,.T.);
#291=ORIENTED_EDGE('',*,*,#211,.T.);
#292=ORIENTED_EDGE('',*,*,#215,.T.);
#293=ORIENTED_EDGE('',*,*,#218,.T.);
#294=ORIENTED_EDGE('',*,*,#221,.T.);
#295=ORIENTED_EDGE('',*,*,#223,.F.);
#296=ORIENTED_EDGE('',*,*,#233,.F.);
#297=ORIENTED_EDGE('',*,*,#230,.F.);
#298=ORIENTED_EDGE('',*,*,#227,.F.);
#299=ORIENTED_EDGE('',*,*,#213,.T.);
#300=ORIENTED_EDGE('',*,*,#222,.T.);
#301=ORIENTED_EDGE('',*,*,#219,.T.);
#302=ORIENTED_EDGE('',*,*,#216,.T.);
#303=ORIENTED_EDGE('',*,*,#234,.F.);
#304=ORIENTED_EDGE('',*,*,#225,.F.);
#305=ORIENTED_EDGE('',*,*,#229,.F.);
#306=ORIENTED_EDGE('',*,*,#232,.F.);
#307=EDGE_LOOP('',(#235,#236,#237,#238));
#308=EDGE_LOOP('',(#239,#240,#241,#242));
#309=EDGE_LOOP('',(#243,#244,#245,#246));
#310=EDGE_LOOP('',(#247,#248,#249,#250));
#311=EDGE_LOOP('',(#251,#252,#253,#254));
#312=EDGE_LOOP('',(#255,#256,#257,#258));
#313=EDGE_LOOP('',(#259,#260,#261,#262));
#314=EDGE_LOOP('',(#263,#264,#265,#266));
#315=EDGE_LOOP('',(#267,#268,#269,#270));
#316=EDGE_LOOP('',(#271,#272,#273,#274));
#317=EDGE_LOOP('',(#275,#276,#277,#278));
#318=EDGE_LOOP('',(#279,#280,#281,#282));
#319=EDGE_LOOP('',(#283,#284,#285,#286));
#320=EDGE_LOOP('',(#287,#288,#289,#290));
#321=EDGE_LOOP('',(#291,#292,#293,#294));
#322=EDGE_LOOP('',(#295,#296,#297,#298));
#323=EDGE_LOOP('',(#299,#300,#301,#302));
#324=EDGE_LOOP('',(#303,#304,#305,#306));
#325=FACE_BOUND('',#307,.T.);
#326=FACE_BOUND('',#308,.T.);
#327=FACE_BOUND('',#309,.T.);
#328=FACE_BOUND('',#310,.T.);
#329=FACE_BOUND('',#311,.T.);
#330=FACE_BOUND('',#312,.T.);
#331=FACE_BOUND('',#313,.T.);
#332=FACE_BOUND('',#314,.T.);
#333=FACE_BOUND('',#315,.T.);
#334=FACE_BOUND('',#316,.T.);
#335=FACE_BOUND('',#317,.T.);
#336=FACE_BOUND('',#318,.T.);
#337=FACE_BOUND('',#319,.T.);
#338=FACE_BOUND('',#320,.T.);
#339=FACE_BOUND('',#321,.T.);
#340=FACE_BOUND('',#322,.T.);
#341=FACE_BOUND('',#323,.T.);
#342=FACE_BOUND('',#324,.T.);
#343=ADVANCED_FACE('',(#325),#551,.F.);
#344=ADVANCED_FACE('',(#326),#552,.T.);
#345=ADVANCED_FACE('',(#327),#553,.T.);
#346=ADVANCED_FACE('',(#328),#554,.T.);
#347=ADVANCED_FACE('',(#329),#555,.T.);
#348=ADVANCED_FACE('',(#330),#556,.T.);
#349=ADVANCED_FACE('',(#331),#557,.F.);
#350=ADVANCED_FACE('',(#332),#558,.F.);
#351=ADVANCED_FACE('',(#333),#559,.F.);
#352=ADVANCED_FACE('',(#334),#560,.F.);
#353=ADVANCED_FACE('',(#335),#561,.T.);
#354=ADVANCED_FACE('',(#336),#562,.T.);
#355=ADVANCED_FACE('',(#337),#563,.T.);
#356=ADVANCED_FACE('',(#338),#564,.T.);
#357=ADVANCED_FACE('',(#339,#340),#565,.T.);
#358=ADVANCED_FACE('',(#341,#342),#566,.F.);
#359=AXIS2_PLACEMENT_3D('',#463,#387,$);
#360=AXIS2_PLACEMENT_3D('',#472,#392,$);
#361=AXIS2_PLACEMENT_3D('',#478,#396,$);
#362=AXIS2_PLACEMENT_3D('',#482,#399,$);
#363=AXIS2_PLACEMENT_3D('',#486,#402,$);
#364=AXIS2_PLACEMENT_3D('',#488,#404,$);
#365=AXIS2_PLACEMENT_3D('',#489,#405,$);
#366=AXIS2_PLACEMENT_3D('',#498,#410,$);
#367=AXIS2_PLACEMENT_3D('',#504,#414,$);
#368=AXIS2_PLACEMENT_3D('',#510,#418,$);
#369=AXIS2_PLACEMENT_3D('',#513,#421,$);
#370=AXIS2_PLACEMENT_3D('',#522,#426,$);
#371=AXIS2_PLACEMENT_3D('',#528,#430,$);
#372=AXIS2_PLACEMENT_3D('',#534,#434,$);
#373=AXIS2_PLACEMENT_3D('',#537,#437,$);
#374=AXIS2_PLACEMENT_3D('',#538,#438,$);
#375=AXIS2_PLACEMENT_3D('AXIS_PLACEMENT_1',#539,#439,#440);
#376=AXIS2_PLACEMENT_3D('AXIS_PLACEMENT_5',#540,#441,#442);
#377=AXIS2_PLACEMENT_3D('AXIS_PLACEMENT_11',#541,#443,#444);
#378=AXIS2_PLACEMENT_3D('AXIS_PLACEMENT_15',#542,#445,#446);
#379=AXIS2_PLACEMENT_3D('AXIS_PLACEMENT_21',#543,#447,#448);
#380=AXIS2_PLACEMENT_3D('AXIS_PLACEMENT_25',#544,#449,#450);
#381=AXIS2_PLACEMENT_3D('AXIS_PLACEMENT_31',#545,#451,#452);
#382=AXIS2_PLACEMENT_3D('AXIS_PLACEMENT_35',#546,#453,#454);
#383=AXIS2_PLACEMENT_3D('AXIS_PLACEMENT_41',#547,#455,#456);
#384=AXIS2_PLACEMENT_3D('AXIS_PLACEMENT_45',#548,#457,#458);
#385=AXIS2_PLACEMENT_3D('AXIS_PLACEMENT_51',#549,#459,#460);
#386=AXIS2_PLACEMENT_3D('AXIS_PLACEMENT_55',#550,#461,#462);
#387=DIRECTION('',(0.,0.,1.));
#388=DIRECTION('',(1.,0.,0.));
#389=DIRECTION('',(0.,-1.,0.));
#390=DIRECTION('',(-1.,0.,0.));
#391=DIRECTION('',(1.09273919746571E-016,1.,0.));
#392=DIRECTION('',(0.,1.,0.));
#393=DIRECTION('',(1.,0.,0.));
#394=DIRECTION('',(0.,0.,1.));
#395=DIRECTION('',(0.,0.,-1.));
#396=DIRECTION('',(1.,-1.09273919746571E-016,0.));
#397=DIRECTION('',(-1.09273919746571E-016,-1.,0.));
#398=DIRECTION('',(0.,0.,1.));
#399=DIRECTION('',(0.,-1.,0.));
#400=DIRECTION('',(-1.,0.,0.));
#401=DIRECTION('',(0.,0.,1.));
#402=DIRECTION('',(-1.,0.,0.));
#403=DIRECTION('',(0.,1.,0.));
#404=DIRECTION('',(0.,0.,1.));
#405=DIRECTION('',(0.,1.,0.));
#406=DIRECTION('',(1.,0.,0.));
#407=DIRECTION('',(0.,0.,1.));
#408=DIRECTION('',(-1.,0.,0.));
#409=DIRECTION('',(0.,0.,1.));
#410=DIRECTION('',(1.,-1.09273919746571E-016,0.));
#411=DIRECTION('',(-1.09273919746571E-016,-1.,0.));
#412=DIRECTION('',(1.09273919746571E-016,1.,0.));
#413=DIRECTION('',(0.,0.,1.));
#414=DIRECTION('',(0.,-1.,0.));
#415=DIRECTION('',(-1.,0.,0.));
#416=DIRECTION('',(1.,0.,0.));
#417=DIRECTION('',(0.,0.,1.));
#418=DIRECTION('',(-1.,0.,0.));
#419=DIRECTION('',(0.,1.,0.));
#420=DIRECTION('',(0.,-1.,0.));
#421=DIRECTION('',(0.,1.,0.));
#422=DIRECTION('',(1.,0.,0.));
#423=DIRECTION('',(0.,0.,1.));
#424=DIRECTION('',(-1.,0.,0.));
#425=DIRECTION('',(0.,0.,1.));
#426=DIRECTION('',(1.,0.,0.));
#427=DIRECTION('',(0.,-1.,0.));
#428=DIRECTION('',(0.,0.,1.));
#429=DIRECTION('',(0.,1.,0.));
#430=DIRECTION('',(0.,-1.,0.));
#431=DIRECTION('',(-1.,0.,0.));
#432=DIRECTION('',(0.,0.,1.));
#433=DIRECTION('',(1.,0.,0.));
#434=DIRECTION('',(-1.,0.,0.));
#435=DIRECTION('',(0.,1.,0.));
#436=DIRECTION('',(0.,-1.,0.));
#437=DIRECTION('',(0.,0.,1.));
#438=DIRECTION('',(0.,0.,1.));
#439=DIRECTION('DIRECTION2',(0.,0.,1.));
#440=DIRECTION('DIRECTION3',(1.,0.,0.));
#441=DIRECTION('DIRECTION6',(0.,0.,1.));
#442=DIRECTION('DIRECTION7',(1.,0.,0.));
#443=DIRECTION('DIRECTION12',(0.,0.,1.));
#444=DIRECTION('DIRECTION13',(1.,0.,0.));
#445=DIRECTION('DIRECTION16',(0.,0.,1.));
#446=DIRECTION('DIRECTION17',(1.,0.,0.));
#447=DIRECTION('DIRECTION22',(0.,0.,1.));
#448=DIRECTION('DIRECTION23',(1.,0.,0.));
#449=DIRECTION('DIRECTION26',(0.,0.,1.));
#450=DIRECTION('DIRECTION27',(1.,0.,0.));
#451=DIRECTION('DIRECTION32',(0.,0.,1.));
#452=DIRECTION('DIRECTION33',(1.,0.,0.));
#453=DIRECTION('DIRECTION36',(0.,0.,1.));
#454=DIRECTION('DIRECTION37',(1.,0.,0.));
#455=DIRECTION('DIRECTION42',(0.,0.,1.));
#456=DIRECTION('DIRECTION43',(1.,0.,0.));
#457=DIRECTION('DIRECTION46',(0.,0.,1.));
#458=DIRECTION('DIRECTION47',(1.,0.,0.));
#459=DIRECTION('DIRECTION52',(0.,0.,1.));
#460=DIRECTION('DIRECTION53',(1.,0.,0.));
#461=DIRECTION('DIRECTION56',(0.,0.,1.));
#462=DIRECTION('DIRECTION57',(1.,0.,0.));
#463=CARTESIAN_POINT('',(4.73106402539129E-019,0.,-0.254));
#464=CARTESIAN_POINT('',(-0.03175,-0.03175,-0.254));
#465=CARTESIAN_POINT('',(-0.03175,-0.03175,-0.254));
#466=CARTESIAN_POINT('',(0.03175,-0.03175,-0.254));
#467=CARTESIAN_POINT('',(-0.03175,0.03175,-0.254));
#468=CARTESIAN_POINT('',(-0.03175,0.03175,-0.254));
#469=CARTESIAN_POINT('',(0.03175,0.03175,-0.254));
#470=CARTESIAN_POINT('',(0.03175,0.03175,-0.254));
#471=CARTESIAN_POINT('',(0.03175,-0.03175,-0.254));
#472=CARTESIAN_POINT('',(0.,0.03175,0.));
#473=CARTESIAN_POINT('',(0.03175,0.03175,0.8382));
#474=CARTESIAN_POINT('',(-0.03175,0.03175,0.8382));
#475=CARTESIAN_POINT('',(0.03175,0.03175,0.8382));
#476=CARTESIAN_POINT('',(0.03175,0.03175,0.));
#477=CARTESIAN_POINT('',(-0.03175,0.03175,0.));
#478=CARTESIAN_POINT('',(0.03175,0.,0.));
#479=CARTESIAN_POINT('',(0.03175,-0.03175,0.8382));
#480=CARTESIAN_POINT('',(0.03175,-0.03175,0.8382));
#481=CARTESIAN_POINT('',(0.03175,-0.03175,0.));
#482=CARTESIAN_POINT('',(0.,-0.03175,0.));
#483=CARTESIAN_POINT('',(-0.03175,-0.03175,0.8382));
#484=CARTESIAN_POINT('',(-0.03175,-0.03175,0.8382));
#485=CARTESIAN_POINT('',(-0.03175,-0.03175,0.));
#486=CARTESIAN_POINT('',(-0.03175,0.,0.));
#487=CARTESIAN_POINT('',(-0.03175,0.03175,0.8382));
#488=CARTESIAN_POINT('',(4.73106402539129E-019,0.,0.8382));
#489=CARTESIAN_POINT('',(0.,0.03175,0.));
#490=CARTESIAN_POINT('',(0.,0.03175,0.254));
#491=CARTESIAN_POINT('',(-0.03175,0.03175,0.254));
#492=CARTESIAN_POINT('',(0.03175,0.03175,0.254));
#493=CARTESIAN_POINT('',(-0.03175,0.03175,0.));
#494=CARTESIAN_POINT('',(-0.03175,0.03175,0.));
#495=CARTESIAN_POINT('',(0.,0.03175,0.));
#496=CARTESIAN_POINT('',(0.03175,0.03175,0.));
#497=CARTESIAN_POINT('',(0.03175,0.03175,0.));
#498=CARTESIAN_POINT('',(0.03175,0.,0.));
#499=CARTESIAN_POINT('',(0.03175,0.,0.254));
#500=CARTESIAN_POINT('',(0.03175,-0.03175,0.254));
#501=CARTESIAN_POINT('',(0.03175,0.,0.));
#502=CARTESIAN_POINT('',(0.03175,-0.03175,0.));
#503=CARTESIAN_POINT('',(0.03175,-0.03175,0.));
#504=CARTESIAN_POINT('',(0.,-0.03175,0.));
#505=CARTESIAN_POINT('',(0.,-0.03175,0.254));
#506=CARTESIAN_POINT('',(-0.03175,-0.03175,0.254));
#507=CARTESIAN_POINT('',(0.,-0.03175,0.));
#508=CARTESIAN_POINT('',(-0.03175,-0.03175,0.));
#509=CARTESIAN_POINT('',(-0.03175,-0.03175,0.));
#510=CARTESIAN_POINT('',(-0.03175,0.,0.));
#511=CARTESIAN_POINT('',(-0.03175,0.,0.254));
#512=CARTESIAN_POINT('',(-0.03175,0.,0.));
#513=CARTESIAN_POINT('',(0.,0.127,0.));
#514=CARTESIAN_POINT('',(0.127,0.127,0.254));
#515=CARTESIAN_POINT('',(-0.127,0.127,0.254));
#516=CARTESIAN_POINT('',(0.127,0.127,0.254));
#517=CARTESIAN_POINT('',(0.127,0.127,0.));
#518=CARTESIAN_POINT('',(0.127,0.127,0.));
#519=CARTESIAN_POINT('',(0.127,0.127,0.));
#520=CARTESIAN_POINT('',(-0.127,0.127,0.));
#521=CARTESIAN_POINT('',(-0.127,0.127,0.));
#522=CARTESIAN_POINT('',(0.127,0.,0.));
#523=CARTESIAN_POINT('',(0.127,-0.127,0.254));
#524=CARTESIAN_POINT('',(0.127,-0.127,0.254));
#525=CARTESIAN_POINT('',(0.127,-0.127,0.));
#526=CARTESIAN_POINT('',(0.127,-0.127,0.));
#527=CARTESIAN_POINT('',(0.127,-0.127,0.));
#528=CARTESIAN_POINT('',(0.,-0.127,0.));
#529=CARTESIAN_POINT('',(-0.127,-0.127,0.254));
#530=CARTESIAN_POINT('',(-0.127,-0.127,0.254));
#531=CARTESIAN_POINT('',(-0.127,-0.127,0.));
#532=CARTESIAN_POINT('',(-0.127,-0.127,0.));
#533=CARTESIAN_POINT('',(-0.127,-0.127,0.));
#534=CARTESIAN_POINT('',(-0.127,0.,0.));
#535=CARTESIAN_POINT('',(-0.127,0.127,0.254));
#536=CARTESIAN_POINT('',(-0.127,0.127,0.));
#537=CARTESIAN_POINT('',(1.89242561015652E-018,0.,0.254));
#538=CARTESIAN_POINT('',(1.89242561015652E-018,0.,0.));
#539=CARTESIAN_POINT('CARTESIAN_POINT4',(0.,0.,0.));
#540=CARTESIAN_POINT('CARTESIAN_POINT8',(0.,0.,0.));
#541=CARTESIAN_POINT('CARTESIAN_POINT14',(0.,0.,0.));
#542=CARTESIAN_POINT('CARTESIAN_POINT18',(0.,0.,0.));
#543=CARTESIAN_POINT('CARTESIAN_POINT24',(0.254,0.,0.));
#544=CARTESIAN_POINT('CARTESIAN_POINT28',(0.,0.,0.));
#545=CARTESIAN_POINT('CARTESIAN_POINT34',(0.508,0.,0.));
#546=CARTESIAN_POINT('CARTESIAN_POINT38',(0.,0.,0.));
#547=CARTESIAN_POINT('CARTESIAN_POINT44',(0.254,0.,0.));
#548=CARTESIAN_POINT('CARTESIAN_POINT48',(0.,0.,0.));
#549=CARTESIAN_POINT('CARTESIAN_POINT54',(0.508,0.,0.));
#550=CARTESIAN_POINT('CARTESIAN_POINT58',(0.,0.,0.));
#551=PLANE('',#359);
#552=PLANE('',#360);
#553=PLANE('',#361);
#554=PLANE('',#362);
#555=PLANE('',#363);
#556=PLANE('',#364);
#557=PLANE('',#365);
#558=PLANE('',#366);
#559=PLANE('',#367);
#560=PLANE('',#368);
#561=PLANE('',#369);
#562=PLANE('',#370);
#563=PLANE('',#371);
#564=PLANE('',#372);
#565=PLANE('',#373);
#566=PLANE('',#374);
#567=CLOSED_SHELL('',(#343,#344,#345,#346,#347,#348));
#568=CLOSED_SHELL('',(#349,#350,#351,#352,#353,#354,#355,#356,#357,#358));
#569=MANIFOLD_SOLID_BREP('',#567);
#570=MANIFOLD_SOLID_BREP('',#568);
#571=ADVANCED_BREP_SHAPE_REPRESENTATION('SamtecTSWpin',(#569),#100);
#572=ADVANCED_BREP_SHAPE_REPRESENTATION('SamtecTSWbody',(#570),#101);
ENDSEC;
END-ISO-10303-21;
