ISO-10303-21;
HEADER;
/* Generated by software containing ST-Developer
 * from STEP Tools, Inc. (www.steptools.com) 
 */

FILE_DESCRIPTION(
/* description */ ('Alibre Inc.'),
/* implementation_level */ '2;1');

FILE_NAME(
/* name */ 'export0',
/* time_stamp */ '2010-09-27T16:03:40-07:00',
/* author */ (''),
/* organization */ (''),
/* preprocessor_version */ 'ST-DEVELOPER v10',
/* originating_system */ 'Alibre',
/* authorisation */ '');

FILE_SCHEMA (('AUTOMOTIVE_DESIGN'));
ENDSEC;

DATA;
#10=CONTEXT_DEPENDENT_SHAPE_REPRESENTATION(#46,#84);
#11=CONTEXT_DEPENDENT_SHAPE_REPRESENTATION(#47,#85);
#12=CONTEXT_DEPENDENT_SHAPE_REPRESENTATION(#48,#86);
#13=CONTEXT_DEPENDENT_SHAPE_REPRESENTATION(#49,#87);
#14=CONTEXT_DEPENDENT_SHAPE_REPRESENTATION(#50,#88);
#15=CONTEXT_DEPENDENT_SHAPE_REPRESENTATION(#51,#89);
#16=CONTEXT_DEPENDENT_SHAPE_REPRESENTATION(#52,#90);
#17=CONTEXT_DEPENDENT_SHAPE_REPRESENTATION(#53,#91);
#18=CONTEXT_DEPENDENT_SHAPE_REPRESENTATION(#54,#92);
#19=CONTEXT_DEPENDENT_SHAPE_REPRESENTATION(#55,#93);
#20=CONTEXT_DEPENDENT_SHAPE_REPRESENTATION(#56,#94);
#21=CONTEXT_DEPENDENT_SHAPE_REPRESENTATION(#57,#95);
#22=NEXT_ASSEMBLY_USAGE_OCCURRENCE('NAUO_ID9','NAUO_NAME9',$,#98,#96,$);
#23=NEXT_ASSEMBLY_USAGE_OCCURRENCE('NAUO_ID19','NAUO_NAME19',$,#98,#97,$);
#24=NEXT_ASSEMBLY_USAGE_OCCURRENCE('NAUO_ID29','NAUO_NAME29',$,#98,#97,$);
#25=NEXT_ASSEMBLY_USAGE_OCCURRENCE('NAUO_ID39','NAUO_NAME39',$,#98,#96,$);
#26=NEXT_ASSEMBLY_USAGE_OCCURRENCE('NAUO_ID49','NAUO_NAME49',$,#98,#97,$);
#27=NEXT_ASSEMBLY_USAGE_OCCURRENCE('NAUO_ID59','NAUO_NAME59',$,#98,#97,$);
#28=NEXT_ASSEMBLY_USAGE_OCCURRENCE('NAUO_ID69','NAUO_NAME69',$,#98,#97,$);
#29=NEXT_ASSEMBLY_USAGE_OCCURRENCE('NAUO_ID79','NAUO_NAME79',$,#98,#97,$);
#30=NEXT_ASSEMBLY_USAGE_OCCURRENCE('NAUO_ID89','NAUO_NAME89',$,#98,#96,$);
#31=NEXT_ASSEMBLY_USAGE_OCCURRENCE('NAUO_ID99','NAUO_NAME99',$,#98,#96,$);
#32=NEXT_ASSEMBLY_USAGE_OCCURRENCE('NAUO_ID109','NAUO_NAME109',$,#98,#96,
$);
#33=NEXT_ASSEMBLY_USAGE_OCCURRENCE('NAUO_ID119','NAUO_NAME119',$,#98,#96,
$);
#34=ITEM_DEFINED_TRANSFORMATION('ITD_NAME0',$,#406,#405);
#35=ITEM_DEFINED_TRANSFORMATION('ITD_NAME10',$,#408,#407);
#36=ITEM_DEFINED_TRANSFORMATION('ITD_NAME20',$,#410,#409);
#37=ITEM_DEFINED_TRANSFORMATION('ITD_NAME30',$,#412,#411);
#38=ITEM_DEFINED_TRANSFORMATION('ITD_NAME40',$,#414,#413);
#39=ITEM_DEFINED_TRANSFORMATION('ITD_NAME50',$,#416,#415);
#40=ITEM_DEFINED_TRANSFORMATION('ITD_NAME60',$,#418,#417);
#41=ITEM_DEFINED_TRANSFORMATION('ITD_NAME70',$,#420,#419);
#42=ITEM_DEFINED_TRANSFORMATION('ITD_NAME80',$,#422,#421);
#43=ITEM_DEFINED_TRANSFORMATION('ITD_NAME90',$,#424,#423);
#44=ITEM_DEFINED_TRANSFORMATION('ITD_NAME100',$,#426,#425);
#45=ITEM_DEFINED_TRANSFORMATION('ITD_NAME110',$,#428,#427);
#46=(
REPRESENTATION_RELATIONSHIP('SamtecTSWpin',$,#113,#115)
REPRESENTATION_RELATIONSHIP_WITH_TRANSFORMATION(#34)
SHAPE_REPRESENTATION_RELATIONSHIP()
);
#47=(
REPRESENTATION_RELATIONSHIP('SamtecTSWbody',$,#114,#115)
REPRESENTATION_RELATIONSHIP_WITH_TRANSFORMATION(#35)
SHAPE_REPRESENTATION_RELATIONSHIP()
);
#48=(
REPRESENTATION_RELATIONSHIP('SamtecTSWbody',$,#114,#115)
REPRESENTATION_RELATIONSHIP_WITH_TRANSFORMATION(#36)
SHAPE_REPRESENTATION_RELATIONSHIP()
);
#49=(
REPRESENTATION_RELATIONSHIP('SamtecTSWpin',$,#113,#115)
REPRESENTATION_RELATIONSHIP_WITH_TRANSFORMATION(#37)
SHAPE_REPRESENTATION_RELATIONSHIP()
);
#50=(
REPRESENTATION_RELATIONSHIP('SamtecTSWbody',$,#114,#115)
REPRESENTATION_RELATIONSHIP_WITH_TRANSFORMATION(#38)
SHAPE_REPRESENTATION_RELATIONSHIP()
);
#51=(
REPRESENTATION_RELATIONSHIP('SamtecTSWbody',$,#114,#115)
REPRESENTATION_RELATIONSHIP_WITH_TRANSFORMATION(#39)
SHAPE_REPRESENTATION_RELATIONSHIP()
);
#52=(
REPRESENTATION_RELATIONSHIP('SamtecTSWbody',$,#114,#115)
REPRESENTATION_RELATIONSHIP_WITH_TRANSFORMATION(#40)
SHAPE_REPRESENTATION_RELATIONSHIP()
);
#53=(
REPRESENTATION_RELATIONSHIP('SamtecTSWbody',$,#114,#115)
REPRESENTATION_RELATIONSHIP_WITH_TRANSFORMATION(#41)
SHAPE_REPRESENTATION_RELATIONSHIP()
);
#54=(
REPRESENTATION_RELATIONSHIP('SamtecTSWpin',$,#113,#115)
REPRESENTATION_RELATIONSHIP_WITH_TRANSFORMATION(#42)
SHAPE_REPRESENTATION_RELATIONSHIP()
);
#55=(
REPRESENTATION_RELATIONSHIP('SamtecTSWpin',$,#113,#115)
REPRESENTATION_RELATIONSHIP_WITH_TRANSFORMATION(#43)
SHAPE_REPRESENTATION_RELATIONSHIP()
);
#56=(
REPRESENTATION_RELATIONSHIP('SamtecTSWpin',$,#113,#115)
REPRESENTATION_RELATIONSHIP_WITH_TRANSFORMATION(#44)
SHAPE_REPRESENTATION_RELATIONSHIP()
);
#57=(
REPRESENTATION_RELATIONSHIP('SamtecTSWpin',$,#113,#115)
REPRESENTATION_RELATIONSHIP_WITH_TRANSFORMATION(#45)
SHAPE_REPRESENTATION_RELATIONSHIP()
);
#58=COLOUR_RGB('',0.968627450980392,0.909803921568627,0.192156862745098);
#59=COLOUR_RGB('',0.207843137254902,0.207843137254902,0.207843137254902);
#60=FILL_AREA_STYLE_COLOUR('NAME_0',#58);
#61=FILL_AREA_STYLE_COLOUR('NAME_0',#59);
#62=FILL_AREA_STYLE('NAME_0',(#60));
#63=FILL_AREA_STYLE('NAME_0',(#61));
#64=SURFACE_STYLE_FILL_AREA(#62);
#65=SURFACE_STYLE_FILL_AREA(#63);
#66=SURFACE_SIDE_STYLE('NAME_0',(#64));
#67=SURFACE_SIDE_STYLE('NAME_0',(#65));
#68=SURFACE_STYLE_USAGE(.POSITIVE.,#66);
#69=SURFACE_STYLE_USAGE(.POSITIVE.,#67);
#70=PRESENTATION_STYLE_ASSIGNMENT((#68));
#71=PRESENTATION_STYLE_ASSIGNMENT((#69));
#72=STYLED_ITEM('NAME_0',(#70),#647);
#73=STYLED_ITEM('NAME_0',(#71),#648);
#74=MECHANICAL_DESIGN_GEOMETRIC_PRESENTATION_REPRESENTATION('NAME_0',(#72,
#73),#130);
#75=PRODUCT_DEFINITION_CONTEXT('part definition',#106,'design');
#76=PRODUCT_DEFINITION_CONTEXT('part definition',#106,'design');
#77=PRODUCT_DEFINITION_CONTEXT('part definition',#106,'design');
#78=SHAPE_DEFINITION_REPRESENTATION(#81,#113);
#79=SHAPE_DEFINITION_REPRESENTATION(#82,#114);
#80=SHAPE_DEFINITION_REPRESENTATION(#83,#115);
#81=PRODUCT_DEFINITION_SHAPE('PRODUCT_VERSION_ID',
'PRODUCT_VERSION_DESCR',#96);
#82=PRODUCT_DEFINITION_SHAPE('PRODUCT_VERSION_ID',
'PRODUCT_VERSION_DESCR',#97);
#83=PRODUCT_DEFINITION_SHAPE('PRODUCT_VERSION_ID',
'PRODUCT_VERSION_DESCR',#98);
#84=PRODUCT_DEFINITION_SHAPE('NAME_10',$,#22);
#85=PRODUCT_DEFINITION_SHAPE('NAME_20',$,#23);
#86=PRODUCT_DEFINITION_SHAPE('NAME_30',$,#24);
#87=PRODUCT_DEFINITION_SHAPE('NAME_40',$,#25);
#88=PRODUCT_DEFINITION_SHAPE('NAME_50',$,#26);
#89=PRODUCT_DEFINITION_SHAPE('NAME_60',$,#27);
#90=PRODUCT_DEFINITION_SHAPE('NAME_70',$,#28);
#91=PRODUCT_DEFINITION_SHAPE('NAME_80',$,#29);
#92=PRODUCT_DEFINITION_SHAPE('NAME_90',$,#30);
#93=PRODUCT_DEFINITION_SHAPE('NAME_100',$,#31);
#94=PRODUCT_DEFINITION_SHAPE('NAME_110',$,#32);
#95=PRODUCT_DEFINITION_SHAPE('NAME_120',$,#33);
#96=PRODUCT_DEFINITION('SamtecTSWpin','PRODUCT_VERSION_DESCR',#99,#75);
#97=PRODUCT_DEFINITION('SamtecTSWbody','PRODUCT_VERSION_DESCR',#100,#76);
#98=PRODUCT_DEFINITION('PRODUCT_VERSION_ID','PRODUCT_VERSION_DESCR',#101,
#77);
#99=PRODUCT_DEFINITION_FORMATION_WITH_SPECIFIED_SOURCE(
'PRODUCT_VERSION_ID','PRODUCT_VERSION_DESCR',#110,.MADE.);
#100=PRODUCT_DEFINITION_FORMATION_WITH_SPECIFIED_SOURCE(
'PRODUCT_VERSION_ID','PRODUCT_VERSION_DESCR',#111,.MADE.);
#101=PRODUCT_DEFINITION_FORMATION_WITH_SPECIFIED_SOURCE(
'PRODUCT_VERSION_ID','PRODUCT_VERSION_DESCR',#112,.MADE.);
#102=PRODUCT_RELATED_PRODUCT_CATEGORY('part','part',(#110));
#103=PRODUCT_RELATED_PRODUCT_CATEGORY('part','part',(#111));
#104=PRODUCT_RELATED_PRODUCT_CATEGORY('part','part',(#112));
#105=APPLICATION_PROTOCOL_DEFINITION('Draft International Standard',
'automotive_design',1994,#106);
#106=APPLICATION_CONTEXT('automotive_Design');
#107=PRODUCT_CONTEXT('3D Mechanical Parts',#106,'mechanical');
#108=PRODUCT_CONTEXT('3D Mechanical Parts',#106,'mechanical');
#109=PRODUCT_CONTEXT('3D Mechanical Parts',#106,'mechanical');
#110=PRODUCT('','SamtecTSWpin','',(#107));
#111=PRODUCT('','SamtecTSWbody','',(#108));
#112=PRODUCT('','SamtecTSW-07_6x1','',(#109));
#113=SHAPE_REPRESENTATION('SamtecTSWpin',(#406,#412,#422,#424,#426,#428),
#130);
#114=SHAPE_REPRESENTATION('SamtecTSWbody',(#408,#410,#414,#416,#418,#420),
#131);
#115=SHAPE_REPRESENTATION('NAME_0',(#405,#407,#409,#411,#413,#415,#417,#419,
#421,#423,#425,#427),#132);
#116=SHAPE_REPRESENTATION_RELATIONSHIP('NAME_0',$,#113,#649);
#117=SHAPE_REPRESENTATION_RELATIONSHIP('NAME_0',$,#114,#650);
#118=(
LENGTH_UNIT()
NAMED_UNIT(*)
SI_UNIT(.CENTI.,.METRE.)
);
#119=(
LENGTH_UNIT()
NAMED_UNIT(*)
SI_UNIT(.CENTI.,.METRE.)
);
#120=(
LENGTH_UNIT()
NAMED_UNIT(*)
SI_UNIT(.CENTI.,.METRE.)
);
#121=(
NAMED_UNIT(*)
PLANE_ANGLE_UNIT()
SI_UNIT($,.RADIAN.)
);
#122=(
NAMED_UNIT(*)
PLANE_ANGLE_UNIT()
SI_UNIT($,.RADIAN.)
);
#123=(
NAMED_UNIT(*)
PLANE_ANGLE_UNIT()
SI_UNIT($,.RADIAN.)
);
#124=(
NAMED_UNIT(*)
SI_UNIT($,.STERADIAN.)
SOLID_ANGLE_UNIT()
);
#125=(
NAMED_UNIT(*)
SI_UNIT($,.STERADIAN.)
SOLID_ANGLE_UNIT()
);
#126=(
NAMED_UNIT(*)
SI_UNIT($,.STERADIAN.)
SOLID_ANGLE_UNIT()
);
#127=UNCERTAINTY_MEASURE_WITH_UNIT(LENGTH_MEASURE(1.E-006),#118,
'DISTANCE_ACCURACY_VALUE',
'Maximum model space distance between geometric entities at asserted co
nnectivities');
#128=UNCERTAINTY_MEASURE_WITH_UNIT(LENGTH_MEASURE(1.E-006),#119,
'DISTANCE_ACCURACY_VALUE',
'Maximum model space distance between geometric entities at asserted co
nnectivities');
#129=UNCERTAINTY_MEASURE_WITH_UNIT(LENGTH_MEASURE(1.E-006),#120,
'DISTANCE_ACCURACY_VALUE',
'Maximum model space distance between geometric entities at asserted co
nnectivities');
#130=(
GEOMETRIC_REPRESENTATION_CONTEXT(3)
GLOBAL_UNCERTAINTY_ASSIGNED_CONTEXT((#127))
GLOBAL_UNIT_ASSIGNED_CONTEXT((#124,#121,#118))
REPRESENTATION_CONTEXT('ID1','3D')
);
#131=(
GEOMETRIC_REPRESENTATION_CONTEXT(3)
GLOBAL_UNCERTAINTY_ASSIGNED_CONTEXT((#128))
GLOBAL_UNIT_ASSIGNED_CONTEXT((#125,#122,#119))
REPRESENTATION_CONTEXT('ID1','3D')
);
#132=(
GEOMETRIC_REPRESENTATION_CONTEXT(3)
GLOBAL_UNCERTAINTY_ASSIGNED_CONTEXT((#129))
GLOBAL_UNIT_ASSIGNED_CONTEXT((#126,#123,#120))
REPRESENTATION_CONTEXT('ID1','3D')
);
#133=VERTEX_POINT('',#531);
#134=VERTEX_POINT('',#532);
#135=VERTEX_POINT('',#534);
#136=VERTEX_POINT('',#536);
#137=VERTEX_POINT('',#540);
#138=VERTEX_POINT('',#541);
#139=VERTEX_POINT('',#546);
#140=VERTEX_POINT('',#550);
#141=VERTEX_POINT('',#557);
#142=VERTEX_POINT('',#558);
#143=VERTEX_POINT('',#560);
#144=VERTEX_POINT('',#562);
#145=VERTEX_POINT('',#566);
#146=VERTEX_POINT('',#568);
#147=VERTEX_POINT('',#572);
#148=VERTEX_POINT('',#574);
#149=VERTEX_POINT('',#581);
#150=VERTEX_POINT('',#582);
#151=VERTEX_POINT('',#584);
#152=VERTEX_POINT('',#586);
#153=VERTEX_POINT('',#590);
#154=VERTEX_POINT('',#592);
#155=VERTEX_POINT('',#596);
#156=VERTEX_POINT('',#598);
#157=VECTOR('',#430,1.);
#158=VECTOR('',#431,1.);
#159=VECTOR('',#432,1.);
#160=VECTOR('',#433,1.);
#161=VECTOR('',#435,1.);
#162=VECTOR('',#436,1.);
#163=VECTOR('',#437,1.);
#164=VECTOR('',#439,1.);
#165=VECTOR('',#440,1.);
#166=VECTOR('',#442,1.);
#167=VECTOR('',#443,1.);
#168=VECTOR('',#445,1.);
#169=VECTOR('',#448,1.);
#170=VECTOR('',#449,1.);
#171=VECTOR('',#450,1.);
#172=VECTOR('',#451,1.);
#173=VECTOR('',#453,1.);
#174=VECTOR('',#454,1.);
#175=VECTOR('',#455,1.);
#176=VECTOR('',#457,1.);
#177=VECTOR('',#458,1.);
#178=VECTOR('',#459,1.);
#179=VECTOR('',#461,1.);
#180=VECTOR('',#462,1.);
#181=VECTOR('',#464,1.);
#182=VECTOR('',#465,1.);
#183=VECTOR('',#466,1.);
#184=VECTOR('',#467,1.);
#185=VECTOR('',#469,1.);
#186=VECTOR('',#470,1.);
#187=VECTOR('',#471,1.);
#188=VECTOR('',#473,1.);
#189=VECTOR('',#474,1.);
#190=VECTOR('',#475,1.);
#191=VECTOR('',#477,1.);
#192=VECTOR('',#478,1.);
#193=LINE('',#530,#157);
#194=LINE('',#533,#158);
#195=LINE('',#535,#159);
#196=LINE('',#537,#160);
#197=LINE('',#539,#161);
#198=LINE('',#542,#162);
#199=LINE('',#543,#163);
#200=LINE('',#545,#164);
#201=LINE('',#547,#165);
#202=LINE('',#549,#166);
#203=LINE('',#551,#167);
#204=LINE('',#553,#168);
#205=LINE('',#556,#169);
#206=LINE('',#559,#170);
#207=LINE('',#561,#171);
#208=LINE('',#563,#172);
#209=LINE('',#565,#173);
#210=LINE('',#567,#174);
#211=LINE('',#569,#175);
#212=LINE('',#571,#176);
#213=LINE('',#573,#177);
#214=LINE('',#575,#178);
#215=LINE('',#577,#179);
#216=LINE('',#578,#180);
#217=LINE('',#580,#181);
#218=LINE('',#583,#182);
#219=LINE('',#585,#183);
#220=LINE('',#587,#184);
#221=LINE('',#589,#185);
#222=LINE('',#591,#186);
#223=LINE('',#593,#187);
#224=LINE('',#595,#188);
#225=LINE('',#597,#189);
#226=LINE('',#599,#190);
#227=LINE('',#601,#191);
#228=LINE('',#602,#192);
#229=EDGE_CURVE('',#133,#134,#193,.T.);
#230=EDGE_CURVE('',#135,#133,#194,.T.);
#231=EDGE_CURVE('',#136,#135,#195,.T.);
#232=EDGE_CURVE('',#134,#136,#196,.T.);
#233=EDGE_CURVE('',#137,#138,#197,.T.);
#234=EDGE_CURVE('',#136,#138,#198,.T.);
#235=EDGE_CURVE('',#137,#135,#199,.T.);
#236=EDGE_CURVE('',#138,#139,#200,.T.);
#237=EDGE_CURVE('',#134,#139,#201,.T.);
#238=EDGE_CURVE('',#139,#140,#202,.T.);
#239=EDGE_CURVE('',#133,#140,#203,.T.);
#240=EDGE_CURVE('',#140,#137,#204,.T.);
#241=EDGE_CURVE('',#141,#142,#205,.T.);
#242=EDGE_CURVE('',#143,#141,#206,.T.);
#243=EDGE_CURVE('',#144,#143,#207,.T.);
#244=EDGE_CURVE('',#144,#142,#208,.T.);
#245=EDGE_CURVE('',#142,#145,#209,.T.);
#246=EDGE_CURVE('',#146,#144,#210,.T.);
#247=EDGE_CURVE('',#146,#145,#211,.T.);
#248=EDGE_CURVE('',#145,#147,#212,.T.);
#249=EDGE_CURVE('',#148,#146,#213,.T.);
#250=EDGE_CURVE('',#148,#147,#214,.T.);
#251=EDGE_CURVE('',#147,#141,#215,.T.);
#252=EDGE_CURVE('',#143,#148,#216,.T.);
#253=EDGE_CURVE('',#149,#150,#217,.T.);
#254=EDGE_CURVE('',#151,#150,#218,.T.);
#255=EDGE_CURVE('',#151,#152,#219,.T.);
#256=EDGE_CURVE('',#152,#149,#220,.T.);
#257=EDGE_CURVE('',#150,#153,#221,.T.);
#258=EDGE_CURVE('',#154,#153,#222,.T.);
#259=EDGE_CURVE('',#154,#151,#223,.T.);
#260=EDGE_CURVE('',#153,#155,#224,.T.);
#261=EDGE_CURVE('',#156,#155,#225,.T.);
#262=EDGE_CURVE('',#156,#154,#226,.T.);
#263=EDGE_CURVE('',#155,#149,#227,.T.);
#264=EDGE_CURVE('',#152,#156,#228,.T.);
#265=ORIENTED_EDGE('',*,*,#229,.F.);
#266=ORIENTED_EDGE('',*,*,#230,.F.);
#267=ORIENTED_EDGE('',*,*,#231,.F.);
#268=ORIENTED_EDGE('',*,*,#232,.F.);
#269=ORIENTED_EDGE('',*,*,#233,.T.);
#270=ORIENTED_EDGE('',*,*,#234,.F.);
#271=ORIENTED_EDGE('',*,*,#231,.T.);
#272=ORIENTED_EDGE('',*,*,#235,.F.);
#273=ORIENTED_EDGE('',*,*,#236,.T.);
#274=ORIENTED_EDGE('',*,*,#237,.F.);
#275=ORIENTED_EDGE('',*,*,#232,.T.);
#276=ORIENTED_EDGE('',*,*,#234,.T.);
#277=ORIENTED_EDGE('',*,*,#238,.T.);
#278=ORIENTED_EDGE('',*,*,#239,.F.);
#279=ORIENTED_EDGE('',*,*,#229,.T.);
#280=ORIENTED_EDGE('',*,*,#237,.T.);
#281=ORIENTED_EDGE('',*,*,#240,.T.);
#282=ORIENTED_EDGE('',*,*,#235,.T.);
#283=ORIENTED_EDGE('',*,*,#230,.T.);
#284=ORIENTED_EDGE('',*,*,#239,.T.);
#285=ORIENTED_EDGE('',*,*,#233,.F.);
#286=ORIENTED_EDGE('',*,*,#240,.F.);
#287=ORIENTED_EDGE('',*,*,#238,.F.);
#288=ORIENTED_EDGE('',*,*,#236,.F.);
#289=ORIENTED_EDGE('',*,*,#241,.F.);
#290=ORIENTED_EDGE('',*,*,#242,.F.);
#291=ORIENTED_EDGE('',*,*,#243,.F.);
#292=ORIENTED_EDGE('',*,*,#244,.T.);
#293=ORIENTED_EDGE('',*,*,#245,.F.);
#294=ORIENTED_EDGE('',*,*,#244,.F.);
#295=ORIENTED_EDGE('',*,*,#246,.F.);
#296=ORIENTED_EDGE('',*,*,#247,.T.);
#297=ORIENTED_EDGE('',*,*,#248,.F.);
#298=ORIENTED_EDGE('',*,*,#247,.F.);
#299=ORIENTED_EDGE('',*,*,#249,.F.);
#300=ORIENTED_EDGE('',*,*,#250,.T.);
#301=ORIENTED_EDGE('',*,*,#251,.F.);
#302=ORIENTED_EDGE('',*,*,#250,.F.);
#303=ORIENTED_EDGE('',*,*,#252,.F.);
#304=ORIENTED_EDGE('',*,*,#242,.T.);
#305=ORIENTED_EDGE('',*,*,#253,.T.);
#306=ORIENTED_EDGE('',*,*,#254,.F.);
#307=ORIENTED_EDGE('',*,*,#255,.T.);
#308=ORIENTED_EDGE('',*,*,#256,.T.);
#309=ORIENTED_EDGE('',*,*,#257,.T.);
#310=ORIENTED_EDGE('',*,*,#258,.F.);
#311=ORIENTED_EDGE('',*,*,#259,.T.);
#312=ORIENTED_EDGE('',*,*,#254,.T.);
#313=ORIENTED_EDGE('',*,*,#260,.T.);
#314=ORIENTED_EDGE('',*,*,#261,.F.);
#315=ORIENTED_EDGE('',*,*,#262,.T.);
#316=ORIENTED_EDGE('',*,*,#258,.T.);
#317=ORIENTED_EDGE('',*,*,#263,.T.);
#318=ORIENTED_EDGE('',*,*,#256,.F.);
#319=ORIENTED_EDGE('',*,*,#264,.T.);
#320=ORIENTED_EDGE('',*,*,#261,.T.);
#321=ORIENTED_EDGE('',*,*,#241,.T.);
#322=ORIENTED_EDGE('',*,*,#245,.T.);
#323=ORIENTED_EDGE('',*,*,#248,.T.);
#324=ORIENTED_EDGE('',*,*,#251,.T.);
#325=ORIENTED_EDGE('',*,*,#253,.F.);
#326=ORIENTED_EDGE('',*,*,#263,.F.);
#327=ORIENTED_EDGE('',*,*,#260,.F.);
#328=ORIENTED_EDGE('',*,*,#257,.F.);
#329=ORIENTED_EDGE('',*,*,#243,.T.);
#330=ORIENTED_EDGE('',*,*,#252,.T.);
#331=ORIENTED_EDGE('',*,*,#249,.T.);
#332=ORIENTED_EDGE('',*,*,#246,.T.);
#333=ORIENTED_EDGE('',*,*,#264,.F.);
#334=ORIENTED_EDGE('',*,*,#255,.F.);
#335=ORIENTED_EDGE('',*,*,#259,.F.);
#336=ORIENTED_EDGE('',*,*,#262,.F.);
#337=EDGE_LOOP('',(#265,#266,#267,#268));
#338=EDGE_LOOP('',(#269,#270,#271,#272));
#339=EDGE_LOOP('',(#273,#274,#275,#276));
#340=EDGE_LOOP('',(#277,#278,#279,#280));
#341=EDGE_LOOP('',(#281,#282,#283,#284));
#342=EDGE_LOOP('',(#285,#286,#287,#288));
#343=EDGE_LOOP('',(#289,#290,#291,#292));
#344=EDGE_LOOP('',(#293,#294,#295,#296));
#345=EDGE_LOOP('',(#297,#298,#299,#300));
#346=EDGE_LOOP('',(#301,#302,#303,#304));
#347=EDGE_LOOP('',(#305,#306,#307,#308));
#348=EDGE_LOOP('',(#309,#310,#311,#312));
#349=EDGE_LOOP('',(#313,#314,#315,#316));
#350=EDGE_LOOP('',(#317,#318,#319,#320));
#351=EDGE_LOOP('',(#321,#322,#323,#324));
#352=EDGE_LOOP('',(#325,#326,#327,#328));
#353=EDGE_LOOP('',(#329,#330,#331,#332));
#354=EDGE_LOOP('',(#333,#334,#335,#336));
#355=FACE_BOUND('',#337,.T.);
#356=FACE_BOUND('',#338,.T.);
#357=FACE_BOUND('',#339,.T.);
#358=FACE_BOUND('',#340,.T.);
#359=FACE_BOUND('',#341,.T.);
#360=FACE_BOUND('',#342,.T.);
#361=FACE_BOUND('',#343,.T.);
#362=FACE_BOUND('',#344,.T.);
#363=FACE_BOUND('',#345,.T.);
#364=FACE_BOUND('',#346,.T.);
#365=FACE_BOUND('',#347,.T.);
#366=FACE_BOUND('',#348,.T.);
#367=FACE_BOUND('',#349,.T.);
#368=FACE_BOUND('',#350,.T.);
#369=FACE_BOUND('',#351,.T.);
#370=FACE_BOUND('',#352,.T.);
#371=FACE_BOUND('',#353,.T.);
#372=FACE_BOUND('',#354,.T.);
#373=ADVANCED_FACE('',(#355),#629,.F.);
#374=ADVANCED_FACE('',(#356),#630,.T.);
#375=ADVANCED_FACE('',(#357),#631,.T.);
#376=ADVANCED_FACE('',(#358),#632,.T.);
#377=ADVANCED_FACE('',(#359),#633,.T.);
#378=ADVANCED_FACE('',(#360),#634,.T.);
#379=ADVANCED_FACE('',(#361),#635,.F.);
#380=ADVANCED_FACE('',(#362),#636,.F.);
#381=ADVANCED_FACE('',(#363),#637,.F.);
#382=ADVANCED_FACE('',(#364),#638,.F.);
#383=ADVANCED_FACE('',(#365),#639,.T.);
#384=ADVANCED_FACE('',(#366),#640,.T.);
#385=ADVANCED_FACE('',(#367),#641,.T.);
#386=ADVANCED_FACE('',(#368),#642,.T.);
#387=ADVANCED_FACE('',(#369,#370),#643,.T.);
#388=ADVANCED_FACE('',(#371,#372),#644,.F.);
#389=AXIS2_PLACEMENT_3D('',#529,#429,$);
#390=AXIS2_PLACEMENT_3D('',#538,#434,$);
#391=AXIS2_PLACEMENT_3D('',#544,#438,$);
#392=AXIS2_PLACEMENT_3D('',#548,#441,$);
#393=AXIS2_PLACEMENT_3D('',#552,#444,$);
#394=AXIS2_PLACEMENT_3D('',#554,#446,$);
#395=AXIS2_PLACEMENT_3D('',#555,#447,$);
#396=AXIS2_PLACEMENT_3D('',#564,#452,$);
#397=AXIS2_PLACEMENT_3D('',#570,#456,$);
#398=AXIS2_PLACEMENT_3D('',#576,#460,$);
#399=AXIS2_PLACEMENT_3D('',#579,#463,$);
#400=AXIS2_PLACEMENT_3D('',#588,#468,$);
#401=AXIS2_PLACEMENT_3D('',#594,#472,$);
#402=AXIS2_PLACEMENT_3D('',#600,#476,$);
#403=AXIS2_PLACEMENT_3D('',#603,#479,$);
#404=AXIS2_PLACEMENT_3D('',#604,#480,$);
#405=AXIS2_PLACEMENT_3D('AXIS_PLACEMENT_1',#605,#481,#482);
#406=AXIS2_PLACEMENT_3D('AXIS_PLACEMENT_5',#606,#483,#484);
#407=AXIS2_PLACEMENT_3D('AXIS_PLACEMENT_11',#607,#485,#486);
#408=AXIS2_PLACEMENT_3D('AXIS_PLACEMENT_15',#608,#487,#488);
#409=AXIS2_PLACEMENT_3D('AXIS_PLACEMENT_21',#609,#489,#490);
#410=AXIS2_PLACEMENT_3D('AXIS_PLACEMENT_25',#610,#491,#492);
#411=AXIS2_PLACEMENT_3D('AXIS_PLACEMENT_31',#611,#493,#494);
#412=AXIS2_PLACEMENT_3D('AXIS_PLACEMENT_35',#612,#495,#496);
#413=AXIS2_PLACEMENT_3D('AXIS_PLACEMENT_41',#613,#497,#498);
#414=AXIS2_PLACEMENT_3D('AXIS_PLACEMENT_45',#614,#499,#500);
#415=AXIS2_PLACEMENT_3D('AXIS_PLACEMENT_51',#615,#501,#502);
#416=AXIS2_PLACEMENT_3D('AXIS_PLACEMENT_55',#616,#503,#504);
#417=AXIS2_PLACEMENT_3D('AXIS_PLACEMENT_61',#617,#505,#506);
#418=AXIS2_PLACEMENT_3D('AXIS_PLACEMENT_65',#618,#507,#508);
#419=AXIS2_PLACEMENT_3D('AXIS_PLACEMENT_71',#619,#509,#510);
#420=AXIS2_PLACEMENT_3D('AXIS_PLACEMENT_75',#620,#511,#512);
#421=AXIS2_PLACEMENT_3D('AXIS_PLACEMENT_81',#621,#513,#514);
#422=AXIS2_PLACEMENT_3D('AXIS_PLACEMENT_85',#622,#515,#516);
#423=AXIS2_PLACEMENT_3D('AXIS_PLACEMENT_91',#623,#517,#518);
#424=AXIS2_PLACEMENT_3D('AXIS_PLACEMENT_95',#624,#519,#520);
#425=AXIS2_PLACEMENT_3D('AXIS_PLACEMENT_101',#625,#521,#522);
#426=AXIS2_PLACEMENT_3D('AXIS_PLACEMENT_105',#626,#523,#524);
#427=AXIS2_PLACEMENT_3D('AXIS_PLACEMENT_111',#627,#525,#526);
#428=AXIS2_PLACEMENT_3D('AXIS_PLACEMENT_115',#628,#527,#528);
#429=DIRECTION('',(0.,0.,1.));
#430=DIRECTION('',(1.,0.,0.));
#431=DIRECTION('',(0.,-1.,0.));
#432=DIRECTION('',(-1.,0.,0.));
#433=DIRECTION('',(1.09273919746571E-016,1.,0.));
#434=DIRECTION('',(0.,1.,0.));
#435=DIRECTION('',(1.,0.,0.));
#436=DIRECTION('',(0.,0.,1.));
#437=DIRECTION('',(0.,0.,-1.));
#438=DIRECTION('',(1.,-1.09273919746571E-016,0.));
#439=DIRECTION('',(-1.09273919746571E-016,-1.,0.));
#440=DIRECTION('',(0.,0.,1.));
#441=DIRECTION('',(0.,-1.,0.));
#442=DIRECTION('',(-1.,0.,0.));
#443=DIRECTION('',(0.,0.,1.));
#444=DIRECTION('',(-1.,0.,0.));
#445=DIRECTION('',(0.,1.,0.));
#446=DIRECTION('',(0.,0.,1.));
#447=DIRECTION('',(0.,1.,0.));
#448=DIRECTION('',(1.,0.,0.));
#449=DIRECTION('',(0.,0.,1.));
#450=DIRECTION('',(-1.,0.,0.));
#451=DIRECTION('',(0.,0.,1.));
#452=DIRECTION('',(1.,-1.09273919746571E-016,0.));
#453=DIRECTION('',(-1.09273919746571E-016,-1.,0.));
#454=DIRECTION('',(1.09273919746571E-016,1.,0.));
#455=DIRECTION('',(0.,0.,1.));
#456=DIRECTION('',(0.,-1.,0.));
#457=DIRECTION('',(-1.,0.,0.));
#458=DIRECTION('',(1.,0.,0.));
#459=DIRECTION('',(0.,0.,1.));
#460=DIRECTION('',(-1.,0.,0.));
#461=DIRECTION('',(0.,1.,0.));
#462=DIRECTION('',(0.,-1.,0.));
#463=DIRECTION('',(0.,1.,0.));
#464=DIRECTION('',(1.,0.,0.));
#465=DIRECTION('',(0.,0.,1.));
#466=DIRECTION('',(-1.,0.,0.));
#467=DIRECTION('',(0.,0.,1.));
#468=DIRECTION('',(1.,0.,0.));
#469=DIRECTION('',(0.,-1.,0.));
#470=DIRECTION('',(0.,0.,1.));
#471=DIRECTION('',(0.,1.,0.));
#472=DIRECTION('',(0.,-1.,0.));
#473=DIRECTION('',(-1.,0.,0.));
#474=DIRECTION('',(0.,0.,1.));
#475=DIRECTION('',(1.,0.,0.));
#476=DIRECTION('',(-1.,0.,0.));
#477=DIRECTION('',(0.,1.,0.));
#478=DIRECTION('',(0.,-1.,0.));
#479=DIRECTION('',(0.,0.,1.));
#480=DIRECTION('',(0.,0.,1.));
#481=DIRECTION('DIRECTION2',(0.,0.,1.));
#482=DIRECTION('DIRECTION3',(1.,0.,0.));
#483=DIRECTION('DIRECTION6',(0.,0.,1.));
#484=DIRECTION('DIRECTION7',(1.,0.,0.));
#485=DIRECTION('DIRECTION12',(0.,0.,1.));
#486=DIRECTION('DIRECTION13',(1.,0.,0.));
#487=DIRECTION('DIRECTION16',(0.,0.,1.));
#488=DIRECTION('DIRECTION17',(1.,0.,0.));
#489=DIRECTION('DIRECTION22',(0.,0.,1.));
#490=DIRECTION('DIRECTION23',(1.,0.,0.));
#491=DIRECTION('DIRECTION26',(0.,0.,1.));
#492=DIRECTION('DIRECTION27',(1.,0.,0.));
#493=DIRECTION('DIRECTION32',(0.,0.,1.));
#494=DIRECTION('DIRECTION33',(1.,0.,0.));
#495=DIRECTION('DIRECTION36',(0.,0.,1.));
#496=DIRECTION('DIRECTION37',(1.,0.,0.));
#497=DIRECTION('DIRECTION42',(0.,0.,1.));
#498=DIRECTION('DIRECTION43',(1.,0.,0.));
#499=DIRECTION('DIRECTION46',(0.,0.,1.));
#500=DIRECTION('DIRECTION47',(1.,0.,0.));
#501=DIRECTION('DIRECTION52',(0.,0.,1.));
#502=DIRECTION('DIRECTION53',(1.,0.,0.));
#503=DIRECTION('DIRECTION56',(0.,0.,1.));
#504=DIRECTION('DIRECTION57',(1.,0.,0.));
#505=DIRECTION('DIRECTION62',(0.,0.,1.));
#506=DIRECTION('DIRECTION63',(1.,0.,0.));
#507=DIRECTION('DIRECTION66',(0.,0.,1.));
#508=DIRECTION('DIRECTION67',(1.,0.,0.));
#509=DIRECTION('DIRECTION72',(0.,0.,1.));
#510=DIRECTION('DIRECTION73',(1.,0.,0.));
#511=DIRECTION('DIRECTION76',(0.,0.,1.));
#512=DIRECTION('DIRECTION77',(1.,0.,0.));
#513=DIRECTION('DIRECTION82',(0.,0.,1.));
#514=DIRECTION('DIRECTION83',(1.,0.,0.));
#515=DIRECTION('DIRECTION86',(0.,0.,1.));
#516=DIRECTION('DIRECTION87',(1.,0.,0.));
#517=DIRECTION('DIRECTION92',(0.,0.,1.));
#518=DIRECTION('DIRECTION93',(1.,0.,0.));
#519=DIRECTION('DIRECTION96',(0.,0.,1.));
#520=DIRECTION('DIRECTION97',(1.,0.,0.));
#521=DIRECTION('DIRECTION102',(0.,0.,1.));
#522=DIRECTION('DIRECTION103',(1.,0.,0.));
#523=DIRECTION('DIRECTION106',(0.,0.,1.));
#524=DIRECTION('DIRECTION107',(1.,0.,0.));
#525=DIRECTION('DIRECTION112',(0.,0.,1.));
#526=DIRECTION('DIRECTION113',(1.,0.,0.));
#527=DIRECTION('DIRECTION116',(0.,0.,1.));
#528=DIRECTION('DIRECTION117',(1.,0.,0.));
#529=CARTESIAN_POINT('',(4.73106402539129E-019,0.,-0.254));
#530=CARTESIAN_POINT('',(-0.03175,-0.03175,-0.254));
#531=CARTESIAN_POINT('',(-0.03175,-0.03175,-0.254));
#532=CARTESIAN_POINT('',(0.03175,-0.03175,-0.254));
#533=CARTESIAN_POINT('',(-0.03175,0.03175,-0.254));
#534=CARTESIAN_POINT('',(-0.03175,0.03175,-0.254));
#535=CARTESIAN_POINT('',(0.03175,0.03175,-0.254));
#536=CARTESIAN_POINT('',(0.03175,0.03175,-0.254));
#537=CARTESIAN_POINT('',(0.03175,-0.03175,-0.254));
#538=CARTESIAN_POINT('',(0.,0.03175,0.));
#539=CARTESIAN_POINT('',(0.03175,0.03175,0.8382));
#540=CARTESIAN_POINT('',(-0.03175,0.03175,0.8382));
#541=CARTESIAN_POINT('',(0.03175,0.03175,0.8382));
#542=CARTESIAN_POINT('',(0.03175,0.03175,0.));
#543=CARTESIAN_POINT('',(-0.03175,0.03175,0.));
#544=CARTESIAN_POINT('',(0.03175,0.,0.));
#545=CARTESIAN_POINT('',(0.03175,-0.03175,0.8382));
#546=CARTESIAN_POINT('',(0.03175,-0.03175,0.8382));
#547=CARTESIAN_POINT('',(0.03175,-0.03175,0.));
#548=CARTESIAN_POINT('',(0.,-0.03175,0.));
#549=CARTESIAN_POINT('',(-0.03175,-0.03175,0.8382));
#550=CARTESIAN_POINT('',(-0.03175,-0.03175,0.8382));
#551=CARTESIAN_POINT('',(-0.03175,-0.03175,0.));
#552=CARTESIAN_POINT('',(-0.03175,0.,0.));
#553=CARTESIAN_POINT('',(-0.03175,0.03175,0.8382));
#554=CARTESIAN_POINT('',(4.73106402539129E-019,0.,0.8382));
#555=CARTESIAN_POINT('',(0.,0.03175,0.));
#556=CARTESIAN_POINT('',(0.,0.03175,0.254));
#557=CARTESIAN_POINT('',(-0.03175,0.03175,0.254));
#558=CARTESIAN_POINT('',(0.03175,0.03175,0.254));
#559=CARTESIAN_POINT('',(-0.03175,0.03175,0.));
#560=CARTESIAN_POINT('',(-0.03175,0.03175,0.));
#561=CARTESIAN_POINT('',(0.,0.03175,0.));
#562=CARTESIAN_POINT('',(0.03175,0.03175,0.));
#563=CARTESIAN_POINT('',(0.03175,0.03175,0.));
#564=CARTESIAN_POINT('',(0.03175,0.,0.));
#565=CARTESIAN_POINT('',(0.03175,0.,0.254));
#566=CARTESIAN_POINT('',(0.03175,-0.03175,0.254));
#567=CARTESIAN_POINT('',(0.03175,0.,0.));
#568=CARTESIAN_POINT('',(0.03175,-0.03175,0.));
#569=CARTESIAN_POINT('',(0.03175,-0.03175,0.));
#570=CARTESIAN_POINT('',(0.,-0.03175,0.));
#571=CARTESIAN_POINT('',(0.,-0.03175,0.254));
#572=CARTESIAN_POINT('',(-0.03175,-0.03175,0.254));
#573=CARTESIAN_POINT('',(0.,-0.03175,0.));
#574=CARTESIAN_POINT('',(-0.03175,-0.03175,0.));
#575=CARTESIAN_POINT('',(-0.03175,-0.03175,0.));
#576=CARTESIAN_POINT('',(-0.03175,0.,0.));
#577=CARTESIAN_POINT('',(-0.03175,0.,0.254));
#578=CARTESIAN_POINT('',(-0.03175,0.,0.));
#579=CARTESIAN_POINT('',(0.,0.127,0.));
#580=CARTESIAN_POINT('',(0.127,0.127,0.254));
#581=CARTESIAN_POINT('',(-0.127,0.127,0.254));
#582=CARTESIAN_POINT('',(0.127,0.127,0.254));
#583=CARTESIAN_POINT('',(0.127,0.127,0.));
#584=CARTESIAN_POINT('',(0.127,0.127,0.));
#585=CARTESIAN_POINT('',(0.127,0.127,0.));
#586=CARTESIAN_POINT('',(-0.127,0.127,0.));
#587=CARTESIAN_POINT('',(-0.127,0.127,0.));
#588=CARTESIAN_POINT('',(0.127,0.,0.));
#589=CARTESIAN_POINT('',(0.127,-0.127,0.254));
#590=CARTESIAN_POINT('',(0.127,-0.127,0.254));
#591=CARTESIAN_POINT('',(0.127,-0.127,0.));
#592=CARTESIAN_POINT('',(0.127,-0.127,0.));
#593=CARTESIAN_POINT('',(0.127,-0.127,0.));
#594=CARTESIAN_POINT('',(0.,-0.127,0.));
#595=CARTESIAN_POINT('',(-0.127,-0.127,0.254));
#596=CARTESIAN_POINT('',(-0.127,-0.127,0.254));
#597=CARTESIAN_POINT('',(-0.127,-0.127,0.));
#598=CARTESIAN_POINT('',(-0.127,-0.127,0.));
#599=CARTESIAN_POINT('',(-0.127,-0.127,0.));
#600=CARTESIAN_POINT('',(-0.127,0.,0.));
#601=CARTESIAN_POINT('',(-0.127,0.127,0.254));
#602=CARTESIAN_POINT('',(-0.127,0.127,0.));
#603=CARTESIAN_POINT('',(1.89242561015652E-018,0.,0.254));
#604=CARTESIAN_POINT('',(1.89242561015652E-018,0.,0.));
#605=CARTESIAN_POINT('CARTESIAN_POINT4',(0.,0.,0.));
#606=CARTESIAN_POINT('CARTESIAN_POINT8',(0.,0.,0.));
#607=CARTESIAN_POINT('CARTESIAN_POINT14',(0.,0.,0.));
#608=CARTESIAN_POINT('CARTESIAN_POINT18',(0.,0.,0.));
#609=CARTESIAN_POINT('CARTESIAN_POINT24',(0.254,0.,0.));
#610=CARTESIAN_POINT('CARTESIAN_POINT28',(0.,0.,0.));
#611=CARTESIAN_POINT('CARTESIAN_POINT34',(0.254,0.,0.));
#612=CARTESIAN_POINT('CARTESIAN_POINT38',(0.,0.,0.));
#613=CARTESIAN_POINT('CARTESIAN_POINT44',(0.508,0.,0.));
#614=CARTESIAN_POINT('CARTESIAN_POINT48',(0.,0.,0.));
#615=CARTESIAN_POINT('CARTESIAN_POINT54',(0.762,0.,0.));
#616=CARTESIAN_POINT('CARTESIAN_POINT58',(0.,0.,0.));
#617=CARTESIAN_POINT('CARTESIAN_POINT64',(1.016,0.,0.));
#618=CARTESIAN_POINT('CARTESIAN_POINT68',(0.,0.,0.));
#619=CARTESIAN_POINT('CARTESIAN_POINT74',(1.27,0.,0.));
#620=CARTESIAN_POINT('CARTESIAN_POINT78',(0.,0.,0.));
#621=CARTESIAN_POINT('CARTESIAN_POINT84',(0.508,0.,0.));
#622=CARTESIAN_POINT('CARTESIAN_POINT88',(0.,0.,0.));
#623=CARTESIAN_POINT('CARTESIAN_POINT94',(0.762,0.,0.));
#624=CARTESIAN_POINT('CARTESIAN_POINT98',(0.,0.,0.));
#625=CARTESIAN_POINT('CARTESIAN_POINT104',(1.016,0.,0.));
#626=CARTESIAN_POINT('CARTESIAN_POINT108',(0.,0.,0.));
#627=CARTESIAN_POINT('CARTESIAN_POINT114',(1.27,0.,0.));
#628=CARTESIAN_POINT('CARTESIAN_POINT118',(0.,0.,0.));
#629=PLANE('',#389);
#630=PLANE('',#390);
#631=PLANE('',#391);
#632=PLANE('',#392);
#633=PLANE('',#393);
#634=PLANE('',#394);
#635=PLANE('',#395);
#636=PLANE('',#396);
#637=PLANE('',#397);
#638=PLANE('',#398);
#639=PLANE('',#399);
#640=PLANE('',#400);
#641=PLANE('',#401);
#642=PLANE('',#402);
#643=PLANE('',#403);
#644=PLANE('',#404);
#645=CLOSED_SHELL('',(#373,#374,#375,#376,#377,#378));
#646=CLOSED_SHELL('',(#379,#380,#381,#382,#383,#384,#385,#386,#387,#388));
#647=MANIFOLD_SOLID_BREP('',#645);
#648=MANIFOLD_SOLID_BREP('',#646);
#649=ADVANCED_BREP_SHAPE_REPRESENTATION('SamtecTSWpin',(#647),#130);
#650=ADVANCED_BREP_SHAPE_REPRESENTATION('SamtecTSWbody',(#648),#131);
ENDSEC;
END-ISO-10303-21;
