ISO-10303-21;
HEADER;
FILE_DESCRIPTION(('FreeCAD Model'),'2;1');
FILE_NAME(
'E:/3Dmodels/04_2019/11_04_2019/Murata Electronics North America 
GCM188L81H104KA57D/final/Murata_GCM188L81H104KA57D.step',
  '2019-04-11T19:37:42',('Author'),(''),
  'Open CASCADE STEP processor 7.2','FreeCAD','Unknown');
FILE_SCHEMA(('AUTOMOTIVE_DESIGN { 1 0 10303 214 1 1 1 1 }'));
ENDSEC;
DATA;
#1 = APPLICATION_PROTOCOL_DEFINITION('international standard',
  'automotive_design',2000,#2);
#2 = APPLICATION_CONTEXT(
  'core data for automotive mechanical design processes');
#3 = SHAPE_DEFINITION_REPRESENTATION(#4,#10);
#4 = PRODUCT_DEFINITION_SHAPE('','',#5);
#5 = PRODUCT_DEFINITION('design','',#6,#9);
#6 = PRODUCT_DEFINITION_FORMATION('','',#7);
#7 = PRODUCT('Solid002','Solid002','',(#8));
#8 = PRODUCT_CONTEXT('',#2,'mechanical');
#9 = PRODUCT_DEFINITION_CONTEXT('part definition',#2,'design');
#10 = ADVANCED_BREP_SHAPE_REPRESENTATION('',(#11,#15),#165);
#11 = AXIS2_PLACEMENT_3D('',#12,#13,#14);
#12 = CARTESIAN_POINT('',(0.E+000,0.E+000,0.E+000));
#13 = DIRECTION('',(0.E+000,0.E+000,1.));
#14 = DIRECTION('',(1.,0.E+000,-0.E+000));
#15 = MANIFOLD_SOLID_BREP('',#16);
#16 = CLOSED_SHELL('',(#17,#57,#88,#112,#136,#153));
#17 = ADVANCED_FACE('',(#18),#52,.T.);
#18 = FACE_BOUND('',#19,.T.);
#19 = EDGE_LOOP('',(#20,#30,#38,#46));
#20 = ORIENTED_EDGE('',*,*,#21,.F.);
#21 = EDGE_CURVE('',#22,#24,#26,.T.);
#22 = VERTEX_POINT('',#23);
#23 = CARTESIAN_POINT('',(0.45,0.4,0.E+000));
#24 = VERTEX_POINT('',#25);
#25 = CARTESIAN_POINT('',(0.8,0.4,0.E+000));
#26 = LINE('',#27,#28);
#27 = CARTESIAN_POINT('',(-0.8,0.4,0.E+000));
#28 = VECTOR('',#29,1.);
#29 = DIRECTION('',(1.,0.E+000,0.E+000));
#30 = ORIENTED_EDGE('',*,*,#31,.T.);
#31 = EDGE_CURVE('',#22,#32,#34,.T.);
#32 = VERTEX_POINT('',#33);
#33 = CARTESIAN_POINT('',(0.45,0.4,0.9));
#34 = LINE('',#35,#36);
#35 = CARTESIAN_POINT('',(0.45,0.4,0.45));
#36 = VECTOR('',#37,1.);
#37 = DIRECTION('',(0.E+000,0.E+000,1.));
#38 = ORIENTED_EDGE('',*,*,#39,.T.);
#39 = EDGE_CURVE('',#32,#40,#42,.T.);
#40 = VERTEX_POINT('',#41);
#41 = CARTESIAN_POINT('',(0.8,0.4,0.9));
#42 = LINE('',#43,#44);
#43 = CARTESIAN_POINT('',(-0.8,0.4,0.9));
#44 = VECTOR('',#45,1.);
#45 = DIRECTION('',(1.,0.E+000,0.E+000));
#46 = ORIENTED_EDGE('',*,*,#47,.F.);
#47 = EDGE_CURVE('',#24,#40,#48,.T.);
#48 = LINE('',#49,#50);
#49 = CARTESIAN_POINT('',(0.8,0.4,0.E+000));
#50 = VECTOR('',#51,1.);
#51 = DIRECTION('',(0.E+000,0.E+000,1.));
#52 = PLANE('',#53);
#53 = AXIS2_PLACEMENT_3D('',#54,#55,#56);
#54 = CARTESIAN_POINT('',(-0.8,0.4,0.E+000));
#55 = DIRECTION('',(0.E+000,1.,0.E+000));
#56 = DIRECTION('',(1.,0.E+000,0.E+000));
#57 = ADVANCED_FACE('',(#58),#83,.T.);
#58 = FACE_BOUND('',#59,.T.);
#59 = EDGE_LOOP('',(#60,#68,#69,#77));
#60 = ORIENTED_EDGE('',*,*,#61,.T.);
#61 = EDGE_CURVE('',#62,#22,#64,.T.);
#62 = VERTEX_POINT('',#63);
#63 = CARTESIAN_POINT('',(0.45,-0.4,0.E+000));
#64 = LINE('',#65,#66);
#65 = CARTESIAN_POINT('',(0.45,0.4216485,0.E+000));
#66 = VECTOR('',#67,1.);
#67 = DIRECTION('',(0.E+000,1.,0.E+000));
#68 = ORIENTED_EDGE('',*,*,#21,.T.);
#69 = ORIENTED_EDGE('',*,*,#70,.T.);
#70 = EDGE_CURVE('',#24,#71,#73,.T.);
#71 = VERTEX_POINT('',#72);
#72 = CARTESIAN_POINT('',(0.8,-0.4,0.E+000));
#73 = LINE('',#74,#75);
#74 = CARTESIAN_POINT('',(0.8,0.4,0.E+000));
#75 = VECTOR('',#76,1.);
#76 = DIRECTION('',(0.E+000,-1.,0.E+000));
#77 = ORIENTED_EDGE('',*,*,#78,.T.);
#78 = EDGE_CURVE('',#71,#62,#79,.T.);
#79 = LINE('',#80,#81);
#80 = CARTESIAN_POINT('',(0.8,-0.4,0.E+000));
#81 = VECTOR('',#82,1.);
#82 = DIRECTION('',(-1.,0.E+000,0.E+000));
#83 = PLANE('',#84);
#84 = AXIS2_PLACEMENT_3D('',#85,#86,#87);
#85 = CARTESIAN_POINT('',(0.E+000,0.E+000,0.E+000));
#86 = DIRECTION('',(-0.E+000,-0.E+000,-1.));
#87 = DIRECTION('',(-1.,0.E+000,0.E+000));
#88 = ADVANCED_FACE('',(#89),#107,.T.);
#89 = FACE_BOUND('',#90,.T.);
#90 = EDGE_LOOP('',(#91,#92,#100,#106));
#91 = ORIENTED_EDGE('',*,*,#47,.T.);
#92 = ORIENTED_EDGE('',*,*,#93,.T.);
#93 = EDGE_CURVE('',#40,#94,#96,.T.);
#94 = VERTEX_POINT('',#95);
#95 = CARTESIAN_POINT('',(0.8,-0.4,0.9));
#96 = LINE('',#97,#98);
#97 = CARTESIAN_POINT('',(0.8,0.4,0.9));
#98 = VECTOR('',#99,1.);
#99 = DIRECTION('',(0.E+000,-1.,0.E+000));
#100 = ORIENTED_EDGE('',*,*,#101,.F.);
#101 = EDGE_CURVE('',#71,#94,#102,.T.);
#102 = LINE('',#103,#104);
#103 = CARTESIAN_POINT('',(0.8,-0.4,0.E+000));
#104 = VECTOR('',#105,1.);
#105 = DIRECTION('',(0.E+000,0.E+000,1.));
#106 = ORIENTED_EDGE('',*,*,#70,.F.);
#107 = PLANE('',#108);
#108 = AXIS2_PLACEMENT_3D('',#109,#110,#111);
#109 = CARTESIAN_POINT('',(0.8,0.4,0.E+000));
#110 = DIRECTION('',(1.,0.E+000,0.E+000));
#111 = DIRECTION('',(0.E+000,-1.,0.E+000));
#112 = ADVANCED_FACE('',(#113),#131,.F.);
#113 = FACE_BOUND('',#114,.F.);
#114 = EDGE_LOOP('',(#115,#123,#124,#125));
#115 = ORIENTED_EDGE('',*,*,#116,.F.);
#116 = EDGE_CURVE('',#32,#117,#119,.T.);
#117 = VERTEX_POINT('',#118);
#118 = CARTESIAN_POINT('',(0.45,-0.4,0.9));
#119 = LINE('',#120,#121);
#120 = CARTESIAN_POINT('',(0.45,0.843297,0.9));
#121 = VECTOR('',#122,1.);
#122 = DIRECTION('',(0.E+000,-1.,0.E+000));
#123 = ORIENTED_EDGE('',*,*,#39,.T.);
#124 = ORIENTED_EDGE('',*,*,#93,.T.);
#125 = ORIENTED_EDGE('',*,*,#126,.T.);
#126 = EDGE_CURVE('',#94,#117,#127,.T.);
#127 = LINE('',#128,#129);
#128 = CARTESIAN_POINT('',(0.8,-0.4,0.9));
#129 = VECTOR('',#130,1.);
#130 = DIRECTION('',(-1.,0.E+000,0.E+000));
#131 = PLANE('',#132);
#132 = AXIS2_PLACEMENT_3D('',#133,#134,#135);
#133 = CARTESIAN_POINT('',(0.E+000,0.E+000,0.9));
#134 = DIRECTION('',(-0.E+000,-0.E+000,-1.));
#135 = DIRECTION('',(-1.,0.E+000,0.E+000));
#136 = ADVANCED_FACE('',(#137),#148,.T.);
#137 = FACE_BOUND('',#138,.T.);
#138 = EDGE_LOOP('',(#139,#140,#141,#142));
#139 = ORIENTED_EDGE('',*,*,#116,.F.);
#140 = ORIENTED_EDGE('',*,*,#31,.F.);
#141 = ORIENTED_EDGE('',*,*,#61,.F.);
#142 = ORIENTED_EDGE('',*,*,#143,.F.);
#143 = EDGE_CURVE('',#117,#62,#144,.T.);
#144 = LINE('',#145,#146);
#145 = CARTESIAN_POINT('',(0.45,-0.4,0.45));
#146 = VECTOR('',#147,1.);
#147 = DIRECTION('',(-0.E+000,-0.E+000,-1.));
#148 = PLANE('',#149);
#149 = AXIS2_PLACEMENT_3D('',#150,#151,#152);
#150 = CARTESIAN_POINT('',(0.45,0.843297,0.9));
#151 = DIRECTION('',(-1.,0.E+000,0.E+000));
#152 = DIRECTION('',(0.E+000,-1.,0.E+000));
#153 = ADVANCED_FACE('',(#154),#160,.T.);
#154 = FACE_BOUND('',#155,.T.);
#155 = EDGE_LOOP('',(#156,#157,#158,#159));
#156 = ORIENTED_EDGE('',*,*,#78,.F.);
#157 = ORIENTED_EDGE('',*,*,#101,.T.);
#158 = ORIENTED_EDGE('',*,*,#126,.T.);
#159 = ORIENTED_EDGE('',*,*,#143,.T.);
#160 = PLANE('',#161);
#161 = AXIS2_PLACEMENT_3D('',#162,#163,#164);
#162 = CARTESIAN_POINT('',(0.8,-0.4,0.E+000));
#163 = DIRECTION('',(0.E+000,-1.,0.E+000));
#164 = DIRECTION('',(-1.,0.E+000,0.E+000));
#165 = ( GEOMETRIC_REPRESENTATION_CONTEXT(3) 
GLOBAL_UNCERTAINTY_ASSIGNED_CONTEXT((#169)) GLOBAL_UNIT_ASSIGNED_CONTEXT
((#166,#167,#168)) REPRESENTATION_CONTEXT('Context #1',
  '3D Context with UNIT and UNCERTAINTY') );
#166 = ( LENGTH_UNIT() NAMED_UNIT(*) SI_UNIT(.MILLI.,.METRE.) );
#167 = ( NAMED_UNIT(*) PLANE_ANGLE_UNIT() SI_UNIT($,.RADIAN.) );
#168 = ( NAMED_UNIT(*) SI_UNIT($,.STERADIAN.) SOLID_ANGLE_UNIT() );
#169 = UNCERTAINTY_MEASURE_WITH_UNIT(LENGTH_MEASURE(1.E-007),#166,
  'distance_accuracy_value','confusion accuracy');
#170 = PRODUCT_RELATED_PRODUCT_CATEGORY('part',$,(#7));
#171 = SHAPE_DEFINITION_REPRESENTATION(#172,#178);
#172 = PRODUCT_DEFINITION_SHAPE('','',#173);
#173 = PRODUCT_DEFINITION('design','',#174,#177);
#174 = PRODUCT_DEFINITION_FORMATION('','',#175);
#175 = PRODUCT('Solid001','Solid001','',(#176));
#176 = PRODUCT_CONTEXT('',#2,'mechanical');
#177 = PRODUCT_DEFINITION_CONTEXT('part definition',#2,'design');
#178 = ADVANCED_BREP_SHAPE_REPRESENTATION('',(#11,#179),#329);
#179 = MANIFOLD_SOLID_BREP('',#180);
#180 = CLOSED_SHELL('',(#181,#221,#252,#276,#300,#317));
#181 = ADVANCED_FACE('',(#182),#216,.T.);
#182 = FACE_BOUND('',#183,.T.);
#183 = EDGE_LOOP('',(#184,#194,#202,#210));
#184 = ORIENTED_EDGE('',*,*,#185,.F.);
#185 = EDGE_CURVE('',#186,#188,#190,.T.);
#186 = VERTEX_POINT('',#187);
#187 = CARTESIAN_POINT('',(-0.45,0.4,0.E+000));
#188 = VERTEX_POINT('',#189);
#189 = CARTESIAN_POINT('',(0.45,0.4,0.E+000));
#190 = LINE('',#191,#192);
#191 = CARTESIAN_POINT('',(-0.8,0.4,0.E+000));
#192 = VECTOR('',#193,1.);
#193 = DIRECTION('',(1.,0.E+000,0.E+000));
#194 = ORIENTED_EDGE('',*,*,#195,.F.);
#195 = EDGE_CURVE('',#196,#186,#198,.T.);
#196 = VERTEX_POINT('',#197);
#197 = CARTESIAN_POINT('',(-0.45,0.4,0.9));
#198 = LINE('',#199,#200);
#199 = CARTESIAN_POINT('',(-0.45,0.4,0.45));
#200 = VECTOR('',#201,1.);
#201 = DIRECTION('',(0.E+000,0.E+000,-1.));
#202 = ORIENTED_EDGE('',*,*,#203,.T.);
#203 = EDGE_CURVE('',#196,#204,#206,.T.);
#204 = VERTEX_POINT('',#205);
#205 = CARTESIAN_POINT('',(0.45,0.4,0.9));
#206 = LINE('',#207,#208);
#207 = CARTESIAN_POINT('',(-0.8,0.4,0.9));
#208 = VECTOR('',#209,1.);
#209 = DIRECTION('',(1.,0.E+000,0.E+000));
#210 = ORIENTED_EDGE('',*,*,#211,.F.);
#211 = EDGE_CURVE('',#188,#204,#212,.T.);
#212 = LINE('',#213,#214);
#213 = CARTESIAN_POINT('',(0.45,0.4,0.45));
#214 = VECTOR('',#215,1.);
#215 = DIRECTION('',(0.E+000,0.E+000,1.));
#216 = PLANE('',#217);
#217 = AXIS2_PLACEMENT_3D('',#218,#219,#220);
#218 = CARTESIAN_POINT('',(-0.8,0.4,0.E+000));
#219 = DIRECTION('',(0.E+000,1.,0.E+000));
#220 = DIRECTION('',(1.,0.E+000,0.E+000));
#221 = ADVANCED_FACE('',(#222),#247,.T.);
#222 = FACE_BOUND('',#223,.T.);
#223 = EDGE_LOOP('',(#224,#232,#233,#241));
#224 = ORIENTED_EDGE('',*,*,#225,.F.);
#225 = EDGE_CURVE('',#186,#226,#228,.T.);
#226 = VERTEX_POINT('',#227);
#227 = CARTESIAN_POINT('',(-0.45,-0.4,0.E+000));
#228 = LINE('',#229,#230);
#229 = CARTESIAN_POINT('',(-0.45,-0.33,0.E+000));
#230 = VECTOR('',#231,1.);
#231 = DIRECTION('',(0.E+000,-1.,0.E+000));
#232 = ORIENTED_EDGE('',*,*,#185,.T.);
#233 = ORIENTED_EDGE('',*,*,#234,.F.);
#234 = EDGE_CURVE('',#235,#188,#237,.T.);
#235 = VERTEX_POINT('',#236);
#236 = CARTESIAN_POINT('',(0.45,-0.4,0.E+000));
#237 = LINE('',#238,#239);
#238 = CARTESIAN_POINT('',(0.45,0.4216485,0.E+000));
#239 = VECTOR('',#240,1.);
#240 = DIRECTION('',(0.E+000,1.,0.E+000));
#241 = ORIENTED_EDGE('',*,*,#242,.T.);
#242 = EDGE_CURVE('',#235,#226,#243,.T.);
#243 = LINE('',#244,#245);
#244 = CARTESIAN_POINT('',(0.8,-0.4,0.E+000));
#245 = VECTOR('',#246,1.);
#246 = DIRECTION('',(-1.,0.E+000,0.E+000));
#247 = PLANE('',#248);
#248 = AXIS2_PLACEMENT_3D('',#249,#250,#251);
#249 = CARTESIAN_POINT('',(0.E+000,0.E+000,0.E+000));
#250 = DIRECTION('',(-0.E+000,-0.E+000,-1.));
#251 = DIRECTION('',(-1.,0.E+000,0.E+000));
#252 = ADVANCED_FACE('',(#253),#271,.F.);
#253 = FACE_BOUND('',#254,.F.);
#254 = EDGE_LOOP('',(#255,#263,#264,#265));
#255 = ORIENTED_EDGE('',*,*,#256,.F.);
#256 = EDGE_CURVE('',#204,#257,#259,.T.);
#257 = VERTEX_POINT('',#258);
#258 = CARTESIAN_POINT('',(0.45,-0.4,0.9));
#259 = LINE('',#260,#261);
#260 = CARTESIAN_POINT('',(0.45,0.843297,0.9));
#261 = VECTOR('',#262,1.);
#262 = DIRECTION('',(0.E+000,-1.,0.E+000));
#263 = ORIENTED_EDGE('',*,*,#211,.F.);
#264 = ORIENTED_EDGE('',*,*,#234,.F.);
#265 = ORIENTED_EDGE('',*,*,#266,.F.);
#266 = EDGE_CURVE('',#257,#235,#267,.T.);
#267 = LINE('',#268,#269);
#268 = CARTESIAN_POINT('',(0.45,-0.4,0.45));
#269 = VECTOR('',#270,1.);
#270 = DIRECTION('',(-0.E+000,-0.E+000,-1.));
#271 = PLANE('',#272);
#272 = AXIS2_PLACEMENT_3D('',#273,#274,#275);
#273 = CARTESIAN_POINT('',(0.45,0.843297,0.9));
#274 = DIRECTION('',(-1.,0.E+000,0.E+000));
#275 = DIRECTION('',(0.E+000,-1.,0.E+000));
#276 = ADVANCED_FACE('',(#277),#295,.T.);
#277 = FACE_BOUND('',#278,.T.);
#278 = EDGE_LOOP('',(#279,#280,#288,#294));
#279 = ORIENTED_EDGE('',*,*,#203,.F.);
#280 = ORIENTED_EDGE('',*,*,#281,.F.);
#281 = EDGE_CURVE('',#282,#196,#284,.T.);
#282 = VERTEX_POINT('',#283);
#283 = CARTESIAN_POINT('',(-0.45,-0.4,0.9));
#284 = LINE('',#285,#286);
#285 = CARTESIAN_POINT('',(-0.45,-0.66,0.9));
#286 = VECTOR('',#287,1.);
#287 = DIRECTION('',(0.E+000,1.,0.E+000));
#288 = ORIENTED_EDGE('',*,*,#289,.F.);
#289 = EDGE_CURVE('',#257,#282,#290,.T.);
#290 = LINE('',#291,#292);
#291 = CARTESIAN_POINT('',(0.8,-0.4,0.9));
#292 = VECTOR('',#293,1.);
#293 = DIRECTION('',(-1.,0.E+000,0.E+000));
#294 = ORIENTED_EDGE('',*,*,#256,.F.);
#295 = PLANE('',#296);
#296 = AXIS2_PLACEMENT_3D('',#297,#298,#299);
#297 = CARTESIAN_POINT('',(-2.309791558482E-017,9.16485E-002,0.9));
#298 = DIRECTION('',(9.518593651256E-033,0.E+000,1.));
#299 = DIRECTION('',(1.,0.E+000,-9.518593651256E-033));
#300 = ADVANCED_FACE('',(#301),#312,.F.);
#301 = FACE_BOUND('',#302,.F.);
#302 = EDGE_LOOP('',(#303,#304,#310,#311));
#303 = ORIENTED_EDGE('',*,*,#281,.F.);
#304 = ORIENTED_EDGE('',*,*,#305,.F.);
#305 = EDGE_CURVE('',#226,#282,#306,.T.);
#306 = LINE('',#307,#308);
#307 = CARTESIAN_POINT('',(-0.45,-0.4,0.45));
#308 = VECTOR('',#309,1.);
#309 = DIRECTION('',(0.E+000,0.E+000,1.));
#310 = ORIENTED_EDGE('',*,*,#225,.F.);
#311 = ORIENTED_EDGE('',*,*,#195,.F.);
#312 = PLANE('',#313);
#313 = AXIS2_PLACEMENT_3D('',#314,#315,#316);
#314 = CARTESIAN_POINT('',(-0.45,-0.66,0.9));
#315 = DIRECTION('',(1.,0.E+000,0.E+000));
#316 = DIRECTION('',(0.E+000,1.,0.E+000));
#317 = ADVANCED_FACE('',(#318),#324,.T.);
#318 = FACE_BOUND('',#319,.T.);
#319 = EDGE_LOOP('',(#320,#321,#322,#323));
#320 = ORIENTED_EDGE('',*,*,#242,.F.);
#321 = ORIENTED_EDGE('',*,*,#266,.F.);
#322 = ORIENTED_EDGE('',*,*,#289,.T.);
#323 = ORIENTED_EDGE('',*,*,#305,.F.);
#324 = PLANE('',#325);
#325 = AXIS2_PLACEMENT_3D('',#326,#327,#328);
#326 = CARTESIAN_POINT('',(0.8,-0.4,0.E+000));
#327 = DIRECTION('',(0.E+000,-1.,0.E+000));
#328 = DIRECTION('',(-1.,0.E+000,0.E+000));
#329 = ( GEOMETRIC_REPRESENTATION_CONTEXT(3) 
GLOBAL_UNCERTAINTY_ASSIGNED_CONTEXT((#333)) GLOBAL_UNIT_ASSIGNED_CONTEXT
((#330,#331,#332)) REPRESENTATION_CONTEXT('Context #1',
  '3D Context with UNIT and UNCERTAINTY') );
#330 = ( LENGTH_UNIT() NAMED_UNIT(*) SI_UNIT(.MILLI.,.METRE.) );
#331 = ( NAMED_UNIT(*) PLANE_ANGLE_UNIT() SI_UNIT($,.RADIAN.) );
#332 = ( NAMED_UNIT(*) SI_UNIT($,.STERADIAN.) SOLID_ANGLE_UNIT() );
#333 = UNCERTAINTY_MEASURE_WITH_UNIT(LENGTH_MEASURE(2.E-007),#330,
  'distance_accuracy_value','confusion accuracy');
#334 = PRODUCT_RELATED_PRODUCT_CATEGORY('part',$,(#175));
#335 = SHAPE_DEFINITION_REPRESENTATION(#336,#342);
#336 = PRODUCT_DEFINITION_SHAPE('','',#337);
#337 = PRODUCT_DEFINITION('design','',#338,#341);
#338 = PRODUCT_DEFINITION_FORMATION('','',#339);
#339 = PRODUCT('Solid','Solid','',(#340));
#340 = PRODUCT_CONTEXT('',#2,'mechanical');
#341 = PRODUCT_DEFINITION_CONTEXT('part definition',#2,'design');
#342 = ADVANCED_BREP_SHAPE_REPRESENTATION('',(#11,#343),#493);
#343 = MANIFOLD_SOLID_BREP('',#344);
#344 = CLOSED_SHELL('',(#345,#385,#416,#440,#464,#481));
#345 = ADVANCED_FACE('',(#346),#380,.T.);
#346 = FACE_BOUND('',#347,.T.);
#347 = EDGE_LOOP('',(#348,#358,#366,#374));
#348 = ORIENTED_EDGE('',*,*,#349,.F.);
#349 = EDGE_CURVE('',#350,#352,#354,.T.);
#350 = VERTEX_POINT('',#351);
#351 = CARTESIAN_POINT('',(-0.8,0.4,0.E+000));
#352 = VERTEX_POINT('',#353);
#353 = CARTESIAN_POINT('',(-0.45,0.4,0.E+000));
#354 = LINE('',#355,#356);
#355 = CARTESIAN_POINT('',(-0.8,0.4,0.E+000));
#356 = VECTOR('',#357,1.);
#357 = DIRECTION('',(1.,0.E+000,0.E+000));
#358 = ORIENTED_EDGE('',*,*,#359,.T.);
#359 = EDGE_CURVE('',#350,#360,#362,.T.);
#360 = VERTEX_POINT('',#361);
#361 = CARTESIAN_POINT('',(-0.8,0.4,0.9));
#362 = LINE('',#363,#364);
#363 = CARTESIAN_POINT('',(-0.8,0.4,0.E+000));
#364 = VECTOR('',#365,1.);
#365 = DIRECTION('',(0.E+000,0.E+000,1.));
#366 = ORIENTED_EDGE('',*,*,#367,.T.);
#367 = EDGE_CURVE('',#360,#368,#370,.T.);
#368 = VERTEX_POINT('',#369);
#369 = CARTESIAN_POINT('',(-0.45,0.4,0.9));
#370 = LINE('',#371,#372);
#371 = CARTESIAN_POINT('',(-0.8,0.4,0.9));
#372 = VECTOR('',#373,1.);
#373 = DIRECTION('',(1.,0.E+000,0.E+000));
#374 = ORIENTED_EDGE('',*,*,#375,.T.);
#375 = EDGE_CURVE('',#368,#352,#376,.T.);
#376 = LINE('',#377,#378);
#377 = CARTESIAN_POINT('',(-0.45,0.4,0.45));
#378 = VECTOR('',#379,1.);
#379 = DIRECTION('',(0.E+000,0.E+000,-1.));
#380 = PLANE('',#381);
#381 = AXIS2_PLACEMENT_3D('',#382,#383,#384);
#382 = CARTESIAN_POINT('',(-0.8,0.4,0.E+000));
#383 = DIRECTION('',(0.E+000,1.,0.E+000));
#384 = DIRECTION('',(1.,0.E+000,0.E+000));
#385 = ADVANCED_FACE('',(#386),#411,.T.);
#386 = FACE_BOUND('',#387,.T.);
#387 = EDGE_LOOP('',(#388,#396,#397,#405));
#388 = ORIENTED_EDGE('',*,*,#389,.T.);
#389 = EDGE_CURVE('',#390,#350,#392,.T.);
#390 = VERTEX_POINT('',#391);
#391 = CARTESIAN_POINT('',(-0.8,-0.4,0.E+000));
#392 = LINE('',#393,#394);
#393 = CARTESIAN_POINT('',(-0.8,-0.4,0.E+000));
#394 = VECTOR('',#395,1.);
#395 = DIRECTION('',(0.E+000,1.,0.E+000));
#396 = ORIENTED_EDGE('',*,*,#349,.T.);
#397 = ORIENTED_EDGE('',*,*,#398,.T.);
#398 = EDGE_CURVE('',#352,#399,#401,.T.);
#399 = VERTEX_POINT('',#400);
#400 = CARTESIAN_POINT('',(-0.45,-0.4,0.E+000));
#401 = LINE('',#402,#403);
#402 = CARTESIAN_POINT('',(-0.45,-0.33,0.E+000));
#403 = VECTOR('',#404,1.);
#404 = DIRECTION('',(0.E+000,-1.,0.E+000));
#405 = ORIENTED_EDGE('',*,*,#406,.T.);
#406 = EDGE_CURVE('',#399,#390,#407,.T.);
#407 = LINE('',#408,#409);
#408 = CARTESIAN_POINT('',(0.8,-0.4,0.E+000));
#409 = VECTOR('',#410,1.);
#410 = DIRECTION('',(-1.,0.E+000,0.E+000));
#411 = PLANE('',#412);
#412 = AXIS2_PLACEMENT_3D('',#413,#414,#415);
#413 = CARTESIAN_POINT('',(0.E+000,0.E+000,0.E+000));
#414 = DIRECTION('',(-0.E+000,-0.E+000,-1.));
#415 = DIRECTION('',(-1.,0.E+000,0.E+000));
#416 = ADVANCED_FACE('',(#417),#435,.T.);
#417 = FACE_BOUND('',#418,.T.);
#418 = EDGE_LOOP('',(#419,#427,#433,#434));
#419 = ORIENTED_EDGE('',*,*,#420,.F.);
#420 = EDGE_CURVE('',#421,#368,#423,.T.);
#421 = VERTEX_POINT('',#422);
#422 = CARTESIAN_POINT('',(-0.45,-0.4,0.9));
#423 = LINE('',#424,#425);
#424 = CARTESIAN_POINT('',(-0.45,-0.66,0.9));
#425 = VECTOR('',#426,1.);
#426 = DIRECTION('',(0.E+000,1.,0.E+000));
#427 = ORIENTED_EDGE('',*,*,#428,.F.);
#428 = EDGE_CURVE('',#399,#421,#429,.T.);
#429 = LINE('',#430,#431);
#430 = CARTESIAN_POINT('',(-0.45,-0.4,0.45));
#431 = VECTOR('',#432,1.);
#432 = DIRECTION('',(0.E+000,0.E+000,1.));
#433 = ORIENTED_EDGE('',*,*,#398,.F.);
#434 = ORIENTED_EDGE('',*,*,#375,.F.);
#435 = PLANE('',#436);
#436 = AXIS2_PLACEMENT_3D('',#437,#438,#439);
#437 = CARTESIAN_POINT('',(-0.45,-0.66,0.9));
#438 = DIRECTION('',(1.,0.E+000,0.E+000));
#439 = DIRECTION('',(0.E+000,1.,0.E+000));
#440 = ADVANCED_FACE('',(#441),#459,.F.);
#441 = FACE_BOUND('',#442,.F.);
#442 = EDGE_LOOP('',(#443,#451,#452,#453));
#443 = ORIENTED_EDGE('',*,*,#444,.T.);
#444 = EDGE_CURVE('',#445,#360,#447,.T.);
#445 = VERTEX_POINT('',#446);
#446 = CARTESIAN_POINT('',(-0.8,-0.4,0.9));
#447 = LINE('',#448,#449);
#448 = CARTESIAN_POINT('',(-0.8,-0.4,0.9));
#449 = VECTOR('',#450,1.);
#450 = DIRECTION('',(0.E+000,1.,0.E+000));
#451 = ORIENTED_EDGE('',*,*,#367,.T.);
#452 = ORIENTED_EDGE('',*,*,#420,.F.);
#453 = ORIENTED_EDGE('',*,*,#454,.T.);
#454 = EDGE_CURVE('',#421,#445,#455,.T.);
#455 = LINE('',#456,#457);
#456 = CARTESIAN_POINT('',(0.8,-0.4,0.9));
#457 = VECTOR('',#458,1.);
#458 = DIRECTION('',(-1.,0.E+000,0.E+000));
#459 = PLANE('',#460);
#460 = AXIS2_PLACEMENT_3D('',#461,#462,#463);
#461 = CARTESIAN_POINT('',(0.E+000,0.E+000,0.9));
#462 = DIRECTION('',(-0.E+000,-0.E+000,-1.));
#463 = DIRECTION('',(-1.,0.E+000,0.E+000));
#464 = ADVANCED_FACE('',(#465),#476,.T.);
#465 = FACE_BOUND('',#466,.T.);
#466 = EDGE_LOOP('',(#467,#473,#474,#475));
#467 = ORIENTED_EDGE('',*,*,#468,.T.);
#468 = EDGE_CURVE('',#390,#445,#469,.T.);
#469 = LINE('',#470,#471);
#470 = CARTESIAN_POINT('',(-0.8,-0.4,0.E+000));
#471 = VECTOR('',#472,1.);
#472 = DIRECTION('',(0.E+000,0.E+000,1.));
#473 = ORIENTED_EDGE('',*,*,#444,.T.);
#474 = ORIENTED_EDGE('',*,*,#359,.F.);
#475 = ORIENTED_EDGE('',*,*,#389,.F.);
#476 = PLANE('',#477);
#477 = AXIS2_PLACEMENT_3D('',#478,#479,#480);
#478 = CARTESIAN_POINT('',(-0.8,-0.4,0.E+000));
#479 = DIRECTION('',(-1.,0.E+000,0.E+000));
#480 = DIRECTION('',(0.E+000,1.,0.E+000));
#481 = ADVANCED_FACE('',(#482),#488,.T.);
#482 = FACE_BOUND('',#483,.T.);
#483 = EDGE_LOOP('',(#484,#485,#486,#487));
#484 = ORIENTED_EDGE('',*,*,#406,.F.);
#485 = ORIENTED_EDGE('',*,*,#428,.T.);
#486 = ORIENTED_EDGE('',*,*,#454,.T.);
#487 = ORIENTED_EDGE('',*,*,#468,.F.);
#488 = PLANE('',#489);
#489 = AXIS2_PLACEMENT_3D('',#490,#491,#492);
#490 = CARTESIAN_POINT('',(0.8,-0.4,0.E+000));
#491 = DIRECTION('',(0.E+000,-1.,0.E+000));
#492 = DIRECTION('',(-1.,0.E+000,0.E+000));
#493 = ( GEOMETRIC_REPRESENTATION_CONTEXT(3) 
GLOBAL_UNCERTAINTY_ASSIGNED_CONTEXT((#497)) GLOBAL_UNIT_ASSIGNED_CONTEXT
((#494,#495,#496)) REPRESENTATION_CONTEXT('Context #1',
  '3D Context with UNIT and UNCERTAINTY') );
#494 = ( LENGTH_UNIT() NAMED_UNIT(*) SI_UNIT(.MILLI.,.METRE.) );
#495 = ( NAMED_UNIT(*) PLANE_ANGLE_UNIT() SI_UNIT($,.RADIAN.) );
#496 = ( NAMED_UNIT(*) SI_UNIT($,.STERADIAN.) SOLID_ANGLE_UNIT() );
#497 = UNCERTAINTY_MEASURE_WITH_UNIT(LENGTH_MEASURE(1.E-007),#494,
  'distance_accuracy_value','confusion accuracy');
#498 = PRODUCT_RELATED_PRODUCT_CATEGORY('part',$,(#339));
#499 = MECHANICAL_DESIGN_GEOMETRIC_PRESENTATION_REPRESENTATION('',(#500)
  ,#329);
#500 = STYLED_ITEM('color',(#501),#179);
#501 = PRESENTATION_STYLE_ASSIGNMENT((#502,#508));
#502 = SURFACE_STYLE_USAGE(.BOTH.,#503);
#503 = SURFACE_SIDE_STYLE('',(#504));
#504 = SURFACE_STYLE_FILL_AREA(#505);
#505 = FILL_AREA_STYLE('',(#506));
#506 = FILL_AREA_STYLE_COLOUR('',#507);
#507 = COLOUR_RGB('',0.850000023842,0.460000008345,0.230000004172);
#508 = CURVE_STYLE('',#509,POSITIVE_LENGTH_MEASURE(0.1),#507);
#509 = DRAUGHTING_PRE_DEFINED_CURVE_FONT('continuous');
#510 = MECHANICAL_DESIGN_GEOMETRIC_PRESENTATION_REPRESENTATION('',(#511)
  ,#165);
#511 = STYLED_ITEM('color',(#512),#15);
#512 = PRESENTATION_STYLE_ASSIGNMENT((#513,#519));
#513 = SURFACE_STYLE_USAGE(.BOTH.,#514);
#514 = SURFACE_SIDE_STYLE('',(#515));
#515 = SURFACE_STYLE_FILL_AREA(#516);
#516 = FILL_AREA_STYLE('',(#517));
#517 = FILL_AREA_STYLE_COLOUR('',#518);
#518 = COLOUR_RGB('',0.75,0.75,0.75);
#519 = CURVE_STYLE('',#520,POSITIVE_LENGTH_MEASURE(0.1),#518);
#520 = DRAUGHTING_PRE_DEFINED_CURVE_FONT('continuous');
#521 = MECHANICAL_DESIGN_GEOMETRIC_PRESENTATION_REPRESENTATION('',(#522)
  ,#493);
#522 = STYLED_ITEM('color',(#523),#343);
#523 = PRESENTATION_STYLE_ASSIGNMENT((#524,#529));
#524 = SURFACE_STYLE_USAGE(.BOTH.,#525);
#525 = SURFACE_SIDE_STYLE('',(#526));
#526 = SURFACE_STYLE_FILL_AREA(#527);
#527 = FILL_AREA_STYLE('',(#528));
#528 = FILL_AREA_STYLE_COLOUR('',#518);
#529 = CURVE_STYLE('',#530,POSITIVE_LENGTH_MEASURE(0.1),#518);
#530 = DRAUGHTING_PRE_DEFINED_CURVE_FONT('continuous');
ENDSEC;
END-ISO-10303-21;
