ISO-10303-21;
HEADER;
/* Generated by software containing ST-Developer
 * from STEP Tools, Inc. (www.steptools.com) 
 */

FILE_DESCRIPTION(
/* description */ ('Alibre Inc.'),
/* implementation_level */ '2;1');

FILE_NAME(
/* name */ 'export0',
/* time_stamp */ '2014-10-30T09:31:51+08:00',
/* author */ (''),
/* organization */ (''),
/* preprocessor_version */ 'ST-DEVELOPER v14',
/* originating_system */ 'Alibre',
/* authorisation */ '');

FILE_SCHEMA (('AUTOMOTIVE_DESIGN'));
ENDSEC;

DATA;
#10=CONTEXT_DEPENDENT_SHAPE_REPRESENTATION(#19,#108);
#11=CONTEXT_DEPENDENT_SHAPE_REPRESENTATION(#20,#109);
#12=CONTEXT_DEPENDENT_SHAPE_REPRESENTATION(#21,#110);
#13=NEXT_ASSEMBLY_USAGE_OCCURRENCE('NAUO_ID9','NAUO_NAME9',$,#113,#111,$);
#14=NEXT_ASSEMBLY_USAGE_OCCURRENCE('NAUO_ID19','NAUO_NAME19',$,#113,#111,
$);
#15=NEXT_ASSEMBLY_USAGE_OCCURRENCE('NAUO_ID29','NAUO_NAME29',$,#113,#112,
$);
#16=ITEM_DEFINED_TRANSFORMATION('ITD_NAME0',$,#1007,#1006);
#17=ITEM_DEFINED_TRANSFORMATION('ITD_NAME10',$,#1009,#1008);
#18=ITEM_DEFINED_TRANSFORMATION('ITD_NAME20',$,#1011,#1010);
#19=(
REPRESENTATION_RELATIONSHIP('61300211121_2',$,#128,#130)
REPRESENTATION_RELATIONSHIP_WITH_TRANSFORMATION(#16)
SHAPE_REPRESENTATION_RELATIONSHIP()
);
#20=(
REPRESENTATION_RELATIONSHIP('61300211121_2',$,#128,#130)
REPRESENTATION_RELATIONSHIP_WITH_TRANSFORMATION(#17)
SHAPE_REPRESENTATION_RELATIONSHIP()
);
#21=(
REPRESENTATION_RELATIONSHIP('61300211121_1',$,#129,#130)
REPRESENTATION_RELATIONSHIP_WITH_TRANSFORMATION(#18)
SHAPE_REPRESENTATION_RELATIONSHIP()
);
#22=STYLED_ITEM('NAME_0',(#95),#1482);
#23=STYLED_ITEM('NAME_0',(#96),#914);
#24=STYLED_ITEM('NAME_0',(#96),#915);
#25=STYLED_ITEM('NAME_0',(#96),#916);
#26=STYLED_ITEM('NAME_0',(#96),#917);
#27=STYLED_ITEM('NAME_0',(#96),#918);
#28=STYLED_ITEM('NAME_0',(#96),#919);
#29=STYLED_ITEM('NAME_0',(#96),#920);
#30=STYLED_ITEM('NAME_0',(#96),#921);
#31=STYLED_ITEM('NAME_0',(#96),#922);
#32=STYLED_ITEM('NAME_0',(#96),#923);
#33=STYLED_ITEM('NAME_0',(#96),#924);
#34=STYLED_ITEM('NAME_0',(#96),#925);
#35=STYLED_ITEM('NAME_0',(#96),#926);
#36=STYLED_ITEM('NAME_0',(#96),#927);
#37=STYLED_ITEM('NAME_0',(#97),#1483);
#38=STYLED_ITEM('NAME_0',(#98),#928);
#39=STYLED_ITEM('NAME_0',(#98),#929);
#40=STYLED_ITEM('NAME_0',(#98),#930);
#41=STYLED_ITEM('NAME_0',(#98),#931);
#42=STYLED_ITEM('NAME_0',(#98),#932);
#43=STYLED_ITEM('NAME_0',(#98),#933);
#44=STYLED_ITEM('NAME_0',(#98),#934);
#45=STYLED_ITEM('NAME_0',(#98),#935);
#46=STYLED_ITEM('NAME_0',(#98),#936);
#47=STYLED_ITEM('NAME_0',(#98),#937);
#48=STYLED_ITEM('NAME_0',(#98),#938);
#49=STYLED_ITEM('NAME_0',(#98),#939);
#50=STYLED_ITEM('NAME_0',(#98),#940);
#51=STYLED_ITEM('NAME_0',(#98),#941);
#52=STYLED_ITEM('NAME_0',(#98),#942);
#53=STYLED_ITEM('NAME_0',(#98),#943);
#54=STYLED_ITEM('NAME_0',(#98),#944);
#55=STYLED_ITEM('NAME_0',(#98),#945);
#56=STYLED_ITEM('NAME_0',(#98),#946);
#57=STYLED_ITEM('NAME_0',(#98),#947);
#58=STYLED_ITEM('NAME_0',(#98),#948);
#59=STYLED_ITEM('NAME_0',(#98),#949);
#60=STYLED_ITEM('NAME_0',(#98),#950);
#61=STYLED_ITEM('NAME_0',(#98),#951);
#62=STYLED_ITEM('NAME_0',(#98),#952);
#63=STYLED_ITEM('NAME_0',(#98),#953);
#64=STYLED_ITEM('NAME_0',(#98),#954);
#65=STYLED_ITEM('NAME_0',(#98),#955);
#66=STYLED_ITEM('NAME_0',(#98),#956);
#67=STYLED_ITEM('NAME_0',(#98),#957);
#68=STYLED_ITEM('NAME_0',(#98),#958);
#69=STYLED_ITEM('NAME_0',(#98),#959);
#70=MECHANICAL_DESIGN_GEOMETRIC_PRESENTATION_REPRESENTATION('NAME_0',(#22,
#23,#24,#25,#26,#27,#28,#29,#30,#31,#32,#33,#34,#35,#36,#37,#38,#39,#40,
#41,#42,#43,#44,#45,#46,#47,#48,#49,#50,#51,#52,#53,#54,#55,#56,#57,#58,
#59,#60,#61,#62,#63,#64,#65,#66,#67,#68,#69),#145);
#71=COLOUR_RGB('',0.211764705882353,0.211764705882353,0.211764705882353);
#72=COLOUR_RGB('',0.749019607843137,0.568627450980392,0.407843137254902);
#73=COLOUR_RGB('',0.211764705882353,0.211764705882353,0.211764705882353);
#74=COLOUR_RGB('',0.2,0.2,0.2);
#75=FILL_AREA_STYLE_COLOUR('NAME_0',#71);
#76=FILL_AREA_STYLE_COLOUR('NAME_0',#72);
#77=FILL_AREA_STYLE_COLOUR('NAME_0',#73);
#78=FILL_AREA_STYLE_COLOUR('NAME_0',#74);
#79=FILL_AREA_STYLE('NAME_0',(#75));
#80=FILL_AREA_STYLE('NAME_0',(#76));
#81=FILL_AREA_STYLE('NAME_0',(#77));
#82=FILL_AREA_STYLE('NAME_0',(#78));
#83=SURFACE_STYLE_FILL_AREA(#79);
#84=SURFACE_STYLE_FILL_AREA(#80);
#85=SURFACE_STYLE_FILL_AREA(#81);
#86=SURFACE_STYLE_FILL_AREA(#82);
#87=SURFACE_SIDE_STYLE('NAME_0',(#83));
#88=SURFACE_SIDE_STYLE('NAME_0',(#84));
#89=SURFACE_SIDE_STYLE('NAME_0',(#85));
#90=SURFACE_SIDE_STYLE('NAME_0',(#86));
#91=SURFACE_STYLE_USAGE(.POSITIVE.,#87);
#92=SURFACE_STYLE_USAGE(.POSITIVE.,#88);
#93=SURFACE_STYLE_USAGE(.POSITIVE.,#89);
#94=SURFACE_STYLE_USAGE(.POSITIVE.,#90);
#95=PRESENTATION_STYLE_ASSIGNMENT((#91));
#96=PRESENTATION_STYLE_ASSIGNMENT((#92));
#97=PRESENTATION_STYLE_ASSIGNMENT((#93));
#98=PRESENTATION_STYLE_ASSIGNMENT((#94));
#99=PRODUCT_DEFINITION_CONTEXT('part definition',#121,'design');
#100=PRODUCT_DEFINITION_CONTEXT('part definition',#121,'design');
#101=PRODUCT_DEFINITION_CONTEXT('part definition',#121,'design');
#102=SHAPE_DEFINITION_REPRESENTATION(#105,#128);
#103=SHAPE_DEFINITION_REPRESENTATION(#106,#129);
#104=SHAPE_DEFINITION_REPRESENTATION(#107,#130);
#105=PRODUCT_DEFINITION_SHAPE('PRODUCT_VERSION_ID',
'PRODUCT_VERSION_DESCR',#111);
#106=PRODUCT_DEFINITION_SHAPE('PRODUCT_VERSION_ID',
'PRODUCT_VERSION_DESCR',#112);
#107=PRODUCT_DEFINITION_SHAPE('PRODUCT_VERSION_ID',
'PRODUCT_VERSION_DESCR',#113);
#108=PRODUCT_DEFINITION_SHAPE('NAME_10',$,#13);
#109=PRODUCT_DEFINITION_SHAPE('NAME_20',$,#14);
#110=PRODUCT_DEFINITION_SHAPE('NAME_30',$,#15);
#111=PRODUCT_DEFINITION('61300211121_2','PRODUCT_VERSION_DESCR',#114,#99);
#112=PRODUCT_DEFINITION('61300211121_1','PRODUCT_VERSION_DESCR',#115,#100);
#113=PRODUCT_DEFINITION('PRODUCT_VERSION_ID','PRODUCT_VERSION_DESCR',#116,
#101);
#114=PRODUCT_DEFINITION_FORMATION_WITH_SPECIFIED_SOURCE(
'PRODUCT_VERSION_ID','PRODUCT_VERSION_DESCR',#125,.MADE.);
#115=PRODUCT_DEFINITION_FORMATION_WITH_SPECIFIED_SOURCE(
'PRODUCT_VERSION_ID','PRODUCT_VERSION_DESCR',#126,.MADE.);
#116=PRODUCT_DEFINITION_FORMATION_WITH_SPECIFIED_SOURCE(
'PRODUCT_VERSION_ID','PRODUCT_VERSION_DESCR',#127,.MADE.);
#117=PRODUCT_RELATED_PRODUCT_CATEGORY('part','part',(#125));
#118=PRODUCT_RELATED_PRODUCT_CATEGORY('part','part',(#126));
#119=PRODUCT_RELATED_PRODUCT_CATEGORY('part','part',(#127));
#120=APPLICATION_PROTOCOL_DEFINITION('Draft International Standard',
'automotive_design',1994,#121);
#121=APPLICATION_CONTEXT('automotive_Design');
#122=PRODUCT_CONTEXT('3D Mechanical Parts',#121,'mechanical');
#123=PRODUCT_CONTEXT('3D Mechanical Parts',#121,'mechanical');
#124=PRODUCT_CONTEXT('3D Mechanical Parts',#121,'mechanical');
#125=PRODUCT('','61300211121_2','',(#122));
#126=PRODUCT('','61300211121_1','',(#123));
#127=PRODUCT('','61300211121','',(#124));
#128=SHAPE_REPRESENTATION('61300211121_2',(#1007,#1009),#145);
#129=SHAPE_REPRESENTATION('61300211121_1',(#1011),#146);
#130=SHAPE_REPRESENTATION('NAME_0',(#1006,#1008,#1010),#147);
#131=SHAPE_REPRESENTATION_RELATIONSHIP('NAME_0',$,#128,#1484);
#132=SHAPE_REPRESENTATION_RELATIONSHIP('NAME_0',$,#129,#1485);
#133=(
LENGTH_UNIT()
NAMED_UNIT(*)
SI_UNIT(.MILLI.,.METRE.)
);
#134=(
LENGTH_UNIT()
NAMED_UNIT(*)
SI_UNIT(.MILLI.,.METRE.)
);
#135=(
LENGTH_UNIT()
NAMED_UNIT(*)
SI_UNIT(.MILLI.,.METRE.)
);
#136=(
NAMED_UNIT(*)
PLANE_ANGLE_UNIT()
SI_UNIT($,.RADIAN.)
);
#137=(
NAMED_UNIT(*)
PLANE_ANGLE_UNIT()
SI_UNIT($,.RADIAN.)
);
#138=(
NAMED_UNIT(*)
PLANE_ANGLE_UNIT()
SI_UNIT($,.RADIAN.)
);
#139=(
NAMED_UNIT(*)
SI_UNIT($,.STERADIAN.)
SOLID_ANGLE_UNIT()
);
#140=(
NAMED_UNIT(*)
SI_UNIT($,.STERADIAN.)
SOLID_ANGLE_UNIT()
);
#141=(
NAMED_UNIT(*)
SI_UNIT($,.STERADIAN.)
SOLID_ANGLE_UNIT()
);
#142=UNCERTAINTY_MEASURE_WITH_UNIT(LENGTH_MEASURE(1.E-006),#133,
'DISTANCE_ACCURACY_VALUE',
'Maximum model space distance between geometric entities at asserted co
nnectivities');
#143=UNCERTAINTY_MEASURE_WITH_UNIT(LENGTH_MEASURE(1.E-006),#134,
'DISTANCE_ACCURACY_VALUE',
'Maximum model space distance between geometric entities at asserted co
nnectivities');
#144=UNCERTAINTY_MEASURE_WITH_UNIT(LENGTH_MEASURE(1.E-006),#135,
'DISTANCE_ACCURACY_VALUE',
'Maximum model space distance between geometric entities at asserted co
nnectivities');
#145=(
GEOMETRIC_REPRESENTATION_CONTEXT(3)
GLOBAL_UNCERTAINTY_ASSIGNED_CONTEXT((#142))
GLOBAL_UNIT_ASSIGNED_CONTEXT((#139,#136,#133))
REPRESENTATION_CONTEXT('ID1','3D')
);
#146=(
GEOMETRIC_REPRESENTATION_CONTEXT(3)
GLOBAL_UNCERTAINTY_ASSIGNED_CONTEXT((#143))
GLOBAL_UNIT_ASSIGNED_CONTEXT((#140,#137,#134))
REPRESENTATION_CONTEXT('ID1','3D')
);
#147=(
GEOMETRIC_REPRESENTATION_CONTEXT(3)
GLOBAL_UNCERTAINTY_ASSIGNED_CONTEXT((#144))
GLOBAL_UNIT_ASSIGNED_CONTEXT((#141,#138,#135))
REPRESENTATION_CONTEXT('ID1','3D')
);
#148=VERTEX_POINT('',#1190);
#149=VERTEX_POINT('',#1191);
#150=VERTEX_POINT('',#1193);
#151=VERTEX_POINT('',#1195);
#152=VERTEX_POINT('',#1199);
#153=VERTEX_POINT('',#1201);
#154=VERTEX_POINT('',#1205);
#155=VERTEX_POINT('',#1207);
#156=VERTEX_POINT('',#1211);
#157=VERTEX_POINT('',#1212);
#158=VERTEX_POINT('',#1219);
#159=VERTEX_POINT('',#1225);
#160=VERTEX_POINT('',#1231);
#161=VERTEX_POINT('',#1232);
#162=VERTEX_POINT('',#1234);
#163=VERTEX_POINT('',#1236);
#164=VERTEX_POINT('',#1248);
#165=VERTEX_POINT('',#1249);
#166=VERTEX_POINT('',#1251);
#167=VERTEX_POINT('',#1253);
#168=VERTEX_POINT('',#1256);
#169=VERTEX_POINT('',#1257);
#170=VERTEX_POINT('',#1259);
#171=VERTEX_POINT('',#1261);
#172=VERTEX_POINT('',#1263);
#173=VERTEX_POINT('',#1265);
#174=VERTEX_POINT('',#1267);
#175=VERTEX_POINT('',#1269);
#176=VERTEX_POINT('',#1271);
#177=VERTEX_POINT('',#1273);
#178=VERTEX_POINT('',#1275);
#179=VERTEX_POINT('',#1277);
#180=VERTEX_POINT('',#1279);
#181=VERTEX_POINT('',#1281);
#182=VERTEX_POINT('',#1284);
#183=VERTEX_POINT('',#1285);
#184=VERTEX_POINT('',#1287);
#185=VERTEX_POINT('',#1289);
#186=VERTEX_POINT('',#1293);
#187=VERTEX_POINT('',#1295);
#188=VERTEX_POINT('',#1299);
#189=VERTEX_POINT('',#1303);
#190=VERTEX_POINT('',#1304);
#191=VERTEX_POINT('',#1306);
#192=VERTEX_POINT('',#1308);
#193=VERTEX_POINT('',#1310);
#194=VERTEX_POINT('',#1312);
#195=VERTEX_POINT('',#1314);
#196=VERTEX_POINT('',#1316);
#197=VERTEX_POINT('',#1318);
#198=VERTEX_POINT('',#1320);
#199=VERTEX_POINT('',#1322);
#200=VERTEX_POINT('',#1324);
#201=VERTEX_POINT('',#1326);
#202=VERTEX_POINT('',#1328);
#203=VERTEX_POINT('',#1331);
#204=VERTEX_POINT('',#1332);
#205=VERTEX_POINT('',#1334);
#206=VERTEX_POINT('',#1336);
#207=VERTEX_POINT('',#1339);
#208=VERTEX_POINT('',#1346);
#209=VERTEX_POINT('',#1347);
#210=VERTEX_POINT('',#1352);
#211=VERTEX_POINT('',#1353);
#212=VERTEX_POINT('',#1358);
#213=VERTEX_POINT('',#1359);
#214=VERTEX_POINT('',#1361);
#215=VERTEX_POINT('',#1363);
#216=VERTEX_POINT('',#1370);
#217=VERTEX_POINT('',#1374);
#218=VERTEX_POINT('',#1382);
#219=VERTEX_POINT('',#1384);
#220=VERTEX_POINT('',#1401);
#221=VERTEX_POINT('',#1403);
#222=VERTEX_POINT('',#1407);
#223=VERTEX_POINT('',#1411);
#224=VECTOR('',#1013,1.);
#225=VECTOR('',#1014,1.);
#226=VECTOR('',#1015,1.);
#227=VECTOR('',#1016,1.);
#228=VECTOR('',#1018,1.);
#229=VECTOR('',#1019,1.);
#230=VECTOR('',#1020,1.);
#231=VECTOR('',#1022,1.);
#232=VECTOR('',#1023,1.);
#233=VECTOR('',#1024,1.);
#234=VECTOR('',#1026,1.);
#235=VECTOR('',#1027,1.);
#236=VECTOR('',#1028,1.);
#237=VECTOR('',#1030,1.);
#238=VECTOR('',#1032,1.);
#239=VECTOR('',#1033,1.);
#240=VECTOR('',#1035,1.);
#241=VECTOR('',#1037,1.);
#242=VECTOR('',#1038,1.);
#243=VECTOR('',#1040,1.);
#244=VECTOR('',#1042,1.);
#245=VECTOR('',#1043,1.);
#246=VECTOR('',#1044,1.);
#247=VECTOR('',#1045,1.);
#248=VECTOR('',#1047,1.);
#249=VECTOR('',#1048,1.);
#250=VECTOR('',#1050,1.);
#251=VECTOR('',#1052,1.);
#252=VECTOR('',#1055,1.);
#253=VECTOR('',#1056,1.);
#254=VECTOR('',#1057,1.);
#255=VECTOR('',#1058,1.);
#256=VECTOR('',#1059,1.);
#257=VECTOR('',#1060,1.);
#258=VECTOR('',#1061,1.);
#259=VECTOR('',#1062,1.);
#260=VECTOR('',#1063,1.);
#261=VECTOR('',#1064,1.);
#262=VECTOR('',#1065,1.);
#263=VECTOR('',#1066,1.);
#264=VECTOR('',#1067,1.);
#265=VECTOR('',#1068,1.);
#266=VECTOR('',#1069,1.);
#267=VECTOR('',#1070,1.);
#268=VECTOR('',#1071,1.);
#269=VECTOR('',#1072,1.);
#270=VECTOR('',#1073,1.);
#271=VECTOR('',#1074,1.);
#272=VECTOR('',#1075,1.);
#273=VECTOR('',#1076,1.);
#274=VECTOR('',#1078,1.);
#275=VECTOR('',#1079,1.);
#276=VECTOR('',#1080,1.);
#277=VECTOR('',#1082,1.);
#278=VECTOR('',#1083,1.);
#279=VECTOR('',#1085,1.);
#280=VECTOR('',#1086,1.);
#281=VECTOR('',#1087,1.);
#282=VECTOR('',#1088,1.);
#283=VECTOR('',#1089,1.);
#284=VECTOR('',#1090,1.);
#285=VECTOR('',#1091,1.);
#286=VECTOR('',#1092,1.);
#287=VECTOR('',#1093,1.);
#288=VECTOR('',#1094,1.);
#289=VECTOR('',#1095,1.);
#290=VECTOR('',#1096,1.);
#291=VECTOR('',#1097,1.);
#292=VECTOR('',#1098,1.);
#293=VECTOR('',#1099,1.);
#294=VECTOR('',#1100,1.);
#295=VECTOR('',#1101,1.);
#296=VECTOR('',#1102,1.);
#297=VECTOR('',#1103,1.);
#298=VECTOR('',#1104,1.);
#299=VECTOR('',#1106,1.);
#300=VECTOR('',#1109,1.);
#301=VECTOR('',#1110,1.);
#302=VECTOR('',#1111,1.);
#303=VECTOR('',#1113,1.);
#304=VECTOR('',#1114,1.);
#305=VECTOR('',#1115,1.);
#306=VECTOR('',#1117,1.);
#307=VECTOR('',#1118,1.);
#308=VECTOR('',#1119,1.);
#309=VECTOR('',#1120,1.);
#310=VECTOR('',#1122,1.);
#311=VECTOR('',#1123,1.);
#312=VECTOR('',#1125,1.);
#313=VECTOR('',#1126,1.);
#314=VECTOR('',#1128,1.);
#315=VECTOR('',#1129,1.);
#316=VECTOR('',#1131,1.);
#317=VECTOR('',#1133,1.);
#318=VECTOR('',#1135,1.);
#319=VECTOR('',#1136,1.);
#320=VECTOR('',#1137,1.);
#321=VECTOR('',#1139,1.);
#322=VECTOR('',#1140,1.);
#323=VECTOR('',#1142,1.);
#324=VECTOR('',#1144,1.);
#325=VECTOR('',#1145,1.);
#326=VECTOR('',#1147,1.);
#327=VECTOR('',#1149,1.);
#328=VECTOR('',#1150,1.);
#329=VECTOR('',#1152,1.);
#330=VECTOR('',#1153,1.);
#331=VECTOR('',#1154,1.);
#332=VECTOR('',#1156,1.);
#333=VECTOR('',#1157,1.);
#334=VECTOR('',#1159,1.);
#335=VECTOR('',#1160,1.);
#336=VECTOR('',#1162,1.);
#337=VECTOR('',#1165,1.);
#338=VECTOR('',#1167,1.);
#339=VECTOR('',#1168,1.);
#340=VECTOR('',#1170,1.);
#341=VECTOR('',#1172,1.);
#342=LINE('',#1189,#224);
#343=LINE('',#1192,#225);
#344=LINE('',#1194,#226);
#345=LINE('',#1196,#227);
#346=LINE('',#1198,#228);
#347=LINE('',#1200,#229);
#348=LINE('',#1202,#230);
#349=LINE('',#1204,#231);
#350=LINE('',#1206,#232);
#351=LINE('',#1208,#233);
#352=LINE('',#1210,#234);
#353=LINE('',#1213,#235);
#354=LINE('',#1214,#236);
#355=LINE('',#1216,#237);
#356=LINE('',#1218,#238);
#357=LINE('',#1220,#239);
#358=LINE('',#1222,#240);
#359=LINE('',#1224,#241);
#360=LINE('',#1226,#242);
#361=LINE('',#1228,#243);
#362=LINE('',#1230,#244);
#363=LINE('',#1233,#245);
#364=LINE('',#1235,#246);
#365=LINE('',#1237,#247);
#366=LINE('',#1239,#248);
#367=LINE('',#1240,#249);
#368=LINE('',#1242,#250);
#369=LINE('',#1244,#251);
#370=LINE('',#1247,#252);
#371=LINE('',#1250,#253);
#372=LINE('',#1252,#254);
#373=LINE('',#1254,#255);
#374=LINE('',#1255,#256);
#375=LINE('',#1258,#257);
#376=LINE('',#1260,#258);
#377=LINE('',#1262,#259);
#378=LINE('',#1264,#260);
#379=LINE('',#1266,#261);
#380=LINE('',#1268,#262);
#381=LINE('',#1270,#263);
#382=LINE('',#1272,#264);
#383=LINE('',#1274,#265);
#384=LINE('',#1276,#266);
#385=LINE('',#1278,#267);
#386=LINE('',#1280,#268);
#387=LINE('',#1282,#269);
#388=LINE('',#1283,#270);
#389=LINE('',#1286,#271);
#390=LINE('',#1288,#272);
#391=LINE('',#1290,#273);
#392=LINE('',#1292,#274);
#393=LINE('',#1294,#275);
#394=LINE('',#1296,#276);
#395=LINE('',#1298,#277);
#396=LINE('',#1300,#278);
#397=LINE('',#1302,#279);
#398=LINE('',#1305,#280);
#399=LINE('',#1307,#281);
#400=LINE('',#1309,#282);
#401=LINE('',#1311,#283);
#402=LINE('',#1313,#284);
#403=LINE('',#1315,#285);
#404=LINE('',#1317,#286);
#405=LINE('',#1319,#287);
#406=LINE('',#1321,#288);
#407=LINE('',#1323,#289);
#408=LINE('',#1325,#290);
#409=LINE('',#1327,#291);
#410=LINE('',#1329,#292);
#411=LINE('',#1330,#293);
#412=LINE('',#1333,#294);
#413=LINE('',#1335,#295);
#414=LINE('',#1337,#296);
#415=LINE('',#1338,#297);
#416=LINE('',#1340,#298);
#417=LINE('',#1342,#299);
#418=LINE('',#1345,#300);
#419=LINE('',#1348,#301);
#420=LINE('',#1349,#302);
#421=LINE('',#1351,#303);
#422=LINE('',#1354,#304);
#423=LINE('',#1355,#305);
#424=LINE('',#1357,#306);
#425=LINE('',#1360,#307);
#426=LINE('',#1362,#308);
#427=LINE('',#1364,#309);
#428=LINE('',#1366,#310);
#429=LINE('',#1367,#311);
#430=LINE('',#1369,#312);
#431=LINE('',#1371,#313);
#432=LINE('',#1373,#314);
#433=LINE('',#1375,#315);
#434=LINE('',#1377,#316);
#435=LINE('',#1379,#317);
#436=LINE('',#1381,#318);
#437=LINE('',#1383,#319);
#438=LINE('',#1385,#320);
#439=LINE('',#1387,#321);
#440=LINE('',#1388,#322);
#441=LINE('',#1390,#323);
#442=LINE('',#1392,#324);
#443=LINE('',#1393,#325);
#444=LINE('',#1395,#326);
#445=LINE('',#1397,#327);
#446=LINE('',#1398,#328);
#447=LINE('',#1400,#329);
#448=LINE('',#1402,#330);
#449=LINE('',#1404,#331);
#450=LINE('',#1406,#332);
#451=LINE('',#1408,#333);
#452=LINE('',#1410,#334);
#453=LINE('',#1412,#335);
#454=LINE('',#1414,#336);
#455=LINE('',#1417,#337);
#456=LINE('',#1419,#338);
#457=LINE('',#1420,#339);
#458=LINE('',#1422,#340);
#459=LINE('',#1424,#341);
#460=EDGE_CURVE('',#148,#149,#342,.T.);
#461=EDGE_CURVE('',#149,#150,#343,.T.);
#462=EDGE_CURVE('',#150,#151,#344,.T.);
#463=EDGE_CURVE('',#151,#148,#345,.T.);
#464=EDGE_CURVE('',#152,#151,#346,.T.);
#465=EDGE_CURVE('',#153,#152,#347,.T.);
#466=EDGE_CURVE('',#148,#153,#348,.F.);
#467=EDGE_CURVE('',#152,#154,#349,.T.);
#468=EDGE_CURVE('',#154,#155,#350,.T.);
#469=EDGE_CURVE('',#155,#153,#351,.T.);
#470=EDGE_CURVE('',#156,#157,#352,.T.);
#471=EDGE_CURVE('',#157,#154,#353,.T.);
#472=EDGE_CURVE('',#152,#156,#354,.T.);
#473=EDGE_CURVE('',#156,#150,#355,.F.);
#474=EDGE_CURVE('',#149,#158,#356,.F.);
#475=EDGE_CURVE('',#156,#158,#357,.T.);
#476=EDGE_CURVE('',#158,#153,#358,.T.);
#477=EDGE_CURVE('',#159,#158,#359,.T.);
#478=EDGE_CURVE('',#159,#157,#360,.T.);
#479=EDGE_CURVE('',#155,#159,#361,.T.);
#480=EDGE_CURVE('',#160,#161,#362,.T.);
#481=EDGE_CURVE('',#161,#162,#363,.T.);
#482=EDGE_CURVE('',#162,#163,#364,.T.);
#483=EDGE_CURVE('',#163,#160,#365,.T.);
#484=EDGE_CURVE('',#160,#159,#366,.T.);
#485=EDGE_CURVE('',#157,#163,#367,.F.);
#486=EDGE_CURVE('',#154,#162,#368,.T.);
#487=EDGE_CURVE('',#161,#155,#369,.T.);
#488=EDGE_CURVE('',#164,#165,#370,.T.);
#489=EDGE_CURVE('',#165,#166,#371,.T.);
#490=EDGE_CURVE('',#166,#167,#372,.T.);
#491=EDGE_CURVE('',#167,#164,#373,.T.);
#492=EDGE_CURVE('',#168,#169,#374,.T.);
#493=EDGE_CURVE('',#169,#170,#375,.T.);
#494=EDGE_CURVE('',#170,#171,#376,.T.);
#495=EDGE_CURVE('',#171,#172,#377,.T.);
#496=EDGE_CURVE('',#172,#173,#378,.T.);
#497=EDGE_CURVE('',#173,#174,#379,.T.);
#498=EDGE_CURVE('',#174,#175,#380,.T.);
#499=EDGE_CURVE('',#176,#175,#381,.T.);
#500=EDGE_CURVE('',#176,#177,#382,.T.);
#501=EDGE_CURVE('',#178,#177,#383,.T.);
#502=EDGE_CURVE('',#178,#179,#384,.T.);
#503=EDGE_CURVE('',#179,#180,#385,.T.);
#504=EDGE_CURVE('',#181,#180,#386,.T.);
#505=EDGE_CURVE('',#181,#168,#387,.T.);
#506=EDGE_CURVE('',#182,#183,#388,.T.);
#507=EDGE_CURVE('',#183,#184,#389,.T.);
#508=EDGE_CURVE('',#184,#185,#390,.T.);
#509=EDGE_CURVE('',#185,#182,#391,.T.);
#510=EDGE_CURVE('',#186,#185,#392,.T.);
#511=EDGE_CURVE('',#187,#184,#393,.T.);
#512=EDGE_CURVE('',#186,#187,#394,.T.);
#513=EDGE_CURVE('',#188,#182,#395,.T.);
#514=EDGE_CURVE('',#188,#186,#396,.T.);
#515=EDGE_CURVE('',#189,#190,#397,.T.);
#516=EDGE_CURVE('',#191,#189,#398,.T.);
#517=EDGE_CURVE('',#192,#191,#399,.T.);
#518=EDGE_CURVE('',#193,#192,#400,.T.);
#519=EDGE_CURVE('',#193,#194,#401,.T.);
#520=EDGE_CURVE('',#195,#194,#402,.T.);
#521=EDGE_CURVE('',#196,#195,#403,.T.);
#522=EDGE_CURVE('',#196,#197,#404,.T.);
#523=EDGE_CURVE('',#198,#197,#405,.T.);
#524=EDGE_CURVE('',#199,#198,#406,.T.);
#525=EDGE_CURVE('',#200,#199,#407,.T.);
#526=EDGE_CURVE('',#201,#200,#408,.T.);
#527=EDGE_CURVE('',#202,#201,#409,.T.);
#528=EDGE_CURVE('',#190,#202,#410,.T.);
#529=EDGE_CURVE('',#203,#204,#411,.T.);
#530=EDGE_CURVE('',#205,#203,#412,.T.);
#531=EDGE_CURVE('',#206,#205,#413,.T.);
#532=EDGE_CURVE('',#204,#206,#414,.T.);
#533=EDGE_CURVE('',#187,#207,#415,.T.);
#534=EDGE_CURVE('',#207,#188,#416,.T.);
#535=EDGE_CURVE('',#207,#183,#417,.T.);
#536=EDGE_CURVE('',#208,#209,#418,.T.);
#537=EDGE_CURVE('',#197,#209,#419,.T.);
#538=EDGE_CURVE('',#208,#196,#420,.T.);
#539=EDGE_CURVE('',#210,#211,#421,.T.);
#540=EDGE_CURVE('',#194,#211,#422,.T.);
#541=EDGE_CURVE('',#210,#193,#423,.T.);
#542=EDGE_CURVE('',#212,#213,#424,.T.);
#543=EDGE_CURVE('',#213,#214,#425,.T.);
#544=EDGE_CURVE('',#214,#215,#426,.T.);
#545=EDGE_CURVE('',#215,#212,#427,.T.);
#546=EDGE_CURVE('',#169,#198,#428,.T.);
#547=EDGE_CURVE('',#199,#168,#429,.T.);
#548=EDGE_CURVE('',#216,#209,#430,.T.);
#549=EDGE_CURVE('',#216,#170,#431,.T.);
#550=EDGE_CURVE('',#216,#217,#432,.T.);
#551=EDGE_CURVE('',#217,#171,#433,.T.);
#552=EDGE_CURVE('',#208,#217,#434,.T.);
#553=EDGE_CURVE('',#195,#172,#435,.T.);
#554=EDGE_CURVE('',#173,#218,#436,.T.);
#555=EDGE_CURVE('',#218,#219,#437,.T.);
#556=EDGE_CURVE('',#219,#174,#438,.T.);
#557=EDGE_CURVE('',#192,#175,#439,.T.);
#558=EDGE_CURVE('',#210,#219,#440,.T.);
#559=EDGE_CURVE('',#191,#176,#441,.T.);
#560=EDGE_CURVE('',#189,#213,#442,.T.);
#561=EDGE_CURVE('',#212,#177,#443,.T.);
#562=EDGE_CURVE('',#215,#178,#444,.T.);
#563=EDGE_CURVE('',#214,#190,#445,.T.);
#564=EDGE_CURVE('',#202,#179,#446,.T.);
#565=EDGE_CURVE('',#201,#220,#447,.T.);
#566=EDGE_CURVE('',#221,#220,#448,.T.);
#567=EDGE_CURVE('',#180,#221,#449,.T.);
#568=EDGE_CURVE('',#222,#221,#450,.T.);
#569=EDGE_CURVE('',#222,#181,#451,.T.);
#570=EDGE_CURVE('',#223,#222,#452,.T.);
#571=EDGE_CURVE('',#223,#200,#453,.T.);
#572=EDGE_CURVE('',#220,#223,#454,.T.);
#573=EDGE_CURVE('',#218,#211,#455,.T.);
#574=EDGE_CURVE('',#203,#164,#456,.T.);
#575=EDGE_CURVE('',#204,#165,#457,.T.);
#576=EDGE_CURVE('',#205,#167,#458,.T.);
#577=EDGE_CURVE('',#206,#166,#459,.T.);
#578=ORIENTED_EDGE('',*,*,#460,.T.);
#579=ORIENTED_EDGE('',*,*,#461,.T.);
#580=ORIENTED_EDGE('',*,*,#462,.T.);
#581=ORIENTED_EDGE('',*,*,#463,.T.);
#582=ORIENTED_EDGE('',*,*,#464,.F.);
#583=ORIENTED_EDGE('',*,*,#465,.F.);
#584=ORIENTED_EDGE('',*,*,#466,.F.);
#585=ORIENTED_EDGE('',*,*,#463,.F.);
#586=ORIENTED_EDGE('',*,*,#467,.T.);
#587=ORIENTED_EDGE('',*,*,#468,.T.);
#588=ORIENTED_EDGE('',*,*,#469,.T.);
#589=ORIENTED_EDGE('',*,*,#465,.T.);
#590=ORIENTED_EDGE('',*,*,#470,.T.);
#591=ORIENTED_EDGE('',*,*,#471,.T.);
#592=ORIENTED_EDGE('',*,*,#467,.F.);
#593=ORIENTED_EDGE('',*,*,#472,.T.);
#594=ORIENTED_EDGE('',*,*,#464,.T.);
#595=ORIENTED_EDGE('',*,*,#462,.F.);
#596=ORIENTED_EDGE('',*,*,#473,.F.);
#597=ORIENTED_EDGE('',*,*,#472,.F.);
#598=ORIENTED_EDGE('',*,*,#474,.T.);
#599=ORIENTED_EDGE('',*,*,#475,.F.);
#600=ORIENTED_EDGE('',*,*,#473,.T.);
#601=ORIENTED_EDGE('',*,*,#461,.F.);
#602=ORIENTED_EDGE('',*,*,#466,.T.);
#603=ORIENTED_EDGE('',*,*,#476,.F.);
#604=ORIENTED_EDGE('',*,*,#474,.F.);
#605=ORIENTED_EDGE('',*,*,#460,.F.);
#606=ORIENTED_EDGE('',*,*,#477,.F.);
#607=ORIENTED_EDGE('',*,*,#478,.T.);
#608=ORIENTED_EDGE('',*,*,#470,.F.);
#609=ORIENTED_EDGE('',*,*,#475,.T.);
#610=ORIENTED_EDGE('',*,*,#469,.F.);
#611=ORIENTED_EDGE('',*,*,#479,.T.);
#612=ORIENTED_EDGE('',*,*,#477,.T.);
#613=ORIENTED_EDGE('',*,*,#476,.T.);
#614=ORIENTED_EDGE('',*,*,#480,.T.);
#615=ORIENTED_EDGE('',*,*,#481,.T.);
#616=ORIENTED_EDGE('',*,*,#482,.T.);
#617=ORIENTED_EDGE('',*,*,#483,.T.);
#618=ORIENTED_EDGE('',*,*,#484,.F.);
#619=ORIENTED_EDGE('',*,*,#483,.F.);
#620=ORIENTED_EDGE('',*,*,#485,.F.);
#621=ORIENTED_EDGE('',*,*,#478,.F.);
#622=ORIENTED_EDGE('',*,*,#485,.T.);
#623=ORIENTED_EDGE('',*,*,#482,.F.);
#624=ORIENTED_EDGE('',*,*,#486,.F.);
#625=ORIENTED_EDGE('',*,*,#471,.F.);
#626=ORIENTED_EDGE('',*,*,#486,.T.);
#627=ORIENTED_EDGE('',*,*,#481,.F.);
#628=ORIENTED_EDGE('',*,*,#487,.T.);
#629=ORIENTED_EDGE('',*,*,#468,.F.);
#630=ORIENTED_EDGE('',*,*,#484,.T.);
#631=ORIENTED_EDGE('',*,*,#479,.F.);
#632=ORIENTED_EDGE('',*,*,#487,.F.);
#633=ORIENTED_EDGE('',*,*,#480,.F.);
#634=ORIENTED_EDGE('',*,*,#488,.T.);
#635=ORIENTED_EDGE('',*,*,#489,.T.);
#636=ORIENTED_EDGE('',*,*,#490,.T.);
#637=ORIENTED_EDGE('',*,*,#491,.T.);
#638=ORIENTED_EDGE('',*,*,#492,.T.);
#639=ORIENTED_EDGE('',*,*,#493,.T.);
#640=ORIENTED_EDGE('',*,*,#494,.T.);
#641=ORIENTED_EDGE('',*,*,#495,.T.);
#642=ORIENTED_EDGE('',*,*,#496,.T.);
#643=ORIENTED_EDGE('',*,*,#497,.T.);
#644=ORIENTED_EDGE('',*,*,#498,.T.);
#645=ORIENTED_EDGE('',*,*,#499,.F.);
#646=ORIENTED_EDGE('',*,*,#500,.T.);
#647=ORIENTED_EDGE('',*,*,#501,.F.);
#648=ORIENTED_EDGE('',*,*,#502,.T.);
#649=ORIENTED_EDGE('',*,*,#503,.T.);
#650=ORIENTED_EDGE('',*,*,#504,.F.);
#651=ORIENTED_EDGE('',*,*,#505,.T.);
#652=ORIENTED_EDGE('',*,*,#506,.T.);
#653=ORIENTED_EDGE('',*,*,#507,.T.);
#654=ORIENTED_EDGE('',*,*,#508,.T.);
#655=ORIENTED_EDGE('',*,*,#509,.T.);
#656=ORIENTED_EDGE('',*,*,#510,.T.);
#657=ORIENTED_EDGE('',*,*,#508,.F.);
#658=ORIENTED_EDGE('',*,*,#511,.F.);
#659=ORIENTED_EDGE('',*,*,#512,.F.);
#660=ORIENTED_EDGE('',*,*,#513,.T.);
#661=ORIENTED_EDGE('',*,*,#509,.F.);
#662=ORIENTED_EDGE('',*,*,#510,.F.);
#663=ORIENTED_EDGE('',*,*,#514,.F.);
#664=ORIENTED_EDGE('',*,*,#515,.F.);
#665=ORIENTED_EDGE('',*,*,#516,.F.);
#666=ORIENTED_EDGE('',*,*,#517,.F.);
#667=ORIENTED_EDGE('',*,*,#518,.F.);
#668=ORIENTED_EDGE('',*,*,#519,.T.);
#669=ORIENTED_EDGE('',*,*,#520,.F.);
#670=ORIENTED_EDGE('',*,*,#521,.F.);
#671=ORIENTED_EDGE('',*,*,#522,.T.);
#672=ORIENTED_EDGE('',*,*,#523,.F.);
#673=ORIENTED_EDGE('',*,*,#524,.F.);
#674=ORIENTED_EDGE('',*,*,#525,.F.);
#675=ORIENTED_EDGE('',*,*,#526,.F.);
#676=ORIENTED_EDGE('',*,*,#527,.F.);
#677=ORIENTED_EDGE('',*,*,#528,.F.);
#678=ORIENTED_EDGE('',*,*,#529,.F.);
#679=ORIENTED_EDGE('',*,*,#530,.F.);
#680=ORIENTED_EDGE('',*,*,#531,.F.);
#681=ORIENTED_EDGE('',*,*,#532,.F.);
#682=ORIENTED_EDGE('',*,*,#512,.T.);
#683=ORIENTED_EDGE('',*,*,#533,.T.);
#684=ORIENTED_EDGE('',*,*,#534,.T.);
#685=ORIENTED_EDGE('',*,*,#514,.T.);
#686=ORIENTED_EDGE('',*,*,#535,.T.);
#687=ORIENTED_EDGE('',*,*,#506,.F.);
#688=ORIENTED_EDGE('',*,*,#513,.F.);
#689=ORIENTED_EDGE('',*,*,#534,.F.);
#690=ORIENTED_EDGE('',*,*,#511,.T.);
#691=ORIENTED_EDGE('',*,*,#507,.F.);
#692=ORIENTED_EDGE('',*,*,#535,.F.);
#693=ORIENTED_EDGE('',*,*,#533,.F.);
#694=ORIENTED_EDGE('',*,*,#536,.T.);
#695=ORIENTED_EDGE('',*,*,#537,.F.);
#696=ORIENTED_EDGE('',*,*,#522,.F.);
#697=ORIENTED_EDGE('',*,*,#538,.F.);
#698=ORIENTED_EDGE('',*,*,#539,.T.);
#699=ORIENTED_EDGE('',*,*,#540,.F.);
#700=ORIENTED_EDGE('',*,*,#519,.F.);
#701=ORIENTED_EDGE('',*,*,#541,.F.);
#702=ORIENTED_EDGE('',*,*,#542,.T.);
#703=ORIENTED_EDGE('',*,*,#543,.T.);
#704=ORIENTED_EDGE('',*,*,#544,.T.);
#705=ORIENTED_EDGE('',*,*,#545,.T.);
#706=ORIENTED_EDGE('',*,*,#524,.T.);
#707=ORIENTED_EDGE('',*,*,#546,.F.);
#708=ORIENTED_EDGE('',*,*,#492,.F.);
#709=ORIENTED_EDGE('',*,*,#547,.F.);
#710=ORIENTED_EDGE('',*,*,#546,.T.);
#711=ORIENTED_EDGE('',*,*,#523,.T.);
#712=ORIENTED_EDGE('',*,*,#537,.T.);
#713=ORIENTED_EDGE('',*,*,#548,.F.);
#714=ORIENTED_EDGE('',*,*,#549,.T.);
#715=ORIENTED_EDGE('',*,*,#493,.F.);
#716=ORIENTED_EDGE('',*,*,#494,.F.);
#717=ORIENTED_EDGE('',*,*,#549,.F.);
#718=ORIENTED_EDGE('',*,*,#550,.T.);
#719=ORIENTED_EDGE('',*,*,#551,.T.);
#720=ORIENTED_EDGE('',*,*,#548,.T.);
#721=ORIENTED_EDGE('',*,*,#536,.F.);
#722=ORIENTED_EDGE('',*,*,#552,.T.);
#723=ORIENTED_EDGE('',*,*,#550,.F.);
#724=ORIENTED_EDGE('',*,*,#538,.T.);
#725=ORIENTED_EDGE('',*,*,#521,.T.);
#726=ORIENTED_EDGE('',*,*,#553,.T.);
#727=ORIENTED_EDGE('',*,*,#495,.F.);
#728=ORIENTED_EDGE('',*,*,#551,.F.);
#729=ORIENTED_EDGE('',*,*,#552,.F.);
#730=ORIENTED_EDGE('',*,*,#497,.F.);
#731=ORIENTED_EDGE('',*,*,#554,.T.);
#732=ORIENTED_EDGE('',*,*,#555,.T.);
#733=ORIENTED_EDGE('',*,*,#556,.T.);
#734=ORIENTED_EDGE('',*,*,#541,.T.);
#735=ORIENTED_EDGE('',*,*,#518,.T.);
#736=ORIENTED_EDGE('',*,*,#557,.T.);
#737=ORIENTED_EDGE('',*,*,#498,.F.);
#738=ORIENTED_EDGE('',*,*,#556,.F.);
#739=ORIENTED_EDGE('',*,*,#558,.F.);
#740=ORIENTED_EDGE('',*,*,#557,.F.);
#741=ORIENTED_EDGE('',*,*,#517,.T.);
#742=ORIENTED_EDGE('',*,*,#559,.T.);
#743=ORIENTED_EDGE('',*,*,#499,.T.);
#744=ORIENTED_EDGE('',*,*,#516,.T.);
#745=ORIENTED_EDGE('',*,*,#560,.T.);
#746=ORIENTED_EDGE('',*,*,#542,.F.);
#747=ORIENTED_EDGE('',*,*,#561,.T.);
#748=ORIENTED_EDGE('',*,*,#500,.F.);
#749=ORIENTED_EDGE('',*,*,#559,.F.);
#750=ORIENTED_EDGE('',*,*,#545,.F.);
#751=ORIENTED_EDGE('',*,*,#562,.T.);
#752=ORIENTED_EDGE('',*,*,#501,.T.);
#753=ORIENTED_EDGE('',*,*,#561,.F.);
#754=ORIENTED_EDGE('',*,*,#544,.F.);
#755=ORIENTED_EDGE('',*,*,#563,.T.);
#756=ORIENTED_EDGE('',*,*,#528,.T.);
#757=ORIENTED_EDGE('',*,*,#564,.T.);
#758=ORIENTED_EDGE('',*,*,#502,.F.);
#759=ORIENTED_EDGE('',*,*,#562,.F.);
#760=ORIENTED_EDGE('',*,*,#527,.T.);
#761=ORIENTED_EDGE('',*,*,#565,.T.);
#762=ORIENTED_EDGE('',*,*,#566,.F.);
#763=ORIENTED_EDGE('',*,*,#567,.F.);
#764=ORIENTED_EDGE('',*,*,#503,.F.);
#765=ORIENTED_EDGE('',*,*,#564,.F.);
#766=ORIENTED_EDGE('',*,*,#568,.F.);
#767=ORIENTED_EDGE('',*,*,#569,.T.);
#768=ORIENTED_EDGE('',*,*,#504,.T.);
#769=ORIENTED_EDGE('',*,*,#567,.T.);
#770=ORIENTED_EDGE('',*,*,#570,.F.);
#771=ORIENTED_EDGE('',*,*,#571,.T.);
#772=ORIENTED_EDGE('',*,*,#525,.T.);
#773=ORIENTED_EDGE('',*,*,#547,.T.);
#774=ORIENTED_EDGE('',*,*,#505,.F.);
#775=ORIENTED_EDGE('',*,*,#569,.F.);
#776=ORIENTED_EDGE('',*,*,#526,.T.);
#777=ORIENTED_EDGE('',*,*,#571,.F.);
#778=ORIENTED_EDGE('',*,*,#572,.F.);
#779=ORIENTED_EDGE('',*,*,#565,.F.);
#780=ORIENTED_EDGE('',*,*,#566,.T.);
#781=ORIENTED_EDGE('',*,*,#572,.T.);
#782=ORIENTED_EDGE('',*,*,#570,.T.);
#783=ORIENTED_EDGE('',*,*,#568,.T.);
#784=ORIENTED_EDGE('',*,*,#573,.T.);
#785=ORIENTED_EDGE('',*,*,#539,.F.);
#786=ORIENTED_EDGE('',*,*,#558,.T.);
#787=ORIENTED_EDGE('',*,*,#555,.F.);
#788=ORIENTED_EDGE('',*,*,#574,.F.);
#789=ORIENTED_EDGE('',*,*,#529,.T.);
#790=ORIENTED_EDGE('',*,*,#575,.T.);
#791=ORIENTED_EDGE('',*,*,#488,.F.);
#792=ORIENTED_EDGE('',*,*,#576,.F.);
#793=ORIENTED_EDGE('',*,*,#530,.T.);
#794=ORIENTED_EDGE('',*,*,#574,.T.);
#795=ORIENTED_EDGE('',*,*,#491,.F.);
#796=ORIENTED_EDGE('',*,*,#577,.F.);
#797=ORIENTED_EDGE('',*,*,#531,.T.);
#798=ORIENTED_EDGE('',*,*,#576,.T.);
#799=ORIENTED_EDGE('',*,*,#490,.F.);
#800=ORIENTED_EDGE('',*,*,#515,.T.);
#801=ORIENTED_EDGE('',*,*,#563,.F.);
#802=ORIENTED_EDGE('',*,*,#543,.F.);
#803=ORIENTED_EDGE('',*,*,#560,.F.);
#804=ORIENTED_EDGE('',*,*,#575,.F.);
#805=ORIENTED_EDGE('',*,*,#532,.T.);
#806=ORIENTED_EDGE('',*,*,#577,.T.);
#807=ORIENTED_EDGE('',*,*,#489,.F.);
#808=ORIENTED_EDGE('',*,*,#553,.F.);
#809=ORIENTED_EDGE('',*,*,#520,.T.);
#810=ORIENTED_EDGE('',*,*,#540,.T.);
#811=ORIENTED_EDGE('',*,*,#573,.F.);
#812=ORIENTED_EDGE('',*,*,#554,.F.);
#813=ORIENTED_EDGE('',*,*,#496,.F.);
#814=EDGE_LOOP('',(#578,#579,#580,#581));
#815=EDGE_LOOP('',(#582,#583,#584,#585));
#816=EDGE_LOOP('',(#586,#587,#588,#589));
#817=EDGE_LOOP('',(#590,#591,#592,#593));
#818=EDGE_LOOP('',(#594,#595,#596,#597));
#819=EDGE_LOOP('',(#598,#599,#600,#601));
#820=EDGE_LOOP('',(#602,#603,#604,#605));
#821=EDGE_LOOP('',(#606,#607,#608,#609));
#822=EDGE_LOOP('',(#610,#611,#612,#613));
#823=EDGE_LOOP('',(#614,#615,#616,#617));
#824=EDGE_LOOP('',(#618,#619,#620,#621));
#825=EDGE_LOOP('',(#622,#623,#624,#625));
#826=EDGE_LOOP('',(#626,#627,#628,#629));
#827=EDGE_LOOP('',(#630,#631,#632,#633));
#828=EDGE_LOOP('',(#634,#635,#636,#637));
#829=EDGE_LOOP('',(#638,#639,#640,#641,#642,#643,#644,#645,#646,#647,#648,
#649,#650,#651));
#830=EDGE_LOOP('',(#652,#653,#654,#655));
#831=EDGE_LOOP('',(#656,#657,#658,#659));
#832=EDGE_LOOP('',(#660,#661,#662,#663));
#833=EDGE_LOOP('',(#664,#665,#666,#667,#668,#669,#670,#671,#672,#673,#674,
#675,#676,#677));
#834=EDGE_LOOP('',(#678,#679,#680,#681));
#835=EDGE_LOOP('',(#682,#683,#684,#685));
#836=EDGE_LOOP('',(#686,#687,#688,#689));
#837=EDGE_LOOP('',(#690,#691,#692,#693));
#838=EDGE_LOOP('',(#694,#695,#696,#697));
#839=EDGE_LOOP('',(#698,#699,#700,#701));
#840=EDGE_LOOP('',(#702,#703,#704,#705));
#841=EDGE_LOOP('',(#706,#707,#708,#709));
#842=EDGE_LOOP('',(#710,#711,#712,#713,#714,#715));
#843=EDGE_LOOP('',(#716,#717,#718,#719));
#844=EDGE_LOOP('',(#720,#721,#722,#723));
#845=EDGE_LOOP('',(#724,#725,#726,#727,#728,#729));
#846=EDGE_LOOP('',(#730,#731,#732,#733));
#847=EDGE_LOOP('',(#734,#735,#736,#737,#738,#739));
#848=EDGE_LOOP('',(#740,#741,#742,#743));
#849=EDGE_LOOP('',(#744,#745,#746,#747,#748,#749));
#850=EDGE_LOOP('',(#750,#751,#752,#753));
#851=EDGE_LOOP('',(#754,#755,#756,#757,#758,#759));
#852=EDGE_LOOP('',(#760,#761,#762,#763,#764,#765));
#853=EDGE_LOOP('',(#766,#767,#768,#769));
#854=EDGE_LOOP('',(#770,#771,#772,#773,#774,#775));
#855=EDGE_LOOP('',(#776,#777,#778,#779));
#856=EDGE_LOOP('',(#780,#781,#782,#783));
#857=EDGE_LOOP('',(#784,#785,#786,#787));
#858=EDGE_LOOP('',(#788,#789,#790,#791));
#859=EDGE_LOOP('',(#792,#793,#794,#795));
#860=EDGE_LOOP('',(#796,#797,#798,#799));
#861=EDGE_LOOP('',(#800,#801,#802,#803));
#862=EDGE_LOOP('',(#804,#805,#806,#807));
#863=EDGE_LOOP('',(#808,#809,#810,#811,#812,#813));
#864=FACE_BOUND('',#814,.T.);
#865=FACE_BOUND('',#815,.T.);
#866=FACE_BOUND('',#816,.T.);
#867=FACE_BOUND('',#817,.T.);
#868=FACE_BOUND('',#818,.T.);
#869=FACE_BOUND('',#819,.T.);
#870=FACE_BOUND('',#820,.T.);
#871=FACE_BOUND('',#821,.T.);
#872=FACE_BOUND('',#822,.T.);
#873=FACE_BOUND('',#823,.T.);
#874=FACE_BOUND('',#824,.T.);
#875=FACE_BOUND('',#825,.T.);
#876=FACE_BOUND('',#826,.T.);
#877=FACE_BOUND('',#827,.T.);
#878=FACE_BOUND('',#828,.T.);
#879=FACE_BOUND('',#829,.T.);
#880=FACE_BOUND('',#830,.T.);
#881=FACE_BOUND('',#831,.T.);
#882=FACE_BOUND('',#832,.T.);
#883=FACE_BOUND('',#833,.T.);
#884=FACE_BOUND('',#834,.T.);
#885=FACE_BOUND('',#835,.T.);
#886=FACE_BOUND('',#836,.T.);
#887=FACE_BOUND('',#837,.T.);
#888=FACE_BOUND('',#838,.T.);
#889=FACE_BOUND('',#839,.T.);
#890=FACE_BOUND('',#840,.T.);
#891=FACE_BOUND('',#841,.T.);
#892=FACE_BOUND('',#842,.T.);
#893=FACE_BOUND('',#843,.T.);
#894=FACE_BOUND('',#844,.T.);
#895=FACE_BOUND('',#845,.T.);
#896=FACE_BOUND('',#846,.T.);
#897=FACE_BOUND('',#847,.T.);
#898=FACE_BOUND('',#848,.T.);
#899=FACE_BOUND('',#849,.T.);
#900=FACE_BOUND('',#850,.T.);
#901=FACE_BOUND('',#851,.T.);
#902=FACE_BOUND('',#852,.T.);
#903=FACE_BOUND('',#853,.T.);
#904=FACE_BOUND('',#854,.T.);
#905=FACE_BOUND('',#855,.T.);
#906=FACE_BOUND('',#856,.T.);
#907=FACE_BOUND('',#857,.T.);
#908=FACE_BOUND('',#858,.T.);
#909=FACE_BOUND('',#859,.T.);
#910=FACE_BOUND('',#860,.T.);
#911=FACE_BOUND('',#861,.T.);
#912=FACE_BOUND('',#862,.T.);
#913=FACE_BOUND('',#863,.T.);
#914=ADVANCED_FACE('',(#864),#1434,.F.);
#915=ADVANCED_FACE('',(#865),#1435,.T.);
#916=ADVANCED_FACE('',(#866),#1436,.T.);
#917=ADVANCED_FACE('',(#867),#1437,.F.);
#918=ADVANCED_FACE('',(#868),#1438,.F.);
#919=ADVANCED_FACE('',(#869),#1439,.F.);
#920=ADVANCED_FACE('',(#870),#1440,.F.);
#921=ADVANCED_FACE('',(#871),#1441,.F.);
#922=ADVANCED_FACE('',(#872),#1442,.F.);
#923=ADVANCED_FACE('',(#873),#1443,.F.);
#924=ADVANCED_FACE('',(#874),#1444,.F.);
#925=ADVANCED_FACE('',(#875),#1445,.F.);
#926=ADVANCED_FACE('',(#876),#1446,.T.);
#927=ADVANCED_FACE('',(#877),#1447,.F.);
#928=ADVANCED_FACE('',(#878,#879,#880),#1448,.T.);
#929=ADVANCED_FACE('',(#881),#1449,.T.);
#930=ADVANCED_FACE('',(#882),#1450,.T.);
#931=ADVANCED_FACE('',(#883,#884,#885),#1451,.T.);
#932=ADVANCED_FACE('',(#886),#1452,.T.);
#933=ADVANCED_FACE('',(#887),#1453,.T.);
#934=ADVANCED_FACE('',(#888),#1454,.T.);
#935=ADVANCED_FACE('',(#889),#1455,.T.);
#936=ADVANCED_FACE('',(#890),#1456,.T.);
#937=ADVANCED_FACE('',(#891),#1457,.F.);
#938=ADVANCED_FACE('',(#892),#1458,.T.);
#939=ADVANCED_FACE('',(#893),#1459,.T.);
#940=ADVANCED_FACE('',(#894),#1460,.T.);
#941=ADVANCED_FACE('',(#895),#1461,.T.);
#942=ADVANCED_FACE('',(#896),#1462,.T.);
#943=ADVANCED_FACE('',(#897),#1463,.T.);
#944=ADVANCED_FACE('',(#898),#1464,.T.);
#945=ADVANCED_FACE('',(#899),#1465,.T.);
#946=ADVANCED_FACE('',(#900),#1466,.T.);
#947=ADVANCED_FACE('',(#901),#1467,.T.);
#948=ADVANCED_FACE('',(#902),#1468,.T.);
#949=ADVANCED_FACE('',(#903),#1469,.T.);
#950=ADVANCED_FACE('',(#904),#1470,.T.);
#951=ADVANCED_FACE('',(#905),#1471,.T.);
#952=ADVANCED_FACE('',(#906),#1472,.T.);
#953=ADVANCED_FACE('',(#907),#1473,.T.);
#954=ADVANCED_FACE('',(#908),#1474,.T.);
#955=ADVANCED_FACE('',(#909),#1475,.T.);
#956=ADVANCED_FACE('',(#910),#1476,.T.);
#957=ADVANCED_FACE('',(#911),#1477,.T.);
#958=ADVANCED_FACE('',(#912),#1478,.T.);
#959=ADVANCED_FACE('',(#913),#1479,.T.);
#960=AXIS2_PLACEMENT_3D('',#1188,#1012,$);
#961=AXIS2_PLACEMENT_3D('',#1197,#1017,$);
#962=AXIS2_PLACEMENT_3D('',#1203,#1021,$);
#963=AXIS2_PLACEMENT_3D('',#1209,#1025,$);
#964=AXIS2_PLACEMENT_3D('',#1215,#1029,$);
#965=AXIS2_PLACEMENT_3D('',#1217,#1031,$);
#966=AXIS2_PLACEMENT_3D('',#1221,#1034,$);
#967=AXIS2_PLACEMENT_3D('',#1223,#1036,$);
#968=AXIS2_PLACEMENT_3D('',#1227,#1039,$);
#969=AXIS2_PLACEMENT_3D('',#1229,#1041,$);
#970=AXIS2_PLACEMENT_3D('',#1238,#1046,$);
#971=AXIS2_PLACEMENT_3D('',#1241,#1049,$);
#972=AXIS2_PLACEMENT_3D('',#1243,#1051,$);
#973=AXIS2_PLACEMENT_3D('',#1245,#1053,$);
#974=AXIS2_PLACEMENT_3D('',#1246,#1054,$);
#975=AXIS2_PLACEMENT_3D('',#1291,#1077,$);
#976=AXIS2_PLACEMENT_3D('',#1297,#1081,$);
#977=AXIS2_PLACEMENT_3D('',#1301,#1084,$);
#978=AXIS2_PLACEMENT_3D('',#1341,#1105,$);
#979=AXIS2_PLACEMENT_3D('',#1343,#1107,$);
#980=AXIS2_PLACEMENT_3D('',#1344,#1108,$);
#981=AXIS2_PLACEMENT_3D('',#1350,#1112,$);
#982=AXIS2_PLACEMENT_3D('',#1356,#1116,$);
#983=AXIS2_PLACEMENT_3D('',#1365,#1121,$);
#984=AXIS2_PLACEMENT_3D('',#1368,#1124,$);
#985=AXIS2_PLACEMENT_3D('',#1372,#1127,$);
#986=AXIS2_PLACEMENT_3D('',#1376,#1130,$);
#987=AXIS2_PLACEMENT_3D('',#1378,#1132,$);
#988=AXIS2_PLACEMENT_3D('',#1380,#1134,$);
#989=AXIS2_PLACEMENT_3D('',#1386,#1138,$);
#990=AXIS2_PLACEMENT_3D('',#1389,#1141,$);
#991=AXIS2_PLACEMENT_3D('',#1391,#1143,$);
#992=AXIS2_PLACEMENT_3D('',#1394,#1146,$);
#993=AXIS2_PLACEMENT_3D('',#1396,#1148,$);
#994=AXIS2_PLACEMENT_3D('',#1399,#1151,$);
#995=AXIS2_PLACEMENT_3D('',#1405,#1155,$);
#996=AXIS2_PLACEMENT_3D('',#1409,#1158,$);
#997=AXIS2_PLACEMENT_3D('',#1413,#1161,$);
#998=AXIS2_PLACEMENT_3D('',#1415,#1163,$);
#999=AXIS2_PLACEMENT_3D('',#1416,#1164,$);
#1000=AXIS2_PLACEMENT_3D('',#1418,#1166,$);
#1001=AXIS2_PLACEMENT_3D('',#1421,#1169,$);
#1002=AXIS2_PLACEMENT_3D('',#1423,#1171,$);
#1003=AXIS2_PLACEMENT_3D('',#1425,#1173,$);
#1004=AXIS2_PLACEMENT_3D('',#1426,#1174,$);
#1005=AXIS2_PLACEMENT_3D('',#1427,#1175,$);
#1006=AXIS2_PLACEMENT_3D('AXIS_PLACEMENT_1',#1428,#1176,#1177);
#1007=AXIS2_PLACEMENT_3D('AXIS_PLACEMENT_5',#1429,#1178,#1179);
#1008=AXIS2_PLACEMENT_3D('AXIS_PLACEMENT_11',#1430,#1180,#1181);
#1009=AXIS2_PLACEMENT_3D('AXIS_PLACEMENT_15',#1431,#1182,#1183);
#1010=AXIS2_PLACEMENT_3D('AXIS_PLACEMENT_21',#1432,#1184,#1185);
#1011=AXIS2_PLACEMENT_3D('AXIS_PLACEMENT_25',#1433,#1186,#1187);
#1012=DIRECTION('',(0.,0.,-1.));
#1013=DIRECTION('',(0.,1.,0.));
#1014=DIRECTION('',(-1.,0.,0.));
#1015=DIRECTION('',(0.,-1.,0.));
#1016=DIRECTION('',(1.,0.,0.));
#1017=DIRECTION('',(0.,-0.707106781186547,0.707106781186548));
#1018=DIRECTION('',(0.577350269189626,0.577350269189626,0.577350269189625));
#1019=DIRECTION('',(-1.,0.,0.));
#1020=DIRECTION('',(-0.577350269189621,0.577350269189629,0.577350269189628));
#1021=DIRECTION('',(0.,-1.,0.));
#1022=DIRECTION('',(-7.51613291151129E-017,0.,-1.));
#1023=DIRECTION('',(1.,0.,8.13151629364136E-015));
#1024=DIRECTION('',(0.,0.,1.));
#1025=DIRECTION('',(1.,0.,-7.51613291151129E-017));
#1026=DIRECTION('',(-7.51613291151129E-017,0.,-1.));
#1027=DIRECTION('',(0.,-1.,0.));
#1028=DIRECTION('',(0.,1.,0.));
#1029=DIRECTION('',(0.707106781186547,0.,-0.707106781186548));
#1030=DIRECTION('',(-0.577350269189626,0.577350269189626,-0.577350269189625));
#1031=DIRECTION('',(0.,-0.707106781186547,-0.707106781186548));
#1032=DIRECTION('',(-0.577350269189621,-0.577350269189629,0.577350269189628));
#1033=DIRECTION('',(1.,0.,0.));
#1034=DIRECTION('',(-0.707106781186552,0.,-0.707106781186543));
#1035=DIRECTION('',(0.,-1.,0.));
#1036=DIRECTION('',(0.,-1.,0.));
#1037=DIRECTION('',(0.,0.,1.));
#1038=DIRECTION('',(-1.,0.,-8.13151629364136E-015));
#1039=DIRECTION('',(-1.,0.,0.));
#1040=DIRECTION('',(0.,1.,0.));
#1041=DIRECTION('',(-8.13151629364136E-015,0.,1.));
#1042=DIRECTION('',(0.,-1.,0.));
#1043=DIRECTION('',(-1.,0.,-8.13151629364136E-015));
#1044=DIRECTION('',(0.,1.,0.));
#1045=DIRECTION('',(1.,0.,8.13151629364136E-015));
#1046=DIRECTION('',(-5.74985031256271E-015,-0.707106781186547,0.707106781186548));
#1047=DIRECTION('',(0.577350269189625,0.577350269189625,0.577350269189628));
#1048=DIRECTION('',(-0.577350269189626,0.577350269189629,0.577350269189623));
#1049=DIRECTION('',(0.707106781186546,0.,0.707106781186549));
#1050=DIRECTION('',(0.577350269189626,0.577350269189629,-0.577350269189623));
#1051=DIRECTION('',(5.74985031256271E-015,-0.707106781186547,-0.707106781186548));
#1052=DIRECTION('',(0.577350269189624,-0.577350269189625,0.577350269189628));
#1053=DIRECTION('',(-0.70710678118655,0.,0.707106781186545));
#1054=DIRECTION('',(0.,1.,8.53702498020082E-017));
#1055=DIRECTION('',(1.,-1.44622828595262E-032,1.6940658945086E-016));
#1056=DIRECTION('',(0.,-8.53702498020082E-017,1.));
#1057=DIRECTION('',(-1.,-2.89245657190523E-032,3.3881317890172E-016));
#1058=DIRECTION('',(0.,8.53702498020082E-017,-1.));
#1059=DIRECTION('',(0.,8.53702498020082E-017,-1.));
#1060=DIRECTION('',(-0.447213595499958,-7.63574727253713E-017,-0.894427190999916));
#1061=DIRECTION('',(-1.,0.,0.));
#1062=DIRECTION('',(-0.447213595499958,7.63574727253713E-017,0.894427190999916));
#1063=DIRECTION('',(-0.447213595499958,-7.63574727253713E-017,-0.894427190999916));
#1064=DIRECTION('',(-1.,0.,0.));
#1065=DIRECTION('',(-0.447213595499958,7.63574727253713E-017,0.894427190999916));
#1066=DIRECTION('',(0.,8.53702498020082E-017,-1.));
#1067=DIRECTION('',(0.447213595499958,-7.63574727253713E-017,0.894427190999916));
#1068=DIRECTION('',(-1.,0.,0.));
#1069=DIRECTION('',(0.447213595499958,7.63574727253713E-017,-0.894427190999916));
#1070=DIRECTION('',(0.447213595499958,-7.63574727253713E-017,0.894427190999916));
#1071=DIRECTION('',(-1.,0.,0.));
#1072=DIRECTION('',(0.447213595499958,7.63574727253713E-017,-0.894427190999916));
#1073=DIRECTION('',(1.,-1.44622828595262E-032,1.6940658945086E-016));
#1074=DIRECTION('',(0.,-8.53702498020082E-017,1.));
#1075=DIRECTION('',(-1.,-2.89245657190523E-032,3.3881317890172E-016));
#1076=DIRECTION('',(0.,8.53702498020082E-017,-1.));
#1077=DIRECTION('',(-3.3881317890172E-016,8.53702498020082E-017,-1.));
#1078=DIRECTION('',(0.,1.,8.53702498020082E-017));
#1079=DIRECTION('',(0.,1.,8.53702498020082E-017));
#1080=DIRECTION('',(1.,6.12236641053274E-032,-3.3881317890172E-016));
#1081=DIRECTION('',(1.,0.,0.));
#1082=DIRECTION('',(0.,1.,8.53702498020082E-017));
#1083=DIRECTION('',(0.,-1.80700362080917E-016,1.));
#1084=DIRECTION('',(0.,-1.,-1.80700362080917E-016));
#1085=DIRECTION('',(1.,0.,0.));
#1086=DIRECTION('',(0.447213595499958,-1.61623317268702E-016,0.894427190999916));
#1087=DIRECTION('',(0.,-1.80700362080917E-016,1.));
#1088=DIRECTION('',(-0.447213595499958,-1.61623317268702E-016,0.894427190999916));
#1089=DIRECTION('',(1.,0.,0.));
#1090=DIRECTION('',(-0.447213595499958,1.61623317268702E-016,-0.894427190999916));
#1091=DIRECTION('',(-0.447213595499958,-1.61623317268702E-016,0.894427190999916));
#1092=DIRECTION('',(1.,0.,0.));
#1093=DIRECTION('',(-0.447213595499958,1.61623317268703E-016,-0.894427190999916));
#1094=DIRECTION('',(0.,1.80700362080917E-016,-1.));
#1095=DIRECTION('',(0.447213595499958,1.61623317268702E-016,-0.894427190999916));
#1096=DIRECTION('',(1.,0.,0.));
#1097=DIRECTION('',(0.447213595499958,-1.61623317268703E-016,0.894427190999916));
#1098=DIRECTION('',(0.447213595499958,1.61623317268703E-016,-0.894427190999916));
#1099=DIRECTION('',(1.,-3.06118320526637E-032,1.6940658945086E-016));
#1100=DIRECTION('',(0.,1.80700362080917E-016,-1.));
#1101=DIRECTION('',(-1.,-6.12236641053274E-032,3.3881317890172E-016));
#1102=DIRECTION('',(0.,-1.80700362080917E-016,1.));
#1103=DIRECTION('',(0.,1.80700362080917E-016,-1.));
#1104=DIRECTION('',(-1.,3.06118320526637E-032,-1.6940658945086E-016));
#1105=DIRECTION('',(-1.6940658945086E-016,-8.53702498020082E-017,1.));
#1106=DIRECTION('',(0.,1.,8.53702498020082E-017));
#1107=DIRECTION('',(-1.,0.,0.));
#1108=DIRECTION('',(0.,-1.30104260698261E-015,1.));
#1109=DIRECTION('',(1.,0.,0.));
#1110=DIRECTION('',(-6.93206428392306E-016,-1.,-1.30104260698261E-015));
#1111=DIRECTION('',(-6.93206428392306E-016,1.,1.30104260698261E-015));
#1112=DIRECTION('',(0.,-1.30104260698261E-015,1.));
#1113=DIRECTION('',(1.,0.,0.));
#1114=DIRECTION('',(-6.93206428392306E-016,-1.,-1.30104260698261E-015));
#1115=DIRECTION('',(-6.93206428392306E-016,1.,1.30104260698261E-015));
#1116=DIRECTION('',(0.,-1.,-8.53702498020082E-017));
#1117=DIRECTION('',(-0.447213595499958,7.63574727253713E-017,-0.894427190999916));
#1118=DIRECTION('',(1.,0.,0.));
#1119=DIRECTION('',(-0.447213595499958,-7.63574727253713E-017,0.894427190999916));
#1120=DIRECTION('',(-1.,0.,0.));
#1121=DIRECTION('',(-1.,0.,0.));
#1122=DIRECTION('',(0.,-1.,8.53702498020082E-017));
#1123=DIRECTION('',(0.,1.,8.53702498020081E-017));
#1124=DIRECTION('',(0.894427190999916,-3.81787363626856E-017,-0.447213595499958));
#1125=DIRECTION('',(0.447213595499958,-7.63574727253713E-017,0.894427190999916));
#1126=DIRECTION('',(0.,1.,-8.53702498020082E-017));
#1127=DIRECTION('',(0.,0.,-1.));
#1128=DIRECTION('',(-1.,0.,0.));
#1129=DIRECTION('',(-4.2685124901004E-017,1.,0.));
#1130=DIRECTION('',(0.,-1.,-8.53702498020082E-017));
#1131=DIRECTION('',(0.447213595499958,7.63574727253713E-017,-0.894427190999916));
#1132=DIRECTION('',(-0.894427190999916,-3.81787363626856E-017,-0.447213595499958));
#1133=DIRECTION('',(0.,1.,-8.53702498020082E-017));
#1134=DIRECTION('',(0.,0.,-1.));
#1135=DIRECTION('',(-4.2685124901004E-017,-1.,0.));
#1136=DIRECTION('',(-1.,0.,0.));
#1137=DIRECTION('',(-4.2685124901004E-017,1.,0.));
#1138=DIRECTION('',(-0.894427190999916,-3.81787363626856E-017,-0.447213595499958));
#1139=DIRECTION('',(0.,1.,-8.53702498020082E-017));
#1140=DIRECTION('',(0.447213595499958,7.63574727253713E-017,-0.894427190999916));
#1141=DIRECTION('',(-1.,0.,0.));
#1142=DIRECTION('',(0.,1.,8.53702498020081E-017));
#1143=DIRECTION('',(-0.894427190999916,-3.81787363626856E-017,0.447213595499958));
#1144=DIRECTION('',(4.76365993895205E-016,-1.,8.67361737988404E-016));
#1145=DIRECTION('',(0.,1.,8.53702498020082E-017));
#1146=DIRECTION('',(0.,-3.41480999208033E-016,1.));
#1147=DIRECTION('',(-1.28055374703012E-016,1.,3.41480999208033E-016));
#1148=DIRECTION('',(0.894427190999916,-3.81787363626856E-017,0.447213595499958));
#1149=DIRECTION('',(4.76365993895205E-016,1.,-8.67361737988404E-016));
#1150=DIRECTION('',(0.,1.,8.53702498020082E-017));
#1151=DIRECTION('',(-0.894427190999916,-3.81787363626856E-017,0.447213595499958));
#1152=DIRECTION('',(4.76365993895205E-016,-1.,8.67361737988404E-016));
#1153=DIRECTION('',(-0.447213595499958,7.63574727253713E-017,-0.894427190999916));
#1154=DIRECTION('',(-1.28055374703012E-016,-1.,-3.41480999208033E-016));
#1155=DIRECTION('',(0.,-3.41480999208033E-016,1.));
#1156=DIRECTION('',(-1.,0.,0.));
#1157=DIRECTION('',(0.,1.,8.53702498020082E-017));
#1158=DIRECTION('',(0.894427190999916,-3.81787363626856E-017,0.447213595499958));
#1159=DIRECTION('',(-0.447213595499958,-7.63574727253713E-017,0.894427190999916));
#1160=DIRECTION('',(4.76365993895205E-016,1.,-8.67361737988404E-016));
#1161=DIRECTION('',(0.,-8.67361737988404E-016,-1.));
#1162=DIRECTION('',(1.,0.,0.));
#1163=DIRECTION('',(0.,-1.,-8.53702498020082E-017));
#1164=DIRECTION('',(0.,-1.,-8.53702498020082E-017));
#1165=DIRECTION('',(0.447213595499958,-7.63574727253713E-017,0.894427190999916));
#1166=DIRECTION('',(-1.6940658945086E-016,-8.53702498020082E-017,1.));
#1167=DIRECTION('',(0.,1.,8.53702498020082E-017));
#1168=DIRECTION('',(0.,1.,8.53702498020082E-017));
#1169=DIRECTION('',(1.,0.,0.));
#1170=DIRECTION('',(0.,1.,8.53702498020082E-017));
#1171=DIRECTION('',(-3.3881317890172E-016,8.53702498020082E-017,-1.));
#1172=DIRECTION('',(0.,1.,8.53702498020082E-017));
#1173=DIRECTION('',(0.,-8.67361737988404E-016,-1.));
#1174=DIRECTION('',(-1.,0.,0.));
#1175=DIRECTION('',(0.894427190999916,-3.81787363626856E-017,-0.447213595499958));
#1176=DIRECTION('DIRECTION2',(1.1217155676535E-015,-1.,-2.22044604925031E-016));
#1177=DIRECTION('DIRECTION3',(1.,1.1217155676535E-015,4.55581752878409E-016));
#1178=DIRECTION('DIRECTION6',(0.,0.,1.));
#1179=DIRECTION('DIRECTION7',(1.,0.,0.));
#1180=DIRECTION('DIRECTION12',(1.1217155676535E-015,-1.,-2.22044604925031E-016));
#1181=DIRECTION('DIRECTION13',(1.,1.1217155676535E-015,4.55581752878409E-016));
#1182=DIRECTION('DIRECTION16',(0.,0.,1.));
#1183=DIRECTION('DIRECTION17',(1.,0.,0.));
#1184=DIRECTION('DIRECTION22',(0.,0.,1.));
#1185=DIRECTION('DIRECTION23',(1.,0.,0.));
#1186=DIRECTION('DIRECTION26',(0.,0.,1.));
#1187=DIRECTION('DIRECTION27',(1.,0.,0.));
#1188=CARTESIAN_POINT('',(0.32,-0.32,5.77));
#1189=CARTESIAN_POINT('',(0.12,-0.32,5.77));
#1190=CARTESIAN_POINT('',(0.12,-0.12,5.77));
#1191=CARTESIAN_POINT('',(0.12,0.12,5.77));
#1192=CARTESIAN_POINT('',(0.32,0.12,5.77));
#1193=CARTESIAN_POINT('',(-0.119999999999994,0.12,5.77));
#1194=CARTESIAN_POINT('',(-0.119999999999994,-0.32,5.77));
#1195=CARTESIAN_POINT('',(-0.119999999999994,-0.12,5.77));
#1196=CARTESIAN_POINT('',(0.32,-0.12,5.77));
#1197=CARTESIAN_POINT('',(0.,-0.32,5.57));
#1198=CARTESIAN_POINT('',(-0.213333333333329,-0.213333333333336,5.67666666666666));
#1199=CARTESIAN_POINT('',(-0.319999999999994,-0.32,5.57));
#1200=CARTESIAN_POINT('',(-0.319999999999994,-0.32,5.57));
#1201=CARTESIAN_POINT('',(0.32,-0.32,5.57));
#1202=CARTESIAN_POINT('',(0.186666666666665,-0.186666666666668,5.70333333333333));
#1203=CARTESIAN_POINT('',(0.,-0.32,0.));
#1204=CARTESIAN_POINT('',(-0.319999999999994,-0.32,5.77));
#1205=CARTESIAN_POINT('',(-0.319999999999995,-0.32,-5.57));
#1206=CARTESIAN_POINT('',(0.319999999999997,-0.32,-5.57));
#1207=CARTESIAN_POINT('',(0.32,-0.32,-5.57));
#1208=CARTESIAN_POINT('',(0.32,-0.32,-5.77));
#1209=CARTESIAN_POINT('',(-0.319999999999994,-0.32,5.77));
#1210=CARTESIAN_POINT('',(-0.319999999999994,0.32,5.77));
#1211=CARTESIAN_POINT('',(-0.319999999999994,0.32,5.57));
#1212=CARTESIAN_POINT('',(-0.319999999999995,0.32,-5.57));
#1213=CARTESIAN_POINT('',(-0.319999999999995,-0.32,-5.57));
#1214=CARTESIAN_POINT('',(-0.319999999999994,-0.32,5.57));
#1215=CARTESIAN_POINT('',(-0.319999999999994,-0.32,5.57));
#1216=CARTESIAN_POINT('',(-0.10666666666666,0.106666666666666,5.78333333333333));
#1217=CARTESIAN_POINT('',(0.32,0.12,5.77));
#1218=CARTESIAN_POINT('',(-0.0266666666666671,-0.0266666666666681,5.91666666666667));
#1219=CARTESIAN_POINT('',(0.32,0.32,5.57));
#1220=CARTESIAN_POINT('',(0.,0.32,5.57));
#1221=CARTESIAN_POINT('',(0.12,-0.32,5.77));
#1222=CARTESIAN_POINT('',(0.32,-0.32,5.57));
#1223=CARTESIAN_POINT('',(0.,0.32,0.));
#1224=CARTESIAN_POINT('',(0.32,0.32,-5.77));
#1225=CARTESIAN_POINT('',(0.32,0.32,-5.57));
#1226=CARTESIAN_POINT('',(4.52925457555824E-014,0.32,-5.57));
#1227=CARTESIAN_POINT('',(0.32,-0.32,-5.77));
#1228=CARTESIAN_POINT('',(0.32,-0.32,-5.57));
#1229=CARTESIAN_POINT('',(-0.319999999999995,-0.32,-5.77));
#1230=CARTESIAN_POINT('',(0.12,-0.32,-5.77));
#1231=CARTESIAN_POINT('',(0.12,0.12,-5.77));
#1232=CARTESIAN_POINT('',(0.12,-0.12,-5.77));
#1233=CARTESIAN_POINT('',(-0.319999999999995,-0.12,-5.77));
#1234=CARTESIAN_POINT('',(-0.119999999999993,-0.12,-5.77));
#1235=CARTESIAN_POINT('',(-0.119999999999993,-0.32,-5.77));
#1236=CARTESIAN_POINT('',(-0.119999999999993,0.12,-5.77));
#1237=CARTESIAN_POINT('',(-0.319999999999995,0.12,-5.77));
#1238=CARTESIAN_POINT('',(-0.319999999999995,0.12,-5.77));
#1239=CARTESIAN_POINT('',(0.106666666666667,0.106666666666666,-5.78333333333334));
#1240=CARTESIAN_POINT('',(-0.18666666666666,0.186666666666668,-5.70333333333334));
#1241=CARTESIAN_POINT('',(-0.119999999999993,-0.32,-5.77));
#1242=CARTESIAN_POINT('',(-0.18666666666666,-0.186666666666668,-5.70333333333334));
#1243=CARTESIAN_POINT('',(4.52925457555824E-014,-0.32,-5.57));
#1244=CARTESIAN_POINT('',(0.32,-0.32,-5.57));
#1245=CARTESIAN_POINT('',(0.32,-0.32,-5.57));
#1246=CARTESIAN_POINT('',(2.54,1.27,1.27));
#1247=CARTESIAN_POINT('',(-1.59,1.27,-0.32));
#1248=CARTESIAN_POINT('',(-1.59,1.27,-0.32));
#1249=CARTESIAN_POINT('',(-0.95,1.27,-0.32));
#1250=CARTESIAN_POINT('',(-0.95,1.27,-0.32));
#1251=CARTESIAN_POINT('',(-0.95,1.27,0.32));
#1252=CARTESIAN_POINT('',(-0.95,1.27,0.32));
#1253=CARTESIAN_POINT('',(-1.59,1.27,0.32));
#1254=CARTESIAN_POINT('',(-1.59,1.27,0.32));
#1255=CARTESIAN_POINT('',(2.54,1.27,1.27));
#1256=CARTESIAN_POINT('',(2.54,1.27,0.77));
#1257=CARTESIAN_POINT('',(2.54,1.27,-0.77));
#1258=CARTESIAN_POINT('',(2.54,1.27,-0.77));
#1259=CARTESIAN_POINT('',(2.29,1.27,-1.27));
#1260=CARTESIAN_POINT('',(2.54,1.27,-1.27));
#1261=CARTESIAN_POINT('',(0.25,1.27,-1.27));
#1262=CARTESIAN_POINT('',(0.25,1.27,-1.27));
#1263=CARTESIAN_POINT('',(8.67361737988404E-016,1.27,-0.77));
#1264=CARTESIAN_POINT('',(0.,1.27,-0.77));
#1265=CARTESIAN_POINT('',(-0.25,1.27,-1.27));
#1266=CARTESIAN_POINT('',(2.54,1.27,-1.27));
#1267=CARTESIAN_POINT('',(-2.29,1.27,-1.27));
#1268=CARTESIAN_POINT('',(-2.29,1.27,-1.27));
#1269=CARTESIAN_POINT('',(-2.54,1.27,-0.77));
#1270=CARTESIAN_POINT('',(-2.54,1.27,1.27));
#1271=CARTESIAN_POINT('',(-2.54,1.27,0.77));
#1272=CARTESIAN_POINT('',(-2.54,1.27,0.77));
#1273=CARTESIAN_POINT('',(-2.29,1.27,1.27));
#1274=CARTESIAN_POINT('',(2.54,1.27,1.27));
#1275=CARTESIAN_POINT('',(-0.25,1.27,1.27));
#1276=CARTESIAN_POINT('',(-0.25,1.27,1.27));
#1277=CARTESIAN_POINT('',(-3.25260651745652E-016,1.27,0.77));
#1278=CARTESIAN_POINT('',(0.,1.27,0.77));
#1279=CARTESIAN_POINT('',(0.25,1.27,1.27));
#1280=CARTESIAN_POINT('',(2.54,1.27,1.27));
#1281=CARTESIAN_POINT('',(2.29,1.27,1.27));
#1282=CARTESIAN_POINT('',(2.29,1.27,1.27));
#1283=CARTESIAN_POINT('',(0.95,1.27,-0.32));
#1284=CARTESIAN_POINT('',(0.95,1.27,-0.32));
#1285=CARTESIAN_POINT('',(1.59,1.27,-0.32));
#1286=CARTESIAN_POINT('',(1.59,1.27,-0.32));
#1287=CARTESIAN_POINT('',(1.59,1.27,0.32));
#1288=CARTESIAN_POINT('',(1.59,1.27,0.32));
#1289=CARTESIAN_POINT('',(0.95,1.27,0.32));
#1290=CARTESIAN_POINT('',(0.95,1.27,0.32));
#1291=CARTESIAN_POINT('',(1.59,-4.95170394666927,0.32));
#1292=CARTESIAN_POINT('',(0.95,-4.95170394666927,0.32));
#1293=CARTESIAN_POINT('',(0.95,-0.77,0.32));
#1294=CARTESIAN_POINT('',(1.59,-4.95170394666927,0.32));
#1295=CARTESIAN_POINT('',(1.59,-0.77,0.32));
#1296=CARTESIAN_POINT('',(-3.68170394666927,-0.77,0.32));
#1297=CARTESIAN_POINT('',(0.95,-4.95170394666927,0.32));
#1298=CARTESIAN_POINT('',(0.95,-4.95170394666927,-0.32));
#1299=CARTESIAN_POINT('',(0.95,-0.77,-0.32));
#1300=CARTESIAN_POINT('',(0.95,-0.77,0.9));
#1301=CARTESIAN_POINT('',(-3.68170394666927,-0.77,0.9));
#1302=CARTESIAN_POINT('',(-3.68170394666927,-0.77,0.9));
#1303=CARTESIAN_POINT('',(-2.475,-0.77,0.9));
#1304=CARTESIAN_POINT('',(-0.065,-0.77,0.9));
#1305=CARTESIAN_POINT('',(-2.54,-0.77,0.77));
#1306=CARTESIAN_POINT('',(-2.54,-0.77,0.77));
#1307=CARTESIAN_POINT('',(-2.54,-0.77,-1.39139278802306E-016));
#1308=CARTESIAN_POINT('',(-2.54,-0.77,-0.77));
#1309=CARTESIAN_POINT('',(-2.29,-0.77,-1.27));
#1310=CARTESIAN_POINT('',(-2.475,-0.77,-0.9));
#1311=CARTESIAN_POINT('',(-3.68170394666927,-0.77,-0.9));
#1312=CARTESIAN_POINT('',(-0.065,-0.77,-0.9));
#1313=CARTESIAN_POINT('',(4.45051411121415E-016,-0.77,-0.77));
#1314=CARTESIAN_POINT('',(2.55311802368313E-017,-0.77,-0.77));
#1315=CARTESIAN_POINT('',(0.25,-0.77,-1.27));
#1316=CARTESIAN_POINT('',(0.065,-0.77,-0.9));
#1317=CARTESIAN_POINT('',(-3.68170394666927,-0.77,-0.9));
#1318=CARTESIAN_POINT('',(2.475,-0.77,-0.9));
#1319=CARTESIAN_POINT('',(2.54,-0.77,-0.77));
#1320=CARTESIAN_POINT('',(2.54,-0.77,-0.77));
#1321=CARTESIAN_POINT('',(2.54,-0.77,0.9));
#1322=CARTESIAN_POINT('',(2.54,-0.77,0.77));
#1323=CARTESIAN_POINT('',(2.29,-0.77,1.27));
#1324=CARTESIAN_POINT('',(2.475,-0.77,0.9));
#1325=CARTESIAN_POINT('',(-3.68170394666927,-0.77,0.9));
#1326=CARTESIAN_POINT('',(0.0649999999999982,-0.77,0.9));
#1327=CARTESIAN_POINT('',(1.59456922701255E-016,-0.77,0.77));
#1328=CARTESIAN_POINT('',(-1.7335350558907E-017,-0.77,0.77));
#1329=CARTESIAN_POINT('',(-0.25,-0.77,1.27));
#1330=CARTESIAN_POINT('',(-1.59,-0.77,-0.32));
#1331=CARTESIAN_POINT('',(-1.59,-0.77,-0.32));
#1332=CARTESIAN_POINT('',(-0.95,-0.77,-0.32));
#1333=CARTESIAN_POINT('',(-1.59,-0.77,0.32));
#1334=CARTESIAN_POINT('',(-1.59,-0.77,0.32));
#1335=CARTESIAN_POINT('',(-0.95,-0.77,0.32));
#1336=CARTESIAN_POINT('',(-0.95,-0.77,0.32));
#1337=CARTESIAN_POINT('',(-0.95,-0.77,-0.32));
#1338=CARTESIAN_POINT('',(1.59,-0.77,0.9));
#1339=CARTESIAN_POINT('',(1.59,-0.77,-0.32));
#1340=CARTESIAN_POINT('',(-3.68170394666927,-0.77,-0.32));
#1341=CARTESIAN_POINT('',(0.95,-4.95170394666927,-0.32));
#1342=CARTESIAN_POINT('',(1.59,-4.95170394666927,-0.32));
#1343=CARTESIAN_POINT('',(1.59,-4.95170394666927,-0.32));
#1344=CARTESIAN_POINT('',(-3.68170394666927,-0.77,-0.9));
#1345=CARTESIAN_POINT('',(-3.68170394666927,-1.27,-0.9));
#1346=CARTESIAN_POINT('',(0.065,-1.27,-0.9));
#1347=CARTESIAN_POINT('',(2.475,-1.27,-0.9));
#1348=CARTESIAN_POINT('',(2.475,-5.15744894962224,-0.9));
#1349=CARTESIAN_POINT('',(0.0650000000000022,-4.95170394666928,-0.9));
#1350=CARTESIAN_POINT('',(-3.68170394666927,-0.77,-0.9));
#1351=CARTESIAN_POINT('',(-3.68170394666927,-1.27,-0.9));
#1352=CARTESIAN_POINT('',(-2.475,-1.27,-0.9));
#1353=CARTESIAN_POINT('',(-0.065,-1.27,-0.9));
#1354=CARTESIAN_POINT('',(-0.0650000000000023,-4.95170394666927,-0.9));
#1355=CARTESIAN_POINT('',(-2.475,-5.15744894962224,-0.9));
#1356=CARTESIAN_POINT('',(2.54,-1.27,-1.27));
#1357=CARTESIAN_POINT('',(-2.34,-1.27,1.17));
#1358=CARTESIAN_POINT('',(-2.29,-1.27,1.27));
#1359=CARTESIAN_POINT('',(-2.475,-1.27,0.9));
#1360=CARTESIAN_POINT('',(-3.68170394666927,-1.27,0.9));
#1361=CARTESIAN_POINT('',(-0.065,-1.27,0.9));
#1362=CARTESIAN_POINT('',(1.324,-1.27,-1.878));
#1363=CARTESIAN_POINT('',(-0.25,-1.27,1.27));
#1364=CARTESIAN_POINT('',(2.54,-1.27,1.27));
#1365=CARTESIAN_POINT('',(2.54,0.,0.));
#1366=CARTESIAN_POINT('',(2.54,-6.57350923475464E-017,-0.77));
#1367=CARTESIAN_POINT('',(2.54,-6.57350923475464E-017,0.77));
#1368=CARTESIAN_POINT('',(2.54,-5.15744894962224,-0.77));
#1369=CARTESIAN_POINT('',(2.34,-1.27,-1.17));
#1370=CARTESIAN_POINT('',(2.29,-1.27,-1.27));
#1371=CARTESIAN_POINT('',(2.29,-5.15744894962224,-1.27));
#1372=CARTESIAN_POINT('',(2.54,1.27,-1.27));
#1373=CARTESIAN_POINT('',(2.54,-1.27,-1.27));
#1374=CARTESIAN_POINT('',(0.25,-1.27,-1.27));
#1375=CARTESIAN_POINT('',(0.25,1.27,-1.27));
#1376=CARTESIAN_POINT('',(2.54,-1.27,-1.27));
#1377=CARTESIAN_POINT('',(0.708,-1.27,-2.186));
#1378=CARTESIAN_POINT('',(0.25,-4.95170394666927,-1.27));
#1379=CARTESIAN_POINT('',(0.,-4.95170394666927,-0.77));
#1380=CARTESIAN_POINT('',(2.54,1.27,-1.27));
#1381=CARTESIAN_POINT('',(-0.25,1.27,-1.27));
#1382=CARTESIAN_POINT('',(-0.25,-1.27,-1.27));
#1383=CARTESIAN_POINT('',(2.54,-1.27,-1.27));
#1384=CARTESIAN_POINT('',(-2.29,-1.27,-1.27));
#1385=CARTESIAN_POINT('',(-2.29,1.27,-1.27));
#1386=CARTESIAN_POINT('',(-2.29,-5.15744894962224,-1.27));
#1387=CARTESIAN_POINT('',(-2.54,-5.15744894962224,-0.77));
#1388=CARTESIAN_POINT('',(-1.324,-1.27,-3.202));
#1389=CARTESIAN_POINT('',(-2.54,0.,0.));
#1390=CARTESIAN_POINT('',(-2.54,-6.57350923475464E-017,0.77));
#1391=CARTESIAN_POINT('',(-2.54,-5.15744894962224,0.77));
#1392=CARTESIAN_POINT('',(-2.475,-5.15744894962224,0.9));
#1393=CARTESIAN_POINT('',(-2.29,-5.15744894962224,1.27));
#1394=CARTESIAN_POINT('',(2.54,-1.27,1.27));
#1395=CARTESIAN_POINT('',(-0.25,-1.27,1.27));
#1396=CARTESIAN_POINT('',(-0.25,-4.95170394666927,1.27));
#1397=CARTESIAN_POINT('',(-0.0650000000000014,-4.95170394666927,0.9));
#1398=CARTESIAN_POINT('',(0.,-4.95170394666927,0.77));
#1399=CARTESIAN_POINT('',(0.,-4.95170394666927,0.77));
#1400=CARTESIAN_POINT('',(0.0650000000000014,-4.95170394666927,0.9));
#1401=CARTESIAN_POINT('',(0.065,-1.27,0.9));
#1402=CARTESIAN_POINT('',(-0.308,-1.27,0.153999999999998));
#1403=CARTESIAN_POINT('',(0.25,-1.27,1.27));
#1404=CARTESIAN_POINT('',(0.25,-1.27,1.27));
#1405=CARTESIAN_POINT('',(2.54,-1.27,1.27));
#1406=CARTESIAN_POINT('',(2.54,-1.27,1.27));
#1407=CARTESIAN_POINT('',(2.29,-1.27,1.27));
#1408=CARTESIAN_POINT('',(2.29,-5.15744894962224,1.27));
#1409=CARTESIAN_POINT('',(2.29,-5.15744894962224,1.27));
#1410=CARTESIAN_POINT('',(3.356,-1.27,-0.862));
#1411=CARTESIAN_POINT('',(2.475,-1.27,0.9));
#1412=CARTESIAN_POINT('',(2.475,-5.15744894962224,0.9));
#1413=CARTESIAN_POINT('',(-3.68170394666927,-1.27,0.9));
#1414=CARTESIAN_POINT('',(-3.68170394666927,-1.27,0.9));
#1415=CARTESIAN_POINT('',(2.54,-1.27,-1.27));
#1416=CARTESIAN_POINT('',(2.54,-1.27,-1.27));
#1417=CARTESIAN_POINT('',(0.308,-1.27,-0.154));
#1418=CARTESIAN_POINT('',(-1.59,-4.95170394666927,-0.32));
#1419=CARTESIAN_POINT('',(-1.59,-4.95170394666927,-0.32));
#1420=CARTESIAN_POINT('',(-0.95,-4.95170394666927,-0.32));
#1421=CARTESIAN_POINT('',(-1.59,-4.95170394666927,0.32));
#1422=CARTESIAN_POINT('',(-1.59,-4.95170394666927,0.32));
#1423=CARTESIAN_POINT('',(-0.95,-4.95170394666927,0.32));
#1424=CARTESIAN_POINT('',(-0.95,-4.95170394666927,0.32));
#1425=CARTESIAN_POINT('',(-3.68170394666927,-1.27,0.9));
#1426=CARTESIAN_POINT('',(-0.95,-4.95170394666927,-0.32));
#1427=CARTESIAN_POINT('',(0.,-4.95170394666927,-0.77));
#1428=CARTESIAN_POINT('CARTESIAN_POINT4',(-1.27,1.5,3.25260621179683E-016));
#1429=CARTESIAN_POINT('CARTESIAN_POINT8',(0.,0.,0.));
#1430=CARTESIAN_POINT('CARTESIAN_POINT14',(1.27,1.5,3.25260621179683E-016));
#1431=CARTESIAN_POINT('CARTESIAN_POINT18',(0.,0.,0.));
#1432=CARTESIAN_POINT('CARTESIAN_POINT24',(0.,0.,0.));
#1433=CARTESIAN_POINT('CARTESIAN_POINT28',(0.,0.,0.));
#1434=PLANE('',#960);
#1435=PLANE('',#961);
#1436=PLANE('',#962);
#1437=PLANE('',#963);
#1438=PLANE('',#964);
#1439=PLANE('',#965);
#1440=PLANE('',#966);
#1441=PLANE('',#967);
#1442=PLANE('',#968);
#1443=PLANE('',#969);
#1444=PLANE('',#970);
#1445=PLANE('',#971);
#1446=PLANE('',#972);
#1447=PLANE('',#973);
#1448=PLANE('',#974);
#1449=PLANE('',#975);
#1450=PLANE('',#976);
#1451=PLANE('',#977);
#1452=PLANE('',#978);
#1453=PLANE('',#979);
#1454=PLANE('',#980);
#1455=PLANE('',#981);
#1456=PLANE('',#982);
#1457=PLANE('',#983);
#1458=PLANE('',#984);
#1459=PLANE('',#985);
#1460=PLANE('',#986);
#1461=PLANE('',#987);
#1462=PLANE('',#988);
#1463=PLANE('',#989);
#1464=PLANE('',#990);
#1465=PLANE('',#991);
#1466=PLANE('',#992);
#1467=PLANE('',#993);
#1468=PLANE('',#994);
#1469=PLANE('',#995);
#1470=PLANE('',#996);
#1471=PLANE('',#997);
#1472=PLANE('',#998);
#1473=PLANE('',#999);
#1474=PLANE('',#1000);
#1475=PLANE('',#1001);
#1476=PLANE('',#1002);
#1477=PLANE('',#1003);
#1478=PLANE('',#1004);
#1479=PLANE('',#1005);
#1480=CLOSED_SHELL('',(#914,#915,#916,#917,#918,#919,#920,#921,#922,#923,
#924,#925,#926,#927));
#1481=CLOSED_SHELL('',(#928,#929,#930,#931,#932,#933,#934,#935,#936,#937,
#938,#939,#940,#941,#942,#943,#944,#945,#946,#947,#948,#949,#950,#951,#952,
#953,#954,#955,#956,#957,#958,#959));
#1482=MANIFOLD_SOLID_BREP('',#1480);
#1483=MANIFOLD_SOLID_BREP('',#1481);
#1484=ADVANCED_BREP_SHAPE_REPRESENTATION('61300211121_2',(#1482),#145);
#1485=ADVANCED_BREP_SHAPE_REPRESENTATION('61300211121_1',(#1483),#146);
ENDSEC;
END-ISO-10303-21;
