ISO-10303-21;
HEADER;
/* Generated by software containing ST-Developer
 * from STEP Tools, Inc. (www.steptools.com) 
 */

FILE_DESCRIPTION(
/* description */ ('Alibre Inc.'),
/* implementation_level */ '2;1');

FILE_NAME(
/* name */ 'export0',
/* time_stamp */ '2014-11-03T17:21:11+08:00',
/* author */ (''),
/* organization */ (''),
/* preprocessor_version */ 'ST-DEVELOPER v14',
/* originating_system */ 'Alibre',
/* authorisation */ '');

FILE_SCHEMA (('AUTOMOTIVE_DESIGN'));
ENDSEC;

DATA;
#10=CONTEXT_DEPENDENT_SHAPE_REPRESENTATION(#22,#126);
#11=CONTEXT_DEPENDENT_SHAPE_REPRESENTATION(#23,#127);
#12=CONTEXT_DEPENDENT_SHAPE_REPRESENTATION(#24,#128);
#13=CONTEXT_DEPENDENT_SHAPE_REPRESENTATION(#25,#129);
#14=NEXT_ASSEMBLY_USAGE_OCCURRENCE('NAUO_ID9','NAUO_NAME9',$,#132,#130,$);
#15=NEXT_ASSEMBLY_USAGE_OCCURRENCE('NAUO_ID19','NAUO_NAME19',$,#132,#131,
$);
#16=NEXT_ASSEMBLY_USAGE_OCCURRENCE('NAUO_ID29','NAUO_NAME29',$,#132,#131,
$);
#17=NEXT_ASSEMBLY_USAGE_OCCURRENCE('NAUO_ID39','NAUO_NAME39',$,#132,#131,
$);
#18=ITEM_DEFINED_TRANSFORMATION('ITD_NAME0',$,#1324,#1323);
#19=ITEM_DEFINED_TRANSFORMATION('ITD_NAME10',$,#1326,#1325);
#20=ITEM_DEFINED_TRANSFORMATION('ITD_NAME20',$,#1328,#1327);
#21=ITEM_DEFINED_TRANSFORMATION('ITD_NAME30',$,#1330,#1329);
#22=(
REPRESENTATION_RELATIONSHIP('61300311121',$,#147,#149)
REPRESENTATION_RELATIONSHIP_WITH_TRANSFORMATION(#18)
SHAPE_REPRESENTATION_RELATIONSHIP()
);
#23=(
REPRESENTATION_RELATIONSHIP('6130xx11121_PIN',$,#148,#149)
REPRESENTATION_RELATIONSHIP_WITH_TRANSFORMATION(#19)
SHAPE_REPRESENTATION_RELATIONSHIP()
);
#24=(
REPRESENTATION_RELATIONSHIP('6130xx11121_PIN',$,#148,#149)
REPRESENTATION_RELATIONSHIP_WITH_TRANSFORMATION(#20)
SHAPE_REPRESENTATION_RELATIONSHIP()
);
#25=(
REPRESENTATION_RELATIONSHIP('6130xx11121_PIN',$,#148,#149)
REPRESENTATION_RELATIONSHIP_WITH_TRANSFORMATION(#21)
SHAPE_REPRESENTATION_RELATIONSHIP()
);
#26=STYLED_ITEM('NAME_0',(#113),#1961);
#27=STYLED_ITEM('NAME_0',(#114),#1203);
#28=STYLED_ITEM('NAME_0',(#114),#1204);
#29=STYLED_ITEM('NAME_0',(#114),#1205);
#30=STYLED_ITEM('NAME_0',(#114),#1206);
#31=STYLED_ITEM('NAME_0',(#114),#1207);
#32=STYLED_ITEM('NAME_0',(#114),#1208);
#33=STYLED_ITEM('NAME_0',(#114),#1209);
#34=STYLED_ITEM('NAME_0',(#114),#1210);
#35=STYLED_ITEM('NAME_0',(#114),#1211);
#36=STYLED_ITEM('NAME_0',(#114),#1212);
#37=STYLED_ITEM('NAME_0',(#114),#1213);
#38=STYLED_ITEM('NAME_0',(#114),#1214);
#39=STYLED_ITEM('NAME_0',(#114),#1215);
#40=STYLED_ITEM('NAME_0',(#114),#1216);
#41=STYLED_ITEM('NAME_0',(#114),#1217);
#42=STYLED_ITEM('NAME_0',(#114),#1218);
#43=STYLED_ITEM('NAME_0',(#114),#1219);
#44=STYLED_ITEM('NAME_0',(#114),#1220);
#45=STYLED_ITEM('NAME_0',(#114),#1221);
#46=STYLED_ITEM('NAME_0',(#114),#1222);
#47=STYLED_ITEM('NAME_0',(#114),#1223);
#48=STYLED_ITEM('NAME_0',(#114),#1224);
#49=STYLED_ITEM('NAME_0',(#114),#1225);
#50=STYLED_ITEM('NAME_0',(#114),#1226);
#51=STYLED_ITEM('NAME_0',(#114),#1227);
#52=STYLED_ITEM('NAME_0',(#114),#1228);
#53=STYLED_ITEM('NAME_0',(#114),#1229);
#54=STYLED_ITEM('NAME_0',(#114),#1230);
#55=STYLED_ITEM('NAME_0',(#114),#1231);
#56=STYLED_ITEM('NAME_0',(#114),#1232);
#57=STYLED_ITEM('NAME_0',(#114),#1233);
#58=STYLED_ITEM('NAME_0',(#114),#1234);
#59=STYLED_ITEM('NAME_0',(#114),#1235);
#60=STYLED_ITEM('NAME_0',(#114),#1236);
#61=STYLED_ITEM('NAME_0',(#114),#1237);
#62=STYLED_ITEM('NAME_0',(#114),#1238);
#63=STYLED_ITEM('NAME_0',(#114),#1239);
#64=STYLED_ITEM('NAME_0',(#114),#1240);
#65=STYLED_ITEM('NAME_0',(#114),#1241);
#66=STYLED_ITEM('NAME_0',(#114),#1242);
#67=STYLED_ITEM('NAME_0',(#114),#1243);
#68=STYLED_ITEM('NAME_0',(#114),#1244);
#69=STYLED_ITEM('NAME_0',(#114),#1245);
#70=STYLED_ITEM('NAME_0',(#114),#1246);
#71=STYLED_ITEM('NAME_0',(#114),#1247);
#72=STYLED_ITEM('NAME_0',(#114),#1248);
#73=STYLED_ITEM('NAME_0',(#115),#1962);
#74=STYLED_ITEM('NAME_0',(#116),#1249);
#75=STYLED_ITEM('NAME_0',(#116),#1250);
#76=STYLED_ITEM('NAME_0',(#116),#1251);
#77=STYLED_ITEM('NAME_0',(#116),#1252);
#78=STYLED_ITEM('NAME_0',(#116),#1253);
#79=STYLED_ITEM('NAME_0',(#116),#1254);
#80=STYLED_ITEM('NAME_0',(#116),#1255);
#81=STYLED_ITEM('NAME_0',(#116),#1256);
#82=STYLED_ITEM('NAME_0',(#116),#1257);
#83=STYLED_ITEM('NAME_0',(#116),#1258);
#84=STYLED_ITEM('NAME_0',(#116),#1259);
#85=STYLED_ITEM('NAME_0',(#116),#1260);
#86=STYLED_ITEM('NAME_0',(#116),#1261);
#87=STYLED_ITEM('NAME_0',(#116),#1262);
#88=MECHANICAL_DESIGN_GEOMETRIC_PRESENTATION_REPRESENTATION('NAME_0',(#26,
#27,#28,#29,#30,#31,#32,#33,#34,#35,#36,#37,#38,#39,#40,#41,#42,#43,#44,
#45,#46,#47,#48,#49,#50,#51,#52,#53,#54,#55,#56,#57,#58,#59,#60,#61,#62,
#63,#64,#65,#66,#67,#68,#69,#70,#71,#72,#73,#74,#75,#76,#77,#78,#79,#80,
#81,#82,#83,#84,#85,#86,#87),#164);
#89=COLOUR_RGB('',0.211764705882353,0.211764705882353,0.211764705882353);
#90=COLOUR_RGB('',0.2,0.2,0.2);
#91=COLOUR_RGB('',0.211764705882353,0.211764705882353,0.211764705882353);
#92=COLOUR_RGB('',0.749019607843137,0.568627450980392,0.407843137254902);
#93=FILL_AREA_STYLE_COLOUR('NAME_0',#89);
#94=FILL_AREA_STYLE_COLOUR('NAME_0',#90);
#95=FILL_AREA_STYLE_COLOUR('NAME_0',#91);
#96=FILL_AREA_STYLE_COLOUR('NAME_0',#92);
#97=FILL_AREA_STYLE('NAME_0',(#93));
#98=FILL_AREA_STYLE('NAME_0',(#94));
#99=FILL_AREA_STYLE('NAME_0',(#95));
#100=FILL_AREA_STYLE('NAME_0',(#96));
#101=SURFACE_STYLE_FILL_AREA(#97);
#102=SURFACE_STYLE_FILL_AREA(#98);
#103=SURFACE_STYLE_FILL_AREA(#99);
#104=SURFACE_STYLE_FILL_AREA(#100);
#105=SURFACE_SIDE_STYLE('NAME_0',(#101));
#106=SURFACE_SIDE_STYLE('NAME_0',(#102));
#107=SURFACE_SIDE_STYLE('NAME_0',(#103));
#108=SURFACE_SIDE_STYLE('NAME_0',(#104));
#109=SURFACE_STYLE_USAGE(.POSITIVE.,#105);
#110=SURFACE_STYLE_USAGE(.POSITIVE.,#106);
#111=SURFACE_STYLE_USAGE(.POSITIVE.,#107);
#112=SURFACE_STYLE_USAGE(.POSITIVE.,#108);
#113=PRESENTATION_STYLE_ASSIGNMENT((#109));
#114=PRESENTATION_STYLE_ASSIGNMENT((#110));
#115=PRESENTATION_STYLE_ASSIGNMENT((#111));
#116=PRESENTATION_STYLE_ASSIGNMENT((#112));
#117=PRODUCT_DEFINITION_CONTEXT('part definition',#140,'design');
#118=PRODUCT_DEFINITION_CONTEXT('part definition',#140,'design');
#119=PRODUCT_DEFINITION_CONTEXT('part definition',#140,'design');
#120=SHAPE_DEFINITION_REPRESENTATION(#123,#147);
#121=SHAPE_DEFINITION_REPRESENTATION(#124,#148);
#122=SHAPE_DEFINITION_REPRESENTATION(#125,#149);
#123=PRODUCT_DEFINITION_SHAPE('PRODUCT_VERSION_ID',
'PRODUCT_VERSION_DESCR',#130);
#124=PRODUCT_DEFINITION_SHAPE('PRODUCT_VERSION_ID',
'PRODUCT_VERSION_DESCR',#131);
#125=PRODUCT_DEFINITION_SHAPE('PRODUCT_VERSION_ID',
'PRODUCT_VERSION_DESCR',#132);
#126=PRODUCT_DEFINITION_SHAPE('NAME_10',$,#14);
#127=PRODUCT_DEFINITION_SHAPE('NAME_20',$,#15);
#128=PRODUCT_DEFINITION_SHAPE('NAME_30',$,#16);
#129=PRODUCT_DEFINITION_SHAPE('NAME_40',$,#17);
#130=PRODUCT_DEFINITION('61300311121','PRODUCT_VERSION_DESCR',#133,#117);
#131=PRODUCT_DEFINITION('6130xx11121_PIN','PRODUCT_VERSION_DESCR',#134,#118);
#132=PRODUCT_DEFINITION('PRODUCT_VERSION_ID','PRODUCT_VERSION_DESCR',#135,
#119);
#133=PRODUCT_DEFINITION_FORMATION_WITH_SPECIFIED_SOURCE(
'PRODUCT_VERSION_ID','PRODUCT_VERSION_DESCR',#144,.MADE.);
#134=PRODUCT_DEFINITION_FORMATION_WITH_SPECIFIED_SOURCE(
'PRODUCT_VERSION_ID','PRODUCT_VERSION_DESCR',#145,.MADE.);
#135=PRODUCT_DEFINITION_FORMATION_WITH_SPECIFIED_SOURCE(
'PRODUCT_VERSION_ID','PRODUCT_VERSION_DESCR',#146,.MADE.);
#136=PRODUCT_RELATED_PRODUCT_CATEGORY('part','part',(#144));
#137=PRODUCT_RELATED_PRODUCT_CATEGORY('part','part',(#145));
#138=PRODUCT_RELATED_PRODUCT_CATEGORY('part','part',(#146));
#139=APPLICATION_PROTOCOL_DEFINITION('Draft International Standard',
'automotive_design',1994,#140);
#140=APPLICATION_CONTEXT('automotive_Design');
#141=PRODUCT_CONTEXT('3D Mechanical Parts',#140,'mechanical');
#142=PRODUCT_CONTEXT('3D Mechanical Parts',#140,'mechanical');
#143=PRODUCT_CONTEXT('3D Mechanical Parts',#140,'mechanical');
#144=PRODUCT('','61300311121','',(#141));
#145=PRODUCT('','6130xx11121_PIN','',(#142));
#146=PRODUCT('','Assem1','',(#143));
#147=SHAPE_REPRESENTATION('61300311121',(#1324),#164);
#148=SHAPE_REPRESENTATION('6130xx11121_PIN',(#1326,#1328,#1330),#165);
#149=SHAPE_REPRESENTATION('NAME_0',(#1323,#1325,#1327,#1329),#166);
#150=SHAPE_REPRESENTATION_RELATIONSHIP('NAME_0',$,#147,#1963);
#151=SHAPE_REPRESENTATION_RELATIONSHIP('NAME_0',$,#148,#1964);
#152=(
LENGTH_UNIT()
NAMED_UNIT(*)
SI_UNIT(.MILLI.,.METRE.)
);
#153=(
LENGTH_UNIT()
NAMED_UNIT(*)
SI_UNIT(.MILLI.,.METRE.)
);
#154=(
LENGTH_UNIT()
NAMED_UNIT(*)
SI_UNIT(.MILLI.,.METRE.)
);
#155=(
NAMED_UNIT(*)
PLANE_ANGLE_UNIT()
SI_UNIT($,.RADIAN.)
);
#156=(
NAMED_UNIT(*)
PLANE_ANGLE_UNIT()
SI_UNIT($,.RADIAN.)
);
#157=(
NAMED_UNIT(*)
PLANE_ANGLE_UNIT()
SI_UNIT($,.RADIAN.)
);
#158=(
NAMED_UNIT(*)
SI_UNIT($,.STERADIAN.)
SOLID_ANGLE_UNIT()
);
#159=(
NAMED_UNIT(*)
SI_UNIT($,.STERADIAN.)
SOLID_ANGLE_UNIT()
);
#160=(
NAMED_UNIT(*)
SI_UNIT($,.STERADIAN.)
SOLID_ANGLE_UNIT()
);
#161=UNCERTAINTY_MEASURE_WITH_UNIT(LENGTH_MEASURE(1.E-006),#152,
'DISTANCE_ACCURACY_VALUE',
'Maximum model space distance between geometric entities at asserted co
nnectivities');
#162=UNCERTAINTY_MEASURE_WITH_UNIT(LENGTH_MEASURE(1.E-006),#153,
'DISTANCE_ACCURACY_VALUE',
'Maximum model space distance between geometric entities at asserted co
nnectivities');
#163=UNCERTAINTY_MEASURE_WITH_UNIT(LENGTH_MEASURE(1.E-006),#154,
'DISTANCE_ACCURACY_VALUE',
'Maximum model space distance between geometric entities at asserted co
nnectivities');
#164=(
GEOMETRIC_REPRESENTATION_CONTEXT(3)
GLOBAL_UNCERTAINTY_ASSIGNED_CONTEXT((#161))
GLOBAL_UNIT_ASSIGNED_CONTEXT((#158,#155,#152))
REPRESENTATION_CONTEXT('ID1','3D')
);
#165=(
GEOMETRIC_REPRESENTATION_CONTEXT(3)
GLOBAL_UNCERTAINTY_ASSIGNED_CONTEXT((#162))
GLOBAL_UNIT_ASSIGNED_CONTEXT((#159,#156,#153))
REPRESENTATION_CONTEXT('ID1','3D')
);
#166=(
GEOMETRIC_REPRESENTATION_CONTEXT(3)
GLOBAL_UNCERTAINTY_ASSIGNED_CONTEXT((#163))
GLOBAL_UNIT_ASSIGNED_CONTEXT((#160,#157,#154))
REPRESENTATION_CONTEXT('ID1','3D')
);
#167=VERTEX_POINT('',#1569);
#168=VERTEX_POINT('',#1570);
#169=VERTEX_POINT('',#1572);
#170=VERTEX_POINT('',#1574);
#171=VERTEX_POINT('',#1577);
#172=VERTEX_POINT('',#1578);
#173=VERTEX_POINT('',#1580);
#174=VERTEX_POINT('',#1582);
#175=VERTEX_POINT('',#1584);
#176=VERTEX_POINT('',#1586);
#177=VERTEX_POINT('',#1588);
#178=VERTEX_POINT('',#1590);
#179=VERTEX_POINT('',#1592);
#180=VERTEX_POINT('',#1594);
#181=VERTEX_POINT('',#1596);
#182=VERTEX_POINT('',#1598);
#183=VERTEX_POINT('',#1600);
#184=VERTEX_POINT('',#1602);
#185=VERTEX_POINT('',#1604);
#186=VERTEX_POINT('',#1606);
#187=VERTEX_POINT('',#1608);
#188=VERTEX_POINT('',#1610);
#189=VERTEX_POINT('',#1612);
#190=VERTEX_POINT('',#1614);
#191=VERTEX_POINT('',#1617);
#192=VERTEX_POINT('',#1618);
#193=VERTEX_POINT('',#1620);
#194=VERTEX_POINT('',#1622);
#195=VERTEX_POINT('',#1625);
#196=VERTEX_POINT('',#1626);
#197=VERTEX_POINT('',#1628);
#198=VERTEX_POINT('',#1630);
#199=VERTEX_POINT('',#1634);
#200=VERTEX_POINT('',#1636);
#201=VERTEX_POINT('',#1640);
#202=VERTEX_POINT('',#1644);
#203=VERTEX_POINT('',#1645);
#204=VERTEX_POINT('',#1647);
#205=VERTEX_POINT('',#1649);
#206=VERTEX_POINT('',#1652);
#207=VERTEX_POINT('',#1653);
#208=VERTEX_POINT('',#1655);
#209=VERTEX_POINT('',#1657);
#210=VERTEX_POINT('',#1660);
#211=VERTEX_POINT('',#1661);
#212=VERTEX_POINT('',#1663);
#213=VERTEX_POINT('',#1665);
#214=VERTEX_POINT('',#1667);
#215=VERTEX_POINT('',#1669);
#216=VERTEX_POINT('',#1671);
#217=VERTEX_POINT('',#1673);
#218=VERTEX_POINT('',#1675);
#219=VERTEX_POINT('',#1677);
#220=VERTEX_POINT('',#1679);
#221=VERTEX_POINT('',#1681);
#222=VERTEX_POINT('',#1683);
#223=VERTEX_POINT('',#1685);
#224=VERTEX_POINT('',#1687);
#225=VERTEX_POINT('',#1689);
#226=VERTEX_POINT('',#1691);
#227=VERTEX_POINT('',#1693);
#228=VERTEX_POINT('',#1695);
#229=VERTEX_POINT('',#1697);
#230=VERTEX_POINT('',#1700);
#231=VERTEX_POINT('',#1712);
#232=VERTEX_POINT('',#1713);
#233=VERTEX_POINT('',#1715);
#234=VERTEX_POINT('',#1717);
#235=VERTEX_POINT('',#1735);
#236=VERTEX_POINT('',#1737);
#237=VERTEX_POINT('',#1741);
#238=VERTEX_POINT('',#1745);
#239=VERTEX_POINT('',#1749);
#240=VERTEX_POINT('',#1750);
#241=VERTEX_POINT('',#1756);
#242=VERTEX_POINT('',#1760);
#243=VERTEX_POINT('',#1770);
#244=VERTEX_POINT('',#1772);
#245=VERTEX_POINT('',#1776);
#246=VERTEX_POINT('',#1777);
#247=VERTEX_POINT('',#1782);
#248=VERTEX_POINT('',#1783);
#249=VERTEX_POINT('',#1785);
#250=VERTEX_POINT('',#1787);
#251=VERTEX_POINT('',#1808);
#252=VERTEX_POINT('',#1812);
#253=VERTEX_POINT('',#1817);
#254=VERTEX_POINT('',#1821);
#255=VERTEX_POINT('',#1835);
#256=VERTEX_POINT('',#1836);
#257=VERTEX_POINT('',#1838);
#258=VERTEX_POINT('',#1840);
#259=VERTEX_POINT('',#1844);
#260=VERTEX_POINT('',#1846);
#261=VERTEX_POINT('',#1850);
#262=VERTEX_POINT('',#1852);
#263=VERTEX_POINT('',#1856);
#264=VERTEX_POINT('',#1857);
#265=VERTEX_POINT('',#1864);
#266=VERTEX_POINT('',#1870);
#267=VERTEX_POINT('',#1876);
#268=VERTEX_POINT('',#1877);
#269=VERTEX_POINT('',#1879);
#270=VERTEX_POINT('',#1881);
#271=VECTOR('',#1332,1.);
#272=VECTOR('',#1333,1.);
#273=VECTOR('',#1334,1.);
#274=VECTOR('',#1335,1.);
#275=VECTOR('',#1336,1.);
#276=VECTOR('',#1337,1.);
#277=VECTOR('',#1338,1.);
#278=VECTOR('',#1339,1.);
#279=VECTOR('',#1340,1.);
#280=VECTOR('',#1341,1.);
#281=VECTOR('',#1342,1.);
#282=VECTOR('',#1343,1.);
#283=VECTOR('',#1344,1.);
#284=VECTOR('',#1345,1.);
#285=VECTOR('',#1346,1.);
#286=VECTOR('',#1347,1.);
#287=VECTOR('',#1348,1.);
#288=VECTOR('',#1349,1.);
#289=VECTOR('',#1350,1.);
#290=VECTOR('',#1351,1.);
#291=VECTOR('',#1352,1.);
#292=VECTOR('',#1353,1.);
#293=VECTOR('',#1354,1.);
#294=VECTOR('',#1355,1.);
#295=VECTOR('',#1356,1.);
#296=VECTOR('',#1357,1.);
#297=VECTOR('',#1358,1.);
#298=VECTOR('',#1359,1.);
#299=VECTOR('',#1360,1.);
#300=VECTOR('',#1361,1.);
#301=VECTOR('',#1362,1.);
#302=VECTOR('',#1363,1.);
#303=VECTOR('',#1365,1.);
#304=VECTOR('',#1366,1.);
#305=VECTOR('',#1367,1.);
#306=VECTOR('',#1369,1.);
#307=VECTOR('',#1370,1.);
#308=VECTOR('',#1372,1.);
#309=VECTOR('',#1373,1.);
#310=VECTOR('',#1374,1.);
#311=VECTOR('',#1375,1.);
#312=VECTOR('',#1376,1.);
#313=VECTOR('',#1377,1.);
#314=VECTOR('',#1378,1.);
#315=VECTOR('',#1379,1.);
#316=VECTOR('',#1380,1.);
#317=VECTOR('',#1381,1.);
#318=VECTOR('',#1382,1.);
#319=VECTOR('',#1383,1.);
#320=VECTOR('',#1384,1.);
#321=VECTOR('',#1385,1.);
#322=VECTOR('',#1386,1.);
#323=VECTOR('',#1387,1.);
#324=VECTOR('',#1388,1.);
#325=VECTOR('',#1389,1.);
#326=VECTOR('',#1390,1.);
#327=VECTOR('',#1391,1.);
#328=VECTOR('',#1392,1.);
#329=VECTOR('',#1393,1.);
#330=VECTOR('',#1394,1.);
#331=VECTOR('',#1395,1.);
#332=VECTOR('',#1396,1.);
#333=VECTOR('',#1397,1.);
#334=VECTOR('',#1398,1.);
#335=VECTOR('',#1399,1.);
#336=VECTOR('',#1400,1.);
#337=VECTOR('',#1401,1.);
#338=VECTOR('',#1403,1.);
#339=VECTOR('',#1406,1.);
#340=VECTOR('',#1407,1.);
#341=VECTOR('',#1409,1.);
#342=VECTOR('',#1411,1.);
#343=VECTOR('',#1412,1.);
#344=VECTOR('',#1413,1.);
#345=VECTOR('',#1414,1.);
#346=VECTOR('',#1416,1.);
#347=VECTOR('',#1417,1.);
#348=VECTOR('',#1419,1.);
#349=VECTOR('',#1421,1.);
#350=VECTOR('',#1424,1.);
#351=VECTOR('',#1425,1.);
#352=VECTOR('',#1426,1.);
#353=VECTOR('',#1428,1.);
#354=VECTOR('',#1430,1.);
#355=VECTOR('',#1431,1.);
#356=VECTOR('',#1432,1.);
#357=VECTOR('',#1434,1.);
#358=VECTOR('',#1435,1.);
#359=VECTOR('',#1437,1.);
#360=VECTOR('',#1438,1.);
#361=VECTOR('',#1440,1.);
#362=VECTOR('',#1441,1.);
#363=VECTOR('',#1442,1.);
#364=VECTOR('',#1444,1.);
#365=VECTOR('',#1445,1.);
#366=VECTOR('',#1446,1.);
#367=VECTOR('',#1448,1.);
#368=VECTOR('',#1449,1.);
#369=VECTOR('',#1451,1.);
#370=VECTOR('',#1453,1.);
#371=VECTOR('',#1454,1.);
#372=VECTOR('',#1457,1.);
#373=VECTOR('',#1458,1.);
#374=VECTOR('',#1459,1.);
#375=VECTOR('',#1461,1.);
#376=VECTOR('',#1462,1.);
#377=VECTOR('',#1463,1.);
#378=VECTOR('',#1465,1.);
#379=VECTOR('',#1466,1.);
#380=VECTOR('',#1467,1.);
#381=VECTOR('',#1468,1.);
#382=VECTOR('',#1470,1.);
#383=VECTOR('',#1472,1.);
#384=VECTOR('',#1474,1.);
#385=VECTOR('',#1475,1.);
#386=VECTOR('',#1477,1.);
#387=VECTOR('',#1478,1.);
#388=VECTOR('',#1480,1.);
#389=VECTOR('',#1482,1.);
#390=VECTOR('',#1484,1.);
#391=VECTOR('',#1485,1.);
#392=VECTOR('',#1487,1.);
#393=VECTOR('',#1488,1.);
#394=VECTOR('',#1490,1.);
#395=VECTOR('',#1491,1.);
#396=VECTOR('',#1494,1.);
#397=VECTOR('',#1495,1.);
#398=VECTOR('',#1497,1.);
#399=VECTOR('',#1498,1.);
#400=VECTOR('',#1501,1.);
#401=VECTOR('',#1503,1.);
#402=VECTOR('',#1505,1.);
#403=VECTOR('',#1510,1.);
#404=VECTOR('',#1511,1.);
#405=VECTOR('',#1512,1.);
#406=VECTOR('',#1513,1.);
#407=VECTOR('',#1515,1.);
#408=VECTOR('',#1516,1.);
#409=VECTOR('',#1517,1.);
#410=VECTOR('',#1519,1.);
#411=VECTOR('',#1520,1.);
#412=VECTOR('',#1521,1.);
#413=VECTOR('',#1523,1.);
#414=VECTOR('',#1524,1.);
#415=VECTOR('',#1525,1.);
#416=VECTOR('',#1527,1.);
#417=VECTOR('',#1529,1.);
#418=VECTOR('',#1530,1.);
#419=VECTOR('',#1532,1.);
#420=VECTOR('',#1534,1.);
#421=VECTOR('',#1535,1.);
#422=VECTOR('',#1537,1.);
#423=VECTOR('',#1539,1.);
#424=VECTOR('',#1540,1.);
#425=VECTOR('',#1541,1.);
#426=VECTOR('',#1542,1.);
#427=VECTOR('',#1544,1.);
#428=VECTOR('',#1545,1.);
#429=VECTOR('',#1547,1.);
#430=VECTOR('',#1549,1.);
#431=LINE('',#1568,#271);
#432=LINE('',#1571,#272);
#433=LINE('',#1573,#273);
#434=LINE('',#1575,#274);
#435=LINE('',#1576,#275);
#436=LINE('',#1579,#276);
#437=LINE('',#1581,#277);
#438=LINE('',#1583,#278);
#439=LINE('',#1585,#279);
#440=LINE('',#1587,#280);
#441=LINE('',#1589,#281);
#442=LINE('',#1591,#282);
#443=LINE('',#1593,#283);
#444=LINE('',#1595,#284);
#445=LINE('',#1597,#285);
#446=LINE('',#1599,#286);
#447=LINE('',#1601,#287);
#448=LINE('',#1603,#288);
#449=LINE('',#1605,#289);
#450=LINE('',#1607,#290);
#451=LINE('',#1609,#291);
#452=LINE('',#1611,#292);
#453=LINE('',#1613,#293);
#454=LINE('',#1615,#294);
#455=LINE('',#1616,#295);
#456=LINE('',#1619,#296);
#457=LINE('',#1621,#297);
#458=LINE('',#1623,#298);
#459=LINE('',#1624,#299);
#460=LINE('',#1627,#300);
#461=LINE('',#1629,#301);
#462=LINE('',#1631,#302);
#463=LINE('',#1633,#303);
#464=LINE('',#1635,#304);
#465=LINE('',#1637,#305);
#466=LINE('',#1639,#306);
#467=LINE('',#1641,#307);
#468=LINE('',#1643,#308);
#469=LINE('',#1646,#309);
#470=LINE('',#1648,#310);
#471=LINE('',#1650,#311);
#472=LINE('',#1651,#312);
#473=LINE('',#1654,#313);
#474=LINE('',#1656,#314);
#475=LINE('',#1658,#315);
#476=LINE('',#1659,#316);
#477=LINE('',#1662,#317);
#478=LINE('',#1664,#318);
#479=LINE('',#1666,#319);
#480=LINE('',#1668,#320);
#481=LINE('',#1670,#321);
#482=LINE('',#1672,#322);
#483=LINE('',#1674,#323);
#484=LINE('',#1676,#324);
#485=LINE('',#1678,#325);
#486=LINE('',#1680,#326);
#487=LINE('',#1682,#327);
#488=LINE('',#1684,#328);
#489=LINE('',#1686,#329);
#490=LINE('',#1688,#330);
#491=LINE('',#1690,#331);
#492=LINE('',#1692,#332);
#493=LINE('',#1694,#333);
#494=LINE('',#1696,#334);
#495=LINE('',#1698,#335);
#496=LINE('',#1699,#336);
#497=LINE('',#1701,#337);
#498=LINE('',#1703,#338);
#499=LINE('',#1706,#339);
#500=LINE('',#1707,#340);
#501=LINE('',#1709,#341);
#502=LINE('',#1711,#342);
#503=LINE('',#1714,#343);
#504=LINE('',#1716,#344);
#505=LINE('',#1718,#345);
#506=LINE('',#1720,#346);
#507=LINE('',#1721,#347);
#508=LINE('',#1723,#348);
#509=LINE('',#1725,#349);
#510=LINE('',#1728,#350);
#511=LINE('',#1729,#351);
#512=LINE('',#1730,#352);
#513=LINE('',#1732,#353);
#514=LINE('',#1734,#354);
#515=LINE('',#1736,#355);
#516=LINE('',#1738,#356);
#517=LINE('',#1740,#357);
#518=LINE('',#1742,#358);
#519=LINE('',#1744,#359);
#520=LINE('',#1746,#360);
#521=LINE('',#1748,#361);
#522=LINE('',#1751,#362);
#523=LINE('',#1752,#363);
#524=LINE('',#1754,#364);
#525=LINE('',#1755,#365);
#526=LINE('',#1757,#366);
#527=LINE('',#1759,#367);
#528=LINE('',#1761,#368);
#529=LINE('',#1763,#369);
#530=LINE('',#1765,#370);
#531=LINE('',#1766,#371);
#532=LINE('',#1769,#372);
#533=LINE('',#1771,#373);
#534=LINE('',#1773,#374);
#535=LINE('',#1775,#375);
#536=LINE('',#1778,#376);
#537=LINE('',#1779,#377);
#538=LINE('',#1781,#378);
#539=LINE('',#1784,#379);
#540=LINE('',#1786,#380);
#541=LINE('',#1788,#381);
#542=LINE('',#1790,#382);
#543=LINE('',#1792,#383);
#544=LINE('',#1794,#384);
#545=LINE('',#1795,#385);
#546=LINE('',#1797,#386);
#547=LINE('',#1798,#387);
#548=LINE('',#1800,#388);
#549=LINE('',#1802,#389);
#550=LINE('',#1804,#390);
#551=LINE('',#1805,#391);
#552=LINE('',#1807,#392);
#553=LINE('',#1809,#393);
#554=LINE('',#1811,#394);
#555=LINE('',#1813,#395);
#556=LINE('',#1816,#396);
#557=LINE('',#1818,#397);
#558=LINE('',#1820,#398);
#559=LINE('',#1822,#399);
#560=LINE('',#1825,#400);
#561=LINE('',#1827,#401);
#562=LINE('',#1829,#402);
#563=LINE('',#1834,#403);
#564=LINE('',#1837,#404);
#565=LINE('',#1839,#405);
#566=LINE('',#1841,#406);
#567=LINE('',#1843,#407);
#568=LINE('',#1845,#408);
#569=LINE('',#1847,#409);
#570=LINE('',#1849,#410);
#571=LINE('',#1851,#411);
#572=LINE('',#1853,#412);
#573=LINE('',#1855,#413);
#574=LINE('',#1858,#414);
#575=LINE('',#1859,#415);
#576=LINE('',#1861,#416);
#577=LINE('',#1863,#417);
#578=LINE('',#1865,#418);
#579=LINE('',#1867,#419);
#580=LINE('',#1869,#420);
#581=LINE('',#1871,#421);
#582=LINE('',#1873,#422);
#583=LINE('',#1875,#423);
#584=LINE('',#1878,#424);
#585=LINE('',#1880,#425);
#586=LINE('',#1882,#426);
#587=LINE('',#1884,#427);
#588=LINE('',#1885,#428);
#589=LINE('',#1887,#429);
#590=LINE('',#1889,#430);
#591=EDGE_CURVE('',#167,#168,#431,.T.);
#592=EDGE_CURVE('',#168,#169,#432,.T.);
#593=EDGE_CURVE('',#169,#170,#433,.T.);
#594=EDGE_CURVE('',#170,#167,#434,.T.);
#595=EDGE_CURVE('',#171,#172,#435,.T.);
#596=EDGE_CURVE('',#172,#173,#436,.T.);
#597=EDGE_CURVE('',#173,#174,#437,.T.);
#598=EDGE_CURVE('',#174,#175,#438,.T.);
#599=EDGE_CURVE('',#175,#176,#439,.T.);
#600=EDGE_CURVE('',#176,#177,#440,.T.);
#601=EDGE_CURVE('',#177,#178,#441,.T.);
#602=EDGE_CURVE('',#178,#179,#442,.T.);
#603=EDGE_CURVE('',#179,#180,#443,.T.);
#604=EDGE_CURVE('',#180,#181,#444,.T.);
#605=EDGE_CURVE('',#182,#181,#445,.T.);
#606=EDGE_CURVE('',#182,#183,#446,.T.);
#607=EDGE_CURVE('',#184,#183,#447,.T.);
#608=EDGE_CURVE('',#184,#185,#448,.T.);
#609=EDGE_CURVE('',#185,#186,#449,.T.);
#610=EDGE_CURVE('',#187,#186,#450,.T.);
#611=EDGE_CURVE('',#187,#188,#451,.T.);
#612=EDGE_CURVE('',#188,#189,#452,.T.);
#613=EDGE_CURVE('',#190,#189,#453,.T.);
#614=EDGE_CURVE('',#190,#171,#454,.T.);
#615=EDGE_CURVE('',#191,#192,#455,.T.);
#616=EDGE_CURVE('',#192,#193,#456,.T.);
#617=EDGE_CURVE('',#193,#194,#457,.T.);
#618=EDGE_CURVE('',#194,#191,#458,.T.);
#619=EDGE_CURVE('',#195,#196,#459,.T.);
#620=EDGE_CURVE('',#196,#197,#460,.T.);
#621=EDGE_CURVE('',#197,#198,#461,.T.);
#622=EDGE_CURVE('',#198,#195,#462,.T.);
#623=EDGE_CURVE('',#199,#198,#463,.T.);
#624=EDGE_CURVE('',#200,#197,#464,.T.);
#625=EDGE_CURVE('',#199,#200,#465,.T.);
#626=EDGE_CURVE('',#201,#195,#466,.T.);
#627=EDGE_CURVE('',#201,#199,#467,.T.);
#628=EDGE_CURVE('',#202,#203,#468,.T.);
#629=EDGE_CURVE('',#203,#204,#469,.T.);
#630=EDGE_CURVE('',#204,#205,#470,.T.);
#631=EDGE_CURVE('',#205,#202,#471,.T.);
#632=EDGE_CURVE('',#206,#207,#472,.T.);
#633=EDGE_CURVE('',#208,#206,#473,.T.);
#634=EDGE_CURVE('',#209,#208,#474,.T.);
#635=EDGE_CURVE('',#207,#209,#475,.T.);
#636=EDGE_CURVE('',#210,#211,#476,.T.);
#637=EDGE_CURVE('',#212,#210,#477,.T.);
#638=EDGE_CURVE('',#213,#212,#478,.T.);
#639=EDGE_CURVE('',#214,#213,#479,.T.);
#640=EDGE_CURVE('',#214,#215,#480,.T.);
#641=EDGE_CURVE('',#216,#215,#481,.T.);
#642=EDGE_CURVE('',#217,#216,#482,.T.);
#643=EDGE_CURVE('',#217,#218,#483,.T.);
#644=EDGE_CURVE('',#219,#218,#484,.T.);
#645=EDGE_CURVE('',#220,#219,#485,.T.);
#646=EDGE_CURVE('',#220,#221,#486,.T.);
#647=EDGE_CURVE('',#222,#221,#487,.T.);
#648=EDGE_CURVE('',#223,#222,#488,.T.);
#649=EDGE_CURVE('',#224,#223,#489,.T.);
#650=EDGE_CURVE('',#225,#224,#490,.T.);
#651=EDGE_CURVE('',#226,#225,#491,.T.);
#652=EDGE_CURVE('',#227,#226,#492,.T.);
#653=EDGE_CURVE('',#228,#227,#493,.T.);
#654=EDGE_CURVE('',#229,#228,#494,.T.);
#655=EDGE_CURVE('',#211,#229,#495,.T.);
#656=EDGE_CURVE('',#200,#230,#496,.T.);
#657=EDGE_CURVE('',#230,#201,#497,.T.);
#658=EDGE_CURVE('',#230,#196,#498,.T.);
#659=EDGE_CURVE('',#204,#168,#499,.T.);
#660=EDGE_CURVE('',#205,#167,#500,.T.);
#661=EDGE_CURVE('',#202,#170,#501,.T.);
#662=EDGE_CURVE('',#231,#232,#502,.T.);
#663=EDGE_CURVE('',#232,#233,#503,.T.);
#664=EDGE_CURVE('',#233,#234,#504,.T.);
#665=EDGE_CURVE('',#234,#231,#505,.T.);
#666=EDGE_CURVE('',#206,#191,#506,.T.);
#667=EDGE_CURVE('',#207,#192,#507,.T.);
#668=EDGE_CURVE('',#209,#193,#508,.T.);
#669=EDGE_CURVE('',#208,#194,#509,.T.);
#670=EDGE_CURVE('',#210,#232,#510,.T.);
#671=EDGE_CURVE('',#231,#183,#511,.T.);
#672=EDGE_CURVE('',#212,#182,#512,.T.);
#673=EDGE_CURVE('',#213,#181,#513,.T.);
#674=EDGE_CURVE('',#235,#214,#514,.T.);
#675=EDGE_CURVE('',#236,#180,#515,.T.);
#676=EDGE_CURVE('',#235,#236,#516,.T.);
#677=EDGE_CURVE('',#235,#237,#517,.T.);
#678=EDGE_CURVE('',#215,#237,#518,.T.);
#679=EDGE_CURVE('',#238,#237,#519,.T.);
#680=EDGE_CURVE('',#238,#236,#520,.T.);
#681=EDGE_CURVE('',#239,#240,#521,.T.);
#682=EDGE_CURVE('',#218,#240,#522,.T.);
#683=EDGE_CURVE('',#239,#217,#523,.T.);
#684=EDGE_CURVE('',#219,#175,#524,.T.);
#685=EDGE_CURVE('',#241,#240,#525,.T.);
#686=EDGE_CURVE('',#176,#241,#526,.T.);
#687=EDGE_CURVE('',#239,#242,#527,.T.);
#688=EDGE_CURVE('',#241,#242,#528,.T.);
#689=EDGE_CURVE('',#179,#238,#529,.T.);
#690=EDGE_CURVE('',#216,#178,#530,.T.);
#691=EDGE_CURVE('',#242,#177,#531,.T.);
#692=EDGE_CURVE('',#243,#173,#532,.T.);
#693=EDGE_CURVE('',#243,#244,#533,.T.);
#694=EDGE_CURVE('',#244,#174,#534,.T.);
#695=EDGE_CURVE('',#245,#246,#535,.T.);
#696=EDGE_CURVE('',#245,#190,#536,.T.);
#697=EDGE_CURVE('',#189,#246,#537,.T.);
#698=EDGE_CURVE('',#247,#248,#538,.T.);
#699=EDGE_CURVE('',#248,#249,#539,.T.);
#700=EDGE_CURVE('',#249,#250,#540,.T.);
#701=EDGE_CURVE('',#250,#247,#541,.T.);
#702=EDGE_CURVE('',#234,#184,#542,.T.);
#703=EDGE_CURVE('',#233,#211,#543,.T.);
#704=EDGE_CURVE('',#250,#187,#544,.T.);
#705=EDGE_CURVE('',#186,#247,#545,.T.);
#706=EDGE_CURVE('',#172,#222,#546,.T.);
#707=EDGE_CURVE('',#223,#171,#547,.T.);
#708=EDGE_CURVE('',#229,#185,#548,.T.);
#709=EDGE_CURVE('',#228,#248,#549,.T.);
#710=EDGE_CURVE('',#249,#227,#550,.T.);
#711=EDGE_CURVE('',#226,#188,#551,.T.);
#712=EDGE_CURVE('',#225,#251,#552,.T.);
#713=EDGE_CURVE('',#246,#251,#553,.T.);
#714=EDGE_CURVE('',#252,#245,#554,.T.);
#715=EDGE_CURVE('',#252,#224,#555,.T.);
#716=EDGE_CURVE('',#253,#220,#556,.T.);
#717=EDGE_CURVE('',#253,#244,#557,.T.);
#718=EDGE_CURVE('',#221,#254,#558,.T.);
#719=EDGE_CURVE('',#243,#254,#559,.T.);
#720=EDGE_CURVE('',#251,#252,#560,.T.);
#721=EDGE_CURVE('',#253,#254,#561,.T.);
#722=EDGE_CURVE('',#203,#169,#562,.T.);
#723=EDGE_CURVE('',#255,#256,#563,.T.);
#724=EDGE_CURVE('',#256,#257,#564,.T.);
#725=EDGE_CURVE('',#257,#258,#565,.T.);
#726=EDGE_CURVE('',#258,#255,#566,.T.);
#727=EDGE_CURVE('',#259,#258,#567,.T.);
#728=EDGE_CURVE('',#260,#259,#568,.T.);
#729=EDGE_CURVE('',#255,#260,#569,.F.);
#730=EDGE_CURVE('',#259,#261,#570,.T.);
#731=EDGE_CURVE('',#261,#262,#571,.T.);
#732=EDGE_CURVE('',#262,#260,#572,.T.);
#733=EDGE_CURVE('',#263,#264,#573,.T.);
#734=EDGE_CURVE('',#264,#261,#574,.T.);
#735=EDGE_CURVE('',#259,#263,#575,.T.);
#736=EDGE_CURVE('',#263,#257,#576,.F.);
#737=EDGE_CURVE('',#256,#265,#577,.F.);
#738=EDGE_CURVE('',#263,#265,#578,.T.);
#739=EDGE_CURVE('',#265,#260,#579,.T.);
#740=EDGE_CURVE('',#266,#265,#580,.T.);
#741=EDGE_CURVE('',#266,#264,#581,.T.);
#742=EDGE_CURVE('',#262,#266,#582,.T.);
#743=EDGE_CURVE('',#267,#268,#583,.T.);
#744=EDGE_CURVE('',#268,#269,#584,.T.);
#745=EDGE_CURVE('',#269,#270,#585,.T.);
#746=EDGE_CURVE('',#270,#267,#586,.T.);
#747=EDGE_CURVE('',#267,#266,#587,.T.);
#748=EDGE_CURVE('',#264,#270,#588,.F.);
#749=EDGE_CURVE('',#261,#269,#589,.T.);
#750=EDGE_CURVE('',#268,#262,#590,.T.);
#751=ORIENTED_EDGE('',*,*,#591,.T.);
#752=ORIENTED_EDGE('',*,*,#592,.T.);
#753=ORIENTED_EDGE('',*,*,#593,.T.);
#754=ORIENTED_EDGE('',*,*,#594,.T.);
#755=ORIENTED_EDGE('',*,*,#595,.T.);
#756=ORIENTED_EDGE('',*,*,#596,.T.);
#757=ORIENTED_EDGE('',*,*,#597,.T.);
#758=ORIENTED_EDGE('',*,*,#598,.T.);
#759=ORIENTED_EDGE('',*,*,#599,.T.);
#760=ORIENTED_EDGE('',*,*,#600,.T.);
#761=ORIENTED_EDGE('',*,*,#601,.T.);
#762=ORIENTED_EDGE('',*,*,#602,.T.);
#763=ORIENTED_EDGE('',*,*,#603,.T.);
#764=ORIENTED_EDGE('',*,*,#604,.T.);
#765=ORIENTED_EDGE('',*,*,#605,.F.);
#766=ORIENTED_EDGE('',*,*,#606,.T.);
#767=ORIENTED_EDGE('',*,*,#607,.F.);
#768=ORIENTED_EDGE('',*,*,#608,.T.);
#769=ORIENTED_EDGE('',*,*,#609,.T.);
#770=ORIENTED_EDGE('',*,*,#610,.F.);
#771=ORIENTED_EDGE('',*,*,#611,.T.);
#772=ORIENTED_EDGE('',*,*,#612,.T.);
#773=ORIENTED_EDGE('',*,*,#613,.F.);
#774=ORIENTED_EDGE('',*,*,#614,.T.);
#775=ORIENTED_EDGE('',*,*,#615,.T.);
#776=ORIENTED_EDGE('',*,*,#616,.T.);
#777=ORIENTED_EDGE('',*,*,#617,.T.);
#778=ORIENTED_EDGE('',*,*,#618,.T.);
#779=ORIENTED_EDGE('',*,*,#619,.T.);
#780=ORIENTED_EDGE('',*,*,#620,.T.);
#781=ORIENTED_EDGE('',*,*,#621,.T.);
#782=ORIENTED_EDGE('',*,*,#622,.T.);
#783=ORIENTED_EDGE('',*,*,#623,.T.);
#784=ORIENTED_EDGE('',*,*,#621,.F.);
#785=ORIENTED_EDGE('',*,*,#624,.F.);
#786=ORIENTED_EDGE('',*,*,#625,.F.);
#787=ORIENTED_EDGE('',*,*,#626,.T.);
#788=ORIENTED_EDGE('',*,*,#622,.F.);
#789=ORIENTED_EDGE('',*,*,#623,.F.);
#790=ORIENTED_EDGE('',*,*,#627,.F.);
#791=ORIENTED_EDGE('',*,*,#628,.T.);
#792=ORIENTED_EDGE('',*,*,#629,.T.);
#793=ORIENTED_EDGE('',*,*,#630,.T.);
#794=ORIENTED_EDGE('',*,*,#631,.T.);
#795=ORIENTED_EDGE('',*,*,#632,.F.);
#796=ORIENTED_EDGE('',*,*,#633,.F.);
#797=ORIENTED_EDGE('',*,*,#634,.F.);
#798=ORIENTED_EDGE('',*,*,#635,.F.);
#799=ORIENTED_EDGE('',*,*,#636,.F.);
#800=ORIENTED_EDGE('',*,*,#637,.F.);
#801=ORIENTED_EDGE('',*,*,#638,.F.);
#802=ORIENTED_EDGE('',*,*,#639,.F.);
#803=ORIENTED_EDGE('',*,*,#640,.T.);
#804=ORIENTED_EDGE('',*,*,#641,.F.);
#805=ORIENTED_EDGE('',*,*,#642,.F.);
#806=ORIENTED_EDGE('',*,*,#643,.T.);
#807=ORIENTED_EDGE('',*,*,#644,.F.);
#808=ORIENTED_EDGE('',*,*,#645,.F.);
#809=ORIENTED_EDGE('',*,*,#646,.T.);
#810=ORIENTED_EDGE('',*,*,#647,.F.);
#811=ORIENTED_EDGE('',*,*,#648,.F.);
#812=ORIENTED_EDGE('',*,*,#649,.F.);
#813=ORIENTED_EDGE('',*,*,#650,.F.);
#814=ORIENTED_EDGE('',*,*,#651,.F.);
#815=ORIENTED_EDGE('',*,*,#652,.F.);
#816=ORIENTED_EDGE('',*,*,#653,.F.);
#817=ORIENTED_EDGE('',*,*,#654,.F.);
#818=ORIENTED_EDGE('',*,*,#655,.F.);
#819=ORIENTED_EDGE('',*,*,#625,.T.);
#820=ORIENTED_EDGE('',*,*,#656,.T.);
#821=ORIENTED_EDGE('',*,*,#657,.T.);
#822=ORIENTED_EDGE('',*,*,#627,.T.);
#823=ORIENTED_EDGE('',*,*,#658,.T.);
#824=ORIENTED_EDGE('',*,*,#619,.F.);
#825=ORIENTED_EDGE('',*,*,#626,.F.);
#826=ORIENTED_EDGE('',*,*,#657,.F.);
#827=ORIENTED_EDGE('',*,*,#624,.T.);
#828=ORIENTED_EDGE('',*,*,#620,.F.);
#829=ORIENTED_EDGE('',*,*,#658,.F.);
#830=ORIENTED_EDGE('',*,*,#656,.F.);
#831=ORIENTED_EDGE('',*,*,#659,.T.);
#832=ORIENTED_EDGE('',*,*,#591,.F.);
#833=ORIENTED_EDGE('',*,*,#660,.F.);
#834=ORIENTED_EDGE('',*,*,#630,.F.);
#835=ORIENTED_EDGE('',*,*,#660,.T.);
#836=ORIENTED_EDGE('',*,*,#594,.F.);
#837=ORIENTED_EDGE('',*,*,#661,.F.);
#838=ORIENTED_EDGE('',*,*,#631,.F.);
#839=ORIENTED_EDGE('',*,*,#662,.T.);
#840=ORIENTED_EDGE('',*,*,#663,.T.);
#841=ORIENTED_EDGE('',*,*,#664,.T.);
#842=ORIENTED_EDGE('',*,*,#665,.T.);
#843=ORIENTED_EDGE('',*,*,#666,.F.);
#844=ORIENTED_EDGE('',*,*,#632,.T.);
#845=ORIENTED_EDGE('',*,*,#667,.T.);
#846=ORIENTED_EDGE('',*,*,#615,.F.);
#847=ORIENTED_EDGE('',*,*,#667,.F.);
#848=ORIENTED_EDGE('',*,*,#635,.T.);
#849=ORIENTED_EDGE('',*,*,#668,.T.);
#850=ORIENTED_EDGE('',*,*,#616,.F.);
#851=ORIENTED_EDGE('',*,*,#668,.F.);
#852=ORIENTED_EDGE('',*,*,#634,.T.);
#853=ORIENTED_EDGE('',*,*,#669,.T.);
#854=ORIENTED_EDGE('',*,*,#617,.F.);
#855=ORIENTED_EDGE('',*,*,#669,.F.);
#856=ORIENTED_EDGE('',*,*,#633,.T.);
#857=ORIENTED_EDGE('',*,*,#666,.T.);
#858=ORIENTED_EDGE('',*,*,#618,.F.);
#859=ORIENTED_EDGE('',*,*,#637,.T.);
#860=ORIENTED_EDGE('',*,*,#670,.T.);
#861=ORIENTED_EDGE('',*,*,#662,.F.);
#862=ORIENTED_EDGE('',*,*,#671,.T.);
#863=ORIENTED_EDGE('',*,*,#606,.F.);
#864=ORIENTED_EDGE('',*,*,#672,.F.);
#865=ORIENTED_EDGE('',*,*,#673,.F.);
#866=ORIENTED_EDGE('',*,*,#638,.T.);
#867=ORIENTED_EDGE('',*,*,#672,.T.);
#868=ORIENTED_EDGE('',*,*,#605,.T.);
#869=ORIENTED_EDGE('',*,*,#674,.T.);
#870=ORIENTED_EDGE('',*,*,#639,.T.);
#871=ORIENTED_EDGE('',*,*,#673,.T.);
#872=ORIENTED_EDGE('',*,*,#604,.F.);
#873=ORIENTED_EDGE('',*,*,#675,.F.);
#874=ORIENTED_EDGE('',*,*,#676,.F.);
#875=ORIENTED_EDGE('',*,*,#677,.T.);
#876=ORIENTED_EDGE('',*,*,#678,.F.);
#877=ORIENTED_EDGE('',*,*,#640,.F.);
#878=ORIENTED_EDGE('',*,*,#674,.F.);
#879=ORIENTED_EDGE('',*,*,#679,.T.);
#880=ORIENTED_EDGE('',*,*,#677,.F.);
#881=ORIENTED_EDGE('',*,*,#676,.T.);
#882=ORIENTED_EDGE('',*,*,#680,.F.);
#883=ORIENTED_EDGE('',*,*,#681,.T.);
#884=ORIENTED_EDGE('',*,*,#682,.F.);
#885=ORIENTED_EDGE('',*,*,#643,.F.);
#886=ORIENTED_EDGE('',*,*,#683,.F.);
#887=ORIENTED_EDGE('',*,*,#684,.F.);
#888=ORIENTED_EDGE('',*,*,#644,.T.);
#889=ORIENTED_EDGE('',*,*,#682,.T.);
#890=ORIENTED_EDGE('',*,*,#685,.F.);
#891=ORIENTED_EDGE('',*,*,#686,.F.);
#892=ORIENTED_EDGE('',*,*,#599,.F.);
#893=ORIENTED_EDGE('',*,*,#685,.T.);
#894=ORIENTED_EDGE('',*,*,#681,.F.);
#895=ORIENTED_EDGE('',*,*,#687,.T.);
#896=ORIENTED_EDGE('',*,*,#688,.F.);
#897=ORIENTED_EDGE('',*,*,#603,.F.);
#898=ORIENTED_EDGE('',*,*,#689,.T.);
#899=ORIENTED_EDGE('',*,*,#680,.T.);
#900=ORIENTED_EDGE('',*,*,#675,.T.);
#901=ORIENTED_EDGE('',*,*,#683,.T.);
#902=ORIENTED_EDGE('',*,*,#642,.T.);
#903=ORIENTED_EDGE('',*,*,#690,.T.);
#904=ORIENTED_EDGE('',*,*,#601,.F.);
#905=ORIENTED_EDGE('',*,*,#691,.F.);
#906=ORIENTED_EDGE('',*,*,#687,.F.);
#907=ORIENTED_EDGE('',*,*,#600,.F.);
#908=ORIENTED_EDGE('',*,*,#686,.T.);
#909=ORIENTED_EDGE('',*,*,#688,.T.);
#910=ORIENTED_EDGE('',*,*,#691,.T.);
#911=ORIENTED_EDGE('',*,*,#597,.F.);
#912=ORIENTED_EDGE('',*,*,#692,.F.);
#913=ORIENTED_EDGE('',*,*,#693,.T.);
#914=ORIENTED_EDGE('',*,*,#694,.T.);
#915=ORIENTED_EDGE('',*,*,#695,.F.);
#916=ORIENTED_EDGE('',*,*,#696,.T.);
#917=ORIENTED_EDGE('',*,*,#613,.T.);
#918=ORIENTED_EDGE('',*,*,#697,.T.);
#919=ORIENTED_EDGE('',*,*,#698,.T.);
#920=ORIENTED_EDGE('',*,*,#699,.T.);
#921=ORIENTED_EDGE('',*,*,#700,.T.);
#922=ORIENTED_EDGE('',*,*,#701,.T.);
#923=ORIENTED_EDGE('',*,*,#665,.F.);
#924=ORIENTED_EDGE('',*,*,#702,.T.);
#925=ORIENTED_EDGE('',*,*,#607,.T.);
#926=ORIENTED_EDGE('',*,*,#671,.F.);
#927=ORIENTED_EDGE('',*,*,#636,.T.);
#928=ORIENTED_EDGE('',*,*,#703,.F.);
#929=ORIENTED_EDGE('',*,*,#663,.F.);
#930=ORIENTED_EDGE('',*,*,#670,.F.);
#931=ORIENTED_EDGE('',*,*,#701,.F.);
#932=ORIENTED_EDGE('',*,*,#704,.T.);
#933=ORIENTED_EDGE('',*,*,#610,.T.);
#934=ORIENTED_EDGE('',*,*,#705,.T.);
#935=ORIENTED_EDGE('',*,*,#648,.T.);
#936=ORIENTED_EDGE('',*,*,#706,.F.);
#937=ORIENTED_EDGE('',*,*,#595,.F.);
#938=ORIENTED_EDGE('',*,*,#707,.F.);
#939=ORIENTED_EDGE('',*,*,#664,.F.);
#940=ORIENTED_EDGE('',*,*,#703,.T.);
#941=ORIENTED_EDGE('',*,*,#655,.T.);
#942=ORIENTED_EDGE('',*,*,#708,.T.);
#943=ORIENTED_EDGE('',*,*,#608,.F.);
#944=ORIENTED_EDGE('',*,*,#702,.F.);
#945=ORIENTED_EDGE('',*,*,#654,.T.);
#946=ORIENTED_EDGE('',*,*,#709,.T.);
#947=ORIENTED_EDGE('',*,*,#698,.F.);
#948=ORIENTED_EDGE('',*,*,#705,.F.);
#949=ORIENTED_EDGE('',*,*,#609,.F.);
#950=ORIENTED_EDGE('',*,*,#708,.F.);
#951=ORIENTED_EDGE('',*,*,#700,.F.);
#952=ORIENTED_EDGE('',*,*,#710,.T.);
#953=ORIENTED_EDGE('',*,*,#652,.T.);
#954=ORIENTED_EDGE('',*,*,#711,.T.);
#955=ORIENTED_EDGE('',*,*,#611,.F.);
#956=ORIENTED_EDGE('',*,*,#704,.F.);
#957=ORIENTED_EDGE('',*,*,#651,.T.);
#958=ORIENTED_EDGE('',*,*,#712,.T.);
#959=ORIENTED_EDGE('',*,*,#713,.F.);
#960=ORIENTED_EDGE('',*,*,#697,.F.);
#961=ORIENTED_EDGE('',*,*,#612,.F.);
#962=ORIENTED_EDGE('',*,*,#711,.F.);
#963=ORIENTED_EDGE('',*,*,#714,.F.);
#964=ORIENTED_EDGE('',*,*,#715,.T.);
#965=ORIENTED_EDGE('',*,*,#649,.T.);
#966=ORIENTED_EDGE('',*,*,#707,.T.);
#967=ORIENTED_EDGE('',*,*,#614,.F.);
#968=ORIENTED_EDGE('',*,*,#696,.F.);
#969=ORIENTED_EDGE('',*,*,#690,.F.);
#970=ORIENTED_EDGE('',*,*,#641,.T.);
#971=ORIENTED_EDGE('',*,*,#678,.T.);
#972=ORIENTED_EDGE('',*,*,#679,.F.);
#973=ORIENTED_EDGE('',*,*,#689,.F.);
#974=ORIENTED_EDGE('',*,*,#602,.F.);
#975=ORIENTED_EDGE('',*,*,#716,.T.);
#976=ORIENTED_EDGE('',*,*,#645,.T.);
#977=ORIENTED_EDGE('',*,*,#684,.T.);
#978=ORIENTED_EDGE('',*,*,#598,.F.);
#979=ORIENTED_EDGE('',*,*,#694,.F.);
#980=ORIENTED_EDGE('',*,*,#717,.F.);
#981=ORIENTED_EDGE('',*,*,#706,.T.);
#982=ORIENTED_EDGE('',*,*,#647,.T.);
#983=ORIENTED_EDGE('',*,*,#718,.T.);
#984=ORIENTED_EDGE('',*,*,#719,.F.);
#985=ORIENTED_EDGE('',*,*,#692,.T.);
#986=ORIENTED_EDGE('',*,*,#596,.F.);
#987=ORIENTED_EDGE('',*,*,#653,.T.);
#988=ORIENTED_EDGE('',*,*,#710,.F.);
#989=ORIENTED_EDGE('',*,*,#699,.F.);
#990=ORIENTED_EDGE('',*,*,#709,.F.);
#991=ORIENTED_EDGE('',*,*,#650,.T.);
#992=ORIENTED_EDGE('',*,*,#715,.F.);
#993=ORIENTED_EDGE('',*,*,#720,.F.);
#994=ORIENTED_EDGE('',*,*,#712,.F.);
#995=ORIENTED_EDGE('',*,*,#721,.T.);
#996=ORIENTED_EDGE('',*,*,#718,.F.);
#997=ORIENTED_EDGE('',*,*,#646,.F.);
#998=ORIENTED_EDGE('',*,*,#716,.F.);
#999=ORIENTED_EDGE('',*,*,#722,.T.);
#1000=ORIENTED_EDGE('',*,*,#592,.F.);
#1001=ORIENTED_EDGE('',*,*,#659,.F.);
#1002=ORIENTED_EDGE('',*,*,#629,.F.);
#1003=ORIENTED_EDGE('',*,*,#661,.T.);
#1004=ORIENTED_EDGE('',*,*,#593,.F.);
#1005=ORIENTED_EDGE('',*,*,#722,.F.);
#1006=ORIENTED_EDGE('',*,*,#628,.F.);
#1007=ORIENTED_EDGE('',*,*,#719,.T.);
#1008=ORIENTED_EDGE('',*,*,#721,.F.);
#1009=ORIENTED_EDGE('',*,*,#717,.T.);
#1010=ORIENTED_EDGE('',*,*,#693,.F.);
#1011=ORIENTED_EDGE('',*,*,#713,.T.);
#1012=ORIENTED_EDGE('',*,*,#720,.T.);
#1013=ORIENTED_EDGE('',*,*,#714,.T.);
#1014=ORIENTED_EDGE('',*,*,#695,.T.);
#1015=ORIENTED_EDGE('',*,*,#723,.T.);
#1016=ORIENTED_EDGE('',*,*,#724,.T.);
#1017=ORIENTED_EDGE('',*,*,#725,.T.);
#1018=ORIENTED_EDGE('',*,*,#726,.T.);
#1019=ORIENTED_EDGE('',*,*,#727,.F.);
#1020=ORIENTED_EDGE('',*,*,#728,.F.);
#1021=ORIENTED_EDGE('',*,*,#729,.F.);
#1022=ORIENTED_EDGE('',*,*,#726,.F.);
#1023=ORIENTED_EDGE('',*,*,#730,.T.);
#1024=ORIENTED_EDGE('',*,*,#731,.T.);
#1025=ORIENTED_EDGE('',*,*,#732,.T.);
#1026=ORIENTED_EDGE('',*,*,#728,.T.);
#1027=ORIENTED_EDGE('',*,*,#733,.T.);
#1028=ORIENTED_EDGE('',*,*,#734,.T.);
#1029=ORIENTED_EDGE('',*,*,#730,.F.);
#1030=ORIENTED_EDGE('',*,*,#735,.T.);
#1031=ORIENTED_EDGE('',*,*,#727,.T.);
#1032=ORIENTED_EDGE('',*,*,#725,.F.);
#1033=ORIENTED_EDGE('',*,*,#736,.F.);
#1034=ORIENTED_EDGE('',*,*,#735,.F.);
#1035=ORIENTED_EDGE('',*,*,#737,.T.);
#1036=ORIENTED_EDGE('',*,*,#738,.F.);
#1037=ORIENTED_EDGE('',*,*,#736,.T.);
#1038=ORIENTED_EDGE('',*,*,#724,.F.);
#1039=ORIENTED_EDGE('',*,*,#729,.T.);
#1040=ORIENTED_EDGE('',*,*,#739,.F.);
#1041=ORIENTED_EDGE('',*,*,#737,.F.);
#1042=ORIENTED_EDGE('',*,*,#723,.F.);
#1043=ORIENTED_EDGE('',*,*,#740,.F.);
#1044=ORIENTED_EDGE('',*,*,#741,.T.);
#1045=ORIENTED_EDGE('',*,*,#733,.F.);
#1046=ORIENTED_EDGE('',*,*,#738,.T.);
#1047=ORIENTED_EDGE('',*,*,#732,.F.);
#1048=ORIENTED_EDGE('',*,*,#742,.T.);
#1049=ORIENTED_EDGE('',*,*,#740,.T.);
#1050=ORIENTED_EDGE('',*,*,#739,.T.);
#1051=ORIENTED_EDGE('',*,*,#743,.T.);
#1052=ORIENTED_EDGE('',*,*,#744,.T.);
#1053=ORIENTED_EDGE('',*,*,#745,.T.);
#1054=ORIENTED_EDGE('',*,*,#746,.T.);
#1055=ORIENTED_EDGE('',*,*,#747,.F.);
#1056=ORIENTED_EDGE('',*,*,#746,.F.);
#1057=ORIENTED_EDGE('',*,*,#748,.F.);
#1058=ORIENTED_EDGE('',*,*,#741,.F.);
#1059=ORIENTED_EDGE('',*,*,#748,.T.);
#1060=ORIENTED_EDGE('',*,*,#745,.F.);
#1061=ORIENTED_EDGE('',*,*,#749,.F.);
#1062=ORIENTED_EDGE('',*,*,#734,.F.);
#1063=ORIENTED_EDGE('',*,*,#749,.T.);
#1064=ORIENTED_EDGE('',*,*,#744,.F.);
#1065=ORIENTED_EDGE('',*,*,#750,.T.);
#1066=ORIENTED_EDGE('',*,*,#731,.F.);
#1067=ORIENTED_EDGE('',*,*,#747,.T.);
#1068=ORIENTED_EDGE('',*,*,#742,.F.);
#1069=ORIENTED_EDGE('',*,*,#750,.F.);
#1070=ORIENTED_EDGE('',*,*,#743,.F.);
#1071=EDGE_LOOP('',(#751,#752,#753,#754));
#1072=EDGE_LOOP('',(#755,#756,#757,#758,#759,#760,#761,#762,#763,#764,#765,
#766,#767,#768,#769,#770,#771,#772,#773,#774));
#1073=EDGE_LOOP('',(#775,#776,#777,#778));
#1074=EDGE_LOOP('',(#779,#780,#781,#782));
#1075=EDGE_LOOP('',(#783,#784,#785,#786));
#1076=EDGE_LOOP('',(#787,#788,#789,#790));
#1077=EDGE_LOOP('',(#791,#792,#793,#794));
#1078=EDGE_LOOP('',(#795,#796,#797,#798));
#1079=EDGE_LOOP('',(#799,#800,#801,#802,#803,#804,#805,#806,#807,#808,#809,
#810,#811,#812,#813,#814,#815,#816,#817,#818));
#1080=EDGE_LOOP('',(#819,#820,#821,#822));
#1081=EDGE_LOOP('',(#823,#824,#825,#826));
#1082=EDGE_LOOP('',(#827,#828,#829,#830));
#1083=EDGE_LOOP('',(#831,#832,#833,#834));
#1084=EDGE_LOOP('',(#835,#836,#837,#838));
#1085=EDGE_LOOP('',(#839,#840,#841,#842));
#1086=EDGE_LOOP('',(#843,#844,#845,#846));
#1087=EDGE_LOOP('',(#847,#848,#849,#850));
#1088=EDGE_LOOP('',(#851,#852,#853,#854));
#1089=EDGE_LOOP('',(#855,#856,#857,#858));
#1090=EDGE_LOOP('',(#859,#860,#861,#862,#863,#864));
#1091=EDGE_LOOP('',(#865,#866,#867,#868));
#1092=EDGE_LOOP('',(#869,#870,#871,#872,#873,#874));
#1093=EDGE_LOOP('',(#875,#876,#877,#878));
#1094=EDGE_LOOP('',(#879,#880,#881,#882));
#1095=EDGE_LOOP('',(#883,#884,#885,#886));
#1096=EDGE_LOOP('',(#887,#888,#889,#890,#891,#892));
#1097=EDGE_LOOP('',(#893,#894,#895,#896));
#1098=EDGE_LOOP('',(#897,#898,#899,#900));
#1099=EDGE_LOOP('',(#901,#902,#903,#904,#905,#906));
#1100=EDGE_LOOP('',(#907,#908,#909,#910));
#1101=EDGE_LOOP('',(#911,#912,#913,#914));
#1102=EDGE_LOOP('',(#915,#916,#917,#918));
#1103=EDGE_LOOP('',(#919,#920,#921,#922));
#1104=EDGE_LOOP('',(#923,#924,#925,#926));
#1105=EDGE_LOOP('',(#927,#928,#929,#930));
#1106=EDGE_LOOP('',(#931,#932,#933,#934));
#1107=EDGE_LOOP('',(#935,#936,#937,#938));
#1108=EDGE_LOOP('',(#939,#940,#941,#942,#943,#944));
#1109=EDGE_LOOP('',(#945,#946,#947,#948,#949,#950));
#1110=EDGE_LOOP('',(#951,#952,#953,#954,#955,#956));
#1111=EDGE_LOOP('',(#957,#958,#959,#960,#961,#962));
#1112=EDGE_LOOP('',(#963,#964,#965,#966,#967,#968));
#1113=EDGE_LOOP('',(#969,#970,#971,#972,#973,#974));
#1114=EDGE_LOOP('',(#975,#976,#977,#978,#979,#980));
#1115=EDGE_LOOP('',(#981,#982,#983,#984,#985,#986));
#1116=EDGE_LOOP('',(#987,#988,#989,#990));
#1117=EDGE_LOOP('',(#991,#992,#993,#994));
#1118=EDGE_LOOP('',(#995,#996,#997,#998));
#1119=EDGE_LOOP('',(#999,#1000,#1001,#1002));
#1120=EDGE_LOOP('',(#1003,#1004,#1005,#1006));
#1121=EDGE_LOOP('',(#1007,#1008,#1009,#1010));
#1122=EDGE_LOOP('',(#1011,#1012,#1013,#1014));
#1123=EDGE_LOOP('',(#1015,#1016,#1017,#1018));
#1124=EDGE_LOOP('',(#1019,#1020,#1021,#1022));
#1125=EDGE_LOOP('',(#1023,#1024,#1025,#1026));
#1126=EDGE_LOOP('',(#1027,#1028,#1029,#1030));
#1127=EDGE_LOOP('',(#1031,#1032,#1033,#1034));
#1128=EDGE_LOOP('',(#1035,#1036,#1037,#1038));
#1129=EDGE_LOOP('',(#1039,#1040,#1041,#1042));
#1130=EDGE_LOOP('',(#1043,#1044,#1045,#1046));
#1131=EDGE_LOOP('',(#1047,#1048,#1049,#1050));
#1132=EDGE_LOOP('',(#1051,#1052,#1053,#1054));
#1133=EDGE_LOOP('',(#1055,#1056,#1057,#1058));
#1134=EDGE_LOOP('',(#1059,#1060,#1061,#1062));
#1135=EDGE_LOOP('',(#1063,#1064,#1065,#1066));
#1136=EDGE_LOOP('',(#1067,#1068,#1069,#1070));
#1137=FACE_BOUND('',#1071,.T.);
#1138=FACE_BOUND('',#1072,.T.);
#1139=FACE_BOUND('',#1073,.T.);
#1140=FACE_BOUND('',#1074,.T.);
#1141=FACE_BOUND('',#1075,.T.);
#1142=FACE_BOUND('',#1076,.T.);
#1143=FACE_BOUND('',#1077,.T.);
#1144=FACE_BOUND('',#1078,.T.);
#1145=FACE_BOUND('',#1079,.T.);
#1146=FACE_BOUND('',#1080,.T.);
#1147=FACE_BOUND('',#1081,.T.);
#1148=FACE_BOUND('',#1082,.T.);
#1149=FACE_BOUND('',#1083,.T.);
#1150=FACE_BOUND('',#1084,.T.);
#1151=FACE_BOUND('',#1085,.T.);
#1152=FACE_BOUND('',#1086,.T.);
#1153=FACE_BOUND('',#1087,.T.);
#1154=FACE_BOUND('',#1088,.T.);
#1155=FACE_BOUND('',#1089,.T.);
#1156=FACE_BOUND('',#1090,.T.);
#1157=FACE_BOUND('',#1091,.T.);
#1158=FACE_BOUND('',#1092,.T.);
#1159=FACE_BOUND('',#1093,.T.);
#1160=FACE_BOUND('',#1094,.T.);
#1161=FACE_BOUND('',#1095,.T.);
#1162=FACE_BOUND('',#1096,.T.);
#1163=FACE_BOUND('',#1097,.T.);
#1164=FACE_BOUND('',#1098,.T.);
#1165=FACE_BOUND('',#1099,.T.);
#1166=FACE_BOUND('',#1100,.T.);
#1167=FACE_BOUND('',#1101,.T.);
#1168=FACE_BOUND('',#1102,.T.);
#1169=FACE_BOUND('',#1103,.T.);
#1170=FACE_BOUND('',#1104,.T.);
#1171=FACE_BOUND('',#1105,.T.);
#1172=FACE_BOUND('',#1106,.T.);
#1173=FACE_BOUND('',#1107,.T.);
#1174=FACE_BOUND('',#1108,.T.);
#1175=FACE_BOUND('',#1109,.T.);
#1176=FACE_BOUND('',#1110,.T.);
#1177=FACE_BOUND('',#1111,.T.);
#1178=FACE_BOUND('',#1112,.T.);
#1179=FACE_BOUND('',#1113,.T.);
#1180=FACE_BOUND('',#1114,.T.);
#1181=FACE_BOUND('',#1115,.T.);
#1182=FACE_BOUND('',#1116,.T.);
#1183=FACE_BOUND('',#1117,.T.);
#1184=FACE_BOUND('',#1118,.T.);
#1185=FACE_BOUND('',#1119,.T.);
#1186=FACE_BOUND('',#1120,.T.);
#1187=FACE_BOUND('',#1121,.T.);
#1188=FACE_BOUND('',#1122,.T.);
#1189=FACE_BOUND('',#1123,.T.);
#1190=FACE_BOUND('',#1124,.T.);
#1191=FACE_BOUND('',#1125,.T.);
#1192=FACE_BOUND('',#1126,.T.);
#1193=FACE_BOUND('',#1127,.T.);
#1194=FACE_BOUND('',#1128,.T.);
#1195=FACE_BOUND('',#1129,.T.);
#1196=FACE_BOUND('',#1130,.T.);
#1197=FACE_BOUND('',#1131,.T.);
#1198=FACE_BOUND('',#1132,.T.);
#1199=FACE_BOUND('',#1133,.T.);
#1200=FACE_BOUND('',#1134,.T.);
#1201=FACE_BOUND('',#1135,.T.);
#1202=FACE_BOUND('',#1136,.T.);
#1203=ADVANCED_FACE('',(#1137,#1138,#1139,#1140),#1899,.T.);
#1204=ADVANCED_FACE('',(#1141),#1900,.T.);
#1205=ADVANCED_FACE('',(#1142),#1901,.T.);
#1206=ADVANCED_FACE('',(#1143,#1144,#1145,#1146),#1902,.T.);
#1207=ADVANCED_FACE('',(#1147),#1903,.T.);
#1208=ADVANCED_FACE('',(#1148),#1904,.T.);
#1209=ADVANCED_FACE('',(#1149),#1905,.T.);
#1210=ADVANCED_FACE('',(#1150),#1906,.T.);
#1211=ADVANCED_FACE('',(#1151),#1907,.T.);
#1212=ADVANCED_FACE('',(#1152),#1908,.T.);
#1213=ADVANCED_FACE('',(#1153),#1909,.T.);
#1214=ADVANCED_FACE('',(#1154),#1910,.T.);
#1215=ADVANCED_FACE('',(#1155),#1911,.T.);
#1216=ADVANCED_FACE('',(#1156),#1912,.T.);
#1217=ADVANCED_FACE('',(#1157),#1913,.T.);
#1218=ADVANCED_FACE('',(#1158),#1914,.T.);
#1219=ADVANCED_FACE('',(#1159),#1915,.T.);
#1220=ADVANCED_FACE('',(#1160),#1916,.T.);
#1221=ADVANCED_FACE('',(#1161),#1917,.T.);
#1222=ADVANCED_FACE('',(#1162),#1918,.T.);
#1223=ADVANCED_FACE('',(#1163),#1919,.T.);
#1224=ADVANCED_FACE('',(#1164),#1920,.T.);
#1225=ADVANCED_FACE('',(#1165),#1921,.T.);
#1226=ADVANCED_FACE('',(#1166),#1922,.T.);
#1227=ADVANCED_FACE('',(#1167),#1923,.T.);
#1228=ADVANCED_FACE('',(#1168),#1924,.T.);
#1229=ADVANCED_FACE('',(#1169),#1925,.T.);
#1230=ADVANCED_FACE('',(#1170),#1926,.T.);
#1231=ADVANCED_FACE('',(#1171),#1927,.T.);
#1232=ADVANCED_FACE('',(#1172),#1928,.T.);
#1233=ADVANCED_FACE('',(#1173),#1929,.F.);
#1234=ADVANCED_FACE('',(#1174),#1930,.T.);
#1235=ADVANCED_FACE('',(#1175),#1931,.T.);
#1236=ADVANCED_FACE('',(#1176),#1932,.T.);
#1237=ADVANCED_FACE('',(#1177),#1933,.T.);
#1238=ADVANCED_FACE('',(#1178),#1934,.T.);
#1239=ADVANCED_FACE('',(#1179),#1935,.T.);
#1240=ADVANCED_FACE('',(#1180),#1936,.T.);
#1241=ADVANCED_FACE('',(#1181),#1937,.T.);
#1242=ADVANCED_FACE('',(#1182),#1938,.T.);
#1243=ADVANCED_FACE('',(#1183),#1939,.T.);
#1244=ADVANCED_FACE('',(#1184),#1940,.T.);
#1245=ADVANCED_FACE('',(#1185),#1941,.T.);
#1246=ADVANCED_FACE('',(#1186),#1942,.T.);
#1247=ADVANCED_FACE('',(#1187),#1943,.T.);
#1248=ADVANCED_FACE('',(#1188),#1944,.T.);
#1249=ADVANCED_FACE('',(#1189),#1945,.F.);
#1250=ADVANCED_FACE('',(#1190),#1946,.T.);
#1251=ADVANCED_FACE('',(#1191),#1947,.T.);
#1252=ADVANCED_FACE('',(#1192),#1948,.F.);
#1253=ADVANCED_FACE('',(#1193),#1949,.F.);
#1254=ADVANCED_FACE('',(#1194),#1950,.F.);
#1255=ADVANCED_FACE('',(#1195),#1951,.F.);
#1256=ADVANCED_FACE('',(#1196),#1952,.F.);
#1257=ADVANCED_FACE('',(#1197),#1953,.F.);
#1258=ADVANCED_FACE('',(#1198),#1954,.F.);
#1259=ADVANCED_FACE('',(#1199),#1955,.F.);
#1260=ADVANCED_FACE('',(#1200),#1956,.F.);
#1261=ADVANCED_FACE('',(#1201),#1957,.T.);
#1262=ADVANCED_FACE('',(#1202),#1958,.F.);
#1263=AXIS2_PLACEMENT_3D('',#1567,#1331,$);
#1264=AXIS2_PLACEMENT_3D('',#1632,#1364,$);
#1265=AXIS2_PLACEMENT_3D('',#1638,#1368,$);
#1266=AXIS2_PLACEMENT_3D('',#1642,#1371,$);
#1267=AXIS2_PLACEMENT_3D('',#1702,#1402,$);
#1268=AXIS2_PLACEMENT_3D('',#1704,#1404,$);
#1269=AXIS2_PLACEMENT_3D('',#1705,#1405,$);
#1270=AXIS2_PLACEMENT_3D('',#1708,#1408,$);
#1271=AXIS2_PLACEMENT_3D('',#1710,#1410,$);
#1272=AXIS2_PLACEMENT_3D('',#1719,#1415,$);
#1273=AXIS2_PLACEMENT_3D('',#1722,#1418,$);
#1274=AXIS2_PLACEMENT_3D('',#1724,#1420,$);
#1275=AXIS2_PLACEMENT_3D('',#1726,#1422,$);
#1276=AXIS2_PLACEMENT_3D('',#1727,#1423,$);
#1277=AXIS2_PLACEMENT_3D('',#1731,#1427,$);
#1278=AXIS2_PLACEMENT_3D('',#1733,#1429,$);
#1279=AXIS2_PLACEMENT_3D('',#1739,#1433,$);
#1280=AXIS2_PLACEMENT_3D('',#1743,#1436,$);
#1281=AXIS2_PLACEMENT_3D('',#1747,#1439,$);
#1282=AXIS2_PLACEMENT_3D('',#1753,#1443,$);
#1283=AXIS2_PLACEMENT_3D('',#1758,#1447,$);
#1284=AXIS2_PLACEMENT_3D('',#1762,#1450,$);
#1285=AXIS2_PLACEMENT_3D('',#1764,#1452,$);
#1286=AXIS2_PLACEMENT_3D('',#1767,#1455,$);
#1287=AXIS2_PLACEMENT_3D('',#1768,#1456,$);
#1288=AXIS2_PLACEMENT_3D('',#1774,#1460,$);
#1289=AXIS2_PLACEMENT_3D('',#1780,#1464,$);
#1290=AXIS2_PLACEMENT_3D('',#1789,#1469,$);
#1291=AXIS2_PLACEMENT_3D('',#1791,#1471,$);
#1292=AXIS2_PLACEMENT_3D('',#1793,#1473,$);
#1293=AXIS2_PLACEMENT_3D('',#1796,#1476,$);
#1294=AXIS2_PLACEMENT_3D('',#1799,#1479,$);
#1295=AXIS2_PLACEMENT_3D('',#1801,#1481,$);
#1296=AXIS2_PLACEMENT_3D('',#1803,#1483,$);
#1297=AXIS2_PLACEMENT_3D('',#1806,#1486,$);
#1298=AXIS2_PLACEMENT_3D('',#1810,#1489,$);
#1299=AXIS2_PLACEMENT_3D('',#1814,#1492,$);
#1300=AXIS2_PLACEMENT_3D('',#1815,#1493,$);
#1301=AXIS2_PLACEMENT_3D('',#1819,#1496,$);
#1302=AXIS2_PLACEMENT_3D('',#1823,#1499,$);
#1303=AXIS2_PLACEMENT_3D('',#1824,#1500,$);
#1304=AXIS2_PLACEMENT_3D('',#1826,#1502,$);
#1305=AXIS2_PLACEMENT_3D('',#1828,#1504,$);
#1306=AXIS2_PLACEMENT_3D('',#1830,#1506,$);
#1307=AXIS2_PLACEMENT_3D('',#1831,#1507,$);
#1308=AXIS2_PLACEMENT_3D('',#1832,#1508,$);
#1309=AXIS2_PLACEMENT_3D('',#1833,#1509,$);
#1310=AXIS2_PLACEMENT_3D('',#1842,#1514,$);
#1311=AXIS2_PLACEMENT_3D('',#1848,#1518,$);
#1312=AXIS2_PLACEMENT_3D('',#1854,#1522,$);
#1313=AXIS2_PLACEMENT_3D('',#1860,#1526,$);
#1314=AXIS2_PLACEMENT_3D('',#1862,#1528,$);
#1315=AXIS2_PLACEMENT_3D('',#1866,#1531,$);
#1316=AXIS2_PLACEMENT_3D('',#1868,#1533,$);
#1317=AXIS2_PLACEMENT_3D('',#1872,#1536,$);
#1318=AXIS2_PLACEMENT_3D('',#1874,#1538,$);
#1319=AXIS2_PLACEMENT_3D('',#1883,#1543,$);
#1320=AXIS2_PLACEMENT_3D('',#1886,#1546,$);
#1321=AXIS2_PLACEMENT_3D('',#1888,#1548,$);
#1322=AXIS2_PLACEMENT_3D('',#1890,#1550,$);
#1323=AXIS2_PLACEMENT_3D('AXIS_PLACEMENT_1',#1891,#1551,#1552);
#1324=AXIS2_PLACEMENT_3D('AXIS_PLACEMENT_5',#1892,#1553,#1554);
#1325=AXIS2_PLACEMENT_3D('AXIS_PLACEMENT_11',#1893,#1555,#1556);
#1326=AXIS2_PLACEMENT_3D('AXIS_PLACEMENT_15',#1894,#1557,#1558);
#1327=AXIS2_PLACEMENT_3D('AXIS_PLACEMENT_21',#1895,#1559,#1560);
#1328=AXIS2_PLACEMENT_3D('AXIS_PLACEMENT_25',#1896,#1561,#1562);
#1329=AXIS2_PLACEMENT_3D('AXIS_PLACEMENT_31',#1897,#1563,#1564);
#1330=AXIS2_PLACEMENT_3D('AXIS_PLACEMENT_35',#1898,#1565,#1566);
#1331=DIRECTION('',(0.,1.,8.53702498020082E-017));
#1332=DIRECTION('',(1.,-1.44622828595262E-032,1.6940658945086E-016));
#1333=DIRECTION('',(0.,-8.53702498020082E-017,1.));
#1334=DIRECTION('',(-1.,-1.44622828595262E-032,1.6940658945086E-016));
#1335=DIRECTION('',(0.,8.53702498020082E-017,-1.));
#1336=DIRECTION('',(0.,8.53702498020082E-017,-1.));
#1337=DIRECTION('',(-0.447213595499958,-7.63574727253713E-017,-0.894427190999916));
#1338=DIRECTION('',(-1.,0.,0.));
#1339=DIRECTION('',(-0.447213595499958,7.63574727253713E-017,0.894427190999916));
#1340=DIRECTION('',(-0.447213595499958,-7.63574727253713E-017,-0.894427190999916));
#1341=DIRECTION('',(-1.,0.,0.));
#1342=DIRECTION('',(-0.447213595499958,7.63574727253713E-017,0.894427190999916));
#1343=DIRECTION('',(-0.447213595499958,-7.63574727253713E-017,-0.894427190999916));
#1344=DIRECTION('',(-1.,0.,0.));
#1345=DIRECTION('',(-0.447213595499958,7.63574727253713E-017,0.894427190999916));
#1346=DIRECTION('',(0.,8.53702498020082E-017,-1.));
#1347=DIRECTION('',(0.447213595499958,-7.63574727253713E-017,0.894427190999916));
#1348=DIRECTION('',(-1.,0.,0.));
#1349=DIRECTION('',(0.447213595499958,7.63574727253713E-017,-0.894427190999916));
#1350=DIRECTION('',(0.447213595499958,-7.63574727253713E-017,0.894427190999916));
#1351=DIRECTION('',(-1.,0.,0.));
#1352=DIRECTION('',(0.447213595499958,7.63574727253713E-017,-0.894427190999916));
#1353=DIRECTION('',(0.447213595499958,-7.63574727253713E-017,0.894427190999916));
#1354=DIRECTION('',(-1.,0.,0.));
#1355=DIRECTION('',(0.447213595499958,7.63574727253713E-017,-0.894427190999916));
#1356=DIRECTION('',(1.,-1.44622828595262E-032,1.6940658945086E-016));
#1357=DIRECTION('',(0.,-8.53702498020082E-017,1.));
#1358=DIRECTION('',(-1.,-1.44622828595262E-032,1.6940658945086E-016));
#1359=DIRECTION('',(0.,8.53702498020082E-017,-1.));
#1360=DIRECTION('',(1.,-1.44622828595262E-032,1.6940658945086E-016));
#1361=DIRECTION('',(0.,-8.53702498020082E-017,1.));
#1362=DIRECTION('',(-1.,-1.44622828595262E-032,1.6940658945086E-016));
#1363=DIRECTION('',(0.,8.53702498020082E-017,-1.));
#1364=DIRECTION('',(-1.6940658945086E-016,8.53702498020082E-017,-1.));
#1365=DIRECTION('',(0.,1.,8.53702498020082E-017));
#1366=DIRECTION('',(0.,1.,8.53702498020082E-017));
#1367=DIRECTION('',(1.,3.06118320526638E-032,-1.6940658945086E-016));
#1368=DIRECTION('',(1.,0.,0.));
#1369=DIRECTION('',(0.,1.,8.53702498020082E-017));
#1370=DIRECTION('',(0.,-1.80700362080917E-016,1.));
#1371=DIRECTION('',(0.,-1.,-1.80700362080917E-016));
#1372=DIRECTION('',(1.,3.06118320526638E-032,-1.6940658945086E-016));
#1373=DIRECTION('',(0.,1.80700362080917E-016,-1.));
#1374=DIRECTION('',(-1.,3.06118320526638E-032,-1.6940658945086E-016));
#1375=DIRECTION('',(0.,-1.80700362080917E-016,1.));
#1376=DIRECTION('',(1.,-3.06118320526638E-032,1.6940658945086E-016));
#1377=DIRECTION('',(0.,1.80700362080917E-016,-1.));
#1378=DIRECTION('',(-1.,-3.06118320526638E-032,1.6940658945086E-016));
#1379=DIRECTION('',(0.,-1.80700362080917E-016,1.));
#1380=DIRECTION('',(1.,0.,0.));
#1381=DIRECTION('',(0.447213595499958,-1.61623317268702E-016,0.894427190999916));
#1382=DIRECTION('',(0.,-1.80700362080917E-016,1.));
#1383=DIRECTION('',(-0.447213595499958,-1.61623317268702E-016,0.894427190999916));
#1384=DIRECTION('',(1.,0.,0.));
#1385=DIRECTION('',(-0.447213595499958,1.61623317268702E-016,-0.894427190999916));
#1386=DIRECTION('',(-0.447213595499958,-1.61623317268702E-016,0.894427190999916));
#1387=DIRECTION('',(1.,0.,0.));
#1388=DIRECTION('',(-0.447213595499958,1.61623317268702E-016,-0.894427190999916));
#1389=DIRECTION('',(-0.447213595499958,-1.61623317268702E-016,0.894427190999916));
#1390=DIRECTION('',(1.,0.,0.));
#1391=DIRECTION('',(-0.447213595499958,1.61623317268702E-016,-0.894427190999916));
#1392=DIRECTION('',(0.,1.80700362080917E-016,-1.));
#1393=DIRECTION('',(0.447213595499958,1.61623317268702E-016,-0.894427190999916));
#1394=DIRECTION('',(1.,0.,0.));
#1395=DIRECTION('',(0.447213595499958,-1.61623317268702E-016,0.894427190999916));
#1396=DIRECTION('',(0.447213595499958,1.61623317268702E-016,-0.894427190999916));
#1397=DIRECTION('',(1.,0.,0.));
#1398=DIRECTION('',(0.447213595499958,-1.61623317268702E-016,0.894427190999916));
#1399=DIRECTION('',(0.447213595499958,1.61623317268702E-016,-0.894427190999916));
#1400=DIRECTION('',(0.,1.80700362080917E-016,-1.));
#1401=DIRECTION('',(-1.,3.06118320526638E-032,-1.6940658945086E-016));
#1402=DIRECTION('',(-1.6940658945086E-016,-8.53702498020082E-017,1.));
#1403=DIRECTION('',(0.,1.,8.53702498020082E-017));
#1404=DIRECTION('',(-1.,0.,0.));
#1405=DIRECTION('',(-1.6940658945086E-016,-8.53702498020082E-017,1.));
#1406=DIRECTION('',(0.,1.,8.53702498020082E-017));
#1407=DIRECTION('',(0.,1.,8.53702498020082E-017));
#1408=DIRECTION('',(1.,0.,0.));
#1409=DIRECTION('',(0.,1.,8.53702498020082E-017));
#1410=DIRECTION('',(0.,-1.,-8.53702498020082E-017));
#1411=DIRECTION('',(-0.447213595499958,7.63574727253713E-017,-0.894427190999916));
#1412=DIRECTION('',(1.,0.,0.));
#1413=DIRECTION('',(-0.447213595499958,-7.63574727253713E-017,0.894427190999916));
#1414=DIRECTION('',(-1.,0.,0.));
#1415=DIRECTION('',(-1.6940658945086E-016,-8.53702498020082E-017,1.));
#1416=DIRECTION('',(0.,1.,8.53702498020082E-017));
#1417=DIRECTION('',(0.,1.,8.53702498020082E-017));
#1418=DIRECTION('',(-1.,0.,0.));
#1419=DIRECTION('',(0.,1.,8.53702498020082E-017));
#1420=DIRECTION('',(-1.6940658945086E-016,8.53702498020082E-017,-1.));
#1421=DIRECTION('',(0.,1.,8.53702498020082E-017));
#1422=DIRECTION('',(1.,0.,0.));
#1423=DIRECTION('',(-0.894427190999916,-3.81787363626856E-017,0.447213595499958));
#1424=DIRECTION('',(4.76365993895206E-016,-1.,8.67361737988404E-016));
#1425=DIRECTION('',(0.,1.,8.53702498020082E-017));
#1426=DIRECTION('',(0.,1.,8.53702498020082E-017));
#1427=DIRECTION('',(-1.,0.,0.));
#1428=DIRECTION('',(0.,1.,-8.53702498020082E-017));
#1429=DIRECTION('',(-0.894427190999916,-3.81787363626856E-017,-0.447213595499958));
#1430=DIRECTION('',(-6.93206428392307E-016,1.,1.30104260698261E-015));
#1431=DIRECTION('',(-4.2685124901004E-017,1.,0.));
#1432=DIRECTION('',(0.447213595499958,7.63574727253713E-017,-0.894427190999916));
#1433=DIRECTION('',(0.,-1.30104260698261E-015,1.));
#1434=DIRECTION('',(1.,0.,0.));
#1435=DIRECTION('',(-6.93206428392307E-016,-1.,-1.30104260698261E-015));
#1436=DIRECTION('',(0.,-1.,-8.53702498020082E-017));
#1437=DIRECTION('',(0.447213595499958,-7.63574727253713E-017,0.894427190999916));
#1438=DIRECTION('',(-1.,0.,0.));
#1439=DIRECTION('',(0.,-1.30104260698261E-015,1.));
#1440=DIRECTION('',(1.,0.,0.));
#1441=DIRECTION('',(-6.93206428392307E-016,-1.,-1.30104260698261E-015));
#1442=DIRECTION('',(-6.93206428392307E-016,1.,1.30104260698261E-015));
#1443=DIRECTION('',(0.894427190999916,-3.81787363626856E-017,-0.447213595499958));
#1444=DIRECTION('',(0.,1.,-8.53702498020082E-017));
#1445=DIRECTION('',(0.447213595499958,-7.63574727253713E-017,0.894427190999916));
#1446=DIRECTION('',(-4.2685124901004E-017,-1.,0.));
#1447=DIRECTION('',(0.,-1.,-8.53702498020082E-017));
#1448=DIRECTION('',(0.447213595499958,7.63574727253713E-017,-0.894427190999916));
#1449=DIRECTION('',(-1.,0.,0.));
#1450=DIRECTION('',(0.,0.,-1.));
#1451=DIRECTION('',(-4.2685124901004E-017,-1.,0.));
#1452=DIRECTION('',(-0.894427190999916,-3.81787363626856E-017,-0.447213595499958));
#1453=DIRECTION('',(0.,1.,-8.53702498020082E-017));
#1454=DIRECTION('',(-4.2685124901004E-017,1.,0.));
#1455=DIRECTION('',(0.,0.,-1.));
#1456=DIRECTION('',(0.,0.,-1.));
#1457=DIRECTION('',(0.,1.,-8.53702498020082E-017));
#1458=DIRECTION('',(-1.,0.,0.));
#1459=DIRECTION('',(-4.2685124901004E-017,1.,0.));
#1460=DIRECTION('',(0.,-3.41480999208033E-016,1.));
#1461=DIRECTION('',(-1.,0.,0.));
#1462=DIRECTION('',(0.,1.,8.53702498020082E-017));
#1463=DIRECTION('',(-1.28055374703012E-016,-1.,-3.41480999208033E-016));
#1464=DIRECTION('',(0.,-1.,-8.53702498020082E-017));
#1465=DIRECTION('',(-0.447213595499958,7.63574727253713E-017,-0.894427190999916));
#1466=DIRECTION('',(1.,0.,0.));
#1467=DIRECTION('',(-0.447213595499958,-7.63574727253713E-017,0.894427190999916));
#1468=DIRECTION('',(-1.,0.,0.));
#1469=DIRECTION('',(0.,-3.41480999208033E-016,1.));
#1470=DIRECTION('',(-1.28055374703012E-016,1.,3.41480999208033E-016));
#1471=DIRECTION('',(0.,-8.67361737988404E-016,-1.));
#1472=DIRECTION('',(4.76365993895206E-016,1.,-8.67361737988404E-016));
#1473=DIRECTION('',(0.,-3.41480999208033E-016,1.));
#1474=DIRECTION('',(-1.28055374703012E-016,1.,3.41480999208033E-016));
#1475=DIRECTION('',(-1.28055374703012E-016,-1.,-3.41480999208033E-016));
#1476=DIRECTION('',(-1.,0.,0.));
#1477=DIRECTION('',(0.,-1.,8.53702498020082E-017));
#1478=DIRECTION('',(0.,1.,8.53702498020082E-017));
#1479=DIRECTION('',(0.894427190999916,-3.81787363626856E-017,0.447213595499958));
#1480=DIRECTION('',(0.,1.,8.53702498020082E-017));
#1481=DIRECTION('',(-0.894427190999916,-3.81787363626856E-017,0.447213595499958));
#1482=DIRECTION('',(4.76365993895206E-016,-1.,8.67361737988404E-016));
#1483=DIRECTION('',(0.894427190999916,-3.81787363626856E-017,0.447213595499958));
#1484=DIRECTION('',(4.76365993895206E-016,1.,-8.67361737988404E-016));
#1485=DIRECTION('',(0.,1.,8.53702498020082E-017));
#1486=DIRECTION('',(-0.894427190999916,-3.81787363626856E-017,0.447213595499958));
#1487=DIRECTION('',(4.76365993895206E-016,-1.,8.67361737988404E-016));
#1488=DIRECTION('',(-0.447213595499958,7.63574727253713E-017,-0.894427190999916));
#1489=DIRECTION('',(0.894427190999916,-3.81787363626856E-017,0.447213595499958));
#1490=DIRECTION('',(-0.447213595499958,-7.63574727253713E-017,0.894427190999916));
#1491=DIRECTION('',(4.76365993895206E-016,1.,-8.67361737988404E-016));
#1492=DIRECTION('',(0.894427190999916,-3.81787363626856E-017,-0.447213595499958));
#1493=DIRECTION('',(-0.894427190999916,-3.81787363626856E-017,-0.447213595499958));
#1494=DIRECTION('',(-6.93206428392307E-016,1.,1.30104260698261E-015));
#1495=DIRECTION('',(0.447213595499958,7.63574727253713E-017,-0.894427190999916));
#1496=DIRECTION('',(0.894427190999916,-3.81787363626856E-017,-0.447213595499958));
#1497=DIRECTION('',(-6.93206428392307E-016,-1.,-1.30104260698261E-015));
#1498=DIRECTION('',(0.447213595499958,-7.63574727253713E-017,0.894427190999916));
#1499=DIRECTION('',(0.,-8.67361737988404E-016,-1.));
#1500=DIRECTION('',(0.,-8.67361737988404E-016,-1.));
#1501=DIRECTION('',(1.,0.,0.));
#1502=DIRECTION('',(0.,-1.30104260698261E-015,1.));
#1503=DIRECTION('',(1.,0.,0.));
#1504=DIRECTION('',(-1.,0.,0.));
#1505=DIRECTION('',(0.,1.,8.53702498020082E-017));
#1506=DIRECTION('',(-1.6940658945086E-016,8.53702498020082E-017,-1.));
#1507=DIRECTION('',(0.,-1.,-8.53702498020082E-017));
#1508=DIRECTION('',(0.,-1.,-8.53702498020082E-017));
#1509=DIRECTION('',(0.,0.,-1.));
#1510=DIRECTION('',(0.,1.,0.));
#1511=DIRECTION('',(-1.,0.,0.));
#1512=DIRECTION('',(0.,-1.,0.));
#1513=DIRECTION('',(1.,0.,0.));
#1514=DIRECTION('',(0.,-0.707106781186547,0.707106781186548));
#1515=DIRECTION('',(0.577350269189626,0.577350269189626,0.577350269189625));
#1516=DIRECTION('',(-1.,0.,0.));
#1517=DIRECTION('',(-0.577350269189621,0.577350269189629,0.577350269189628));
#1518=DIRECTION('',(0.,-1.,0.));
#1519=DIRECTION('',(-7.51613291151129E-017,0.,-1.));
#1520=DIRECTION('',(1.,0.,8.13151629364136E-015));
#1521=DIRECTION('',(0.,0.,1.));
#1522=DIRECTION('',(1.,0.,-7.51613291151129E-017));
#1523=DIRECTION('',(-7.51613291151129E-017,0.,-1.));
#1524=DIRECTION('',(0.,-1.,0.));
#1525=DIRECTION('',(0.,1.,0.));
#1526=DIRECTION('',(0.707106781186547,0.,-0.707106781186548));
#1527=DIRECTION('',(-0.577350269189626,0.577350269189626,-0.577350269189625));
#1528=DIRECTION('',(0.,-0.707106781186547,-0.707106781186548));
#1529=DIRECTION('',(-0.577350269189621,-0.577350269189629,0.577350269189628));
#1530=DIRECTION('',(1.,0.,0.));
#1531=DIRECTION('',(-0.707106781186552,0.,-0.707106781186543));
#1532=DIRECTION('',(0.,-1.,0.));
#1533=DIRECTION('',(0.,-1.,0.));
#1534=DIRECTION('',(0.,0.,1.));
#1535=DIRECTION('',(-1.,0.,-8.13151629364136E-015));
#1536=DIRECTION('',(-1.,0.,0.));
#1537=DIRECTION('',(0.,1.,0.));
#1538=DIRECTION('',(-8.13151629364136E-015,0.,1.));
#1539=DIRECTION('',(0.,-1.,0.));
#1540=DIRECTION('',(-1.,0.,-8.13151629364136E-015));
#1541=DIRECTION('',(0.,1.,0.));
#1542=DIRECTION('',(1.,0.,8.13151629364136E-015));
#1543=DIRECTION('',(-5.74985031256271E-015,-0.707106781186547,0.707106781186548));
#1544=DIRECTION('',(0.577350269189625,0.577350269189625,0.577350269189628));
#1545=DIRECTION('',(-0.577350269189626,0.577350269189629,0.577350269189623));
#1546=DIRECTION('',(0.707106781186546,0.,0.707106781186549));
#1547=DIRECTION('',(0.577350269189626,0.577350269189629,-0.577350269189623));
#1548=DIRECTION('',(5.74985031256271E-015,-0.707106781186547,-0.707106781186548));
#1549=DIRECTION('',(0.577350269189624,-0.577350269189625,0.577350269189628));
#1550=DIRECTION('',(-0.70710678118655,0.,0.707106781186545));
#1551=DIRECTION('DIRECTION2',(0.,0.,1.));
#1552=DIRECTION('DIRECTION3',(1.,0.,0.));
#1553=DIRECTION('DIRECTION6',(0.,0.,1.));
#1554=DIRECTION('DIRECTION7',(1.,0.,0.));
#1555=DIRECTION('DIRECTION12',(1.1217155676535E-015,-1.,-2.22044604925031E-016));
#1556=DIRECTION('DIRECTION13',(1.,1.1217155676535E-015,4.55581752878409E-016));
#1557=DIRECTION('DIRECTION16',(0.,0.,1.));
#1558=DIRECTION('DIRECTION17',(1.,0.,0.));
#1559=DIRECTION('DIRECTION22',(1.1217155676535E-015,-1.,-2.22044604925031E-016));
#1560=DIRECTION('DIRECTION23',(1.,1.1217155676535E-015,4.55581752878409E-016));
#1561=DIRECTION('DIRECTION26',(0.,0.,1.));
#1562=DIRECTION('DIRECTION27',(1.,0.,0.));
#1563=DIRECTION('DIRECTION32',(1.1217155676535E-015,-1.,-2.22044604925031E-016));
#1564=DIRECTION('DIRECTION33',(1.,1.1217155676535E-015,4.55581752878409E-016));
#1565=DIRECTION('DIRECTION36',(0.,0.,1.));
#1566=DIRECTION('DIRECTION37',(1.,0.,0.));
#1567=CARTESIAN_POINT('',(3.81,1.27,1.27));
#1568=CARTESIAN_POINT('',(-0.32,1.27,-0.32));
#1569=CARTESIAN_POINT('',(-0.32,1.27,-0.32));
#1570=CARTESIAN_POINT('',(0.32,1.27,-0.32));
#1571=CARTESIAN_POINT('',(0.32,1.27,-0.32));
#1572=CARTESIAN_POINT('',(0.32,1.27,0.32));
#1573=CARTESIAN_POINT('',(0.32,1.27,0.32));
#1574=CARTESIAN_POINT('',(-0.32,1.27,0.32));
#1575=CARTESIAN_POINT('',(-0.32,1.27,0.32));
#1576=CARTESIAN_POINT('',(3.81,1.27,1.27));
#1577=CARTESIAN_POINT('',(3.81,1.27,0.77));
#1578=CARTESIAN_POINT('',(3.81,1.27,-0.77));
#1579=CARTESIAN_POINT('',(3.81,1.27,-0.77));
#1580=CARTESIAN_POINT('',(3.56,1.27,-1.27));
#1581=CARTESIAN_POINT('',(3.81,1.27,-1.27));
#1582=CARTESIAN_POINT('',(1.52,1.27,-1.27));
#1583=CARTESIAN_POINT('',(1.52,1.27,-1.27));
#1584=CARTESIAN_POINT('',(1.27,1.27,-0.77));
#1585=CARTESIAN_POINT('',(1.27,1.27,-0.77));
#1586=CARTESIAN_POINT('',(1.02,1.27,-1.27));
#1587=CARTESIAN_POINT('',(3.81,1.27,-1.27));
#1588=CARTESIAN_POINT('',(-1.02,1.27,-1.27));
#1589=CARTESIAN_POINT('',(-1.02,1.27,-1.27));
#1590=CARTESIAN_POINT('',(-1.27,1.27,-0.77));
#1591=CARTESIAN_POINT('',(-1.27,1.27,-0.77));
#1592=CARTESIAN_POINT('',(-1.52,1.27,-1.27));
#1593=CARTESIAN_POINT('',(3.81,1.27,-1.27));
#1594=CARTESIAN_POINT('',(-3.56,1.27,-1.27));
#1595=CARTESIAN_POINT('',(-3.56,1.27,-1.27));
#1596=CARTESIAN_POINT('',(-3.81,1.27,-0.77));
#1597=CARTESIAN_POINT('',(-3.81,1.27,1.27));
#1598=CARTESIAN_POINT('',(-3.81,1.27,0.77));
#1599=CARTESIAN_POINT('',(-3.81,1.27,0.77));
#1600=CARTESIAN_POINT('',(-3.56,1.27,1.27));
#1601=CARTESIAN_POINT('',(3.81,1.27,1.27));
#1602=CARTESIAN_POINT('',(-1.52,1.27,1.27));
#1603=CARTESIAN_POINT('',(-1.52,1.27,1.27));
#1604=CARTESIAN_POINT('',(-1.27,1.27,0.77));
#1605=CARTESIAN_POINT('',(-1.27,1.27,0.77));
#1606=CARTESIAN_POINT('',(-1.02,1.27,1.27));
#1607=CARTESIAN_POINT('',(3.81,1.27,1.27));
#1608=CARTESIAN_POINT('',(1.02,1.27,1.27));
#1609=CARTESIAN_POINT('',(1.02,1.27,1.27));
#1610=CARTESIAN_POINT('',(1.27,1.27,0.77));
#1611=CARTESIAN_POINT('',(1.27,1.27,0.77));
#1612=CARTESIAN_POINT('',(1.52,1.27,1.27));
#1613=CARTESIAN_POINT('',(3.81,1.27,1.27));
#1614=CARTESIAN_POINT('',(3.56,1.27,1.27));
#1615=CARTESIAN_POINT('',(3.56,1.27,1.27));
#1616=CARTESIAN_POINT('',(-2.86,1.27,-0.32));
#1617=CARTESIAN_POINT('',(-2.86,1.27,-0.32));
#1618=CARTESIAN_POINT('',(-2.22,1.27,-0.32));
#1619=CARTESIAN_POINT('',(-2.22,1.27,-0.32));
#1620=CARTESIAN_POINT('',(-2.22,1.27,0.32));
#1621=CARTESIAN_POINT('',(-2.22,1.27,0.32));
#1622=CARTESIAN_POINT('',(-2.86,1.27,0.32));
#1623=CARTESIAN_POINT('',(-2.86,1.27,0.32));
#1624=CARTESIAN_POINT('',(2.22,1.27,-0.32));
#1625=CARTESIAN_POINT('',(2.22,1.27,-0.32));
#1626=CARTESIAN_POINT('',(2.86,1.27,-0.32));
#1627=CARTESIAN_POINT('',(2.86,1.27,-0.32));
#1628=CARTESIAN_POINT('',(2.86,1.27,0.32));
#1629=CARTESIAN_POINT('',(2.86,1.27,0.32));
#1630=CARTESIAN_POINT('',(2.22,1.27,0.32));
#1631=CARTESIAN_POINT('',(2.22,1.27,0.32));
#1632=CARTESIAN_POINT('',(2.86,-7.15422696750272,0.32));
#1633=CARTESIAN_POINT('',(2.22,-7.15422696750272,0.32));
#1634=CARTESIAN_POINT('',(2.22,-0.77,0.32));
#1635=CARTESIAN_POINT('',(2.86,-7.15422696750272,0.32));
#1636=CARTESIAN_POINT('',(2.86,-0.77,0.32));
#1637=CARTESIAN_POINT('',(-4.61422696750272,-0.77,0.32));
#1638=CARTESIAN_POINT('',(2.22,-7.15422696750272,0.32));
#1639=CARTESIAN_POINT('',(2.22,-7.15422696750272,-0.32));
#1640=CARTESIAN_POINT('',(2.22,-0.77,-0.32));
#1641=CARTESIAN_POINT('',(2.22,-0.77,0.9));
#1642=CARTESIAN_POINT('',(-4.61422696750272,-0.77,0.9));
#1643=CARTESIAN_POINT('',(-4.61422696750272,-0.77,0.32));
#1644=CARTESIAN_POINT('',(-0.32,-0.77,0.32));
#1645=CARTESIAN_POINT('',(0.32,-0.77,0.32));
#1646=CARTESIAN_POINT('',(0.32,-0.77,0.9));
#1647=CARTESIAN_POINT('',(0.32,-0.77,-0.32));
#1648=CARTESIAN_POINT('',(-4.61422696750272,-0.77,-0.32));
#1649=CARTESIAN_POINT('',(-0.32,-0.77,-0.32));
#1650=CARTESIAN_POINT('',(-0.32,-0.77,0.9));
#1651=CARTESIAN_POINT('',(-2.86,-0.77,-0.32));
#1652=CARTESIAN_POINT('',(-2.86,-0.77,-0.32));
#1653=CARTESIAN_POINT('',(-2.22,-0.77,-0.32));
#1654=CARTESIAN_POINT('',(-2.86,-0.77,0.32));
#1655=CARTESIAN_POINT('',(-2.86,-0.77,0.32));
#1656=CARTESIAN_POINT('',(-2.22,-0.77,0.32));
#1657=CARTESIAN_POINT('',(-2.22,-0.77,0.32));
#1658=CARTESIAN_POINT('',(-2.22,-0.77,-0.32));
#1659=CARTESIAN_POINT('',(-4.61422696750272,-0.77,0.9));
#1660=CARTESIAN_POINT('',(-3.745,-0.77,0.9));
#1661=CARTESIAN_POINT('',(-1.335,-0.77,0.9));
#1662=CARTESIAN_POINT('',(-3.81,-0.77,0.77));
#1663=CARTESIAN_POINT('',(-3.81,-0.77,0.77));
#1664=CARTESIAN_POINT('',(-3.81,-0.77,-1.39139278802306E-016));
#1665=CARTESIAN_POINT('',(-3.81,-0.77,-0.77));
#1666=CARTESIAN_POINT('',(-3.56,-0.77,-1.27));
#1667=CARTESIAN_POINT('',(-3.745,-0.77,-0.9));
#1668=CARTESIAN_POINT('',(-4.61422696750272,-0.77,-0.9));
#1669=CARTESIAN_POINT('',(-1.335,-0.77,-0.9));
#1670=CARTESIAN_POINT('',(-1.27,-0.77,-0.77));
#1671=CARTESIAN_POINT('',(-1.27,-0.77,-0.77));
#1672=CARTESIAN_POINT('',(-1.02,-0.77,-1.27));
#1673=CARTESIAN_POINT('',(-1.205,-0.77,-0.9));
#1674=CARTESIAN_POINT('',(-4.61422696750272,-0.77,-0.9));
#1675=CARTESIAN_POINT('',(1.205,-0.77,-0.9));
#1676=CARTESIAN_POINT('',(1.27,-0.77,-0.77));
#1677=CARTESIAN_POINT('',(1.27,-0.77,-0.77));
#1678=CARTESIAN_POINT('',(1.52,-0.77,-1.27));
#1679=CARTESIAN_POINT('',(1.335,-0.77,-0.9));
#1680=CARTESIAN_POINT('',(-4.61422696750272,-0.77,-0.9));
#1681=CARTESIAN_POINT('',(3.745,-0.77,-0.9));
#1682=CARTESIAN_POINT('',(3.81,-0.77,-0.77));
#1683=CARTESIAN_POINT('',(3.81,-0.77,-0.77));
#1684=CARTESIAN_POINT('',(3.81,-0.77,0.9));
#1685=CARTESIAN_POINT('',(3.81,-0.77,0.77));
#1686=CARTESIAN_POINT('',(3.56,-0.77,1.27));
#1687=CARTESIAN_POINT('',(3.745,-0.77,0.9));
#1688=CARTESIAN_POINT('',(-4.61422696750272,-0.77,0.9));
#1689=CARTESIAN_POINT('',(1.335,-0.77,0.9));
#1690=CARTESIAN_POINT('',(1.27,-0.77,0.77));
#1691=CARTESIAN_POINT('',(1.27,-0.77,0.77));
#1692=CARTESIAN_POINT('',(1.02,-0.77,1.27));
#1693=CARTESIAN_POINT('',(1.205,-0.77,0.9));
#1694=CARTESIAN_POINT('',(-4.61422696750272,-0.77,0.9));
#1695=CARTESIAN_POINT('',(-1.205,-0.77,0.9));
#1696=CARTESIAN_POINT('',(-1.27,-0.77,0.77));
#1697=CARTESIAN_POINT('',(-1.27,-0.77,0.77));
#1698=CARTESIAN_POINT('',(-1.52,-0.77,1.27));
#1699=CARTESIAN_POINT('',(2.86,-0.77,0.9));
#1700=CARTESIAN_POINT('',(2.86,-0.77,-0.32));
#1701=CARTESIAN_POINT('',(-4.61422696750272,-0.77,-0.32));
#1702=CARTESIAN_POINT('',(2.22,-7.15422696750272,-0.32));
#1703=CARTESIAN_POINT('',(2.86,-7.15422696750272,-0.32));
#1704=CARTESIAN_POINT('',(2.86,-7.15422696750272,-0.32));
#1705=CARTESIAN_POINT('',(-0.32,-7.15422696750272,-0.32));
#1706=CARTESIAN_POINT('',(0.32,-7.15422696750272,-0.32));
#1707=CARTESIAN_POINT('',(-0.32,-7.15422696750272,-0.32));
#1708=CARTESIAN_POINT('',(-0.32,-7.15422696750272,0.32));
#1709=CARTESIAN_POINT('',(-0.32,-7.15422696750272,0.32));
#1710=CARTESIAN_POINT('',(3.81,-1.27,-1.27));
#1711=CARTESIAN_POINT('',(-3.102,-1.27,2.186));
#1712=CARTESIAN_POINT('',(-3.56,-1.27,1.27));
#1713=CARTESIAN_POINT('',(-3.745,-1.27,0.9));
#1714=CARTESIAN_POINT('',(-4.61422696750272,-1.27,0.9));
#1715=CARTESIAN_POINT('',(-1.335,-1.27,0.9));
#1716=CARTESIAN_POINT('',(0.562,-1.27,-2.894));
#1717=CARTESIAN_POINT('',(-1.52,-1.27,1.27));
#1718=CARTESIAN_POINT('',(3.81,-1.27,1.27));
#1719=CARTESIAN_POINT('',(-2.86,-7.15422696750272,-0.32));
#1720=CARTESIAN_POINT('',(-2.86,-7.15422696750272,-0.32));
#1721=CARTESIAN_POINT('',(-2.22,-7.15422696750272,-0.32));
#1722=CARTESIAN_POINT('',(-2.22,-7.15422696750272,-0.32));
#1723=CARTESIAN_POINT('',(-2.22,-7.15422696750272,0.32));
#1724=CARTESIAN_POINT('',(-2.22,-7.15422696750272,0.32));
#1725=CARTESIAN_POINT('',(-2.86,-7.15422696750272,0.32));
#1726=CARTESIAN_POINT('',(-2.86,-7.15422696750272,0.32));
#1727=CARTESIAN_POINT('',(-3.81,-7.3810172812219,0.77));
#1728=CARTESIAN_POINT('',(-3.745,-7.3810172812219,0.9));
#1729=CARTESIAN_POINT('',(-3.56,-7.3810172812219,1.27));
#1730=CARTESIAN_POINT('',(-3.81,-6.57350923475464E-017,0.77));
#1731=CARTESIAN_POINT('',(-3.81,0.,0.));
#1732=CARTESIAN_POINT('',(-3.81,-7.3810172812219,-0.77));
#1733=CARTESIAN_POINT('',(-3.56,-7.3810172812219,-1.27));
#1734=CARTESIAN_POINT('',(-3.745,-7.3810172812219,-0.9));
#1735=CARTESIAN_POINT('',(-3.745,-1.27,-0.9));
#1736=CARTESIAN_POINT('',(-3.56,1.27,-1.27));
#1737=CARTESIAN_POINT('',(-3.56,-1.27,-1.27));
#1738=CARTESIAN_POINT('',(-2.086,-1.27,-4.218));
#1739=CARTESIAN_POINT('',(-4.61422696750272,-0.77,-0.9));
#1740=CARTESIAN_POINT('',(-4.61422696750272,-1.27,-0.9));
#1741=CARTESIAN_POINT('',(-1.335,-1.27,-0.9));
#1742=CARTESIAN_POINT('',(-1.335,-7.15422696750272,-0.9));
#1743=CARTESIAN_POINT('',(3.81,-1.27,-1.27));
#1744=CARTESIAN_POINT('',(-0.454,-1.27,0.862));
#1745=CARTESIAN_POINT('',(-1.52,-1.27,-1.27));
#1746=CARTESIAN_POINT('',(3.81,-1.27,-1.27));
#1747=CARTESIAN_POINT('',(-4.61422696750272,-0.77,-0.9));
#1748=CARTESIAN_POINT('',(-4.61422696750272,-1.27,-0.9));
#1749=CARTESIAN_POINT('',(-1.205,-1.27,-0.9));
#1750=CARTESIAN_POINT('',(1.205,-1.27,-0.9));
#1751=CARTESIAN_POINT('',(1.205,-7.15422696750272,-0.9));
#1752=CARTESIAN_POINT('',(-1.205,-7.15422696750272,-0.9));
#1753=CARTESIAN_POINT('',(1.27,-7.15422696750272,-0.77));
#1754=CARTESIAN_POINT('',(1.27,-7.15422696750272,-0.77));
#1755=CARTESIAN_POINT('',(1.578,-1.27,-0.154));
#1756=CARTESIAN_POINT('',(1.02,-1.27,-1.27));
#1757=CARTESIAN_POINT('',(1.02,1.27,-1.27));
#1758=CARTESIAN_POINT('',(3.81,-1.27,-1.27));
#1759=CARTESIAN_POINT('',(-0.054,-1.27,-3.202));
#1760=CARTESIAN_POINT('',(-1.02,-1.27,-1.27));
#1761=CARTESIAN_POINT('',(3.81,-1.27,-1.27));
#1762=CARTESIAN_POINT('',(3.81,1.27,-1.27));
#1763=CARTESIAN_POINT('',(-1.52,1.27,-1.27));
#1764=CARTESIAN_POINT('',(-1.02,-7.15422696750272,-1.27));
#1765=CARTESIAN_POINT('',(-1.27,-7.15422696750272,-0.77));
#1766=CARTESIAN_POINT('',(-1.02,1.27,-1.27));
#1767=CARTESIAN_POINT('',(3.81,1.27,-1.27));
#1768=CARTESIAN_POINT('',(3.81,1.27,-1.27));
#1769=CARTESIAN_POINT('',(3.56,-7.3810172812219,-1.27));
#1770=CARTESIAN_POINT('',(3.56,-1.27,-1.27));
#1771=CARTESIAN_POINT('',(3.81,-1.27,-1.27));
#1772=CARTESIAN_POINT('',(1.52,-1.27,-1.27));
#1773=CARTESIAN_POINT('',(1.52,1.27,-1.27));
#1774=CARTESIAN_POINT('',(3.81,-1.27,1.27));
#1775=CARTESIAN_POINT('',(3.81,-1.27,1.27));
#1776=CARTESIAN_POINT('',(3.56,-1.27,1.27));
#1777=CARTESIAN_POINT('',(1.52,-1.27,1.27));
#1778=CARTESIAN_POINT('',(3.56,-7.3810172812219,1.27));
#1779=CARTESIAN_POINT('',(1.52,-1.27,1.27));
#1780=CARTESIAN_POINT('',(3.81,-1.27,-1.27));
#1781=CARTESIAN_POINT('',(-1.07,-1.27,1.17));
#1782=CARTESIAN_POINT('',(-1.02,-1.27,1.27));
#1783=CARTESIAN_POINT('',(-1.205,-1.27,0.9));
#1784=CARTESIAN_POINT('',(-4.61422696750272,-1.27,0.9));
#1785=CARTESIAN_POINT('',(1.205,-1.27,0.9));
#1786=CARTESIAN_POINT('',(2.594,-1.27,-1.878));
#1787=CARTESIAN_POINT('',(1.02,-1.27,1.27));
#1788=CARTESIAN_POINT('',(3.81,-1.27,1.27));
#1789=CARTESIAN_POINT('',(3.81,-1.27,1.27));
#1790=CARTESIAN_POINT('',(-1.52,-1.27,1.27));
#1791=CARTESIAN_POINT('',(-4.61422696750272,-1.27,0.9));
#1792=CARTESIAN_POINT('',(-1.335,-7.15422696750272,0.9));
#1793=CARTESIAN_POINT('',(3.81,-1.27,1.27));
#1794=CARTESIAN_POINT('',(1.02,-1.27,1.27));
#1795=CARTESIAN_POINT('',(-1.02,-1.27,1.27));
#1796=CARTESIAN_POINT('',(3.81,0.,0.));
#1797=CARTESIAN_POINT('',(3.81,-6.57350923475464E-017,-0.77));
#1798=CARTESIAN_POINT('',(3.81,-6.57350923475464E-017,0.77));
#1799=CARTESIAN_POINT('',(-1.52,-7.15422696750272,1.27));
#1800=CARTESIAN_POINT('',(-1.27,-7.15422696750272,0.77));
#1801=CARTESIAN_POINT('',(-1.27,-7.15422696750272,0.77));
#1802=CARTESIAN_POINT('',(-1.205,-7.15422696750272,0.9));
#1803=CARTESIAN_POINT('',(1.02,-7.15422696750272,1.27));
#1804=CARTESIAN_POINT('',(1.205,-7.15422696750272,0.9));
#1805=CARTESIAN_POINT('',(1.27,-7.15422696750272,0.77));
#1806=CARTESIAN_POINT('',(1.27,-7.15422696750272,0.77));
#1807=CARTESIAN_POINT('',(1.335,-7.15422696750272,0.9));
#1808=CARTESIAN_POINT('',(1.335,-1.27,0.9));
#1809=CARTESIAN_POINT('',(0.962,-1.27,0.154));
#1810=CARTESIAN_POINT('',(3.56,-7.3810172812219,1.27));
#1811=CARTESIAN_POINT('',(4.626,-1.27,-0.862));
#1812=CARTESIAN_POINT('',(3.745,-1.27,0.9));
#1813=CARTESIAN_POINT('',(3.745,-7.3810172812219,0.9));
#1814=CARTESIAN_POINT('',(-1.27,-7.15422696750272,-0.77));
#1815=CARTESIAN_POINT('',(1.52,-7.15422696750272,-1.27));
#1816=CARTESIAN_POINT('',(1.335,-7.15422696750272,-0.9));
#1817=CARTESIAN_POINT('',(1.335,-1.27,-0.9));
#1818=CARTESIAN_POINT('',(1.978,-1.27,-2.186));
#1819=CARTESIAN_POINT('',(3.81,-7.3810172812219,-0.77));
#1820=CARTESIAN_POINT('',(3.745,-7.3810172812219,-0.9));
#1821=CARTESIAN_POINT('',(3.745,-1.27,-0.9));
#1822=CARTESIAN_POINT('',(3.61,-1.27,-1.17));
#1823=CARTESIAN_POINT('',(-4.61422696750272,-1.27,0.9));
#1824=CARTESIAN_POINT('',(-4.61422696750272,-1.27,0.9));
#1825=CARTESIAN_POINT('',(-4.61422696750272,-1.27,0.9));
#1826=CARTESIAN_POINT('',(-4.61422696750272,-0.77,-0.9));
#1827=CARTESIAN_POINT('',(-4.61422696750272,-1.27,-0.9));
#1828=CARTESIAN_POINT('',(0.32,-7.15422696750272,-0.32));
#1829=CARTESIAN_POINT('',(0.32,-7.15422696750272,0.32));
#1830=CARTESIAN_POINT('',(0.32,-7.15422696750272,0.32));
#1831=CARTESIAN_POINT('',(3.81,-1.27,-1.27));
#1832=CARTESIAN_POINT('',(3.81,-1.27,-1.27));
#1833=CARTESIAN_POINT('',(0.32,-0.32,5.77));
#1834=CARTESIAN_POINT('',(0.12,-0.32,5.77));
#1835=CARTESIAN_POINT('',(0.12,-0.12,5.77));
#1836=CARTESIAN_POINT('',(0.12,0.12,5.77));
#1837=CARTESIAN_POINT('',(0.32,0.12,5.77));
#1838=CARTESIAN_POINT('',(-0.119999999999994,0.12,5.77));
#1839=CARTESIAN_POINT('',(-0.119999999999994,-0.32,5.77));
#1840=CARTESIAN_POINT('',(-0.119999999999994,-0.12,5.77));
#1841=CARTESIAN_POINT('',(0.32,-0.12,5.77));
#1842=CARTESIAN_POINT('',(0.,-0.32,5.57));
#1843=CARTESIAN_POINT('',(-0.213333333333329,-0.213333333333336,5.67666666666666));
#1844=CARTESIAN_POINT('',(-0.319999999999994,-0.32,5.57));
#1845=CARTESIAN_POINT('',(-0.319999999999994,-0.32,5.57));
#1846=CARTESIAN_POINT('',(0.32,-0.32,5.57));
#1847=CARTESIAN_POINT('',(0.186666666666665,-0.186666666666668,5.70333333333333));
#1848=CARTESIAN_POINT('',(0.,-0.32,0.));
#1849=CARTESIAN_POINT('',(-0.319999999999994,-0.32,5.77));
#1850=CARTESIAN_POINT('',(-0.319999999999995,-0.32,-5.57));
#1851=CARTESIAN_POINT('',(0.319999999999997,-0.32,-5.57));
#1852=CARTESIAN_POINT('',(0.32,-0.32,-5.57));
#1853=CARTESIAN_POINT('',(0.32,-0.32,-5.77));
#1854=CARTESIAN_POINT('',(-0.319999999999994,-0.32,5.77));
#1855=CARTESIAN_POINT('',(-0.319999999999994,0.32,5.77));
#1856=CARTESIAN_POINT('',(-0.319999999999994,0.32,5.57));
#1857=CARTESIAN_POINT('',(-0.319999999999995,0.32,-5.57));
#1858=CARTESIAN_POINT('',(-0.319999999999995,-0.32,-5.57));
#1859=CARTESIAN_POINT('',(-0.319999999999994,-0.32,5.57));
#1860=CARTESIAN_POINT('',(-0.319999999999994,-0.32,5.57));
#1861=CARTESIAN_POINT('',(-0.10666666666666,0.106666666666666,5.78333333333333));
#1862=CARTESIAN_POINT('',(0.32,0.12,5.77));
#1863=CARTESIAN_POINT('',(-0.0266666666666671,-0.0266666666666681,5.91666666666667));
#1864=CARTESIAN_POINT('',(0.32,0.32,5.57));
#1865=CARTESIAN_POINT('',(0.,0.32,5.57));
#1866=CARTESIAN_POINT('',(0.12,-0.32,5.77));
#1867=CARTESIAN_POINT('',(0.32,-0.32,5.57));
#1868=CARTESIAN_POINT('',(0.,0.32,0.));
#1869=CARTESIAN_POINT('',(0.32,0.32,-5.77));
#1870=CARTESIAN_POINT('',(0.32,0.32,-5.57));
#1871=CARTESIAN_POINT('',(4.52925457555824E-014,0.32,-5.57));
#1872=CARTESIAN_POINT('',(0.32,-0.32,-5.77));
#1873=CARTESIAN_POINT('',(0.32,-0.32,-5.57));
#1874=CARTESIAN_POINT('',(-0.319999999999995,-0.32,-5.77));
#1875=CARTESIAN_POINT('',(0.12,-0.32,-5.77));
#1876=CARTESIAN_POINT('',(0.12,0.12,-5.77));
#1877=CARTESIAN_POINT('',(0.12,-0.12,-5.77));
#1878=CARTESIAN_POINT('',(-0.319999999999995,-0.12,-5.77));
#1879=CARTESIAN_POINT('',(-0.119999999999993,-0.12,-5.77));
#1880=CARTESIAN_POINT('',(-0.119999999999993,-0.32,-5.77));
#1881=CARTESIAN_POINT('',(-0.119999999999993,0.12,-5.77));
#1882=CARTESIAN_POINT('',(-0.319999999999995,0.12,-5.77));
#1883=CARTESIAN_POINT('',(-0.319999999999995,0.12,-5.77));
#1884=CARTESIAN_POINT('',(0.106666666666667,0.106666666666666,-5.78333333333334));
#1885=CARTESIAN_POINT('',(-0.18666666666666,0.186666666666668,-5.70333333333334));
#1886=CARTESIAN_POINT('',(-0.119999999999993,-0.32,-5.77));
#1887=CARTESIAN_POINT('',(-0.18666666666666,-0.186666666666668,-5.70333333333334));
#1888=CARTESIAN_POINT('',(4.52925457555824E-014,-0.32,-5.57));
#1889=CARTESIAN_POINT('',(0.32,-0.32,-5.57));
#1890=CARTESIAN_POINT('',(0.32,-0.32,-5.57));
#1891=CARTESIAN_POINT('CARTESIAN_POINT4',(0.,0.,0.));
#1892=CARTESIAN_POINT('CARTESIAN_POINT8',(0.,0.,0.));
#1893=CARTESIAN_POINT('CARTESIAN_POINT14',(-2.54,1.50000002237646,-3.05659690352883E-023));
#1894=CARTESIAN_POINT('CARTESIAN_POINT18',(0.,0.,0.));
#1895=CARTESIAN_POINT('CARTESIAN_POINT24',(0.,1.50000002237646,-3.05659690352883E-023));
#1896=CARTESIAN_POINT('CARTESIAN_POINT28',(0.,0.,0.));
#1897=CARTESIAN_POINT('CARTESIAN_POINT34',(2.54,1.50000002237646,-3.05659690352883E-023));
#1898=CARTESIAN_POINT('CARTESIAN_POINT38',(0.,0.,0.));
#1899=PLANE('',#1263);
#1900=PLANE('',#1264);
#1901=PLANE('',#1265);
#1902=PLANE('',#1266);
#1903=PLANE('',#1267);
#1904=PLANE('',#1268);
#1905=PLANE('',#1269);
#1906=PLANE('',#1270);
#1907=PLANE('',#1271);
#1908=PLANE('',#1272);
#1909=PLANE('',#1273);
#1910=PLANE('',#1274);
#1911=PLANE('',#1275);
#1912=PLANE('',#1276);
#1913=PLANE('',#1277);
#1914=PLANE('',#1278);
#1915=PLANE('',#1279);
#1916=PLANE('',#1280);
#1917=PLANE('',#1281);
#1918=PLANE('',#1282);
#1919=PLANE('',#1283);
#1920=PLANE('',#1284);
#1921=PLANE('',#1285);
#1922=PLANE('',#1286);
#1923=PLANE('',#1287);
#1924=PLANE('',#1288);
#1925=PLANE('',#1289);
#1926=PLANE('',#1290);
#1927=PLANE('',#1291);
#1928=PLANE('',#1292);
#1929=PLANE('',#1293);
#1930=PLANE('',#1294);
#1931=PLANE('',#1295);
#1932=PLANE('',#1296);
#1933=PLANE('',#1297);
#1934=PLANE('',#1298);
#1935=PLANE('',#1299);
#1936=PLANE('',#1300);
#1937=PLANE('',#1301);
#1938=PLANE('',#1302);
#1939=PLANE('',#1303);
#1940=PLANE('',#1304);
#1941=PLANE('',#1305);
#1942=PLANE('',#1306);
#1943=PLANE('',#1307);
#1944=PLANE('',#1308);
#1945=PLANE('',#1309);
#1946=PLANE('',#1310);
#1947=PLANE('',#1311);
#1948=PLANE('',#1312);
#1949=PLANE('',#1313);
#1950=PLANE('',#1314);
#1951=PLANE('',#1315);
#1952=PLANE('',#1316);
#1953=PLANE('',#1317);
#1954=PLANE('',#1318);
#1955=PLANE('',#1319);
#1956=PLANE('',#1320);
#1957=PLANE('',#1321);
#1958=PLANE('',#1322);
#1959=CLOSED_SHELL('',(#1203,#1204,#1205,#1206,#1207,#1208,#1209,#1210,#1211,
#1212,#1213,#1214,#1215,#1216,#1217,#1218,#1219,#1220,#1221,#1222,#1223,
#1224,#1225,#1226,#1227,#1228,#1229,#1230,#1231,#1232,#1233,#1234,#1235,
#1236,#1237,#1238,#1239,#1240,#1241,#1242,#1243,#1244,#1245,#1246,#1247,
#1248));
#1960=CLOSED_SHELL('',(#1249,#1250,#1251,#1252,#1253,#1254,#1255,#1256,#1257,
#1258,#1259,#1260,#1261,#1262));
#1961=MANIFOLD_SOLID_BREP('',#1959);
#1962=MANIFOLD_SOLID_BREP('',#1960);
#1963=ADVANCED_BREP_SHAPE_REPRESENTATION('61300311121',(#1961),#164);
#1964=ADVANCED_BREP_SHAPE_REPRESENTATION('6130xx11121_PIN',(#1962),#165);
ENDSEC;
END-ISO-10303-21;
