ISO-10303-21;
HEADER;
/* Generated by software containing ST-Developer
 * from STEP Tools, Inc. (www.steptools.com) 
 */

FILE_DESCRIPTION(
/* description */ ('Alibre Inc.'),
/* implementation_level */ '2;1');

FILE_NAME(
/* name */ 'export0',
/* time_stamp */ '2009-09-23T09:56:57-07:00',
/* author */ (''),
/* organization */ (''),
/* preprocessor_version */ 'ST-DEVELOPER v10',
/* originating_system */ 'Alibre',
/* authorisation */ '');

FILE_SCHEMA (('AUTOMOTIVE_DESIGN'));
ENDSEC;

DATA;
#10=COLOUR_RGB('',0.686274509803922,0.686274509803922,0.686274509803922);
#11=FILL_AREA_STYLE_COLOUR('NAME_0',#10);
#12=FILL_AREA_STYLE('NAME_0',(#11));
#13=SURFACE_STYLE_FILL_AREA(#12);
#14=SURFACE_SIDE_STYLE('NAME_0',(#13));
#15=SURFACE_STYLE_USAGE(.POSITIVE.,#14);
#16=PRESENTATION_STYLE_ASSIGNMENT((#15));
#17=STYLED_ITEM('NAME_0',(#16),#1124);
#18=MECHANICAL_DESIGN_GEOMETRIC_PRESENTATION_REPRESENTATION('NAME_0',(#17),
#33);
#19=PRODUCT_DEFINITION_CONTEXT('part definition',#26,'design');
#20=SHAPE_DEFINITION_REPRESENTATION(#21,#1125);
#21=PRODUCT_DEFINITION_SHAPE('PRODUCT_VERSION_ID',
'PRODUCT_VERSION_DESCR',#22);
#22=PRODUCT_DEFINITION('PRODUCT_VERSION_ID','PRODUCT_VERSION_DESCR',#23,
#19);
#23=PRODUCT_DEFINITION_FORMATION_WITH_SPECIFIED_SOURCE(
'PRODUCT_VERSION_ID','PRODUCT_VERSION_DESCR',#28,.MADE.);
#24=PRODUCT_RELATED_PRODUCT_CATEGORY('part','part',(#28));
#25=APPLICATION_PROTOCOL_DEFINITION('Draft International Standard',
'automotive_design',1994,#26);
#26=APPLICATION_CONTEXT('automotive_Design');
#27=PRODUCT_CONTEXT('3D Mechanical Parts',#26,'mechanical');
#28=PRODUCT('','Johnson_108-0740-001','',(#27));
#29=(
LENGTH_UNIT()
NAMED_UNIT(*)
SI_UNIT(.CENTI.,.METRE.)
);
#30=(
NAMED_UNIT(*)
PLANE_ANGLE_UNIT()
SI_UNIT($,.RADIAN.)
);
#31=(
NAMED_UNIT(*)
SI_UNIT($,.STERADIAN.)
SOLID_ANGLE_UNIT()
);
#32=UNCERTAINTY_MEASURE_WITH_UNIT(LENGTH_MEASURE(1.E-006),#29,
'DISTANCE_ACCURACY_VALUE',
'Maximum model space distance between geometric entities at asserted co
nnectivities');
#33=(
GEOMETRIC_REPRESENTATION_CONTEXT(3)
GLOBAL_UNCERTAINTY_ASSIGNED_CONTEXT((#32))
GLOBAL_UNIT_ASSIGNED_CONTEXT((#31,#30,#29))
REPRESENTATION_CONTEXT('ID1','3D')
);
#34=VECTOR('',#782,1.);
#35=VECTOR('',#783,1.);
#36=VECTOR('',#784,1.);
#37=VECTOR('',#785,1.);
#38=VECTOR('',#786,1.);
#39=VECTOR('',#787,1.);
#40=VECTOR('',#791,1.);
#41=VECTOR('',#792,1.);
#42=VECTOR('',#793,1.);
#43=VECTOR('',#794,1.);
#44=VECTOR('',#795,1.);
#45=VECTOR('',#796,1.);
#46=VECTOR('',#800,1.);
#47=VECTOR('',#801,1.);
#48=VECTOR('',#803,1.);
#49=VECTOR('',#805,1.);
#50=VECTOR('',#807,1.);
#51=VECTOR('',#809,1.);
#52=VECTOR('',#921,1.);
#53=VECTOR('',#922,1.);
#54=VECTOR('',#923,1.);
#55=VECTOR('',#924,1.);
#56=VECTOR('',#926,1.);
#57=VECTOR('',#927,1.);
#58=VECTOR('',#928,1.);
#59=VECTOR('',#930,1.);
#60=VECTOR('',#931,1.);
#61=VECTOR('',#932,1.);
#62=VECTOR('',#934,1.);
#63=VECTOR('',#935,1.);
#64=VECTOR('',#936,1.);
#65=VECTOR('',#938,1.);
#66=VECTOR('',#939,1.);
#67=VECTOR('',#940,1.);
#68=VECTOR('',#942,1.);
#69=VECTOR('',#943,1.);
#70=LINE('',#955,#34);
#71=LINE('',#958,#35);
#72=LINE('',#960,#36);
#73=LINE('',#962,#37);
#74=LINE('',#964,#38);
#75=LINE('',#966,#39);
#76=LINE('',#970,#40);
#77=LINE('',#973,#41);
#78=LINE('',#975,#42);
#79=LINE('',#977,#43);
#80=LINE('',#979,#44);
#81=LINE('',#981,#45);
#82=LINE('',#985,#46);
#83=LINE('',#986,#47);
#84=LINE('',#988,#48);
#85=LINE('',#990,#49);
#86=LINE('',#992,#50);
#87=LINE('',#994,#51);
#88=LINE('',#1084,#52);
#89=LINE('',#1087,#53);
#90=LINE('',#1089,#54);
#91=LINE('',#1091,#55);
#92=LINE('',#1093,#56);
#93=LINE('',#1095,#57);
#94=LINE('',#1097,#58);
#95=LINE('',#1099,#59);
#96=LINE('',#1101,#60);
#97=LINE('',#1103,#61);
#98=LINE('',#1105,#62);
#99=LINE('',#1107,#63);
#100=LINE('',#1109,#64);
#101=LINE('',#1111,#65);
#102=LINE('',#1113,#66);
#103=LINE('',#1115,#67);
#104=LINE('',#1117,#68);
#105=LINE('',#1118,#69);
#106=PLANE('',#698);
#107=PLANE('',#700);
#108=PLANE('',#702);
#109=PLANE('',#703);
#110=PLANE('',#704);
#111=PLANE('',#705);
#112=PLANE('',#706);
#113=PLANE('',#707);
#114=PLANE('',#762);
#115=PLANE('',#763);
#116=PLANE('',#764);
#117=PLANE('',#765);
#118=PLANE('',#766);
#119=PLANE('',#767);
#120=PLANE('',#768);
#121=PLANE('',#769);
#122=PLANE('',#770);
#123=CONICAL_SURFACE('',#696,0.254,0.567232006898157);
#124=CONICAL_SURFACE('',#708,0.288379562042634,1.0471975511966);
#125=CONICAL_SURFACE('',#711,0.288379562042634,1.0471975511966);
#126=CONICAL_SURFACE('',#712,0.288379562042634,1.0471975511966);
#127=CONICAL_SURFACE('',#716,0.288379562042634,1.0471975511966);
#128=CONICAL_SURFACE('',#718,0.288379562042634,1.0471975511966);
#129=CONICAL_SURFACE('',#721,0.288379562042634,1.0471975511966);
#130=CONICAL_SURFACE('',#723,0.288379562042634,1.0471975511966);
#131=CONICAL_SURFACE('',#726,0.288379562042634,1.0471975511966);
#132=CONICAL_SURFACE('',#728,0.288379562042634,1.0471975511966);
#133=CONICAL_SURFACE('',#731,0.288379562042634,1.0471975511966);
#134=CONICAL_SURFACE('',#733,0.288379562042634,1.0471975511966);
#135=CONICAL_SURFACE('',#736,0.288379562042634,1.0471975511966);
#136=CONICAL_SURFACE('',#738,0.288379562042634,1.0471975511966);
#137=CONICAL_SURFACE('',#741,0.288379562042634,1.0471975511966);
#138=CONICAL_SURFACE('',#743,0.288379562042634,1.0471975511966);
#139=CONICAL_SURFACE('',#746,0.288379562042634,1.0471975511966);
#140=CONICAL_SURFACE('',#748,0.288379562042634,1.0471975511966);
#141=CONICAL_SURFACE('',#751,0.288379562042634,1.0471975511966);
#142=CONICAL_SURFACE('',#753,0.288379562042634,1.0471975511966);
#143=CONICAL_SURFACE('',#756,0.288379562042634,1.0471975511966);
#144=CONICAL_SURFACE('',#758,0.288379562042634,1.0471975511966);
#145=VERTEX_POINT('',#948);
#146=VERTEX_POINT('',#950);
#147=VERTEX_POINT('',#953);
#148=VERTEX_POINT('',#956);
#149=VERTEX_POINT('',#957);
#150=VERTEX_POINT('',#959);
#151=VERTEX_POINT('',#961);
#152=VERTEX_POINT('',#963);
#153=VERTEX_POINT('',#965);
#154=VERTEX_POINT('',#968);
#155=VERTEX_POINT('',#971);
#156=VERTEX_POINT('',#972);
#157=VERTEX_POINT('',#974);
#158=VERTEX_POINT('',#976);
#159=VERTEX_POINT('',#978);
#160=VERTEX_POINT('',#980);
#161=VERTEX_POINT('',#983);
#162=VERTEX_POINT('',#998);
#163=VERTEX_POINT('',#1000);
#164=VERTEX_POINT('',#1004);
#165=VERTEX_POINT('',#1007);
#166=VERTEX_POINT('',#1010);
#167=VERTEX_POINT('',#1013);
#168=VERTEX_POINT('',#1015);
#169=VERTEX_POINT('',#1018);
#170=VERTEX_POINT('',#1021);
#171=VERTEX_POINT('',#1023);
#172=VERTEX_POINT('',#1026);
#173=VERTEX_POINT('',#1029);
#174=VERTEX_POINT('',#1031);
#175=VERTEX_POINT('',#1034);
#176=VERTEX_POINT('',#1037);
#177=VERTEX_POINT('',#1039);
#178=VERTEX_POINT('',#1042);
#179=VERTEX_POINT('',#1045);
#180=VERTEX_POINT('',#1047);
#181=VERTEX_POINT('',#1050);
#182=VERTEX_POINT('',#1053);
#183=VERTEX_POINT('',#1055);
#184=VERTEX_POINT('',#1058);
#185=VERTEX_POINT('',#1061);
#186=VERTEX_POINT('',#1063);
#187=VERTEX_POINT('',#1066);
#188=VERTEX_POINT('',#1069);
#189=VERTEX_POINT('',#1071);
#190=VERTEX_POINT('',#1074);
#191=VERTEX_POINT('',#1077);
#192=VERTEX_POINT('',#1079);
#193=VERTEX_POINT('',#1081);
#194=VERTEX_POINT('',#1085);
#195=VERTEX_POINT('',#1086);
#196=VERTEX_POINT('',#1088);
#197=VERTEX_POINT('',#1090);
#198=VERTEX_POINT('',#1094);
#199=VERTEX_POINT('',#1096);
#200=VERTEX_POINT('',#1100);
#201=VERTEX_POINT('',#1102);
#202=VERTEX_POINT('',#1106);
#203=VERTEX_POINT('',#1108);
#204=VERTEX_POINT('',#1112);
#205=VERTEX_POINT('',#1114);
#206=CIRCLE('',#694,0.20701);
#207=CIRCLE('',#695,0.20701);
#208=CIRCLE('',#697,0.254);
#209=CIRCLE('',#699,0.260658570366081);
#210=CIRCLE('',#701,0.318479375039323);
#211=CIRCLE('',#709,0.32258);
#212=CIRCLE('',#710,0.249099124085269);
#213=CIRCLE('',#713,0.32258);
#214=CIRCLE('',#715,0.32258);
#215=CIRCLE('',#717,0.249099124085269);
#216=CIRCLE('',#719,0.32258);
#217=CIRCLE('',#720,0.32258);
#218=CIRCLE('',#722,0.249099124085269);
#219=CIRCLE('',#724,0.32258);
#220=CIRCLE('',#725,0.32258);
#221=CIRCLE('',#727,0.249099124085269);
#222=CIRCLE('',#729,0.32258);
#223=CIRCLE('',#730,0.32258);
#224=CIRCLE('',#732,0.249099124085269);
#225=CIRCLE('',#734,0.32258);
#226=CIRCLE('',#735,0.32258);
#227=CIRCLE('',#737,0.249099124085269);
#228=CIRCLE('',#739,0.32258);
#229=CIRCLE('',#740,0.32258);
#230=CIRCLE('',#742,0.249099124085269);
#231=CIRCLE('',#744,0.32258);
#232=CIRCLE('',#745,0.32258);
#233=CIRCLE('',#747,0.249099124085269);
#234=CIRCLE('',#749,0.32258);
#235=CIRCLE('',#750,0.32258);
#236=CIRCLE('',#752,0.249099124085269);
#237=CIRCLE('',#754,0.32258);
#238=CIRCLE('',#755,0.32258);
#239=CIRCLE('',#757,0.249099124085269);
#240=CIRCLE('',#759,0.32258);
#241=CIRCLE('',#760,0.32258);
#242=CIRCLE('',#761,0.32258);
#243=EDGE_CURVE('',#145,#145,#206,.T.);
#244=EDGE_CURVE('',#146,#146,#207,.T.);
#245=EDGE_CURVE('',#147,#147,#208,.T.);
#246=EDGE_CURVE('',#148,#149,#70,.T.);
#247=EDGE_CURVE('',#150,#148,#71,.T.);
#248=EDGE_CURVE('',#151,#150,#72,.T.);
#249=EDGE_CURVE('',#152,#151,#73,.T.);
#250=EDGE_CURVE('',#153,#152,#74,.T.);
#251=EDGE_CURVE('',#149,#153,#75,.T.);
#252=EDGE_CURVE('',#154,#154,#209,.T.);
#253=EDGE_CURVE('',#155,#156,#76,.T.);
#254=EDGE_CURVE('',#156,#157,#77,.T.);
#255=EDGE_CURVE('',#157,#158,#78,.T.);
#256=EDGE_CURVE('',#158,#159,#79,.T.);
#257=EDGE_CURVE('',#159,#160,#80,.T.);
#258=EDGE_CURVE('',#160,#155,#81,.T.);
#259=EDGE_CURVE('',#161,#161,#210,.T.);
#260=EDGE_CURVE('',#157,#149,#82,.T.);
#261=EDGE_CURVE('',#156,#148,#83,.T.);
#262=EDGE_CURVE('',#158,#153,#84,.T.);
#263=EDGE_CURVE('',#159,#152,#85,.T.);
#264=EDGE_CURVE('',#160,#151,#86,.T.);
#265=EDGE_CURVE('',#155,#150,#87,.T.);
#266=EDGE_CURVE('',#162,#162,#211,.T.);
#267=EDGE_CURVE('',#163,#163,#212,.T.);
#268=EDGE_CURVE('',#164,#164,#213,.T.);
#269=EDGE_CURVE('',#165,#165,#214,.T.);
#270=EDGE_CURVE('',#166,#166,#215,.T.);
#271=EDGE_CURVE('',#167,#167,#216,.T.);
#272=EDGE_CURVE('',#168,#168,#217,.T.);
#273=EDGE_CURVE('',#169,#169,#218,.T.);
#274=EDGE_CURVE('',#170,#170,#219,.T.);
#275=EDGE_CURVE('',#171,#171,#220,.T.);
#276=EDGE_CURVE('',#172,#172,#221,.T.);
#277=EDGE_CURVE('',#173,#173,#222,.T.);
#278=EDGE_CURVE('',#174,#174,#223,.T.);
#279=EDGE_CURVE('',#175,#175,#224,.T.);
#280=EDGE_CURVE('',#176,#176,#225,.T.);
#281=EDGE_CURVE('',#177,#177,#226,.T.);
#282=EDGE_CURVE('',#178,#178,#227,.T.);
#283=EDGE_CURVE('',#179,#179,#228,.T.);
#284=EDGE_CURVE('',#180,#180,#229,.T.);
#285=EDGE_CURVE('',#181,#181,#230,.T.);
#286=EDGE_CURVE('',#182,#182,#231,.T.);
#287=EDGE_CURVE('',#183,#183,#232,.T.);
#288=EDGE_CURVE('',#184,#184,#233,.T.);
#289=EDGE_CURVE('',#185,#185,#234,.T.);
#290=EDGE_CURVE('',#186,#186,#235,.T.);
#291=EDGE_CURVE('',#187,#187,#236,.T.);
#292=EDGE_CURVE('',#188,#188,#237,.T.);
#293=EDGE_CURVE('',#189,#189,#238,.T.);
#294=EDGE_CURVE('',#190,#190,#239,.T.);
#295=EDGE_CURVE('',#191,#191,#240,.T.);
#296=EDGE_CURVE('',#192,#192,#241,.T.);
#297=EDGE_CURVE('',#193,#193,#242,.T.);
#298=EDGE_CURVE('',#194,#195,#88,.T.);
#299=EDGE_CURVE('',#196,#195,#89,.T.);
#300=EDGE_CURVE('',#196,#197,#90,.T.);
#301=EDGE_CURVE('',#197,#194,#91,.T.);
#302=EDGE_CURVE('',#195,#198,#92,.T.);
#303=EDGE_CURVE('',#199,#198,#93,.T.);
#304=EDGE_CURVE('',#199,#196,#94,.T.);
#305=EDGE_CURVE('',#198,#200,#95,.T.);
#306=EDGE_CURVE('',#201,#200,#96,.T.);
#307=EDGE_CURVE('',#201,#199,#97,.T.);
#308=EDGE_CURVE('',#200,#202,#98,.T.);
#309=EDGE_CURVE('',#203,#202,#99,.T.);
#310=EDGE_CURVE('',#203,#201,#100,.T.);
#311=EDGE_CURVE('',#202,#204,#101,.T.);
#312=EDGE_CURVE('',#205,#204,#102,.T.);
#313=EDGE_CURVE('',#205,#203,#103,.T.);
#314=EDGE_CURVE('',#204,#194,#104,.T.);
#315=EDGE_CURVE('',#197,#205,#105,.T.);
#316=ORIENTED_EDGE('',*,*,#243,.F.);
#317=ORIENTED_EDGE('',*,*,#244,.T.);
#318=ORIENTED_EDGE('',*,*,#244,.F.);
#319=ORIENTED_EDGE('',*,*,#245,.F.);
#320=ORIENTED_EDGE('',*,*,#246,.F.);
#321=ORIENTED_EDGE('',*,*,#247,.F.);
#322=ORIENTED_EDGE('',*,*,#248,.F.);
#323=ORIENTED_EDGE('',*,*,#249,.F.);
#324=ORIENTED_EDGE('',*,*,#250,.F.);
#325=ORIENTED_EDGE('',*,*,#251,.F.);
#326=ORIENTED_EDGE('',*,*,#252,.F.);
#327=ORIENTED_EDGE('',*,*,#253,.T.);
#328=ORIENTED_EDGE('',*,*,#254,.T.);
#329=ORIENTED_EDGE('',*,*,#255,.T.);
#330=ORIENTED_EDGE('',*,*,#256,.T.);
#331=ORIENTED_EDGE('',*,*,#257,.T.);
#332=ORIENTED_EDGE('',*,*,#258,.T.);
#333=ORIENTED_EDGE('',*,*,#259,.F.);
#334=ORIENTED_EDGE('',*,*,#246,.T.);
#335=ORIENTED_EDGE('',*,*,#260,.F.);
#336=ORIENTED_EDGE('',*,*,#254,.F.);
#337=ORIENTED_EDGE('',*,*,#261,.T.);
#338=ORIENTED_EDGE('',*,*,#251,.T.);
#339=ORIENTED_EDGE('',*,*,#262,.F.);
#340=ORIENTED_EDGE('',*,*,#255,.F.);
#341=ORIENTED_EDGE('',*,*,#260,.T.);
#342=ORIENTED_EDGE('',*,*,#250,.T.);
#343=ORIENTED_EDGE('',*,*,#263,.F.);
#344=ORIENTED_EDGE('',*,*,#256,.F.);
#345=ORIENTED_EDGE('',*,*,#262,.T.);
#346=ORIENTED_EDGE('',*,*,#249,.T.);
#347=ORIENTED_EDGE('',*,*,#264,.F.);
#348=ORIENTED_EDGE('',*,*,#257,.F.);
#349=ORIENTED_EDGE('',*,*,#263,.T.);
#350=ORIENTED_EDGE('',*,*,#248,.T.);
#351=ORIENTED_EDGE('',*,*,#265,.F.);
#352=ORIENTED_EDGE('',*,*,#258,.F.);
#353=ORIENTED_EDGE('',*,*,#264,.T.);
#354=ORIENTED_EDGE('',*,*,#247,.T.);
#355=ORIENTED_EDGE('',*,*,#261,.F.);
#356=ORIENTED_EDGE('',*,*,#253,.F.);
#357=ORIENTED_EDGE('',*,*,#265,.T.);
#358=ORIENTED_EDGE('',*,*,#266,.F.);
#359=ORIENTED_EDGE('',*,*,#267,.T.);
#360=ORIENTED_EDGE('',*,*,#259,.T.);
#361=ORIENTED_EDGE('',*,*,#267,.F.);
#362=ORIENTED_EDGE('',*,*,#252,.T.);
#363=ORIENTED_EDGE('',*,*,#268,.F.);
#364=ORIENTED_EDGE('',*,*,#268,.T.);
#365=ORIENTED_EDGE('',*,*,#269,.T.);
#366=ORIENTED_EDGE('',*,*,#269,.F.);
#367=ORIENTED_EDGE('',*,*,#270,.T.);
#368=ORIENTED_EDGE('',*,*,#271,.F.);
#369=ORIENTED_EDGE('',*,*,#270,.F.);
#370=ORIENTED_EDGE('',*,*,#271,.T.);
#371=ORIENTED_EDGE('',*,*,#272,.T.);
#372=ORIENTED_EDGE('',*,*,#272,.F.);
#373=ORIENTED_EDGE('',*,*,#273,.T.);
#374=ORIENTED_EDGE('',*,*,#274,.F.);
#375=ORIENTED_EDGE('',*,*,#273,.F.);
#376=ORIENTED_EDGE('',*,*,#274,.T.);
#377=ORIENTED_EDGE('',*,*,#275,.T.);
#378=ORIENTED_EDGE('',*,*,#275,.F.);
#379=ORIENTED_EDGE('',*,*,#276,.T.);
#380=ORIENTED_EDGE('',*,*,#277,.F.);
#381=ORIENTED_EDGE('',*,*,#276,.F.);
#382=ORIENTED_EDGE('',*,*,#277,.T.);
#383=ORIENTED_EDGE('',*,*,#278,.T.);
#384=ORIENTED_EDGE('',*,*,#278,.F.);
#385=ORIENTED_EDGE('',*,*,#279,.T.);
#386=ORIENTED_EDGE('',*,*,#280,.F.);
#387=ORIENTED_EDGE('',*,*,#279,.F.);
#388=ORIENTED_EDGE('',*,*,#280,.T.);
#389=ORIENTED_EDGE('',*,*,#281,.T.);
#390=ORIENTED_EDGE('',*,*,#281,.F.);
#391=ORIENTED_EDGE('',*,*,#282,.T.);
#392=ORIENTED_EDGE('',*,*,#283,.F.);
#393=ORIENTED_EDGE('',*,*,#282,.F.);
#394=ORIENTED_EDGE('',*,*,#283,.T.);
#395=ORIENTED_EDGE('',*,*,#284,.T.);
#396=ORIENTED_EDGE('',*,*,#284,.F.);
#397=ORIENTED_EDGE('',*,*,#285,.T.);
#398=ORIENTED_EDGE('',*,*,#286,.F.);
#399=ORIENTED_EDGE('',*,*,#285,.F.);
#400=ORIENTED_EDGE('',*,*,#286,.T.);
#401=ORIENTED_EDGE('',*,*,#287,.T.);
#402=ORIENTED_EDGE('',*,*,#287,.F.);
#403=ORIENTED_EDGE('',*,*,#288,.T.);
#404=ORIENTED_EDGE('',*,*,#289,.F.);
#405=ORIENTED_EDGE('',*,*,#288,.F.);
#406=ORIENTED_EDGE('',*,*,#289,.T.);
#407=ORIENTED_EDGE('',*,*,#290,.T.);
#408=ORIENTED_EDGE('',*,*,#290,.F.);
#409=ORIENTED_EDGE('',*,*,#291,.T.);
#410=ORIENTED_EDGE('',*,*,#292,.F.);
#411=ORIENTED_EDGE('',*,*,#291,.F.);
#412=ORIENTED_EDGE('',*,*,#292,.T.);
#413=ORIENTED_EDGE('',*,*,#293,.T.);
#414=ORIENTED_EDGE('',*,*,#293,.F.);
#415=ORIENTED_EDGE('',*,*,#294,.T.);
#416=ORIENTED_EDGE('',*,*,#295,.F.);
#417=ORIENTED_EDGE('',*,*,#294,.F.);
#418=ORIENTED_EDGE('',*,*,#295,.T.);
#419=ORIENTED_EDGE('',*,*,#296,.T.);
#420=ORIENTED_EDGE('',*,*,#266,.T.);
#421=ORIENTED_EDGE('',*,*,#297,.F.);
#422=ORIENTED_EDGE('',*,*,#243,.T.);
#423=ORIENTED_EDGE('',*,*,#296,.F.);
#424=ORIENTED_EDGE('',*,*,#298,.T.);
#425=ORIENTED_EDGE('',*,*,#299,.F.);
#426=ORIENTED_EDGE('',*,*,#300,.T.);
#427=ORIENTED_EDGE('',*,*,#301,.T.);
#428=ORIENTED_EDGE('',*,*,#302,.T.);
#429=ORIENTED_EDGE('',*,*,#303,.F.);
#430=ORIENTED_EDGE('',*,*,#304,.T.);
#431=ORIENTED_EDGE('',*,*,#299,.T.);
#432=ORIENTED_EDGE('',*,*,#305,.T.);
#433=ORIENTED_EDGE('',*,*,#306,.F.);
#434=ORIENTED_EDGE('',*,*,#307,.T.);
#435=ORIENTED_EDGE('',*,*,#303,.T.);
#436=ORIENTED_EDGE('',*,*,#308,.T.);
#437=ORIENTED_EDGE('',*,*,#309,.F.);
#438=ORIENTED_EDGE('',*,*,#310,.T.);
#439=ORIENTED_EDGE('',*,*,#306,.T.);
#440=ORIENTED_EDGE('',*,*,#311,.T.);
#441=ORIENTED_EDGE('',*,*,#312,.F.);
#442=ORIENTED_EDGE('',*,*,#313,.T.);
#443=ORIENTED_EDGE('',*,*,#309,.T.);
#444=ORIENTED_EDGE('',*,*,#314,.T.);
#445=ORIENTED_EDGE('',*,*,#301,.F.);
#446=ORIENTED_EDGE('',*,*,#315,.T.);
#447=ORIENTED_EDGE('',*,*,#312,.T.);
#448=ORIENTED_EDGE('',*,*,#245,.T.);
#449=ORIENTED_EDGE('',*,*,#298,.F.);
#450=ORIENTED_EDGE('',*,*,#314,.F.);
#451=ORIENTED_EDGE('',*,*,#311,.F.);
#452=ORIENTED_EDGE('',*,*,#308,.F.);
#453=ORIENTED_EDGE('',*,*,#305,.F.);
#454=ORIENTED_EDGE('',*,*,#302,.F.);
#455=ORIENTED_EDGE('',*,*,#297,.T.);
#456=ORIENTED_EDGE('',*,*,#315,.F.);
#457=ORIENTED_EDGE('',*,*,#300,.F.);
#458=ORIENTED_EDGE('',*,*,#304,.F.);
#459=ORIENTED_EDGE('',*,*,#307,.F.);
#460=ORIENTED_EDGE('',*,*,#310,.F.);
#461=ORIENTED_EDGE('',*,*,#313,.F.);
#462=EDGE_LOOP('',(#316));
#463=EDGE_LOOP('',(#317));
#464=EDGE_LOOP('',(#318));
#465=EDGE_LOOP('',(#319));
#466=EDGE_LOOP('',(#320,#321,#322,#323,#324,#325));
#467=EDGE_LOOP('',(#326));
#468=EDGE_LOOP('',(#327,#328,#329,#330,#331,#332));
#469=EDGE_LOOP('',(#333));
#470=EDGE_LOOP('',(#334,#335,#336,#337));
#471=EDGE_LOOP('',(#338,#339,#340,#341));
#472=EDGE_LOOP('',(#342,#343,#344,#345));
#473=EDGE_LOOP('',(#346,#347,#348,#349));
#474=EDGE_LOOP('',(#350,#351,#352,#353));
#475=EDGE_LOOP('',(#354,#355,#356,#357));
#476=EDGE_LOOP('',(#358));
#477=EDGE_LOOP('',(#359));
#478=EDGE_LOOP('',(#360));
#479=EDGE_LOOP('',(#361));
#480=EDGE_LOOP('',(#362));
#481=EDGE_LOOP('',(#363));
#482=EDGE_LOOP('',(#364));
#483=EDGE_LOOP('',(#365));
#484=EDGE_LOOP('',(#366));
#485=EDGE_LOOP('',(#367));
#486=EDGE_LOOP('',(#368));
#487=EDGE_LOOP('',(#369));
#488=EDGE_LOOP('',(#370));
#489=EDGE_LOOP('',(#371));
#490=EDGE_LOOP('',(#372));
#491=EDGE_LOOP('',(#373));
#492=EDGE_LOOP('',(#374));
#493=EDGE_LOOP('',(#375));
#494=EDGE_LOOP('',(#376));
#495=EDGE_LOOP('',(#377));
#496=EDGE_LOOP('',(#378));
#497=EDGE_LOOP('',(#379));
#498=EDGE_LOOP('',(#380));
#499=EDGE_LOOP('',(#381));
#500=EDGE_LOOP('',(#382));
#501=EDGE_LOOP('',(#383));
#502=EDGE_LOOP('',(#384));
#503=EDGE_LOOP('',(#385));
#504=EDGE_LOOP('',(#386));
#505=EDGE_LOOP('',(#387));
#506=EDGE_LOOP('',(#388));
#507=EDGE_LOOP('',(#389));
#508=EDGE_LOOP('',(#390));
#509=EDGE_LOOP('',(#391));
#510=EDGE_LOOP('',(#392));
#511=EDGE_LOOP('',(#393));
#512=EDGE_LOOP('',(#394));
#513=EDGE_LOOP('',(#395));
#514=EDGE_LOOP('',(#396));
#515=EDGE_LOOP('',(#397));
#516=EDGE_LOOP('',(#398));
#517=EDGE_LOOP('',(#399));
#518=EDGE_LOOP('',(#400));
#519=EDGE_LOOP('',(#401));
#520=EDGE_LOOP('',(#402));
#521=EDGE_LOOP('',(#403));
#522=EDGE_LOOP('',(#404));
#523=EDGE_LOOP('',(#405));
#524=EDGE_LOOP('',(#406));
#525=EDGE_LOOP('',(#407));
#526=EDGE_LOOP('',(#408));
#527=EDGE_LOOP('',(#409));
#528=EDGE_LOOP('',(#410));
#529=EDGE_LOOP('',(#411));
#530=EDGE_LOOP('',(#412));
#531=EDGE_LOOP('',(#413));
#532=EDGE_LOOP('',(#414));
#533=EDGE_LOOP('',(#415));
#534=EDGE_LOOP('',(#416));
#535=EDGE_LOOP('',(#417));
#536=EDGE_LOOP('',(#418));
#537=EDGE_LOOP('',(#419));
#538=EDGE_LOOP('',(#420));
#539=EDGE_LOOP('',(#421));
#540=EDGE_LOOP('',(#422));
#541=EDGE_LOOP('',(#423));
#542=EDGE_LOOP('',(#424,#425,#426,#427));
#543=EDGE_LOOP('',(#428,#429,#430,#431));
#544=EDGE_LOOP('',(#432,#433,#434,#435));
#545=EDGE_LOOP('',(#436,#437,#438,#439));
#546=EDGE_LOOP('',(#440,#441,#442,#443));
#547=EDGE_LOOP('',(#444,#445,#446,#447));
#548=EDGE_LOOP('',(#448));
#549=EDGE_LOOP('',(#449,#450,#451,#452,#453,#454));
#550=EDGE_LOOP('',(#455));
#551=EDGE_LOOP('',(#456,#457,#458,#459,#460,#461));
#552=FACE_BOUND('',#462,.T.);
#553=FACE_BOUND('',#463,.T.);
#554=FACE_BOUND('',#464,.T.);
#555=FACE_BOUND('',#465,.T.);
#556=FACE_BOUND('',#466,.T.);
#557=FACE_BOUND('',#467,.T.);
#558=FACE_BOUND('',#468,.T.);
#559=FACE_BOUND('',#469,.T.);
#560=FACE_BOUND('',#470,.T.);
#561=FACE_BOUND('',#471,.T.);
#562=FACE_BOUND('',#472,.T.);
#563=FACE_BOUND('',#473,.T.);
#564=FACE_BOUND('',#474,.T.);
#565=FACE_BOUND('',#475,.T.);
#566=FACE_BOUND('',#476,.T.);
#567=FACE_BOUND('',#477,.T.);
#568=FACE_BOUND('',#478,.T.);
#569=FACE_BOUND('',#479,.T.);
#570=FACE_BOUND('',#480,.T.);
#571=FACE_BOUND('',#481,.T.);
#572=FACE_BOUND('',#482,.T.);
#573=FACE_BOUND('',#483,.T.);
#574=FACE_BOUND('',#484,.T.);
#575=FACE_BOUND('',#485,.T.);
#576=FACE_BOUND('',#486,.T.);
#577=FACE_BOUND('',#487,.T.);
#578=FACE_BOUND('',#488,.T.);
#579=FACE_BOUND('',#489,.T.);
#580=FACE_BOUND('',#490,.T.);
#581=FACE_BOUND('',#491,.T.);
#582=FACE_BOUND('',#492,.T.);
#583=FACE_BOUND('',#493,.T.);
#584=FACE_BOUND('',#494,.T.);
#585=FACE_BOUND('',#495,.T.);
#586=FACE_BOUND('',#496,.T.);
#587=FACE_BOUND('',#497,.T.);
#588=FACE_BOUND('',#498,.T.);
#589=FACE_BOUND('',#499,.T.);
#590=FACE_BOUND('',#500,.T.);
#591=FACE_BOUND('',#501,.T.);
#592=FACE_BOUND('',#502,.T.);
#593=FACE_BOUND('',#503,.T.);
#594=FACE_BOUND('',#504,.T.);
#595=FACE_BOUND('',#505,.T.);
#596=FACE_BOUND('',#506,.T.);
#597=FACE_BOUND('',#507,.T.);
#598=FACE_BOUND('',#508,.T.);
#599=FACE_BOUND('',#509,.T.);
#600=FACE_BOUND('',#510,.T.);
#601=FACE_BOUND('',#511,.T.);
#602=FACE_BOUND('',#512,.T.);
#603=FACE_BOUND('',#513,.T.);
#604=FACE_BOUND('',#514,.T.);
#605=FACE_BOUND('',#515,.T.);
#606=FACE_BOUND('',#516,.T.);
#607=FACE_BOUND('',#517,.T.);
#608=FACE_BOUND('',#518,.T.);
#609=FACE_BOUND('',#519,.T.);
#610=FACE_BOUND('',#520,.T.);
#611=FACE_BOUND('',#521,.T.);
#612=FACE_BOUND('',#522,.T.);
#613=FACE_BOUND('',#523,.T.);
#614=FACE_BOUND('',#524,.T.);
#615=FACE_BOUND('',#525,.T.);
#616=FACE_BOUND('',#526,.T.);
#617=FACE_BOUND('',#527,.T.);
#618=FACE_BOUND('',#528,.T.);
#619=FACE_BOUND('',#529,.T.);
#620=FACE_BOUND('',#530,.T.);
#621=FACE_BOUND('',#531,.T.);
#622=FACE_BOUND('',#532,.T.);
#623=FACE_BOUND('',#533,.T.);
#624=FACE_BOUND('',#534,.T.);
#625=FACE_BOUND('',#535,.T.);
#626=FACE_BOUND('',#536,.T.);
#627=FACE_BOUND('',#537,.T.);
#628=FACE_BOUND('',#538,.T.);
#629=FACE_BOUND('',#539,.T.);
#630=FACE_BOUND('',#540,.T.);
#631=FACE_BOUND('',#541,.T.);
#632=FACE_BOUND('',#542,.T.);
#633=FACE_BOUND('',#543,.T.);
#634=FACE_BOUND('',#544,.T.);
#635=FACE_BOUND('',#545,.T.);
#636=FACE_BOUND('',#546,.T.);
#637=FACE_BOUND('',#547,.T.);
#638=FACE_BOUND('',#548,.T.);
#639=FACE_BOUND('',#549,.T.);
#640=FACE_BOUND('',#550,.T.);
#641=FACE_BOUND('',#551,.T.);
#642=ADVANCED_FACE('',(#552,#553),#1121,.F.);
#643=ADVANCED_FACE('',(#554,#555),#123,.F.);
#644=ADVANCED_FACE('',(#556,#557),#106,.F.);
#645=ADVANCED_FACE('',(#558,#559),#107,.T.);
#646=ADVANCED_FACE('',(#560),#108,.T.);
#647=ADVANCED_FACE('',(#561),#109,.T.);
#648=ADVANCED_FACE('',(#562),#110,.T.);
#649=ADVANCED_FACE('',(#563),#111,.T.);
#650=ADVANCED_FACE('',(#564),#112,.T.);
#651=ADVANCED_FACE('',(#565),#113,.T.);
#652=ADVANCED_FACE('',(#566,#567),#124,.T.);
#653=ADVANCED_FACE('',(#568,#569),#125,.T.);
#654=ADVANCED_FACE('',(#570,#571),#126,.T.);
#655=ADVANCED_FACE('',(#572,#573),#1122,.T.);
#656=ADVANCED_FACE('',(#574,#575),#127,.T.);
#657=ADVANCED_FACE('',(#576,#577),#128,.T.);
#658=ADVANCED_FACE('',(#578,#579),#1122,.T.);
#659=ADVANCED_FACE('',(#580,#581),#129,.T.);
#660=ADVANCED_FACE('',(#582,#583),#130,.T.);
#661=ADVANCED_FACE('',(#584,#585),#1122,.T.);
#662=ADVANCED_FACE('',(#586,#587),#131,.T.);
#663=ADVANCED_FACE('',(#588,#589),#132,.T.);
#664=ADVANCED_FACE('',(#590,#591),#1122,.T.);
#665=ADVANCED_FACE('',(#592,#593),#133,.T.);
#666=ADVANCED_FACE('',(#594,#595),#134,.T.);
#667=ADVANCED_FACE('',(#596,#597),#1122,.T.);
#668=ADVANCED_FACE('',(#598,#599),#135,.T.);
#669=ADVANCED_FACE('',(#600,#601),#136,.T.);
#670=ADVANCED_FACE('',(#602,#603),#1122,.T.);
#671=ADVANCED_FACE('',(#604,#605),#137,.T.);
#672=ADVANCED_FACE('',(#606,#607),#138,.T.);
#673=ADVANCED_FACE('',(#608,#609),#1122,.T.);
#674=ADVANCED_FACE('',(#610,#611),#139,.T.);
#675=ADVANCED_FACE('',(#612,#613),#140,.T.);
#676=ADVANCED_FACE('',(#614,#615),#1122,.T.);
#677=ADVANCED_FACE('',(#616,#617),#141,.T.);
#678=ADVANCED_FACE('',(#618,#619),#142,.T.);
#679=ADVANCED_FACE('',(#620,#621),#1122,.T.);
#680=ADVANCED_FACE('',(#622,#623),#143,.T.);
#681=ADVANCED_FACE('',(#624,#625),#144,.T.);
#682=ADVANCED_FACE('',(#626,#627),#1122,.T.);
#683=ADVANCED_FACE('',(#628,#629),#1122,.T.);
#684=ADVANCED_FACE('',(#630,#631),#114,.F.);
#685=ADVANCED_FACE('',(#632),#115,.T.);
#686=ADVANCED_FACE('',(#633),#116,.T.);
#687=ADVANCED_FACE('',(#634),#117,.T.);
#688=ADVANCED_FACE('',(#635),#118,.T.);
#689=ADVANCED_FACE('',(#636),#119,.T.);
#690=ADVANCED_FACE('',(#637),#120,.T.);
#691=ADVANCED_FACE('',(#638,#639),#121,.T.);
#692=ADVANCED_FACE('',(#640,#641),#122,.F.);
#693=AXIS2_PLACEMENT_3D('',#946,#771,#772);
#694=AXIS2_PLACEMENT_3D('',#947,#773,#774);
#695=AXIS2_PLACEMENT_3D('',#949,#775,#776);
#696=AXIS2_PLACEMENT_3D('',#951,#777,#778);
#697=AXIS2_PLACEMENT_3D('',#952,#779,#780);
#698=AXIS2_PLACEMENT_3D('',#954,#781,$);
#699=AXIS2_PLACEMENT_3D('',#967,#788,#789);
#700=AXIS2_PLACEMENT_3D('',#969,#790,$);
#701=AXIS2_PLACEMENT_3D('',#982,#797,#798);
#702=AXIS2_PLACEMENT_3D('',#984,#799,$);
#703=AXIS2_PLACEMENT_3D('',#987,#802,$);
#704=AXIS2_PLACEMENT_3D('',#989,#804,$);
#705=AXIS2_PLACEMENT_3D('',#991,#806,$);
#706=AXIS2_PLACEMENT_3D('',#993,#808,$);
#707=AXIS2_PLACEMENT_3D('',#995,#810,$);
#708=AXIS2_PLACEMENT_3D('',#996,#811,#812);
#709=AXIS2_PLACEMENT_3D('',#997,#813,#814);
#710=AXIS2_PLACEMENT_3D('',#999,#815,#816);
#711=AXIS2_PLACEMENT_3D('',#1001,#817,#818);
#712=AXIS2_PLACEMENT_3D('',#1002,#819,#820);
#713=AXIS2_PLACEMENT_3D('',#1003,#821,#822);
#714=AXIS2_PLACEMENT_3D('',#1005,#823,#824);
#715=AXIS2_PLACEMENT_3D('',#1006,#825,#826);
#716=AXIS2_PLACEMENT_3D('',#1008,#827,#828);
#717=AXIS2_PLACEMENT_3D('',#1009,#829,#830);
#718=AXIS2_PLACEMENT_3D('',#1011,#831,#832);
#719=AXIS2_PLACEMENT_3D('',#1012,#833,#834);
#720=AXIS2_PLACEMENT_3D('',#1014,#835,#836);
#721=AXIS2_PLACEMENT_3D('',#1016,#837,#838);
#722=AXIS2_PLACEMENT_3D('',#1017,#839,#840);
#723=AXIS2_PLACEMENT_3D('',#1019,#841,#842);
#724=AXIS2_PLACEMENT_3D('',#1020,#843,#844);
#725=AXIS2_PLACEMENT_3D('',#1022,#845,#846);
#726=AXIS2_PLACEMENT_3D('',#1024,#847,#848);
#727=AXIS2_PLACEMENT_3D('',#1025,#849,#850);
#728=AXIS2_PLACEMENT_3D('',#1027,#851,#852);
#729=AXIS2_PLACEMENT_3D('',#1028,#853,#854);
#730=AXIS2_PLACEMENT_3D('',#1030,#855,#856);
#731=AXIS2_PLACEMENT_3D('',#1032,#857,#858);
#732=AXIS2_PLACEMENT_3D('',#1033,#859,#860);
#733=AXIS2_PLACEMENT_3D('',#1035,#861,#862);
#734=AXIS2_PLACEMENT_3D('',#1036,#863,#864);
#735=AXIS2_PLACEMENT_3D('',#1038,#865,#866);
#736=AXIS2_PLACEMENT_3D('',#1040,#867,#868);
#737=AXIS2_PLACEMENT_3D('',#1041,#869,#870);
#738=AXIS2_PLACEMENT_3D('',#1043,#871,#872);
#739=AXIS2_PLACEMENT_3D('',#1044,#873,#874);
#740=AXIS2_PLACEMENT_3D('',#1046,#875,#876);
#741=AXIS2_PLACEMENT_3D('',#1048,#877,#878);
#742=AXIS2_PLACEMENT_3D('',#1049,#879,#880);
#743=AXIS2_PLACEMENT_3D('',#1051,#881,#882);
#744=AXIS2_PLACEMENT_3D('',#1052,#883,#884);
#745=AXIS2_PLACEMENT_3D('',#1054,#885,#886);
#746=AXIS2_PLACEMENT_3D('',#1056,#887,#888);
#747=AXIS2_PLACEMENT_3D('',#1057,#889,#890);
#748=AXIS2_PLACEMENT_3D('',#1059,#891,#892);
#749=AXIS2_PLACEMENT_3D('',#1060,#893,#894);
#750=AXIS2_PLACEMENT_3D('',#1062,#895,#896);
#751=AXIS2_PLACEMENT_3D('',#1064,#897,#898);
#752=AXIS2_PLACEMENT_3D('',#1065,#899,#900);
#753=AXIS2_PLACEMENT_3D('',#1067,#901,#902);
#754=AXIS2_PLACEMENT_3D('',#1068,#903,#904);
#755=AXIS2_PLACEMENT_3D('',#1070,#905,#906);
#756=AXIS2_PLACEMENT_3D('',#1072,#907,#908);
#757=AXIS2_PLACEMENT_3D('',#1073,#909,#910);
#758=AXIS2_PLACEMENT_3D('',#1075,#911,#912);
#759=AXIS2_PLACEMENT_3D('',#1076,#913,#914);
#760=AXIS2_PLACEMENT_3D('',#1078,#915,#916);
#761=AXIS2_PLACEMENT_3D('',#1080,#917,#918);
#762=AXIS2_PLACEMENT_3D('',#1082,#919,$);
#763=AXIS2_PLACEMENT_3D('',#1083,#920,$);
#764=AXIS2_PLACEMENT_3D('',#1092,#925,$);
#765=AXIS2_PLACEMENT_3D('',#1098,#929,$);
#766=AXIS2_PLACEMENT_3D('',#1104,#933,$);
#767=AXIS2_PLACEMENT_3D('',#1110,#937,$);
#768=AXIS2_PLACEMENT_3D('',#1116,#941,$);
#769=AXIS2_PLACEMENT_3D('',#1119,#944,$);
#770=AXIS2_PLACEMENT_3D('',#1120,#945,$);
#771=DIRECTION('',(0.,0.,-1.));
#772=DIRECTION('',(0.,0.20701,0.));
#773=DIRECTION('',(0.,0.,1.));
#774=DIRECTION('',(0.,0.20701,0.));
#775=DIRECTION('',(0.,0.,1.));
#776=DIRECTION('',(0.,0.20701,0.));
#777=DIRECTION('',(0.,0.,1.));
#778=DIRECTION('',(0.,0.254,0.));
#779=DIRECTION('',(0.,0.,-1.));
#780=DIRECTION('',(0.,0.254,0.));
#781=DIRECTION('',(1.42924674726513E-031,6.51508488781829E-033,1.));
#782=DIRECTION('',(0.,-1.,0.));
#783=DIRECTION('',(-0.866025403784437,-0.500000000000002,0.));
#784=DIRECTION('',(-0.866025403784439,0.5,0.));
#785=DIRECTION('',(0.,1.,0.));
#786=DIRECTION('',(0.866025403784438,0.5,0.));
#787=DIRECTION('',(0.866025403784439,-0.5,0.));
#788=DIRECTION('',(-1.42924674726513E-031,-6.51508488781829E-033,-1.));
#789=DIRECTION('',(0.,0.260658570366081,0.));
#790=DIRECTION('',(1.42924674726513E-031,6.51508488781829E-033,1.));
#791=DIRECTION('',(-0.866025403784437,-0.500000000000002,0.));
#792=DIRECTION('',(0.,-1.,0.));
#793=DIRECTION('',(0.866025403784439,-0.5,0.));
#794=DIRECTION('',(0.866025403784438,0.5,0.));
#795=DIRECTION('',(0.,1.,0.));
#796=DIRECTION('',(-0.866025403784439,0.5,0.));
#797=DIRECTION('',(1.42924674726513E-031,6.51508488781829E-033,1.));
#798=DIRECTION('',(0.,0.318479375039323,-3.54724277414747E-017));
#799=DIRECTION('',(-1.,0.,0.));
#800=DIRECTION('',(0.,0.,-1.));
#801=DIRECTION('',(0.,0.,-1.));
#802=DIRECTION('',(-0.5,-0.866025403784439,0.));
#803=DIRECTION('',(0.,0.,-1.));
#804=DIRECTION('',(0.5,-0.866025403784438,0.));
#805=DIRECTION('',(0.,0.,-1.));
#806=DIRECTION('',(1.,0.,0.));
#807=DIRECTION('',(0.,0.,-1.));
#808=DIRECTION('',(0.5,0.866025403784439,0.));
#809=DIRECTION('',(0.,0.,-1.));
#810=DIRECTION('',(-0.500000000000002,0.866025403784437,0.));
#811=DIRECTION('',(0.,0.,1.));
#812=DIRECTION('',(0.,0.288379562042634,-3.21198921450169E-017));
#813=DIRECTION('',(0.,0.,1.));
#814=DIRECTION('',(0.32258,0.,0.));
#815=DIRECTION('',(0.,0.,1.));
#816=DIRECTION('',(0.,0.249099124085269,-2.77448129207372E-017));
#817=DIRECTION('',(0.,0.,-1.));
#818=DIRECTION('',(0.,0.288379562042634,-3.21198921450169E-017));
#819=DIRECTION('',(0.,0.,-1.));
#820=DIRECTION('',(0.,0.288379562042634,0.));
#821=DIRECTION('',(0.,0.,-1.));
#822=DIRECTION('',(0.32258,0.,0.));
#823=DIRECTION('',(0.,0.,-1.));
#824=DIRECTION('',(0.32258,0.,0.));
#825=DIRECTION('',(0.,0.,1.));
#826=DIRECTION('',(0.32258,0.,0.));
#827=DIRECTION('',(0.,0.,1.));
#828=DIRECTION('',(0.,0.288379562042634,-5.1391827432027E-016));
#829=DIRECTION('',(0.,0.,1.));
#830=DIRECTION('',(0.,0.249099124085269,-4.43917006731795E-016));
#831=DIRECTION('',(0.,0.,-1.));
#832=DIRECTION('',(0.,0.288379562042634,-5.1391827432027E-016));
#833=DIRECTION('',(0.,0.,-1.));
#834=DIRECTION('',(0.32258,0.,0.));
#835=DIRECTION('',(0.,0.,1.));
#836=DIRECTION('',(0.32258,0.,0.));
#837=DIRECTION('',(0.,0.,1.));
#838=DIRECTION('',(0.,0.288379562042634,-5.1391827432027E-016));
#839=DIRECTION('',(0.,0.,1.));
#840=DIRECTION('',(0.,0.249099124085269,-4.43917006731795E-016));
#841=DIRECTION('',(0.,0.,-1.));
#842=DIRECTION('',(0.,0.288379562042634,-5.1391827432027E-016));
#843=DIRECTION('',(0.,0.,-1.));
#844=DIRECTION('',(0.32258,0.,0.));
#845=DIRECTION('',(0.,0.,1.));
#846=DIRECTION('',(0.32258,0.,0.));
#847=DIRECTION('',(0.,0.,1.));
#848=DIRECTION('',(0.,0.288379562042634,-5.1391827432027E-016));
#849=DIRECTION('',(0.,0.,1.));
#850=DIRECTION('',(0.,0.249099124085269,-4.43917006731795E-016));
#851=DIRECTION('',(0.,0.,-1.));
#852=DIRECTION('',(0.,0.288379562042634,-5.1391827432027E-016));
#853=DIRECTION('',(0.,0.,-1.));
#854=DIRECTION('',(0.32258,0.,0.));
#855=DIRECTION('',(0.,0.,1.));
#856=DIRECTION('',(0.32258,0.,0.));
#857=DIRECTION('',(0.,0.,1.));
#858=DIRECTION('',(0.,0.288379562042634,0.));
#859=DIRECTION('',(0.,0.,1.));
#860=DIRECTION('',(0.,0.249099124085269,0.));
#861=DIRECTION('',(0.,0.,-1.));
#862=DIRECTION('',(0.,0.288379562042634,0.));
#863=DIRECTION('',(0.,0.,-1.));
#864=DIRECTION('',(0.32258,0.,0.));
#865=DIRECTION('',(0.,0.,1.));
#866=DIRECTION('',(0.32258,0.,0.));
#867=DIRECTION('',(0.,0.,1.));
#868=DIRECTION('',(0.,0.288379562042634,0.));
#869=DIRECTION('',(0.,0.,1.));
#870=DIRECTION('',(0.,0.249099124085269,0.));
#871=DIRECTION('',(0.,0.,-1.));
#872=DIRECTION('',(0.,0.288379562042634,0.));
#873=DIRECTION('',(0.,0.,-1.));
#874=DIRECTION('',(0.32258,0.,0.));
#875=DIRECTION('',(0.,0.,1.));
#876=DIRECTION('',(0.32258,0.,0.));
#877=DIRECTION('',(0.,0.,1.));
#878=DIRECTION('',(0.,0.288379562042634,0.));
#879=DIRECTION('',(0.,0.,1.));
#880=DIRECTION('',(0.,0.249099124085269,0.));
#881=DIRECTION('',(0.,0.,-1.));
#882=DIRECTION('',(0.,0.288379562042634,0.));
#883=DIRECTION('',(0.,0.,-1.));
#884=DIRECTION('',(0.32258,0.,0.));
#885=DIRECTION('',(0.,0.,1.));
#886=DIRECTION('',(0.32258,0.,0.));
#887=DIRECTION('',(0.,0.,1.));
#888=DIRECTION('',(0.,0.288379562042634,0.));
#889=DIRECTION('',(0.,0.,1.));
#890=DIRECTION('',(0.,0.249099124085269,0.));
#891=DIRECTION('',(0.,0.,-1.));
#892=DIRECTION('',(0.,0.288379562042634,0.));
#893=DIRECTION('',(0.,0.,-1.));
#894=DIRECTION('',(0.32258,0.,0.));
#895=DIRECTION('',(0.,0.,1.));
#896=DIRECTION('',(0.32258,0.,0.));
#897=DIRECTION('',(0.,0.,1.));
#898=DIRECTION('',(0.,0.288379562042634,0.));
#899=DIRECTION('',(0.,0.,1.));
#900=DIRECTION('',(0.,0.249099124085269,0.));
#901=DIRECTION('',(0.,0.,-1.));
#902=DIRECTION('',(0.,0.288379562042634,0.));
#903=DIRECTION('',(0.,0.,-1.));
#904=DIRECTION('',(0.32258,0.,0.));
#905=DIRECTION('',(0.,0.,1.));
#906=DIRECTION('',(0.32258,0.,0.));
#907=DIRECTION('',(0.,0.,1.));
#908=DIRECTION('',(0.,0.288379562042634,0.));
#909=DIRECTION('',(0.,0.,1.));
#910=DIRECTION('',(0.,0.249099124085269,0.));
#911=DIRECTION('',(0.,0.,-1.));
#912=DIRECTION('',(0.,0.288379562042634,0.));
#913=DIRECTION('',(0.,0.,-1.));
#914=DIRECTION('',(0.32258,0.,0.));
#915=DIRECTION('',(0.,0.,1.));
#916=DIRECTION('',(0.32258,0.,0.));
#917=DIRECTION('',(0.,0.,1.));
#918=DIRECTION('',(0.32258,0.,0.));
#919=DIRECTION('',(0.,0.,1.));
#920=DIRECTION('',(0.5,0.866025403784439,0.));
#921=DIRECTION('',(0.866025403784439,-0.5,0.));
#922=DIRECTION('',(0.,0.,1.));
#923=DIRECTION('',(-0.866025403784439,0.5,0.));
#924=DIRECTION('',(0.,0.,1.));
#925=DIRECTION('',(1.,0.,0.));
#926=DIRECTION('',(0.,-1.,0.));
#927=DIRECTION('',(0.,0.,1.));
#928=DIRECTION('',(0.,1.,0.));
#929=DIRECTION('',(0.5,-0.866025403784438,0.));
#930=DIRECTION('',(-0.866025403784438,-0.5,0.));
#931=DIRECTION('',(0.,0.,1.));
#932=DIRECTION('',(0.866025403784438,0.5,0.));
#933=DIRECTION('',(-0.5,-0.866025403784439,0.));
#934=DIRECTION('',(-0.866025403784439,0.5,0.));
#935=DIRECTION('',(0.,0.,1.));
#936=DIRECTION('',(0.866025403784439,-0.5,0.));
#937=DIRECTION('',(-1.,0.,0.));
#938=DIRECTION('',(0.,1.,0.));
#939=DIRECTION('',(0.,0.,1.));
#940=DIRECTION('',(0.,-1.,0.));
#941=DIRECTION('',(-0.500000000000002,0.866025403784437,0.));
#942=DIRECTION('',(0.866025403784437,0.500000000000002,0.));
#943=DIRECTION('',(-0.866025403784437,-0.500000000000002,0.));
#944=DIRECTION('',(0.,0.,1.));
#945=DIRECTION('',(0.,0.,1.));
#946=CARTESIAN_POINT('',(1.04083408558608E-016,-6.93889390390723E-017,0.239));
#947=CARTESIAN_POINT('',(1.04083408558608E-016,-6.93889390390723E-017,-1.34874));
#948=CARTESIAN_POINT('',(1.29433984689085E-016,-0.20701,-1.34874));
#949=CARTESIAN_POINT('',(1.04083408558608E-016,-6.93889390390723E-017,0.165240474731249));
#950=CARTESIAN_POINT('',(1.04083408558608E-016,0.20701,0.165240474731249));
#951=CARTESIAN_POINT('',(1.04083408558608E-016,-6.93889390390723E-017,0.239));
#952=CARTESIAN_POINT('',(1.04083408558608E-016,-6.93889390390723E-017,0.239));
#953=CARTESIAN_POINT('',(1.04083408558608E-016,0.254,0.239));
#954=CARTESIAN_POINT('',(7.63278329429795E-017,-6.93889390390723E-017,-0.49276));
#955=CARTESIAN_POINT('',(-0.476,0.274818728134261,-0.49276));
#956=CARTESIAN_POINT('',(-0.476,0.274818728134261,-0.49276));
#957=CARTESIAN_POINT('',(-0.476,-0.274818728134262,-0.49276));
#958=CARTESIAN_POINT('',(-8.55400583276498E-016,0.549637456268524,-0.49276));
#959=CARTESIAN_POINT('',(-8.55400583276498E-016,0.549637456268524,-0.49276));
#960=CARTESIAN_POINT('',(0.476,0.274818728134262,-0.49276));
#961=CARTESIAN_POINT('',(0.476,0.274818728134262,-0.49276));
#962=CARTESIAN_POINT('',(0.476,-0.274818728134262,-0.49276));
#963=CARTESIAN_POINT('',(0.476,-0.274818728134262,-0.49276));
#964=CARTESIAN_POINT('',(2.98427534680064E-016,-0.549637456268524,-0.49276));
#965=CARTESIAN_POINT('',(2.77555756156289E-016,-0.549637456268524,-0.49276));
#966=CARTESIAN_POINT('',(-0.476,-0.274818728134262,-0.49276));
#967=CARTESIAN_POINT('',(0.,0.,-0.49276));
#968=CARTESIAN_POINT('',(-3.1920414144856E-017,-0.260658570366081,-0.49276));
#969=CARTESIAN_POINT('',(7.63278329429795E-017,-6.93889390390723E-017,-0.254));
#970=CARTESIAN_POINT('',(-8.55400583276498E-016,0.549637456268524,-0.254));
#971=CARTESIAN_POINT('',(-8.55400583276498E-016,0.549637456268524,-0.254));
#972=CARTESIAN_POINT('',(-0.476,0.274818728134261,-0.254));
#973=CARTESIAN_POINT('',(-0.476,0.274818728134261,-0.254));
#974=CARTESIAN_POINT('',(-0.476,-0.274818728134262,-0.254));
#975=CARTESIAN_POINT('',(-0.476,-0.274818728134262,-0.254));
#976=CARTESIAN_POINT('',(2.77555756156289E-016,-0.549637456268524,-0.254));
#977=CARTESIAN_POINT('',(2.98427534680064E-016,-0.549637456268524,-0.254));
#978=CARTESIAN_POINT('',(0.476,-0.274818728134262,-0.254));
#979=CARTESIAN_POINT('',(0.476,-0.274818728134262,-0.254));
#980=CARTESIAN_POINT('',(0.476,0.274818728134262,-0.254));
#981=CARTESIAN_POINT('',(0.476,0.274818728134262,-0.254));
#982=CARTESIAN_POINT('',(0.,0.,-0.254));
#983=CARTESIAN_POINT('',(3.90011866234535E-017,-0.318479375039323,-0.254));
#984=CARTESIAN_POINT('',(-0.476,-4.9960036108132E-016,-0.254));
#985=CARTESIAN_POINT('',(-0.476,-0.274818728134262,-0.254));
#986=CARTESIAN_POINT('',(-0.476,0.274818728134261,-0.254));
#987=CARTESIAN_POINT('',(-0.238,-0.412228092201393,-0.254));
#988=CARTESIAN_POINT('',(2.77555756156289E-016,-0.549637456268524,-0.254));
#989=CARTESIAN_POINT('',(0.238,-0.412228092201393,-0.254));
#990=CARTESIAN_POINT('',(0.476,-0.274818728134262,-0.254));
#991=CARTESIAN_POINT('',(0.476,0.,-0.254));
#992=CARTESIAN_POINT('',(0.476,0.274818728134262,-0.254));
#993=CARTESIAN_POINT('',(0.238,0.412228092201393,-0.254));
#994=CARTESIAN_POINT('',(-8.55400583276498E-016,0.549637456268524,-0.254));
#995=CARTESIAN_POINT('',(-0.238,0.412228092201393,-0.254));
#996=CARTESIAN_POINT('',(0.,0.,-0.191264722006662));
#997=CARTESIAN_POINT('',(0.,0.,-0.171519089945574));
#998=CARTESIAN_POINT('',(-0.32258,-3.95033517616022E-017,-0.171519089945574));
#999=CARTESIAN_POINT('',(0.,0.,-0.213943293435233));
#1000=CARTESIAN_POINT('',(0.,0.249099124085269,-0.213943293435233));
#1001=CARTESIAN_POINT('',(0.,0.,-0.236621864863804));
#1002=CARTESIAN_POINT('',(0.,0.,-0.508764722006662));
#1003=CARTESIAN_POINT('',(0.,0.,-0.52851035406775));
#1004=CARTESIAN_POINT('',(-0.32258,3.95033517616022E-017,-0.52851035406775));
#1005=CARTESIAN_POINT('',(0.,0.,0.));
#1006=CARTESIAN_POINT('',(0.,0.,-0.534376232802716));
#1007=CARTESIAN_POINT('',(-0.32258,-3.95033517616022E-017,-0.534376232802716));
#1008=CARTESIAN_POINT('',(0.,0.,-0.554121864863805));
#1009=CARTESIAN_POINT('',(0.,0.,-0.576800436292376));
#1010=CARTESIAN_POINT('',(0.,0.249099124085269,-0.576800436292376));
#1011=CARTESIAN_POINT('',(0.,0.,-0.599479007720947));
#1012=CARTESIAN_POINT('',(0.,0.,-0.619224639782035));
#1013=CARTESIAN_POINT('',(-0.32258,3.95033517616022E-017,-0.619224639782035));
#1014=CARTESIAN_POINT('',(0.,0.,-0.625090518517002));
#1015=CARTESIAN_POINT('',(-0.32258,-3.95033517616022E-017,-0.625090518517002));
#1016=CARTESIAN_POINT('',(0.,0.,-0.64483615057809));
#1017=CARTESIAN_POINT('',(0.,0.,-0.667514722006662));
#1018=CARTESIAN_POINT('',(0.,0.249099124085269,-0.667514722006662));
#1019=CARTESIAN_POINT('',(0.,0.,-0.690193293435233));
#1020=CARTESIAN_POINT('',(0.,0.,-0.709938925496321));
#1021=CARTESIAN_POINT('',(-0.32258,3.95033517616022E-017,-0.709938925496321));
#1022=CARTESIAN_POINT('',(0.,0.,-0.715804804231288));
#1023=CARTESIAN_POINT('',(-0.32258,-3.95033517616022E-017,-0.715804804231288));
#1024=CARTESIAN_POINT('',(0.,0.,-0.735550436292376));
#1025=CARTESIAN_POINT('',(0.,0.,-0.758229007720947));
#1026=CARTESIAN_POINT('',(0.,0.249099124085269,-0.758229007720947));
#1027=CARTESIAN_POINT('',(0.,0.,-0.780907579149519));
#1028=CARTESIAN_POINT('',(0.,0.,-0.800653211210607));
#1029=CARTESIAN_POINT('',(-0.32258,3.95033517616022E-017,-0.800653211210607));
#1030=CARTESIAN_POINT('',(0.,0.,-0.806519089945574));
#1031=CARTESIAN_POINT('',(-0.32258,-3.95033517616022E-017,-0.806519089945574));
#1032=CARTESIAN_POINT('',(0.,0.,-0.826264722006662));
#1033=CARTESIAN_POINT('',(0.,0.,-0.848943293435233));
#1034=CARTESIAN_POINT('',(0.,0.249099124085269,-0.848943293435233));
#1035=CARTESIAN_POINT('',(0.,0.,-0.871621864863804));
#1036=CARTESIAN_POINT('',(0.,0.,-0.891367496924892));
#1037=CARTESIAN_POINT('',(-0.32258,3.95033517616022E-017,-0.891367496924892));
#1038=CARTESIAN_POINT('',(0.,0.,-0.897233375659859));
#1039=CARTESIAN_POINT('',(-0.32258,-3.95033517616022E-017,-0.897233375659859));
#1040=CARTESIAN_POINT('',(0.,0.,-0.916979007720947));
#1041=CARTESIAN_POINT('',(0.,0.,-0.939657579149519));
#1042=CARTESIAN_POINT('',(0.,0.249099124085269,-0.939657579149519));
#1043=CARTESIAN_POINT('',(0.,0.,-0.96233615057809));
#1044=CARTESIAN_POINT('',(0.,0.,-0.982081782639178));
#1045=CARTESIAN_POINT('',(-0.32258,3.95033517616022E-017,-0.982081782639178));
#1046=CARTESIAN_POINT('',(0.,0.,-0.987947661374145));
#1047=CARTESIAN_POINT('',(-0.32258,-3.95033517616022E-017,-0.987947661374145));
#1048=CARTESIAN_POINT('',(0.,0.,-1.00769329343523));
#1049=CARTESIAN_POINT('',(0.,0.,-1.0303718648638));
#1050=CARTESIAN_POINT('',(0.,0.249099124085269,-1.0303718648638));
#1051=CARTESIAN_POINT('',(0.,0.,-1.05305043629238));
#1052=CARTESIAN_POINT('',(0.,0.,-1.07279606835346));
#1053=CARTESIAN_POINT('',(-0.32258,3.95033517616022E-017,-1.07279606835346));
#1054=CARTESIAN_POINT('',(0.,0.,-1.07866194708843));
#1055=CARTESIAN_POINT('',(-0.32258,-3.95033517616022E-017,-1.07866194708843));
#1056=CARTESIAN_POINT('',(0.,0.,-1.09840757914952));
#1057=CARTESIAN_POINT('',(0.,0.,-1.12108615057809));
#1058=CARTESIAN_POINT('',(0.,0.249099124085269,-1.12108615057809));
#1059=CARTESIAN_POINT('',(0.,0.,-1.14376472200666));
#1060=CARTESIAN_POINT('',(0.,0.,-1.16351035406775));
#1061=CARTESIAN_POINT('',(-0.32258,3.95033517616022E-017,-1.16351035406775));
#1062=CARTESIAN_POINT('',(0.,0.,-1.16937623280272));
#1063=CARTESIAN_POINT('',(-0.32258,-3.95033517616022E-017,-1.16937623280272));
#1064=CARTESIAN_POINT('',(0.,0.,-1.1891218648638));
#1065=CARTESIAN_POINT('',(0.,0.,-1.21180043629238));
#1066=CARTESIAN_POINT('',(0.,0.249099124085269,-1.21180043629238));
#1067=CARTESIAN_POINT('',(0.,0.,-1.23447900772095));
#1068=CARTESIAN_POINT('',(0.,0.,-1.25422463978204));
#1069=CARTESIAN_POINT('',(-0.32258,3.95033517616022E-017,-1.25422463978204));
#1070=CARTESIAN_POINT('',(0.,0.,-1.260090518517));
#1071=CARTESIAN_POINT('',(-0.32258,-3.95033517616022E-017,-1.260090518517));
#1072=CARTESIAN_POINT('',(0.,0.,-1.27983615057809));
#1073=CARTESIAN_POINT('',(0.,0.,-1.30251472200666));
#1074=CARTESIAN_POINT('',(0.,0.249099124085269,-1.30251472200666));
#1075=CARTESIAN_POINT('',(0.,0.,-1.32519329343523));
#1076=CARTESIAN_POINT('',(0.,0.,-1.34493892549632));
#1077=CARTESIAN_POINT('',(-0.32258,3.95033517616022E-017,-1.34493892549632));
#1078=CARTESIAN_POINT('',(0.,0.,-1.34874));
#1079=CARTESIAN_POINT('',(0.32258,0.,-1.34874));
#1080=CARTESIAN_POINT('',(0.,0.,0.));
#1081=CARTESIAN_POINT('',(0.32258,0.,0.));
#1082=CARTESIAN_POINT('',(0.,0.,-1.34874));
#1083=CARTESIAN_POINT('',(0.238,0.412228092201393,0.));
#1084=CARTESIAN_POINT('',(0.476,0.274818728134262,0.239));
#1085=CARTESIAN_POINT('',(-8.55400583276498E-016,0.549637456268524,0.239));
#1086=CARTESIAN_POINT('',(0.476,0.274818728134262,0.239));
#1087=CARTESIAN_POINT('',(0.476,0.274818728134262,0.));
#1088=CARTESIAN_POINT('',(0.476,0.274818728134262,0.));
#1089=CARTESIAN_POINT('',(0.476,0.274818728134262,0.));
#1090=CARTESIAN_POINT('',(-8.55400583276498E-016,0.549637456268524,0.));
#1091=CARTESIAN_POINT('',(-8.55400583276498E-016,0.549637456268524,0.));
#1092=CARTESIAN_POINT('',(0.476,0.,0.));
#1093=CARTESIAN_POINT('',(0.476,-0.274818728134262,0.239));
#1094=CARTESIAN_POINT('',(0.476,-0.274818728134262,0.239));
#1095=CARTESIAN_POINT('',(0.476,-0.274818728134262,0.));
#1096=CARTESIAN_POINT('',(0.476,-0.274818728134262,0.));
#1097=CARTESIAN_POINT('',(0.476,-0.274818728134262,0.));
#1098=CARTESIAN_POINT('',(0.238,-0.412228092201393,0.));
#1099=CARTESIAN_POINT('',(2.98427534680064E-016,-0.549637456268524,0.239));
#1100=CARTESIAN_POINT('',(2.77555756156289E-016,-0.549637456268524,0.239));
#1101=CARTESIAN_POINT('',(2.77555756156289E-016,-0.549637456268524,0.));
#1102=CARTESIAN_POINT('',(2.77555756156289E-016,-0.549637456268524,0.));
#1103=CARTESIAN_POINT('',(2.98427534680064E-016,-0.549637456268524,0.));
#1104=CARTESIAN_POINT('',(-0.238,-0.412228092201393,0.));
#1105=CARTESIAN_POINT('',(-0.476,-0.274818728134262,0.239));
#1106=CARTESIAN_POINT('',(-0.476,-0.274818728134262,0.239));
#1107=CARTESIAN_POINT('',(-0.476,-0.274818728134262,0.));
#1108=CARTESIAN_POINT('',(-0.476,-0.274818728134262,0.));
#1109=CARTESIAN_POINT('',(-0.476,-0.274818728134262,0.));
#1110=CARTESIAN_POINT('',(-0.476,-4.9960036108132E-016,0.));
#1111=CARTESIAN_POINT('',(-0.476,0.274818728134261,0.239));
#1112=CARTESIAN_POINT('',(-0.476,0.274818728134261,0.239));
#1113=CARTESIAN_POINT('',(-0.476,0.274818728134261,0.));
#1114=CARTESIAN_POINT('',(-0.476,0.274818728134261,0.));
#1115=CARTESIAN_POINT('',(-0.476,0.274818728134261,0.));
#1116=CARTESIAN_POINT('',(-0.238,0.412228092201393,0.));
#1117=CARTESIAN_POINT('',(-8.55400583276498E-016,0.549637456268524,0.239));
#1118=CARTESIAN_POINT('',(-8.55400583276498E-016,0.549637456268524,0.));
#1119=CARTESIAN_POINT('',(1.04083408558608E-016,-6.93889390390723E-017,0.239));
#1120=CARTESIAN_POINT('',(1.04083408558608E-016,-6.93889390390723E-017,0.));
#1121=CYLINDRICAL_SURFACE('',#693,0.20701);
#1122=CYLINDRICAL_SURFACE('',#714,0.32258);
#1123=CLOSED_SHELL('',(#642,#643,#644,#645,#646,#647,#648,#649,#650,#651,
#652,#653,#654,#655,#656,#657,#658,#659,#660,#661,#662,#663,#664,#665,#666,
#667,#668,#669,#670,#671,#672,#673,#674,#675,#676,#677,#678,#679,#680,#681,
#682,#683,#684,#685,#686,#687,#688,#689,#690,#691,#692));
#1124=MANIFOLD_SOLID_BREP('',#1123);
#1125=ADVANCED_BREP_SHAPE_REPRESENTATION('',(#1124),#33);
ENDSEC;
END-ISO-10303-21;
