ISO-10303-21;
HEADER;
/* Generated by software containing ST-Developer
 * from STEP Tools, Inc. (www.steptools.com) 
 */

FILE_DESCRIPTION(
/* description */ (''),
/* implementation_level */ '2;1');

FILE_NAME(
/* name */ 'C:\\Users\\k\\Desktop\\Mill-Max 0305-2-15-15-47-27-10-0\\2.
stp',
/* time_stamp */ '2023-10-27T15:41:56+02:00',
/* author */ ('k'),
/* organization */ (''),
/* preprocessor_version */ 'ST-DEVELOPER v15.6',
/* originating_system */ 'Autodesk Inventor 2015',
/* authorisation */ '');

FILE_SCHEMA (('AUTOMOTIVE_DESIGN { 1 0 10303 214 3 1 1 }'));
ENDSEC;

DATA;
#10=MECHANICAL_DESIGN_GEOMETRIC_PRESENTATION_REPRESENTATION('',(#19),#159);
#11=ITEM_DEFINED_TRANSFORMATION($,$,#88,#102);
#12=(
REPRESENTATION_RELATIONSHIP($,$,#172,#173)
REPRESENTATION_RELATIONSHIP_WITH_TRANSFORMATION(#11)
SHAPE_REPRESENTATION_RELATIONSHIP()
);
#13=CONTEXT_DEPENDENT_SHAPE_REPRESENTATION(#12,#171);
#14=NEXT_ASSEMBLY_USAGE_OCCURRENCE('mill-max-0305-0-15-01-47-XX-10-0:1',
$,$,#176,#175,$);
#15=(
CONVERSION_BASED_UNIT('degree',#16)
NAMED_UNIT(#161)
PLANE_ANGLE_UNIT()
);
#16=PLANE_ANGLE_MEASURE_WITH_UNIT(PLANE_ANGLE_MEASURE(0.01745329252),#166);
#17=SHAPE_REPRESENTATION_RELATIONSHIP('SRR','None',#172,#18);
#18=ADVANCED_BREP_SHAPE_REPRESENTATION($,(#20),#157);
#19=STYLED_ITEM('',(#187),#20);
#20=MANIFOLD_SOLID_BREP('Hole1',#87);
#21=CYLINDRICAL_SURFACE('',#95,0.029);
#22=CYLINDRICAL_SURFACE('',#97,0.0255);
#23=CYLINDRICAL_SURFACE('',#98,0.0380000000000011);
#24=PLANE('',#92);
#25=PLANE('',#100);
#26=FACE_BOUND('',#39,.T.);
#27=FACE_BOUND('',#41,.T.);
#28=FACE_BOUND('',#43,.T.);
#29=FACE_BOUND('',#45,.T.);
#30=FACE_BOUND('',#47,.T.);
#31=FACE_BOUND('',#49,.T.);
#32=FACE_OUTER_BOUND('',#38,.T.);
#33=FACE_OUTER_BOUND('',#40,.T.);
#34=FACE_OUTER_BOUND('',#42,.T.);
#35=FACE_OUTER_BOUND('',#44,.T.);
#36=FACE_OUTER_BOUND('',#46,.T.);
#37=FACE_OUTER_BOUND('',#48,.T.);
#38=EDGE_LOOP('',(#68));
#39=EDGE_LOOP('',(#69));
#40=EDGE_LOOP('',(#70));
#41=EDGE_LOOP('',(#71));
#42=EDGE_LOOP('',(#72));
#43=EDGE_LOOP('',(#73));
#44=EDGE_LOOP('',(#74));
#45=EDGE_LOOP('',(#75));
#46=EDGE_LOOP('',(#76));
#47=EDGE_LOOP('',(#77));
#48=EDGE_LOOP('',(#78));
#49=EDGE_LOOP('',(#79));
#50=CIRCLE('',#90,0.029);
#51=CIRCLE('',#91,0.0255);
#52=CIRCLE('',#93,0.0380000000000011);
#53=CIRCLE('',#94,0.0255);
#54=CIRCLE('',#96,0.029);
#55=CIRCLE('',#99,0.0380000000000011);
#56=VERTEX_POINT('',#135);
#57=VERTEX_POINT('',#137);
#58=VERTEX_POINT('',#140);
#59=VERTEX_POINT('',#142);
#60=VERTEX_POINT('',#145);
#61=VERTEX_POINT('',#149);
#62=EDGE_CURVE('',#56,#56,#50,.T.);
#63=EDGE_CURVE('',#57,#57,#51,.T.);
#64=EDGE_CURVE('',#58,#58,#52,.T.);
#65=EDGE_CURVE('',#59,#59,#53,.T.);
#66=EDGE_CURVE('',#60,#60,#54,.T.);
#67=EDGE_CURVE('',#61,#61,#55,.T.);
#68=ORIENTED_EDGE('',*,*,#62,.F.);
#69=ORIENTED_EDGE('',*,*,#63,.F.);
#70=ORIENTED_EDGE('',*,*,#64,.T.);
#71=ORIENTED_EDGE('',*,*,#65,.T.);
#72=ORIENTED_EDGE('',*,*,#62,.T.);
#73=ORIENTED_EDGE('',*,*,#66,.F.);
#74=ORIENTED_EDGE('',*,*,#63,.T.);
#75=ORIENTED_EDGE('',*,*,#65,.F.);
#76=ORIENTED_EDGE('',*,*,#64,.F.);
#77=ORIENTED_EDGE('',*,*,#67,.T.);
#78=ORIENTED_EDGE('',*,*,#67,.F.);
#79=ORIENTED_EDGE('',*,*,#66,.T.);
#80=CONICAL_SURFACE('',#89,0.0282803076654765,0.446583223386023);
#81=ADVANCED_FACE('',(#32,#26),#80,.T.);
#82=ADVANCED_FACE('',(#33,#27),#24,.F.);
#83=ADVANCED_FACE('',(#34,#28),#21,.T.);
#84=ADVANCED_FACE('',(#35,#29),#22,.F.);
#85=ADVANCED_FACE('',(#36,#30),#23,.T.);
#86=ADVANCED_FACE('',(#37,#31),#25,.F.);
#87=CLOSED_SHELL('',(#81,#82,#83,#84,#85,#86));
#88=AXIS2_PLACEMENT_3D('placement',#133,#103,#104);
#89=AXIS2_PLACEMENT_3D('',#134,#105,#106);
#90=AXIS2_PLACEMENT_3D('',#136,#107,#108);
#91=AXIS2_PLACEMENT_3D('',#138,#109,#110);
#92=AXIS2_PLACEMENT_3D('',#139,#111,#112);
#93=AXIS2_PLACEMENT_3D('',#141,#113,#114);
#94=AXIS2_PLACEMENT_3D('',#143,#115,#116);
#95=AXIS2_PLACEMENT_3D('',#144,#117,#118);
#96=AXIS2_PLACEMENT_3D('',#146,#119,#120);
#97=AXIS2_PLACEMENT_3D('',#147,#121,#122);
#98=AXIS2_PLACEMENT_3D('',#148,#123,#124);
#99=AXIS2_PLACEMENT_3D('',#150,#125,#126);
#100=AXIS2_PLACEMENT_3D('',#151,#127,#128);
#101=AXIS2_PLACEMENT_3D('placement',#152,#129,#130);
#102=AXIS2_PLACEMENT_3D('',#153,#131,#132);
#103=DIRECTION('axis',(0.,0.,1.));
#104=DIRECTION('refdir',(1.,0.,0.));
#105=DIRECTION('center_axis',(-1.,0.,0.));
#106=DIRECTION('ref_axis',(0.,0.,-1.));
#107=DIRECTION('center_axis',(-1.,0.,0.));
#108=DIRECTION('ref_axis',(0.,0.,1.));
#109=DIRECTION('center_axis',(1.,0.,0.));
#110=DIRECTION('ref_axis',(0.,0.,1.));
#111=DIRECTION('center_axis',(1.,0.,0.));
#112=DIRECTION('ref_axis',(0.,0.,-1.));
#113=DIRECTION('center_axis',(-1.,0.,0.));
#114=DIRECTION('ref_axis',(0.,0.,-1.));
#115=DIRECTION('center_axis',(1.,0.,0.));
#116=DIRECTION('ref_axis',(0.,0.,-1.));
#117=DIRECTION('center_axis',(1.,0.,0.));
#118=DIRECTION('ref_axis',(0.,0.,1.));
#119=DIRECTION('center_axis',(-1.,0.,0.));
#120=DIRECTION('ref_axis',(0.,0.,1.));
#121=DIRECTION('center_axis',(-1.,0.,0.));
#122=DIRECTION('ref_axis',(0.,0.,1.));
#123=DIRECTION('center_axis',(-1.,0.,0.));
#124=DIRECTION('ref_axis',(0.,0.,1.));
#125=DIRECTION('center_axis',(-1.,0.,0.));
#126=DIRECTION('ref_axis',(0.,0.,1.));
#127=DIRECTION('center_axis',(-1.,0.,0.));
#128=DIRECTION('ref_axis',(0.,0.,1.));
#129=DIRECTION('axis',(0.,0.,1.));
#130=DIRECTION('refdir',(1.,0.,0.));
#131=DIRECTION('',(1.,1.11022302462516E-16,0.));
#132=DIRECTION('',(0.,0.,-1.));
#133=CARTESIAN_POINT('',(0.,0.,0.));
#134=CARTESIAN_POINT('Origin',(0.148834194668747,0.,0.));
#135=CARTESIAN_POINT('',(0.147331228326067,-3.55147571752732E-18,-0.029));
#136=CARTESIAN_POINT('Origin',(0.147331228326067,0.,0.));
#137=CARTESIAN_POINT('',(0.154640438035608,3.12284933782575E-18,-0.0255));
#138=CARTESIAN_POINT('Origin',(0.154640438035608,0.,0.));
#139=CARTESIAN_POINT('Origin',(-0.005,0.,-2.74642478939448E-18));
#140=CARTESIAN_POINT('',(-0.005,4.65365783676007E-18,0.0380000000000011));
#141=CARTESIAN_POINT('Origin',(-0.005,0.,0.));
#142=CARTESIAN_POINT('',(-0.005,3.12284933782575E-18,0.0255));
#143=CARTESIAN_POINT('Origin',(-0.005,0.,0.));
#144=CARTESIAN_POINT('Origin',(0.025000000000001,0.,0.));
#145=CARTESIAN_POINT('',(0.025000000000001,3.55147571752732E-18,-0.029));
#146=CARTESIAN_POINT('Origin',(0.025000000000001,0.,0.));
#147=CARTESIAN_POINT('Origin',(0.,0.,0.));
#148=CARTESIAN_POINT('Origin',(0.,0.,0.));
#149=CARTESIAN_POINT('',(0.025000000000001,0.,0.0380000000000011));
#150=CARTESIAN_POINT('Origin',(0.025000000000001,0.,0.));
#151=CARTESIAN_POINT('Origin',(0.025000000000001,0.0380000000000011,0.));
#152=CARTESIAN_POINT('',(0.,0.,0.));
#153=CARTESIAN_POINT('',(7.74059959781628E-5,-0.00164892305402807,0.635000000000024));
#154=UNCERTAINTY_MEASURE_WITH_UNIT(LENGTH_MEASURE(0.000393700787401575),
#162,'DISTANCE_ACCURACY_VALUE',
'Maximum model space distance between geometric entities at asserted c
onnectivities');
#155=UNCERTAINTY_MEASURE_WITH_UNIT(LENGTH_MEASURE(0.01),#163,
'DISTANCE_ACCURACY_VALUE',
'Maximum model space distance between geometric entities at asserted c
onnectivities');
#156=UNCERTAINTY_MEASURE_WITH_UNIT(LENGTH_MEASURE(1.E-6),#163,
'DISTANCE_ACCURACY_VALUE',
'Maximum model space distance between geometric entities at asserted c
onnectivities');
#157=(
GEOMETRIC_REPRESENTATION_CONTEXT(3)
GLOBAL_UNCERTAINTY_ASSIGNED_CONTEXT((#154))
GLOBAL_UNIT_ASSIGNED_CONTEXT((#162,#166,#165))
REPRESENTATION_CONTEXT('','3D')
);
#158=(
GEOMETRIC_REPRESENTATION_CONTEXT(3)
GLOBAL_UNCERTAINTY_ASSIGNED_CONTEXT((#155))
GLOBAL_UNIT_ASSIGNED_CONTEXT((#163,#15,#165))
REPRESENTATION_CONTEXT('','3D')
);
#159=(
GEOMETRIC_REPRESENTATION_CONTEXT(3)
GLOBAL_UNCERTAINTY_ASSIGNED_CONTEXT((#156))
GLOBAL_UNIT_ASSIGNED_CONTEXT((#163,#15,#165))
REPRESENTATION_CONTEXT('','3D')
);
#160=DIMENSIONAL_EXPONENTS(1.,0.,0.,0.,0.,0.,0.);
#161=DIMENSIONAL_EXPONENTS(0.,0.,0.,0.,0.,0.,0.);
#162=(
CONVERSION_BASED_UNIT('__CONSTANT UNIT inch',#164)
LENGTH_UNIT()
NAMED_UNIT(#160)
);
#163=(
LENGTH_UNIT()
NAMED_UNIT(*)
SI_UNIT(.MILLI.,.METRE.)
);
#164=LENGTH_MEASURE_WITH_UNIT(LENGTH_MEASURE(25.4),#163);
#165=(
NAMED_UNIT(*)
SI_UNIT($,.STERADIAN.)
SOLID_ANGLE_UNIT()
);
#166=(
NAMED_UNIT(*)
PLANE_ANGLE_UNIT()
SI_UNIT($,.RADIAN.)
);
#167=SHAPE_DEFINITION_REPRESENTATION(#169,#172);
#168=SHAPE_DEFINITION_REPRESENTATION(#170,#173);
#169=PRODUCT_DEFINITION_SHAPE('',$,#175);
#170=PRODUCT_DEFINITION_SHAPE('',$,#176);
#171=PRODUCT_DEFINITION_SHAPE($,$,#14);
#172=SHAPE_REPRESENTATION('',(#88),#157);
#173=SHAPE_REPRESENTATION('',(#101,#102),#158);
#174=PRODUCT_DEFINITION_CONTEXT('part definition',#182,'design');
#175=PRODUCT_DEFINITION('mill-max-0305-0-15-01-47-XX-10-0',
'mill-max-0305-0-15-01-47-XX-10-0',#177,#174);
#176=PRODUCT_DEFINITION('2','2',#178,#174);
#177=PRODUCT_DEFINITION_FORMATION('',$,#184);
#178=PRODUCT_DEFINITION_FORMATION('',$,#185);
#179=PRODUCT_RELATED_PRODUCT_CATEGORY(
'mill-max-0305-0-15-01-47-XX-10-0','mill-max-0305-0-15-01-47-XX-10-0',(#184));
#180=PRODUCT_RELATED_PRODUCT_CATEGORY('2','2',(#185));
#181=APPLICATION_PROTOCOL_DEFINITION('international standard',
'automotive_design',2009,#182);
#182=APPLICATION_CONTEXT(
'Core Data for Automotive Mechanical Design Process');
#183=PRODUCT_CONTEXT('part definition',#182,'mechanical');
#184=PRODUCT('mill-max-0305-0-15-01-47-XX-10-0',
'mill-max-0305-0-15-01-47-XX-10-0',$,(#183));
#185=PRODUCT('2','2',$,(#183));
#186=PRESENTATION_STYLE_ASSIGNMENT((#188));
#187=PRESENTATION_STYLE_ASSIGNMENT((#189));
#188=SURFACE_STYLE_USAGE(.BOTH.,#190);
#189=SURFACE_STYLE_USAGE(.BOTH.,#191);
#190=SURFACE_SIDE_STYLE($,(#192));
#191=SURFACE_SIDE_STYLE($,(#193));
#192=SURFACE_STYLE_FILL_AREA(#194);
#193=SURFACE_STYLE_FILL_AREA(#195);
#194=FILL_AREA_STYLE($,(#196));
#195=FILL_AREA_STYLE($,(#197));
#196=FILL_AREA_STYLE_COLOUR($,#198);
#197=FILL_AREA_STYLE_COLOUR($,#199);
#198=COLOUR_RGB('',0.862745098039216,0.627450980392157,0.0588235294117647);
#199=COLOUR_RGB('',0.862745098039216,0.627450980392157,0.0588235294117647);
ENDSEC;
END-ISO-10303-21;
