ISO-10303-21;
HEADER;
/* Generated by software containing ST-Developer
 * from STEP Tools, Inc. (www.steptools.com) 
 */

FILE_DESCRIPTION(
/* description */ ('Alibre Inc.'),
/* implementation_level */ '2;1');

FILE_NAME(
/* name */ 'export0',
/* time_stamp */ '2009-09-23T11:22:08-07:00',
/* author */ (''),
/* organization */ (''),
/* preprocessor_version */ 'ST-DEVELOPER v10',
/* originating_system */ 'Alibre',
/* authorisation */ '');

FILE_SCHEMA (('AUTOMOTIVE_DESIGN'));
ENDSEC;

DATA;
#10=COLOUR_RGB('',0.686274509803922,0.686274509803922,0.686274509803922);
#11=FILL_AREA_STYLE_COLOUR('NAME_0',#10);
#12=FILL_AREA_STYLE('NAME_0',(#11));
#13=SURFACE_STYLE_FILL_AREA(#12);
#14=SURFACE_SIDE_STYLE('NAME_0',(#13));
#15=SURFACE_STYLE_USAGE(.POSITIVE.,#14);
#16=PRESENTATION_STYLE_ASSIGNMENT((#15));
#17=STYLED_ITEM('NAME_0',(#16),#1054);
#18=MECHANICAL_DESIGN_GEOMETRIC_PRESENTATION_REPRESENTATION('NAME_0',(#17),
#33);
#19=PRODUCT_DEFINITION_CONTEXT('part definition',#26,'design');
#20=SHAPE_DEFINITION_REPRESENTATION(#21,#1055);
#21=PRODUCT_DEFINITION_SHAPE('PRODUCT_VERSION_ID',
'PRODUCT_VERSION_DESCR',#22);
#22=PRODUCT_DEFINITION('PRODUCT_VERSION_ID','PRODUCT_VERSION_DESCR',#23,
#19);
#23=PRODUCT_DEFINITION_FORMATION_WITH_SPECIFIED_SOURCE(
'PRODUCT_VERSION_ID','PRODUCT_VERSION_DESCR',#28,.MADE.);
#24=PRODUCT_RELATED_PRODUCT_CATEGORY('part','part',(#28));
#25=APPLICATION_PROTOCOL_DEFINITION('Draft International Standard',
'automotive_design',1994,#26);
#26=APPLICATION_CONTEXT('automotive_Design');
#27=PRODUCT_CONTEXT('3D Mechanical Parts',#26,'mechanical');
#28=PRODUCT('','Pomona_3267','',(#27));
#29=(
LENGTH_UNIT()
NAMED_UNIT(*)
SI_UNIT(.CENTI.,.METRE.)
);
#30=(
NAMED_UNIT(*)
PLANE_ANGLE_UNIT()
SI_UNIT($,.RADIAN.)
);
#31=(
NAMED_UNIT(*)
SI_UNIT($,.STERADIAN.)
SOLID_ANGLE_UNIT()
);
#32=UNCERTAINTY_MEASURE_WITH_UNIT(LENGTH_MEASURE(1.E-006),#29,
'DISTANCE_ACCURACY_VALUE',
'Maximum model space distance between geometric entities at asserted co
nnectivities');
#33=(
GEOMETRIC_REPRESENTATION_CONTEXT(3)
GLOBAL_UNCERTAINTY_ASSIGNED_CONTEXT((#32))
GLOBAL_UNIT_ASSIGNED_CONTEXT((#31,#30,#29))
REPRESENTATION_CONTEXT('ID1','3D')
);
#34=VECTOR('',#734,1.);
#35=VECTOR('',#735,1.);
#36=VECTOR('',#736,1.);
#37=VECTOR('',#737,1.);
#38=VECTOR('',#738,1.);
#39=VECTOR('',#739,1.);
#40=VECTOR('',#743,1.);
#41=VECTOR('',#744,1.);
#42=VECTOR('',#745,1.);
#43=VECTOR('',#746,1.);
#44=VECTOR('',#747,1.);
#45=VECTOR('',#748,1.);
#46=VECTOR('',#752,1.);
#47=VECTOR('',#753,1.);
#48=VECTOR('',#755,1.);
#49=VECTOR('',#757,1.);
#50=VECTOR('',#759,1.);
#51=VECTOR('',#761,1.);
#52=VECTOR('',#861,1.);
#53=VECTOR('',#862,1.);
#54=VECTOR('',#863,1.);
#55=VECTOR('',#864,1.);
#56=VECTOR('',#866,1.);
#57=VECTOR('',#867,1.);
#58=VECTOR('',#868,1.);
#59=VECTOR('',#870,1.);
#60=VECTOR('',#871,1.);
#61=VECTOR('',#872,1.);
#62=VECTOR('',#874,1.);
#63=VECTOR('',#875,1.);
#64=VECTOR('',#876,1.);
#65=VECTOR('',#878,1.);
#66=VECTOR('',#879,1.);
#67=VECTOR('',#880,1.);
#68=VECTOR('',#882,1.);
#69=VECTOR('',#883,1.);
#70=LINE('',#895,#34);
#71=LINE('',#898,#35);
#72=LINE('',#900,#36);
#73=LINE('',#902,#37);
#74=LINE('',#904,#38);
#75=LINE('',#906,#39);
#76=LINE('',#910,#40);
#77=LINE('',#913,#41);
#78=LINE('',#915,#42);
#79=LINE('',#917,#43);
#80=LINE('',#919,#44);
#81=LINE('',#921,#45);
#82=LINE('',#925,#46);
#83=LINE('',#926,#47);
#84=LINE('',#928,#48);
#85=LINE('',#930,#49);
#86=LINE('',#932,#50);
#87=LINE('',#934,#51);
#88=LINE('',#1014,#52);
#89=LINE('',#1017,#53);
#90=LINE('',#1019,#54);
#91=LINE('',#1021,#55);
#92=LINE('',#1023,#56);
#93=LINE('',#1025,#57);
#94=LINE('',#1027,#58);
#95=LINE('',#1029,#59);
#96=LINE('',#1031,#60);
#97=LINE('',#1033,#61);
#98=LINE('',#1035,#62);
#99=LINE('',#1037,#63);
#100=LINE('',#1039,#64);
#101=LINE('',#1041,#65);
#102=LINE('',#1043,#66);
#103=LINE('',#1045,#67);
#104=LINE('',#1047,#68);
#105=LINE('',#1048,#69);
#106=PLANE('',#656);
#107=PLANE('',#658);
#108=PLANE('',#660);
#109=PLANE('',#661);
#110=PLANE('',#662);
#111=PLANE('',#663);
#112=PLANE('',#664);
#113=PLANE('',#665);
#114=PLANE('',#714);
#115=PLANE('',#715);
#116=PLANE('',#716);
#117=PLANE('',#717);
#118=PLANE('',#718);
#119=PLANE('',#719);
#120=PLANE('',#720);
#121=PLANE('',#721);
#122=PLANE('',#722);
#123=CONICAL_SURFACE('',#654,0.254,0.567232006898155);
#124=CONICAL_SURFACE('',#666,0.288379562042634,1.04719755119653);
#125=CONICAL_SURFACE('',#669,0.288379562042635,1.0471975511966);
#126=CONICAL_SURFACE('',#670,0.288379562042635,1.0471975511966);
#127=CONICAL_SURFACE('',#674,0.288379562042634,1.04719755119653);
#128=CONICAL_SURFACE('',#676,0.288379562042635,1.0471975511966);
#129=CONICAL_SURFACE('',#679,0.288379562042634,1.04719755119653);
#130=CONICAL_SURFACE('',#681,0.288379562042635,1.0471975511966);
#131=CONICAL_SURFACE('',#684,0.288379562042634,1.04719755119653);
#132=CONICAL_SURFACE('',#686,0.288379562042635,1.0471975511966);
#133=CONICAL_SURFACE('',#689,0.288379562042634,1.04719755119653);
#134=CONICAL_SURFACE('',#691,0.288379562042635,1.0471975511966);
#135=CONICAL_SURFACE('',#694,0.288379562042634,1.04719755119653);
#136=CONICAL_SURFACE('',#696,0.288379562042635,1.0471975511966);
#137=CONICAL_SURFACE('',#699,0.288379562042634,1.04719755119653);
#138=CONICAL_SURFACE('',#701,0.288379562042635,1.0471975511966);
#139=CONICAL_SURFACE('',#704,0.288379562042634,1.04719755119653);
#140=CONICAL_SURFACE('',#706,0.288379562042635,1.0471975511966);
#141=CONICAL_SURFACE('',#709,0.288379562042634,1.04719755119653);
#142=CONICAL_SURFACE('',#711,0.288379562042635,1.0471975511966);
#143=VERTEX_POINT('',#888);
#144=VERTEX_POINT('',#890);
#145=VERTEX_POINT('',#893);
#146=VERTEX_POINT('',#896);
#147=VERTEX_POINT('',#897);
#148=VERTEX_POINT('',#899);
#149=VERTEX_POINT('',#901);
#150=VERTEX_POINT('',#903);
#151=VERTEX_POINT('',#905);
#152=VERTEX_POINT('',#908);
#153=VERTEX_POINT('',#911);
#154=VERTEX_POINT('',#912);
#155=VERTEX_POINT('',#914);
#156=VERTEX_POINT('',#916);
#157=VERTEX_POINT('',#918);
#158=VERTEX_POINT('',#920);
#159=VERTEX_POINT('',#923);
#160=VERTEX_POINT('',#938);
#161=VERTEX_POINT('',#940);
#162=VERTEX_POINT('',#944);
#163=VERTEX_POINT('',#947);
#164=VERTEX_POINT('',#950);
#165=VERTEX_POINT('',#953);
#166=VERTEX_POINT('',#955);
#167=VERTEX_POINT('',#958);
#168=VERTEX_POINT('',#961);
#169=VERTEX_POINT('',#963);
#170=VERTEX_POINT('',#966);
#171=VERTEX_POINT('',#969);
#172=VERTEX_POINT('',#971);
#173=VERTEX_POINT('',#974);
#174=VERTEX_POINT('',#977);
#175=VERTEX_POINT('',#979);
#176=VERTEX_POINT('',#982);
#177=VERTEX_POINT('',#985);
#178=VERTEX_POINT('',#987);
#179=VERTEX_POINT('',#990);
#180=VERTEX_POINT('',#993);
#181=VERTEX_POINT('',#995);
#182=VERTEX_POINT('',#998);
#183=VERTEX_POINT('',#1001);
#184=VERTEX_POINT('',#1003);
#185=VERTEX_POINT('',#1006);
#186=VERTEX_POINT('',#1009);
#187=VERTEX_POINT('',#1011);
#188=VERTEX_POINT('',#1015);
#189=VERTEX_POINT('',#1016);
#190=VERTEX_POINT('',#1018);
#191=VERTEX_POINT('',#1020);
#192=VERTEX_POINT('',#1024);
#193=VERTEX_POINT('',#1026);
#194=VERTEX_POINT('',#1030);
#195=VERTEX_POINT('',#1032);
#196=VERTEX_POINT('',#1036);
#197=VERTEX_POINT('',#1038);
#198=VERTEX_POINT('',#1042);
#199=VERTEX_POINT('',#1044);
#200=CIRCLE('',#652,0.21082);
#201=CIRCLE('',#653,0.21082);
#202=CIRCLE('',#655,0.254);
#203=CIRCLE('',#657,0.260658570366076);
#204=CIRCLE('',#659,0.31847937503932);
#205=CIRCLE('',#667,0.32258);
#206=CIRCLE('',#668,0.249099124085269);
#207=CIRCLE('',#671,0.32258);
#208=CIRCLE('',#673,0.32258);
#209=CIRCLE('',#675,0.249099124085269);
#210=CIRCLE('',#677,0.32258);
#211=CIRCLE('',#678,0.32258);
#212=CIRCLE('',#680,0.249099124085269);
#213=CIRCLE('',#682,0.32258);
#214=CIRCLE('',#683,0.32258);
#215=CIRCLE('',#685,0.249099124085269);
#216=CIRCLE('',#687,0.32258);
#217=CIRCLE('',#688,0.32258);
#218=CIRCLE('',#690,0.249099124085269);
#219=CIRCLE('',#692,0.32258);
#220=CIRCLE('',#693,0.32258);
#221=CIRCLE('',#695,0.249099124085269);
#222=CIRCLE('',#697,0.32258);
#223=CIRCLE('',#698,0.32258);
#224=CIRCLE('',#700,0.249099124085269);
#225=CIRCLE('',#702,0.32258);
#226=CIRCLE('',#703,0.32258);
#227=CIRCLE('',#705,0.249099124085269);
#228=CIRCLE('',#707,0.32258);
#229=CIRCLE('',#708,0.32258);
#230=CIRCLE('',#710,0.249099124085269);
#231=CIRCLE('',#712,0.301510225841737);
#232=CIRCLE('',#713,0.32258);
#233=EDGE_CURVE('',#143,#143,#200,.T.);
#234=EDGE_CURVE('',#144,#144,#201,.T.);
#235=EDGE_CURVE('',#145,#145,#202,.T.);
#236=EDGE_CURVE('',#146,#147,#70,.T.);
#237=EDGE_CURVE('',#148,#146,#71,.T.);
#238=EDGE_CURVE('',#149,#148,#72,.T.);
#239=EDGE_CURVE('',#150,#149,#73,.T.);
#240=EDGE_CURVE('',#151,#150,#74,.T.);
#241=EDGE_CURVE('',#147,#151,#75,.T.);
#242=EDGE_CURVE('',#152,#152,#203,.T.);
#243=EDGE_CURVE('',#153,#154,#76,.T.);
#244=EDGE_CURVE('',#154,#155,#77,.T.);
#245=EDGE_CURVE('',#155,#156,#78,.T.);
#246=EDGE_CURVE('',#156,#157,#79,.T.);
#247=EDGE_CURVE('',#157,#158,#80,.T.);
#248=EDGE_CURVE('',#158,#153,#81,.T.);
#249=EDGE_CURVE('',#159,#159,#204,.T.);
#250=EDGE_CURVE('',#155,#147,#82,.T.);
#251=EDGE_CURVE('',#154,#146,#83,.T.);
#252=EDGE_CURVE('',#156,#151,#84,.T.);
#253=EDGE_CURVE('',#157,#150,#85,.T.);
#254=EDGE_CURVE('',#158,#149,#86,.T.);
#255=EDGE_CURVE('',#153,#148,#87,.T.);
#256=EDGE_CURVE('',#160,#160,#205,.T.);
#257=EDGE_CURVE('',#161,#161,#206,.T.);
#258=EDGE_CURVE('',#162,#162,#207,.T.);
#259=EDGE_CURVE('',#163,#163,#208,.T.);
#260=EDGE_CURVE('',#164,#164,#209,.T.);
#261=EDGE_CURVE('',#165,#165,#210,.T.);
#262=EDGE_CURVE('',#166,#166,#211,.T.);
#263=EDGE_CURVE('',#167,#167,#212,.T.);
#264=EDGE_CURVE('',#168,#168,#213,.T.);
#265=EDGE_CURVE('',#169,#169,#214,.T.);
#266=EDGE_CURVE('',#170,#170,#215,.T.);
#267=EDGE_CURVE('',#171,#171,#216,.T.);
#268=EDGE_CURVE('',#172,#172,#217,.T.);
#269=EDGE_CURVE('',#173,#173,#218,.T.);
#270=EDGE_CURVE('',#174,#174,#219,.T.);
#271=EDGE_CURVE('',#175,#175,#220,.T.);
#272=EDGE_CURVE('',#176,#176,#221,.T.);
#273=EDGE_CURVE('',#177,#177,#222,.T.);
#274=EDGE_CURVE('',#178,#178,#223,.T.);
#275=EDGE_CURVE('',#179,#179,#224,.T.);
#276=EDGE_CURVE('',#180,#180,#225,.T.);
#277=EDGE_CURVE('',#181,#181,#226,.T.);
#278=EDGE_CURVE('',#182,#182,#227,.T.);
#279=EDGE_CURVE('',#183,#183,#228,.T.);
#280=EDGE_CURVE('',#184,#184,#229,.T.);
#281=EDGE_CURVE('',#185,#185,#230,.T.);
#282=EDGE_CURVE('',#186,#186,#231,.T.);
#283=EDGE_CURVE('',#187,#187,#232,.T.);
#284=EDGE_CURVE('',#188,#189,#88,.T.);
#285=EDGE_CURVE('',#190,#189,#89,.T.);
#286=EDGE_CURVE('',#190,#191,#90,.T.);
#287=EDGE_CURVE('',#191,#188,#91,.T.);
#288=EDGE_CURVE('',#189,#192,#92,.T.);
#289=EDGE_CURVE('',#193,#192,#93,.T.);
#290=EDGE_CURVE('',#193,#190,#94,.T.);
#291=EDGE_CURVE('',#192,#194,#95,.T.);
#292=EDGE_CURVE('',#195,#194,#96,.T.);
#293=EDGE_CURVE('',#195,#193,#97,.T.);
#294=EDGE_CURVE('',#194,#196,#98,.T.);
#295=EDGE_CURVE('',#197,#196,#99,.T.);
#296=EDGE_CURVE('',#197,#195,#100,.T.);
#297=EDGE_CURVE('',#196,#198,#101,.T.);
#298=EDGE_CURVE('',#199,#198,#102,.T.);
#299=EDGE_CURVE('',#199,#197,#103,.T.);
#300=EDGE_CURVE('',#198,#188,#104,.T.);
#301=EDGE_CURVE('',#191,#199,#105,.T.);
#302=ORIENTED_EDGE('',*,*,#233,.F.);
#303=ORIENTED_EDGE('',*,*,#234,.T.);
#304=ORIENTED_EDGE('',*,*,#234,.F.);
#305=ORIENTED_EDGE('',*,*,#235,.F.);
#306=ORIENTED_EDGE('',*,*,#236,.F.);
#307=ORIENTED_EDGE('',*,*,#237,.F.);
#308=ORIENTED_EDGE('',*,*,#238,.F.);
#309=ORIENTED_EDGE('',*,*,#239,.F.);
#310=ORIENTED_EDGE('',*,*,#240,.F.);
#311=ORIENTED_EDGE('',*,*,#241,.F.);
#312=ORIENTED_EDGE('',*,*,#242,.F.);
#313=ORIENTED_EDGE('',*,*,#243,.T.);
#314=ORIENTED_EDGE('',*,*,#244,.T.);
#315=ORIENTED_EDGE('',*,*,#245,.T.);
#316=ORIENTED_EDGE('',*,*,#246,.T.);
#317=ORIENTED_EDGE('',*,*,#247,.T.);
#318=ORIENTED_EDGE('',*,*,#248,.T.);
#319=ORIENTED_EDGE('',*,*,#249,.F.);
#320=ORIENTED_EDGE('',*,*,#236,.T.);
#321=ORIENTED_EDGE('',*,*,#250,.F.);
#322=ORIENTED_EDGE('',*,*,#244,.F.);
#323=ORIENTED_EDGE('',*,*,#251,.T.);
#324=ORIENTED_EDGE('',*,*,#241,.T.);
#325=ORIENTED_EDGE('',*,*,#252,.F.);
#326=ORIENTED_EDGE('',*,*,#245,.F.);
#327=ORIENTED_EDGE('',*,*,#250,.T.);
#328=ORIENTED_EDGE('',*,*,#240,.T.);
#329=ORIENTED_EDGE('',*,*,#253,.F.);
#330=ORIENTED_EDGE('',*,*,#246,.F.);
#331=ORIENTED_EDGE('',*,*,#252,.T.);
#332=ORIENTED_EDGE('',*,*,#239,.T.);
#333=ORIENTED_EDGE('',*,*,#254,.F.);
#334=ORIENTED_EDGE('',*,*,#247,.F.);
#335=ORIENTED_EDGE('',*,*,#253,.T.);
#336=ORIENTED_EDGE('',*,*,#238,.T.);
#337=ORIENTED_EDGE('',*,*,#255,.F.);
#338=ORIENTED_EDGE('',*,*,#248,.F.);
#339=ORIENTED_EDGE('',*,*,#254,.T.);
#340=ORIENTED_EDGE('',*,*,#237,.T.);
#341=ORIENTED_EDGE('',*,*,#251,.F.);
#342=ORIENTED_EDGE('',*,*,#243,.F.);
#343=ORIENTED_EDGE('',*,*,#255,.T.);
#344=ORIENTED_EDGE('',*,*,#256,.F.);
#345=ORIENTED_EDGE('',*,*,#257,.T.);
#346=ORIENTED_EDGE('',*,*,#249,.T.);
#347=ORIENTED_EDGE('',*,*,#257,.F.);
#348=ORIENTED_EDGE('',*,*,#242,.T.);
#349=ORIENTED_EDGE('',*,*,#258,.F.);
#350=ORIENTED_EDGE('',*,*,#258,.T.);
#351=ORIENTED_EDGE('',*,*,#259,.T.);
#352=ORIENTED_EDGE('',*,*,#259,.F.);
#353=ORIENTED_EDGE('',*,*,#260,.T.);
#354=ORIENTED_EDGE('',*,*,#261,.F.);
#355=ORIENTED_EDGE('',*,*,#260,.F.);
#356=ORIENTED_EDGE('',*,*,#261,.T.);
#357=ORIENTED_EDGE('',*,*,#262,.T.);
#358=ORIENTED_EDGE('',*,*,#262,.F.);
#359=ORIENTED_EDGE('',*,*,#263,.T.);
#360=ORIENTED_EDGE('',*,*,#264,.F.);
#361=ORIENTED_EDGE('',*,*,#263,.F.);
#362=ORIENTED_EDGE('',*,*,#264,.T.);
#363=ORIENTED_EDGE('',*,*,#265,.T.);
#364=ORIENTED_EDGE('',*,*,#265,.F.);
#365=ORIENTED_EDGE('',*,*,#266,.T.);
#366=ORIENTED_EDGE('',*,*,#267,.F.);
#367=ORIENTED_EDGE('',*,*,#266,.F.);
#368=ORIENTED_EDGE('',*,*,#267,.T.);
#369=ORIENTED_EDGE('',*,*,#268,.T.);
#370=ORIENTED_EDGE('',*,*,#268,.F.);
#371=ORIENTED_EDGE('',*,*,#269,.T.);
#372=ORIENTED_EDGE('',*,*,#270,.F.);
#373=ORIENTED_EDGE('',*,*,#269,.F.);
#374=ORIENTED_EDGE('',*,*,#270,.T.);
#375=ORIENTED_EDGE('',*,*,#271,.T.);
#376=ORIENTED_EDGE('',*,*,#271,.F.);
#377=ORIENTED_EDGE('',*,*,#272,.T.);
#378=ORIENTED_EDGE('',*,*,#273,.F.);
#379=ORIENTED_EDGE('',*,*,#272,.F.);
#380=ORIENTED_EDGE('',*,*,#273,.T.);
#381=ORIENTED_EDGE('',*,*,#274,.T.);
#382=ORIENTED_EDGE('',*,*,#274,.F.);
#383=ORIENTED_EDGE('',*,*,#275,.T.);
#384=ORIENTED_EDGE('',*,*,#276,.F.);
#385=ORIENTED_EDGE('',*,*,#275,.F.);
#386=ORIENTED_EDGE('',*,*,#276,.T.);
#387=ORIENTED_EDGE('',*,*,#277,.T.);
#388=ORIENTED_EDGE('',*,*,#277,.F.);
#389=ORIENTED_EDGE('',*,*,#278,.T.);
#390=ORIENTED_EDGE('',*,*,#279,.F.);
#391=ORIENTED_EDGE('',*,*,#278,.F.);
#392=ORIENTED_EDGE('',*,*,#279,.T.);
#393=ORIENTED_EDGE('',*,*,#280,.T.);
#394=ORIENTED_EDGE('',*,*,#280,.F.);
#395=ORIENTED_EDGE('',*,*,#281,.T.);
#396=ORIENTED_EDGE('',*,*,#282,.F.);
#397=ORIENTED_EDGE('',*,*,#281,.F.);
#398=ORIENTED_EDGE('',*,*,#256,.T.);
#399=ORIENTED_EDGE('',*,*,#283,.F.);
#400=ORIENTED_EDGE('',*,*,#233,.T.);
#401=ORIENTED_EDGE('',*,*,#282,.T.);
#402=ORIENTED_EDGE('',*,*,#284,.T.);
#403=ORIENTED_EDGE('',*,*,#285,.F.);
#404=ORIENTED_EDGE('',*,*,#286,.T.);
#405=ORIENTED_EDGE('',*,*,#287,.T.);
#406=ORIENTED_EDGE('',*,*,#288,.T.);
#407=ORIENTED_EDGE('',*,*,#289,.F.);
#408=ORIENTED_EDGE('',*,*,#290,.T.);
#409=ORIENTED_EDGE('',*,*,#285,.T.);
#410=ORIENTED_EDGE('',*,*,#291,.T.);
#411=ORIENTED_EDGE('',*,*,#292,.F.);
#412=ORIENTED_EDGE('',*,*,#293,.T.);
#413=ORIENTED_EDGE('',*,*,#289,.T.);
#414=ORIENTED_EDGE('',*,*,#294,.T.);
#415=ORIENTED_EDGE('',*,*,#295,.F.);
#416=ORIENTED_EDGE('',*,*,#296,.T.);
#417=ORIENTED_EDGE('',*,*,#292,.T.);
#418=ORIENTED_EDGE('',*,*,#297,.T.);
#419=ORIENTED_EDGE('',*,*,#298,.F.);
#420=ORIENTED_EDGE('',*,*,#299,.T.);
#421=ORIENTED_EDGE('',*,*,#295,.T.);
#422=ORIENTED_EDGE('',*,*,#300,.T.);
#423=ORIENTED_EDGE('',*,*,#287,.F.);
#424=ORIENTED_EDGE('',*,*,#301,.T.);
#425=ORIENTED_EDGE('',*,*,#298,.T.);
#426=ORIENTED_EDGE('',*,*,#235,.T.);
#427=ORIENTED_EDGE('',*,*,#284,.F.);
#428=ORIENTED_EDGE('',*,*,#300,.F.);
#429=ORIENTED_EDGE('',*,*,#297,.F.);
#430=ORIENTED_EDGE('',*,*,#294,.F.);
#431=ORIENTED_EDGE('',*,*,#291,.F.);
#432=ORIENTED_EDGE('',*,*,#288,.F.);
#433=ORIENTED_EDGE('',*,*,#283,.T.);
#434=ORIENTED_EDGE('',*,*,#301,.F.);
#435=ORIENTED_EDGE('',*,*,#286,.F.);
#436=ORIENTED_EDGE('',*,*,#290,.F.);
#437=ORIENTED_EDGE('',*,*,#293,.F.);
#438=ORIENTED_EDGE('',*,*,#296,.F.);
#439=ORIENTED_EDGE('',*,*,#299,.F.);
#440=EDGE_LOOP('',(#302));
#441=EDGE_LOOP('',(#303));
#442=EDGE_LOOP('',(#304));
#443=EDGE_LOOP('',(#305));
#444=EDGE_LOOP('',(#306,#307,#308,#309,#310,#311));
#445=EDGE_LOOP('',(#312));
#446=EDGE_LOOP('',(#313,#314,#315,#316,#317,#318));
#447=EDGE_LOOP('',(#319));
#448=EDGE_LOOP('',(#320,#321,#322,#323));
#449=EDGE_LOOP('',(#324,#325,#326,#327));
#450=EDGE_LOOP('',(#328,#329,#330,#331));
#451=EDGE_LOOP('',(#332,#333,#334,#335));
#452=EDGE_LOOP('',(#336,#337,#338,#339));
#453=EDGE_LOOP('',(#340,#341,#342,#343));
#454=EDGE_LOOP('',(#344));
#455=EDGE_LOOP('',(#345));
#456=EDGE_LOOP('',(#346));
#457=EDGE_LOOP('',(#347));
#458=EDGE_LOOP('',(#348));
#459=EDGE_LOOP('',(#349));
#460=EDGE_LOOP('',(#350));
#461=EDGE_LOOP('',(#351));
#462=EDGE_LOOP('',(#352));
#463=EDGE_LOOP('',(#353));
#464=EDGE_LOOP('',(#354));
#465=EDGE_LOOP('',(#355));
#466=EDGE_LOOP('',(#356));
#467=EDGE_LOOP('',(#357));
#468=EDGE_LOOP('',(#358));
#469=EDGE_LOOP('',(#359));
#470=EDGE_LOOP('',(#360));
#471=EDGE_LOOP('',(#361));
#472=EDGE_LOOP('',(#362));
#473=EDGE_LOOP('',(#363));
#474=EDGE_LOOP('',(#364));
#475=EDGE_LOOP('',(#365));
#476=EDGE_LOOP('',(#366));
#477=EDGE_LOOP('',(#367));
#478=EDGE_LOOP('',(#368));
#479=EDGE_LOOP('',(#369));
#480=EDGE_LOOP('',(#370));
#481=EDGE_LOOP('',(#371));
#482=EDGE_LOOP('',(#372));
#483=EDGE_LOOP('',(#373));
#484=EDGE_LOOP('',(#374));
#485=EDGE_LOOP('',(#375));
#486=EDGE_LOOP('',(#376));
#487=EDGE_LOOP('',(#377));
#488=EDGE_LOOP('',(#378));
#489=EDGE_LOOP('',(#379));
#490=EDGE_LOOP('',(#380));
#491=EDGE_LOOP('',(#381));
#492=EDGE_LOOP('',(#382));
#493=EDGE_LOOP('',(#383));
#494=EDGE_LOOP('',(#384));
#495=EDGE_LOOP('',(#385));
#496=EDGE_LOOP('',(#386));
#497=EDGE_LOOP('',(#387));
#498=EDGE_LOOP('',(#388));
#499=EDGE_LOOP('',(#389));
#500=EDGE_LOOP('',(#390));
#501=EDGE_LOOP('',(#391));
#502=EDGE_LOOP('',(#392));
#503=EDGE_LOOP('',(#393));
#504=EDGE_LOOP('',(#394));
#505=EDGE_LOOP('',(#395));
#506=EDGE_LOOP('',(#396));
#507=EDGE_LOOP('',(#397));
#508=EDGE_LOOP('',(#398));
#509=EDGE_LOOP('',(#399));
#510=EDGE_LOOP('',(#400));
#511=EDGE_LOOP('',(#401));
#512=EDGE_LOOP('',(#402,#403,#404,#405));
#513=EDGE_LOOP('',(#406,#407,#408,#409));
#514=EDGE_LOOP('',(#410,#411,#412,#413));
#515=EDGE_LOOP('',(#414,#415,#416,#417));
#516=EDGE_LOOP('',(#418,#419,#420,#421));
#517=EDGE_LOOP('',(#422,#423,#424,#425));
#518=EDGE_LOOP('',(#426));
#519=EDGE_LOOP('',(#427,#428,#429,#430,#431,#432));
#520=EDGE_LOOP('',(#433));
#521=EDGE_LOOP('',(#434,#435,#436,#437,#438,#439));
#522=FACE_BOUND('',#440,.T.);
#523=FACE_BOUND('',#441,.T.);
#524=FACE_BOUND('',#442,.T.);
#525=FACE_BOUND('',#443,.T.);
#526=FACE_BOUND('',#444,.T.);
#527=FACE_BOUND('',#445,.T.);
#528=FACE_BOUND('',#446,.T.);
#529=FACE_BOUND('',#447,.T.);
#530=FACE_BOUND('',#448,.T.);
#531=FACE_BOUND('',#449,.T.);
#532=FACE_BOUND('',#450,.T.);
#533=FACE_BOUND('',#451,.T.);
#534=FACE_BOUND('',#452,.T.);
#535=FACE_BOUND('',#453,.T.);
#536=FACE_BOUND('',#454,.T.);
#537=FACE_BOUND('',#455,.T.);
#538=FACE_BOUND('',#456,.T.);
#539=FACE_BOUND('',#457,.T.);
#540=FACE_BOUND('',#458,.T.);
#541=FACE_BOUND('',#459,.T.);
#542=FACE_BOUND('',#460,.T.);
#543=FACE_BOUND('',#461,.T.);
#544=FACE_BOUND('',#462,.T.);
#545=FACE_BOUND('',#463,.T.);
#546=FACE_BOUND('',#464,.T.);
#547=FACE_BOUND('',#465,.T.);
#548=FACE_BOUND('',#466,.T.);
#549=FACE_BOUND('',#467,.T.);
#550=FACE_BOUND('',#468,.T.);
#551=FACE_BOUND('',#469,.T.);
#552=FACE_BOUND('',#470,.T.);
#553=FACE_BOUND('',#471,.T.);
#554=FACE_BOUND('',#472,.T.);
#555=FACE_BOUND('',#473,.T.);
#556=FACE_BOUND('',#474,.T.);
#557=FACE_BOUND('',#475,.T.);
#558=FACE_BOUND('',#476,.T.);
#559=FACE_BOUND('',#477,.T.);
#560=FACE_BOUND('',#478,.T.);
#561=FACE_BOUND('',#479,.T.);
#562=FACE_BOUND('',#480,.T.);
#563=FACE_BOUND('',#481,.T.);
#564=FACE_BOUND('',#482,.T.);
#565=FACE_BOUND('',#483,.T.);
#566=FACE_BOUND('',#484,.T.);
#567=FACE_BOUND('',#485,.T.);
#568=FACE_BOUND('',#486,.T.);
#569=FACE_BOUND('',#487,.T.);
#570=FACE_BOUND('',#488,.T.);
#571=FACE_BOUND('',#489,.T.);
#572=FACE_BOUND('',#490,.T.);
#573=FACE_BOUND('',#491,.T.);
#574=FACE_BOUND('',#492,.T.);
#575=FACE_BOUND('',#493,.T.);
#576=FACE_BOUND('',#494,.T.);
#577=FACE_BOUND('',#495,.T.);
#578=FACE_BOUND('',#496,.T.);
#579=FACE_BOUND('',#497,.T.);
#580=FACE_BOUND('',#498,.T.);
#581=FACE_BOUND('',#499,.T.);
#582=FACE_BOUND('',#500,.T.);
#583=FACE_BOUND('',#501,.T.);
#584=FACE_BOUND('',#502,.T.);
#585=FACE_BOUND('',#503,.T.);
#586=FACE_BOUND('',#504,.T.);
#587=FACE_BOUND('',#505,.T.);
#588=FACE_BOUND('',#506,.T.);
#589=FACE_BOUND('',#507,.T.);
#590=FACE_BOUND('',#508,.T.);
#591=FACE_BOUND('',#509,.T.);
#592=FACE_BOUND('',#510,.T.);
#593=FACE_BOUND('',#511,.T.);
#594=FACE_BOUND('',#512,.T.);
#595=FACE_BOUND('',#513,.T.);
#596=FACE_BOUND('',#514,.T.);
#597=FACE_BOUND('',#515,.T.);
#598=FACE_BOUND('',#516,.T.);
#599=FACE_BOUND('',#517,.T.);
#600=FACE_BOUND('',#518,.T.);
#601=FACE_BOUND('',#519,.T.);
#602=FACE_BOUND('',#520,.T.);
#603=FACE_BOUND('',#521,.T.);
#604=ADVANCED_FACE('',(#522,#523),#1051,.F.);
#605=ADVANCED_FACE('',(#524,#525),#123,.F.);
#606=ADVANCED_FACE('',(#526,#527),#106,.F.);
#607=ADVANCED_FACE('',(#528,#529),#107,.T.);
#608=ADVANCED_FACE('',(#530),#108,.T.);
#609=ADVANCED_FACE('',(#531),#109,.T.);
#610=ADVANCED_FACE('',(#532),#110,.T.);
#611=ADVANCED_FACE('',(#533),#111,.T.);
#612=ADVANCED_FACE('',(#534),#112,.T.);
#613=ADVANCED_FACE('',(#535),#113,.T.);
#614=ADVANCED_FACE('',(#536,#537),#124,.T.);
#615=ADVANCED_FACE('',(#538,#539),#125,.T.);
#616=ADVANCED_FACE('',(#540,#541),#126,.T.);
#617=ADVANCED_FACE('',(#542,#543),#1052,.T.);
#618=ADVANCED_FACE('',(#544,#545),#127,.T.);
#619=ADVANCED_FACE('',(#546,#547),#128,.T.);
#620=ADVANCED_FACE('',(#548,#549),#1052,.T.);
#621=ADVANCED_FACE('',(#550,#551),#129,.T.);
#622=ADVANCED_FACE('',(#552,#553),#130,.T.);
#623=ADVANCED_FACE('',(#554,#555),#1052,.T.);
#624=ADVANCED_FACE('',(#556,#557),#131,.T.);
#625=ADVANCED_FACE('',(#558,#559),#132,.T.);
#626=ADVANCED_FACE('',(#560,#561),#1052,.T.);
#627=ADVANCED_FACE('',(#562,#563),#133,.T.);
#628=ADVANCED_FACE('',(#564,#565),#134,.T.);
#629=ADVANCED_FACE('',(#566,#567),#1052,.T.);
#630=ADVANCED_FACE('',(#568,#569),#135,.T.);
#631=ADVANCED_FACE('',(#570,#571),#136,.T.);
#632=ADVANCED_FACE('',(#572,#573),#1052,.T.);
#633=ADVANCED_FACE('',(#574,#575),#137,.T.);
#634=ADVANCED_FACE('',(#576,#577),#138,.T.);
#635=ADVANCED_FACE('',(#578,#579),#1052,.T.);
#636=ADVANCED_FACE('',(#580,#581),#139,.T.);
#637=ADVANCED_FACE('',(#582,#583),#140,.T.);
#638=ADVANCED_FACE('',(#584,#585),#1052,.T.);
#639=ADVANCED_FACE('',(#586,#587),#141,.T.);
#640=ADVANCED_FACE('',(#588,#589),#142,.T.);
#641=ADVANCED_FACE('',(#590,#591),#1052,.T.);
#642=ADVANCED_FACE('',(#592,#593),#114,.F.);
#643=ADVANCED_FACE('',(#594),#115,.T.);
#644=ADVANCED_FACE('',(#595),#116,.T.);
#645=ADVANCED_FACE('',(#596),#117,.T.);
#646=ADVANCED_FACE('',(#597),#118,.T.);
#647=ADVANCED_FACE('',(#598),#119,.T.);
#648=ADVANCED_FACE('',(#599),#120,.T.);
#649=ADVANCED_FACE('',(#600,#601),#121,.T.);
#650=ADVANCED_FACE('',(#602,#603),#122,.F.);
#651=AXIS2_PLACEMENT_3D('',#886,#723,#724);
#652=AXIS2_PLACEMENT_3D('',#887,#725,#726);
#653=AXIS2_PLACEMENT_3D('',#889,#727,#728);
#654=AXIS2_PLACEMENT_3D('',#891,#729,#730);
#655=AXIS2_PLACEMENT_3D('',#892,#731,#732);
#656=AXIS2_PLACEMENT_3D('',#894,#733,$);
#657=AXIS2_PLACEMENT_3D('',#907,#740,#741);
#658=AXIS2_PLACEMENT_3D('',#909,#742,$);
#659=AXIS2_PLACEMENT_3D('',#922,#749,#750);
#660=AXIS2_PLACEMENT_3D('',#924,#751,$);
#661=AXIS2_PLACEMENT_3D('',#927,#754,$);
#662=AXIS2_PLACEMENT_3D('',#929,#756,$);
#663=AXIS2_PLACEMENT_3D('',#931,#758,$);
#664=AXIS2_PLACEMENT_3D('',#933,#760,$);
#665=AXIS2_PLACEMENT_3D('',#935,#762,$);
#666=AXIS2_PLACEMENT_3D('',#936,#763,#764);
#667=AXIS2_PLACEMENT_3D('',#937,#765,#766);
#668=AXIS2_PLACEMENT_3D('',#939,#767,#768);
#669=AXIS2_PLACEMENT_3D('',#941,#769,#770);
#670=AXIS2_PLACEMENT_3D('',#942,#771,#772);
#671=AXIS2_PLACEMENT_3D('',#943,#773,#774);
#672=AXIS2_PLACEMENT_3D('',#945,#775,#776);
#673=AXIS2_PLACEMENT_3D('',#946,#777,#778);
#674=AXIS2_PLACEMENT_3D('',#948,#779,#780);
#675=AXIS2_PLACEMENT_3D('',#949,#781,#782);
#676=AXIS2_PLACEMENT_3D('',#951,#783,#784);
#677=AXIS2_PLACEMENT_3D('',#952,#785,#786);
#678=AXIS2_PLACEMENT_3D('',#954,#787,#788);
#679=AXIS2_PLACEMENT_3D('',#956,#789,#790);
#680=AXIS2_PLACEMENT_3D('',#957,#791,#792);
#681=AXIS2_PLACEMENT_3D('',#959,#793,#794);
#682=AXIS2_PLACEMENT_3D('',#960,#795,#796);
#683=AXIS2_PLACEMENT_3D('',#962,#797,#798);
#684=AXIS2_PLACEMENT_3D('',#964,#799,#800);
#685=AXIS2_PLACEMENT_3D('',#965,#801,#802);
#686=AXIS2_PLACEMENT_3D('',#967,#803,#804);
#687=AXIS2_PLACEMENT_3D('',#968,#805,#806);
#688=AXIS2_PLACEMENT_3D('',#970,#807,#808);
#689=AXIS2_PLACEMENT_3D('',#972,#809,#810);
#690=AXIS2_PLACEMENT_3D('',#973,#811,#812);
#691=AXIS2_PLACEMENT_3D('',#975,#813,#814);
#692=AXIS2_PLACEMENT_3D('',#976,#815,#816);
#693=AXIS2_PLACEMENT_3D('',#978,#817,#818);
#694=AXIS2_PLACEMENT_3D('',#980,#819,#820);
#695=AXIS2_PLACEMENT_3D('',#981,#821,#822);
#696=AXIS2_PLACEMENT_3D('',#983,#823,#824);
#697=AXIS2_PLACEMENT_3D('',#984,#825,#826);
#698=AXIS2_PLACEMENT_3D('',#986,#827,#828);
#699=AXIS2_PLACEMENT_3D('',#988,#829,#830);
#700=AXIS2_PLACEMENT_3D('',#989,#831,#832);
#701=AXIS2_PLACEMENT_3D('',#991,#833,#834);
#702=AXIS2_PLACEMENT_3D('',#992,#835,#836);
#703=AXIS2_PLACEMENT_3D('',#994,#837,#838);
#704=AXIS2_PLACEMENT_3D('',#996,#839,#840);
#705=AXIS2_PLACEMENT_3D('',#997,#841,#842);
#706=AXIS2_PLACEMENT_3D('',#999,#843,#844);
#707=AXIS2_PLACEMENT_3D('',#1000,#845,#846);
#708=AXIS2_PLACEMENT_3D('',#1002,#847,#848);
#709=AXIS2_PLACEMENT_3D('',#1004,#849,#850);
#710=AXIS2_PLACEMENT_3D('',#1005,#851,#852);
#711=AXIS2_PLACEMENT_3D('',#1007,#853,#854);
#712=AXIS2_PLACEMENT_3D('',#1008,#855,#856);
#713=AXIS2_PLACEMENT_3D('',#1010,#857,#858);
#714=AXIS2_PLACEMENT_3D('',#1012,#859,$);
#715=AXIS2_PLACEMENT_3D('',#1013,#860,$);
#716=AXIS2_PLACEMENT_3D('',#1022,#865,$);
#717=AXIS2_PLACEMENT_3D('',#1028,#869,$);
#718=AXIS2_PLACEMENT_3D('',#1034,#873,$);
#719=AXIS2_PLACEMENT_3D('',#1040,#877,$);
#720=AXIS2_PLACEMENT_3D('',#1046,#881,$);
#721=AXIS2_PLACEMENT_3D('',#1049,#884,$);
#722=AXIS2_PLACEMENT_3D('',#1050,#885,$);
#723=DIRECTION('',(0.,0.,-1.));
#724=DIRECTION('',(0.,0.21082,0.));
#725=DIRECTION('',(0.,0.,1.));
#726=DIRECTION('',(0.,0.21082,0.));
#727=DIRECTION('',(0.,0.,1.));
#728=DIRECTION('',(0.,0.21082,0.));
#729=DIRECTION('',(0.,0.,1.));
#730=DIRECTION('',(0.,0.254,0.));
#731=DIRECTION('',(0.,0.,-1.));
#732=DIRECTION('',(0.,0.254,0.));
#733=DIRECTION('',(1.88570228961537E-031,9.66488081585593E-032,1.));
#734=DIRECTION('',(0.,-1.,0.));
#735=DIRECTION('',(-0.866025403784437,-0.500000000000002,0.));
#736=DIRECTION('',(-0.866025403784439,0.5,0.));
#737=DIRECTION('',(0.,1.,0.));
#738=DIRECTION('',(0.866025403784438,0.5,0.));
#739=DIRECTION('',(0.866025403784439,-0.5,0.));
#740=DIRECTION('',(-1.88570228961537E-031,-9.66488081585593E-032,-1.));
#741=DIRECTION('',(0.,0.260658570366076,0.));
#742=DIRECTION('',(1.88570228961537E-031,9.66488081585593E-032,1.));
#743=DIRECTION('',(-0.866025403784437,-0.500000000000002,0.));
#744=DIRECTION('',(0.,-1.,0.));
#745=DIRECTION('',(0.866025403784439,-0.5,0.));
#746=DIRECTION('',(0.866025403784438,0.5,0.));
#747=DIRECTION('',(0.,1.,0.));
#748=DIRECTION('',(-0.866025403784439,0.5,0.));
#749=DIRECTION('',(1.88570228961537E-031,9.66488081585593E-032,1.));
#750=DIRECTION('',(0.,0.31847937503932,-3.54724277414742E-017));
#751=DIRECTION('',(-1.,0.,0.));
#752=DIRECTION('',(0.,0.,-1.));
#753=DIRECTION('',(0.,0.,-1.));
#754=DIRECTION('',(-0.5,-0.866025403784439,0.));
#755=DIRECTION('',(0.,0.,-1.));
#756=DIRECTION('',(0.5,-0.866025403784438,0.));
#757=DIRECTION('',(0.,0.,-1.));
#758=DIRECTION('',(1.,0.,0.));
#759=DIRECTION('',(0.,0.,-1.));
#760=DIRECTION('',(0.5,0.866025403784439,0.));
#761=DIRECTION('',(0.,0.,-1.));
#762=DIRECTION('',(-0.500000000000002,0.866025403784437,0.));
#763=DIRECTION('',(0.,0.,1.));
#764=DIRECTION('',(0.,0.288379562042634,-3.21198921450169E-017));
#765=DIRECTION('',(0.,0.,1.));
#766=DIRECTION('',(0.32258,0.,0.));
#767=DIRECTION('',(0.,0.,1.));
#768=DIRECTION('',(0.,0.249099124085269,-2.77448129207372E-017));
#769=DIRECTION('',(0.,0.,-1.));
#770=DIRECTION('',(0.,0.288379562042635,-3.21198921450169E-017));
#771=DIRECTION('',(0.,0.,-1.));
#772=DIRECTION('',(0.,0.288379562042635,0.));
#773=DIRECTION('',(0.,0.,-1.));
#774=DIRECTION('',(0.32258,0.,0.));
#775=DIRECTION('',(0.,0.,-1.));
#776=DIRECTION('',(0.32258,0.,0.));
#777=DIRECTION('',(0.,0.,1.));
#778=DIRECTION('',(0.32258,0.,0.));
#779=DIRECTION('',(0.,0.,1.));
#780=DIRECTION('',(0.,0.288379562042634,-5.1391827432027E-016));
#781=DIRECTION('',(0.,0.,1.));
#782=DIRECTION('',(0.,0.249099124085269,-4.43917006731795E-016));
#783=DIRECTION('',(0.,0.,-1.));
#784=DIRECTION('',(0.,0.288379562042635,-5.1391827432027E-016));
#785=DIRECTION('',(0.,0.,-1.));
#786=DIRECTION('',(0.32258,0.,0.));
#787=DIRECTION('',(0.,0.,1.));
#788=DIRECTION('',(0.32258,0.,0.));
#789=DIRECTION('',(0.,0.,1.));
#790=DIRECTION('',(0.,0.288379562042634,-5.1391827432027E-016));
#791=DIRECTION('',(0.,0.,1.));
#792=DIRECTION('',(0.,0.249099124085269,-4.43917006731795E-016));
#793=DIRECTION('',(0.,0.,-1.));
#794=DIRECTION('',(0.,0.288379562042635,-5.1391827432027E-016));
#795=DIRECTION('',(0.,0.,-1.));
#796=DIRECTION('',(0.32258,0.,0.));
#797=DIRECTION('',(0.,0.,1.));
#798=DIRECTION('',(0.32258,0.,0.));
#799=DIRECTION('',(0.,0.,1.));
#800=DIRECTION('',(0.,0.288379562042634,-5.1391827432027E-016));
#801=DIRECTION('',(0.,0.,1.));
#802=DIRECTION('',(0.,0.249099124085269,-4.43917006731795E-016));
#803=DIRECTION('',(0.,0.,-1.));
#804=DIRECTION('',(0.,0.288379562042635,-5.1391827432027E-016));
#805=DIRECTION('',(0.,0.,-1.));
#806=DIRECTION('',(0.32258,0.,0.));
#807=DIRECTION('',(0.,0.,1.));
#808=DIRECTION('',(0.32258,0.,0.));
#809=DIRECTION('',(0.,0.,1.));
#810=DIRECTION('',(0.,0.288379562042634,0.));
#811=DIRECTION('',(0.,0.,1.));
#812=DIRECTION('',(0.,0.249099124085269,0.));
#813=DIRECTION('',(0.,0.,-1.));
#814=DIRECTION('',(0.,0.288379562042635,0.));
#815=DIRECTION('',(0.,0.,-1.));
#816=DIRECTION('',(0.32258,0.,0.));
#817=DIRECTION('',(0.,0.,1.));
#818=DIRECTION('',(0.32258,0.,0.));
#819=DIRECTION('',(0.,0.,1.));
#820=DIRECTION('',(0.,0.288379562042634,0.));
#821=DIRECTION('',(0.,0.,1.));
#822=DIRECTION('',(0.,0.249099124085269,0.));
#823=DIRECTION('',(0.,0.,-1.));
#824=DIRECTION('',(0.,0.288379562042635,0.));
#825=DIRECTION('',(0.,0.,-1.));
#826=DIRECTION('',(0.32258,0.,0.));
#827=DIRECTION('',(0.,0.,1.));
#828=DIRECTION('',(0.32258,0.,0.));
#829=DIRECTION('',(0.,0.,1.));
#830=DIRECTION('',(0.,0.288379562042634,0.));
#831=DIRECTION('',(0.,0.,1.));
#832=DIRECTION('',(0.,0.249099124085269,0.));
#833=DIRECTION('',(0.,0.,-1.));
#834=DIRECTION('',(0.,0.288379562042635,0.));
#835=DIRECTION('',(0.,0.,-1.));
#836=DIRECTION('',(0.32258,0.,0.));
#837=DIRECTION('',(0.,0.,1.));
#838=DIRECTION('',(0.32258,0.,0.));
#839=DIRECTION('',(0.,0.,1.));
#840=DIRECTION('',(0.,0.288379562042634,0.));
#841=DIRECTION('',(0.,0.,1.));
#842=DIRECTION('',(0.,0.249099124085269,0.));
#843=DIRECTION('',(0.,0.,-1.));
#844=DIRECTION('',(0.,0.288379562042635,0.));
#845=DIRECTION('',(0.,0.,-1.));
#846=DIRECTION('',(0.32258,0.,0.));
#847=DIRECTION('',(0.,0.,1.));
#848=DIRECTION('',(0.32258,0.,0.));
#849=DIRECTION('',(0.,0.,1.));
#850=DIRECTION('',(0.,0.288379562042634,0.));
#851=DIRECTION('',(0.,0.,1.));
#852=DIRECTION('',(0.,0.249099124085269,0.));
#853=DIRECTION('',(0.,0.,-1.));
#854=DIRECTION('',(0.,0.288379562042635,0.));
#855=DIRECTION('',(0.,0.,-1.));
#856=DIRECTION('',(0.,0.301510225841737,0.));
#857=DIRECTION('',(0.,0.,1.));
#858=DIRECTION('',(0.32258,0.,0.));
#859=DIRECTION('',(0.,0.,1.));
#860=DIRECTION('',(0.5,0.866025403784439,0.));
#861=DIRECTION('',(0.866025403784439,-0.5,0.));
#862=DIRECTION('',(0.,0.,1.));
#863=DIRECTION('',(-0.866025403784439,0.5,0.));
#864=DIRECTION('',(0.,0.,1.));
#865=DIRECTION('',(1.,0.,0.));
#866=DIRECTION('',(0.,-1.,0.));
#867=DIRECTION('',(0.,0.,1.));
#868=DIRECTION('',(0.,1.,0.));
#869=DIRECTION('',(0.5,-0.866025403784438,0.));
#870=DIRECTION('',(-0.866025403784438,-0.5,0.));
#871=DIRECTION('',(0.,0.,1.));
#872=DIRECTION('',(0.866025403784438,0.5,0.));
#873=DIRECTION('',(-0.5,-0.866025403784439,0.));
#874=DIRECTION('',(-0.866025403784439,0.5,0.));
#875=DIRECTION('',(0.,0.,1.));
#876=DIRECTION('',(0.866025403784439,-0.5,0.));
#877=DIRECTION('',(-1.,0.,0.));
#878=DIRECTION('',(0.,1.,0.));
#879=DIRECTION('',(0.,0.,1.));
#880=DIRECTION('',(0.,-1.,0.));
#881=DIRECTION('',(-0.500000000000002,0.866025403784437,0.));
#882=DIRECTION('',(0.866025403784437,0.500000000000002,0.));
#883=DIRECTION('',(-0.866025403784437,-0.500000000000002,0.));
#884=DIRECTION('',(0.,0.,1.));
#885=DIRECTION('',(0.,0.,1.));
#886=CARTESIAN_POINT('',(7.63278329429795E-017,-9.71445146547012E-017,0.2794));
#887=CARTESIAN_POINT('',(7.63278329429795E-017,-9.71445146547012E-017,-1.24206));
#888=CARTESIAN_POINT('',(1.02144984094263E-016,-0.21082,-1.24206));
#889=CARTESIAN_POINT('',(7.63278329429795E-017,-9.71445146547012E-017,0.211620976780066));
#890=CARTESIAN_POINT('',(7.63278329429795E-017,0.21082,0.211620976780066));
#891=CARTESIAN_POINT('',(7.63278329429795E-017,-9.71445146547012E-017,0.2794));
#892=CARTESIAN_POINT('',(7.63278329429795E-017,-9.71445146547012E-017,0.2794));
#893=CARTESIAN_POINT('',(7.63278329429795E-017,0.254,0.2794));
#894=CARTESIAN_POINT('',(7.63278329429795E-017,-9.71445146547012E-017,-0.49276));
#895=CARTESIAN_POINT('',(-0.4191,0.241967497817371,-0.49276));
#896=CARTESIAN_POINT('',(-0.4191,0.241967497817371,-0.49276));
#897=CARTESIAN_POINT('',(-0.4191,-0.241967497817372,-0.49276));
#898=CARTESIAN_POINT('',(-7.53147866494076E-016,0.483934995634745,-0.49276));
#899=CARTESIAN_POINT('',(-7.53147866494076E-016,0.483934995634745,-0.49276));
#900=CARTESIAN_POINT('',(0.4191,0.241967497817372,-0.49276));
#901=CARTESIAN_POINT('',(0.4191,0.241967497817372,-0.49276));
#902=CARTESIAN_POINT('',(0.4191,-0.241967497817372,-0.49276));
#903=CARTESIAN_POINT('',(0.4191,-0.241967497817372,-0.49276));
#904=CARTESIAN_POINT('',(2.62754159210956E-016,-0.483934995634745,-0.49276));
#905=CARTESIAN_POINT('',(2.77555756156289E-016,-0.483934995634745,-0.49276));
#906=CARTESIAN_POINT('',(-0.4191,-0.241967497817372,-0.49276));
#907=CARTESIAN_POINT('',(0.,0.,-0.49276));
#908=CARTESIAN_POINT('',(-3.19204141448554E-017,-0.260658570366076,-0.49276));
#909=CARTESIAN_POINT('',(7.63278329429795E-017,-9.71445146547012E-017,-0.254));
#910=CARTESIAN_POINT('',(-7.53147866494076E-016,0.483934995634745,-0.254));
#911=CARTESIAN_POINT('',(-7.53147866494076E-016,0.483934995634745,-0.254));
#912=CARTESIAN_POINT('',(-0.4191,0.241967497817371,-0.254));
#913=CARTESIAN_POINT('',(-0.4191,0.241967497817371,-0.254));
#914=CARTESIAN_POINT('',(-0.4191,-0.241967497817372,-0.254));
#915=CARTESIAN_POINT('',(-0.4191,-0.241967497817372,-0.254));
#916=CARTESIAN_POINT('',(2.77555756156289E-016,-0.483934995634745,-0.254));
#917=CARTESIAN_POINT('',(2.62754159210956E-016,-0.483934995634745,-0.254));
#918=CARTESIAN_POINT('',(0.4191,-0.241967497817372,-0.254));
#919=CARTESIAN_POINT('',(0.4191,-0.241967497817372,-0.254));
#920=CARTESIAN_POINT('',(0.4191,0.241967497817372,-0.254));
#921=CARTESIAN_POINT('',(0.4191,0.241967497817372,-0.254));
#922=CARTESIAN_POINT('',(0.,0.,-0.254));
#923=CARTESIAN_POINT('',(3.90011866234531E-017,-0.31847937503932,-0.254));
#924=CARTESIAN_POINT('',(-0.4191,-4.71844785465692E-016,-0.254));
#925=CARTESIAN_POINT('',(-0.4191,-0.241967497817372,-0.254));
#926=CARTESIAN_POINT('',(-0.4191,0.241967497817371,-0.254));
#927=CARTESIAN_POINT('',(-0.20955,-0.362951246726058,-0.254));
#928=CARTESIAN_POINT('',(2.77555756156289E-016,-0.483934995634745,-0.254));
#929=CARTESIAN_POINT('',(0.20955,-0.362951246726058,-0.254));
#930=CARTESIAN_POINT('',(0.4191,-0.241967497817372,-0.254));
#931=CARTESIAN_POINT('',(0.4191,0.,-0.254));
#932=CARTESIAN_POINT('',(0.4191,0.241967497817372,-0.254));
#933=CARTESIAN_POINT('',(0.20955,0.362951246726058,-0.254));
#934=CARTESIAN_POINT('',(-7.53147866494076E-016,0.483934995634745,-0.254));
#935=CARTESIAN_POINT('',(-0.20955,0.362951246726058,-0.254));
#936=CARTESIAN_POINT('',(0.,0.,-0.191264722006661));
#937=CARTESIAN_POINT('',(0.,0.,-0.171519089945569));
#938=CARTESIAN_POINT('',(-0.32258,-3.95033517616022E-017,-0.171519089945569));
#939=CARTESIAN_POINT('',(0.,0.,-0.213943293435236));
#940=CARTESIAN_POINT('',(0.,0.249099124085269,-0.213943293435236));
#941=CARTESIAN_POINT('',(0.,0.,-0.236621864863807));
#942=CARTESIAN_POINT('',(0.,0.,-0.508764722006664));
#943=CARTESIAN_POINT('',(0.,0.,-0.528510354067752));
#944=CARTESIAN_POINT('',(-0.32258,3.95033517616022E-017,-0.528510354067752));
#945=CARTESIAN_POINT('',(0.,0.,0.));
#946=CARTESIAN_POINT('',(0.,0.,-0.534376232802712));
#947=CARTESIAN_POINT('',(-0.32258,-3.95033517616022E-017,-0.534376232802712));
#948=CARTESIAN_POINT('',(0.,0.,-0.554121864863804));
#949=CARTESIAN_POINT('',(0.,0.,-0.576800436292379));
#950=CARTESIAN_POINT('',(0.,0.249099124085269,-0.576800436292379));
#951=CARTESIAN_POINT('',(0.,0.,-0.59947900772095));
#952=CARTESIAN_POINT('',(0.,0.,-0.619224639782037));
#953=CARTESIAN_POINT('',(-0.32258,3.95033517616022E-017,-0.619224639782037));
#954=CARTESIAN_POINT('',(0.,0.,-0.625090518516998));
#955=CARTESIAN_POINT('',(-0.32258,-3.95033517616022E-017,-0.625090518516998));
#956=CARTESIAN_POINT('',(0.,0.,-0.644836150578089));
#957=CARTESIAN_POINT('',(0.,0.,-0.667514722006664));
#958=CARTESIAN_POINT('',(0.,0.249099124085269,-0.667514722006664));
#959=CARTESIAN_POINT('',(0.,0.,-0.690193293435235));
#960=CARTESIAN_POINT('',(0.,0.,-0.709938925496323));
#961=CARTESIAN_POINT('',(-0.32258,3.95033517616022E-017,-0.709938925496323));
#962=CARTESIAN_POINT('',(0.,0.,-0.715804804231284));
#963=CARTESIAN_POINT('',(-0.32258,-3.95033517616022E-017,-0.715804804231284));
#964=CARTESIAN_POINT('',(0.,0.,-0.735550436292375));
#965=CARTESIAN_POINT('',(0.,0.,-0.75822900772095));
#966=CARTESIAN_POINT('',(0.,0.249099124085269,-0.75822900772095));
#967=CARTESIAN_POINT('',(0.,0.,-0.780907579149521));
#968=CARTESIAN_POINT('',(0.,0.,-0.800653211210609));
#969=CARTESIAN_POINT('',(-0.32258,3.95033517616022E-017,-0.800653211210609));
#970=CARTESIAN_POINT('',(0.,0.,-0.806519089945569));
#971=CARTESIAN_POINT('',(-0.32258,-3.95033517616022E-017,-0.806519089945569));
#972=CARTESIAN_POINT('',(0.,0.,-0.826264722006661));
#973=CARTESIAN_POINT('',(0.,0.,-0.848943293435236));
#974=CARTESIAN_POINT('',(0.,0.249099124085269,-0.848943293435236));
#975=CARTESIAN_POINT('',(0.,0.,-0.871621864863807));
#976=CARTESIAN_POINT('',(0.,0.,-0.891367496924894));
#977=CARTESIAN_POINT('',(-0.32258,3.95033517616022E-017,-0.891367496924894));
#978=CARTESIAN_POINT('',(0.,0.,-0.897233375659855));
#979=CARTESIAN_POINT('',(-0.32258,-3.95033517616022E-017,-0.897233375659855));
#980=CARTESIAN_POINT('',(0.,0.,-0.916979007720946));
#981=CARTESIAN_POINT('',(0.,0.,-0.939657579149521));
#982=CARTESIAN_POINT('',(0.,0.249099124085269,-0.939657579149521));
#983=CARTESIAN_POINT('',(0.,0.,-0.962336150578093));
#984=CARTESIAN_POINT('',(0.,0.,-0.98208178263918));
#985=CARTESIAN_POINT('',(-0.32258,3.95033517616022E-017,-0.98208178263918));
#986=CARTESIAN_POINT('',(0.,0.,-0.987947661374141));
#987=CARTESIAN_POINT('',(-0.32258,-3.95033517616022E-017,-0.987947661374141));
#988=CARTESIAN_POINT('',(0.,0.,-1.00769329343523));
#989=CARTESIAN_POINT('',(0.,0.,-1.03037186486381));
#990=CARTESIAN_POINT('',(0.,0.249099124085269,-1.03037186486381));
#991=CARTESIAN_POINT('',(0.,0.,-1.05305043629238));
#992=CARTESIAN_POINT('',(0.,0.,-1.07279606835347));
#993=CARTESIAN_POINT('',(-0.32258,3.95033517616022E-017,-1.07279606835347));
#994=CARTESIAN_POINT('',(0.,0.,-1.07866194708843));
#995=CARTESIAN_POINT('',(-0.32258,-3.95033517616022E-017,-1.07866194708843));
#996=CARTESIAN_POINT('',(0.,0.,-1.09840757914952));
#997=CARTESIAN_POINT('',(0.,0.,-1.12108615057809));
#998=CARTESIAN_POINT('',(0.,0.249099124085269,-1.12108615057809));
#999=CARTESIAN_POINT('',(0.,0.,-1.14376472200666));
#1000=CARTESIAN_POINT('',(0.,0.,-1.16351035406775));
#1001=CARTESIAN_POINT('',(-0.32258,3.95033517616022E-017,-1.16351035406775));
#1002=CARTESIAN_POINT('',(0.,0.,-1.16937623280271));
#1003=CARTESIAN_POINT('',(-0.32258,-3.95033517616022E-017,-1.16937623280271));
#1004=CARTESIAN_POINT('',(0.,0.,-1.1891218648638));
#1005=CARTESIAN_POINT('',(0.,0.,-1.21180043629238));
#1006=CARTESIAN_POINT('',(0.,0.249099124085269,-1.21180043629238));
#1007=CARTESIAN_POINT('',(0.,0.,-1.23447900772095));
#1008=CARTESIAN_POINT('',(0.,0.,-1.24206));
#1009=CARTESIAN_POINT('',(-3.69231338308212E-017,-0.301510225841737,-1.24206));
#1010=CARTESIAN_POINT('',(0.,0.,0.));
#1011=CARTESIAN_POINT('',(0.32258,0.,0.));
#1012=CARTESIAN_POINT('',(0.,0.,-1.24206));
#1013=CARTESIAN_POINT('',(0.20955,0.362951246726058,0.));
#1014=CARTESIAN_POINT('',(0.4191,0.241967497817372,0.2794));
#1015=CARTESIAN_POINT('',(-7.53147866494076E-016,0.483934995634745,0.2794));
#1016=CARTESIAN_POINT('',(0.4191,0.241967497817372,0.2794));
#1017=CARTESIAN_POINT('',(0.4191,0.241967497817372,0.));
#1018=CARTESIAN_POINT('',(0.4191,0.241967497817372,0.));
#1019=CARTESIAN_POINT('',(0.4191,0.241967497817372,0.));
#1020=CARTESIAN_POINT('',(-7.53147866494076E-016,0.483934995634745,0.));
#1021=CARTESIAN_POINT('',(-7.53147866494076E-016,0.483934995634745,0.));
#1022=CARTESIAN_POINT('',(0.4191,0.,0.));
#1023=CARTESIAN_POINT('',(0.4191,-0.241967497817372,0.2794));
#1024=CARTESIAN_POINT('',(0.4191,-0.241967497817372,0.2794));
#1025=CARTESIAN_POINT('',(0.4191,-0.241967497817372,0.));
#1026=CARTESIAN_POINT('',(0.4191,-0.241967497817372,0.));
#1027=CARTESIAN_POINT('',(0.4191,-0.241967497817372,0.));
#1028=CARTESIAN_POINT('',(0.20955,-0.362951246726058,0.));
#1029=CARTESIAN_POINT('',(2.62754159210956E-016,-0.483934995634745,0.2794));
#1030=CARTESIAN_POINT('',(2.77555756156289E-016,-0.483934995634745,0.2794));
#1031=CARTESIAN_POINT('',(2.77555756156289E-016,-0.483934995634745,0.));
#1032=CARTESIAN_POINT('',(2.77555756156289E-016,-0.483934995634745,0.));
#1033=CARTESIAN_POINT('',(2.62754159210956E-016,-0.483934995634745,0.));
#1034=CARTESIAN_POINT('',(-0.20955,-0.362951246726058,0.));
#1035=CARTESIAN_POINT('',(-0.4191,-0.241967497817372,0.2794));
#1036=CARTESIAN_POINT('',(-0.4191,-0.241967497817372,0.2794));
#1037=CARTESIAN_POINT('',(-0.4191,-0.241967497817372,0.));
#1038=CARTESIAN_POINT('',(-0.4191,-0.241967497817372,0.));
#1039=CARTESIAN_POINT('',(-0.4191,-0.241967497817372,0.));
#1040=CARTESIAN_POINT('',(-0.4191,-4.71844785465692E-016,0.));
#1041=CARTESIAN_POINT('',(-0.4191,0.241967497817371,0.2794));
#1042=CARTESIAN_POINT('',(-0.4191,0.241967497817371,0.2794));
#1043=CARTESIAN_POINT('',(-0.4191,0.241967497817371,0.));
#1044=CARTESIAN_POINT('',(-0.4191,0.241967497817371,0.));
#1045=CARTESIAN_POINT('',(-0.4191,0.241967497817371,0.));
#1046=CARTESIAN_POINT('',(-0.20955,0.362951246726058,0.));
#1047=CARTESIAN_POINT('',(-7.53147866494076E-016,0.483934995634745,0.2794));
#1048=CARTESIAN_POINT('',(-7.53147866494076E-016,0.483934995634745,0.));
#1049=CARTESIAN_POINT('',(7.63278329429795E-017,-9.71445146547012E-017,0.2794));
#1050=CARTESIAN_POINT('',(7.63278329429795E-017,-9.71445146547012E-017,0.));
#1051=CYLINDRICAL_SURFACE('',#651,0.21082);
#1052=CYLINDRICAL_SURFACE('',#672,0.32258);
#1053=CLOSED_SHELL('',(#604,#605,#606,#607,#608,#609,#610,#611,#612,#613,
#614,#615,#616,#617,#618,#619,#620,#621,#622,#623,#624,#625,#626,#627,#628,
#629,#630,#631,#632,#633,#634,#635,#636,#637,#638,#639,#640,#641,#642,#643,
#644,#645,#646,#647,#648,#649,#650));
#1054=MANIFOLD_SOLID_BREP('',#1053);
#1055=ADVANCED_BREP_SHAPE_REPRESENTATION('',(#1054),#33);
ENDSEC;
END-ISO-10303-21;
