ISO-10303-21;
HEADER;
/* Generated by software containing ST-Developer
 * from STEP Tools, Inc. (www.steptools.com) 
 */

FILE_DESCRIPTION(
/* description */ ('Alibre Inc.'),
/* implementation_level */ '2;1');

FILE_NAME(
/* name */ 'export0',
/* time_stamp */ '2010-03-12T13:56:48-08:00',
/* author */ (''),
/* organization */ (''),
/* preprocessor_version */ 'ST-DEVELOPER v10',
/* originating_system */ 'Alibre',
/* authorisation */ '');

FILE_SCHEMA (('AUTOMOTIVE_DESIGN'));
ENDSEC;

DATA;
#10=CONTEXT_DEPENDENT_SHAPE_REPRESENTATION(#16,#44);
#11=CONTEXT_DEPENDENT_SHAPE_REPRESENTATION(#17,#45);
#12=NEXT_ASSEMBLY_USAGE_OCCURRENCE('NAUO_ID9','NAUO_NAME9',$,#48,#46,$);
#13=NEXT_ASSEMBLY_USAGE_OCCURRENCE('NAUO_ID19','NAUO_NAME19',$,#48,#47,$);
#14=ITEM_DEFINED_TRANSFORMATION('ITD_NAME0',$,#472,#471);
#15=ITEM_DEFINED_TRANSFORMATION('ITD_NAME10',$,#474,#473);
#16=(
REPRESENTATION_RELATIONSHIP('KeystoneCompact_wire',$,#63,#65)
REPRESENTATION_RELATIONSHIP_WITH_TRANSFORMATION(#14)
SHAPE_REPRESENTATION_RELATIONSHIP()
);
#17=(
REPRESENTATION_RELATIONSHIP('Keystone5006_black',$,#64,#65)
REPRESENTATION_RELATIONSHIP_WITH_TRANSFORMATION(#15)
SHAPE_REPRESENTATION_RELATIONSHIP()
);
#18=COLOUR_RGB('',0.792156862745098,0.788235294117647,0.776470588235294);
#19=COLOUR_RGB('',0.180392156862745,0.180392156862745,0.180392156862745);
#20=FILL_AREA_STYLE_COLOUR('NAME_0',#18);
#21=FILL_AREA_STYLE_COLOUR('NAME_0',#19);
#22=FILL_AREA_STYLE('NAME_0',(#20));
#23=FILL_AREA_STYLE('NAME_0',(#21));
#24=SURFACE_STYLE_FILL_AREA(#22);
#25=SURFACE_STYLE_FILL_AREA(#23);
#26=SURFACE_SIDE_STYLE('NAME_0',(#24));
#27=SURFACE_SIDE_STYLE('NAME_0',(#25));
#28=SURFACE_STYLE_USAGE(.POSITIVE.,#26);
#29=SURFACE_STYLE_USAGE(.POSITIVE.,#27);
#30=PRESENTATION_STYLE_ASSIGNMENT((#28));
#31=PRESENTATION_STYLE_ASSIGNMENT((#29));
#32=STYLED_ITEM('NAME_0',(#30),#693);
#33=STYLED_ITEM('NAME_0',(#31),#694);
#34=MECHANICAL_DESIGN_GEOMETRIC_PRESENTATION_REPRESENTATION('NAME_0',(#32,
#33),#80);
#35=PRODUCT_DEFINITION_CONTEXT('part definition',#56,'design');
#36=PRODUCT_DEFINITION_CONTEXT('part definition',#56,'design');
#37=PRODUCT_DEFINITION_CONTEXT('part definition',#56,'design');
#38=SHAPE_DEFINITION_REPRESENTATION(#41,#63);
#39=SHAPE_DEFINITION_REPRESENTATION(#42,#64);
#40=SHAPE_DEFINITION_REPRESENTATION(#43,#65);
#41=PRODUCT_DEFINITION_SHAPE('PRODUCT_VERSION_ID',
'PRODUCT_VERSION_DESCR',#46);
#42=PRODUCT_DEFINITION_SHAPE('PRODUCT_VERSION_ID',
'PRODUCT_VERSION_DESCR',#47);
#43=PRODUCT_DEFINITION_SHAPE('PRODUCT_VERSION_ID',
'PRODUCT_VERSION_DESCR',#48);
#44=PRODUCT_DEFINITION_SHAPE('NAME_10',$,#12);
#45=PRODUCT_DEFINITION_SHAPE('NAME_20',$,#13);
#46=PRODUCT_DEFINITION('KeystoneCompact_wire','PRODUCT_VERSION_DESCR',#49,
#35);
#47=PRODUCT_DEFINITION('Keystone5006_black','PRODUCT_VERSION_DESCR',#50,
#36);
#48=PRODUCT_DEFINITION('PRODUCT_VERSION_ID','PRODUCT_VERSION_DESCR',#51,
#37);
#49=PRODUCT_DEFINITION_FORMATION_WITH_SPECIFIED_SOURCE(
'PRODUCT_VERSION_ID','PRODUCT_VERSION_DESCR',#60,.MADE.);
#50=PRODUCT_DEFINITION_FORMATION_WITH_SPECIFIED_SOURCE(
'PRODUCT_VERSION_ID','PRODUCT_VERSION_DESCR',#61,.MADE.);
#51=PRODUCT_DEFINITION_FORMATION_WITH_SPECIFIED_SOURCE(
'PRODUCT_VERSION_ID','PRODUCT_VERSION_DESCR',#62,.MADE.);
#52=PRODUCT_RELATED_PRODUCT_CATEGORY('part','part',(#60));
#53=PRODUCT_RELATED_PRODUCT_CATEGORY('part','part',(#61));
#54=PRODUCT_RELATED_PRODUCT_CATEGORY('part','part',(#62));
#55=APPLICATION_PROTOCOL_DEFINITION('Draft International Standard',
'automotive_design',1994,#56);
#56=APPLICATION_CONTEXT('automotive_Design');
#57=PRODUCT_CONTEXT('3D Mechanical Parts',#56,'mechanical');
#58=PRODUCT_CONTEXT('3D Mechanical Parts',#56,'mechanical');
#59=PRODUCT_CONTEXT('3D Mechanical Parts',#56,'mechanical');
#60=PRODUCT('','KeystoneCompact_wire','',(#57));
#61=PRODUCT('','Keystone5006_black','',(#58));
#62=PRODUCT('','Keystone_5006','',(#59));
#63=SHAPE_REPRESENTATION('KeystoneCompact_wire',(#472),#80);
#64=SHAPE_REPRESENTATION('Keystone5006_black',(#474),#81);
#65=SHAPE_REPRESENTATION('NAME_0',(#471,#473),#82);
#66=SHAPE_REPRESENTATION_RELATIONSHIP('NAME_0',$,#63,#695);
#67=SHAPE_REPRESENTATION_RELATIONSHIP('NAME_0',$,#64,#696);
#68=(
LENGTH_UNIT()
NAMED_UNIT(*)
SI_UNIT(.CENTI.,.METRE.)
);
#69=(
LENGTH_UNIT()
NAMED_UNIT(*)
SI_UNIT(.CENTI.,.METRE.)
);
#70=(
LENGTH_UNIT()
NAMED_UNIT(*)
SI_UNIT(.CENTI.,.METRE.)
);
#71=(
NAMED_UNIT(*)
PLANE_ANGLE_UNIT()
SI_UNIT($,.RADIAN.)
);
#72=(
NAMED_UNIT(*)
PLANE_ANGLE_UNIT()
SI_UNIT($,.RADIAN.)
);
#73=(
NAMED_UNIT(*)
PLANE_ANGLE_UNIT()
SI_UNIT($,.RADIAN.)
);
#74=(
NAMED_UNIT(*)
SI_UNIT($,.STERADIAN.)
SOLID_ANGLE_UNIT()
);
#75=(
NAMED_UNIT(*)
SI_UNIT($,.STERADIAN.)
SOLID_ANGLE_UNIT()
);
#76=(
NAMED_UNIT(*)
SI_UNIT($,.STERADIAN.)
SOLID_ANGLE_UNIT()
);
#77=UNCERTAINTY_MEASURE_WITH_UNIT(LENGTH_MEASURE(1.E-006),#68,
'DISTANCE_ACCURACY_VALUE',
'Maximum model space distance between geometric entities at asserted co
nnectivities');
#78=UNCERTAINTY_MEASURE_WITH_UNIT(LENGTH_MEASURE(1.E-006),#69,
'DISTANCE_ACCURACY_VALUE',
'Maximum model space distance between geometric entities at asserted co
nnectivities');
#79=UNCERTAINTY_MEASURE_WITH_UNIT(LENGTH_MEASURE(1.E-006),#70,
'DISTANCE_ACCURACY_VALUE',
'Maximum model space distance between geometric entities at asserted co
nnectivities');
#80=(
GEOMETRIC_REPRESENTATION_CONTEXT(3)
GLOBAL_UNCERTAINTY_ASSIGNED_CONTEXT((#77))
GLOBAL_UNIT_ASSIGNED_CONTEXT((#74,#71,#68))
REPRESENTATION_CONTEXT('ID1','3D')
);
#81=(
GEOMETRIC_REPRESENTATION_CONTEXT(3)
GLOBAL_UNCERTAINTY_ASSIGNED_CONTEXT((#78))
GLOBAL_UNIT_ASSIGNED_CONTEXT((#75,#72,#69))
REPRESENTATION_CONTEXT('ID1','3D')
);
#82=(
GEOMETRIC_REPRESENTATION_CONTEXT(3)
GLOBAL_UNCERTAINTY_ASSIGNED_CONTEXT((#79))
GLOBAL_UNIT_ASSIGNED_CONTEXT((#76,#73,#70))
REPRESENTATION_CONTEXT('ID1','3D')
);
#83=PLANE('',#445);
#84=PLANE('',#446);
#85=PLANE('',#447);
#86=PLANE('',#457);
#87=PLANE('',#458);
#88=PLANE('',#459);
#89=PLANE('',#460);
#90=PLANE('',#461);
#91=PLANE('',#462);
#92=PLANE('',#463);
#93=PLANE('',#464);
#94=PLANE('',#465);
#95=PLANE('',#469);
#96=PLANE('',#470);
#97=VECTOR('',#479,1.);
#98=VECTOR('',#482,1.);
#99=VECTOR('',#487,1.);
#100=VECTOR('',#494,1.);
#101=VECTOR('',#498,1.);
#102=VECTOR('',#499,1.);
#103=VECTOR('',#500,1.);
#104=VECTOR('',#502,1.);
#105=VECTOR('',#503,1.);
#106=VECTOR('',#504,1.);
#107=VECTOR('',#506,1.);
#108=VECTOR('',#507,1.);
#109=VECTOR('',#508,1.);
#110=VECTOR('',#513,1.);
#111=VECTOR('',#520,1.);
#112=VECTOR('',#527,1.);
#113=VECTOR('',#531,1.);
#114=VECTOR('',#532,1.);
#115=VECTOR('',#533,1.);
#116=VECTOR('',#535,1.);
#117=VECTOR('',#536,1.);
#118=VECTOR('',#537,1.);
#119=VECTOR('',#539,1.);
#120=VECTOR('',#540,1.);
#121=VECTOR('',#544,1.);
#122=VECTOR('',#545,1.);
#123=VECTOR('',#546,1.);
#124=VECTOR('',#547,1.);
#125=VECTOR('',#549,1.);
#126=VECTOR('',#550,1.);
#127=VECTOR('',#551,1.);
#128=VECTOR('',#553,1.);
#129=VECTOR('',#554,1.);
#130=VECTOR('',#555,1.);
#131=VECTOR('',#557,1.);
#132=VECTOR('',#558,1.);
#133=LINE('',#579,#97);
#134=LINE('',#583,#98);
#135=LINE('',#587,#99);
#136=LINE('',#593,#100);
#137=LINE('',#597,#101);
#138=LINE('',#599,#102);
#139=LINE('',#601,#103);
#140=LINE('',#603,#104);
#141=LINE('',#605,#105);
#142=LINE('',#607,#106);
#143=LINE('',#609,#107);
#144=LINE('',#611,#108);
#145=LINE('',#613,#109);
#146=LINE('',#617,#110);
#147=LINE('',#623,#111);
#148=LINE('',#629,#112);
#149=LINE('',#633,#113);
#150=LINE('',#635,#114);
#151=LINE('',#637,#115);
#152=LINE('',#639,#116);
#153=LINE('',#641,#117);
#154=LINE('',#643,#118);
#155=LINE('',#645,#119);
#156=LINE('',#646,#120);
#157=LINE('',#650,#121);
#158=LINE('',#653,#122);
#159=LINE('',#655,#123);
#160=LINE('',#657,#124);
#161=LINE('',#659,#125);
#162=LINE('',#661,#126);
#163=LINE('',#663,#127);
#164=LINE('',#665,#128);
#165=LINE('',#667,#129);
#166=LINE('',#669,#130);
#167=LINE('',#671,#131);
#168=LINE('',#672,#132);
#169=VERTEX_POINT('',#577);
#170=VERTEX_POINT('',#578);
#171=VERTEX_POINT('',#580);
#172=VERTEX_POINT('',#582);
#173=VERTEX_POINT('',#586);
#174=VERTEX_POINT('',#588);
#175=VERTEX_POINT('',#592);
#176=VERTEX_POINT('',#594);
#177=VERTEX_POINT('',#598);
#178=VERTEX_POINT('',#600);
#179=VERTEX_POINT('',#604);
#180=VERTEX_POINT('',#606);
#181=VERTEX_POINT('',#610);
#182=VERTEX_POINT('',#612);
#183=VERTEX_POINT('',#616);
#184=VERTEX_POINT('',#618);
#185=VERTEX_POINT('',#622);
#186=VERTEX_POINT('',#624);
#187=VERTEX_POINT('',#628);
#188=VERTEX_POINT('',#630);
#189=VERTEX_POINT('',#634);
#190=VERTEX_POINT('',#636);
#191=VERTEX_POINT('',#640);
#192=VERTEX_POINT('',#642);
#193=VERTEX_POINT('',#651);
#194=VERTEX_POINT('',#652);
#195=VERTEX_POINT('',#654);
#196=VERTEX_POINT('',#656);
#197=VERTEX_POINT('',#660);
#198=VERTEX_POINT('',#662);
#199=VERTEX_POINT('',#666);
#200=VERTEX_POINT('',#668);
#201=VERTEX_POINT('',#675);
#202=VERTEX_POINT('',#677);
#203=CIRCLE('',#437,0.069);
#204=CIRCLE('',#438,0.069);
#205=CIRCLE('',#440,0.09);
#206=CIRCLE('',#441,0.09);
#207=CIRCLE('',#443,0.069);
#208=CIRCLE('',#444,0.069);
#209=CIRCLE('',#449,0.031);
#210=CIRCLE('',#450,0.031);
#211=CIRCLE('',#452,0.128);
#212=CIRCLE('',#453,0.128);
#213=CIRCLE('',#455,0.031);
#214=CIRCLE('',#456,0.031);
#215=CIRCLE('',#467,0.16);
#216=CIRCLE('',#468,0.16);
#217=EDGE_CURVE('',#169,#170,#203,.T.);
#218=EDGE_CURVE('',#171,#170,#133,.T.);
#219=EDGE_CURVE('',#171,#172,#204,.T.);
#220=EDGE_CURVE('',#172,#169,#134,.T.);
#221=EDGE_CURVE('',#170,#173,#205,.T.);
#222=EDGE_CURVE('',#174,#173,#135,.T.);
#223=EDGE_CURVE('',#171,#174,#206,.T.);
#224=EDGE_CURVE('',#173,#175,#207,.T.);
#225=EDGE_CURVE('',#176,#175,#136,.T.);
#226=EDGE_CURVE('',#176,#174,#208,.T.);
#227=EDGE_CURVE('',#175,#177,#137,.T.);
#228=EDGE_CURVE('',#178,#177,#138,.T.);
#229=EDGE_CURVE('',#176,#178,#139,.T.);
#230=EDGE_CURVE('',#177,#179,#140,.T.);
#231=EDGE_CURVE('',#180,#179,#141,.T.);
#232=EDGE_CURVE('',#180,#178,#142,.T.);
#233=EDGE_CURVE('',#179,#181,#143,.T.);
#234=EDGE_CURVE('',#182,#181,#144,.T.);
#235=EDGE_CURVE('',#182,#180,#145,.T.);
#236=EDGE_CURVE('',#181,#183,#209,.T.);
#237=EDGE_CURVE('',#184,#183,#146,.T.);
#238=EDGE_CURVE('',#182,#184,#210,.T.);
#239=EDGE_CURVE('',#183,#185,#211,.T.);
#240=EDGE_CURVE('',#186,#185,#147,.T.);
#241=EDGE_CURVE('',#186,#184,#212,.T.);
#242=EDGE_CURVE('',#185,#187,#213,.T.);
#243=EDGE_CURVE('',#188,#187,#148,.T.);
#244=EDGE_CURVE('',#186,#188,#214,.T.);
#245=EDGE_CURVE('',#187,#189,#149,.T.);
#246=EDGE_CURVE('',#190,#189,#150,.T.);
#247=EDGE_CURVE('',#190,#188,#151,.T.);
#248=EDGE_CURVE('',#189,#191,#152,.T.);
#249=EDGE_CURVE('',#192,#191,#153,.T.);
#250=EDGE_CURVE('',#190,#192,#154,.T.);
#251=EDGE_CURVE('',#191,#169,#155,.T.);
#252=EDGE_CURVE('',#192,#172,#156,.T.);
#253=EDGE_CURVE('',#193,#194,#157,.T.);
#254=EDGE_CURVE('',#195,#193,#158,.T.);
#255=EDGE_CURVE('',#196,#195,#159,.T.);
#256=EDGE_CURVE('',#196,#194,#160,.T.);
#257=EDGE_CURVE('',#194,#197,#161,.T.);
#258=EDGE_CURVE('',#198,#196,#162,.T.);
#259=EDGE_CURVE('',#198,#197,#163,.T.);
#260=EDGE_CURVE('',#197,#199,#164,.T.);
#261=EDGE_CURVE('',#200,#198,#165,.T.);
#262=EDGE_CURVE('',#200,#199,#166,.T.);
#263=EDGE_CURVE('',#199,#193,#167,.T.);
#264=EDGE_CURVE('',#195,#200,#168,.T.);
#265=EDGE_CURVE('',#201,#201,#215,.T.);
#266=EDGE_CURVE('',#202,#202,#216,.T.);
#267=ORIENTED_EDGE('',*,*,#217,.T.);
#268=ORIENTED_EDGE('',*,*,#218,.F.);
#269=ORIENTED_EDGE('',*,*,#219,.T.);
#270=ORIENTED_EDGE('',*,*,#220,.T.);
#271=ORIENTED_EDGE('',*,*,#221,.T.);
#272=ORIENTED_EDGE('',*,*,#222,.F.);
#273=ORIENTED_EDGE('',*,*,#223,.F.);
#274=ORIENTED_EDGE('',*,*,#218,.T.);
#275=ORIENTED_EDGE('',*,*,#224,.T.);
#276=ORIENTED_EDGE('',*,*,#225,.F.);
#277=ORIENTED_EDGE('',*,*,#226,.T.);
#278=ORIENTED_EDGE('',*,*,#222,.T.);
#279=ORIENTED_EDGE('',*,*,#227,.T.);
#280=ORIENTED_EDGE('',*,*,#228,.F.);
#281=ORIENTED_EDGE('',*,*,#229,.F.);
#282=ORIENTED_EDGE('',*,*,#225,.T.);
#283=ORIENTED_EDGE('',*,*,#230,.T.);
#284=ORIENTED_EDGE('',*,*,#231,.F.);
#285=ORIENTED_EDGE('',*,*,#232,.T.);
#286=ORIENTED_EDGE('',*,*,#228,.T.);
#287=ORIENTED_EDGE('',*,*,#233,.T.);
#288=ORIENTED_EDGE('',*,*,#234,.F.);
#289=ORIENTED_EDGE('',*,*,#235,.T.);
#290=ORIENTED_EDGE('',*,*,#231,.T.);
#291=ORIENTED_EDGE('',*,*,#236,.T.);
#292=ORIENTED_EDGE('',*,*,#237,.F.);
#293=ORIENTED_EDGE('',*,*,#238,.F.);
#294=ORIENTED_EDGE('',*,*,#234,.T.);
#295=ORIENTED_EDGE('',*,*,#239,.T.);
#296=ORIENTED_EDGE('',*,*,#240,.F.);
#297=ORIENTED_EDGE('',*,*,#241,.T.);
#298=ORIENTED_EDGE('',*,*,#237,.T.);
#299=ORIENTED_EDGE('',*,*,#242,.T.);
#300=ORIENTED_EDGE('',*,*,#243,.F.);
#301=ORIENTED_EDGE('',*,*,#244,.F.);
#302=ORIENTED_EDGE('',*,*,#240,.T.);
#303=ORIENTED_EDGE('',*,*,#245,.T.);
#304=ORIENTED_EDGE('',*,*,#246,.F.);
#305=ORIENTED_EDGE('',*,*,#247,.T.);
#306=ORIENTED_EDGE('',*,*,#243,.T.);
#307=ORIENTED_EDGE('',*,*,#248,.T.);
#308=ORIENTED_EDGE('',*,*,#249,.F.);
#309=ORIENTED_EDGE('',*,*,#250,.F.);
#310=ORIENTED_EDGE('',*,*,#246,.T.);
#311=ORIENTED_EDGE('',*,*,#251,.T.);
#312=ORIENTED_EDGE('',*,*,#220,.F.);
#313=ORIENTED_EDGE('',*,*,#252,.F.);
#314=ORIENTED_EDGE('',*,*,#249,.T.);
#315=ORIENTED_EDGE('',*,*,#217,.F.);
#316=ORIENTED_EDGE('',*,*,#251,.F.);
#317=ORIENTED_EDGE('',*,*,#248,.F.);
#318=ORIENTED_EDGE('',*,*,#245,.F.);
#319=ORIENTED_EDGE('',*,*,#242,.F.);
#320=ORIENTED_EDGE('',*,*,#239,.F.);
#321=ORIENTED_EDGE('',*,*,#236,.F.);
#322=ORIENTED_EDGE('',*,*,#233,.F.);
#323=ORIENTED_EDGE('',*,*,#230,.F.);
#324=ORIENTED_EDGE('',*,*,#227,.F.);
#325=ORIENTED_EDGE('',*,*,#224,.F.);
#326=ORIENTED_EDGE('',*,*,#221,.F.);
#327=ORIENTED_EDGE('',*,*,#252,.T.);
#328=ORIENTED_EDGE('',*,*,#219,.F.);
#329=ORIENTED_EDGE('',*,*,#223,.T.);
#330=ORIENTED_EDGE('',*,*,#226,.F.);
#331=ORIENTED_EDGE('',*,*,#229,.T.);
#332=ORIENTED_EDGE('',*,*,#232,.F.);
#333=ORIENTED_EDGE('',*,*,#235,.F.);
#334=ORIENTED_EDGE('',*,*,#238,.T.);
#335=ORIENTED_EDGE('',*,*,#241,.F.);
#336=ORIENTED_EDGE('',*,*,#244,.T.);
#337=ORIENTED_EDGE('',*,*,#247,.F.);
#338=ORIENTED_EDGE('',*,*,#250,.T.);
#339=ORIENTED_EDGE('',*,*,#253,.F.);
#340=ORIENTED_EDGE('',*,*,#254,.F.);
#341=ORIENTED_EDGE('',*,*,#255,.F.);
#342=ORIENTED_EDGE('',*,*,#256,.T.);
#343=ORIENTED_EDGE('',*,*,#257,.F.);
#344=ORIENTED_EDGE('',*,*,#256,.F.);
#345=ORIENTED_EDGE('',*,*,#258,.F.);
#346=ORIENTED_EDGE('',*,*,#259,.T.);
#347=ORIENTED_EDGE('',*,*,#260,.F.);
#348=ORIENTED_EDGE('',*,*,#259,.F.);
#349=ORIENTED_EDGE('',*,*,#261,.F.);
#350=ORIENTED_EDGE('',*,*,#262,.T.);
#351=ORIENTED_EDGE('',*,*,#263,.F.);
#352=ORIENTED_EDGE('',*,*,#262,.F.);
#353=ORIENTED_EDGE('',*,*,#264,.F.);
#354=ORIENTED_EDGE('',*,*,#254,.T.);
#355=ORIENTED_EDGE('',*,*,#265,.T.);
#356=ORIENTED_EDGE('',*,*,#266,.T.);
#357=ORIENTED_EDGE('',*,*,#260,.T.);
#358=ORIENTED_EDGE('',*,*,#263,.T.);
#359=ORIENTED_EDGE('',*,*,#253,.T.);
#360=ORIENTED_EDGE('',*,*,#257,.T.);
#361=ORIENTED_EDGE('',*,*,#265,.F.);
#362=ORIENTED_EDGE('',*,*,#261,.T.);
#363=ORIENTED_EDGE('',*,*,#258,.T.);
#364=ORIENTED_EDGE('',*,*,#255,.T.);
#365=ORIENTED_EDGE('',*,*,#264,.T.);
#366=ORIENTED_EDGE('',*,*,#266,.F.);
#367=EDGE_LOOP('',(#267,#268,#269,#270));
#368=EDGE_LOOP('',(#271,#272,#273,#274));
#369=EDGE_LOOP('',(#275,#276,#277,#278));
#370=EDGE_LOOP('',(#279,#280,#281,#282));
#371=EDGE_LOOP('',(#283,#284,#285,#286));
#372=EDGE_LOOP('',(#287,#288,#289,#290));
#373=EDGE_LOOP('',(#291,#292,#293,#294));
#374=EDGE_LOOP('',(#295,#296,#297,#298));
#375=EDGE_LOOP('',(#299,#300,#301,#302));
#376=EDGE_LOOP('',(#303,#304,#305,#306));
#377=EDGE_LOOP('',(#307,#308,#309,#310));
#378=EDGE_LOOP('',(#311,#312,#313,#314));
#379=EDGE_LOOP('',(#315,#316,#317,#318,#319,#320,#321,#322,#323,#324,#325,
#326));
#380=EDGE_LOOP('',(#327,#328,#329,#330,#331,#332,#333,#334,#335,#336,#337,
#338));
#381=EDGE_LOOP('',(#339,#340,#341,#342));
#382=EDGE_LOOP('',(#343,#344,#345,#346));
#383=EDGE_LOOP('',(#347,#348,#349,#350));
#384=EDGE_LOOP('',(#351,#352,#353,#354));
#385=EDGE_LOOP('',(#355));
#386=EDGE_LOOP('',(#356));
#387=EDGE_LOOP('',(#357,#358,#359,#360));
#388=EDGE_LOOP('',(#361));
#389=EDGE_LOOP('',(#362,#363,#364,#365));
#390=EDGE_LOOP('',(#366));
#391=FACE_BOUND('',#367,.T.);
#392=FACE_BOUND('',#368,.T.);
#393=FACE_BOUND('',#369,.T.);
#394=FACE_BOUND('',#370,.T.);
#395=FACE_BOUND('',#371,.T.);
#396=FACE_BOUND('',#372,.T.);
#397=FACE_BOUND('',#373,.T.);
#398=FACE_BOUND('',#374,.T.);
#399=FACE_BOUND('',#375,.T.);
#400=FACE_BOUND('',#376,.T.);
#401=FACE_BOUND('',#377,.T.);
#402=FACE_BOUND('',#378,.T.);
#403=FACE_BOUND('',#379,.T.);
#404=FACE_BOUND('',#380,.T.);
#405=FACE_BOUND('',#381,.T.);
#406=FACE_BOUND('',#382,.T.);
#407=FACE_BOUND('',#383,.T.);
#408=FACE_BOUND('',#384,.T.);
#409=FACE_BOUND('',#385,.T.);
#410=FACE_BOUND('',#386,.T.);
#411=FACE_BOUND('',#387,.T.);
#412=FACE_BOUND('',#388,.T.);
#413=FACE_BOUND('',#389,.T.);
#414=FACE_BOUND('',#390,.T.);
#415=ADVANCED_FACE('',(#391),#684,.T.);
#416=ADVANCED_FACE('',(#392),#685,.F.);
#417=ADVANCED_FACE('',(#393),#686,.T.);
#418=ADVANCED_FACE('',(#394),#83,.T.);
#419=ADVANCED_FACE('',(#395),#84,.T.);
#420=ADVANCED_FACE('',(#396),#85,.T.);
#421=ADVANCED_FACE('',(#397),#687,.F.);
#422=ADVANCED_FACE('',(#398),#688,.T.);
#423=ADVANCED_FACE('',(#399),#689,.F.);
#424=ADVANCED_FACE('',(#400),#86,.T.);
#425=ADVANCED_FACE('',(#401),#87,.T.);
#426=ADVANCED_FACE('',(#402),#88,.T.);
#427=ADVANCED_FACE('',(#403),#89,.T.);
#428=ADVANCED_FACE('',(#404),#90,.F.);
#429=ADVANCED_FACE('',(#405),#91,.F.);
#430=ADVANCED_FACE('',(#406),#92,.F.);
#431=ADVANCED_FACE('',(#407),#93,.F.);
#432=ADVANCED_FACE('',(#408),#94,.F.);
#433=ADVANCED_FACE('',(#409,#410),#690,.T.);
#434=ADVANCED_FACE('',(#411,#412),#95,.T.);
#435=ADVANCED_FACE('',(#413,#414),#96,.F.);
#436=AXIS2_PLACEMENT_3D('',#575,#475,#476);
#437=AXIS2_PLACEMENT_3D('',#576,#477,#478);
#438=AXIS2_PLACEMENT_3D('',#581,#480,#481);
#439=AXIS2_PLACEMENT_3D('',#584,#483,#484);
#440=AXIS2_PLACEMENT_3D('',#585,#485,#486);
#441=AXIS2_PLACEMENT_3D('',#589,#488,#489);
#442=AXIS2_PLACEMENT_3D('',#590,#490,#491);
#443=AXIS2_PLACEMENT_3D('',#591,#492,#493);
#444=AXIS2_PLACEMENT_3D('',#595,#495,#496);
#445=AXIS2_PLACEMENT_3D('',#596,#497,$);
#446=AXIS2_PLACEMENT_3D('',#602,#501,$);
#447=AXIS2_PLACEMENT_3D('',#608,#505,$);
#448=AXIS2_PLACEMENT_3D('',#614,#509,#510);
#449=AXIS2_PLACEMENT_3D('',#615,#511,#512);
#450=AXIS2_PLACEMENT_3D('',#619,#514,#515);
#451=AXIS2_PLACEMENT_3D('',#620,#516,#517);
#452=AXIS2_PLACEMENT_3D('',#621,#518,#519);
#453=AXIS2_PLACEMENT_3D('',#625,#521,#522);
#454=AXIS2_PLACEMENT_3D('',#626,#523,#524);
#455=AXIS2_PLACEMENT_3D('',#627,#525,#526);
#456=AXIS2_PLACEMENT_3D('',#631,#528,#529);
#457=AXIS2_PLACEMENT_3D('',#632,#530,$);
#458=AXIS2_PLACEMENT_3D('',#638,#534,$);
#459=AXIS2_PLACEMENT_3D('',#644,#538,$);
#460=AXIS2_PLACEMENT_3D('',#647,#541,$);
#461=AXIS2_PLACEMENT_3D('',#648,#542,$);
#462=AXIS2_PLACEMENT_3D('',#649,#543,$);
#463=AXIS2_PLACEMENT_3D('',#658,#548,$);
#464=AXIS2_PLACEMENT_3D('',#664,#552,$);
#465=AXIS2_PLACEMENT_3D('',#670,#556,$);
#466=AXIS2_PLACEMENT_3D('',#673,#559,#560);
#467=AXIS2_PLACEMENT_3D('',#674,#561,#562);
#468=AXIS2_PLACEMENT_3D('',#676,#563,#564);
#469=AXIS2_PLACEMENT_3D('',#678,#565,$);
#470=AXIS2_PLACEMENT_3D('',#679,#566,$);
#471=AXIS2_PLACEMENT_3D('AXIS_PLACEMENT_1',#680,#567,#568);
#472=AXIS2_PLACEMENT_3D('AXIS_PLACEMENT_5',#681,#569,#570);
#473=AXIS2_PLACEMENT_3D('AXIS_PLACEMENT_11',#682,#571,#572);
#474=AXIS2_PLACEMENT_3D('AXIS_PLACEMENT_15',#683,#573,#574);
#475=DIRECTION('',(0.,1.,0.));
#476=DIRECTION('',(0.069,0.,0.));
#477=DIRECTION('',(0.,-1.,0.));
#478=DIRECTION('',(0.069,0.,0.));
#479=DIRECTION('',(0.,1.,0.));
#480=DIRECTION('',(0.,1.,0.));
#481=DIRECTION('',(0.069,0.,0.));
#482=DIRECTION('',(0.,1.,0.));
#483=DIRECTION('',(0.,1.,0.));
#484=DIRECTION('',(0.09,0.,0.));
#485=DIRECTION('',(0.,1.,0.));
#486=DIRECTION('',(0.09,0.,0.));
#487=DIRECTION('',(0.,1.,0.));
#488=DIRECTION('',(0.,1.,0.));
#489=DIRECTION('',(0.09,0.,0.));
#490=DIRECTION('',(0.,1.,0.));
#491=DIRECTION('',(0.069,0.,0.));
#492=DIRECTION('',(0.,-1.,0.));
#493=DIRECTION('',(0.069,0.,0.));
#494=DIRECTION('',(0.,1.,0.));
#495=DIRECTION('',(0.,1.,0.));
#496=DIRECTION('',(0.069,0.,0.));
#497=DIRECTION('',(-1.,0.,1.8359909753541E-016));
#498=DIRECTION('',(-1.8359909753541E-016,0.,-1.));
#499=DIRECTION('',(0.,1.,0.));
#500=DIRECTION('',(-1.8359909753541E-016,0.,-1.));
#501=DIRECTION('',(0.,0.,-1.));
#502=DIRECTION('',(1.,0.,0.));
#503=DIRECTION('',(0.,1.,0.));
#504=DIRECTION('',(-1.,0.,0.));
#505=DIRECTION('',(1.,0.,-1.8359909753541E-016));
#506=DIRECTION('',(1.8359909753541E-016,0.,1.));
#507=DIRECTION('',(0.,1.,0.));
#508=DIRECTION('',(-1.8359909753541E-016,0.,-1.));
#509=DIRECTION('',(0.,1.,0.));
#510=DIRECTION('',(0.031,0.,0.));
#511=DIRECTION('',(0.,1.,0.));
#512=DIRECTION('',(0.031,0.,0.));
#513=DIRECTION('',(0.,1.,0.));
#514=DIRECTION('',(0.,1.,0.));
#515=DIRECTION('',(0.031,0.,0.));
#516=DIRECTION('',(0.,1.,0.));
#517=DIRECTION('',(0.128,0.,0.));
#518=DIRECTION('',(0.,-1.,0.));
#519=DIRECTION('',(0.128,0.,0.));
#520=DIRECTION('',(0.,1.,0.));
#521=DIRECTION('',(0.,1.,0.));
#522=DIRECTION('',(0.128,0.,0.));
#523=DIRECTION('',(0.,1.,0.));
#524=DIRECTION('',(0.031,0.,0.));
#525=DIRECTION('',(0.,1.,0.));
#526=DIRECTION('',(0.031,0.,0.));
#527=DIRECTION('',(0.,1.,0.));
#528=DIRECTION('',(0.,1.,0.));
#529=DIRECTION('',(0.031,0.,0.));
#530=DIRECTION('',(-1.,0.,-1.8359909753541E-016));
#531=DIRECTION('',(1.8359909753541E-016,0.,-1.));
#532=DIRECTION('',(0.,1.,0.));
#533=DIRECTION('',(-1.8359909753541E-016,0.,1.));
#534=DIRECTION('',(0.,0.,-1.));
#535=DIRECTION('',(1.,0.,0.));
#536=DIRECTION('',(0.,1.,0.));
#537=DIRECTION('',(1.,0.,0.));
#538=DIRECTION('',(1.,0.,1.8359909753541E-016));
#539=DIRECTION('',(-1.8359909753541E-016,0.,1.));
#540=DIRECTION('',(-1.8359909753541E-016,0.,1.));
#541=DIRECTION('',(7.35937399052336E-033,1.,4.740666499736E-032));
#542=DIRECTION('',(7.35937399052336E-033,1.,4.740666499736E-032));
#543=DIRECTION('',(0.,-1.,0.));
#544=DIRECTION('',(-1.,0.,0.));
#545=DIRECTION('',(0.,0.,1.));
#546=DIRECTION('',(1.,0.,0.));
#547=DIRECTION('',(0.,0.,1.));
#548=DIRECTION('',(-1.,0.,0.));
#549=DIRECTION('',(0.,1.,0.));
#550=DIRECTION('',(0.,-1.,0.));
#551=DIRECTION('',(0.,0.,1.));
#552=DIRECTION('',(0.,1.,0.));
#553=DIRECTION('',(1.,0.,0.));
#554=DIRECTION('',(-1.,0.,0.));
#555=DIRECTION('',(0.,0.,1.));
#556=DIRECTION('',(1.,0.,0.));
#557=DIRECTION('',(0.,-1.,0.));
#558=DIRECTION('',(0.,1.,0.));
#559=DIRECTION('',(0.,0.,1.));
#560=DIRECTION('',(0.16,0.,0.));
#561=DIRECTION('',(0.,0.,-1.));
#562=DIRECTION('',(0.16,0.,0.));
#563=DIRECTION('',(0.,0.,1.));
#564=DIRECTION('',(0.16,0.,0.));
#565=DIRECTION('',(0.,0.,1.));
#566=DIRECTION('',(0.,0.,1.));
#567=DIRECTION('DIRECTION2',(0.,0.,1.));
#568=DIRECTION('DIRECTION3',(1.,0.,0.));
#569=DIRECTION('DIRECTION6',(0.,0.,1.));
#570=DIRECTION('DIRECTION7',(1.,0.,0.));
#571=DIRECTION('DIRECTION12',(0.,0.,1.));
#572=DIRECTION('DIRECTION13',(1.,0.,0.));
#573=DIRECTION('DIRECTION16',(0.,0.,1.));
#574=DIRECTION('DIRECTION17',(1.,0.,0.));
#575=CARTESIAN_POINT('',(-0.08937,-0.0405,0.312493334389469));
#576=CARTESIAN_POINT('',(-0.08937,0.0405,0.312493334389469));
#577=CARTESIAN_POINT('',(-0.02037,0.0405,0.312493334389469));
#578=CARTESIAN_POINT('',(-0.0505867924528302,0.0405,0.369562264748756));
#579=CARTESIAN_POINT('',(-0.0505867924528302,-0.0405,0.369562264748756));
#580=CARTESIAN_POINT('',(-0.0505867924528302,-0.0405,0.369562264748756));
#581=CARTESIAN_POINT('',(-0.08937,-0.0405,0.312493334389469));
#582=CARTESIAN_POINT('',(-0.02037,-0.0405,0.312493334389469));
#583=CARTESIAN_POINT('',(-0.02037,-0.0405,0.312493334389469));
#584=CARTESIAN_POINT('',(0.,-0.0405,0.444));
#585=CARTESIAN_POINT('',(0.,0.0405,0.444));
#586=CARTESIAN_POINT('',(0.0505867924528302,0.0405,0.369562264748756));
#587=CARTESIAN_POINT('',(0.0505867924528302,-0.0405,0.369562264748756));
#588=CARTESIAN_POINT('',(0.0505867924528302,-0.0405,0.369562264748756));
#589=CARTESIAN_POINT('',(0.,-0.0405,0.444));
#590=CARTESIAN_POINT('',(0.08937,-0.0405,0.312493334389469));
#591=CARTESIAN_POINT('',(0.08937,0.0405,0.312493334389469));
#592=CARTESIAN_POINT('',(0.02037,0.0405,0.312493334389469));
#593=CARTESIAN_POINT('',(0.02037,-0.0405,0.312493334389469));
#594=CARTESIAN_POINT('',(0.02037,-0.0405,0.312493334389469));
#595=CARTESIAN_POINT('',(0.08937,-0.0405,0.312493334389469));
#596=CARTESIAN_POINT('',(0.02037,-0.0405,-0.00875333280526547));
#597=CARTESIAN_POINT('',(0.02037,0.0405,0.312493334389469));
#598=CARTESIAN_POINT('',(0.0203699999999999,0.0405,-0.33));
#599=CARTESIAN_POINT('',(0.0203699999999999,-0.0405,-0.33));
#600=CARTESIAN_POINT('',(0.0203699999999999,-0.0405,-0.33));
#601=CARTESIAN_POINT('',(0.02037,-0.0405,0.312493334389469));
#602=CARTESIAN_POINT('',(0.0393699999999999,-0.0405,-0.33));
#603=CARTESIAN_POINT('',(0.0583699999999999,0.0405,-0.33));
#604=CARTESIAN_POINT('',(0.0583699999999999,0.0405,-0.33));
#605=CARTESIAN_POINT('',(0.0583699999999999,-0.0405,-0.33));
#606=CARTESIAN_POINT('',(0.0583699999999999,-0.0405,-0.33));
#607=CARTESIAN_POINT('',(0.0583699999999999,-0.0405,-0.33));
#608=CARTESIAN_POINT('',(0.05837,-0.0405,-0.00875333280526547));
#609=CARTESIAN_POINT('',(0.05837,0.0405,0.312493334389469));
#610=CARTESIAN_POINT('',(0.05837,0.0405,0.312493334389469));
#611=CARTESIAN_POINT('',(0.05837,-0.0405,0.312493334389469));
#612=CARTESIAN_POINT('',(0.05837,-0.0405,0.312493334389469));
#613=CARTESIAN_POINT('',(0.05837,-0.0405,0.312493334389469));
#614=CARTESIAN_POINT('',(0.08937,-0.0405,0.312493334389469));
#615=CARTESIAN_POINT('',(0.08937,0.0405,0.312493334389469));
#616=CARTESIAN_POINT('',(0.0719456603773585,0.0405,0.338132998753786));
#617=CARTESIAN_POINT('',(0.0719456603773585,-0.0405,0.338132998753786));
#618=CARTESIAN_POINT('',(0.0719456603773585,-0.0405,0.338132998753786));
#619=CARTESIAN_POINT('',(0.08937,-0.0405,0.312493334389469));
#620=CARTESIAN_POINT('',(0.,-0.0405,0.444));
#621=CARTESIAN_POINT('',(0.,0.0405,0.444));
#622=CARTESIAN_POINT('',(-0.0719456603773585,0.0405,0.338132998753786));
#623=CARTESIAN_POINT('',(-0.0719456603773585,-0.0405,0.338132998753786));
#624=CARTESIAN_POINT('',(-0.0719456603773585,-0.0405,0.338132998753786));
#625=CARTESIAN_POINT('',(0.,-0.0405,0.444));
#626=CARTESIAN_POINT('',(-0.08937,-0.0405,0.312493334389469));
#627=CARTESIAN_POINT('',(-0.08937,0.0405,0.312493334389469));
#628=CARTESIAN_POINT('',(-0.05837,0.0405,0.312493334389469));
#629=CARTESIAN_POINT('',(-0.05837,-0.0405,0.312493334389469));
#630=CARTESIAN_POINT('',(-0.05837,-0.0405,0.312493334389469));
#631=CARTESIAN_POINT('',(-0.08937,-0.0405,0.312493334389469));
#632=CARTESIAN_POINT('',(-0.05837,-0.0405,-0.00875333280526552));
#633=CARTESIAN_POINT('',(-0.0583699999999999,0.0405,-0.33));
#634=CARTESIAN_POINT('',(-0.0583699999999999,0.0405,-0.33));
#635=CARTESIAN_POINT('',(-0.0583699999999999,-0.0405,-0.33));
#636=CARTESIAN_POINT('',(-0.0583699999999999,-0.0405,-0.33));
#637=CARTESIAN_POINT('',(-0.0583699999999999,-0.0405,-0.33));
#638=CARTESIAN_POINT('',(-0.0393699999999999,-0.0405,-0.33));
#639=CARTESIAN_POINT('',(-0.0583699999999999,0.0405,-0.33));
#640=CARTESIAN_POINT('',(-0.0203699999999999,0.0405,-0.33));
#641=CARTESIAN_POINT('',(-0.0203699999999999,-0.0405,-0.33));
#642=CARTESIAN_POINT('',(-0.0203699999999999,-0.0405,-0.33));
#643=CARTESIAN_POINT('',(-0.0583699999999999,-0.0405,-0.33));
#644=CARTESIAN_POINT('',(-0.02037,-0.0405,-0.00875333280526552));
#645=CARTESIAN_POINT('',(-0.0203699999999999,0.0405,-0.33));
#646=CARTESIAN_POINT('',(-0.0203699999999999,-0.0405,-0.33));
#647=CARTESIAN_POINT('',(1.57209315010398E-018,0.0405,0.133152869464473));
#648=CARTESIAN_POINT('',(1.57209315010398E-018,-0.0405,0.133152869464473));
#649=CARTESIAN_POINT('',(0.,-0.0405,-0.542954878419929));
#650=CARTESIAN_POINT('',(0.,-0.0405,0.3));
#651=CARTESIAN_POINT('',(0.0585,-0.0405,0.3));
#652=CARTESIAN_POINT('',(-0.0585,-0.0405,0.3));
#653=CARTESIAN_POINT('',(0.0585,-0.0405,-0.542954878419929));
#654=CARTESIAN_POINT('',(0.0585,-0.0405,0.));
#655=CARTESIAN_POINT('',(0.,-0.0405,0.));
#656=CARTESIAN_POINT('',(-0.0585,-0.0405,0.));
#657=CARTESIAN_POINT('',(-0.0585,-0.0405,-0.542954878419929));
#658=CARTESIAN_POINT('',(-0.0585,0.,-0.542954878419929));
#659=CARTESIAN_POINT('',(-0.0585,0.,0.3));
#660=CARTESIAN_POINT('',(-0.0585,0.0405,0.3));
#661=CARTESIAN_POINT('',(-0.0585,0.,0.));
#662=CARTESIAN_POINT('',(-0.0585,0.0405,0.));
#663=CARTESIAN_POINT('',(-0.0585,0.0405,-0.542954878419929));
#664=CARTESIAN_POINT('',(0.,0.0405,-0.542954878419929));
#665=CARTESIAN_POINT('',(0.,0.0405,0.3));
#666=CARTESIAN_POINT('',(0.0585,0.0405,0.3));
#667=CARTESIAN_POINT('',(0.,0.0405,0.));
#668=CARTESIAN_POINT('',(0.0585,0.0405,0.));
#669=CARTESIAN_POINT('',(0.0585,0.0405,-0.542954878419929));
#670=CARTESIAN_POINT('',(0.0585,0.,-0.542954878419929));
#671=CARTESIAN_POINT('',(0.0585,0.,0.3));
#672=CARTESIAN_POINT('',(0.0585,0.,0.));
#673=CARTESIAN_POINT('',(0.,0.,0.));
#674=CARTESIAN_POINT('',(0.,0.,0.3));
#675=CARTESIAN_POINT('',(0.16,0.,0.3));
#676=CARTESIAN_POINT('',(0.,0.,0.));
#677=CARTESIAN_POINT('',(0.16,0.,0.));
#678=CARTESIAN_POINT('',(0.,0.,0.3));
#679=CARTESIAN_POINT('',(0.,0.,0.));
#680=CARTESIAN_POINT('CARTESIAN_POINT4',(0.,0.,0.));
#681=CARTESIAN_POINT('CARTESIAN_POINT8',(0.,0.,0.));
#682=CARTESIAN_POINT('CARTESIAN_POINT14',(0.,0.,0.));
#683=CARTESIAN_POINT('CARTESIAN_POINT18',(0.,0.,0.));
#684=CYLINDRICAL_SURFACE('',#436,0.069);
#685=CYLINDRICAL_SURFACE('',#439,0.09);
#686=CYLINDRICAL_SURFACE('',#442,0.069);
#687=CYLINDRICAL_SURFACE('',#448,0.031);
#688=CYLINDRICAL_SURFACE('',#451,0.128);
#689=CYLINDRICAL_SURFACE('',#454,0.031);
#690=CYLINDRICAL_SURFACE('',#466,0.16);
#691=CLOSED_SHELL('',(#415,#416,#417,#418,#419,#420,#421,#422,#423,#424,
#425,#426,#427,#428));
#692=CLOSED_SHELL('',(#429,#430,#431,#432,#433,#434,#435));
#693=MANIFOLD_SOLID_BREP('',#691);
#694=MANIFOLD_SOLID_BREP('',#692);
#695=ADVANCED_BREP_SHAPE_REPRESENTATION('KeystoneCompact_wire',(#693),#80);
#696=ADVANCED_BREP_SHAPE_REPRESENTATION('Keystone5006_black',(#694),#81);
ENDSEC;
END-ISO-10303-21;
