ISO-10303-21;
HEADER;
/* Generated by software containing ST-Developer
 * from STEP Tools, Inc. (www.steptools.com) 
 */

FILE_DESCRIPTION(
/* description */ ('Alibre Inc.'),
/* implementation_level */ '2;1');

FILE_NAME(
/* name */ 'export0',
/* time_stamp */ '2014-03-17T11:20:15-05:00',
/* author */ (''),
/* organization */ (''),
/* preprocessor_version */ 'ST-DEVELOPER v14',
/* originating_system */ 'Alibre',
/* authorisation */ '');

FILE_SCHEMA (('AUTOMOTIVE_DESIGN'));
ENDSEC;

DATA;
#10=CONTEXT_DEPENDENT_SHAPE_REPRESENTATION(#13,#29);
#11=NEXT_ASSEMBLY_USAGE_OCCURRENCE('NAUO_ID9','NAUO_NAME9',$,#31,#30,$);
#12=ITEM_DEFINED_TRANSFORMATION('ITD_NAME0',$,#1532,#1531);
#13=(
REPRESENTATION_RELATIONSHIP('TEC_282834-2',$,#42,#43)
REPRESENTATION_RELATIONSHIP_WITH_TRANSFORMATION(#12)
SHAPE_REPRESENTATION_RELATIONSHIP()
);
#14=STYLED_ITEM('NAME_0',(#22),#2333);
#15=MECHANICAL_DESIGN_GEOMETRIC_PRESENTATION_REPRESENTATION('NAME_0',(#14),
#53);
#16=COLOUR_RGB('',0.717647058823529,0.717647058823529,0.717647058823529);
#17=FILL_AREA_STYLE_COLOUR('NAME_0',#16);
#18=FILL_AREA_STYLE('NAME_0',(#17));
#19=SURFACE_STYLE_FILL_AREA(#18);
#20=SURFACE_SIDE_STYLE('NAME_0',(#19));
#21=SURFACE_STYLE_USAGE(.POSITIVE.,#20);
#22=PRESENTATION_STYLE_ASSIGNMENT((#21));
#23=PRODUCT_DEFINITION_CONTEXT('part definition',#37,'design');
#24=PRODUCT_DEFINITION_CONTEXT('part definition',#37,'design');
#25=SHAPE_DEFINITION_REPRESENTATION(#27,#42);
#26=SHAPE_DEFINITION_REPRESENTATION(#28,#43);
#27=PRODUCT_DEFINITION_SHAPE('PRODUCT_VERSION_ID',
'PRODUCT_VERSION_DESCR',#30);
#28=PRODUCT_DEFINITION_SHAPE('PRODUCT_VERSION_ID',
'PRODUCT_VERSION_DESCR',#31);
#29=PRODUCT_DEFINITION_SHAPE('NAME_10',$,#11);
#30=PRODUCT_DEFINITION('TEC_282834-2','PRODUCT_VERSION_DESCR',#32,#23);
#31=PRODUCT_DEFINITION('PRODUCT_VERSION_ID','PRODUCT_VERSION_DESCR',#33,
#24);
#32=PRODUCT_DEFINITION_FORMATION_WITH_SPECIFIED_SOURCE(
'PRODUCT_VERSION_ID','PRODUCT_VERSION_DESCR',#40,.MADE.);
#33=PRODUCT_DEFINITION_FORMATION_WITH_SPECIFIED_SOURCE(
'PRODUCT_VERSION_ID','PRODUCT_VERSION_DESCR',#41,.MADE.);
#34=PRODUCT_RELATED_PRODUCT_CATEGORY('part','part',(#40));
#35=PRODUCT_RELATED_PRODUCT_CATEGORY('part','part',(#41));
#36=APPLICATION_PROTOCOL_DEFINITION('Draft International Standard',
'automotive_design',1994,#37);
#37=APPLICATION_CONTEXT('automotive_Design');
#38=PRODUCT_CONTEXT('3D Mechanical Parts',#37,'mechanical');
#39=PRODUCT_CONTEXT('3D Mechanical Parts',#37,'mechanical');
#40=PRODUCT('C-282834-2','TEC_282834-2','NOT SPECIFIED',(#38));
#41=PRODUCT('','name','',(#39));
#42=SHAPE_REPRESENTATION('TEC_282834-2',(#1532),#53);
#43=SHAPE_REPRESENTATION('NAME_0',(#1531),#54);
#44=SHAPE_REPRESENTATION_RELATIONSHIP('NAME_0',$,#42,#2334);
#45=(
LENGTH_UNIT()
NAMED_UNIT(*)
SI_UNIT(.MILLI.,.METRE.)
);
#46=(
LENGTH_UNIT()
NAMED_UNIT(*)
SI_UNIT(.MILLI.,.METRE.)
);
#47=(
NAMED_UNIT(*)
PLANE_ANGLE_UNIT()
SI_UNIT($,.RADIAN.)
);
#48=(
NAMED_UNIT(*)
PLANE_ANGLE_UNIT()
SI_UNIT($,.RADIAN.)
);
#49=(
NAMED_UNIT(*)
SI_UNIT($,.STERADIAN.)
SOLID_ANGLE_UNIT()
);
#50=(
NAMED_UNIT(*)
SI_UNIT($,.STERADIAN.)
SOLID_ANGLE_UNIT()
);
#51=UNCERTAINTY_MEASURE_WITH_UNIT(LENGTH_MEASURE(1.E-006),#45,
'DISTANCE_ACCURACY_VALUE',
'Maximum model space distance between geometric entities at asserted co
nnectivities');
#52=UNCERTAINTY_MEASURE_WITH_UNIT(LENGTH_MEASURE(1.E-006),#46,
'DISTANCE_ACCURACY_VALUE',
'Maximum model space distance between geometric entities at asserted co
nnectivities');
#53=(
GEOMETRIC_REPRESENTATION_CONTEXT(3)
GLOBAL_UNCERTAINTY_ASSIGNED_CONTEXT((#51))
GLOBAL_UNIT_ASSIGNED_CONTEXT((#49,#47,#45))
REPRESENTATION_CONTEXT('ID1','3D')
);
#54=(
GEOMETRIC_REPRESENTATION_CONTEXT(3)
GLOBAL_UNCERTAINTY_ASSIGNED_CONTEXT((#52))
GLOBAL_UNIT_ASSIGNED_CONTEXT((#50,#48,#46))
REPRESENTATION_CONTEXT('ID1','3D')
);
#55=CYLINDRICAL_SURFACE('',#1472,1.05);
#56=CYLINDRICAL_SURFACE('',#1484,1.05);
#57=CYLINDRICAL_SURFACE('',#1485,1.05);
#58=CYLINDRICAL_SURFACE('',#1497,1.05);
#59=CYLINDRICAL_SURFACE('',#1498,0.3);
#60=CYLINDRICAL_SURFACE('',#1500,0.3);
#61=CYLINDRICAL_SURFACE('',#1502,0.3);
#62=CIRCLE('',#1433,0.3);
#63=CIRCLE('',#1437,0.3);
#64=CIRCLE('',#1464,0.3);
#65=CIRCLE('',#1466,1.05);
#66=CIRCLE('',#1467,1.05);
#67=CIRCLE('',#1468,1.05);
#68=CIRCLE('',#1469,1.05);
#69=CIRCLE('',#1473,1.05);
#70=CIRCLE('',#1474,1.05);
#71=CIRCLE('',#1475,1.05);
#72=CIRCLE('',#1477,1.05);
#73=CIRCLE('',#1479,1.05);
#74=CIRCLE('',#1482,1.05);
#75=CIRCLE('',#1486,1.05);
#76=CIRCLE('',#1487,1.05);
#77=CIRCLE('',#1488,1.05);
#78=CIRCLE('',#1490,1.05);
#79=CIRCLE('',#1492,1.05);
#80=CIRCLE('',#1495,1.05);
#81=CIRCLE('',#1499,0.3);
#82=CIRCLE('',#1501,0.3);
#83=CIRCLE('',#1503,0.3);
#84=VERTEX_POINT('',#1848);
#85=VERTEX_POINT('',#1849);
#86=VERTEX_POINT('',#1851);
#87=VERTEX_POINT('',#1853);
#88=VERTEX_POINT('',#1855);
#89=VERTEX_POINT('',#1857);
#90=VERTEX_POINT('',#1859);
#91=VERTEX_POINT('',#1861);
#92=VERTEX_POINT('',#1863);
#93=VERTEX_POINT('',#1865);
#94=VERTEX_POINT('',#1867);
#95=VERTEX_POINT('',#1869);
#96=VERTEX_POINT('',#1871);
#97=VERTEX_POINT('',#1875);
#98=VERTEX_POINT('',#1876);
#99=VERTEX_POINT('',#1878);
#100=VERTEX_POINT('',#1880);
#101=VERTEX_POINT('',#1882);
#102=VERTEX_POINT('',#1885);
#103=VERTEX_POINT('',#1889);
#104=VERTEX_POINT('',#1891);
#105=VERTEX_POINT('',#1895);
#106=VERTEX_POINT('',#1896);
#107=VERTEX_POINT('',#1899);
#108=VERTEX_POINT('',#1901);
#109=VERTEX_POINT('',#1903);
#110=VERTEX_POINT('',#1905);
#111=VERTEX_POINT('',#1907);
#112=VERTEX_POINT('',#1911);
#113=VERTEX_POINT('',#1912);
#114=VERTEX_POINT('',#1914);
#115=VERTEX_POINT('',#1916);
#116=VERTEX_POINT('',#1918);
#117=VERTEX_POINT('',#1920);
#118=VERTEX_POINT('',#1922);
#119=VERTEX_POINT('',#1924);
#120=VERTEX_POINT('',#1926);
#121=VERTEX_POINT('',#1929);
#122=VERTEX_POINT('',#1931);
#123=VERTEX_POINT('',#1934);
#124=VERTEX_POINT('',#1938);
#125=VERTEX_POINT('',#1940);
#126=VERTEX_POINT('',#1944);
#127=VERTEX_POINT('',#1945);
#128=VERTEX_POINT('',#1947);
#129=VERTEX_POINT('',#1949);
#130=VERTEX_POINT('',#1953);
#131=VERTEX_POINT('',#1954);
#132=VERTEX_POINT('',#1956);
#133=VERTEX_POINT('',#1961);
#134=VERTEX_POINT('',#1963);
#135=VERTEX_POINT('',#1966);
#136=VERTEX_POINT('',#1967);
#137=VERTEX_POINT('',#1969);
#138=VERTEX_POINT('',#1971);
#139=VERTEX_POINT('',#1974);
#140=VERTEX_POINT('',#1975);
#141=VERTEX_POINT('',#1977);
#142=VERTEX_POINT('',#1979);
#143=VERTEX_POINT('',#1985);
#144=VERTEX_POINT('',#1986);
#145=VERTEX_POINT('',#1993);
#146=VERTEX_POINT('',#1994);
#147=VERTEX_POINT('',#1999);
#148=VERTEX_POINT('',#2003);
#149=VERTEX_POINT('',#2004);
#150=VERTEX_POINT('',#2006);
#151=VERTEX_POINT('',#2008);
#152=VERTEX_POINT('',#2011);
#153=VERTEX_POINT('',#2012);
#154=VERTEX_POINT('',#2014);
#155=VERTEX_POINT('',#2016);
#156=VERTEX_POINT('',#2020);
#157=VERTEX_POINT('',#2022);
#158=VERTEX_POINT('',#2026);
#159=VERTEX_POINT('',#2030);
#160=VERTEX_POINT('',#2037);
#161=VERTEX_POINT('',#2039);
#162=VERTEX_POINT('',#2043);
#163=VERTEX_POINT('',#2047);
#164=VERTEX_POINT('',#2054);
#165=VERTEX_POINT('',#2061);
#166=VERTEX_POINT('',#2068);
#167=VERTEX_POINT('',#2071);
#168=VERTEX_POINT('',#2073);
#169=VERTEX_POINT('',#2078);
#170=VERTEX_POINT('',#2079);
#171=VERTEX_POINT('',#2082);
#172=VERTEX_POINT('',#2083);
#173=VERTEX_POINT('',#2090);
#174=VERTEX_POINT('',#2092);
#175=VERTEX_POINT('',#2094);
#176=VERTEX_POINT('',#2096);
#177=VERTEX_POINT('',#2098);
#178=VERTEX_POINT('',#2100);
#179=VERTEX_POINT('',#2104);
#180=VERTEX_POINT('',#2108);
#181=VERTEX_POINT('',#2112);
#182=VERTEX_POINT('',#2116);
#183=VERTEX_POINT('',#2123);
#184=VERTEX_POINT('',#2125);
#185=VERTEX_POINT('',#2127);
#186=VERTEX_POINT('',#2129);
#187=VERTEX_POINT('',#2131);
#188=VERTEX_POINT('',#2133);
#189=VERTEX_POINT('',#2137);
#190=VERTEX_POINT('',#2141);
#191=VERTEX_POINT('',#2145);
#192=VERTEX_POINT('',#2149);
#193=VERTEX_POINT('',#2156);
#194=VERTEX_POINT('',#2160);
#195=VERTEX_POINT('',#2164);
#196=VERTEX_POINT('',#2169);
#197=VERTEX_POINT('',#2171);
#198=VERTEX_POINT('',#2173);
#199=VERTEX_POINT('',#2175);
#200=VERTEX_POINT('',#2177);
#201=VERTEX_POINT('',#2181);
#202=VERTEX_POINT('',#2185);
#203=VERTEX_POINT('',#2188);
#204=VERTEX_POINT('',#2190);
#205=VERTEX_POINT('',#2192);
#206=VERTEX_POINT('',#2209);
#207=VERTEX_POINT('',#2211);
#208=VERTEX_POINT('',#2213);
#209=VERTEX_POINT('',#2215);
#210=VERTEX_POINT('',#2228);
#211=VERTEX_POINT('',#2230);
#212=VERTEX_POINT('',#2234);
#213=VERTEX_POINT('',#2238);
#214=VERTEX_POINT('',#2245);
#215=VERTEX_POINT('',#2247);
#216=VERTEX_POINT('',#2251);
#217=VERTEX_POINT('',#2255);
#218=VECTOR('',#1534,1.);
#219=VECTOR('',#1535,1.);
#220=VECTOR('',#1536,1.);
#221=VECTOR('',#1537,1.);
#222=VECTOR('',#1538,1.);
#223=VECTOR('',#1539,1.);
#224=VECTOR('',#1540,1.);
#225=VECTOR('',#1541,1.);
#226=VECTOR('',#1542,1.);
#227=VECTOR('',#1543,1.);
#228=VECTOR('',#1546,1.);
#229=VECTOR('',#1547,1.);
#230=VECTOR('',#1549,1.);
#231=VECTOR('',#1550,1.);
#232=VECTOR('',#1551,1.);
#233=VECTOR('',#1552,1.);
#234=VECTOR('',#1553,1.);
#235=VECTOR('',#1554,1.);
#236=VECTOR('',#1555,1.);
#237=VECTOR('',#1557,1.);
#238=VECTOR('',#1558,1.);
#239=VECTOR('',#1559,1.);
#240=VECTOR('',#1563,1.);
#241=VECTOR('',#1564,1.);
#242=VECTOR('',#1565,1.);
#243=VECTOR('',#1566,1.);
#244=VECTOR('',#1567,1.);
#245=VECTOR('',#1568,1.);
#246=VECTOR('',#1569,1.);
#247=VECTOR('',#1571,1.);
#248=VECTOR('',#1572,1.);
#249=VECTOR('',#1573,1.);
#250=VECTOR('',#1574,1.);
#251=VECTOR('',#1575,1.);
#252=VECTOR('',#1576,1.);
#253=VECTOR('',#1577,1.);
#254=VECTOR('',#1578,1.);
#255=VECTOR('',#1579,1.);
#256=VECTOR('',#1580,1.);
#257=VECTOR('',#1581,1.);
#258=VECTOR('',#1582,1.);
#259=VECTOR('',#1583,1.);
#260=VECTOR('',#1584,1.);
#261=VECTOR('',#1586,1.);
#262=VECTOR('',#1587,1.);
#263=VECTOR('',#1588,1.);
#264=VECTOR('',#1590,1.);
#265=VECTOR('',#1591,1.);
#266=VECTOR('',#1592,1.);
#267=VECTOR('',#1593,1.);
#268=VECTOR('',#1595,1.);
#269=VECTOR('',#1596,1.);
#270=VECTOR('',#1597,1.);
#271=VECTOR('',#1598,1.);
#272=VECTOR('',#1599,1.);
#273=VECTOR('',#1600,1.);
#274=VECTOR('',#1601,1.);
#275=VECTOR('',#1602,1.);
#276=VECTOR('',#1603,1.);
#277=VECTOR('',#1604,1.);
#278=VECTOR('',#1605,1.);
#279=VECTOR('',#1606,1.);
#280=VECTOR('',#1607,1.);
#281=VECTOR('',#1608,1.);
#282=VECTOR('',#1609,1.);
#283=VECTOR('',#1610,1.);
#284=VECTOR('',#1612,1.);
#285=VECTOR('',#1614,1.);
#286=VECTOR('',#1615,1.);
#287=VECTOR('',#1616,1.);
#288=VECTOR('',#1618,1.);
#289=VECTOR('',#1620,1.);
#290=VECTOR('',#1621,1.);
#291=VECTOR('',#1622,1.);
#292=VECTOR('',#1624,1.);
#293=VECTOR('',#1625,1.);
#294=VECTOR('',#1626,1.);
#295=VECTOR('',#1627,1.);
#296=VECTOR('',#1628,1.);
#297=VECTOR('',#1629,1.);
#298=VECTOR('',#1630,1.);
#299=VECTOR('',#1631,1.);
#300=VECTOR('',#1632,1.);
#301=VECTOR('',#1633,1.);
#302=VECTOR('',#1634,1.);
#303=VECTOR('',#1636,1.);
#304=VECTOR('',#1637,1.);
#305=VECTOR('',#1638,1.);
#306=VECTOR('',#1640,1.);
#307=VECTOR('',#1641,1.);
#308=VECTOR('',#1643,1.);
#309=VECTOR('',#1644,1.);
#310=VECTOR('',#1646,1.);
#311=VECTOR('',#1649,1.);
#312=VECTOR('',#1650,1.);
#313=VECTOR('',#1651,1.);
#314=VECTOR('',#1653,1.);
#315=VECTOR('',#1654,1.);
#316=VECTOR('',#1656,1.);
#317=VECTOR('',#1657,1.);
#318=VECTOR('',#1659,1.);
#319=VECTOR('',#1662,1.);
#320=VECTOR('',#1663,1.);
#321=VECTOR('',#1666,1.);
#322=VECTOR('',#1668,1.);
#323=VECTOR('',#1669,1.);
#324=VECTOR('',#1672,1.);
#325=VECTOR('',#1674,1.);
#326=VECTOR('',#1677,1.);
#327=VECTOR('',#1678,1.);
#328=VECTOR('',#1679,1.);
#329=VECTOR('',#1681,1.);
#330=VECTOR('',#1691,1.);
#331=VECTOR('',#1695,1.);
#332=VECTOR('',#1696,1.);
#333=VECTOR('',#1699,1.);
#334=VECTOR('',#1702,1.);
#335=VECTOR('',#1708,1.);
#336=VECTOR('',#1712,1.);
#337=VECTOR('',#1714,1.);
#338=VECTOR('',#1715,1.);
#339=VECTOR('',#1719,1.);
#340=VECTOR('',#1721,1.);
#341=VECTOR('',#1726,1.);
#342=VECTOR('',#1727,1.);
#343=VECTOR('',#1730,1.);
#344=VECTOR('',#1733,1.);
#345=VECTOR('',#1739,1.);
#346=VECTOR('',#1743,1.);
#347=VECTOR('',#1745,1.);
#348=VECTOR('',#1746,1.);
#349=VECTOR('',#1750,1.);
#350=VECTOR('',#1752,1.);
#351=VECTOR('',#1757,1.);
#352=VECTOR('',#1762,1.);
#353=VECTOR('',#1769,1.);
#354=VECTOR('',#1771,1.);
#355=VECTOR('',#1772,1.);
#356=VECTOR('',#1773,1.);
#357=VECTOR('',#1774,1.);
#358=VECTOR('',#1775,1.);
#359=VECTOR('',#1776,1.);
#360=VECTOR('',#1777,1.);
#361=VECTOR('',#1779,1.);
#362=VECTOR('',#1780,1.);
#363=VECTOR('',#1782,1.);
#364=VECTOR('',#1783,1.);
#365=VECTOR('',#1784,1.);
#366=VECTOR('',#1785,1.);
#367=VECTOR('',#1786,1.);
#368=VECTOR('',#1787,1.);
#369=VECTOR('',#1789,1.);
#370=VECTOR('',#1790,1.);
#371=VECTOR('',#1792,1.);
#372=VECTOR('',#1794,1.);
#373=VECTOR('',#1799,1.);
#374=VECTOR('',#1802,1.);
#375=VECTOR('',#1803,1.);
#376=VECTOR('',#1804,1.);
#377=VECTOR('',#1805,1.);
#378=VECTOR('',#1806,1.);
#379=VECTOR('',#1808,1.);
#380=VECTOR('',#1810,1.);
#381=VECTOR('',#1812,1.);
#382=VECTOR('',#1814,1.);
#383=VECTOR('',#1817,1.);
#384=VECTOR('',#1818,1.);
#385=VECTOR('',#1819,1.);
#386=VECTOR('',#1821,1.);
#387=VECTOR('',#1822,1.);
#388=VECTOR('',#1824,1.);
#389=VECTOR('',#1825,1.);
#390=VECTOR('',#1827,1.);
#391=VECTOR('',#1830,1.);
#392=VECTOR('',#1831,1.);
#393=VECTOR('',#1832,1.);
#394=VECTOR('',#1834,1.);
#395=VECTOR('',#1835,1.);
#396=VECTOR('',#1837,1.);
#397=VECTOR('',#1838,1.);
#398=VECTOR('',#1840,1.);
#399=LINE('',#1847,#218);
#400=LINE('',#1850,#219);
#401=LINE('',#1852,#220);
#402=LINE('',#1854,#221);
#403=LINE('',#1856,#222);
#404=LINE('',#1858,#223);
#405=LINE('',#1860,#224);
#406=LINE('',#1862,#225);
#407=LINE('',#1864,#226);
#408=LINE('',#1866,#227);
#409=LINE('',#1870,#228);
#410=LINE('',#1872,#229);
#411=LINE('',#1874,#230);
#412=LINE('',#1877,#231);
#413=LINE('',#1879,#232);
#414=LINE('',#1881,#233);
#415=LINE('',#1883,#234);
#416=LINE('',#1884,#235);
#417=LINE('',#1886,#236);
#418=LINE('',#1888,#237);
#419=LINE('',#1890,#238);
#420=LINE('',#1892,#239);
#421=LINE('',#1897,#240);
#422=LINE('',#1898,#241);
#423=LINE('',#1900,#242);
#424=LINE('',#1902,#243);
#425=LINE('',#1904,#244);
#426=LINE('',#1906,#245);
#427=LINE('',#1908,#246);
#428=LINE('',#1910,#247);
#429=LINE('',#1913,#248);
#430=LINE('',#1915,#249);
#431=LINE('',#1917,#250);
#432=LINE('',#1919,#251);
#433=LINE('',#1921,#252);
#434=LINE('',#1923,#253);
#435=LINE('',#1925,#254);
#436=LINE('',#1927,#255);
#437=LINE('',#1928,#256);
#438=LINE('',#1930,#257);
#439=LINE('',#1932,#258);
#440=LINE('',#1933,#259);
#441=LINE('',#1935,#260);
#442=LINE('',#1937,#261);
#443=LINE('',#1939,#262);
#444=LINE('',#1941,#263);
#445=LINE('',#1943,#264);
#446=LINE('',#1946,#265);
#447=LINE('',#1948,#266);
#448=LINE('',#1950,#267);
#449=LINE('',#1952,#268);
#450=LINE('',#1955,#269);
#451=LINE('',#1957,#270);
#452=LINE('',#1958,#271);
#453=LINE('',#1959,#272);
#454=LINE('',#1960,#273);
#455=LINE('',#1962,#274);
#456=LINE('',#1964,#275);
#457=LINE('',#1965,#276);
#458=LINE('',#1968,#277);
#459=LINE('',#1970,#278);
#460=LINE('',#1972,#279);
#461=LINE('',#1973,#280);
#462=LINE('',#1976,#281);
#463=LINE('',#1978,#282);
#464=LINE('',#1980,#283);
#465=LINE('',#1982,#284);
#466=LINE('',#1984,#285);
#467=LINE('',#1987,#286);
#468=LINE('',#1988,#287);
#469=LINE('',#1990,#288);
#470=LINE('',#1992,#289);
#471=LINE('',#1995,#290);
#472=LINE('',#1996,#291);
#473=LINE('',#1998,#292);
#474=LINE('',#2000,#293);
#475=LINE('',#2001,#294);
#476=LINE('',#2002,#295);
#477=LINE('',#2005,#296);
#478=LINE('',#2007,#297);
#479=LINE('',#2009,#298);
#480=LINE('',#2010,#299);
#481=LINE('',#2013,#300);
#482=LINE('',#2015,#301);
#483=LINE('',#2017,#302);
#484=LINE('',#2019,#303);
#485=LINE('',#2021,#304);
#486=LINE('',#2023,#305);
#487=LINE('',#2025,#306);
#488=LINE('',#2027,#307);
#489=LINE('',#2029,#308);
#490=LINE('',#2031,#309);
#491=LINE('',#2033,#310);
#492=LINE('',#2036,#311);
#493=LINE('',#2038,#312);
#494=LINE('',#2040,#313);
#495=LINE('',#2042,#314);
#496=LINE('',#2044,#315);
#497=LINE('',#2046,#316);
#498=LINE('',#2048,#317);
#499=LINE('',#2050,#318);
#500=LINE('',#2053,#319);
#501=LINE('',#2055,#320);
#502=LINE('',#2058,#321);
#503=LINE('',#2060,#322);
#504=LINE('',#2062,#323);
#505=LINE('',#2065,#324);
#506=LINE('',#2067,#325);
#507=LINE('',#2070,#326);
#508=LINE('',#2072,#327);
#509=LINE('',#2074,#328);
#510=LINE('',#2076,#329);
#511=LINE('',#2086,#330);
#512=LINE('',#2089,#331);
#513=LINE('',#2091,#332);
#514=LINE('',#2095,#333);
#515=LINE('',#2099,#334);
#516=LINE('',#2105,#335);
#517=LINE('',#2109,#336);
#518=LINE('',#2111,#337);
#519=LINE('',#2113,#338);
#520=LINE('',#2117,#339);
#521=LINE('',#2119,#340);
#522=LINE('',#2122,#341);
#523=LINE('',#2124,#342);
#524=LINE('',#2128,#343);
#525=LINE('',#2132,#344);
#526=LINE('',#2138,#345);
#527=LINE('',#2142,#346);
#528=LINE('',#2144,#347);
#529=LINE('',#2146,#348);
#530=LINE('',#2150,#349);
#531=LINE('',#2152,#350);
#532=LINE('',#2155,#351);
#533=LINE('',#2159,#352);
#534=LINE('',#2165,#353);
#535=LINE('',#2167,#354);
#536=LINE('',#2168,#355);
#537=LINE('',#2170,#356);
#538=LINE('',#2172,#357);
#539=LINE('',#2174,#358);
#540=LINE('',#2176,#359);
#541=LINE('',#2178,#360);
#542=LINE('',#2180,#361);
#543=LINE('',#2182,#362);
#544=LINE('',#2184,#363);
#545=LINE('',#2186,#364);
#546=LINE('',#2187,#365);
#547=LINE('',#2189,#366);
#548=LINE('',#2191,#367);
#549=LINE('',#2193,#368);
#550=LINE('',#2195,#369);
#551=LINE('',#2196,#370);
#552=LINE('',#2198,#371);
#553=LINE('',#2200,#372);
#554=LINE('',#2205,#373);
#555=LINE('',#2208,#374);
#556=LINE('',#2210,#375);
#557=LINE('',#2212,#376);
#558=LINE('',#2214,#377);
#559=LINE('',#2216,#378);
#560=LINE('',#2218,#379);
#561=LINE('',#2220,#380);
#562=LINE('',#2222,#381);
#563=LINE('',#2224,#382);
#564=LINE('',#2227,#383);
#565=LINE('',#2229,#384);
#566=LINE('',#2231,#385);
#567=LINE('',#2233,#386);
#568=LINE('',#2235,#387);
#569=LINE('',#2237,#388);
#570=LINE('',#2239,#389);
#571=LINE('',#2241,#390);
#572=LINE('',#2244,#391);
#573=LINE('',#2246,#392);
#574=LINE('',#2248,#393);
#575=LINE('',#2250,#394);
#576=LINE('',#2252,#395);
#577=LINE('',#2254,#396);
#578=LINE('',#2256,#397);
#579=LINE('',#2258,#398);
#580=EDGE_CURVE('',#84,#85,#399,.T.);
#581=EDGE_CURVE('',#86,#84,#400,.T.);
#582=EDGE_CURVE('',#87,#86,#401,.T.);
#583=EDGE_CURVE('',#88,#87,#402,.T.);
#584=EDGE_CURVE('',#89,#88,#403,.T.);
#585=EDGE_CURVE('',#90,#89,#404,.T.);
#586=EDGE_CURVE('',#91,#90,#405,.T.);
#587=EDGE_CURVE('',#92,#91,#406,.T.);
#588=EDGE_CURVE('',#93,#92,#407,.T.);
#589=EDGE_CURVE('',#94,#93,#408,.T.);
#590=EDGE_CURVE('',#95,#94,#62,.T.);
#591=EDGE_CURVE('',#96,#95,#409,.T.);
#592=EDGE_CURVE('',#85,#96,#410,.T.);
#593=EDGE_CURVE('',#97,#98,#411,.T.);
#594=EDGE_CURVE('',#98,#99,#412,.T.);
#595=EDGE_CURVE('',#99,#100,#413,.T.);
#596=EDGE_CURVE('',#101,#100,#414,.T.);
#597=EDGE_CURVE('',#85,#101,#415,.T.);
#598=EDGE_CURVE('',#96,#102,#416,.T.);
#599=EDGE_CURVE('',#102,#97,#417,.T.);
#600=EDGE_CURVE('',#102,#103,#418,.T.);
#601=EDGE_CURVE('',#103,#104,#419,.T.);
#602=EDGE_CURVE('',#104,#97,#420,.T.);
#603=EDGE_CURVE('',#105,#106,#63,.T.);
#604=EDGE_CURVE('',#97,#105,#421,.T.);
#605=EDGE_CURVE('',#107,#104,#422,.T.);
#606=EDGE_CURVE('',#107,#108,#423,.T.);
#607=EDGE_CURVE('',#108,#109,#424,.T.);
#608=EDGE_CURVE('',#109,#110,#425,.T.);
#609=EDGE_CURVE('',#110,#111,#426,.T.);
#610=EDGE_CURVE('',#106,#111,#427,.T.);
#611=EDGE_CURVE('',#112,#113,#428,.T.);
#612=EDGE_CURVE('',#114,#112,#429,.T.);
#613=EDGE_CURVE('',#114,#115,#430,.T.);
#614=EDGE_CURVE('',#116,#115,#431,.T.);
#615=EDGE_CURVE('',#117,#116,#432,.T.);
#616=EDGE_CURVE('',#117,#118,#433,.T.);
#617=EDGE_CURVE('',#118,#119,#434,.T.);
#618=EDGE_CURVE('',#119,#120,#435,.T.);
#619=EDGE_CURVE('',#106,#120,#436,.T.);
#620=EDGE_CURVE('',#111,#121,#437,.T.);
#621=EDGE_CURVE('',#121,#122,#438,.T.);
#622=EDGE_CURVE('',#94,#122,#439,.T.);
#623=EDGE_CURVE('',#93,#123,#440,.T.);
#624=EDGE_CURVE('',#123,#113,#441,.T.);
#625=EDGE_CURVE('',#123,#124,#442,.T.);
#626=EDGE_CURVE('',#124,#125,#443,.T.);
#627=EDGE_CURVE('',#113,#125,#444,.T.);
#628=EDGE_CURVE('',#126,#127,#445,.T.);
#629=EDGE_CURVE('',#127,#128,#446,.T.);
#630=EDGE_CURVE('',#129,#128,#447,.T.);
#631=EDGE_CURVE('',#129,#126,#448,.T.);
#632=EDGE_CURVE('',#130,#131,#449,.T.);
#633=EDGE_CURVE('',#132,#130,#450,.T.);
#634=EDGE_CURVE('',#112,#132,#451,.T.);
#635=EDGE_CURVE('',#91,#125,#452,.T.);
#636=EDGE_CURVE('',#90,#129,#453,.T.);
#637=EDGE_CURVE('',#133,#128,#454,.T.);
#638=EDGE_CURVE('',#134,#133,#455,.T.);
#639=EDGE_CURVE('',#134,#131,#456,.T.);
#640=EDGE_CURVE('',#135,#136,#457,.T.);
#641=EDGE_CURVE('',#137,#135,#458,.T.);
#642=EDGE_CURVE('',#138,#137,#459,.T.);
#643=EDGE_CURVE('',#136,#138,#460,.T.);
#644=EDGE_CURVE('',#139,#140,#461,.T.);
#645=EDGE_CURVE('',#141,#139,#462,.T.);
#646=EDGE_CURVE('',#142,#141,#463,.T.);
#647=EDGE_CURVE('',#140,#142,#464,.T.);
#648=EDGE_CURVE('',#89,#126,#465,.T.);
#649=EDGE_CURVE('',#143,#144,#466,.T.);
#650=EDGE_CURVE('',#131,#144,#467,.T.);
#651=EDGE_CURVE('',#134,#143,#468,.T.);
#652=EDGE_CURVE('',#88,#127,#469,.T.);
#653=EDGE_CURVE('',#145,#146,#470,.T.);
#654=EDGE_CURVE('',#144,#146,#471,.T.);
#655=EDGE_CURVE('',#143,#145,#472,.T.);
#656=EDGE_CURVE('',#87,#147,#473,.T.);
#657=EDGE_CURVE('',#146,#147,#474,.T.);
#658=EDGE_CURVE('',#145,#133,#475,.T.);
#659=EDGE_CURVE('',#148,#149,#476,.T.);
#660=EDGE_CURVE('',#150,#148,#477,.T.);
#661=EDGE_CURVE('',#151,#150,#478,.T.);
#662=EDGE_CURVE('',#149,#151,#479,.T.);
#663=EDGE_CURVE('',#152,#153,#480,.T.);
#664=EDGE_CURVE('',#154,#152,#481,.T.);
#665=EDGE_CURVE('',#155,#154,#482,.T.);
#666=EDGE_CURVE('',#153,#155,#483,.T.);
#667=EDGE_CURVE('',#156,#151,#484,.T.);
#668=EDGE_CURVE('',#157,#156,#485,.T.);
#669=EDGE_CURVE('',#157,#149,#486,.T.);
#670=EDGE_CURVE('',#158,#157,#487,.T.);
#671=EDGE_CURVE('',#158,#148,#488,.T.);
#672=EDGE_CURVE('',#159,#158,#489,.T.);
#673=EDGE_CURVE('',#159,#150,#490,.T.);
#674=EDGE_CURVE('',#156,#159,#491,.T.);
#675=EDGE_CURVE('',#160,#155,#492,.T.);
#676=EDGE_CURVE('',#161,#160,#493,.T.);
#677=EDGE_CURVE('',#161,#153,#494,.T.);
#678=EDGE_CURVE('',#162,#161,#495,.T.);
#679=EDGE_CURVE('',#162,#152,#496,.T.);
#680=EDGE_CURVE('',#163,#162,#497,.T.);
#681=EDGE_CURVE('',#163,#154,#498,.T.);
#682=EDGE_CURVE('',#160,#163,#499,.T.);
#683=EDGE_CURVE('',#164,#132,#500,.T.);
#684=EDGE_CURVE('',#114,#164,#501,.T.);
#685=EDGE_CURVE('',#92,#124,#502,.T.);
#686=EDGE_CURVE('',#164,#165,#503,.T.);
#687=EDGE_CURVE('',#115,#165,#504,.T.);
#688=EDGE_CURVE('',#165,#130,#505,.T.);
#689=EDGE_CURVE('',#100,#166,#506,.T.);
#690=EDGE_CURVE('',#166,#116,#64,.T.);
#691=EDGE_CURVE('',#147,#167,#507,.T.);
#692=EDGE_CURVE('',#167,#168,#508,.T.);
#693=EDGE_CURVE('',#168,#101,#509,.T.);
#694=EDGE_CURVE('',#84,#168,#510,.T.);
#695=EDGE_CURVE('',#169,#170,#65,.T.);
#696=EDGE_CURVE('',#170,#169,#66,.T.);
#697=EDGE_CURVE('',#171,#172,#67,.T.);
#698=EDGE_CURVE('',#172,#171,#68,.T.);
#699=EDGE_CURVE('',#86,#167,#511,.T.);
#700=EDGE_CURVE('',#170,#173,#512,.T.);
#701=EDGE_CURVE('',#169,#174,#513,.T.);
#702=EDGE_CURVE('',#175,#174,#69,.T.);
#703=EDGE_CURVE('',#175,#176,#514,.T.);
#704=EDGE_CURVE('',#177,#176,#70,.T.);
#705=EDGE_CURVE('',#178,#177,#515,.T.);
#706=EDGE_CURVE('',#173,#178,#71,.T.);
#707=EDGE_CURVE('',#174,#179,#72,.T.);
#708=EDGE_CURVE('',#175,#179,#516,.T.);
#709=EDGE_CURVE('',#180,#173,#73,.T.);
#710=EDGE_CURVE('',#180,#178,#517,.T.);
#711=EDGE_CURVE('',#179,#181,#518,.T.);
#712=EDGE_CURVE('',#176,#181,#519,.T.);
#713=EDGE_CURVE('',#181,#182,#74,.T.);
#714=EDGE_CURVE('',#182,#177,#520,.T.);
#715=EDGE_CURVE('',#180,#182,#521,.T.);
#716=EDGE_CURVE('',#172,#183,#522,.T.);
#717=EDGE_CURVE('',#171,#184,#523,.T.);
#718=EDGE_CURVE('',#185,#184,#75,.T.);
#719=EDGE_CURVE('',#185,#186,#524,.T.);
#720=EDGE_CURVE('',#187,#186,#76,.T.);
#721=EDGE_CURVE('',#188,#187,#525,.T.);
#722=EDGE_CURVE('',#183,#188,#77,.T.);
#723=EDGE_CURVE('',#184,#189,#78,.T.);
#724=EDGE_CURVE('',#185,#189,#526,.T.);
#725=EDGE_CURVE('',#190,#183,#79,.T.);
#726=EDGE_CURVE('',#190,#188,#527,.T.);
#727=EDGE_CURVE('',#189,#191,#528,.T.);
#728=EDGE_CURVE('',#186,#191,#529,.T.);
#729=EDGE_CURVE('',#191,#192,#80,.T.);
#730=EDGE_CURVE('',#192,#187,#530,.T.);
#731=EDGE_CURVE('',#190,#192,#531,.T.);
#732=EDGE_CURVE('',#193,#166,#532,.T.);
#733=EDGE_CURVE('',#193,#117,#81,.T.);
#734=EDGE_CURVE('',#95,#194,#533,.T.);
#735=EDGE_CURVE('',#194,#122,#82,.T.);
#736=EDGE_CURVE('',#195,#120,#83,.T.);
#737=EDGE_CURVE('',#105,#195,#534,.T.);
#738=EDGE_CURVE('',#99,#193,#535,.T.);
#739=EDGE_CURVE('',#196,#99,#536,.T.);
#740=EDGE_CURVE('',#197,#196,#537,.T.);
#741=EDGE_CURVE('',#197,#198,#538,.T.);
#742=EDGE_CURVE('',#198,#199,#539,.T.);
#743=EDGE_CURVE('',#199,#200,#540,.T.);
#744=EDGE_CURVE('',#200,#118,#541,.T.);
#745=EDGE_CURVE('',#200,#201,#542,.T.);
#746=EDGE_CURVE('',#201,#119,#543,.T.);
#747=EDGE_CURVE('',#98,#202,#544,.T.);
#748=EDGE_CURVE('',#98,#195,#545,.T.);
#749=EDGE_CURVE('',#203,#201,#546,.T.);
#750=EDGE_CURVE('',#204,#203,#547,.T.);
#751=EDGE_CURVE('',#205,#204,#548,.T.);
#752=EDGE_CURVE('',#205,#202,#549,.T.);
#753=EDGE_CURVE('',#202,#196,#550,.T.);
#754=EDGE_CURVE('',#205,#197,#551,.T.);
#755=EDGE_CURVE('',#198,#204,#552,.T.);
#756=EDGE_CURVE('',#199,#203,#553,.T.);
#757=EDGE_CURVE('',#102,#194,#554,.T.);
#758=EDGE_CURVE('',#206,#121,#555,.T.);
#759=EDGE_CURVE('',#207,#206,#556,.T.);
#760=EDGE_CURVE('',#208,#207,#557,.T.);
#761=EDGE_CURVE('',#209,#208,#558,.T.);
#762=EDGE_CURVE('',#209,#103,#559,.T.);
#763=EDGE_CURVE('',#209,#107,#560,.T.);
#764=EDGE_CURVE('',#108,#208,#561,.T.);
#765=EDGE_CURVE('',#109,#207,#562,.T.);
#766=EDGE_CURVE('',#110,#206,#563,.T.);
#767=EDGE_CURVE('',#138,#210,#564,.T.);
#768=EDGE_CURVE('',#211,#210,#565,.T.);
#769=EDGE_CURVE('',#136,#211,#566,.T.);
#770=EDGE_CURVE('',#212,#211,#567,.T.);
#771=EDGE_CURVE('',#135,#212,#568,.T.);
#772=EDGE_CURVE('',#213,#212,#569,.T.);
#773=EDGE_CURVE('',#137,#213,#570,.T.);
#774=EDGE_CURVE('',#210,#213,#571,.T.);
#775=EDGE_CURVE('',#142,#214,#572,.T.);
#776=EDGE_CURVE('',#215,#214,#573,.T.);
#777=EDGE_CURVE('',#140,#215,#574,.T.);
#778=EDGE_CURVE('',#216,#215,#575,.T.);
#779=EDGE_CURVE('',#139,#216,#576,.T.);
#780=EDGE_CURVE('',#217,#216,#577,.T.);
#781=EDGE_CURVE('',#141,#217,#578,.T.);
#782=EDGE_CURVE('',#214,#217,#579,.T.);
#783=ORIENTED_EDGE('',*,*,#580,.F.);
#784=ORIENTED_EDGE('',*,*,#581,.F.);
#785=ORIENTED_EDGE('',*,*,#582,.F.);
#786=ORIENTED_EDGE('',*,*,#583,.F.);
#787=ORIENTED_EDGE('',*,*,#584,.F.);
#788=ORIENTED_EDGE('',*,*,#585,.F.);
#789=ORIENTED_EDGE('',*,*,#586,.F.);
#790=ORIENTED_EDGE('',*,*,#587,.F.);
#791=ORIENTED_EDGE('',*,*,#588,.F.);
#792=ORIENTED_EDGE('',*,*,#589,.F.);
#793=ORIENTED_EDGE('',*,*,#590,.F.);
#794=ORIENTED_EDGE('',*,*,#591,.F.);
#795=ORIENTED_EDGE('',*,*,#592,.F.);
#796=ORIENTED_EDGE('',*,*,#593,.T.);
#797=ORIENTED_EDGE('',*,*,#594,.T.);
#798=ORIENTED_EDGE('',*,*,#595,.T.);
#799=ORIENTED_EDGE('',*,*,#596,.F.);
#800=ORIENTED_EDGE('',*,*,#597,.F.);
#801=ORIENTED_EDGE('',*,*,#592,.T.);
#802=ORIENTED_EDGE('',*,*,#598,.T.);
#803=ORIENTED_EDGE('',*,*,#599,.T.);
#804=ORIENTED_EDGE('',*,*,#600,.T.);
#805=ORIENTED_EDGE('',*,*,#601,.T.);
#806=ORIENTED_EDGE('',*,*,#602,.T.);
#807=ORIENTED_EDGE('',*,*,#599,.F.);
#808=ORIENTED_EDGE('',*,*,#603,.F.);
#809=ORIENTED_EDGE('',*,*,#604,.F.);
#810=ORIENTED_EDGE('',*,*,#602,.F.);
#811=ORIENTED_EDGE('',*,*,#605,.F.);
#812=ORIENTED_EDGE('',*,*,#606,.T.);
#813=ORIENTED_EDGE('',*,*,#607,.T.);
#814=ORIENTED_EDGE('',*,*,#608,.T.);
#815=ORIENTED_EDGE('',*,*,#609,.T.);
#816=ORIENTED_EDGE('',*,*,#610,.F.);
#817=ORIENTED_EDGE('',*,*,#611,.F.);
#818=ORIENTED_EDGE('',*,*,#612,.F.);
#819=ORIENTED_EDGE('',*,*,#613,.T.);
#820=ORIENTED_EDGE('',*,*,#614,.F.);
#821=ORIENTED_EDGE('',*,*,#615,.F.);
#822=ORIENTED_EDGE('',*,*,#616,.T.);
#823=ORIENTED_EDGE('',*,*,#617,.T.);
#824=ORIENTED_EDGE('',*,*,#618,.T.);
#825=ORIENTED_EDGE('',*,*,#619,.F.);
#826=ORIENTED_EDGE('',*,*,#610,.T.);
#827=ORIENTED_EDGE('',*,*,#620,.T.);
#828=ORIENTED_EDGE('',*,*,#621,.T.);
#829=ORIENTED_EDGE('',*,*,#622,.F.);
#830=ORIENTED_EDGE('',*,*,#589,.T.);
#831=ORIENTED_EDGE('',*,*,#623,.T.);
#832=ORIENTED_EDGE('',*,*,#624,.T.);
#833=ORIENTED_EDGE('',*,*,#625,.T.);
#834=ORIENTED_EDGE('',*,*,#626,.T.);
#835=ORIENTED_EDGE('',*,*,#627,.F.);
#836=ORIENTED_EDGE('',*,*,#624,.F.);
#837=ORIENTED_EDGE('',*,*,#628,.T.);
#838=ORIENTED_EDGE('',*,*,#629,.T.);
#839=ORIENTED_EDGE('',*,*,#630,.F.);
#840=ORIENTED_EDGE('',*,*,#631,.T.);
#841=ORIENTED_EDGE('',*,*,#632,.F.);
#842=ORIENTED_EDGE('',*,*,#633,.F.);
#843=ORIENTED_EDGE('',*,*,#634,.F.);
#844=ORIENTED_EDGE('',*,*,#611,.T.);
#845=ORIENTED_EDGE('',*,*,#627,.T.);
#846=ORIENTED_EDGE('',*,*,#635,.F.);
#847=ORIENTED_EDGE('',*,*,#586,.T.);
#848=ORIENTED_EDGE('',*,*,#636,.T.);
#849=ORIENTED_EDGE('',*,*,#630,.T.);
#850=ORIENTED_EDGE('',*,*,#637,.F.);
#851=ORIENTED_EDGE('',*,*,#638,.F.);
#852=ORIENTED_EDGE('',*,*,#639,.T.);
#853=ORIENTED_EDGE('',*,*,#640,.F.);
#854=ORIENTED_EDGE('',*,*,#641,.F.);
#855=ORIENTED_EDGE('',*,*,#642,.F.);
#856=ORIENTED_EDGE('',*,*,#643,.F.);
#857=ORIENTED_EDGE('',*,*,#644,.F.);
#858=ORIENTED_EDGE('',*,*,#645,.F.);
#859=ORIENTED_EDGE('',*,*,#646,.F.);
#860=ORIENTED_EDGE('',*,*,#647,.F.);
#861=ORIENTED_EDGE('',*,*,#636,.F.);
#862=ORIENTED_EDGE('',*,*,#585,.T.);
#863=ORIENTED_EDGE('',*,*,#648,.T.);
#864=ORIENTED_EDGE('',*,*,#631,.F.);
#865=ORIENTED_EDGE('',*,*,#649,.T.);
#866=ORIENTED_EDGE('',*,*,#650,.F.);
#867=ORIENTED_EDGE('',*,*,#639,.F.);
#868=ORIENTED_EDGE('',*,*,#651,.T.);
#869=ORIENTED_EDGE('',*,*,#648,.F.);
#870=ORIENTED_EDGE('',*,*,#584,.T.);
#871=ORIENTED_EDGE('',*,*,#652,.T.);
#872=ORIENTED_EDGE('',*,*,#628,.F.);
#873=ORIENTED_EDGE('',*,*,#653,.T.);
#874=ORIENTED_EDGE('',*,*,#654,.F.);
#875=ORIENTED_EDGE('',*,*,#649,.F.);
#876=ORIENTED_EDGE('',*,*,#655,.T.);
#877=ORIENTED_EDGE('',*,*,#652,.F.);
#878=ORIENTED_EDGE('',*,*,#583,.T.);
#879=ORIENTED_EDGE('',*,*,#656,.T.);
#880=ORIENTED_EDGE('',*,*,#657,.F.);
#881=ORIENTED_EDGE('',*,*,#653,.F.);
#882=ORIENTED_EDGE('',*,*,#658,.T.);
#883=ORIENTED_EDGE('',*,*,#637,.T.);
#884=ORIENTED_EDGE('',*,*,#629,.F.);
#885=ORIENTED_EDGE('',*,*,#659,.F.);
#886=ORIENTED_EDGE('',*,*,#660,.F.);
#887=ORIENTED_EDGE('',*,*,#661,.F.);
#888=ORIENTED_EDGE('',*,*,#662,.F.);
#889=ORIENTED_EDGE('',*,*,#663,.F.);
#890=ORIENTED_EDGE('',*,*,#664,.F.);
#891=ORIENTED_EDGE('',*,*,#665,.F.);
#892=ORIENTED_EDGE('',*,*,#666,.F.);
#893=ORIENTED_EDGE('',*,*,#667,.F.);
#894=ORIENTED_EDGE('',*,*,#668,.F.);
#895=ORIENTED_EDGE('',*,*,#669,.T.);
#896=ORIENTED_EDGE('',*,*,#662,.T.);
#897=ORIENTED_EDGE('',*,*,#669,.F.);
#898=ORIENTED_EDGE('',*,*,#670,.F.);
#899=ORIENTED_EDGE('',*,*,#671,.T.);
#900=ORIENTED_EDGE('',*,*,#659,.T.);
#901=ORIENTED_EDGE('',*,*,#671,.F.);
#902=ORIENTED_EDGE('',*,*,#672,.F.);
#903=ORIENTED_EDGE('',*,*,#673,.T.);
#904=ORIENTED_EDGE('',*,*,#660,.T.);
#905=ORIENTED_EDGE('',*,*,#673,.F.);
#906=ORIENTED_EDGE('',*,*,#674,.F.);
#907=ORIENTED_EDGE('',*,*,#667,.T.);
#908=ORIENTED_EDGE('',*,*,#661,.T.);
#909=ORIENTED_EDGE('',*,*,#674,.T.);
#910=ORIENTED_EDGE('',*,*,#672,.T.);
#911=ORIENTED_EDGE('',*,*,#670,.T.);
#912=ORIENTED_EDGE('',*,*,#668,.T.);
#913=ORIENTED_EDGE('',*,*,#675,.F.);
#914=ORIENTED_EDGE('',*,*,#676,.F.);
#915=ORIENTED_EDGE('',*,*,#677,.T.);
#916=ORIENTED_EDGE('',*,*,#666,.T.);
#917=ORIENTED_EDGE('',*,*,#677,.F.);
#918=ORIENTED_EDGE('',*,*,#678,.F.);
#919=ORIENTED_EDGE('',*,*,#679,.T.);
#920=ORIENTED_EDGE('',*,*,#663,.T.);
#921=ORIENTED_EDGE('',*,*,#679,.F.);
#922=ORIENTED_EDGE('',*,*,#680,.F.);
#923=ORIENTED_EDGE('',*,*,#681,.T.);
#924=ORIENTED_EDGE('',*,*,#664,.T.);
#925=ORIENTED_EDGE('',*,*,#681,.F.);
#926=ORIENTED_EDGE('',*,*,#682,.F.);
#927=ORIENTED_EDGE('',*,*,#675,.T.);
#928=ORIENTED_EDGE('',*,*,#665,.T.);
#929=ORIENTED_EDGE('',*,*,#682,.T.);
#930=ORIENTED_EDGE('',*,*,#680,.T.);
#931=ORIENTED_EDGE('',*,*,#678,.T.);
#932=ORIENTED_EDGE('',*,*,#676,.T.);
#933=ORIENTED_EDGE('',*,*,#634,.T.);
#934=ORIENTED_EDGE('',*,*,#683,.F.);
#935=ORIENTED_EDGE('',*,*,#684,.F.);
#936=ORIENTED_EDGE('',*,*,#612,.T.);
#937=ORIENTED_EDGE('',*,*,#638,.T.);
#938=ORIENTED_EDGE('',*,*,#658,.F.);
#939=ORIENTED_EDGE('',*,*,#655,.F.);
#940=ORIENTED_EDGE('',*,*,#651,.F.);
#941=ORIENTED_EDGE('',*,*,#623,.F.);
#942=ORIENTED_EDGE('',*,*,#588,.T.);
#943=ORIENTED_EDGE('',*,*,#685,.T.);
#944=ORIENTED_EDGE('',*,*,#625,.F.);
#945=ORIENTED_EDGE('',*,*,#686,.T.);
#946=ORIENTED_EDGE('',*,*,#687,.F.);
#947=ORIENTED_EDGE('',*,*,#613,.F.);
#948=ORIENTED_EDGE('',*,*,#684,.T.);
#949=ORIENTED_EDGE('',*,*,#685,.F.);
#950=ORIENTED_EDGE('',*,*,#587,.T.);
#951=ORIENTED_EDGE('',*,*,#635,.T.);
#952=ORIENTED_EDGE('',*,*,#626,.F.);
#953=ORIENTED_EDGE('',*,*,#633,.T.);
#954=ORIENTED_EDGE('',*,*,#688,.F.);
#955=ORIENTED_EDGE('',*,*,#686,.F.);
#956=ORIENTED_EDGE('',*,*,#683,.T.);
#957=ORIENTED_EDGE('',*,*,#689,.T.);
#958=ORIENTED_EDGE('',*,*,#690,.T.);
#959=ORIENTED_EDGE('',*,*,#614,.T.);
#960=ORIENTED_EDGE('',*,*,#687,.T.);
#961=ORIENTED_EDGE('',*,*,#688,.T.);
#962=ORIENTED_EDGE('',*,*,#632,.T.);
#963=ORIENTED_EDGE('',*,*,#650,.T.);
#964=ORIENTED_EDGE('',*,*,#654,.T.);
#965=ORIENTED_EDGE('',*,*,#657,.T.);
#966=ORIENTED_EDGE('',*,*,#691,.T.);
#967=ORIENTED_EDGE('',*,*,#692,.T.);
#968=ORIENTED_EDGE('',*,*,#693,.T.);
#969=ORIENTED_EDGE('',*,*,#596,.T.);
#970=ORIENTED_EDGE('',*,*,#597,.T.);
#971=ORIENTED_EDGE('',*,*,#693,.F.);
#972=ORIENTED_EDGE('',*,*,#694,.F.);
#973=ORIENTED_EDGE('',*,*,#580,.T.);
#974=ORIENTED_EDGE('',*,*,#695,.F.);
#975=ORIENTED_EDGE('',*,*,#696,.F.);
#976=ORIENTED_EDGE('',*,*,#697,.F.);
#977=ORIENTED_EDGE('',*,*,#698,.F.);
#978=ORIENTED_EDGE('',*,*,#694,.T.);
#979=ORIENTED_EDGE('',*,*,#692,.F.);
#980=ORIENTED_EDGE('',*,*,#699,.F.);
#981=ORIENTED_EDGE('',*,*,#581,.T.);
#982=ORIENTED_EDGE('',*,*,#699,.T.);
#983=ORIENTED_EDGE('',*,*,#691,.F.);
#984=ORIENTED_EDGE('',*,*,#656,.F.);
#985=ORIENTED_EDGE('',*,*,#582,.T.);
#986=ORIENTED_EDGE('',*,*,#700,.F.);
#987=ORIENTED_EDGE('',*,*,#696,.T.);
#988=ORIENTED_EDGE('',*,*,#701,.T.);
#989=ORIENTED_EDGE('',*,*,#702,.F.);
#990=ORIENTED_EDGE('',*,*,#703,.T.);
#991=ORIENTED_EDGE('',*,*,#704,.F.);
#992=ORIENTED_EDGE('',*,*,#705,.F.);
#993=ORIENTED_EDGE('',*,*,#706,.F.);
#994=ORIENTED_EDGE('',*,*,#702,.T.);
#995=ORIENTED_EDGE('',*,*,#707,.T.);
#996=ORIENTED_EDGE('',*,*,#708,.F.);
#997=ORIENTED_EDGE('',*,*,#709,.T.);
#998=ORIENTED_EDGE('',*,*,#706,.T.);
#999=ORIENTED_EDGE('',*,*,#710,.F.);
#1000=ORIENTED_EDGE('',*,*,#711,.T.);
#1001=ORIENTED_EDGE('',*,*,#712,.F.);
#1002=ORIENTED_EDGE('',*,*,#703,.F.);
#1003=ORIENTED_EDGE('',*,*,#708,.T.);
#1004=ORIENTED_EDGE('',*,*,#713,.T.);
#1005=ORIENTED_EDGE('',*,*,#714,.T.);
#1006=ORIENTED_EDGE('',*,*,#704,.T.);
#1007=ORIENTED_EDGE('',*,*,#712,.T.);
#1008=ORIENTED_EDGE('',*,*,#705,.T.);
#1009=ORIENTED_EDGE('',*,*,#714,.F.);
#1010=ORIENTED_EDGE('',*,*,#715,.F.);
#1011=ORIENTED_EDGE('',*,*,#710,.T.);
#1012=ORIENTED_EDGE('',*,*,#701,.F.);
#1013=ORIENTED_EDGE('',*,*,#695,.T.);
#1014=ORIENTED_EDGE('',*,*,#700,.T.);
#1015=ORIENTED_EDGE('',*,*,#709,.F.);
#1016=ORIENTED_EDGE('',*,*,#715,.T.);
#1017=ORIENTED_EDGE('',*,*,#713,.F.);
#1018=ORIENTED_EDGE('',*,*,#711,.F.);
#1019=ORIENTED_EDGE('',*,*,#707,.F.);
#1020=ORIENTED_EDGE('',*,*,#716,.F.);
#1021=ORIENTED_EDGE('',*,*,#698,.T.);
#1022=ORIENTED_EDGE('',*,*,#717,.T.);
#1023=ORIENTED_EDGE('',*,*,#718,.F.);
#1024=ORIENTED_EDGE('',*,*,#719,.T.);
#1025=ORIENTED_EDGE('',*,*,#720,.F.);
#1026=ORIENTED_EDGE('',*,*,#721,.F.);
#1027=ORIENTED_EDGE('',*,*,#722,.F.);
#1028=ORIENTED_EDGE('',*,*,#718,.T.);
#1029=ORIENTED_EDGE('',*,*,#723,.T.);
#1030=ORIENTED_EDGE('',*,*,#724,.F.);
#1031=ORIENTED_EDGE('',*,*,#725,.T.);
#1032=ORIENTED_EDGE('',*,*,#722,.T.);
#1033=ORIENTED_EDGE('',*,*,#726,.F.);
#1034=ORIENTED_EDGE('',*,*,#727,.T.);
#1035=ORIENTED_EDGE('',*,*,#728,.F.);
#1036=ORIENTED_EDGE('',*,*,#719,.F.);
#1037=ORIENTED_EDGE('',*,*,#724,.T.);
#1038=ORIENTED_EDGE('',*,*,#729,.T.);
#1039=ORIENTED_EDGE('',*,*,#730,.T.);
#1040=ORIENTED_EDGE('',*,*,#720,.T.);
#1041=ORIENTED_EDGE('',*,*,#728,.T.);
#1042=ORIENTED_EDGE('',*,*,#721,.T.);
#1043=ORIENTED_EDGE('',*,*,#730,.F.);
#1044=ORIENTED_EDGE('',*,*,#731,.F.);
#1045=ORIENTED_EDGE('',*,*,#726,.T.);
#1046=ORIENTED_EDGE('',*,*,#717,.F.);
#1047=ORIENTED_EDGE('',*,*,#697,.T.);
#1048=ORIENTED_EDGE('',*,*,#716,.T.);
#1049=ORIENTED_EDGE('',*,*,#725,.F.);
#1050=ORIENTED_EDGE('',*,*,#731,.T.);
#1051=ORIENTED_EDGE('',*,*,#729,.F.);
#1052=ORIENTED_EDGE('',*,*,#727,.F.);
#1053=ORIENTED_EDGE('',*,*,#723,.F.);
#1054=ORIENTED_EDGE('',*,*,#615,.T.);
#1055=ORIENTED_EDGE('',*,*,#690,.F.);
#1056=ORIENTED_EDGE('',*,*,#732,.F.);
#1057=ORIENTED_EDGE('',*,*,#733,.T.);
#1058=ORIENTED_EDGE('',*,*,#734,.F.);
#1059=ORIENTED_EDGE('',*,*,#590,.T.);
#1060=ORIENTED_EDGE('',*,*,#622,.T.);
#1061=ORIENTED_EDGE('',*,*,#735,.F.);
#1062=ORIENTED_EDGE('',*,*,#619,.T.);
#1063=ORIENTED_EDGE('',*,*,#736,.F.);
#1064=ORIENTED_EDGE('',*,*,#737,.F.);
#1065=ORIENTED_EDGE('',*,*,#603,.T.);
#1066=ORIENTED_EDGE('',*,*,#733,.F.);
#1067=ORIENTED_EDGE('',*,*,#738,.F.);
#1068=ORIENTED_EDGE('',*,*,#739,.F.);
#1069=ORIENTED_EDGE('',*,*,#740,.F.);
#1070=ORIENTED_EDGE('',*,*,#741,.T.);
#1071=ORIENTED_EDGE('',*,*,#742,.T.);
#1072=ORIENTED_EDGE('',*,*,#743,.T.);
#1073=ORIENTED_EDGE('',*,*,#744,.T.);
#1074=ORIENTED_EDGE('',*,*,#616,.F.);
#1075=ORIENTED_EDGE('',*,*,#744,.F.);
#1076=ORIENTED_EDGE('',*,*,#745,.T.);
#1077=ORIENTED_EDGE('',*,*,#746,.T.);
#1078=ORIENTED_EDGE('',*,*,#617,.F.);
#1079=ORIENTED_EDGE('',*,*,#747,.F.);
#1080=ORIENTED_EDGE('',*,*,#748,.T.);
#1081=ORIENTED_EDGE('',*,*,#736,.T.);
#1082=ORIENTED_EDGE('',*,*,#618,.F.);
#1083=ORIENTED_EDGE('',*,*,#746,.F.);
#1084=ORIENTED_EDGE('',*,*,#749,.F.);
#1085=ORIENTED_EDGE('',*,*,#750,.F.);
#1086=ORIENTED_EDGE('',*,*,#751,.F.);
#1087=ORIENTED_EDGE('',*,*,#752,.T.);
#1088=ORIENTED_EDGE('',*,*,#740,.T.);
#1089=ORIENTED_EDGE('',*,*,#753,.F.);
#1090=ORIENTED_EDGE('',*,*,#752,.F.);
#1091=ORIENTED_EDGE('',*,*,#754,.T.);
#1092=ORIENTED_EDGE('',*,*,#751,.T.);
#1093=ORIENTED_EDGE('',*,*,#755,.F.);
#1094=ORIENTED_EDGE('',*,*,#741,.F.);
#1095=ORIENTED_EDGE('',*,*,#754,.F.);
#1096=ORIENTED_EDGE('',*,*,#755,.T.);
#1097=ORIENTED_EDGE('',*,*,#750,.T.);
#1098=ORIENTED_EDGE('',*,*,#756,.F.);
#1099=ORIENTED_EDGE('',*,*,#742,.F.);
#1100=ORIENTED_EDGE('',*,*,#756,.T.);
#1101=ORIENTED_EDGE('',*,*,#749,.T.);
#1102=ORIENTED_EDGE('',*,*,#745,.F.);
#1103=ORIENTED_EDGE('',*,*,#743,.F.);
#1104=ORIENTED_EDGE('',*,*,#747,.T.);
#1105=ORIENTED_EDGE('',*,*,#753,.T.);
#1106=ORIENTED_EDGE('',*,*,#739,.T.);
#1107=ORIENTED_EDGE('',*,*,#594,.F.);
#1108=ORIENTED_EDGE('',*,*,#732,.T.);
#1109=ORIENTED_EDGE('',*,*,#689,.F.);
#1110=ORIENTED_EDGE('',*,*,#595,.F.);
#1111=ORIENTED_EDGE('',*,*,#738,.T.);
#1112=ORIENTED_EDGE('',*,*,#598,.F.);
#1113=ORIENTED_EDGE('',*,*,#591,.T.);
#1114=ORIENTED_EDGE('',*,*,#734,.T.);
#1115=ORIENTED_EDGE('',*,*,#757,.F.);
#1116=ORIENTED_EDGE('',*,*,#737,.T.);
#1117=ORIENTED_EDGE('',*,*,#748,.F.);
#1118=ORIENTED_EDGE('',*,*,#593,.F.);
#1119=ORIENTED_EDGE('',*,*,#604,.T.);
#1120=ORIENTED_EDGE('',*,*,#600,.F.);
#1121=ORIENTED_EDGE('',*,*,#757,.T.);
#1122=ORIENTED_EDGE('',*,*,#735,.T.);
#1123=ORIENTED_EDGE('',*,*,#621,.F.);
#1124=ORIENTED_EDGE('',*,*,#758,.F.);
#1125=ORIENTED_EDGE('',*,*,#759,.F.);
#1126=ORIENTED_EDGE('',*,*,#760,.F.);
#1127=ORIENTED_EDGE('',*,*,#761,.F.);
#1128=ORIENTED_EDGE('',*,*,#762,.T.);
#1129=ORIENTED_EDGE('',*,*,#605,.T.);
#1130=ORIENTED_EDGE('',*,*,#601,.F.);
#1131=ORIENTED_EDGE('',*,*,#762,.F.);
#1132=ORIENTED_EDGE('',*,*,#763,.T.);
#1133=ORIENTED_EDGE('',*,*,#761,.T.);
#1134=ORIENTED_EDGE('',*,*,#764,.F.);
#1135=ORIENTED_EDGE('',*,*,#606,.F.);
#1136=ORIENTED_EDGE('',*,*,#763,.F.);
#1137=ORIENTED_EDGE('',*,*,#764,.T.);
#1138=ORIENTED_EDGE('',*,*,#760,.T.);
#1139=ORIENTED_EDGE('',*,*,#765,.F.);
#1140=ORIENTED_EDGE('',*,*,#607,.F.);
#1141=ORIENTED_EDGE('',*,*,#765,.T.);
#1142=ORIENTED_EDGE('',*,*,#759,.T.);
#1143=ORIENTED_EDGE('',*,*,#766,.F.);
#1144=ORIENTED_EDGE('',*,*,#608,.F.);
#1145=ORIENTED_EDGE('',*,*,#609,.F.);
#1146=ORIENTED_EDGE('',*,*,#766,.T.);
#1147=ORIENTED_EDGE('',*,*,#758,.T.);
#1148=ORIENTED_EDGE('',*,*,#620,.F.);
#1149=ORIENTED_EDGE('',*,*,#767,.T.);
#1150=ORIENTED_EDGE('',*,*,#768,.F.);
#1151=ORIENTED_EDGE('',*,*,#769,.F.);
#1152=ORIENTED_EDGE('',*,*,#643,.T.);
#1153=ORIENTED_EDGE('',*,*,#769,.T.);
#1154=ORIENTED_EDGE('',*,*,#770,.F.);
#1155=ORIENTED_EDGE('',*,*,#771,.F.);
#1156=ORIENTED_EDGE('',*,*,#640,.T.);
#1157=ORIENTED_EDGE('',*,*,#771,.T.);
#1158=ORIENTED_EDGE('',*,*,#772,.F.);
#1159=ORIENTED_EDGE('',*,*,#773,.F.);
#1160=ORIENTED_EDGE('',*,*,#641,.T.);
#1161=ORIENTED_EDGE('',*,*,#773,.T.);
#1162=ORIENTED_EDGE('',*,*,#774,.F.);
#1163=ORIENTED_EDGE('',*,*,#767,.F.);
#1164=ORIENTED_EDGE('',*,*,#642,.T.);
#1165=ORIENTED_EDGE('',*,*,#774,.T.);
#1166=ORIENTED_EDGE('',*,*,#772,.T.);
#1167=ORIENTED_EDGE('',*,*,#770,.T.);
#1168=ORIENTED_EDGE('',*,*,#768,.T.);
#1169=ORIENTED_EDGE('',*,*,#775,.T.);
#1170=ORIENTED_EDGE('',*,*,#776,.F.);
#1171=ORIENTED_EDGE('',*,*,#777,.F.);
#1172=ORIENTED_EDGE('',*,*,#647,.T.);
#1173=ORIENTED_EDGE('',*,*,#777,.T.);
#1174=ORIENTED_EDGE('',*,*,#778,.F.);
#1175=ORIENTED_EDGE('',*,*,#779,.F.);
#1176=ORIENTED_EDGE('',*,*,#644,.T.);
#1177=ORIENTED_EDGE('',*,*,#779,.T.);
#1178=ORIENTED_EDGE('',*,*,#780,.F.);
#1179=ORIENTED_EDGE('',*,*,#781,.F.);
#1180=ORIENTED_EDGE('',*,*,#645,.T.);
#1181=ORIENTED_EDGE('',*,*,#781,.T.);
#1182=ORIENTED_EDGE('',*,*,#782,.F.);
#1183=ORIENTED_EDGE('',*,*,#775,.F.);
#1184=ORIENTED_EDGE('',*,*,#646,.T.);
#1185=ORIENTED_EDGE('',*,*,#782,.T.);
#1186=ORIENTED_EDGE('',*,*,#780,.T.);
#1187=ORIENTED_EDGE('',*,*,#778,.T.);
#1188=ORIENTED_EDGE('',*,*,#776,.T.);
#1189=EDGE_LOOP('',(#783,#784,#785,#786,#787,#788,#789,#790,#791,#792,#793,
#794,#795));
#1190=EDGE_LOOP('',(#796,#797,#798,#799,#800,#801,#802,#803));
#1191=EDGE_LOOP('',(#804,#805,#806,#807));
#1192=EDGE_LOOP('',(#808,#809,#810,#811,#812,#813,#814,#815,#816));
#1193=EDGE_LOOP('',(#817,#818,#819,#820,#821,#822,#823,#824,#825,#826,#827,
#828,#829,#830,#831,#832));
#1194=EDGE_LOOP('',(#833,#834,#835,#836));
#1195=EDGE_LOOP('',(#837,#838,#839,#840));
#1196=EDGE_LOOP('',(#841,#842,#843,#844,#845,#846,#847,#848,#849,#850,#851,
#852));
#1197=EDGE_LOOP('',(#853,#854,#855,#856));
#1198=EDGE_LOOP('',(#857,#858,#859,#860));
#1199=EDGE_LOOP('',(#861,#862,#863,#864));
#1200=EDGE_LOOP('',(#865,#866,#867,#868));
#1201=EDGE_LOOP('',(#869,#870,#871,#872));
#1202=EDGE_LOOP('',(#873,#874,#875,#876));
#1203=EDGE_LOOP('',(#877,#878,#879,#880,#881,#882,#883,#884));
#1204=EDGE_LOOP('',(#885,#886,#887,#888));
#1205=EDGE_LOOP('',(#889,#890,#891,#892));
#1206=EDGE_LOOP('',(#893,#894,#895,#896));
#1207=EDGE_LOOP('',(#897,#898,#899,#900));
#1208=EDGE_LOOP('',(#901,#902,#903,#904));
#1209=EDGE_LOOP('',(#905,#906,#907,#908));
#1210=EDGE_LOOP('',(#909,#910,#911,#912));
#1211=EDGE_LOOP('',(#913,#914,#915,#916));
#1212=EDGE_LOOP('',(#917,#918,#919,#920));
#1213=EDGE_LOOP('',(#921,#922,#923,#924));
#1214=EDGE_LOOP('',(#925,#926,#927,#928));
#1215=EDGE_LOOP('',(#929,#930,#931,#932));
#1216=EDGE_LOOP('',(#933,#934,#935,#936));
#1217=EDGE_LOOP('',(#937,#938,#939,#940));
#1218=EDGE_LOOP('',(#941,#942,#943,#944));
#1219=EDGE_LOOP('',(#945,#946,#947,#948));
#1220=EDGE_LOOP('',(#949,#950,#951,#952));
#1221=EDGE_LOOP('',(#953,#954,#955,#956));
#1222=EDGE_LOOP('',(#957,#958,#959,#960,#961,#962,#963,#964,#965,#966,#967,
#968,#969));
#1223=EDGE_LOOP('',(#970,#971,#972,#973));
#1224=EDGE_LOOP('',(#974,#975));
#1225=EDGE_LOOP('',(#976,#977));
#1226=EDGE_LOOP('',(#978,#979,#980,#981));
#1227=EDGE_LOOP('',(#982,#983,#984,#985));
#1228=EDGE_LOOP('',(#986,#987,#988,#989,#990,#991,#992,#993));
#1229=EDGE_LOOP('',(#994,#995,#996));
#1230=EDGE_LOOP('',(#997,#998,#999));
#1231=EDGE_LOOP('',(#1000,#1001,#1002,#1003));
#1232=EDGE_LOOP('',(#1004,#1005,#1006,#1007));
#1233=EDGE_LOOP('',(#1008,#1009,#1010,#1011));
#1234=EDGE_LOOP('',(#1012,#1013,#1014,#1015,#1016,#1017,#1018,#1019));
#1235=EDGE_LOOP('',(#1020,#1021,#1022,#1023,#1024,#1025,#1026,#1027));
#1236=EDGE_LOOP('',(#1028,#1029,#1030));
#1237=EDGE_LOOP('',(#1031,#1032,#1033));
#1238=EDGE_LOOP('',(#1034,#1035,#1036,#1037));
#1239=EDGE_LOOP('',(#1038,#1039,#1040,#1041));
#1240=EDGE_LOOP('',(#1042,#1043,#1044,#1045));
#1241=EDGE_LOOP('',(#1046,#1047,#1048,#1049,#1050,#1051,#1052,#1053));
#1242=EDGE_LOOP('',(#1054,#1055,#1056,#1057));
#1243=EDGE_LOOP('',(#1058,#1059,#1060,#1061));
#1244=EDGE_LOOP('',(#1062,#1063,#1064,#1065));
#1245=EDGE_LOOP('',(#1066,#1067,#1068,#1069,#1070,#1071,#1072,#1073,#1074));
#1246=EDGE_LOOP('',(#1075,#1076,#1077,#1078));
#1247=EDGE_LOOP('',(#1079,#1080,#1081,#1082,#1083,#1084,#1085,#1086,#1087));
#1248=EDGE_LOOP('',(#1088,#1089,#1090,#1091));
#1249=EDGE_LOOP('',(#1092,#1093,#1094,#1095));
#1250=EDGE_LOOP('',(#1096,#1097,#1098,#1099));
#1251=EDGE_LOOP('',(#1100,#1101,#1102,#1103));
#1252=EDGE_LOOP('',(#1104,#1105,#1106,#1107));
#1253=EDGE_LOOP('',(#1108,#1109,#1110,#1111));
#1254=EDGE_LOOP('',(#1112,#1113,#1114,#1115));
#1255=EDGE_LOOP('',(#1116,#1117,#1118,#1119));
#1256=EDGE_LOOP('',(#1120,#1121,#1122,#1123,#1124,#1125,#1126,#1127,#1128));
#1257=EDGE_LOOP('',(#1129,#1130,#1131,#1132));
#1258=EDGE_LOOP('',(#1133,#1134,#1135,#1136));
#1259=EDGE_LOOP('',(#1137,#1138,#1139,#1140));
#1260=EDGE_LOOP('',(#1141,#1142,#1143,#1144));
#1261=EDGE_LOOP('',(#1145,#1146,#1147,#1148));
#1262=EDGE_LOOP('',(#1149,#1150,#1151,#1152));
#1263=EDGE_LOOP('',(#1153,#1154,#1155,#1156));
#1264=EDGE_LOOP('',(#1157,#1158,#1159,#1160));
#1265=EDGE_LOOP('',(#1161,#1162,#1163,#1164));
#1266=EDGE_LOOP('',(#1165,#1166,#1167,#1168));
#1267=EDGE_LOOP('',(#1169,#1170,#1171,#1172));
#1268=EDGE_LOOP('',(#1173,#1174,#1175,#1176));
#1269=EDGE_LOOP('',(#1177,#1178,#1179,#1180));
#1270=EDGE_LOOP('',(#1181,#1182,#1183,#1184));
#1271=EDGE_LOOP('',(#1185,#1186,#1187,#1188));
#1272=FACE_BOUND('',#1189,.T.);
#1273=FACE_BOUND('',#1190,.T.);
#1274=FACE_BOUND('',#1191,.T.);
#1275=FACE_BOUND('',#1192,.T.);
#1276=FACE_BOUND('',#1193,.T.);
#1277=FACE_BOUND('',#1194,.T.);
#1278=FACE_BOUND('',#1195,.T.);
#1279=FACE_BOUND('',#1196,.T.);
#1280=FACE_BOUND('',#1197,.T.);
#1281=FACE_BOUND('',#1198,.T.);
#1282=FACE_BOUND('',#1199,.T.);
#1283=FACE_BOUND('',#1200,.T.);
#1284=FACE_BOUND('',#1201,.T.);
#1285=FACE_BOUND('',#1202,.T.);
#1286=FACE_BOUND('',#1203,.T.);
#1287=FACE_BOUND('',#1204,.T.);
#1288=FACE_BOUND('',#1205,.T.);
#1289=FACE_BOUND('',#1206,.T.);
#1290=FACE_BOUND('',#1207,.T.);
#1291=FACE_BOUND('',#1208,.T.);
#1292=FACE_BOUND('',#1209,.T.);
#1293=FACE_BOUND('',#1210,.T.);
#1294=FACE_BOUND('',#1211,.T.);
#1295=FACE_BOUND('',#1212,.T.);
#1296=FACE_BOUND('',#1213,.T.);
#1297=FACE_BOUND('',#1214,.T.);
#1298=FACE_BOUND('',#1215,.T.);
#1299=FACE_BOUND('',#1216,.T.);
#1300=FACE_BOUND('',#1217,.T.);
#1301=FACE_BOUND('',#1218,.T.);
#1302=FACE_BOUND('',#1219,.T.);
#1303=FACE_BOUND('',#1220,.T.);
#1304=FACE_BOUND('',#1221,.T.);
#1305=FACE_BOUND('',#1222,.T.);
#1306=FACE_BOUND('',#1223,.T.);
#1307=FACE_BOUND('',#1224,.T.);
#1308=FACE_BOUND('',#1225,.T.);
#1309=FACE_BOUND('',#1226,.T.);
#1310=FACE_BOUND('',#1227,.T.);
#1311=FACE_BOUND('',#1228,.T.);
#1312=FACE_BOUND('',#1229,.T.);
#1313=FACE_BOUND('',#1230,.T.);
#1314=FACE_BOUND('',#1231,.T.);
#1315=FACE_BOUND('',#1232,.T.);
#1316=FACE_BOUND('',#1233,.T.);
#1317=FACE_BOUND('',#1234,.T.);
#1318=FACE_BOUND('',#1235,.T.);
#1319=FACE_BOUND('',#1236,.T.);
#1320=FACE_BOUND('',#1237,.T.);
#1321=FACE_BOUND('',#1238,.T.);
#1322=FACE_BOUND('',#1239,.T.);
#1323=FACE_BOUND('',#1240,.T.);
#1324=FACE_BOUND('',#1241,.T.);
#1325=FACE_BOUND('',#1242,.T.);
#1326=FACE_BOUND('',#1243,.T.);
#1327=FACE_BOUND('',#1244,.T.);
#1328=FACE_BOUND('',#1245,.T.);
#1329=FACE_BOUND('',#1246,.T.);
#1330=FACE_BOUND('',#1247,.T.);
#1331=FACE_BOUND('',#1248,.T.);
#1332=FACE_BOUND('',#1249,.T.);
#1333=FACE_BOUND('',#1250,.T.);
#1334=FACE_BOUND('',#1251,.T.);
#1335=FACE_BOUND('',#1252,.T.);
#1336=FACE_BOUND('',#1253,.T.);
#1337=FACE_BOUND('',#1254,.T.);
#1338=FACE_BOUND('',#1255,.T.);
#1339=FACE_BOUND('',#1256,.T.);
#1340=FACE_BOUND('',#1257,.T.);
#1341=FACE_BOUND('',#1258,.T.);
#1342=FACE_BOUND('',#1259,.T.);
#1343=FACE_BOUND('',#1260,.T.);
#1344=FACE_BOUND('',#1261,.T.);
#1345=FACE_BOUND('',#1262,.T.);
#1346=FACE_BOUND('',#1263,.T.);
#1347=FACE_BOUND('',#1264,.T.);
#1348=FACE_BOUND('',#1265,.T.);
#1349=FACE_BOUND('',#1266,.T.);
#1350=FACE_BOUND('',#1267,.T.);
#1351=FACE_BOUND('',#1268,.T.);
#1352=FACE_BOUND('',#1269,.T.);
#1353=FACE_BOUND('',#1270,.T.);
#1354=FACE_BOUND('',#1271,.T.);
#1355=ADVANCED_FACE('',(#1272),#2262,.F.);
#1356=ADVANCED_FACE('',(#1273),#2263,.T.);
#1357=ADVANCED_FACE('',(#1274),#2264,.T.);
#1358=ADVANCED_FACE('',(#1275),#2265,.F.);
#1359=ADVANCED_FACE('',(#1276),#2266,.T.);
#1360=ADVANCED_FACE('',(#1277),#2267,.F.);
#1361=ADVANCED_FACE('',(#1278),#2268,.F.);
#1362=ADVANCED_FACE('',(#1279,#1280,#1281),#2269,.T.);
#1363=ADVANCED_FACE('',(#1282),#2270,.T.);
#1364=ADVANCED_FACE('',(#1283),#2271,.T.);
#1365=ADVANCED_FACE('',(#1284),#2272,.T.);
#1366=ADVANCED_FACE('',(#1285),#2273,.T.);
#1367=ADVANCED_FACE('',(#1286,#1287,#1288),#2274,.T.);
#1368=ADVANCED_FACE('',(#1289),#2275,.F.);
#1369=ADVANCED_FACE('',(#1290),#2276,.F.);
#1370=ADVANCED_FACE('',(#1291),#2277,.F.);
#1371=ADVANCED_FACE('',(#1292),#2278,.F.);
#1372=ADVANCED_FACE('',(#1293),#2279,.T.);
#1373=ADVANCED_FACE('',(#1294),#2280,.F.);
#1374=ADVANCED_FACE('',(#1295),#2281,.F.);
#1375=ADVANCED_FACE('',(#1296),#2282,.F.);
#1376=ADVANCED_FACE('',(#1297),#2283,.F.);
#1377=ADVANCED_FACE('',(#1298),#2284,.T.);
#1378=ADVANCED_FACE('',(#1299),#2285,.F.);
#1379=ADVANCED_FACE('',(#1300),#2286,.F.);
#1380=ADVANCED_FACE('',(#1301),#2287,.T.);
#1381=ADVANCED_FACE('',(#1302),#2288,.T.);
#1382=ADVANCED_FACE('',(#1303),#2289,.T.);
#1383=ADVANCED_FACE('',(#1304),#2290,.T.);
#1384=ADVANCED_FACE('',(#1305),#2291,.T.);
#1385=ADVANCED_FACE('',(#1306,#1307,#1308),#2292,.T.);
#1386=ADVANCED_FACE('',(#1309),#2293,.T.);
#1387=ADVANCED_FACE('',(#1310),#2294,.T.);
#1388=ADVANCED_FACE('',(#1311),#55,.F.);
#1389=ADVANCED_FACE('',(#1312),#2295,.T.);
#1390=ADVANCED_FACE('',(#1313),#2296,.T.);
#1391=ADVANCED_FACE('',(#1314),#2297,.F.);
#1392=ADVANCED_FACE('',(#1315),#2298,.T.);
#1393=ADVANCED_FACE('',(#1316),#2299,.F.);
#1394=ADVANCED_FACE('',(#1317),#56,.F.);
#1395=ADVANCED_FACE('',(#1318),#57,.F.);
#1396=ADVANCED_FACE('',(#1319),#2300,.T.);
#1397=ADVANCED_FACE('',(#1320),#2301,.T.);
#1398=ADVANCED_FACE('',(#1321),#2302,.F.);
#1399=ADVANCED_FACE('',(#1322),#2303,.T.);
#1400=ADVANCED_FACE('',(#1323),#2304,.F.);
#1401=ADVANCED_FACE('',(#1324),#58,.F.);
#1402=ADVANCED_FACE('',(#1325),#59,.T.);
#1403=ADVANCED_FACE('',(#1326),#60,.T.);
#1404=ADVANCED_FACE('',(#1327),#61,.T.);
#1405=ADVANCED_FACE('',(#1328),#2305,.F.);
#1406=ADVANCED_FACE('',(#1329),#2306,.F.);
#1407=ADVANCED_FACE('',(#1330),#2307,.F.);
#1408=ADVANCED_FACE('',(#1331),#2308,.F.);
#1409=ADVANCED_FACE('',(#1332),#2309,.F.);
#1410=ADVANCED_FACE('',(#1333),#2310,.F.);
#1411=ADVANCED_FACE('',(#1334),#2311,.F.);
#1412=ADVANCED_FACE('',(#1335),#2312,.T.);
#1413=ADVANCED_FACE('',(#1336),#2313,.T.);
#1414=ADVANCED_FACE('',(#1337),#2314,.T.);
#1415=ADVANCED_FACE('',(#1338),#2315,.T.);
#1416=ADVANCED_FACE('',(#1339),#2316,.F.);
#1417=ADVANCED_FACE('',(#1340),#2317,.F.);
#1418=ADVANCED_FACE('',(#1341),#2318,.F.);
#1419=ADVANCED_FACE('',(#1342),#2319,.F.);
#1420=ADVANCED_FACE('',(#1343),#2320,.F.);
#1421=ADVANCED_FACE('',(#1344),#2321,.F.);
#1422=ADVANCED_FACE('',(#1345),#2322,.T.);
#1423=ADVANCED_FACE('',(#1346),#2323,.T.);
#1424=ADVANCED_FACE('',(#1347),#2324,.T.);
#1425=ADVANCED_FACE('',(#1348),#2325,.T.);
#1426=ADVANCED_FACE('',(#1349),#2326,.T.);
#1427=ADVANCED_FACE('',(#1350),#2327,.T.);
#1428=ADVANCED_FACE('',(#1351),#2328,.T.);
#1429=ADVANCED_FACE('',(#1352),#2329,.T.);
#1430=ADVANCED_FACE('',(#1353),#2330,.T.);
#1431=ADVANCED_FACE('',(#1354),#2331,.T.);
#1432=AXIS2_PLACEMENT_3D('',#1846,#1533,$);
#1433=AXIS2_PLACEMENT_3D('',#1868,#1544,#1545);
#1434=AXIS2_PLACEMENT_3D('',#1873,#1548,$);
#1435=AXIS2_PLACEMENT_3D('',#1887,#1556,$);
#1436=AXIS2_PLACEMENT_3D('',#1893,#1560,$);
#1437=AXIS2_PLACEMENT_3D('',#1894,#1561,#1562);
#1438=AXIS2_PLACEMENT_3D('',#1909,#1570,$);
#1439=AXIS2_PLACEMENT_3D('',#1936,#1585,$);
#1440=AXIS2_PLACEMENT_3D('',#1942,#1589,$);
#1441=AXIS2_PLACEMENT_3D('',#1951,#1594,$);
#1442=AXIS2_PLACEMENT_3D('',#1981,#1611,$);
#1443=AXIS2_PLACEMENT_3D('',#1983,#1613,$);
#1444=AXIS2_PLACEMENT_3D('',#1989,#1617,$);
#1445=AXIS2_PLACEMENT_3D('',#1991,#1619,$);
#1446=AXIS2_PLACEMENT_3D('',#1997,#1623,$);
#1447=AXIS2_PLACEMENT_3D('',#2018,#1635,$);
#1448=AXIS2_PLACEMENT_3D('',#2024,#1639,$);
#1449=AXIS2_PLACEMENT_3D('',#2028,#1642,$);
#1450=AXIS2_PLACEMENT_3D('',#2032,#1645,$);
#1451=AXIS2_PLACEMENT_3D('',#2034,#1647,$);
#1452=AXIS2_PLACEMENT_3D('',#2035,#1648,$);
#1453=AXIS2_PLACEMENT_3D('',#2041,#1652,$);
#1454=AXIS2_PLACEMENT_3D('',#2045,#1655,$);
#1455=AXIS2_PLACEMENT_3D('',#2049,#1658,$);
#1456=AXIS2_PLACEMENT_3D('',#2051,#1660,$);
#1457=AXIS2_PLACEMENT_3D('',#2052,#1661,$);
#1458=AXIS2_PLACEMENT_3D('',#2056,#1664,$);
#1459=AXIS2_PLACEMENT_3D('',#2057,#1665,$);
#1460=AXIS2_PLACEMENT_3D('',#2059,#1667,$);
#1461=AXIS2_PLACEMENT_3D('',#2063,#1670,$);
#1462=AXIS2_PLACEMENT_3D('',#2064,#1671,$);
#1463=AXIS2_PLACEMENT_3D('',#2066,#1673,$);
#1464=AXIS2_PLACEMENT_3D('',#2069,#1675,#1676);
#1465=AXIS2_PLACEMENT_3D('',#2075,#1680,$);
#1466=AXIS2_PLACEMENT_3D('',#2077,#1682,#1683);
#1467=AXIS2_PLACEMENT_3D('',#2080,#1684,#1685);
#1468=AXIS2_PLACEMENT_3D('',#2081,#1686,#1687);
#1469=AXIS2_PLACEMENT_3D('',#2084,#1688,#1689);
#1470=AXIS2_PLACEMENT_3D('',#2085,#1690,$);
#1471=AXIS2_PLACEMENT_3D('',#2087,#1692,$);
#1472=AXIS2_PLACEMENT_3D('',#2088,#1693,#1694);
#1473=AXIS2_PLACEMENT_3D('',#2093,#1697,#1698);
#1474=AXIS2_PLACEMENT_3D('',#2097,#1700,#1701);
#1475=AXIS2_PLACEMENT_3D('',#2101,#1703,#1704);
#1476=AXIS2_PLACEMENT_3D('',#2102,#1705,$);
#1477=AXIS2_PLACEMENT_3D('',#2103,#1706,#1707);
#1478=AXIS2_PLACEMENT_3D('',#2106,#1709,$);
#1479=AXIS2_PLACEMENT_3D('',#2107,#1710,#1711);
#1480=AXIS2_PLACEMENT_3D('',#2110,#1713,$);
#1481=AXIS2_PLACEMENT_3D('',#2114,#1716,$);
#1482=AXIS2_PLACEMENT_3D('',#2115,#1717,#1718);
#1483=AXIS2_PLACEMENT_3D('',#2118,#1720,$);
#1484=AXIS2_PLACEMENT_3D('',#2120,#1722,#1723);
#1485=AXIS2_PLACEMENT_3D('',#2121,#1724,#1725);
#1486=AXIS2_PLACEMENT_3D('',#2126,#1728,#1729);
#1487=AXIS2_PLACEMENT_3D('',#2130,#1731,#1732);
#1488=AXIS2_PLACEMENT_3D('',#2134,#1734,#1735);
#1489=AXIS2_PLACEMENT_3D('',#2135,#1736,$);
#1490=AXIS2_PLACEMENT_3D('',#2136,#1737,#1738);
#1491=AXIS2_PLACEMENT_3D('',#2139,#1740,$);
#1492=AXIS2_PLACEMENT_3D('',#2140,#1741,#1742);
#1493=AXIS2_PLACEMENT_3D('',#2143,#1744,$);
#1494=AXIS2_PLACEMENT_3D('',#2147,#1747,$);
#1495=AXIS2_PLACEMENT_3D('',#2148,#1748,#1749);
#1496=AXIS2_PLACEMENT_3D('',#2151,#1751,$);
#1497=AXIS2_PLACEMENT_3D('',#2153,#1753,#1754);
#1498=AXIS2_PLACEMENT_3D('',#2154,#1755,#1756);
#1499=AXIS2_PLACEMENT_3D('',#2157,#1758,#1759);
#1500=AXIS2_PLACEMENT_3D('',#2158,#1760,#1761);
#1501=AXIS2_PLACEMENT_3D('',#2161,#1763,#1764);
#1502=AXIS2_PLACEMENT_3D('',#2162,#1765,#1766);
#1503=AXIS2_PLACEMENT_3D('',#2163,#1767,#1768);
#1504=AXIS2_PLACEMENT_3D('',#2166,#1770,$);
#1505=AXIS2_PLACEMENT_3D('',#2179,#1778,$);
#1506=AXIS2_PLACEMENT_3D('',#2183,#1781,$);
#1507=AXIS2_PLACEMENT_3D('',#2194,#1788,$);
#1508=AXIS2_PLACEMENT_3D('',#2197,#1791,$);
#1509=AXIS2_PLACEMENT_3D('',#2199,#1793,$);
#1510=AXIS2_PLACEMENT_3D('',#2201,#1795,$);
#1511=AXIS2_PLACEMENT_3D('',#2202,#1796,$);
#1512=AXIS2_PLACEMENT_3D('',#2203,#1797,$);
#1513=AXIS2_PLACEMENT_3D('',#2204,#1798,$);
#1514=AXIS2_PLACEMENT_3D('',#2206,#1800,$);
#1515=AXIS2_PLACEMENT_3D('',#2207,#1801,$);
#1516=AXIS2_PLACEMENT_3D('',#2217,#1807,$);
#1517=AXIS2_PLACEMENT_3D('',#2219,#1809,$);
#1518=AXIS2_PLACEMENT_3D('',#2221,#1811,$);
#1519=AXIS2_PLACEMENT_3D('',#2223,#1813,$);
#1520=AXIS2_PLACEMENT_3D('',#2225,#1815,$);
#1521=AXIS2_PLACEMENT_3D('',#2226,#1816,$);
#1522=AXIS2_PLACEMENT_3D('',#2232,#1820,$);
#1523=AXIS2_PLACEMENT_3D('',#2236,#1823,$);
#1524=AXIS2_PLACEMENT_3D('',#2240,#1826,$);
#1525=AXIS2_PLACEMENT_3D('',#2242,#1828,$);
#1526=AXIS2_PLACEMENT_3D('',#2243,#1829,$);
#1527=AXIS2_PLACEMENT_3D('',#2249,#1833,$);
#1528=AXIS2_PLACEMENT_3D('',#2253,#1836,$);
#1529=AXIS2_PLACEMENT_3D('',#2257,#1839,$);
#1530=AXIS2_PLACEMENT_3D('',#2259,#1841,$);
#1531=AXIS2_PLACEMENT_3D('AXIS_PLACEMENT_1',#2260,#1842,#1843);
#1532=AXIS2_PLACEMENT_3D('AXIS_PLACEMENT_5',#2261,#1844,#1845);
#1533=DIRECTION('',(-1.,0.,0.));
#1534=DIRECTION('',(0.,1.,0.));
#1535=DIRECTION('',(0.,0.219512195121989,0.975609756097552));
#1536=DIRECTION('',(0.,1.,0.));
#1537=DIRECTION('',(0.,0.,1.));
#1538=DIRECTION('',(0.,-1.,0.));
#1539=DIRECTION('',(0.,0.,-1.));
#1540=DIRECTION('',(0.,-1.,0.));
#1541=DIRECTION('',(0.,0.,1.));
#1542=DIRECTION('',(0.,-1.,0.));
#1543=DIRECTION('',(0.,0.,-1.));
#1544=DIRECTION('',(-1.,0.,0.));
#1545=DIRECTION('',(0.,0.,0.3));
#1546=DIRECTION('',(0.,1.,0.));
#1547=DIRECTION('',(0.,0.264235147078598,-0.964458286836892));
#1548=DIRECTION('',(0.,0.964458286836892,0.264235147078598));
#1549=DIRECTION('',(-1.,0.,0.));
#1550=DIRECTION('',(-1.,0.,0.));
#1551=DIRECTION('',(-1.,0.,0.));
#1552=DIRECTION('',(0.,0.264235147078598,-0.964458286836892));
#1553=DIRECTION('',(-1.,0.,0.));
#1554=DIRECTION('',(-1.,0.,0.));
#1555=DIRECTION('',(-1.,0.,0.));
#1556=DIRECTION('',(0.,1.,0.));
#1557=DIRECTION('',(0.,0.,-1.));
#1558=DIRECTION('',(-1.,0.,0.));
#1559=DIRECTION('',(0.,0.,1.));
#1560=DIRECTION('',(-1.,0.,0.));
#1561=DIRECTION('',(-1.,0.,0.));
#1562=DIRECTION('',(0.,0.,0.3));
#1563=DIRECTION('',(0.,1.,0.));
#1564=DIRECTION('',(0.,-1.,0.));
#1565=DIRECTION('',(0.,0.257662650560314,-0.966234939601251));
#1566=DIRECTION('',(0.,1.,0.));
#1567=DIRECTION('',(0.,0.,-1.));
#1568=DIRECTION('',(0.,1.,0.));
#1569=DIRECTION('',(0.,0.,-1.));
#1570=DIRECTION('',(0.,1.,0.));
#1571=DIRECTION('',(1.,0.,0.));
#1572=DIRECTION('',(0.,0.,1.));
#1573=DIRECTION('',(-1.,0.,0.));
#1574=DIRECTION('',(0.,0.,-1.));
#1575=DIRECTION('',(-1.,0.,0.));
#1576=DIRECTION('',(0.,0.,-1.));
#1577=DIRECTION('',(1.,0.,0.));
#1578=DIRECTION('',(0.,0.,1.));
#1579=DIRECTION('',(-1.,0.,0.));
#1580=DIRECTION('',(1.,0.,0.));
#1581=DIRECTION('',(0.,0.,1.));
#1582=DIRECTION('',(-1.,0.,0.));
#1583=DIRECTION('',(-1.,0.,0.));
#1584=DIRECTION('',(0.,0.,1.));
#1585=DIRECTION('',(1.,0.,0.));
#1586=DIRECTION('',(0.,-1.,0.));
#1587=DIRECTION('',(0.,0.,1.));
#1588=DIRECTION('',(0.,-1.,0.));
#1589=DIRECTION('',(1.,0.,0.));
#1590=DIRECTION('',(0.,-1.,0.));
#1591=DIRECTION('',(0.,0.,1.));
#1592=DIRECTION('',(0.,-1.,0.));
#1593=DIRECTION('',(0.,0.,-1.));
#1594=DIRECTION('',(0.,0.,-1.));
#1595=DIRECTION('',(0.,-1.,0.));
#1596=DIRECTION('',(-1.,0.,0.));
#1597=DIRECTION('',(0.,-1.,0.));
#1598=DIRECTION('',(-1.,0.,0.));
#1599=DIRECTION('',(-1.,0.,0.));
#1600=DIRECTION('',(1.,0.,0.));
#1601=DIRECTION('',(0.,-1.,0.));
#1602=DIRECTION('',(-1.,0.,0.));
#1603=DIRECTION('',(-1.,0.,0.));
#1604=DIRECTION('',(0.,-1.,0.));
#1605=DIRECTION('',(1.,0.,0.));
#1606=DIRECTION('',(0.,1.,0.));
#1607=DIRECTION('',(-1.,0.,0.));
#1608=DIRECTION('',(0.,-1.,0.));
#1609=DIRECTION('',(1.,0.,0.));
#1610=DIRECTION('',(0.,1.,0.));
#1611=DIRECTION('',(0.,1.,0.));
#1612=DIRECTION('',(-1.,0.,0.));
#1613=DIRECTION('',(0.,1.,0.));
#1614=DIRECTION('',(-1.,0.,0.));
#1615=DIRECTION('',(0.,0.,-1.));
#1616=DIRECTION('',(0.,0.,-1.));
#1617=DIRECTION('',(0.,0.,-1.));
#1618=DIRECTION('',(-1.,0.,0.));
#1619=DIRECTION('',(0.,0.,-1.));
#1620=DIRECTION('',(-1.,0.,0.));
#1621=DIRECTION('',(0.,-1.,0.));
#1622=DIRECTION('',(0.,-1.,0.));
#1623=DIRECTION('',(0.,-1.,0.));
#1624=DIRECTION('',(-1.,0.,0.));
#1625=DIRECTION('',(0.,0.,1.));
#1626=DIRECTION('',(0.,0.,1.));
#1627=DIRECTION('',(-1.,0.,0.));
#1628=DIRECTION('',(0.,0.,1.));
#1629=DIRECTION('',(1.,0.,0.));
#1630=DIRECTION('',(0.,0.,-1.));
#1631=DIRECTION('',(-1.,0.,0.));
#1632=DIRECTION('',(0.,0.,1.));
#1633=DIRECTION('',(1.,0.,0.));
#1634=DIRECTION('',(0.,0.,-1.));
#1635=DIRECTION('',(-0.95447997803504,0.298274993135913,0.));
#1636=DIRECTION('',(-0.1707967464213,-0.5465495885481,-0.8198243828222));
#1637=DIRECTION('',(0.,0.,-1.));
#1638=DIRECTION('',(-0.1707967464213,-0.5465495885481,0.8198243828222));
#1639=DIRECTION('',(0.,0.832050294337844,0.554700196225229));
#1640=DIRECTION('',(-1.,0.,0.));
#1641=DIRECTION('',(0.1707967464213,-0.5465495885481,0.8198243828222));
#1642=DIRECTION('',(0.95447997803504,0.298274993135913,0.));
#1643=DIRECTION('',(0.,0.,1.));
#1644=DIRECTION('',(0.1707967464213,-0.5465495885481,-0.8198243828222));
#1645=DIRECTION('',(0.,0.832050294337844,-0.554700196225229));
#1646=DIRECTION('',(1.,0.,0.));
#1647=DIRECTION('',(0.,-1.,0.));
#1648=DIRECTION('',(-0.95447997803504,0.298274993135913,0.));
#1649=DIRECTION('',(-0.1707967464213,-0.5465495885481,-0.8198243828222));
#1650=DIRECTION('',(0.,0.,-1.));
#1651=DIRECTION('',(-0.1707967464213,-0.5465495885481,0.8198243828222));
#1652=DIRECTION('',(0.,0.832050294337844,0.554700196225229));
#1653=DIRECTION('',(-1.,0.,0.));
#1654=DIRECTION('',(0.1707967464213,-0.5465495885481,0.8198243828222));
#1655=DIRECTION('',(0.95447997803504,0.298274993135913,0.));
#1656=DIRECTION('',(0.,0.,1.));
#1657=DIRECTION('',(0.1707967464213,-0.5465495885481,-0.8198243828222));
#1658=DIRECTION('',(0.,0.832050294337844,-0.554700196225229));
#1659=DIRECTION('',(1.,0.,0.));
#1660=DIRECTION('',(0.,-1.,0.));
#1661=DIRECTION('',(-1.,0.,0.));
#1662=DIRECTION('',(0.,0.,1.));
#1663=DIRECTION('',(0.,-1.,0.));
#1664=DIRECTION('',(-1.,0.,0.));
#1665=DIRECTION('',(0.,0.,-1.));
#1666=DIRECTION('',(-1.,0.,0.));
#1667=DIRECTION('',(0.,0.,-1.));
#1668=DIRECTION('',(-1.,0.,0.));
#1669=DIRECTION('',(0.,-1.,0.));
#1670=DIRECTION('',(0.,-1.,0.));
#1671=DIRECTION('',(0.,-1.,0.));
#1672=DIRECTION('',(0.,0.,1.));
#1673=DIRECTION('',(-1.,0.,0.));
#1674=DIRECTION('',(0.,1.,0.));
#1675=DIRECTION('',(-1.,0.,0.));
#1676=DIRECTION('',(0.,0.,0.3));
#1677=DIRECTION('',(0.,1.,0.));
#1678=DIRECTION('',(0.,0.219512195121989,0.975609756097552));
#1679=DIRECTION('',(0.,1.,0.));
#1680=DIRECTION('',(0.,0.,1.));
#1681=DIRECTION('',(-1.,0.,0.));
#1682=DIRECTION('',(0.,0.,1.));
#1683=DIRECTION('',(1.05,0.,0.));
#1684=DIRECTION('',(0.,0.,1.));
#1685=DIRECTION('',(-1.05,0.,0.));
#1686=DIRECTION('',(0.,0.,1.));
#1687=DIRECTION('',(1.05,0.,0.));
#1688=DIRECTION('',(0.,0.,1.));
#1689=DIRECTION('',(-1.05,0.,0.));
#1690=DIRECTION('',(0.,-0.975609756097552,0.219512195121989));
#1691=DIRECTION('',(-1.,0.,0.));
#1692=DIRECTION('',(0.,0.,1.));
#1693=DIRECTION('',(0.,0.,1.));
#1694=DIRECTION('',(-1.05,0.,0.));
#1695=DIRECTION('',(0.,0.,-1.));
#1696=DIRECTION('',(0.,0.,-1.));
#1697=DIRECTION('',(0.,0.,1.));
#1698=DIRECTION('',(-0.544333559796184,-0.897886950389421,0.));
#1699=DIRECTION('',(0.,0.,-1.));
#1700=DIRECTION('',(0.,0.,1.));
#1701=DIRECTION('',(-0.897886950389421,-0.544333559796184,0.));
#1702=DIRECTION('',(0.,0.,-1.));
#1703=DIRECTION('',(0.,0.,1.));
#1704=DIRECTION('',(-1.05,0.,0.));
#1705=DIRECTION('',(0.,0.,1.));
#1706=DIRECTION('',(0.,0.,1.));
#1707=DIRECTION('',(1.05,0.,0.));
#1708=DIRECTION('',(0.707106781186548,0.707106781186548,0.));
#1709=DIRECTION('',(0.,0.,1.));
#1710=DIRECTION('',(0.,0.,1.));
#1711=DIRECTION('',(0.544333559796184,0.897886950389421,0.));
#1712=DIRECTION('',(-0.707106781186548,-0.707106781186548,0.));
#1713=DIRECTION('',(0.707106781186548,-0.707106781186548,0.));
#1714=DIRECTION('',(0.,0.,-1.));
#1715=DIRECTION('',(0.707106781186548,0.707106781186548,0.));
#1716=DIRECTION('',(0.,0.,1.));
#1717=DIRECTION('',(0.,0.,1.));
#1718=DIRECTION('',(0.897886950389421,0.544333559796184,0.));
#1719=DIRECTION('',(-0.707106781186548,-0.707106781186548,0.));
#1720=DIRECTION('',(-0.707106781186548,0.707106781186548,0.));
#1721=DIRECTION('',(0.,0.,-1.));
#1722=DIRECTION('',(0.,0.,1.));
#1723=DIRECTION('',(-1.05,0.,0.));
#1724=DIRECTION('',(0.,0.,1.));
#1725=DIRECTION('',(-1.05,0.,0.));
#1726=DIRECTION('',(0.,0.,-1.));
#1727=DIRECTION('',(0.,0.,-1.));
#1728=DIRECTION('',(0.,0.,1.));
#1729=DIRECTION('',(-0.544333559796184,-0.897886950389421,0.));
#1730=DIRECTION('',(0.,0.,-1.));
#1731=DIRECTION('',(0.,0.,1.));
#1732=DIRECTION('',(-0.897886950389421,-0.544333559796184,0.));
#1733=DIRECTION('',(0.,0.,-1.));
#1734=DIRECTION('',(0.,0.,1.));
#1735=DIRECTION('',(-1.05,0.,0.));
#1736=DIRECTION('',(0.,0.,1.));
#1737=DIRECTION('',(0.,0.,1.));
#1738=DIRECTION('',(1.05,0.,0.));
#1739=DIRECTION('',(0.707106781186548,0.707106781186548,0.));
#1740=DIRECTION('',(0.,0.,1.));
#1741=DIRECTION('',(0.,0.,1.));
#1742=DIRECTION('',(0.544333559796184,0.897886950389421,0.));
#1743=DIRECTION('',(-0.707106781186548,-0.707106781186548,0.));
#1744=DIRECTION('',(0.707106781186548,-0.707106781186548,0.));
#1745=DIRECTION('',(0.,0.,-1.));
#1746=DIRECTION('',(0.707106781186548,0.707106781186548,0.));
#1747=DIRECTION('',(0.,0.,1.));
#1748=DIRECTION('',(0.,0.,1.));
#1749=DIRECTION('',(0.897886950389421,0.544333559796184,0.));
#1750=DIRECTION('',(-0.707106781186548,-0.707106781186548,0.));
#1751=DIRECTION('',(-0.707106781186548,0.707106781186548,0.));
#1752=DIRECTION('',(0.,0.,-1.));
#1753=DIRECTION('',(0.,0.,1.));
#1754=DIRECTION('',(-1.05,0.,0.));
#1755=DIRECTION('',(-1.,0.,0.));
#1756=DIRECTION('',(0.,-0.3,0.));
#1757=DIRECTION('',(-1.,0.,0.));
#1758=DIRECTION('',(-1.,0.,0.));
#1759=DIRECTION('',(0.,0.,0.3));
#1760=DIRECTION('',(-1.,0.,0.));
#1761=DIRECTION('',(0.,-0.3,0.));
#1762=DIRECTION('',(-1.,0.,0.));
#1763=DIRECTION('',(-1.,0.,0.));
#1764=DIRECTION('',(0.,3.99680288865E-015,0.3));
#1765=DIRECTION('',(-1.,0.,0.));
#1766=DIRECTION('',(0.,-0.3,0.));
#1767=DIRECTION('',(-1.,0.,0.));
#1768=DIRECTION('',(0.,3.99680288865E-015,0.3));
#1769=DIRECTION('',(-1.,0.,0.));
#1770=DIRECTION('',(-1.,0.,0.));
#1771=DIRECTION('',(0.,1.,0.));
#1772=DIRECTION('',(0.,0.,1.));
#1773=DIRECTION('',(0.,-1.,0.));
#1774=DIRECTION('',(0.,0.257662650560314,-0.966234939601251));
#1775=DIRECTION('',(0.,1.,0.));
#1776=DIRECTION('',(0.,0.,-1.));
#1777=DIRECTION('',(0.,1.,0.));
#1778=DIRECTION('',(0.,0.,-1.));
#1779=DIRECTION('',(1.,0.,0.));
#1780=DIRECTION('',(0.,1.,0.));
#1781=DIRECTION('',(1.,0.,0.));
#1782=DIRECTION('',(0.,0.,-1.));
#1783=DIRECTION('',(0.,1.,0.));
#1784=DIRECTION('',(0.,0.,-1.));
#1785=DIRECTION('',(0.,1.,0.));
#1786=DIRECTION('',(0.,0.257662650560314,-0.966234939601251));
#1787=DIRECTION('',(0.,-1.,0.));
#1788=DIRECTION('',(0.,0.,-1.));
#1789=DIRECTION('',(-1.,0.,0.));
#1790=DIRECTION('',(-1.,0.,0.));
#1791=DIRECTION('',(0.,-0.966234939601251,-0.257662650560314));
#1792=DIRECTION('',(1.,0.,0.));
#1793=DIRECTION('',(0.,0.,-1.));
#1794=DIRECTION('',(1.,0.,0.));
#1795=DIRECTION('',(0.,-1.,0.));
#1796=DIRECTION('',(0.,1.,0.));
#1797=DIRECTION('',(0.,0.,1.));
#1798=DIRECTION('',(0.,0.,1.));
#1799=DIRECTION('',(0.,1.,0.));
#1800=DIRECTION('',(0.,0.,1.));
#1801=DIRECTION('',(1.,0.,0.));
#1802=DIRECTION('',(0.,1.,0.));
#1803=DIRECTION('',(0.,0.,-1.));
#1804=DIRECTION('',(0.,1.,0.));
#1805=DIRECTION('',(0.,0.257662650560314,-0.966234939601251));
#1806=DIRECTION('',(0.,-1.,0.));
#1807=DIRECTION('',(0.,0.,-1.));
#1808=DIRECTION('',(-1.,0.,0.));
#1809=DIRECTION('',(0.,-0.966234939601251,-0.257662650560314));
#1810=DIRECTION('',(1.,0.,0.));
#1811=DIRECTION('',(0.,0.,-1.));
#1812=DIRECTION('',(1.,0.,0.));
#1813=DIRECTION('',(0.,-1.,0.));
#1814=DIRECTION('',(1.,0.,0.));
#1815=DIRECTION('',(0.,0.,-1.));
#1816=DIRECTION('',(-1.,0.,0.));
#1817=DIRECTION('',(0.,0.,-1.));
#1818=DIRECTION('',(0.,1.,0.));
#1819=DIRECTION('',(0.,0.,-1.));
#1820=DIRECTION('',(0.,-1.,0.));
#1821=DIRECTION('',(-1.,0.,0.));
#1822=DIRECTION('',(0.,0.,-1.));
#1823=DIRECTION('',(1.,0.,0.));
#1824=DIRECTION('',(0.,-1.,0.));
#1825=DIRECTION('',(0.,0.,-1.));
#1826=DIRECTION('',(0.,1.,0.));
#1827=DIRECTION('',(1.,0.,0.));
#1828=DIRECTION('',(0.,0.,-1.));
#1829=DIRECTION('',(-1.,0.,0.));
#1830=DIRECTION('',(0.,0.,-1.));
#1831=DIRECTION('',(0.,1.,0.));
#1832=DIRECTION('',(0.,0.,-1.));
#1833=DIRECTION('',(0.,-1.,0.));
#1834=DIRECTION('',(-1.,0.,0.));
#1835=DIRECTION('',(0.,0.,-1.));
#1836=DIRECTION('',(1.,0.,0.));
#1837=DIRECTION('',(0.,-1.,0.));
#1838=DIRECTION('',(0.,0.,-1.));
#1839=DIRECTION('',(0.,1.,0.));
#1840=DIRECTION('',(1.,0.,0.));
#1841=DIRECTION('',(0.,0.,-1.));
#1842=DIRECTION('DIRECTION2',(0.,0.,1.));
#1843=DIRECTION('DIRECTION3',(1.,0.,0.));
#1844=DIRECTION('DIRECTION6',(0.,0.,1.));
#1845=DIRECTION('DIRECTION7',(1.,0.,0.));
#1846=CARTESIAN_POINT('',(2.77,0.,0.));
#1847=CARTESIAN_POINT('',(2.77,-1.85,0.));
#1848=CARTESIAN_POINT('',(2.77,-1.85,0.));
#1849=CARTESIAN_POINT('',(2.77,1.15,0.));
#1850=CARTESIAN_POINT('',(2.77,-2.75,-4.));
#1851=CARTESIAN_POINT('',(2.77,-2.75,-4.));
#1852=CARTESIAN_POINT('',(2.77,-3.25,-4.));
#1853=CARTESIAN_POINT('',(2.77,-3.25,-4.));
#1854=CARTESIAN_POINT('',(2.77,-3.25,-10.));
#1855=CARTESIAN_POINT('',(2.77,-3.25,-10.));
#1856=CARTESIAN_POINT('',(2.77,-2.35,-10.));
#1857=CARTESIAN_POINT('',(2.77,-2.35,-10.));
#1858=CARTESIAN_POINT('',(2.77,-2.35,-9.5));
#1859=CARTESIAN_POINT('',(2.77,-2.35,-9.5));
#1860=CARTESIAN_POINT('',(2.77,2.35,-9.5));
#1861=CARTESIAN_POINT('',(2.77,2.35,-9.5));
#1862=CARTESIAN_POINT('',(2.77,2.35,-10.));
#1863=CARTESIAN_POINT('',(2.77,2.35,-10.));
#1864=CARTESIAN_POINT('',(2.77,3.25,-10.));
#1865=CARTESIAN_POINT('',(2.77,3.25,-10.));
#1866=CARTESIAN_POINT('',(2.77,3.25,-3.95));
#1867=CARTESIAN_POINT('',(2.77,3.25,-3.95));
#1868=CARTESIAN_POINT('',(2.77,2.95,-3.95));
#1869=CARTESIAN_POINT('',(2.77,2.95,-3.65));
#1870=CARTESIAN_POINT('',(2.77,2.15,-3.65));
#1871=CARTESIAN_POINT('',(2.77,2.15,-3.65));
#1872=CARTESIAN_POINT('',(2.77,1.15,0.));
#1873=CARTESIAN_POINT('',(2.77,1.15,0.));
#1874=CARTESIAN_POINT('',(0.57,2.15,-3.65));
#1875=CARTESIAN_POINT('',(0.57,2.15,-3.65));
#1876=CARTESIAN_POINT('',(-0.57,2.15,-3.65));
#1877=CARTESIAN_POINT('',(-0.57,2.15,-3.65));
#1878=CARTESIAN_POINT('',(-1.97,2.15,-3.65));
#1879=CARTESIAN_POINT('',(-1.97,2.15,-3.65));
#1880=CARTESIAN_POINT('',(-2.77,2.15,-3.65));
#1881=CARTESIAN_POINT('',(-2.77,1.15,0.));
#1882=CARTESIAN_POINT('',(-2.77,1.15,0.));
#1883=CARTESIAN_POINT('',(2.77,1.15,0.));
#1884=CARTESIAN_POINT('',(2.77,2.15,-3.65));
#1885=CARTESIAN_POINT('',(1.97,2.15,-3.65));
#1886=CARTESIAN_POINT('',(1.97,2.15,-3.65));
#1887=CARTESIAN_POINT('',(5.31,2.15,0.));
#1888=CARTESIAN_POINT('',(1.97,2.15,-3.65));
#1889=CARTESIAN_POINT('',(1.97,2.15,-7.95));
#1890=CARTESIAN_POINT('',(1.97,2.15,-7.95));
#1891=CARTESIAN_POINT('',(0.57,2.15,-7.95));
#1892=CARTESIAN_POINT('',(0.57,2.15,-7.95));
#1893=CARTESIAN_POINT('',(0.57,3.25,-7.95));
#1894=CARTESIAN_POINT('',(0.57,2.95,-3.95));
#1895=CARTESIAN_POINT('',(0.57,2.95,-3.65));
#1896=CARTESIAN_POINT('',(0.57,3.25,-3.95));
#1897=CARTESIAN_POINT('',(0.57,2.15,-3.65));
#1898=CARTESIAN_POINT('',(0.57,2.85,-7.95));
#1899=CARTESIAN_POINT('',(0.57,2.85,-7.95));
#1900=CARTESIAN_POINT('',(0.57,2.85,-7.95));
#1901=CARTESIAN_POINT('',(0.57,3.05,-8.7));
#1902=CARTESIAN_POINT('',(0.57,3.05,-8.7));
#1903=CARTESIAN_POINT('',(0.57,3.15,-8.7));
#1904=CARTESIAN_POINT('',(0.57,3.15,-8.7));
#1905=CARTESIAN_POINT('',(0.57,3.15,-9.25));
#1906=CARTESIAN_POINT('',(0.57,3.15,-9.25));
#1907=CARTESIAN_POINT('',(0.57,3.25,-9.25));
#1908=CARTESIAN_POINT('',(0.57,3.25,-3.95));
#1909=CARTESIAN_POINT('',(2.77,3.25,-3.95));
#1910=CARTESIAN_POINT('',(-1.97,3.25,-9.5));
#1911=CARTESIAN_POINT('',(-1.97,3.25,-9.5));
#1912=CARTESIAN_POINT('',(1.97,3.25,-9.5));
#1913=CARTESIAN_POINT('',(-1.97,3.25,-10.));
#1914=CARTESIAN_POINT('',(-1.97,3.25,-10.));
#1915=CARTESIAN_POINT('',(-1.97,3.25,-10.));
#1916=CARTESIAN_POINT('',(-2.77,3.25,-10.));
#1917=CARTESIAN_POINT('',(-2.77,3.25,-3.95));
#1918=CARTESIAN_POINT('',(-2.77,3.25,-3.95));
#1919=CARTESIAN_POINT('',(-1.97,3.25,-3.95));
#1920=CARTESIAN_POINT('',(-1.97,3.25,-3.95));
#1921=CARTESIAN_POINT('',(-1.97,3.25,-3.95));
#1922=CARTESIAN_POINT('',(-1.97,3.25,-9.25));
#1923=CARTESIAN_POINT('',(-1.97,3.25,-9.25));
#1924=CARTESIAN_POINT('',(-0.57,3.25,-9.25));
#1925=CARTESIAN_POINT('',(-0.57,3.25,-9.25));
#1926=CARTESIAN_POINT('',(-0.57,3.25,-3.95));
#1927=CARTESIAN_POINT('',(0.57,3.25,-3.95));
#1928=CARTESIAN_POINT('',(0.57,3.25,-9.25));
#1929=CARTESIAN_POINT('',(1.97,3.25,-9.25));
#1930=CARTESIAN_POINT('',(1.97,3.25,-9.25));
#1931=CARTESIAN_POINT('',(1.97,3.25,-3.95));
#1932=CARTESIAN_POINT('',(2.77,3.25,-3.95));
#1933=CARTESIAN_POINT('',(2.77,3.25,-10.));
#1934=CARTESIAN_POINT('',(1.97,3.25,-10.));
#1935=CARTESIAN_POINT('',(1.97,3.25,-10.));
#1936=CARTESIAN_POINT('',(1.97,3.25,-9.5));
#1937=CARTESIAN_POINT('',(1.97,3.25,-10.));
#1938=CARTESIAN_POINT('',(1.97,2.35,-10.));
#1939=CARTESIAN_POINT('',(1.97,2.35,-10.));
#1940=CARTESIAN_POINT('',(1.97,2.35,-9.5));
#1941=CARTESIAN_POINT('',(1.97,3.25,-9.5));
#1942=CARTESIAN_POINT('',(1.97,3.25,-9.5));
#1943=CARTESIAN_POINT('',(1.97,-2.35,-10.));
#1944=CARTESIAN_POINT('',(1.97,-2.35,-10.));
#1945=CARTESIAN_POINT('',(1.97,-3.25,-10.));
#1946=CARTESIAN_POINT('',(1.97,-3.25,-10.));
#1947=CARTESIAN_POINT('',(1.97,-3.25,-9.5));
#1948=CARTESIAN_POINT('',(1.97,-2.35,-9.5));
#1949=CARTESIAN_POINT('',(1.97,-2.35,-9.5));
#1950=CARTESIAN_POINT('',(1.97,-2.35,-9.5));
#1951=CARTESIAN_POINT('',(2.77,2.35,-9.5));
#1952=CARTESIAN_POINT('',(-2.77,2.35,-9.5));
#1953=CARTESIAN_POINT('',(-2.77,2.35,-9.5));
#1954=CARTESIAN_POINT('',(-2.77,-2.35,-9.5));
#1955=CARTESIAN_POINT('',(-1.97,2.35,-9.5));
#1956=CARTESIAN_POINT('',(-1.97,2.35,-9.5));
#1957=CARTESIAN_POINT('',(-1.97,3.25,-9.5));
#1958=CARTESIAN_POINT('',(2.77,2.35,-9.5));
#1959=CARTESIAN_POINT('',(2.77,-2.35,-9.5));
#1960=CARTESIAN_POINT('',(-1.97,-3.25,-9.5));
#1961=CARTESIAN_POINT('',(-1.97,-3.25,-9.5));
#1962=CARTESIAN_POINT('',(-1.97,-2.35,-9.5));
#1963=CARTESIAN_POINT('',(-1.97,-2.35,-9.5));
#1964=CARTESIAN_POINT('',(-1.97,-2.35,-9.5));
#1965=CARTESIAN_POINT('',(-0.87,-0.2,-9.5));
#1966=CARTESIAN_POINT('',(-0.87,-0.2,-9.5));
#1967=CARTESIAN_POINT('',(-1.67,-0.2,-9.5));
#1968=CARTESIAN_POINT('',(-0.87,0.2,-9.5));
#1969=CARTESIAN_POINT('',(-0.87,0.2,-9.5));
#1970=CARTESIAN_POINT('',(-1.67,0.2,-9.5));
#1971=CARTESIAN_POINT('',(-1.67,0.2,-9.5));
#1972=CARTESIAN_POINT('',(-1.67,-0.2,-9.5));
#1973=CARTESIAN_POINT('',(1.67,-0.2,-9.5));
#1974=CARTESIAN_POINT('',(1.67,-0.2,-9.5));
#1975=CARTESIAN_POINT('',(0.87,-0.2,-9.5));
#1976=CARTESIAN_POINT('',(1.67,0.2,-9.5));
#1977=CARTESIAN_POINT('',(1.67,0.2,-9.5));
#1978=CARTESIAN_POINT('',(0.87,0.2,-9.5));
#1979=CARTESIAN_POINT('',(0.87,0.2,-9.5));
#1980=CARTESIAN_POINT('',(0.87,-0.2,-9.5));
#1981=CARTESIAN_POINT('',(2.77,-2.35,-9.5));
#1982=CARTESIAN_POINT('',(2.77,-2.35,-10.));
#1983=CARTESIAN_POINT('',(2.77,-2.35,-9.5));
#1984=CARTESIAN_POINT('',(-1.97,-2.35,-10.));
#1985=CARTESIAN_POINT('',(-1.97,-2.35,-10.));
#1986=CARTESIAN_POINT('',(-2.77,-2.35,-10.));
#1987=CARTESIAN_POINT('',(-2.77,-2.35,-9.5));
#1988=CARTESIAN_POINT('',(-1.97,-2.35,-9.5));
#1989=CARTESIAN_POINT('',(2.77,-2.35,-10.));
#1990=CARTESIAN_POINT('',(2.77,-3.25,-10.));
#1991=CARTESIAN_POINT('',(2.77,-2.35,-10.));
#1992=CARTESIAN_POINT('',(-1.97,-3.25,-10.));
#1993=CARTESIAN_POINT('',(-1.97,-3.25,-10.));
#1994=CARTESIAN_POINT('',(-2.77,-3.25,-10.));
#1995=CARTESIAN_POINT('',(-2.77,-2.35,-10.));
#1996=CARTESIAN_POINT('',(-1.97,-2.35,-10.));
#1997=CARTESIAN_POINT('',(2.77,-3.25,-10.));
#1998=CARTESIAN_POINT('',(2.77,-3.25,-4.));
#1999=CARTESIAN_POINT('',(-2.77,-3.25,-4.));
#2000=CARTESIAN_POINT('',(-2.77,-3.25,-10.));
#2001=CARTESIAN_POINT('',(-1.97,-3.25,-10.));
#2002=CARTESIAN_POINT('',(-0.27,-3.25,-4.35));
#2003=CARTESIAN_POINT('',(-0.27,-3.25,-4.35));
#2004=CARTESIAN_POINT('',(-2.27,-3.25,-4.35));
#2005=CARTESIAN_POINT('',(-0.27,-3.25,-8.85));
#2006=CARTESIAN_POINT('',(-0.27,-3.25,-8.85));
#2007=CARTESIAN_POINT('',(-2.27,-3.25,-8.85));
#2008=CARTESIAN_POINT('',(-2.27,-3.25,-8.85));
#2009=CARTESIAN_POINT('',(-2.27,-3.25,-4.35));
#2010=CARTESIAN_POINT('',(2.27,-3.25,-4.35));
#2011=CARTESIAN_POINT('',(2.27,-3.25,-4.35));
#2012=CARTESIAN_POINT('',(0.27,-3.25,-4.35));
#2013=CARTESIAN_POINT('',(2.27,-3.25,-8.85));
#2014=CARTESIAN_POINT('',(2.27,-3.25,-8.85));
#2015=CARTESIAN_POINT('',(0.27,-3.25,-8.85));
#2016=CARTESIAN_POINT('',(0.27,-3.25,-8.85));
#2017=CARTESIAN_POINT('',(0.27,-3.25,-4.35));
#2018=CARTESIAN_POINT('',(-2.145,-2.85,-6.6));
#2019=CARTESIAN_POINT('',(-2.02,-2.45,-7.65));
#2020=CARTESIAN_POINT('',(-2.02,-2.45,-7.65));
#2021=CARTESIAN_POINT('',(-2.02,-2.45,-5.55));
#2022=CARTESIAN_POINT('',(-2.02,-2.45,-5.55));
#2023=CARTESIAN_POINT('',(-2.02,-2.45,-5.55));
#2024=CARTESIAN_POINT('',(-1.27,-2.85,-4.95));
#2025=CARTESIAN_POINT('',(-0.52,-2.45,-5.55));
#2026=CARTESIAN_POINT('',(-0.52,-2.45,-5.55));
#2027=CARTESIAN_POINT('',(-0.52,-2.45,-5.55));
#2028=CARTESIAN_POINT('',(-0.395,-2.85,-6.6));
#2029=CARTESIAN_POINT('',(-0.52,-2.45,-7.65));
#2030=CARTESIAN_POINT('',(-0.52,-2.45,-7.65));
#2031=CARTESIAN_POINT('',(-0.52,-2.45,-7.65));
#2032=CARTESIAN_POINT('',(-1.27,-2.85,-8.25));
#2033=CARTESIAN_POINT('',(-2.02,-2.45,-7.65));
#2034=CARTESIAN_POINT('',(2.77,-2.45,0.));
#2035=CARTESIAN_POINT('',(0.395,-2.85,-6.6));
#2036=CARTESIAN_POINT('',(0.52,-2.45,-7.65));
#2037=CARTESIAN_POINT('',(0.52,-2.45,-7.65));
#2038=CARTESIAN_POINT('',(0.52,-2.45,-5.55));
#2039=CARTESIAN_POINT('',(0.52,-2.45,-5.55));
#2040=CARTESIAN_POINT('',(0.52,-2.45,-5.55));
#2041=CARTESIAN_POINT('',(1.27,-2.85,-4.95));
#2042=CARTESIAN_POINT('',(2.02,-2.45,-5.55));
#2043=CARTESIAN_POINT('',(2.02,-2.45,-5.55));
#2044=CARTESIAN_POINT('',(2.02,-2.45,-5.55));
#2045=CARTESIAN_POINT('',(2.145,-2.85,-6.6));
#2046=CARTESIAN_POINT('',(2.02,-2.45,-7.65));
#2047=CARTESIAN_POINT('',(2.02,-2.45,-7.65));
#2048=CARTESIAN_POINT('',(2.02,-2.45,-7.65));
#2049=CARTESIAN_POINT('',(1.27,-2.85,-8.25));
#2050=CARTESIAN_POINT('',(0.52,-2.45,-7.65));
#2051=CARTESIAN_POINT('',(2.77,-2.45,0.));
#2052=CARTESIAN_POINT('',(-1.97,3.25,-10.));
#2053=CARTESIAN_POINT('',(-1.97,2.35,-10.));
#2054=CARTESIAN_POINT('',(-1.97,2.35,-10.));
#2055=CARTESIAN_POINT('',(-1.97,3.25,-10.));
#2056=CARTESIAN_POINT('',(-1.97,3.25,-10.));
#2057=CARTESIAN_POINT('',(2.77,3.25,-10.));
#2058=CARTESIAN_POINT('',(2.77,2.35,-10.));
#2059=CARTESIAN_POINT('',(2.77,3.25,-10.));
#2060=CARTESIAN_POINT('',(-1.97,2.35,-10.));
#2061=CARTESIAN_POINT('',(-2.77,2.35,-10.));
#2062=CARTESIAN_POINT('',(-2.77,3.25,-10.));
#2063=CARTESIAN_POINT('',(2.77,2.35,-10.));
#2064=CARTESIAN_POINT('',(2.77,2.35,-10.));
#2065=CARTESIAN_POINT('',(-2.77,2.35,-10.));
#2066=CARTESIAN_POINT('',(-2.77,0.,0.));
#2067=CARTESIAN_POINT('',(-2.77,2.15,-3.65));
#2068=CARTESIAN_POINT('',(-2.77,2.95,-3.65));
#2069=CARTESIAN_POINT('',(-2.77,2.95,-3.95));
#2070=CARTESIAN_POINT('',(-2.77,-3.25,-4.));
#2071=CARTESIAN_POINT('',(-2.77,-2.75,-4.));
#2072=CARTESIAN_POINT('',(-2.77,-2.75,-4.));
#2073=CARTESIAN_POINT('',(-2.77,-1.85,0.));
#2074=CARTESIAN_POINT('',(-2.77,-1.85,0.));
#2075=CARTESIAN_POINT('',(2.77,-1.85,0.));
#2076=CARTESIAN_POINT('',(2.77,-1.85,0.));
#2077=CARTESIAN_POINT('',(-1.27,-0.35,0.));
#2078=CARTESIAN_POINT('',(-0.22,-0.35,0.));
#2079=CARTESIAN_POINT('',(-2.32,-0.35,0.));
#2080=CARTESIAN_POINT('',(-1.27,-0.35,0.));
#2081=CARTESIAN_POINT('',(1.27,-0.35,0.));
#2082=CARTESIAN_POINT('',(2.32,-0.35,0.));
#2083=CARTESIAN_POINT('',(0.22,-0.35,0.));
#2084=CARTESIAN_POINT('',(1.27,-0.35,0.));
#2085=CARTESIAN_POINT('',(2.77,-2.75,-4.));
#2086=CARTESIAN_POINT('',(2.77,-2.75,-4.));
#2087=CARTESIAN_POINT('',(2.77,-3.25,-4.));
#2088=CARTESIAN_POINT('',(-1.27,-0.35,0.));
#2089=CARTESIAN_POINT('',(-2.32,-0.35,0.));
#2090=CARTESIAN_POINT('',(-2.32,-0.35,-0.8));
#2091=CARTESIAN_POINT('',(-0.22,-0.35,0.));
#2092=CARTESIAN_POINT('',(-0.22,-0.35,-0.8));
#2093=CARTESIAN_POINT('',(-1.27,-0.35,-0.8));
#2094=CARTESIAN_POINT('',(-1.814333559796,-1.247886950389,-0.8));
#2095=CARTESIAN_POINT('',(-1.814333559796,-1.247886950389,-0.8));
#2096=CARTESIAN_POINT('',(-1.814333559796,-1.247886950389,-1.3));
#2097=CARTESIAN_POINT('',(-1.27,-0.35,-1.3));
#2098=CARTESIAN_POINT('',(-2.167886950389,-0.8943335597962,-1.3));
#2099=CARTESIAN_POINT('',(-2.167886950389,-0.8943335597962,-0.8));
#2100=CARTESIAN_POINT('',(-2.167886950389,-0.8943335597962,-0.8));
#2101=CARTESIAN_POINT('',(-1.27,-0.35,-0.8));
#2102=CARTESIAN_POINT('',(2.77,0.,-0.8));
#2103=CARTESIAN_POINT('',(-1.27,-0.35,-0.8));
#2104=CARTESIAN_POINT('',(-0.3721130496106,0.1943335597962,-0.8));
#2105=CARTESIAN_POINT('',(-1.814333559796,-1.247886950389,-0.8));
#2106=CARTESIAN_POINT('',(2.77,0.,-0.8));
#2107=CARTESIAN_POINT('',(-1.27,-0.35,-0.8));
#2108=CARTESIAN_POINT('',(-0.7256664402038,0.5478869503894,-0.8));
#2109=CARTESIAN_POINT('',(-0.7256664402038,0.5478869503894,-0.8));
#2110=CARTESIAN_POINT('',(-1.814333559796,-1.247886950389,-0.8));
#2111=CARTESIAN_POINT('',(-0.3721130496106,0.1943335597962,-0.8));
#2112=CARTESIAN_POINT('',(-0.3721130496106,0.1943335597962,-1.3));
#2113=CARTESIAN_POINT('',(-1.814333559796,-1.247886950389,-1.3));
#2114=CARTESIAN_POINT('',(2.77,0.,-1.3));
#2115=CARTESIAN_POINT('',(-1.27,-0.35,-1.3));
#2116=CARTESIAN_POINT('',(-0.7256664402038,0.5478869503894,-1.3));
#2117=CARTESIAN_POINT('',(-0.7256664402038,0.5478869503894,-1.3));
#2118=CARTESIAN_POINT('',(-0.7256664402038,0.5478869503894,-0.8));
#2119=CARTESIAN_POINT('',(-0.7256664402038,0.5478869503894,-0.8));
#2120=CARTESIAN_POINT('',(-1.27,-0.35,0.));
#2121=CARTESIAN_POINT('',(1.27,-0.35,0.));
#2122=CARTESIAN_POINT('',(0.22,-0.35,0.));
#2123=CARTESIAN_POINT('',(0.22,-0.35,-0.8));
#2124=CARTESIAN_POINT('',(2.32,-0.35,0.));
#2125=CARTESIAN_POINT('',(2.32,-0.35,-0.8));
#2126=CARTESIAN_POINT('',(1.27,-0.35,-0.8));
#2127=CARTESIAN_POINT('',(0.7256664402038,-1.247886950389,-0.8));
#2128=CARTESIAN_POINT('',(0.7256664402038,-1.247886950389,-0.8));
#2129=CARTESIAN_POINT('',(0.7256664402038,-1.247886950389,-1.3));
#2130=CARTESIAN_POINT('',(1.27,-0.35,-1.3));
#2131=CARTESIAN_POINT('',(0.3721130496106,-0.8943335597962,-1.3));
#2132=CARTESIAN_POINT('',(0.3721130496106,-0.8943335597962,-0.8));
#2133=CARTESIAN_POINT('',(0.3721130496106,-0.8943335597962,-0.8));
#2134=CARTESIAN_POINT('',(1.27,-0.35,-0.8));
#2135=CARTESIAN_POINT('',(2.77,0.,-0.8));
#2136=CARTESIAN_POINT('',(1.27,-0.35,-0.8));
#2137=CARTESIAN_POINT('',(2.167886950389,0.1943335597962,-0.8));
#2138=CARTESIAN_POINT('',(0.7256664402038,-1.247886950389,-0.8));
#2139=CARTESIAN_POINT('',(2.77,0.,-0.8));
#2140=CARTESIAN_POINT('',(1.27,-0.35,-0.8));
#2141=CARTESIAN_POINT('',(1.814333559796,0.5478869503894,-0.8));
#2142=CARTESIAN_POINT('',(1.814333559796,0.5478869503894,-0.8));
#2143=CARTESIAN_POINT('',(0.7256664402038,-1.247886950389,-0.8));
#2144=CARTESIAN_POINT('',(2.167886950389,0.1943335597962,-0.8));
#2145=CARTESIAN_POINT('',(2.167886950389,0.1943335597962,-1.3));
#2146=CARTESIAN_POINT('',(0.7256664402038,-1.247886950389,-1.3));
#2147=CARTESIAN_POINT('',(2.77,0.,-1.3));
#2148=CARTESIAN_POINT('',(1.27,-0.35,-1.3));
#2149=CARTESIAN_POINT('',(1.814333559796,0.5478869503894,-1.3));
#2150=CARTESIAN_POINT('',(1.814333559796,0.5478869503894,-1.3));
#2151=CARTESIAN_POINT('',(1.814333559796,0.5478869503894,-0.8));
#2152=CARTESIAN_POINT('',(1.814333559796,0.5478869503894,-0.8));
#2153=CARTESIAN_POINT('',(1.27,-0.35,0.));
#2154=CARTESIAN_POINT('',(2.77,2.95,-3.95));
#2155=CARTESIAN_POINT('',(-1.97,2.95,-3.65));
#2156=CARTESIAN_POINT('',(-1.97,2.95,-3.65));
#2157=CARTESIAN_POINT('',(-1.97,2.95,-3.95));
#2158=CARTESIAN_POINT('',(2.77,2.95,-3.95));
#2159=CARTESIAN_POINT('',(2.77,2.95,-3.65));
#2160=CARTESIAN_POINT('',(1.97,2.95,-3.65));
#2161=CARTESIAN_POINT('',(1.97,2.95,-3.95));
#2162=CARTESIAN_POINT('',(2.77,2.95,-3.95));
#2163=CARTESIAN_POINT('',(-0.57,2.95,-3.95));
#2164=CARTESIAN_POINT('',(-0.57,2.95,-3.65));
#2165=CARTESIAN_POINT('',(0.57,2.95,-3.65));
#2166=CARTESIAN_POINT('',(-1.97,3.25,-7.95));
#2167=CARTESIAN_POINT('',(-1.97,2.15,-3.65));
#2168=CARTESIAN_POINT('',(-1.97,2.15,-7.95));
#2169=CARTESIAN_POINT('',(-1.97,2.15,-7.95));
#2170=CARTESIAN_POINT('',(-1.97,2.85,-7.95));
#2171=CARTESIAN_POINT('',(-1.97,2.85,-7.95));
#2172=CARTESIAN_POINT('',(-1.97,2.85,-7.95));
#2173=CARTESIAN_POINT('',(-1.97,3.05,-8.7));
#2174=CARTESIAN_POINT('',(-1.97,3.05,-8.7));
#2175=CARTESIAN_POINT('',(-1.97,3.15,-8.7));
#2176=CARTESIAN_POINT('',(-1.97,3.15,-8.7));
#2177=CARTESIAN_POINT('',(-1.97,3.15,-9.25));
#2178=CARTESIAN_POINT('',(-1.97,3.15,-9.25));
#2179=CARTESIAN_POINT('',(-1.97,3.15,-9.25));
#2180=CARTESIAN_POINT('',(-1.97,3.15,-9.25));
#2181=CARTESIAN_POINT('',(-0.57,3.15,-9.25));
#2182=CARTESIAN_POINT('',(-0.57,3.15,-9.25));
#2183=CARTESIAN_POINT('',(-0.57,3.25,-3.65));
#2184=CARTESIAN_POINT('',(-0.57,2.15,-3.65));
#2185=CARTESIAN_POINT('',(-0.57,2.15,-7.95));
#2186=CARTESIAN_POINT('',(-0.57,2.15,-3.65));
#2187=CARTESIAN_POINT('',(-0.57,3.15,-8.7));
#2188=CARTESIAN_POINT('',(-0.57,3.15,-8.7));
#2189=CARTESIAN_POINT('',(-0.57,3.05,-8.7));
#2190=CARTESIAN_POINT('',(-0.57,3.05,-8.7));
#2191=CARTESIAN_POINT('',(-0.57,2.85,-7.95));
#2192=CARTESIAN_POINT('',(-0.57,2.85,-7.95));
#2193=CARTESIAN_POINT('',(-0.57,2.85,-7.95));
#2194=CARTESIAN_POINT('',(-0.57,3.25,-7.95));
#2195=CARTESIAN_POINT('',(-0.57,2.15,-7.95));
#2196=CARTESIAN_POINT('',(-0.57,2.85,-7.95));
#2197=CARTESIAN_POINT('',(-1.97,2.85,-7.95));
#2198=CARTESIAN_POINT('',(-1.97,3.05,-8.7));
#2199=CARTESIAN_POINT('',(-1.97,3.05,-8.7));
#2200=CARTESIAN_POINT('',(-1.97,3.15,-8.7));
#2201=CARTESIAN_POINT('',(-1.97,3.15,-8.7));
#2202=CARTESIAN_POINT('',(2.77,2.15,0.));
#2203=CARTESIAN_POINT('',(2.77,2.15,-3.65));
#2204=CARTESIAN_POINT('',(2.77,2.15,-3.65));
#2205=CARTESIAN_POINT('',(1.97,2.15,-3.65));
#2206=CARTESIAN_POINT('',(2.77,2.15,-3.65));
#2207=CARTESIAN_POINT('',(1.97,3.25,-3.65));
#2208=CARTESIAN_POINT('',(1.97,3.15,-9.25));
#2209=CARTESIAN_POINT('',(1.97,3.15,-9.25));
#2210=CARTESIAN_POINT('',(1.97,3.15,-8.7));
#2211=CARTESIAN_POINT('',(1.97,3.15,-8.7));
#2212=CARTESIAN_POINT('',(1.97,3.05,-8.7));
#2213=CARTESIAN_POINT('',(1.97,3.05,-8.7));
#2214=CARTESIAN_POINT('',(1.97,2.85,-7.95));
#2215=CARTESIAN_POINT('',(1.97,2.85,-7.95));
#2216=CARTESIAN_POINT('',(1.97,2.85,-7.95));
#2217=CARTESIAN_POINT('',(1.97,3.25,-7.95));
#2218=CARTESIAN_POINT('',(1.97,2.85,-7.95));
#2219=CARTESIAN_POINT('',(0.57,2.85,-7.95));
#2220=CARTESIAN_POINT('',(0.57,3.05,-8.7));
#2221=CARTESIAN_POINT('',(0.57,3.05,-8.7));
#2222=CARTESIAN_POINT('',(0.57,3.15,-8.7));
#2223=CARTESIAN_POINT('',(0.57,3.15,-8.7));
#2224=CARTESIAN_POINT('',(0.57,3.15,-9.25));
#2225=CARTESIAN_POINT('',(0.57,3.15,-9.25));
#2226=CARTESIAN_POINT('',(-1.67,-0.2,-9.5));
#2227=CARTESIAN_POINT('',(-1.67,0.2,-9.5));
#2228=CARTESIAN_POINT('',(-1.67,0.2,-13.4));
#2229=CARTESIAN_POINT('',(-1.67,-0.2,-13.4));
#2230=CARTESIAN_POINT('',(-1.67,-0.2,-13.4));
#2231=CARTESIAN_POINT('',(-1.67,-0.2,-9.5));
#2232=CARTESIAN_POINT('',(-0.87,-0.2,-9.5));
#2233=CARTESIAN_POINT('',(-0.87,-0.2,-13.4));
#2234=CARTESIAN_POINT('',(-0.87,-0.2,-13.4));
#2235=CARTESIAN_POINT('',(-0.87,-0.2,-9.5));
#2236=CARTESIAN_POINT('',(-0.87,0.2,-9.5));
#2237=CARTESIAN_POINT('',(-0.87,0.2,-13.4));
#2238=CARTESIAN_POINT('',(-0.87,0.2,-13.4));
#2239=CARTESIAN_POINT('',(-0.87,0.2,-9.5));
#2240=CARTESIAN_POINT('',(-1.67,0.2,-9.5));
#2241=CARTESIAN_POINT('',(-1.67,0.2,-13.4));
#2242=CARTESIAN_POINT('',(2.77,0.,-13.4));
#2243=CARTESIAN_POINT('',(0.87,-0.2,-9.5));
#2244=CARTESIAN_POINT('',(0.87,0.2,-9.5));
#2245=CARTESIAN_POINT('',(0.87,0.2,-13.4));
#2246=CARTESIAN_POINT('',(0.87,-0.2,-13.4));
#2247=CARTESIAN_POINT('',(0.87,-0.2,-13.4));
#2248=CARTESIAN_POINT('',(0.87,-0.2,-9.5));
#2249=CARTESIAN_POINT('',(1.67,-0.2,-9.5));
#2250=CARTESIAN_POINT('',(1.67,-0.2,-13.4));
#2251=CARTESIAN_POINT('',(1.67,-0.2,-13.4));
#2252=CARTESIAN_POINT('',(1.67,-0.2,-9.5));
#2253=CARTESIAN_POINT('',(1.67,0.2,-9.5));
#2254=CARTESIAN_POINT('',(1.67,0.2,-13.4));
#2255=CARTESIAN_POINT('',(1.67,0.2,-13.4));
#2256=CARTESIAN_POINT('',(1.67,0.2,-9.5));
#2257=CARTESIAN_POINT('',(0.87,0.2,-9.5));
#2258=CARTESIAN_POINT('',(0.87,0.2,-13.4));
#2259=CARTESIAN_POINT('',(2.77,0.,-13.4));
#2260=CARTESIAN_POINT('CARTESIAN_POINT4',(-1.5630392820026,-2.41157090367084,
-0.676597105684067));
#2261=CARTESIAN_POINT('CARTESIAN_POINT8',(0.,0.,0.));
#2262=PLANE('',#1432);
#2263=PLANE('',#1434);
#2264=PLANE('',#1435);
#2265=PLANE('',#1436);
#2266=PLANE('',#1438);
#2267=PLANE('',#1439);
#2268=PLANE('',#1440);
#2269=PLANE('',#1441);
#2270=PLANE('',#1442);
#2271=PLANE('',#1443);
#2272=PLANE('',#1444);
#2273=PLANE('',#1445);
#2274=PLANE('',#1446);
#2275=PLANE('',#1447);
#2276=PLANE('',#1448);
#2277=PLANE('',#1449);
#2278=PLANE('',#1450);
#2279=PLANE('',#1451);
#2280=PLANE('',#1452);
#2281=PLANE('',#1453);
#2282=PLANE('',#1454);
#2283=PLANE('',#1455);
#2284=PLANE('',#1456);
#2285=PLANE('',#1457);
#2286=PLANE('',#1458);
#2287=PLANE('',#1459);
#2288=PLANE('',#1460);
#2289=PLANE('',#1461);
#2290=PLANE('',#1462);
#2291=PLANE('',#1463);
#2292=PLANE('',#1465);
#2293=PLANE('',#1470);
#2294=PLANE('',#1471);
#2295=PLANE('',#1476);
#2296=PLANE('',#1478);
#2297=PLANE('',#1480);
#2298=PLANE('',#1481);
#2299=PLANE('',#1483);
#2300=PLANE('',#1489);
#2301=PLANE('',#1491);
#2302=PLANE('',#1493);
#2303=PLANE('',#1494);
#2304=PLANE('',#1496);
#2305=PLANE('',#1504);
#2306=PLANE('',#1505);
#2307=PLANE('',#1506);
#2308=PLANE('',#1507);
#2309=PLANE('',#1508);
#2310=PLANE('',#1509);
#2311=PLANE('',#1510);
#2312=PLANE('',#1511);
#2313=PLANE('',#1512);
#2314=PLANE('',#1513);
#2315=PLANE('',#1514);
#2316=PLANE('',#1515);
#2317=PLANE('',#1516);
#2318=PLANE('',#1517);
#2319=PLANE('',#1518);
#2320=PLANE('',#1519);
#2321=PLANE('',#1520);
#2322=PLANE('',#1521);
#2323=PLANE('',#1522);
#2324=PLANE('',#1523);
#2325=PLANE('',#1524);
#2326=PLANE('',#1525);
#2327=PLANE('',#1526);
#2328=PLANE('',#1527);
#2329=PLANE('',#1528);
#2330=PLANE('',#1529);
#2331=PLANE('',#1530);
#2332=CLOSED_SHELL('',(#1355,#1356,#1357,#1358,#1359,#1360,#1361,#1362,#1363,
#1364,#1365,#1366,#1367,#1368,#1369,#1370,#1371,#1372,#1373,#1374,#1375,
#1376,#1377,#1378,#1379,#1380,#1381,#1382,#1383,#1384,#1385,#1386,#1387,
#1388,#1389,#1390,#1391,#1392,#1393,#1394,#1395,#1396,#1397,#1398,#1399,
#1400,#1401,#1402,#1403,#1404,#1405,#1406,#1407,#1408,#1409,#1410,#1411,
#1412,#1413,#1414,#1415,#1416,#1417,#1418,#1419,#1420,#1421,#1422,#1423,
#1424,#1425,#1426,#1427,#1428,#1429,#1430,#1431));
#2333=MANIFOLD_SOLID_BREP('',#2332);
#2334=ADVANCED_BREP_SHAPE_REPRESENTATION('TEC_282834-2',(#2333),#53);
ENDSEC;
END-ISO-10303-21;
